<?xml version="1.0" encoding="utf-8"?>
<!-- Generator: Adobe Illustrator 28.1.0, SVG Export Plug-In . SVG Version: 6.00 Build 0)  -->
<svg version="1.1" id="Layer_1" xmlns="http://www.w3.org/2000/svg" xmlns:xlink="http://www.w3.org/1999/xlink" x="0px" y="0px"
	 viewBox="0 0 826.7 1029" style="enable-background:new 0 0 826.7 1029;" xml:space="preserve">
<style type="text/css">
	.st0{fill:none;}
	.st1{fill:#231F20;}
	.st2{opacity:0.5;fill:#71A58E;}
	.st3{opacity:0.45;fill:url(#SVGID_1_);stroke:#DD4126;stroke-miterlimit:10;enable-background:new    ;}
	
		.st4{opacity:0.45;fill:url(#SVGID_00000132774583991188802510000001884637118362960288_);stroke:#8F9194;stroke-miterlimit:10;enable-background:new    ;}
	.st5{fill:#406CA7;}
	.st6{fill:#FFFFFF;}
	.st7{font-family:'ArialMT';}
	.st8{font-size:18px;}
	.st9{font-size:18.0027px;}
	.st10{fill:none;stroke:#231F20;stroke-width:6;stroke-linecap:round;stroke-linejoin:round;}
</style>
<pattern  y="1029" width="28.8" height="28.8" patternUnits="userSpaceOnUse" id="SVGID_0000005279999283658211058" viewBox="1.4 -30.2 28.8 28.8" style="overflow:visible;">
	<g>
		<rect x="1.4" y="-30.2" class="st0" width="28.8" height="28.8"/>
		<g>
			<rect x="1.4" y="-30.2" class="st0" width="28.8" height="28.8"/>
			<g>
				<rect x="1.4" y="-30.2" class="st0" width="28.8" height="28.8"/>
				<g>
					<rect x="1.4" y="-30.2" class="st0" width="28.8" height="28.8"/>
					<g>
						<path class="st1" d="M30.2-31.6c0.8,0,1.4,0.6,1.4,1.4c0,0.8-0.6,1.4-1.4,1.4s-1.4-0.6-1.4-1.4C28.8-31,29.4-31.6,30.2-31.6z"
							/>
						<path class="st1" d="M15.8-31.6c0.8,0,1.4,0.6,1.4,1.4c0,0.8-0.6,1.4-1.4,1.4c-0.8,0-1.4-0.6-1.4-1.4
							C14.4-31,15-31.6,15.8-31.6z"/>
						<path class="st1" d="M30.2-17.2c0.8,0,1.4,0.6,1.4,1.4s-0.6,1.4-1.4,1.4s-1.4-0.6-1.4-1.4C28.8-16.6,29.4-17.2,30.2-17.2z"/>
						<path class="st1" d="M15.8-17.2c0.8,0,1.4,0.6,1.4,1.4s-0.6,1.4-1.4,1.4c-0.8,0-1.4-0.6-1.4-1.4C14.4-16.6,15-17.2,15.8-17.2z
							"/>
						<path class="st1" d="M8.6-24.4c0.8,0,1.4,0.6,1.4,1.4c0,0.8-0.6,1.4-1.4,1.4c-0.8,0-1.4-0.6-1.4-1.4
							C7.2-23.8,7.8-24.4,8.6-24.4z"/>
						<path class="st1" d="M23-24.4c0.8,0,1.4,0.6,1.4,1.4c0,0.8-0.6,1.4-1.4,1.4s-1.4-0.6-1.4-1.4S22.2-24.4,23-24.4z"/>
						<path class="st1" d="M8.6-10C9.4-10,10-9.4,10-8.6S9.4-7.2,8.6-7.2c-0.8,0-1.4-0.6-1.4-1.4C7.2-9.4,7.8-10,8.6-10z"/>
						<path class="st1" d="M23-10c0.8,0,1.4,0.6,1.4,1.4S23.8-7.2,23-7.2s-1.4-0.6-1.4-1.4S22.2-10,23-10z"/>
					</g>
					<g>
						<path class="st1" d="M1.4-31.6c0.8,0,1.4,0.6,1.4,1.4c0,0.8-0.6,1.4-1.4,1.4C0.6-28.7,0-29.4,0-30.2C0-31,0.6-31.6,1.4-31.6z"
							/>
						<path class="st1" d="M1.4-17.2c0.8,0,1.4,0.6,1.4,1.4s-0.6,1.4-1.4,1.4S0-15,0-15.8S0.6-17.2,1.4-17.2z"/>
					</g>
					<g>
						<path class="st1" d="M30.2-2.8c0.8,0,1.4,0.6,1.4,1.4S31,0,30.2,0s-1.4-0.6-1.4-1.4C28.8-2.2,29.4-2.8,30.2-2.8z"/>
						<path class="st1" d="M15.8-2.8c0.8,0,1.4,0.6,1.4,1.4S16.6,0,15.8,0s-1.4-0.6-1.4-1.4C14.4-2.2,15-2.8,15.8-2.8z"/>
					</g>
					<g>
						<path class="st1" d="M1.4-2.8c0.8,0,1.4,0.6,1.4,1.4S2.2,0,1.4,0C0.6,0.1,0-0.6,0-1.4C0-2.2,0.6-2.8,1.4-2.8z"/>
					</g>
				</g>
			</g>
		</g>
	</g>
</pattern>
<pattern  y="1029" width="28.8" height="28.8" patternUnits="userSpaceOnUse" id="SVGID_0000007801784964201553585" viewBox="1.4 -30.2 28.8 28.8" style="overflow:visible;">
	<g>
		<rect x="1.4" y="-30.2" class="st0" width="28.8" height="28.8"/>
		<g>
			<rect x="1.4" y="-30.2" class="st0" width="28.8" height="28.8"/>
			<g>
				<rect x="1.4" y="-30.2" class="st0" width="28.8" height="28.8"/>
				<g>
					<rect x="1.4" y="-30.2" class="st0" width="28.8" height="28.8"/>
					<g>
						<path class="st1" d="M30.2-31.6c0.8,0,1.4,0.6,1.4,1.4c0,0.8-0.6,1.4-1.4,1.4s-1.4-0.6-1.4-1.4C28.8-31,29.4-31.6,30.2-31.6z"
							/>
						<path class="st1" d="M15.8-31.6c0.8,0,1.4,0.6,1.4,1.4c0,0.8-0.6,1.4-1.4,1.4c-0.8,0-1.4-0.6-1.4-1.4
							C14.4-31,15-31.6,15.8-31.6z"/>
						<path class="st1" d="M30.2-17.2c0.8,0,1.4,0.6,1.4,1.4s-0.6,1.4-1.4,1.4s-1.4-0.6-1.4-1.4C28.8-16.6,29.4-17.2,30.2-17.2z"/>
						<path class="st1" d="M15.8-17.2c0.8,0,1.4,0.6,1.4,1.4s-0.6,1.4-1.4,1.4c-0.8,0-1.4-0.6-1.4-1.4C14.4-16.6,15-17.2,15.8-17.2z
							"/>
						<path class="st1" d="M8.6-24.4c0.8,0,1.4,0.6,1.4,1.4c0,0.8-0.6,1.4-1.4,1.4c-0.8,0-1.4-0.6-1.4-1.4
							C7.2-23.8,7.8-24.4,8.6-24.4z"/>
						<path class="st1" d="M23-24.4c0.8,0,1.4,0.6,1.4,1.4c0,0.8-0.6,1.4-1.4,1.4s-1.4-0.6-1.4-1.4S22.2-24.4,23-24.4z"/>
						<path class="st1" d="M8.6-10C9.4-10,10-9.4,10-8.6S9.4-7.2,8.6-7.2c-0.8,0-1.4-0.6-1.4-1.4C7.2-9.4,7.8-10,8.6-10z"/>
						<path class="st1" d="M23-10c0.8,0,1.4,0.6,1.4,1.4S23.8-7.2,23-7.2s-1.4-0.6-1.4-1.4S22.2-10,23-10z"/>
					</g>
					<g>
						<path class="st1" d="M1.4-31.6c0.8,0,1.4,0.6,1.4,1.4c0,0.8-0.6,1.4-1.4,1.4C0.6-28.7,0-29.4,0-30.2C0-31,0.6-31.6,1.4-31.6z"
							/>
						<path class="st1" d="M1.4-17.2c0.8,0,1.4,0.6,1.4,1.4s-0.6,1.4-1.4,1.4S0-15,0-15.8S0.6-17.2,1.4-17.2z"/>
					</g>
					<g>
						<path class="st1" d="M30.2-2.8c0.8,0,1.4,0.6,1.4,1.4S31,0,30.2,0s-1.4-0.6-1.4-1.4C28.8-2.2,29.4-2.8,30.2-2.8z"/>
						<path class="st1" d="M15.8-2.8c0.8,0,1.4,0.6,1.4,1.4S16.6,0,15.8,0s-1.4-0.6-1.4-1.4C14.4-2.2,15-2.8,15.8-2.8z"/>
					</g>
					<g>
						<path class="st1" d="M1.4-2.8c0.8,0,1.4,0.6,1.4,1.4S2.2,0,1.4,0C0.6,0.1,0-0.6,0-1.4C0-2.2,0.6-2.8,1.4-2.8z"/>
					</g>
				</g>
			</g>
		</g>
	</g>
</pattern>
<g id="Spaces">
	<rect id="prototype_lab" x="374.4" y="331.7" class="st2" width="81.3" height="132.6"/>
	<polygon id="materials_lib" class="st2" points="247.4,499.6 210,576.9 337.8,576.9 337.8,499.6 	"/>
	<polygon id="grad_lab" class="st2" points="528.7,674.9 528.7,648.1 483,648.1 483,735.4 546.9,735.4 546.9,674.9 	"/>
	<polygon id="incubator" class="st2" points="724,466.5 605,466.5 605,585 664.9,585 	"/>
</g>
<g id="employee_areas">
	<pattern  id="SVGID_1_" xlink:href="#SVGID_0000007801784964201553585" patternTransform="matrix(1 0 0 -1 -33.8 -34899.2578)">
	</pattern>
	<path class="st3" d="M259.1,906.7l2.8,38.3l-0.1,0.6l157.7,76.1l9.4,4.2l239.5,0.2v-4.9L667,733.5"/>
	
		<pattern  id="SVGID_00000106135042455669387190000018027968467738187399_" xlink:href="#SVGID_0000005279999283658211058" patternTransform="matrix(1 0 0 -1 -33.8 -34899.2578)">
	</pattern>
	
		<polyline style="opacity:0.45;fill:url(#SVGID_00000106135042455669387190000018027968467738187399_);stroke:#8F9194;stroke-miterlimit:10;enable-background:new    ;" points="
		667.3,733.4 658.4,733.4 485,734.7 485,734.4 484.2,649.4 484.2,649.4 500,649.2 500,649 499.8,617.4 499.9,617.9 529.2,617.8 
		529.3,617.4 529,577.2 529,577.7 210.4,577.6 210.4,577.6 247.3,501.6 247.5,501.6 338.8,500.8 338.4,500.8 336.7,413.7 
		336.7,413.3 182.6,412.8 179.2,417 3.5,785.1 2.6,782.6 258.8,906.9 	"/>
</g>
<g id="restroom">
	<rect x="263.8" y="337.5" class="st5" width="73.1" height="75.5"/>
	<path class="st6" d="M310.3,365c1.2,0,2.1-0.9,2.1-2.1s-0.9-2.1-2.1-2.1s-2.1,0.9-2.1,2.1C308.1,364.1,309.1,365,310.3,365z"/>
	<path class="st6" d="M316.1,373.4l-1.8-6.3c-0.4-1.2-1.3-1.6-2.6-1.6l0,0h-2.9l0,0c-1.3,0-2.1,0.4-2.6,1.6l-1.8,6.3
		c-0.1,0.4,0.1,0.8,0.7,0.9c0.4,0.1,0.9-0.1,1-0.5l1.6-5.5h0.4l-2.7,9.6h2.6v6.8c0,0.5,0.5,1,1,1s1-0.5,1-1v-6.8h0.5v6.8
		c0,0.5,0.5,1,1,1s1-0.5,1-1v-6.8h2.6l-2.7-9.6h0.4l1.6,5.5c0.1,0.4,0.5,0.7,1,0.5C315.9,374.2,316.2,373.8,316.1,373.4z"/>
	<path class="st6" d="M289,365c1.2,0,2.1-0.9,2.1-2.1s-0.9-2.1-2.1-2.1s-2.1,0.9-2.1,2.1C286.7,364.1,287.8,365,289,365z"/>
	<path class="st6" d="M291.7,365.5h-5.5c-1.3,0-2.4,1-2.4,2.4v6.7c0,0.5,0.4,0.9,0.9,0.9s0.9-0.4,0.9-0.9v-5.9h0.5v6.8v9.2
		c0,0.7,0.5,1.2,1.2,1.2s1.2-0.5,1.2-1.2v-9.2h0.5v9.2c0,0.7,0.5,1.2,1.2,1.2s1.2-0.5,1.2-1.2v-9.2v-6.8h0.5v5.9
		c0,0.5,0.4,0.9,0.9,0.9s0.9-0.4,0.9-0.9v-6.7C294.1,366.6,293,365.5,291.7,365.5z"/>
	<rect x="298.9" y="360.8" class="st6" width="2.4" height="24.9"/>
</g>
<g id="Text">
	<text transform="matrix(1 0 0 1 492.998 696.9744)" class="st7 st8">Grad</text>
	<text transform="matrix(1 0 0 1 492.998 718.5745)" class="st7 st8">Lab</text>
	<text transform="matrix(1 0 0 1 250.9289 534.8701)" class="st7 st8">Materials</text>
	<text transform="matrix(1 0 0 1 250.9289 556.4702)" class="st7 st8">Library</text>
	<text transform="matrix(0.6357 -0.772 0.772 0.6357 387.5861 431.9797)" class="st7 st9">Prototyping</text>
	<text transform="matrix(0.6357 -0.772 0.772 0.6357 425.8749 419.4623)" class="st7 st9">Lab</text>
	<text transform="matrix(1 0 0 1 613.0806 510.8201)" class="st7 st8">Incubator</text>
	<text transform="matrix(1 0 0 1 628.4807 532.4201)" class="st7 st8">Space</text>
</g>
<g id="floor_outline">
	<g>
		<line class="st10" x1="823.2" y1="260.8" x2="667.3" y2="585"/>
		<line class="st10" x1="181.7" y1="412.6" x2="3.4" y2="783.3"/>
		<line class="st10" x1="259.5" y1="907.5" x2="3" y2="784.1"/>
		<line class="st10" x1="261.3" y1="945.9" x2="427.9" y2="1026"/>
		<line class="st10" x1="260.9" y1="257.1" x2="260.9" y2="411.6"/>
		<line class="st10" x1="181.7" y1="412.6" x2="260.2" y2="412.8"/>
		<line class="st10" x1="667.9" y1="1026" x2="666.6" y2="678.2"/>
		<line class="st10" x1="427.9" y1="1026" x2="667.8" y2="1026"/>
		<line class="st10" x1="261.3" y1="945.9" x2="260" y2="907.7"/>
		<line class="st10" x1="295.8" y1="161.6" x2="261.1" y2="255.9"/>
		<line class="st10" x1="335.7" y1="162" x2="295.8" y2="161.6"/>
		<line class="st10" x1="335.7" y1="79" x2="336.1" y2="160.4"/>
		<line class="st10" x1="372.7" y1="79" x2="335.8" y2="78.6"/>
		<line class="st10" x1="372.7" y1="3" x2="372.8" y2="78.2"/>
		<line class="st10" x1="501.7" y1="3" x2="373.7" y2="3"/>
		<line class="st10" x1="502.9" y1="42.2" x2="501.7" y2="3"/>
		<line class="st10" x1="581.2" y1="40.5" x2="502.9" y2="42.2"/>
		<line class="st10" x1="583.5" y1="76.7" x2="581.2" y2="40.5"/>
		<line class="st10" x1="659.3" y1="78" x2="583.5" y2="76.7"/>
		<line class="st10" x1="661.4" y1="114.5" x2="659.3" y2="78"/>
		<line class="st10" x1="740.8" y1="114.9" x2="661.4" y2="114.5"/>
		<line class="st10" x1="823.7" y1="259.9" x2="744.6" y2="221.9"/>
		<line class="st10" x1="740.8" y1="114.9" x2="742.1" y2="220.5"/>
		<line class="st10" x1="606.6" y1="585.1" x2="666.4" y2="585.1"/>
		<line class="st10" x1="606.5" y1="677.5" x2="606.6" y2="585.4"/>
		<line class="st10" x1="606.5" y1="678.2" x2="666.6" y2="678.2"/>
	</g>
</g>
</svg>
