<?xml version="1.0" encoding="utf-8"?>
<!-- Generator: Adobe Illustrator 28.0.0, SVG Export Plug-In . SVG Version: 6.00 Build 0)  -->
<svg version="1.1" xmlns="http://www.w3.org/2000/svg" xmlns:xlink="http://www.w3.org/1999/xlink" x="0px" y="0px"
	 viewBox="0 0 1350.7 975" style="enable-background:new 0 0 1350.7 975;" xml:space="preserve">
<style type="text/css">
	.st0{fill:none;}
	.st1{fill:none;stroke:#231F20;stroke-width:0.3;}
	.st2{fill:#FFFFFF;stroke:#000000;stroke-miterlimit:10;}
	.st3{fill:#A2C9EA;stroke:#A2C9EA;stroke-miterlimit:10;}
	.st4{fill:#A2C9EA;}
	.st5{font-family:'Arial-ItalicMT';}
	.st6{font-size:14px;}
	.st7{font-family:'ArialNarrow-Italic';}
	.st8{font-size:14.6418px;}
	.st9{font-family:'ArialNarrow-Bold';}
	.st10{font-size:33.4957px;}
	.st11{fill:#E5E5E5;stroke:#000000;stroke-miterlimit:10;}
	.st12{fill:#F5F5C8;stroke:#000000;stroke-miterlimit:10;}
	.st13{fill:#EAC16E;stroke:#000000;stroke-miterlimit:10;}
	.st14{fill:url(#Grid_1_pica_Lines);stroke:#000000;stroke-miterlimit:10;}
	.st15{display:none;}
	.st16{display:inline;fill:none;}
	.st17{display:inline;}
	.st18{font-family:'MyriadPro-Regular';}
	.st19{font-size:18px;}
	.st20{font-size:12px;}
	.st21{display:inline;fill:#E4F2F9;}
	.st22{font-family:'Arial-BoldMT';}
	.st23{font-size:300px;}
	.st24{letter-spacing:7;}
	.st25{font-size:48px;}
	.st26{font-size:21px;}
	.st27{fill:#C60606;stroke:#000000;stroke-miterlimit:10;}
	.st28{fill:#FFFFFF;}
	.st29{fill:#F9E235;stroke:#000000;stroke-miterlimit:10;}
	.st30{fill:#785AA0;stroke:#000000;stroke-miterlimit:10;}
	.st31{fill:#785AA0;}
	.st32{font-family:'Verdana-Bold';}
	.st33{font-size:11px;}
	.st34{fill:#146EDC;stroke:#000000;stroke-miterlimit:10;}
	.st35{fill:#939393;stroke:#000000;stroke-miterlimit:10;}
	.st36{stroke:#FFFFFF;stroke-miterlimit:10;}
</style>
<pattern  y="975" width="72" height="72" patternUnits="userSpaceOnUse" id="Grid_1_pica_Lines" viewBox="72.2 -144.2 72 72" style="overflow:visible;">
	<g>
		<rect x="72.2" y="-144.2" class="st0" width="72" height="72"/>
		<g>
			<line class="st1" x1="78.2" y1="-72.5" x2="78.2" y2="0"/>
			<line class="st1" x1="102.2" y1="-72.5" x2="102.2" y2="0"/>
			<line class="st1" x1="126.2" y1="-72.5" x2="126.2" y2="0"/>
			<line class="st1" x1="90.2" y1="-72.5" x2="90.2" y2="0"/>
			<line class="st1" x1="114.2" y1="-72.5" x2="114.2" y2="0"/>
			<line class="st1" x1="138.2" y1="-72.5" x2="138.2" y2="0"/>
		</g>
		<g>
			<line class="st1" x1="144" y1="-78.2" x2="216.5" y2="-78.2"/>
			<line class="st1" x1="144" y1="-102.2" x2="216.5" y2="-102.2"/>
			<line class="st1" x1="144" y1="-126.2" x2="216.5" y2="-126.2"/>
			<line class="st1" x1="144" y1="-90.2" x2="216.5" y2="-90.2"/>
			<line class="st1" x1="144" y1="-114.2" x2="216.5" y2="-114.2"/>
			<line class="st1" x1="144" y1="-138.2" x2="216.5" y2="-138.2"/>
		</g>
		<g>
			<line class="st1" x1="78.2" y1="-144.5" x2="78.2" y2="-72"/>
			<line class="st1" x1="102.2" y1="-144.5" x2="102.2" y2="-72"/>
			<line class="st1" x1="126.2" y1="-144.5" x2="126.2" y2="-72"/>
			<line class="st1" x1="72" y1="-78.2" x2="144.5" y2="-78.2"/>
			<line class="st1" x1="72" y1="-102.2" x2="144.5" y2="-102.2"/>
			<line class="st1" x1="72" y1="-126.2" x2="144.5" y2="-126.2"/>
			<line class="st1" x1="72" y1="-90.2" x2="144.5" y2="-90.2"/>
			<line class="st1" x1="72" y1="-114.2" x2="144.5" y2="-114.2"/>
			<line class="st1" x1="72" y1="-138.2" x2="144.5" y2="-138.2"/>
			<line class="st1" x1="90.2" y1="-144.5" x2="90.2" y2="-72"/>
			<line class="st1" x1="114.2" y1="-144.5" x2="114.2" y2="-72"/>
			<line class="st1" x1="138.2" y1="-144.5" x2="138.2" y2="-72"/>
		</g>
		<g>
			<line class="st1" x1="0" y1="-78.2" x2="72.5" y2="-78.2"/>
			<line class="st1" x1="0" y1="-102.2" x2="72.5" y2="-102.2"/>
			<line class="st1" x1="0" y1="-126.2" x2="72.5" y2="-126.2"/>
			<line class="st1" x1="0" y1="-90.2" x2="72.5" y2="-90.2"/>
			<line class="st1" x1="0" y1="-114.2" x2="72.5" y2="-114.2"/>
			<line class="st1" x1="0" y1="-138.2" x2="72.5" y2="-138.2"/>
		</g>
		<g>
			<line class="st1" x1="78.2" y1="-216.5" x2="78.2" y2="-144"/>
			<line class="st1" x1="102.2" y1="-216.5" x2="102.2" y2="-144"/>
			<line class="st1" x1="126.2" y1="-216.5" x2="126.2" y2="-144"/>
			<line class="st1" x1="90.2" y1="-216.5" x2="90.2" y2="-144"/>
			<line class="st1" x1="114.2" y1="-216.5" x2="114.2" y2="-144"/>
			<line class="st1" x1="138.2" y1="-216.5" x2="138.2" y2="-144"/>
		</g>
	</g>
</pattern>
<g id="base_white">
	<polyline class="st2" points="546.5,674.9 604.6,628.5 641,702.9 796.7,431.3 824,450.5 808.7,477.2 957.2,588.6 1045,455.1
		956.3,383.3 930.3,362.7 898.8,413 828.1,367 857.1,313.1 697.2,50.1 645.5,98.1 582.4,62.1 546.5,142.1 523.6,131.1 494.1,204.8
		472.4,191.8 439.2,269.7 419.2,260.9 372,370.8 408,390.8 398.6,415.8 442,437.8 427.6,472.4 460.7,526.9 559.1,592.7 530.7,645.2
		546.5,674.9 	"/>
</g>
<g id="street">
	<g>
		<line class="st3" x1="327.2" y1="120.2" x2="513.7" y2="2.2"/>
		<line class="st3" x1="339.6" y1="140.1" x2="548" y2="8.2"/>

			<rect x="364.7" y="58.7" transform="matrix(0.848 -0.5299 0.5299 0.848 31.7228 242.9718)" class="st0" width="149.6" height="15"/>
		<text transform="matrix(0.8481 -0.5299 0.5299 0.8481 377.4565 107.9725)" class="st4 st5 st6">San Fernando Street</text>
	</g>
	<g>
		<line class="st3" x1="376.6" y1="710.2" x2="209.4" y2="386.5"/>
		<line class="st3" x1="398" y1="700.6" x2="230.2" y2="375.9"/>

			<rect x="293.9" y="461.3" transform="matrix(0.8829 -0.4695 0.4695 0.8829 -216.3979 204.2683)" class="st0" width="15" height="149.6"/>
		<text transform="matrix(-0.4695 -0.8829 0.8829 -0.4695 323.8719 572.8218)" class="st4 st5 st6">Fourth Street</text>
	</g>
	<g>
		<polygon class="st4" points="1289.4,713 1264.2,693.7 1270.1,738.3 		"/>

			<rect x="1235" y="655.9" transform="matrix(0.9873 -0.1586 0.1586 0.9873 -98.0183 206.9458)" class="st0" width="25.2" height="123.4"/>
		<text transform="matrix(0.1586 0.9873 -0.9873 0.1586 1243.4818 678.3264)" class="st4 st7 st8">SJSU Campus</text>
	</g>
</g>
<g id="north">
	<g>
		<polygon class="st4" points="523,81 515.7,113.7 555.7,88.3 		"/>

			<rect x="502.4" y="55.1" transform="matrix(0.829 -0.5592 0.5592 0.829 49.6321 299.1659)" class="st0" width="23.3" height="26.6"/>
		<text transform="matrix(0.829 -0.5592 0.5592 0.829 511.8163 82.8545)" class="st4 st9 st10">N</text>
	</g>
</g>
<g id="grey_region">
	<polygon id="room_4" class="st11" points="587.1,360.6 563.4,403.7 592.9,419.7 616.9,376.6 	"/>
	<polygon id="periodical_service_desk" class="st11" points="796.2,307.1 824.3,326.4 798.2,374.6 769.6,355.5 	"/>
	<polygon id="room2_1_" class="st11" points="632.6,610.5 619,634.8 642.2,654.7 657.1,628.3 	"/>
	<polygon id="room1" class="st11" points="658.1,563.6 638.1,602.3 661.2,619.3 682.1,580.6 	"/>
	<polygon id="print_station" class="st11" points="660.1,554.2 690.8,574.7 753.7,465.1 721.6,445.4 	"/>
	<polygon id="SERVICESService" class="st11" points="734.4,408.1 767.3,383.7 785.9,413.2 751.5,438 	"/>
	<path class="st2" d="M714.5,212.2"/>
	<polygon id="L04" class="st11" points="717.8,213.8 735.6,180.1 706.6,164.3 690,199.2 	"/>
	<polygon id="L02" class="st11" points="735.6,180.1 717.8,213.8 749.5,229.9 766.8,197.4 	"/>
	<polyline id="SJSU_Grad_Lab" class="st11" points="957.5,588.9 998.2,527.3 952.3,491.3 937,513.5 884.6,477.5 859,515
		957.5,588.9 	"/>
	<polygon id="Earlycare" class="st11" points="531.2,645.2 547.2,675.2 605.2,628.7 646,553.2 546.1,493.7 510,559.6 559.5,592.7
		"/>
</g>
<g id="yellow_region">
	<polygon id="Historical" class="st12" points="585.4,85 557.6,152.6 674.7,213.8 705,149.4 	"/>
	<polygon id="Govt_Publication" class="st12" points="534,151.6 504.5,213.8 636.9,284.8 668.4,220.9 	"/>
	<polygon id="QD_x26_Z" class="st12" points="449.4,280.2 478.8,216.3 697.5,332.7 665.5,391.1 	"/>
	<polygon id="Microfiche" class="st12" points="426.9,281.7 406,325.9 557.6,400.8 582.7,357 	"/>
	<polygon id="room2" class="st12" points="705,338.4 686,375.1 731.4,403.7 752,367.6 	"/>
	<polygon id="Magzines" class="st12" points="622,381.9 601.5,419.8 692.8,472.6 714.6,430.4 	"/>
	<polygon id="QD_x26_H" class="st12" points="424.9,346 411.8,373 424.9,385.3 418.4,409.1 546.7,470.2 573.5,422.6 	"/>
	<polygon id="H_x26_A" class="st12" points="579.1,425.5 550.8,479.2 660.3,538.3 686,488.7 	"/>
	<polygon id="room" class="st12" points="459.2,440.7 444.8,468.3 464.3,479 457.7,493.4 479.2,504.2 473,516.1 512.4,537.1
		542.1,481.9 	"/>
</g>
<g id="vertical_flow">
	<polygon class="st13" points="828.4,367.2 815.8,388.9 914.4,455.3 927.3,431.5 	"/>
	<polygon class="st13" points="927.3,431.5 956.3,383.3 930.3,362.7 898.8,413 	"/>
</g>
<g id="grid">
	<polygon class="st14" points="604.8,628.7 546.8,675.2 694.9,958.8 883.3,866.3 920.5,896 1077.5,803.5 1225.4,591.4 1045.2,455.3
		957.5,588.9 809,477.5 824.3,450.7 796.9,431.5 658,675.2 645.7,695.2 641.2,703.1 	"/>
	<path class="st11" d="M520,796.3"/>
</g>
<g id="text" class="st15">
	<rect x="542.8" y="550.2" class="st16" width="90.9" height="48.9"/>
	<text transform="matrix(1 0 0 1 546.8317 560.1115)" class="st17"><tspan x="0" y="0" class="st18 st6">Early Care and</tspan><tspan x="12" y="18" class="st18 st6">Education</tspan><tspan x="17.8" y="36" class="st18 st6">Services</tspan></text>
	<rect x="757.4" y="499.7" class="st16" width="80.4" height="34.1"/>
	<text transform="matrix(1 0 0 1 775.0635 512.4957)" class="st17"><tspan x="0" y="0" class="st18 st19">Books</tspan><tspan x="-0.1" y="18" class="st18 st19">Aloud</tspan></text>
	<rect x="904.9" y="522.9" class="st16" width="80.4" height="34.1"/>
	<text transform="matrix(1 0 0 1 915.4457 532.8098)" class="st17"><tspan x="0" y="0" class="st18 st6">SJSU Grad </tspan><tspan x="3" y="14" class="st18 st6">Lab (L67)</tspan></text>
	<rect x="696" y="183.1" class="st16" width="32.9" height="15"/>
	<text transform="matrix(1 0 0 1 701.9224 193.0081)" class="st17 st18 st6">L04</text>
	<rect x="725.8" y="199.1" class="st16" width="32.9" height="15"/>
	<text transform="matrix(1 0 0 1 731.7999 209.0186)" class="st17 st18 st6">L02</text>

		<rect x="765.6" y="336.2" transform="matrix(0.5736 -0.8192 0.8192 0.5736 17.1165 805.8115)" class="st16" width="33.8" height="100.6"/>
	<text transform="matrix(0.8192 0.5736 -0.5736 0.8192 765.1545 364.13)" class="st17"><tspan x="0" y="0" class="st18 st20">Periodicals</tspan><tspan x="-4.4" y="14" class="st18 st20">Service Desk</tspan></text>

		<rect x="598.3" y="87.5" transform="matrix(0.4695 -0.8829 0.8829 0.4695 198.7047 636.9372)" class="st16" width="62.2" height="131.3"/>
	<text transform="matrix(0.8829 0.4695 -0.4695 0.8829 596.1458 109.8703)" class="st17"><tspan x="0" y="0" class="st18 st20">Historical California, </tspan><tspan x="-14.6" y="14" class="st18 st20">Textbooks, Children’s and </tspan><tspan x="-6" y="28" class="st18 st20">Juvenile Books, Award </tspan><tspan x="2.4" y="42" class="st18 st20">Winners, Big Books </tspan></text>

		<rect x="573.6" y="152.5" transform="matrix(0.4695 -0.8829 0.8829 0.4695 118.4662 633.5845)" class="st16" width="25.7" height="131.3"/>
	<text transform="matrix(0.8829 0.4695 -0.4695 0.8829 560.5671 199.5039)" class="st17"><tspan x="0" y="0" class="st18 st20">Government</tspan><tspan x="-0.3" y="14" class="st18 st20"> Publications</tspan></text>

		<rect x="480.9" y="276.1" transform="matrix(0.4226 -0.9063 0.9063 0.4226 -27.5087 640.3879)" class="st16" width="15.9" height="131.3"/>
	<text transform="matrix(0.9063 0.4226 -0.4226 0.9063 437.6491 318.5569)" class="st17 st18 st20">Microfiche &amp; Microfilm</text>

		<rect x="636.4" y="378.3" transform="matrix(0.4695 -0.8829 0.8829 0.4695 -28.1657 805.5199)" class="st16" width="39.6" height="95.9"/>
	<text transform="matrix(0.8829 0.4695 -0.4695 0.8829 632.8658 401.014)" class="st17"><tspan x="0" y="0" class="st18 st20">Magazines Z, </tspan><tspan x="-0.4" y="14" class="st18 st20">Magazines A, </tspan><tspan x="4" y="28" class="st18 st20">Newspaper</tspan></text>
	<rect x="426" y="367" class="st16" width="24.1" height="11.8"/>
	<text transform="matrix(1 0 0 1 429.8799 375.499)" class="st17 st18 st20">QD</text>
	<rect x="533.1" y="433.9" class="st16" width="24.1" height="11.8"/>
	<text transform="matrix(1 0 0 1 541.2698 442.3796)" class="st17 st18 st20">H</text>
	<rect x="568.2" y="454.4" class="st16" width="24.1" height="11.8"/>
	<text transform="matrix(1 0 0 1 576.3431 462.9358)" class="st17 st18 st20">H</text>
	<rect x="646.9" y="500.2" class="st16" width="24.1" height="11.8"/>
	<text transform="matrix(1 0 0 1 655.2499 508.6916)" class="st17 st18 st20">A</text>
	<rect x="466.8" y="248.7" class="st16" width="24.1" height="11.8"/>
	<text transform="matrix(1 0 0 1 470.6735 257.1718)" class="st17 st18 st20">QD</text>
	<rect x="648.6" y="365.2" class="st16" width="24.1" height="11.8"/>
	<text transform="matrix(1 0 0 1 657.3225 373.684)" class="st17 st18 st20">Z</text>
	<rect x="74.5" y="26.7" class="st16" width="235.7" height="224.7"/>
	<text transform="matrix(1 0 0 1 74.5037 241.486)" class="st21 st22 st23 st24">L</text>
	<rect x="24.6" y="22.3" class="st16" width="317.4" height="54.6"/>
	<text transform="matrix(1 0 0 1 24.6463 56.6768)" class="st17 st22 st25">Lower Level</text>
	<rect x="25.6" y="86.7" class="st16" width="229.9" height="77.9"/>
	<text transform="matrix(1 0 0 1 25.6463 101.7143)" class="st17"><tspan x="0" y="0" class="st5 st26">Periodicals (all years)</tspan><tspan x="0" y="25.2" class="st5 st26">Microfilms</tspan><tspan x="0" y="50.4" class="st5 st26">Government Collections</tspan></text>
</g>
<g id="EXIT" class="st15">
	<g class="st17">
		<circle class="st27" cx="785.9" cy="199.1" r="16.7"/>
		<rect x="773.9" y="194.3" class="st0" width="23.8" height="10.5"/>
		<text transform="matrix(1 0 0 1 775.0215 202.7928)" class="st28 st18 st20">EXIT</text>
	</g>
	<g class="st17">
		<circle class="st27" cx="968.6" cy="397.3" r="16.7"/>
		<rect x="956.6" y="392.4" class="st0" width="23.8" height="10.5"/>
		<text transform="matrix(1 0 0 1 957.6926 400.9699)" class="st28 st18 st20">EXIT</text>
	</g>
	<g class="st17">
		<circle class="st27" cx="543.1" cy="593.7" r="16.7"/>
		<rect x="531.1" y="588.9" class="st0" width="23.8" height="10.5"/>
		<text transform="matrix(1 0 0 1 532.1768 597.4539)" class="st28 st18 st20">EXIT</text>
	</g>
</g>
<g id="stair_x2F_ele" class="st15">
	<g class="st17">
		<circle class="st29" cx="927.1" cy="399.3" r="12.3"/>
		<polygon points="919.2,405.4 919.2,401.9 922.7,401.9 922.7,398.4 926.1,398.4 926.1,394.9 929.6,394.9 929.6,391.5 933.1,391.5
			933.1,405.4 		"/>
	</g>
	<g class="st17">
		<circle class="st29" cx="871.5" cy="410.6" r="12.3"/>
		<rect x="865.3" y="405.1" width="5.8" height="11.6"/>
		<rect x="872" y="405.1" width="5.8" height="11.6"/>
		<rect x="870.2" y="402.9" width="2.7" height="1.6"/>
		<polygon points="869.2,402.9 871.5,401.2 873.9,402.9 		"/>
	</g>
</g>
<g id="service" class="st15">
	<g class="st17">
		<circle class="st30" cx="759.1" cy="411" r="12.3"/>
		<path class="st28" d="M763.5,415.2h-8.9c-2,0-3.6-1.6-3.6-3.6v-4.4c0-2,1.6-3.6,3.6-3.6h8.9c2,0,3.6,1.6,3.6,3.6v4.4
			C767.1,413.6,765.5,415.2,763.5,415.2z"/>
		<rect x="754.8" y="405.1" class="st0" width="8.7" height="9.4"/>
		<text transform="matrix(1 0 0 1 755.2262 413.4597)" class="st31 st32 st33">S</text>
		<polygon class="st28" points="754.8,415.2 753.6,419.7 758.5,415.2 		"/>
	</g>
</g>
<g id="emergency" class="st15">
	<g class="st17">
		<circle class="st34" cx="480.2" cy="301.7" r="13.7"/>
		<path class="st28" d="M477.3,307l0,3.1c0,0.7,0.6,1.3,1.3,1.3l2.5,0c0.7,0,1.3-0.6,1.3-1.3l0-3.1c0-0.7-0.6-1.3-1.3-1.3l-2.5,0
			C477.9,305.8,477.3,306.3,477.3,307z"/>
		<path class="st28" d="M480.9,294.6l0.2,13.8c0,0.7,0.6,1.3,1.3,1.3l0.3,0c0.7,0,1.3-0.6,1.3-1.3l-0.2-13.8c0-0.7-0.6-1.3-1.3-1.3
			l-0.3,0C481.4,293.3,480.8,293.9,480.9,294.6z"/>
		<path class="st28" d="M477,293.3l0,3.1c0,0.7,0.6,1.3,1.3,1.3l2.7,0c0.7,0,1.3-0.6,1.3-1.3l0-3.1c0-0.7-0.6-1.3-1.3-1.3l-2.7,0
			C477.6,292,477,292.6,477,293.3z"/>

			<ellipse transform="matrix(0.6881 -0.7256 0.7256 0.6881 -74.1534 446.3159)" class="st28" cx="482.1" cy="309.4" rx="2.4" ry="1.3"/>

			<ellipse transform="matrix(0.6703 -0.7421 0.7421 0.6703 -59.1856 454.3932)" class="st28" cx="481.8" cy="293.8" rx="1.3" ry="2.3"/>
	</g>
</g>
<g id="loo" class="st15">
	<g class="st17">
		<circle class="st34" cx="557.8" cy="508.4" r="14.2"/>
		<path class="st28" d="M561.4,504.6l0,4.6c0,0.5,0.4,0.9,0.9,0.9l1.9,0c0.5,0,0.9-0.4,0.9-0.9l0-4.6c0-0.5-0.4-0.9-0.9-0.9l-1.9,0
			C561.8,503.7,561.4,504.1,561.4,504.6z"/>
		<path class="st28" d="M566.6,503.9l0,4.9c0,0.3-0.2,0.6-0.6,0.6l-0.4,0c-0.3,0-0.6-0.2-0.6-0.6l0-4.9c0-0.3,0.2-0.6,0.6-0.6l0.4,0
			C566.4,503.3,566.6,503.6,566.6,503.9z"/>
		<path class="st28" d="M561.2,503.8l0,5c0,0.3-0.2,0.6-0.6,0.6l-0.4,0c-0.3,0-0.6-0.2-0.6-0.6l0-5c0-0.3,0.2-0.6,0.6-0.6l0.4,0
			C560.9,503.3,561.2,503.5,561.2,503.8z"/>
		<circle class="st28" cx="563.2" cy="501.2" r="1.6"/>
		<path class="st28" d="M559.7,503.8l0,0.7c0,0.3,0.3,0.6,0.6,0.6l5.7,0c0.3,0,0.6-0.3,0.6-0.6l0-0.7c0-0.3-0.3-0.6-0.6-0.6l-5.7,0
			C560,503.2,559.7,503.5,559.7,503.8z"/>
		<path class="st28" d="M563.1,508.6l0,7.4c0,0.3-0.2,0.6-0.6,0.6l-0.6,0c-0.3,0-0.6-0.2-0.6-0.6l0-7.4c0-0.3,0.2-0.6,0.6-0.6l0.6,0
			C562.8,508,563.1,508.3,563.1,508.6z"/>
		<path class="st28" d="M565,508.5l0,7.4c0,0.3-0.2,0.6-0.6,0.6l-0.6,0c-0.3,0-0.6-0.2-0.6-0.6l0-7.4c0-0.3,0.2-0.6,0.6-0.6l0.6,0
			C564.7,507.9,565,508.2,565,508.5z"/>
		<rect x="557.4" y="498.9" class="st28" width="0.7" height="18.3"/>
		<path class="st28" d="M550.3,504l-1,4.9c-0.1,0.3-0.4,0.5-0.7,0.4l-0.4-0.1c-0.3-0.1-0.5-0.4-0.4-0.7l1-4.9
			c0.1-0.3,0.4-0.5,0.7-0.4l0.4,0.1C550.2,503.4,550.4,503.7,550.3,504z"/>
		<circle class="st28" cx="552.3" cy="501.2" r="1.6"/>
		<path class="st28" d="M548.8,503.8l0,0.7c0,0.3,0.3,0.6,0.6,0.6l5.7,0c0.3,0,0.6-0.3,0.6-0.6l0-0.7c0-0.3-0.3-0.6-0.6-0.6l-5.7,0
			C549.1,503.2,548.8,503.5,548.8,503.8z"/>
		<path class="st28" d="M552.2,508.5l0,7.4c0,0.3-0.2,0.5-0.5,0.5l-0.4,0c-0.3,0-0.5-0.2-0.5-0.5l0-7.4c0-0.3,0.2-0.5,0.5-0.5l0.4,0
			C552,508,552.2,508.3,552.2,508.5z"/>
		<path class="st28" d="M555.7,503.6l1,4.9c0.1,0.3-0.1,0.6-0.4,0.7l-0.4,0.1c-0.3,0.1-0.6-0.1-0.7-0.4l-1-4.9
			c-0.1-0.3,0.1-0.6,0.4-0.7l0.4-0.1C555.3,503.1,555.6,503.3,555.7,503.6z"/>
		<polygon class="st28" points="549.1,511.4 550.3,505.2 554.3,505.1 555.5,511.4 		"/>
		<path class="st28" d="M554.1,508.6l0,7.4c0,0.3-0.2,0.5-0.5,0.5l-0.4,0c-0.3,0-0.5-0.2-0.5-0.5l0-7.4c0-0.3,0.2-0.5,0.5-0.5l0.4,0
			C553.9,508,554.1,508.3,554.1,508.6z"/>
	</g>
</g>
<g id="reading" class="st15">
	<g class="st17">
		<circle cx="707.8" cy="236.7" r="13.7"/>
		<rect x="700.9" y="234.5" transform="matrix(0.866 -0.5 0.5 0.866 -25.7231 385.0704)" class="st11" width="9.7" height="12.1"/>

			<rect x="703.1" y="230" transform="matrix(0.942 -0.3356 0.3356 0.942 -38.4502 251.4445)" class="st11" width="10.4" height="13.9"/>

			<rect x="705.9" y="227.8" transform="matrix(0.981 -0.1941 0.1941 0.981 -31.9914 142.554)" class="st11" width="10.9" height="13.4"/>
		<line class="st35" x1="708.3" y1="231.8" x2="713.2" y2="230.8"/>
		<line class="st35" x1="708.9" y1="234.5" x2="713.8" y2="233.5"/>
		<line class="st35" x1="709.3" y1="237.2" x2="714.2" y2="236.1"/>
	</g>
</g>
<g id="comp" class="st15">
	<g class="st17">
		<circle cx="742.2" cy="481.7" r="13.7"/>

			<rect x="736.7" y="472.6" transform="matrix(6.123234e-17 -1 1 6.123234e-17 262.8996 1221.7687)" class="st11" width="11.2" height="13.7"/>

			<rect x="740.2" y="478.7" transform="matrix(6.123234e-17 -1 1 6.123234e-17 254.5806 1230.2208)" class="st11" width="4.3" height="18.3"/>

			<rect x="738.5" y="474.2" transform="matrix(6.123234e-17 -1 1 6.123234e-17 263.0138 1221.8002)" class="st11" width="7.9" height="10.5"/>
	</g>
	<g class="st17">
		<g>
			<circle cx="723.5" cy="452.3" r="13.7"/>

				<rect x="719.9" y="443.5" transform="matrix(6.123234e-17 -1 1 6.123234e-17 270.994 1175.6277)" class="st28" width="6.7" height="17.7"/>

				<rect x="719.8" y="451" transform="matrix(6.123234e-17 -1 1 6.123234e-17 266.5657 1180.1187)" class="st36" width="7.1" height="11.5"/>

				<rect x="720.5" y="440.9" transform="matrix(6.123234e-17 -1 1 6.123234e-17 276.7057 1169.9159)" class="st36" width="5.5" height="11.5"/>
			<line class="st36" x1="720.3" y1="458.4" x2="724.8" y2="458.4"/>
			<circle cx="730.5" cy="450.8" r="0.8"/>
		</g>
		<line class="st36" x1="720.2" y1="456.3" x2="726.4" y2="456.3"/>
	</g>
	<g class="st17">
		<circle cx="713.8" cy="529.4" r="13.7"/>
		<polygon class="st28" points="709.6,520 720.5,524.1 721.5,530.5 711.1,526.5 		"/>
		<polygon class="st36" points="720.2,531.1 710.6,527.5 705.9,531.7 715.2,535.3 		"/>
		<polygon class="st28" points="705,532.5 715.1,536.3 715.1,537.7 705,533.7 		"/>
		<polygon class="st28" points="715.6,536.3 722.2,530.9 722.2,532.3 715.6,537.7 		"/>
		<polygon class="st28" points="709.6,520 710.4,519.5 721.1,523.4 720.5,524.1 		"/>
		<polygon class="st28" points="721.5,530.5 720.5,524.1 721.1,523.4 722.2,530.1 		"/>
		<line class="st36" x1="708.1" y1="529.9" x2="717.4" y2="533.1"/>
		<ellipse cx="714.3" cy="536.7" rx="0.5" ry="0.5"/>
	</g>
</g>
</svg>
