<?xml version="1.0" encoding="utf-8"?>
<!-- Generator: Adobe Illustrator 28.2.0, SVG Export Plug-In . SVG Version: 6.00 Build 0)  -->
<svg version="1.1" id="Layer_1" xmlns="http://www.w3.org/2000/svg" xmlns:xlink="http://www.w3.org/1999/xlink" x="0px" y="0px"
	 viewBox="0 0 826.7 1047.5" style="enable-background:new 0 0 826.7 1047.5;" xml:space="preserve">
<style type="text/css">
	.st0{fill:none;}
	.st1{fill:#231F20;}
	.st2{opacity:0.5;fill:#71A58E;enable-background:new    ;}
	.st3{fill:#406CA7;}
	.st4{fill:#FFFFFF;}
	
		.st5{opacity:0.45;fill:url(#SVGID_00000005231286496684994430000017176975298739063937_);stroke:#DD4126;stroke-miterlimit:10;enable-background:new    ;}
	
		.st6{opacity:0.45;fill:url(#SVGID_00000081620341753144823820000015493607500179573888_);stroke:#8F9194;stroke-miterlimit:10;enable-background:new    ;}
	
		.st7{opacity:0.45;fill:url(#SVGID_00000145052982633709447400000001454384224884106407_);stroke:#000000;stroke-width:0.5;stroke-miterlimit:10;enable-background:new    ;}
	.st8{opacity:0.68;fill:#EDCA74;enable-background:new    ;}
	.st9{font-family:'ArialMT';}
	.st10{font-size:15px;}
	.st11{font-size:14.9975px;}
	.st12{font-size:14px;}
	.st13{display:none;enable-background:new    ;}
	.st14{font-size:13px;}
	.st15{opacity:0.4;fill:#1A4363;enable-background:new    ;}
	.st16{fill:none;stroke:#010101;stroke-width:4;stroke-miterlimit:10;}
	.st17{fill:none;stroke:#231F20;stroke-width:6;stroke-linecap:round;stroke-linejoin:round;}
	.st18{fill:#486665;stroke:#FFFFFF;stroke-width:0.25;stroke-miterlimit:10;}
	.st19{fill:#C40000;}
	.st20{fill:#232323;}
	.st21{fill:#121212;}
	.st22{enable-background:new    ;}
</style>
<pattern  y="1047.5" width="28.8" height="28.8" patternUnits="userSpaceOnUse" id="SVGID_0000007876313165040658985" viewBox="1.4 -30.2 28.8 28.8" style="overflow:visible;">
	<g>
		<rect x="1.4" y="-30.2" class="st0" width="28.8" height="28.8"/>
		<g>
			<rect x="1.4" y="-30.2" class="st0" width="28.8" height="28.8"/>
			<g>
				<rect x="1.4" y="-30.2" class="st0" width="28.8" height="28.8"/>
				<g>
					<rect x="1.4" y="-30.2" class="st0" width="28.8" height="28.8"/>
					<g>
						<rect x="1.4" y="-30.2" class="st0" width="28.8" height="28.8"/>
						<g>
							<rect x="1.4" y="-30.2" class="st0" width="28.8" height="28.8"/>
							<g>
								<rect x="1.4" y="-30.2" class="st0" width="28.8" height="28.8"/>
								<g>
									<rect x="1.4" y="-30.2" class="st0" width="28.8" height="28.8"/>
									<g>
										<rect x="1.4" y="-30.2" class="st0" width="28.8" height="28.8"/>
										<g>
											<rect x="1.4" y="-30.2" class="st0" width="28.8" height="28.8"/>
											<g>
												<rect x="1.4" y="-30.2" class="st0" width="28.8" height="28.8"/>
												<g>
													<rect x="1.4" y="-30.2" class="st0" width="28.8" height="28.8"/>
													<g>
														<rect x="1.4" y="-30.2" class="st0" width="28.8" height="28.8"/>
														<g>
															<rect x="1.4" y="-30.2" class="st0" width="28.8" height="28.8"/>
															<g>
																<rect x="1.4" y="-30.2" class="st0" width="28.8" height="28.8"/>
																<g>
																	<rect x="1.4" y="-30.2" class="st0" width="28.8" height="28.8"/>
																	<g>
																		<rect x="1.4" y="-30.2" class="st0" width="28.8" height="28.8"/>
																		<g>
																			<rect x="1.4" y="-30.2" class="st0" width="28.8" height="28.8"/>
																			<g>
																				<rect x="1.4" y="-30.2" class="st0" width="28.8" height="28.8"/>
																				<g>
																					<path class="st1" d="M30.2,0c0.8,0,1.4-0.6,1.4-1.4S31-2.8,30.2-2.8s-1.4,0.6-1.4,1.4C28.8-0.6,29.4,0,30.2,0z
																						"/>
																					<path class="st1" d="M15.8,0c0.8,0,1.4-0.6,1.4-1.4s-0.6-1.4-1.4-1.4c-0.8,0-1.4,0.6-1.4,1.4
																						C14.4-0.6,15,0,15.8,0z"/>
																					<path class="st1" d="M30.2-14.4c0.8,0,1.4-0.6,1.4-1.4s-0.6-1.4-1.4-1.4s-1.4,0.6-1.4,1.4
																						C28.8-15,29.4-14.4,30.2-14.4z"/>
																					<path class="st1" d="M15.8-14.4c0.8,0,1.4-0.6,1.4-1.4s-0.6-1.4-1.4-1.4c-0.8,0-1.4,0.6-1.4,1.4
																						C14.4-15,15-14.4,15.8-14.4z"/>
																					<path class="st1" d="M8.6-7.2c0.8,0,1.4-0.6,1.4-1.4S9.4-10,8.6-10c-0.8,0-1.4,0.6-1.4,1.4
																						C7.2-7.8,7.8-7.2,8.6-7.2z"/>
																					<path class="st1" d="M23-7.2c0.8,0,1.4-0.6,1.4-1.4S23.8-10,23-10s-1.4,0.6-1.4,1.4S22.2-7.2,23-7.2z"/>
																					<path class="st1" d="M8.6-21.6c0.8,0,1.4-0.6,1.4-1.4s-0.6-1.4-1.4-1.4c-0.8,0-1.4,0.6-1.4,1.4
																						C7.2-22.2,7.8-21.6,8.6-21.6z"/>
																					<path class="st1" d="M23-21.6c0.8,0,1.4-0.6,1.4-1.4s-0.6-1.4-1.4-1.4s-1.4,0.6-1.4,1.4
																						C21.6-22.2,22.2-21.6,23-21.6z"/>
																				</g>
																				<g>
																					<path class="st1" d="M1.4,0c0.8,0,1.4-0.6,1.4-1.4S2.2-2.8,1.4-2.8C0.6-2.9,0-2.2,0-1.4C0-0.6,0.6,0,1.4,0z"/>
																					<path class="st1" d="M1.4-14.4c0.8,0,1.4-0.6,1.4-1.4s-0.6-1.4-1.4-1.4S0-16.6,0-15.8S0.6-14.4,1.4-14.4z"/>
																				</g>
																				<g>
																					<path class="st1" d="M30.2-28.8c0.8,0,1.4-0.6,1.4-1.4s-0.6-1.4-1.4-1.4s-1.4,0.6-1.4,1.4
																						C28.8-29.4,29.4-28.8,30.2-28.8z"/>
																					<path class="st1" d="M15.8-28.8c0.8,0,1.4-0.6,1.4-1.4s-0.6-1.4-1.4-1.4s-1.4,0.6-1.4,1.4
																						C14.4-29.4,15-28.8,15.8-28.8z"/>
																				</g>
																				<g>
																					<path class="st1" d="M1.4-28.8c0.8,0,1.4-0.6,1.4-1.4s-0.6-1.4-1.4-1.4C0.6-31.7,0-31,0-30.2
																						C0-29.4,0.6-28.8,1.4-28.8z"/>
																				</g>
																			</g>
																		</g>
																	</g>
																</g>
															</g>
														</g>
													</g>
												</g>
											</g>
										</g>
									</g>
								</g>
							</g>
						</g>
					</g>
				</g>
			</g>
		</g>
	</g>
</pattern>
<pattern  y="1047.5" width="28.8" height="28.8" patternUnits="userSpaceOnUse" id="SVGID_0000016087609054506220392" viewBox="1.4 -30.2 28.8 28.8" style="overflow:visible;">
	<g>
		<rect x="1.4" y="-30.2" class="st0" width="28.8" height="28.8"/>
		<g>
			<rect x="1.4" y="-30.2" class="st0" width="28.8" height="28.8"/>
			<g>
				<rect x="1.4" y="-30.2" class="st0" width="28.8" height="28.8"/>
				<g>
					<rect x="1.4" y="-30.2" class="st0" width="28.8" height="28.8"/>
					<g>
						<rect x="1.4" y="-30.2" class="st0" width="28.8" height="28.8"/>
						<g>
							<rect x="1.4" y="-30.2" class="st0" width="28.8" height="28.8"/>
							<g>
								<rect x="1.4" y="-30.2" class="st0" width="28.8" height="28.8"/>
								<g>
									<rect x="1.4" y="-30.2" class="st0" width="28.8" height="28.8"/>
									<g>
										<rect x="1.4" y="-30.2" class="st0" width="28.8" height="28.8"/>
										<g>
											<rect x="1.4" y="-30.2" class="st0" width="28.8" height="28.8"/>
											<g>
												<rect x="1.4" y="-30.2" class="st0" width="28.8" height="28.8"/>
												<g>
													<rect x="1.4" y="-30.2" class="st0" width="28.8" height="28.8"/>
													<g>
														<rect x="1.4" y="-30.2" class="st0" width="28.8" height="28.8"/>
														<g>
															<rect x="1.4" y="-30.2" class="st0" width="28.8" height="28.8"/>
															<g>
																<rect x="1.4" y="-30.2" class="st0" width="28.8" height="28.8"/>
																<g>
																	<rect x="1.4" y="-30.2" class="st0" width="28.8" height="28.8"/>
																	<g>
																		<rect x="1.4" y="-30.2" class="st0" width="28.8" height="28.8"/>
																		<g>
																			<rect x="1.4" y="-30.2" class="st0" width="28.8" height="28.8"/>
																			<g>
																				<rect x="1.4" y="-30.2" class="st0" width="28.8" height="28.8"/>
																				<g>
																					<path class="st1" d="M30.2,0c0.8,0,1.4-0.6,1.4-1.4S31-2.8,30.2-2.8s-1.4,0.6-1.4,1.4C28.8-0.6,29.4,0,30.2,0z
																						"/>
																					<path class="st1" d="M15.8,0c0.8,0,1.4-0.6,1.4-1.4s-0.6-1.4-1.4-1.4c-0.8,0-1.4,0.6-1.4,1.4
																						C14.4-0.6,15,0,15.8,0z"/>
																					<path class="st1" d="M30.2-14.4c0.8,0,1.4-0.6,1.4-1.4s-0.6-1.4-1.4-1.4s-1.4,0.6-1.4,1.4
																						C28.8-15,29.4-14.4,30.2-14.4z"/>
																					<path class="st1" d="M15.8-14.4c0.8,0,1.4-0.6,1.4-1.4s-0.6-1.4-1.4-1.4c-0.8,0-1.4,0.6-1.4,1.4
																						C14.4-15,15-14.4,15.8-14.4z"/>
																					<path class="st1" d="M8.6-7.2c0.8,0,1.4-0.6,1.4-1.4S9.4-10,8.6-10c-0.8,0-1.4,0.6-1.4,1.4
																						C7.2-7.8,7.8-7.2,8.6-7.2z"/>
																					<path class="st1" d="M23-7.2c0.8,0,1.4-0.6,1.4-1.4S23.8-10,23-10s-1.4,0.6-1.4,1.4S22.2-7.2,23-7.2z"/>
																					<path class="st1" d="M8.6-21.6c0.8,0,1.4-0.6,1.4-1.4s-0.6-1.4-1.4-1.4c-0.8,0-1.4,0.6-1.4,1.4
																						C7.2-22.2,7.8-21.6,8.6-21.6z"/>
																					<path class="st1" d="M23-21.6c0.8,0,1.4-0.6,1.4-1.4s-0.6-1.4-1.4-1.4s-1.4,0.6-1.4,1.4
																						C21.6-22.2,22.2-21.6,23-21.6z"/>
																				</g>
																				<g>
																					<path class="st1" d="M1.4,0c0.8,0,1.4-0.6,1.4-1.4S2.2-2.8,1.4-2.8C0.6-2.9,0-2.2,0-1.4C0-0.6,0.6,0,1.4,0z"/>
																					<path class="st1" d="M1.4-14.4c0.8,0,1.4-0.6,1.4-1.4s-0.6-1.4-1.4-1.4S0-16.6,0-15.8S0.6-14.4,1.4-14.4z"/>
																				</g>
																				<g>
																					<path class="st1" d="M30.2-28.8c0.8,0,1.4-0.6,1.4-1.4s-0.6-1.4-1.4-1.4s-1.4,0.6-1.4,1.4
																						C28.8-29.4,29.4-28.8,30.2-28.8z"/>
																					<path class="st1" d="M15.8-28.8c0.8,0,1.4-0.6,1.4-1.4s-0.6-1.4-1.4-1.4s-1.4,0.6-1.4,1.4
																						C14.4-29.4,15-28.8,15.8-28.8z"/>
																				</g>
																				<g>
																					<path class="st1" d="M1.4-28.8c0.8,0,1.4-0.6,1.4-1.4s-0.6-1.4-1.4-1.4C0.6-31.7,0-31,0-30.2
																						C0-29.4,0.6-28.8,1.4-28.8z"/>
																				</g>
																			</g>
																		</g>
																	</g>
																</g>
															</g>
														</g>
													</g>
												</g>
											</g>
										</g>
									</g>
								</g>
							</g>
						</g>
					</g>
				</g>
			</g>
		</g>
	</g>
</pattern>
<pattern  y="1047.5" width="28.8" height="28.8" patternUnits="userSpaceOnUse" id="SVGID_1_" viewBox="1.4 -30.2 28.8 28.8" style="overflow:visible;">
	<g>
		<rect x="1.4" y="-30.2" class="st0" width="28.8" height="28.8"/>
		<g>
			<rect x="1.4" y="-30.2" class="st0" width="28.8" height="28.8"/>
			<g>
				<rect x="1.4" y="-30.2" class="st0" width="28.8" height="28.8"/>
				<g>
					<rect x="1.4" y="-30.2" class="st0" width="28.8" height="28.8"/>
					<g>
						<rect x="1.4" y="-30.2" class="st0" width="28.8" height="28.8"/>
						<g>
							<rect x="1.4" y="-30.2" class="st0" width="28.8" height="28.8"/>
							<g>
								<rect x="1.4" y="-30.2" class="st0" width="28.8" height="28.8"/>
								<g>
									<rect x="1.4" y="-30.2" class="st0" width="28.8" height="28.8"/>
									<g>
										<rect x="1.4" y="-30.2" class="st0" width="28.8" height="28.8"/>
										<g>
											<rect x="1.4" y="-30.2" class="st0" width="28.8" height="28.8"/>
											<g>
												<rect x="1.4" y="-30.2" class="st0" width="28.8" height="28.8"/>
												<g>
													<rect x="1.4" y="-30.2" class="st0" width="28.8" height="28.8"/>
													<g>
														<rect x="1.4" y="-30.2" class="st0" width="28.8" height="28.8"/>
														<g>
															<rect x="1.4" y="-30.2" class="st0" width="28.8" height="28.8"/>
															<g>
																<rect x="1.4" y="-30.2" class="st0" width="28.8" height="28.8"/>
																<g>
																	<rect x="1.4" y="-30.2" class="st0" width="28.8" height="28.8"/>
																	<g>
																		<rect x="1.4" y="-30.2" class="st0" width="28.8" height="28.8"/>
																		<g>
																			<rect x="1.4" y="-30.2" class="st0" width="28.8" height="28.8"/>
																			<g>
																				<rect x="1.4" y="-30.2" class="st0" width="28.8" height="28.8"/>
																				<g>
																					<path class="st1" d="M30.2,0c0.8,0,1.4-0.6,1.4-1.4S31-2.8,30.2-2.8s-1.4,0.6-1.4,1.4C28.8-0.6,29.4,0,30.2,0z
																						"/>
																					<path class="st1" d="M15.8,0c0.8,0,1.4-0.6,1.4-1.4s-0.6-1.4-1.4-1.4c-0.8,0-1.4,0.6-1.4,1.4
																						C14.4-0.6,15,0,15.8,0z"/>
																					<path class="st1" d="M30.2-14.4c0.8,0,1.4-0.6,1.4-1.4s-0.6-1.4-1.4-1.4s-1.4,0.6-1.4,1.4
																						C28.8-15,29.4-14.4,30.2-14.4z"/>
																					<path class="st1" d="M15.8-14.4c0.8,0,1.4-0.6,1.4-1.4s-0.6-1.4-1.4-1.4c-0.8,0-1.4,0.6-1.4,1.4
																						C14.4-15,15-14.4,15.8-14.4z"/>
																					<path class="st1" d="M8.6-7.2c0.8,0,1.4-0.6,1.4-1.4S9.4-10,8.6-10c-0.8,0-1.4,0.6-1.4,1.4
																						C7.2-7.8,7.8-7.2,8.6-7.2z"/>
																					<path class="st1" d="M23-7.2c0.8,0,1.4-0.6,1.4-1.4S23.8-10,23-10s-1.4,0.6-1.4,1.4S22.2-7.2,23-7.2z"/>
																					<path class="st1" d="M8.6-21.6c0.8,0,1.4-0.6,1.4-1.4s-0.6-1.4-1.4-1.4c-0.8,0-1.4,0.6-1.4,1.4
																						C7.2-22.2,7.8-21.6,8.6-21.6z"/>
																					<path class="st1" d="M23-21.6c0.8,0,1.4-0.6,1.4-1.4s-0.6-1.4-1.4-1.4s-1.4,0.6-1.4,1.4
																						C21.6-22.2,22.2-21.6,23-21.6z"/>
																				</g>
																				<g>
																					<path class="st1" d="M1.4,0c0.8,0,1.4-0.6,1.4-1.4S2.2-2.8,1.4-2.8C0.6-2.9,0-2.2,0-1.4C0-0.6,0.6,0,1.4,0z"/>
																					<path class="st1" d="M1.4-14.4c0.8,0,1.4-0.6,1.4-1.4s-0.6-1.4-1.4-1.4S0-16.6,0-15.8S0.6-14.4,1.4-14.4z"/>
																				</g>
																				<g>
																					<path class="st1" d="M30.2-28.8c0.8,0,1.4-0.6,1.4-1.4s-0.6-1.4-1.4-1.4s-1.4,0.6-1.4,1.4
																						C28.8-29.4,29.4-28.8,30.2-28.8z"/>
																					<path class="st1" d="M15.8-28.8c0.8,0,1.4-0.6,1.4-1.4s-0.6-1.4-1.4-1.4s-1.4,0.6-1.4,1.4
																						C14.4-29.4,15-28.8,15.8-28.8z"/>
																				</g>
																				<g>
																					<path class="st1" d="M1.4-28.8c0.8,0,1.4-0.6,1.4-1.4s-0.6-1.4-1.4-1.4C0.6-31.7,0-31,0-30.2
																						C0-29.4,0.6-28.8,1.4-28.8z"/>
																				</g>
																			</g>
																		</g>
																	</g>
																</g>
															</g>
														</g>
													</g>
												</g>
											</g>
										</g>
									</g>
								</g>
							</g>
						</g>
					</g>
				</g>
			</g>
		</g>
	</g>
</pattern>
<g id="Spaces">
	<rect id="prototype_lab" x="430.6" y="354" class="st2" width="64.9" height="140.7"/>
	<polygon id="materials_lib" class="st2" points="247.4,518.1 210,595.4 337.8,595.4 337.8,518.1 	"/>
	<polygon id="grad_lab" class="st2" points="530.2,694.9 530.2,668.1 484.5,668.1 484.5,755.4 548.4,755.4 548.4,694.9 	"/>
	<polygon id="incubator" class="st2" points="707.4,521.5 633.2,521.5 633.2,603.5 670.5,603.5 	"/>
</g>
<g id="restroom">
	<rect x="263.8" y="356" class="st3" width="73.1" height="75.5"/>
	<path class="st4" d="M310.3,383.5c1.2,0,2.1-0.9,2.1-2.1s-0.9-2.1-2.1-2.1s-2.1,0.9-2.1,2.1C308.1,382.6,309.1,383.5,310.3,383.5z"
		/>
	<path class="st4" d="M316.1,391.9l-1.8-6.3c-0.4-1.2-1.3-1.6-2.6-1.6l0,0h-2.9l0,0c-1.3,0-2.1,0.4-2.6,1.6l-1.8,6.3
		c-0.1,0.4,0.1,0.8,0.7,0.9c0.4,0.1,0.9-0.1,1-0.5l1.6-5.5h0.4l-2.7,9.6h2.6v6.8c0,0.5,0.5,1,1,1s1-0.5,1-1v-6.8h0.5v6.8
		c0,0.5,0.5,1,1,1s1-0.5,1-1v-6.8h2.6l-2.7-9.6h0.4l1.6,5.5c0.1,0.4,0.5,0.7,1,0.5C315.9,392.7,316.2,392.3,316.1,391.9z"/>
	<path class="st4" d="M289,383.5c1.2,0,2.1-0.9,2.1-2.1s-0.9-2.1-2.1-2.1s-2.1,0.9-2.1,2.1C286.7,382.6,287.8,383.5,289,383.5z"/>
	<path class="st4" d="M291.7,384h-5.5c-1.3,0-2.4,1-2.4,2.4v6.7c0,0.5,0.4,0.9,0.9,0.9s0.9-0.4,0.9-0.9v-5.9h0.5v6.8v9.2
		c0,0.7,0.5,1.2,1.2,1.2s1.2-0.5,1.2-1.2V394h0.5v9.2c0,0.7,0.5,1.2,1.2,1.2s1.2-0.5,1.2-1.2V394v-6.8h0.5v5.9
		c0,0.5,0.4,0.9,0.9,0.9s0.9-0.4,0.9-0.9v-6.7C294.1,385.1,293,384,291.7,384z"/>
	<rect x="298.9" y="379.3" class="st4" width="2.4" height="24.9"/>
</g>
<g id="employee_areas">
	
		<pattern  id="SVGID_00000096748873029591318330000015057982212703169156_" xlink:href="#SVGID_1_" patternTransform="matrix(1 0 0 1 -315.2 157253.3125)">
	</pattern>
	
		<path style="opacity:0.45;fill:url(#SVGID_00000096748873029591318330000015057982212703169156_);stroke:#DD4126;stroke-miterlimit:10;enable-background:new    ;" d="
		M259.1,925.2l2.8,38.3l-0.1,0.6l157.7,76.1l9.4,4.2l239.5,0.2v-4.9L667,752"/>
	
		<pattern  id="SVGID_00000046335012029131058160000015462674938382089398_" xlink:href="#SVGID_0000007876313165040658985" patternTransform="matrix(1 0 0 1 -315.2 157253.3125)">
	</pattern>
	
		<polyline style="opacity:0.45;fill:url(#SVGID_00000046335012029131058160000015462674938382089398_);stroke:#8F9194;stroke-miterlimit:10;enable-background:new    ;" points="
		667.2,755.4 659,755.4 484.1,756 484.2,752.9 484.2,667.9 484.2,667.9 500,667.7 500,667.5 499.8,635.9 499.9,636.4 529.2,636.3 
		529.3,635.9 529,595.7 529,596.2 210.4,596.1 210.4,596.1 247.7,518.6 248.4,518.6 337.3,518.6 337.3,518.3 336.5,432.2 
		336.5,431.9 182.6,431.3 179.2,435.5 3.5,803.6 2.6,801.1 258.8,925.4 	"/>
	
		<pattern  id="SVGID_00000087399535276862135000000011456353779321001626_" xlink:href="#SVGID_0000016087609054506220392" patternTransform="matrix(1 0 0 -1 -150 -52641.7734)">
	</pattern>
	
		<rect x="580.7" y="353.4" style="opacity:0.45;fill:url(#SVGID_00000087399535276862135000000011456353779321001626_);stroke:#000000;stroke-width:0.5;stroke-miterlimit:10;enable-background:new    ;" width="87.2" height="87.2"/>
</g>
<g id="stacks">
	<rect x="358" y="111" class="st8" width="66.7" height="229.1"/>
	<rect x="500.6" y="72" class="st8" width="66.7" height="268.1"/>
	<rect x="581" y="110.1" class="st8" width="66.7" height="229.1"/>
	<rect x="662.6" y="151.1" class="st8" width="66.7" height="188.1"/>
	<rect x="357.8" y="352.5" class="st8" width="66.7" height="167.1"/>
	<rect x="500.6" y="352.8" class="st8" width="66.2" height="167.1"/>
	<rect x="280" y="272.7" class="st8" width="64.8" height="68.2"/>
	<rect x="290.8" y="233.2" class="st8" width="54" height="39.5"/>
	<rect x="305.9" y="192.3" class="st8" width="38.9" height="40.9"/>
	<rect x="381.6" y="29.4" class="st8" width="43.1" height="81.6"/>
	<rect x="438.7" y="38.2" class="st8" width="46.2" height="250.7"/>
	<rect x="581.7" y="452.6" class="st8" width="42" height="67"/>
	<rect x="629.9" y="452.6" class="st8" width="38.5" height="67"/>
</g>
<g id="Text">
	<text transform="matrix(1 0 0 1 486.998 735.5056)" class="st9 st10">Grad</text>
	<text transform="matrix(1 0 0 1 486.998 753.1057)" class="st9 st10">Lab</text>
	<text transform="matrix(1 0 0 1 271.3002 572.4011)" class="st9 st10">Materials</text>
	<text transform="matrix(1 0 0 1 286.3001 589.0012)" class="st9 st10">Library</text>
	<text transform="matrix(0.7451 -0.6669 0.6669 0.7451 438.1879 449.8212)" class="st9 st11">Prototyping</text>
	<text transform="matrix(0.7451 -0.6669 0.6669 0.7451 465.8487 448.2558)" class="st9 st11">Lab</text>
	<text transform="matrix(1 0 0 1 633.8356 539.3245)" class="st9 st10">Incubator</text>
	<text transform="matrix(1 0 0 1 633.8363 555.9245)" class="st9 st10">Space</text>
	<text transform="matrix(6.123234e-17 -1 1 6.123234e-17 467.365 271.3136)" class="st9 st12">Microfilm &amp; Microfiche</text>
	<text transform="matrix(1 0 0 1 669.065 222.6409)" class="st13 st9 st14">Historical</text>
	<text transform="matrix(1 0 0 1 668.465 235.6409)" class="st13 st9 st14">California</text>
	<text transform="matrix(1 0 0 1 666.565 248.6409)" class="st13 st9 st14">Textbooks</text>
	<text transform="matrix(1 0 0 1 667.0488 278.4313)" class="st13 st9 st14">Children’s</text>
	<text transform="matrix(1 0 0 1 665.9489 290.4313)" class="st13 st9 st14">&amp; Juvenile</text>
	<text transform="matrix(1 0 0 1 677.8488 302.4313)" class="st13 st9 st14">Books</text>
	<text transform="matrix(1 0 0 1 598.8291 195.421)" class="st13 st9 st14">Gov’t</text>
	<text transform="matrix(1 0 0 1 593.0291 209.421)" class="st13 st9 st14">Pubs &amp;</text>
	<text transform="matrix(1 0 0 1 591.9291 223.421)" class="st13 st9 st14">Federal</text>
	<text transform="matrix(1 0 0 1 582.9291 237.421)" class="st13 st9 st14">Depository</text>
	<text transform="matrix(-1.836970e-16 -1 1 -1.836970e-16 607.8215 516.6749)" class="st9 st14">Reference</text>
	<text transform="matrix(6.123234e-17 -1 1 6.123234e-17 654.0864 510.3361)" class="st9 st12">Census</text>
</g>
<g id="elevator">
	
		<rect x="583.6" y="608.6" transform="matrix(1.787226e-03 -1 1 1.787226e-03 -25.4212 1208.6521)" class="st15" width="18.1" height="16.9"/>
	
		<rect x="583.5" y="633.4" transform="matrix(1.787226e-03 -1 1 1.787226e-03 -50.4242 1233.2609)" class="st15" width="18.1" height="16.9"/>
	
		<rect x="583.5" y="682.8" transform="matrix(1.787226e-03 -1 1 1.787226e-03 -99.7805 1282.5295)" class="st15" width="18.1" height="16.9"/>
	
		<rect x="583.6" y="707.9" transform="matrix(1.787226e-03 -1 1 1.787226e-03 -124.7342 1307.7051)" class="st15" width="18.1" height="16.9"/>
	<line class="st16" x1="605.6" y1="605.4" x2="605.6" y2="733.7"/>
	<g>
		<g>
			<path class="st1" d="M588.6,653.1c-0.2-0.2-0.4-0.3-0.6-0.3s-0.5,0.1-0.6,0.3c-0.5,0.5-1.4,1.4-2.7,2.7c-0.4,0.4-0.4,1,0,1.3
				c0.3,0.3,0.9,0.3,1.2,0l1.1-1.1v3.5c0,0.5,0.4,0.9,0.9,0.9h0.1c0.5,0,0.9-0.4,0.9-0.9V656l1.1,1.1c0.3,0.3,0.9,0.3,1.2,0l0,0
				c0.3-0.3,0.3-0.9,0-1.2C589.9,654.4,589.2,653.7,588.6,653.1z"/>
			<path class="st1" d="M596.4,660.1c0.2,0.2,0.4,0.3,0.6,0.3s0.5-0.1,0.6-0.3c0.5-0.5,1.4-1.4,2.7-2.7c0.4-0.4,0.4-1,0-1.3
				c-0.3-0.3-0.9-0.3-1.2,0l-1.1,1.1v-3.5c0-0.5-0.4-0.9-0.9-0.9H597c-0.5,0-0.9,0.4-0.9,0.9v3.5l-1.1-1.1c-0.3-0.3-0.9-0.3-1.2,0
				l0,0c-0.3,0.3-0.3,0.9,0,1.2C595.1,658.8,595.8,659.5,596.4,660.1z"/>
		</g>
		<g>
			<g>
				<path class="st1" d="M595.8,667.1c0.5,0,1-0.4,1-1c0-0.5-0.4-1-1-1c-0.5,0-1,0.4-1,1C594.9,666.6,595.3,667.1,595.8,667.1z"/>
				<path class="st1" d="M597.1,667.2h-2.4c-0.6,0-1,0.5-1,1v3c0,0.2,0.2,0.4,0.4,0.4s0.4-0.2,0.4-0.4v-2.6h0.2v3v4.1
					c0,0.3,0.2,0.6,0.6,0.6c0.3,0,0.6-0.2,0.6-0.6v-4.1h0.2v4.1c0,0.3,0.2,0.6,0.6,0.6c0.3,0,0.6-0.2,0.6-0.6v-4.1v-3h0.2v2.6
					c0,0.2,0.2,0.4,0.4,0.4s0.4-0.2,0.4-0.4v-3C598.1,667.7,597.6,667.2,597.1,667.2z"/>
			</g>
			<path class="st1" d="M589.6,667.1c0.5,0,1-0.4,1-1c0-0.5-0.4-1-1-1c-0.5,0-1,0.4-1,1C588.6,666.6,589,667.1,589.6,667.1z"/>
			<path class="st1" d="M592.2,670.8l-0.8-2.8c-0.2-0.5-0.6-0.7-1.2-0.7l0,0h-1.3l0,0c-0.6,0-1,0.2-1.2,0.7l-0.8,2.8
				c-0.1,0.2,0.1,0.4,0.3,0.4c0.2,0.1,0.4,0,0.5-0.2l0.7-2.5h0.2l-1.2,4.3h1.2v3c0,0.3,0.2,0.5,0.5,0.5s0.5-0.2,0.5-0.5v-3h0.2v3
				c0,0.3,0.2,0.5,0.5,0.5s0.5-0.2,0.5-0.5v-3h1.2l-1.2-4.3h0.2l0.7,2.5c0.1,0.2,0.3,0.3,0.5,0.2
				C592.1,671.1,592.2,670.9,592.2,670.8z"/>
		</g>
		<g>
			<path class="st1" d="M598.7,679.7h-12.4c-2.5,0-4.6-2.6-4.6-5.7v-6.5c0-3.2,2.1-5.7,4.6-5.7h12.3c2.5,0,4.6,2.6,4.6,5.7v6.5
				C603.2,677.1,601.2,679.7,598.7,679.7z M586.3,663.8c-1.6,0-2.9,1.6-2.9,3.6v6.5c0,2,1.3,3.6,2.9,3.6h12.3c1.6,0,2.9-1.6,2.9-3.6
				v-6.5c0-2-1.3-3.6-2.9-3.6H586.3z"/>
		</g>
	</g>
</g>
<g id="stairs_00000032626799022009418030000006004862700355200132_">
	<g>
		<path class="st1" d="M616,707.2c1.1,0,2.1-0.9,2.1-2.1c0-1.1-0.9-2.1-2.1-2.1c-1.1,0-2.1,0.9-2.1,2.1
			C614,706.3,614.9,707.2,616,707.2z"/>
		<path class="st1" d="M612.2,713.8c0.7,0,1.2-0.4,1.2-1.1v-1.3l0.7-0.4v3.3v0.7l-2,7.7c-0.2,0.6,0.2,1.2,0.8,1.3
			c0.7,0.2,1.3-0.1,1.6-0.8l1.8-7.1h1.8v2.3c0,0.7,0.6,1.1,1.2,1.1c0.7,0,1.2-0.4,1.2-1.1V715c0-0.7-0.6-1.1-1.2-1.1l0,0l0,0h-2.7
			v-2.1l0.7,0.7c0.2,0.2,0.6,0.4,1,0.4l0,0h2.2c0.7,0,1.2-0.4,1.2-1.1s-0.6-1.1-1.2-1.1h-1.8l-2.2-2.4l-0.1-0.1
			c-0.1-0.1-0.2-0.3-0.4-0.4l0,0h-0.1l0,0h-0.1l0,0c0,0,0,0-0.1,0l0,0c0,0,0,0-0.1,0l0,0c0,0,0,0-0.1,0l0,0l0,0l0,0c0,0,0,0-0.1,0
			c0,0,0,0-0.1,0l0,0c0,0,0,0-0.1,0l0,0c0,0,0,0-0.1,0l0,0c0,0,0,0-0.1,0l0,0c0,0,0,0-0.1,0l0,0c0,0,0,0-0.1,0l0,0l-3.1,2.2
			c-0.3,0.2-0.4,0.6-0.4,0.9l0,0v1.9C611,713.3,611.4,713.8,612.2,713.8z"/>
		<path class="st1" d="M635,710h-5.7c-0.2,0-0.3,0.2-0.4,0.4v5.2h-5.2c-0.2,0-0.3,0.2-0.4,0.4v5.6h-5.4c-0.2,0-0.3,0.2-0.4,0.4v5.1
			h-5.2c-0.2,0-0.3,0.2-0.4,0.4v4.9c0,0.2,0.2,0.3,0.4,0.4h22.8c0.2,0,0.3-0.2,0.4-0.4l-0.1-22C635.3,710.2,635.2,710.1,635,710z"/>
	</g>
</g>
<g id="floor_outline">
	<g>
		<line class="st17" x1="823.2" y1="279.3" x2="667.3" y2="603.5"/>
		<line class="st17" x1="181.7" y1="431.1" x2="3.4" y2="801.8"/>
		<line class="st17" x1="259.5" y1="926" x2="3" y2="802.6"/>
		<line class="st17" x1="261.3" y1="964.4" x2="427.9" y2="1044.5"/>
		<line class="st17" x1="260.9" y1="275.6" x2="260.9" y2="430.1"/>
		<line class="st17" x1="181.7" y1="431.1" x2="260.2" y2="431.3"/>
		<line class="st17" x1="667.9" y1="1044.5" x2="666.6" y2="696.7"/>
		<line class="st17" x1="427.9" y1="1044.5" x2="667.8" y2="1044.5"/>
		<line class="st17" x1="261.3" y1="964.4" x2="260" y2="926.2"/>
		<line class="st17" x1="295.8" y1="180.1" x2="261.1" y2="274.4"/>
		<line class="st17" x1="335.7" y1="180.5" x2="295.8" y2="180.1"/>
		<line class="st17" x1="335.7" y1="97.5" x2="336.1" y2="178.9"/>
		<line class="st17" x1="372.7" y1="97.5" x2="335.8" y2="97.1"/>
		<line class="st17" x1="372.7" y1="21.5" x2="372.8" y2="96.7"/>
		<line class="st17" x1="501.7" y1="21.5" x2="373.7" y2="21.5"/>
		<line class="st17" x1="502.9" y1="60.7" x2="501.7" y2="21.5"/>
		<line class="st17" x1="581.2" y1="59" x2="502.9" y2="60.7"/>
		<line class="st17" x1="583.5" y1="95.2" x2="581.2" y2="59"/>
		<line class="st17" x1="659.3" y1="96.5" x2="583.5" y2="95.2"/>
		<line class="st17" x1="661.4" y1="133" x2="659.3" y2="96.5"/>
		<line class="st17" x1="740.8" y1="133.4" x2="661.4" y2="133"/>
		<line class="st17" x1="823.7" y1="278.4" x2="744.6" y2="240.4"/>
		<line class="st17" x1="740.8" y1="133.4" x2="742.1" y2="239"/>
		<line class="st17" x1="606.6" y1="603.6" x2="666.4" y2="603.6"/>
		<line class="st17" x1="606.5" y1="696" x2="606.6" y2="603.9"/>
		<line class="st17" x1="606.5" y1="696.7" x2="666.6" y2="696.7"/>
	</g>
</g>
<rect x="679.9" y="396.2" class="st18" width="36.3" height="42.6"/>
<rect x="679.9" y="354.1" class="st18" width="36.3" height="42.6"/>
<text transform="matrix(1 0 0 1 686.0565 381.226)" class="st4 st9 st10">L04</text>
<text transform="matrix(1 0 0 1 686.057 421.2431)" class="st4 st9 st10">L02</text>
<g id="Emergency_exits_00000010996384918899809540000007483332637389744563_">
	<g>
		<ellipse class="st19" cx="278.8" cy="341.1" rx="15" ry="14.9"/>
		<g>
			<g>
				<path class="st4" d="M270.2,331.9l5.2-1.8c0.3-0.1,0.6,0.1,0.6,0.5v1.4h5.1c0.2,0,0.4,0.2,0.4,0.4v1.6c-0.3,0-0.6,0.1-0.8,0.2
					v-1.4h-4.6v15.8h3.1v0.2c0,0.2-0.1,0.4,0,0.6h-3v1.4c0,0.3-0.3,0.6-0.6,0.5l-5.2-1.8c-0.2-0.1-0.3-0.2-0.3-0.5v-16.7
					C269.9,332.2,270.1,332,270.2,331.9z"/>
				<g>
					<g>
						<path class="st4" d="M289.2,348h-3.3c-0.4,0-0.8-0.3-1-0.7l-0.4-1.3l1.6-1.3l0,0l0.4,1.4h2.6c0.5,0,1,0.4,1,1
							C290.2,347.5,289.8,348,289.2,348z"/>
						<path class="st4" d="M281.6,338.4c-0.9-0.2-1.5-1.1-1.3-2.1c0.2-0.9,1.1-1.5,2.1-1.3s1.5,1.1,1.3,2.1
							C283.4,338,282.5,338.6,281.6,338.4z"/>
						<path class="st4" d="M287.9,342.6c-0.4,0.2-0.9,0-1.1-0.4l-0.7-1.5l-0.9-0.3l0.8,2.9c0.1,0.4,0,0.8-0.3,1l-2.8,2.3l-0.8,3
							c-0.1,0.5-0.5,0.7-1,0.7c-0.1,0-0.2,0-0.2,0c-0.5-0.1-0.9-0.7-0.7-1.2l0.8-3.3c0-0.2,0.2-0.4,0.3-0.5l1.8-1.4l-0.9-2.5
							l-0.9,1.1c-0.2,0.2-0.4,0.3-0.6,0.3c-0.1,0-0.3,0-0.4-0.1l-1.7-1c-0.4-0.2-0.5-0.7-0.3-1.1s0.8-0.5,1.1-0.3l1.1,0.6l0.9-1
							c0.2-0.3,0.5-0.5,0.9-0.6l1.5-0.5c0.4-0.2,0.9-0.2,1.4,0l1.9,0.6c0.2,0.1,0.4,0.2,0.5,0.5l0.8,1.8
							C288.5,341.9,288.3,342.4,287.9,342.6z"/>
					</g>
				</g>
			</g>
		</g>
	</g>
	<g>
		<circle class="st19" cx="648.8" cy="740.4" r="15"/>
		<g>
			<g>
				<path class="st4" d="M657.3,731.2l-5.2-1.8c-0.3-0.1-0.6,0.1-0.6,0.5v1.4h-5.1c-0.2,0-0.4,0.2-0.4,0.4v1.6
					c0.3,0,0.6,0.1,0.8,0.2v-1.4h4.6V748h-3.1v0.2c0,0.2,0.1,0.4,0,0.6h3v1.4c0,0.3,0.3,0.6,0.6,0.5l5.2-1.8
					c0.2-0.1,0.3-0.2,0.3-0.5v-16.8C657.6,731.5,657.5,731.3,657.3,731.2z"/>
				<g>
					<g>
						<path class="st4" d="M638.3,747.3h3.3c0.4,0,0.8-0.3,1-0.7l0.4-1.3l-1.6-1.3l0,0l-0.4,1.4h-2.6c-0.5,0-1,0.4-1,1
							C637.3,746.9,637.8,747.3,638.3,747.3z"/>
						<path class="st4" d="M646,737.7c0.9-0.2,1.5-1.1,1.3-2.1c-0.2-0.9-1.1-1.5-2.1-1.3c-0.9,0.2-1.5,1.1-1.3,2.1
							S645.1,737.9,646,737.7z"/>
						<path class="st4" d="M639.6,741.9c0.4,0.2,0.9,0,1.1-0.4l0.7-1.5l0.9-0.3l-0.8,2.9c-0.1,0.4,0,0.8,0.3,1l2.8,2.3l0.8,3
							c0.1,0.5,0.5,0.8,1,0.8c0.1,0,0.2,0,0.2,0c0.5-0.1,0.9-0.7,0.7-1.2l-0.8-3.4c0-0.2-0.2-0.4-0.3-0.5l-1.8-1.4l0.9-2.5l0.9,1.1
							c0.2,0.2,0.4,0.3,0.6,0.3c0.1,0,0.3,0,0.4-0.1l1.7-1c0.4-0.2,0.5-0.8,0.3-1.1c-0.2-0.4-0.8-0.5-1.1-0.3l-1.1,0.6l-0.9-1
							c-0.2-0.3-0.5-0.5-0.9-0.6l-1.5-0.5c-0.4-0.2-0.9-0.2-1.4,0l-1.9,0.6c-0.2,0.1-0.4,0.2-0.5,0.5l-0.8,1.8
							C639,741.3,639.2,741.7,639.6,741.9z"/>
					</g>
				</g>
			</g>
		</g>
	</g>
	<g>
		<circle class="st19" cx="730.3" cy="431.5" r="15"/>
		<g>
			<g>
				<path class="st4" d="M738.8,422.3l-5.2-1.8c-0.3-0.1-0.6,0.1-0.6,0.5v1.4h-5.1c-0.2,0-0.4,0.2-0.4,0.4v1.6
					c0.3,0,0.6,0.1,0.8,0.2v-1.4h4.6v15.9h-3.1v0.2c0,0.2,0.1,0.4,0,0.6h3v1.4c0,0.3,0.3,0.6,0.6,0.5l5.2-1.8
					c0.2-0.1,0.3-0.2,0.3-0.5v-16.8C739.1,422.6,739,422.4,738.8,422.3z"/>
				<g>
					<g>
						<path class="st4" d="M719.8,438.4h3.3c0.4,0,0.8-0.3,1-0.7l0.4-1.3l-1.6-1.3l0,0l-0.4,1.4h-2.6c-0.5,0-1,0.4-1,1
							C718.8,438,719.3,438.4,719.8,438.4z"/>
						<path class="st4" d="M727.5,428.8c0.9-0.2,1.5-1.1,1.3-2.1c-0.2-0.9-1.1-1.5-2.1-1.3c-0.9,0.2-1.5,1.1-1.3,2.1
							S726.6,429,727.5,428.8z"/>
						<path class="st4" d="M721.1,433c0.4,0.2,0.9,0,1.1-0.4l0.7-1.5l0.9-0.3l-0.8,2.9c-0.1,0.4,0,0.8,0.3,1l2.8,2.3l0.8,3
							c0.1,0.5,0.5,0.8,1,0.8c0.1,0,0.2,0,0.2,0c0.5-0.1,0.9-0.7,0.7-1.2l-0.8-3.4c0-0.2-0.2-0.4-0.3-0.5l-1.8-1.4l0.9-2.5l0.9,1.1
							c0.2,0.2,0.4,0.3,0.6,0.3c0.1,0,0.3,0,0.4-0.1l1.7-1c0.4-0.2,0.5-0.8,0.3-1.1c-0.2-0.4-0.8-0.5-1.1-0.3l-1.1,0.6l-0.9-1
							c-0.2-0.3-0.5-0.5-0.9-0.6l-1.5-0.5c-0.4-0.2-0.9-0.2-1.4,0l-1.9,0.6c-0.2,0.1-0.4,0.2-0.5,0.5l-0.8,1.8
							C720.5,432.4,720.7,432.8,721.1,433z"/>
					</g>
				</g>
			</g>
		</g>
	</g>
</g>
<g id="call_numbers">
	<text transform="matrix(1 0 0 1 523.4711 100.921)" class="st20 st9 st12">RA</text>
	<text transform="matrix(1 0 0 1 529.6959 505.6761)" class="st20 st9 st12">Z</text>
	<text transform="matrix(1 0 0 1 317.5975 322.3309)" class="st20 st9 st12">HE</text>
	<text transform="matrix(1 0 0 1 317.9806 219.7626)" class="st20 st9 st12">ML</text>
	<text transform="matrix(1 0 0 1 382.3443 322.3313)" class="st20 st9 st12">ML</text>
	<text transform="matrix(1 0 0 1 385.8415 505.6763)" class="st20 st9 st12">A</text>
	<text transform="matrix(1 0 0 1 385.4582 375.6307)" class="st20 st9 st12">HE</text>
	<text transform="matrix(1 0 0 1 391.328 55.5134)" class="st20 st9 st12">R</text>
	<g>
		<path class="st20" d="M534.6,431.3l5.6-11c0.4-0.8-0.5-1.6-1.3-1l-2.3,1.7v-16.8c0-0.4-0.3-0.9-0.9-0.9h-4c-0.4,0-0.9,0.3-0.9,0.9
			V421l-2.3-1.7c-0.7-0.5-1.6,0.3-1.3,1l5.6,11C533.3,431.9,534.2,431.9,534.6,431.3z"/>
		<path class="st20" d="M534.8,218.2l5.6-11c0.4-0.8-0.5-1.6-1.3-1l-2.3,1.7v-16.8c0-0.4-0.3-0.9-0.9-0.9h-4c-0.4,0-0.9,0.3-0.9,0.9
			v16.8l-2.3-1.7c-0.7-0.5-1.6,0.3-1.3,1l5.6,11C533.5,218.8,534.4,218.8,534.8,218.2z"/>
		<path class="st20" d="M394.6,172.4l-5.6,11c-0.4,0.8,0.5,1.6,1.3,1l2.3-1.7v16.8c0,0.4,0.3,0.9,0.9,0.9h4c0.4,0,0.9-0.3,0.9-0.9
			v-16.8l2.3,1.7c0.7,0.5,1.6-0.3,1.3-1l-5.6-11C395.8,171.8,394.9,171.8,394.6,172.4z"/>
		<path class="st20" d="M390.4,424.6l-5.6,11c-0.4,0.8,0.5,1.6,1.3,1l2.3-1.7v16.8c0,0.4,0.3,0.9,0.9,0.9h4c0.4,0,0.9-0.3,0.9-0.9
			V435l2.3,1.7c0.7,0.5,1.6-0.3,1.3-1l-5.6-11C391.6,424,390.7,424,390.4,424.6z"/>
		<path class="st21" d="M319.9,253.4l-5.7,11.1c-0.4,0.8,0.5,1.6,1.3,1l2.3-1.7v16.8c0,0.4,0.3,0.9,0.9,0.9h4c0.4,0,0.9-0.3,0.9-0.9
			v-16.8l2.3,1.7c0.7,0.5,1.6-0.3,1.3-1l-5.6-11C321.1,252.8,320.2,252.8,319.9,253.4z"/>
	</g>
</g>
<rect x="370.4" y="0.5" class="st0" width="132.5" height="18"/>
<text transform="matrix(6.123234e-17 -1 1 6.123234e-17 618.1002 322.3312)" class="st9 st12">Government Publications</text>
<text transform="matrix(6.123234e-17 -1 1 6.123234e-17 691.532 326.0944)" class="st22"><tspan x="0" y="0" class="st9 st12">Historical Calif. Textbooks</tspan><tspan x="28.4" y="16.8" class="st9 st12">Children’s Books</tspan></text>
</svg>
