<?xml version="1.0" encoding="utf-8"?>
<!-- Generator: Adobe Illustrator 28.0.0, SVG Export Plug-In . SVG Version: 6.00 Build 0)  -->
<svg version="1.1" id="Layer_1" xmlns="http://www.w3.org/2000/svg" xmlns:xlink="http://www.w3.org/1999/xlink" x="0px" y="0px"
	 width="1209.3px" height="1059px" viewBox="0 0 1209.3 1059" style="enable-background:new 0 0 1209.3 1059;" xml:space="preserve"
	>
<style type="text/css">
	.st0{fill:none;}
	.st1{fill:none;stroke:#231F20;stroke-width:0.3;}
	.st2{fill:none;stroke:#A2C9EA;stroke-miterlimit:10;}
	.st3{fill:#A2C9EA;}
	.st4{font-family:'Arial-ItalicMT';}
	.st5{font-size:14.0015px;}
	.st6{font-size:14px;}
	.st7{fill:#B9DDA4;stroke:#000000;stroke-miterlimit:10;}
	.st8{fill:#B9DDA4;stroke:#000000;stroke-width:1;stroke-miterlimit:10;}
	.st9{fill:none;stroke:#000000;stroke-width:1.5;stroke-miterlimit:10;}
	.st10{fill:none;stroke:#000000;stroke-width:1.3;stroke-miterlimit:10;}
	.st11{stroke:#000000;stroke-width:1.3;stroke-miterlimit:10;}
	.st12{fill:#E4F2F9;}
	.st13{font-family:'Arial-BoldMT';}
	.st14{font-size:300px;}
	.st15{letter-spacing:6;}
	.st16{font-size:48px;}
	.st17{fill:#FCECA4;stroke:#000000;stroke-miterlimit:10;}
	.st18{font-family:'MyriadPro-Regular';}
	.st19{fill:none;stroke:#000000;stroke-width:4;stroke-miterlimit:10;}
	.st20{fill:url(#SVGID_00000033345615362890810820000015474372444520554917_);stroke:#000000;stroke-miterlimit:10;}
	.st21{fill:none;stroke:#231F20;stroke-width:4;stroke-miterlimit:10;}
	.st22{fill:#E5E5E5;stroke:#000000;stroke-width:2;stroke-miterlimit:10.0001;}
	.st23{fill:#FF0000;}
	.st24{fill:#FFFFFF;}
	.st25{fill:#146EDC;}
	.st26{fill:#FCECA4;stroke:#000000;stroke-width:1.9998;stroke-miterlimit:9.9993;}
</style>
<pattern  y="1059" width="72" height="72" patternUnits="userSpaceOnUse" id="SVGID_1_" viewBox="72.2 -144.2 72 72" style="overflow:visible;">
	<g>
		<rect x="72.2" y="-144.2" class="st0" width="72" height="72"/>
		<g>
			<rect x="72.2" y="-144.2" class="st0" width="72" height="72"/>
			<g>
				<rect x="72.2" y="-144.2" class="st0" width="72" height="72"/>
				<g>
					<line class="st1" x1="78.2" y1="-72.5" x2="78.2" y2="0"/>
					<line class="st1" x1="102.2" y1="-72.5" x2="102.2" y2="0"/>
					<line class="st1" x1="126.2" y1="-72.5" x2="126.2" y2="0"/>
					<line class="st1" x1="90.2" y1="-72.5" x2="90.2" y2="0"/>
					<line class="st1" x1="114.2" y1="-72.5" x2="114.2" y2="0"/>
					<line class="st1" x1="138.2" y1="-72.5" x2="138.2" y2="0"/>
				</g>
				<g>
					<line class="st1" x1="144" y1="-78.2" x2="216.5" y2="-78.2"/>
					<line class="st1" x1="144" y1="-102.2" x2="216.5" y2="-102.2"/>
					<line class="st1" x1="144" y1="-126.2" x2="216.5" y2="-126.2"/>
					<line class="st1" x1="144" y1="-90.2" x2="216.5" y2="-90.2"/>
					<line class="st1" x1="144" y1="-114.2" x2="216.5" y2="-114.2"/>
					<line class="st1" x1="144" y1="-138.2" x2="216.5" y2="-138.2"/>
				</g>
				<g>
					<line class="st1" x1="78.2" y1="-144.5" x2="78.2" y2="-72"/>
					<line class="st1" x1="102.2" y1="-144.5" x2="102.2" y2="-72"/>
					<line class="st1" x1="126.2" y1="-144.5" x2="126.2" y2="-72"/>
					<line class="st1" x1="72" y1="-78.2" x2="144.5" y2="-78.2"/>
					<line class="st1" x1="72" y1="-102.2" x2="144.5" y2="-102.2"/>
					<line class="st1" x1="72" y1="-126.2" x2="144.5" y2="-126.2"/>
					<line class="st1" x1="72" y1="-90.2" x2="144.5" y2="-90.2"/>
					<line class="st1" x1="72" y1="-114.2" x2="144.5" y2="-114.2"/>
					<line class="st1" x1="72" y1="-138.2" x2="144.5" y2="-138.2"/>
					<line class="st1" x1="90.2" y1="-144.5" x2="90.2" y2="-72"/>
					<line class="st1" x1="114.2" y1="-144.5" x2="114.2" y2="-72"/>
					<line class="st1" x1="138.2" y1="-144.5" x2="138.2" y2="-72"/>
				</g>
				<g>
					<line class="st1" x1="0" y1="-78.2" x2="72.5" y2="-78.2"/>
					<line class="st1" x1="0" y1="-102.2" x2="72.5" y2="-102.2"/>
					<line class="st1" x1="0" y1="-126.2" x2="72.5" y2="-126.2"/>
					<line class="st1" x1="0" y1="-90.2" x2="72.5" y2="-90.2"/>
					<line class="st1" x1="0" y1="-114.2" x2="72.5" y2="-114.2"/>
					<line class="st1" x1="0" y1="-138.2" x2="72.5" y2="-138.2"/>
				</g>
				<g>
					<line class="st1" x1="78.2" y1="-216.5" x2="78.2" y2="-144"/>
					<line class="st1" x1="102.2" y1="-216.5" x2="102.2" y2="-144"/>
					<line class="st1" x1="126.2" y1="-216.5" x2="126.2" y2="-144"/>
					<line class="st1" x1="90.2" y1="-216.5" x2="90.2" y2="-144"/>
					<line class="st1" x1="114.2" y1="-216.5" x2="114.2" y2="-144"/>
					<line class="st1" x1="138.2" y1="-216.5" x2="138.2" y2="-144"/>
				</g>
			</g>
		</g>
	</g>
</pattern>
<g id="Layer_1_00000090978574077299416030000002763098223368734141_">
	<g id="streets">
		<g id="San_fernando">
			<line class="st2" x1="284.9" y1="142.9" x2="471.4" y2="24.9"/>
			<line class="st2" x1="297.3" y1="162.7" x2="505.7" y2="30.9"/>
			<polygon class="st0" points="460.8,56.5 317.2,147.6 310.3,136.9 453.9,45.8 			"/>
			<text transform="matrix(0.8481 -0.5299 0.5299 0.8481 337.2666 130.4945)" class="st3 st4 st5">San Fernando Street</text>
		</g>
		<g id="_x34_th_Street">
			<line class="st2" x1="311.8" y1="745.4" x2="144.5" y2="421.7"/>
			<line class="st2" x1="333.2" y1="735.8" x2="165.4" y2="411.1"/>
			
				<rect x="229.9" y="499.3" transform="matrix(0.8786 -0.4776 0.4776 0.8786 -245.3589 183.0908)" class="st0" width="15" height="149.6"/>
			<text transform="matrix(-0.4695 -0.8829 0.8829 -0.4695 249.3047 592.6307)" class="st3 st4 st6">Fourth Street</text>
		</g>
		<g id="Elev_x2F_esc_x2F_stairs">
			<polyline id="elevator" class="st7" points="794.9,445.3 875.9,500 907.7,521.4 895.2,539.6 783.2,463.8 794.9,445.3 			"/>
			
				<rect x="877.4" y="464" transform="matrix(0.566 -0.8244 0.8244 0.566 -5.0944 959.1149)" class="st8" width="62" height="40.8"/>
			<g id="elevator_00000155118643947176890710000006878021629677294758_">
				<g id="LINE_4731_">
					<line class="st9" x1="812.6" y1="460.9" x2="798.4" y2="451.2"/>
				</g>
				<g id="LINE_4735_">
					<line class="st9" x1="803.8" y1="473.7" x2="800.5" y2="471.4"/>
				</g>
				<g id="LINE_4738_">
					<line class="st9" x1="793" y1="466.3" x2="789.6" y2="463.9"/>
				</g>
				<g id="LINE_4741_">
					<line class="st9" x1="812.6" y1="460.9" x2="803.8" y2="473.7"/>
				</g>
				<g id="LINE_4744_">
					<line class="st9" x1="813.2" y1="460.8" x2="798.3" y2="450.6"/>
				</g>
				<g id="LINE_4745_">
					<line class="st9" x1="812.7" y1="460.7" x2="798.5" y2="451"/>
				</g>
				<g id="LINE_4746_">
					<line class="st9" x1="798.4" y1="451.2" x2="789.6" y2="463.9"/>
				</g>
				<g id="LINE_4747_">
					<line class="st9" x1="798.8" y1="450.9" x2="798.6" y2="451.3"/>
				</g>
				<g id="LINE_4748_">
					<line class="st9" x1="812.7" y1="460.4" x2="812.4" y2="460.8"/>
				</g>
				<g id="LINE_00000023963411821320410900000009994663940296984221_">
					<line class="st9" x1="832.3" y1="474.4" x2="818.1" y2="464.7"/>
				</g>
				<g id="LINE_00000036243211870807232230000004294824485503304094_">
					<line class="st9" x1="823.5" y1="487.2" x2="820.1" y2="484.9"/>
				</g>
				<g id="LINE_00000021083911021367709180000006361326137356006789_">
					<line class="st9" x1="812.7" y1="479.7" x2="809.3" y2="477.4"/>
				</g>
				<g id="LINE_00000157305032477417135590000014763398251095956890_">
					<line class="st9" x1="832.3" y1="474.4" x2="823.5" y2="487.2"/>
				</g>
				<g id="LINE_00000061429359115443803660000001421681803928210091_">
					<line class="st9" x1="832.8" y1="474.3" x2="817.9" y2="464.1"/>
				</g>
				<g id="LINE_00000137096246246306441270000002996625498926383788_">
					<line class="st9" x1="832.4" y1="474.2" x2="818.2" y2="464.5"/>
				</g>
				<g id="LINE_00000172415491339264399940000003389993333652483473_">
					<line class="st9" x1="818.1" y1="464.7" x2="809.3" y2="477.4"/>
				</g>
				<g id="LINE_00000182499327570779227240000011350039420364845744_">
					<line class="st9" x1="851.9" y1="487.9" x2="837.7" y2="478.1"/>
				</g>
				<g id="LINE_00000137827711904242877120000013475160053294783399_">
					<line class="st9" x1="843.1" y1="500.7" x2="839.8" y2="498.4"/>
				</g>
				<g id="LINE_00000110430310769929994080000003016575270157341115_">
					<line class="st9" x1="832.3" y1="493.2" x2="828.9" y2="490.9"/>
				</g>
				<g id="LINE_00000001632994639779474680000017729122945952289951_">
					<line class="st9" x1="851.9" y1="487.9" x2="843.1" y2="500.7"/>
				</g>
				<g id="LINE_00000101093348003495924100000015220336780324354982_">
					<line class="st9" x1="852.5" y1="487.8" x2="837.6" y2="477.6"/>
				</g>
				<g id="LINE_00000123417822785358762020000005155066374409787060_">
					<line class="st9" x1="852" y1="487.7" x2="837.8" y2="478"/>
				</g>
				<g id="LINE_00000001631246263749752440000010237371117853874571_">
					<line class="st9" x1="837.7" y1="478.1" x2="828.9" y2="490.9"/>
				</g>
				<g id="LINE_00000086666489933795298720000013289038007283657891_">
					<line class="st9" x1="871.6" y1="501.4" x2="857.4" y2="491.6"/>
				</g>
				<g id="LINE_00000010286446039431400240000004179056468150093201_">
					<line class="st9" x1="862.8" y1="514.2" x2="859.4" y2="511.8"/>
				</g>
				<g id="LINE_00000078723507910867709110000003996737817167854731_">
					<line class="st9" x1="852" y1="506.7" x2="848.6" y2="504.4"/>
				</g>
				<g id="LINE_00000084494013187931397180000013021804154882057626_">
					<line class="st9" x1="871.6" y1="501.4" x2="862.8" y2="514.2"/>
				</g>
				<g id="LINE_00000103244059294916214250000010451246233931379622_">
					<line class="st9" x1="872.2" y1="501.3" x2="857.3" y2="491.1"/>
				</g>
				<g id="LINE_00000102513105850367397460000008568563727976591525_">
					<line class="st9" x1="871.7" y1="501.2" x2="857.5" y2="491.5"/>
				</g>
				<g id="LINE_00000077294377489538548660000017451036063543871892_">
					<line class="st9" x1="857.4" y1="491.6" x2="848.6" y2="504.4"/>
				</g>
				<g id="LINE_00000084502092826103097570000007421885943408696208_">
					<line class="st9" x1="891.2" y1="514.9" x2="877" y2="505.1"/>
				</g>
				<g id="LINE_00000054242181457467428560000001838774522505732244_">
					<line class="st9" x1="882.4" y1="527.7" x2="879.1" y2="525.3"/>
				</g>
				<g id="LINE_00000038399793835736963570000006870936880396350634_">
					<line class="st9" x1="871.6" y1="520.2" x2="868.2" y2="517.9"/>
				</g>
				<g id="LINE_00000085233646092173888780000001954179608992735126_">
					<line class="st9" x1="891.2" y1="514.9" x2="882.4" y2="527.7"/>
				</g>
				<g id="LINE_00000140724683986225496660000005009668492149025922_">
					<line class="st9" x1="891.8" y1="514.8" x2="876.9" y2="504.5"/>
				</g>
				<g id="LINE_00000009576526774020755230000003960706048185272964_">
					<line class="st9" x1="891.3" y1="514.7" x2="877.1" y2="505"/>
				</g>
				<g id="LINE_00000142166729456088507190000006205798940652332981_">
					<line class="st9" x1="877" y1="505.1" x2="868.2" y2="517.9"/>
				</g>
			</g>
		</g>
		<g id="stairs">
			<g>
				<polygon class="st10" points="894.8,478 894.8,478 894.8,478 888.2,487.4 881.5,496.9 903.6,512.3 910.2,502.9 897.6,494.1 
					904.3,484.6 916.9,493.4 923.5,484 901.4,468.5 				"/>
				<line class="st10" x1="907.1" y1="500.7" x2="900.5" y2="510.1"/>
				<line class="st10" x1="903.9" y1="498.5" x2="897.3" y2="507.9"/>
				<line class="st10" x1="900.8" y1="496.3" x2="894.2" y2="505.7"/>
				<line class="st10" x1="913.7" y1="491.2" x2="920.3" y2="481.8"/>
				<line class="st10" x1="910.6" y1="489" x2="917.2" y2="479.6"/>
				<line class="st10" x1="907.4" y1="486.8" x2="914" y2="477.4"/>
				<line class="st10" x1="904.3" y1="484.6" x2="894.8" y2="478"/>
				<line class="st10" x1="902.1" y1="487.8" x2="892.6" y2="481.1"/>
				<line class="st10" x1="899.8" y1="490.9" x2="890.4" y2="484.3"/>
				<line class="st10" x1="897.6" y1="494.1" x2="888.2" y2="487.4"/>
				<line class="st10" x1="910.9" y1="475.2" x2="904.3" y2="484.6"/>
				<line class="st10" x1="910.9" y1="475.2" x2="891" y2="503.5"/>
				<polyline class="st10" points="906.9,507.6 889.3,495.3 902.5,476.4 917.8,487 				"/>
				<polygon class="st11" points="920.1,488.7 918.2,486.4 917.8,487 917.3,487.7 				"/>
				<path class="st11" d="M906.6,508.2c0.3,0.2,0.7,0.1,0.9-0.2c0.2-0.3,0.1-0.7-0.2-0.9c-0.3-0.2-0.7-0.1-0.9,0.2
					C906.2,507.6,906.3,508,906.6,508.2z"/>
			</g>
		</g>
	</g>
	<g id="Lower_Level">
		<text transform="matrix(1 0 0 1 52.7602 273.6855)" class="st12 st13 st14 st15">L</text>
		<text transform="matrix(1 0 0 1 7.458496e-02 85.9059)" class="st13 st16">Lower Level</text>
		<g id="grey_region">
			<polygon id="L02" class="st17" points="671.4,262.6 653.6,296.2 685.3,312.3 702.7,279.9 			"/>
			<polygon id="L02_00000121265557823676971770000012836780394465169577_" class="st17" points="639.6,245.1 621.4,279.5 
				653.8,295.9 671.5,262.8 			"/>
			<polygon class="st17" points="841.5,541.6 831.9,556.3 810.2,542.2 785.7,579.3 857.2,626.5 891.5,574.6 			"/>
		</g>
		<g id="text_00000067947810465676077990000004353311715206840750_">
			<rect x="800" y="566.7" class="st0" width="80.4" height="34.1"/>
			<text transform="matrix(1 0 0 1 810.5387 576.6065)" class="st18 st6">SJSU Grad </text>
			<text transform="matrix(1 0 0 1 813.5387 590.6065)" class="st18 st6">Lab (L67)</text>
			<path class="st19" d="M155.9,638.2"/>
		</g>
		
			<pattern  id="SVGID_00000148645397927998899850000002331333092504951229_" xlink:href="#SVGID_1_" patternTransform="matrix(1 0 0 1 -182.4 17608.7207)">
		</pattern>
		
			<polyline style="fill:url(#SVGID_00000148645397927998899850000002331333092504951229_);stroke:#000000;stroke-miterlimit:10;" points="
			1033.2,533.9 953.7,480.5 952.8,481.9 856.9,626.4 856.7,626.2 785.4,579.2 785.7,579.5 794.6,566.3 794.7,566.5 768.1,548.6 
			768.2,549.1 784,524.1 784.4,524.1 750.9,501.9 751.8,501.5 573.1,766.7 573.2,766.3 530.2,692.6 530.9,693.1 581,617.3 
			581.1,617.7 506.2,568.4 506.5,568.3 417.4,705.8 419.2,706 629.7,1053.9 627.1,1053.2 864.9,911.6 861.4,911.9 900.2,936.6 
			899,937.9 1058.9,841.8 1061,838.8 1195.1,642.7 1192.6,642.1 1019.8,525 		"/>
		<path class="st17" d="M530.7,689.8c11.3-17,27.2-41.3,39.2-59.4c2.8-4.3,6.8-10.2,9.2-13.9c0.2-0.3,0.5-0.6,0.8-0.5
			c11.9,7.9,25.3,17,37.5,25.1c7.9,5.2,22.7,15.3,27.7,18.6c0.1,0,0.1,0.1,0.1,0.1c-0.1,0.1-1.1,0.1-1.4,0.3
			c-2.4,3.5-68.5,102.4-71.2,106.5c-0.1,0.2,1.1-0.3,0.7-0.7c-11.2-19.2-32.2-55.4-43.1-74"/>
		<rect x="536.4" y="665.8" class="st0" width="80.4" height="34.1"/>
		<text transform="matrix(1 0 0 1 552.8541 675.788)" class="st18 st6">Material </text>
		<text transform="matrix(1 0 0 1 556.4541 689.788)" class="st18 st6">Library</text>
		<path class="st21" d="M293.1,228.2c-7-4.7-21.7-14.8-31.7-21.5c-1.4-0.8-1.9-1.1-2.5-0.2c-6.9,10.3-64.3,93.1-70.4,104.4
			c-0.2,0.7,1.5,1.9,2.4,2.5c3.2,2.2,7.4,5.1,12.1,8.2c12.7,8.6,31.7,21.5,43.4,29.5c5.1,3-0.3,7.8-2.5,11.6
			c-3.1,4.6-6.5,9.6-9.7,14.4c-1.7,2.6-3.9,6-5.7,7.5c9.1,5.7,49.7,33.7,64.5,43.6c3.9,2.3,1.2,5-1.1,8.5
			c-5,7.3-11.4,16.5-16.4,23.7c-1.4,2.1-2.4,2.6-1,4.1c6.3,8.5,35.8,50.9,51.7,73.1c2.8,3.5,4,6.1,6.3,8.3
			c9.6,7.3,102.5,69.6,128.4,89.1c-5.6,10.7-31,45.6-42.1,62.6c-1.2,1.7-1.7,2.5-1.6,2.7c0,0.1,0.2,0.1,0.3,0.3
			c9.5,13.6,188.5,316.3,210.6,353.9c12.7-10,176.6-102.2,238-141c0.3-0.2,0.5-0.3,0.8-0.3c0.5,0.1,0.8,0.4,1.4,0.8
			c6.3,4.5,19.1,12.9,27.9,19c1.3,0.9,2.5,1.7,3.4,2.4c1.5,1.1,2.2,1.8,2.6,1.8c0.2,0,0.3-0.1,0.5-0.2c11.4-8.6,111-64.3,154.2-91.4
			c11.5-8.8,114-169.6,135.3-198.3c0.6-0.9,1.1-1.7,1.8-2.7c0.2-0.3,0.2-0.3,0.3-0.5c0.2-0.3,0.4-0.7,0.5-1
			c-11.5-12.1-212.2-145-281.8-193.5c-3.9-3.2-4.8,1.5-7.1,4.2c-8.1,11.9-24.2,35.9-28.6,42.3c-0.3,0.5-0.8,1.1-1.4,1.2
			c-17.3-9.7-54.1-36.8-76-50.6c-1.4-0.9-3-1-2.2-2.3c6-8.9,25.5-34.7,34.2-47.8c0.9-1.9,1-2.4,0.4-3.2
			C822.4,379,688.8,148.5,650.7,87.6c-0.9-1.4-2-2.7-3.9-1.9c-19.1,11.6-47.1,29.4-67.3,42.1c-1.3,0.6-3.1,2.6-4.5,2.3
			c-10.7-6.7-64-43.5-86.9-58.8c-0.3-0.2-0.7-0.5-1-0.5c-0.5,0-0.7,0.7-1.5,2.1c-11.3,18-35.9,52.6-41.6,62c-0.4,1.1-1,1.6-2,1.2
			c-1.3-0.4-4-2.4-6.7-4.2c-6.8-4.6-16.3-11.2-22.5-15.1c-0.7-0.3-1.4-0.2-2.1,0.4c-1.4,1.4-3.2,4.1-4.5,6.1
			c-8.5,12.5-25.7,38-35.8,52.8c-0.9,1.3-2,2.8-3.6,2.9c-0.4,0-0.4,0-0.6,0c-0.5-0.1-1-0.2-1.4-0.5c-2.3-1.2-4.4-2.9-6.7-4.4
			c-4.4-3-9.1-6.2-13.6-9.2c-2.1-1.3-4.7-3.4-6.4-3.9c-1.6-0.5-1.9,0.8-2.5,1.9c-6.3,9.7-38.2,56.2-42.8,63.2"/>
		<polygon class="st22" points="442.6,526.1 505.1,568.9 464.3,634.4 401.8,591.6 		"/>
		<g>
			<g id="Layer_1_00000057128951095079293490000002745830569312578230_">
				<g id="Layer_2_00000179622402402341997070000017495670715805875130_">
					<g id="Image_29_00000152264491577990248910000012723822039090194611_">
						<g id="Ellipse_1_copy_2_00000112607144718640010880000004055557737090483866_">
							<circle class="st23" cx="418.9" cy="585.8" r="14.4"/>
						</g>
					</g>
				</g>
			</g>
			<g>
				<g>
					<path class="st24" d="M427.1,577l-5-1.7c-0.3-0.1-0.6,0.1-0.6,0.4v1.3h-4.9c-0.2,0-0.4,0.2-0.4,0.4v1.5c0.3,0,0.5,0.1,0.8,0.2
						v-1.3h4.4v15.3h-3v0.2c0,0.2,0.1,0.4,0,0.6h2.9v1.3c0,0.3,0.3,0.6,0.6,0.5l5-1.7c0.2-0.1,0.3-0.2,0.3-0.4v-16.1
						C427.4,577.2,427.3,577,427.1,577z"/>
					<g>
						<g>
							<path class="st24" d="M408.8,592.4h3.2c0.4,0,0.8-0.3,0.9-0.7l0.3-1.3l-1.6-1.3l0,0l-0.4,1.4h-2.5c-0.5,0-1,0.4-1,1
								C407.9,592,408.3,592.4,408.8,592.4z"/>
							<path class="st24" d="M416.2,583.2c0.9-0.2,1.5-1.1,1.2-2c-0.2-0.9-1.1-1.5-2-1.2c-0.9,0.2-1.5,1.1-1.2,2
								C414.4,582.9,415.3,583.4,416.2,583.2z"/>
							<path class="st24" d="M410.1,587.2c0.4,0.2,0.9,0,1-0.4l0.6-1.4l0.9-0.3l-0.7,2.8c-0.1,0.4,0,0.7,0.3,1l2.7,2.2l0.7,2.9
								c0.1,0.4,0.5,0.7,0.9,0.7c0.1,0,0.2,0,0.2,0c0.5-0.1,0.8-0.6,0.7-1.2l-0.8-3.2c0-0.2-0.2-0.4-0.3-0.5l-1.7-1.4l0.9-2.4
								l0.9,1.1c0.2,0.2,0.4,0.3,0.6,0.3c0.1,0,0.3,0,0.4-0.1l1.6-1c0.4-0.2,0.5-0.7,0.3-1.1c-0.2-0.4-0.7-0.5-1.1-0.3l-1,0.6
								l-0.9-1c-0.2-0.3-0.5-0.5-0.9-0.6l-1.4-0.5c-0.4-0.2-0.9-0.2-1.3,0l-1.9,0.6c-0.2,0.1-0.4,0.2-0.5,0.4l-0.8,1.8
								C409.5,586.6,409.7,587.1,410.1,587.2z"/>
						</g>
					</g>
				</g>
			</g>
		</g>
		<g>
			<g id="Layer_2_00000099634165873838215660000015812898768953783992_">
				<g id="Image_64_00000165209106011936341100000009673826183600822427_">
					<g id="Ellipse_1_copy_9_00000058559885118167677940000017517639187770322365_">
						<circle class="st25" cx="480.4" cy="551.3" r="14.4"/>
					</g>
				</g>
			</g>
			<g id="Layer_1_00000122714795702670779850000007618690476163185838_">
				<g>
					<g>
						<g>
							<path class="st24" d="M473.8,545.7c0.8,0,1.5-0.7,1.5-1.5s-0.7-1.4-1.5-1.4s-1.5,0.6-1.5,1.4
								C472.3,545,473,545.7,473.8,545.7z"/>
							<path class="st24" d="M475.7,546H472c-0.9,0-1.6,0.7-1.6,1.6v4.6c0,0.3,0.3,0.6,0.6,0.6c0.3,0,0.6-0.3,0.6-0.6v-4h0.3v4.6
								v6.2c0,0.5,0.4,0.8,0.8,0.8c0.5,0,0.8-0.4,0.8-0.8v-6.2h0.4v6.2c0,0.5,0.4,0.8,0.8,0.8c0.5,0,0.8-0.4,0.8-0.8v-6.2v-4.6h0.3
								v4c0,0.3,0.3,0.6,0.6,0.6c0.3,0,0.6-0.3,0.6-0.6v-4.6C477.3,546.7,476.6,546,475.7,546z"/>
						</g>
						<g>
							<path class="st24" d="M486.4,545.7c0.8,0,1.5-0.7,1.5-1.5s-0.7-1.5-1.5-1.5c-0.8,0.1-1.5,0.7-1.5,1.5
								S485.6,545.7,486.4,545.7z"/>
							<path class="st24" d="M490.3,551.4l-1.2-4.3c-0.3-0.8-0.9-1.1-1.8-1.1l0,0h-2l0,0c-0.9,0-1.5,0.3-1.8,1.1l-1.2,4.3
								c-0.1,0.3,0.1,0.6,0.4,0.7c0.3,0.1,0.6-0.1,0.7-0.3l1.1-3.8h0.3l-1.9,6.5h1.8v4.7c0,0.4,0.3,0.7,0.7,0.7s0.7-0.3,0.7-0.7
								v-4.7h0.3v4.7c0,0.4,0.3,0.7,0.7,0.7c0.4,0,0.7-0.3,0.7-0.7v-4.7h1.8l-1.8-6.6h0.3l1.1,3.8c0.1,0.3,0.4,0.4,0.7,0.3
								C490.2,551.9,490.4,551.6,490.3,551.4z"/>
						</g>
					</g>
					<rect x="479.6" y="542.8" class="st24" width="1.6" height="17"/>
				</g>
			</g>
		</g>
		
			<rect x="495.6" y="434.7" transform="matrix(0.5405 -0.8413 0.8413 0.5405 -172.0809 676.2936)" class="st26" width="75" height="122"/>
	</g>
	<rect x="488.6" y="481.2" class="st0" width="80.4" height="34.1"/>
	<text transform="matrix(1 0 0 1 493.726 491.1661)" class="st18 st6">Prototyping</text>
	<text transform="matrix(1 0 0 1 518.126 505.1661)" class="st18 st6">Lab</text>
</g>
<g id="exits_x2C__restrooms_00000156558115086135673650000011457218694895975051_">
	<g id="exits_x2C__restrooms">
		<g>
			<g id="Layer_1_00000042702974373661500170000003668872372288945812_">
				<g id="Layer_2_00000109017616333713485160000009889481783568913028_">
					<g id="Image_29">
						<g id="Ellipse_1_copy_2">
							<circle class="st23" cx="702" cy="205" r="14.4"/>
						</g>
					</g>
				</g>
			</g>
			<g>
				<g>
					<path class="st24" d="M710.2,196.3l-5-1.7c-0.3-0.1-0.6,0.1-0.6,0.4v1.3h-4.9c-0.2,0-0.4,0.2-0.4,0.4v1.5
						c0.3,0,0.5,0.1,0.8,0.2v-1.3h4.4v15.3h-3v0.2c0,0.2,0.1,0.4,0,0.6h2.9v1.3c0,0.3,0.3,0.6,0.6,0.5l5-1.7
						c0.2-0.1,0.3-0.2,0.3-0.4v-16.1C710.5,196.5,710.4,196.3,710.2,196.3z"/>
					<g>
						<g>
							<path class="st24" d="M692,211.7h3.2c0.4,0,0.8-0.3,0.9-0.7l0.3-1.3l-1.6-1.3l0,0l-0.4,1.4H692c-0.5,0-1,0.4-1,1
								C691.1,211.3,691.5,211.7,692,211.7z"/>
							<path class="st24" d="M699.4,202.5c0.9-0.2,1.5-1.1,1.2-2c-0.2-0.9-1.1-1.5-2-1.2c-0.9,0.2-1.5,1.1-1.2,2
								C697.6,202.1,698.5,202.7,699.4,202.5z"/>
							<path class="st24" d="M693.3,206.5c0.4,0.2,0.9,0,1-0.4l0.6-1.4l0.9-0.3l-0.7,2.8c-0.1,0.4,0,0.7,0.3,1l2.7,2.2l0.7,2.9
								c0.1,0.4,0.5,0.7,0.9,0.7c0.1,0,0.2,0,0.2,0c0.5-0.1,0.8-0.6,0.7-1.2l-0.8-3.2c0-0.2-0.2-0.4-0.3-0.5l-1.7-1.4l0.9-2.4
								l0.9,1.1c0.2,0.2,0.4,0.3,0.6,0.3c0.1,0,0.3,0,0.4-0.1l1.6-1c0.4-0.2,0.5-0.7,0.3-1.1c-0.2-0.4-0.7-0.5-1.1-0.3l-1,0.6
								l-0.9-1c-0.2-0.3-0.5-0.5-0.9-0.6l-1.4-0.5c-0.4-0.2-0.9-0.2-1.3,0l-1.9,0.6c-0.2,0.1-0.4,0.2-0.5,0.4l-0.8,1.8
								C692.7,205.9,692.9,206.3,693.3,206.5z"/>
						</g>
					</g>
				</g>
			</g>
		</g>
		<g>
			<g id="Layer_1_00000042007272843511667690000008406306761235619238_">
				<g id="Layer_2_00000022556735553191659450000005795340208093633970_">
					<g id="Image_29_00000173841480334063734140000011531086694327245201_">
						<g id="Ellipse_1_copy_2_00000107550855543152140580000014742607775612015036_">
							<circle class="st23" cx="932" cy="465.9" r="14.4"/>
						</g>
					</g>
				</g>
			</g>
			<g>
				<g>
					<path class="st24" d="M940.2,457.1l-5-1.7c-0.3-0.1-0.6,0.1-0.6,0.4v1.3h-4.9c-0.2,0-0.4,0.2-0.4,0.4v1.5
						c0.3,0,0.5,0.1,0.8,0.2v-1.3h4.4v15.3h-3v0.2c0,0.2,0.1,0.4,0,0.6h2.9v1.3c0,0.3,0.3,0.6,0.6,0.5l5-1.7
						c0.2-0.1,0.3-0.2,0.3-0.4v-16.1C940.5,457.3,940.4,457.1,940.2,457.1z"/>
					<g>
						<g>
							<path class="st24" d="M921.9,472.5h3.2c0.4,0,0.8-0.3,0.9-0.7l0.3-1.3l-1.6-1.3l0,0l-0.4,1.4h-2.5c-0.5,0-1,0.4-1,1
								C921,472.1,921.4,472.5,921.9,472.5z"/>
							<path class="st24" d="M929.3,463.3c0.9-0.2,1.5-1.1,1.2-2c-0.2-0.9-1.1-1.5-2-1.2c-0.9,0.2-1.5,1.1-1.2,2
								C927.5,463,928.4,463.5,929.3,463.3z"/>
							<path class="st24" d="M923.2,467.3c0.4,0.2,0.9,0,1-0.4l0.6-1.4l0.9-0.3L925,468c-0.1,0.4,0,0.7,0.3,1l2.7,2.2l0.7,2.9
								c0.1,0.4,0.5,0.7,0.9,0.7c0.1,0,0.2,0,0.2,0c0.5-0.1,0.8-0.6,0.7-1.2l-0.8-3.2c0-0.2-0.2-0.4-0.3-0.5l-1.7-1.4l0.9-2.4
								l0.9,1.1c0.2,0.2,0.4,0.3,0.6,0.3c0.1,0,0.3,0,0.4-0.1l1.6-1c0.4-0.2,0.5-0.7,0.3-1.1s-0.7-0.5-1.1-0.3l-1,0.6l-0.9-1
								c-0.2-0.3-0.5-0.5-0.9-0.6l-1.4-0.5c-0.4-0.2-0.9-0.2-1.3,0l-1.9,0.6c-0.2,0.1-0.4,0.2-0.5,0.4l-0.8,1.8
								C922.6,466.7,922.8,467.2,923.2,467.3z"/>
						</g>
					</g>
				</g>
			</g>
		</g>
	</g>
</g>
<g id="Layer_2_00000124145771255248487530000004635537547503704249_">
</g>
</svg>
