<?xml version="1.0" encoding="utf-8"?>
<!-- Generator: Adobe Illustrator 28.2.0, SVG Export Plug-In . SVG Version: 6.00 Build 0)  -->
<svg version="1.1" id="Layer_1" xmlns="http://www.w3.org/2000/svg" xmlns:xlink="http://www.w3.org/1999/xlink" x="0px" y="0px"
	 viewBox="0 0 826.7 1029" style="enable-background:new 0 0 826.7 1029;" xml:space="preserve">
<style type="text/css">
	.st0{fill:none;}
	.st1{fill:#231F20;}
	.st2{opacity:0.5;fill:#71A58E;enable-background:new    ;}
	.st3{fill:#406CA7;}
	.st4{fill:#FFFFFF;}
	.st5{opacity:0.45;fill:url(#SVGID_1_);stroke:#DD4126;stroke-miterlimit:10;enable-background:new    ;}
	
		.st6{opacity:0.45;fill:url(#SVGID_00000005249520980557398220000014186876960715634599_);stroke:#8F9194;stroke-miterlimit:10;enable-background:new    ;}
	
		.st7{opacity:0.45;fill:url(#SVGID_00000174567524560180061860000013399230851422322101_);stroke:#000000;stroke-width:0.5;stroke-miterlimit:10;enable-background:new    ;}
	.st8{opacity:0.68;fill:#EDCA74;enable-background:new    ;}
	.st9{font-family:'ArialMT';}
	.st10{font-size:15px;}
	.st11{font-size:14.998px;}
	.st12{font-size:14px;}
	.st13{font-size:13px;}
	.st14{opacity:0.4;fill:#1A4363;enable-background:new    ;}
	.st15{fill:none;stroke:#010101;stroke-width:4;stroke-miterlimit:10;}
	.st16{fill:none;stroke:#231F20;stroke-width:6;stroke-linecap:round;stroke-linejoin:round;}
	.st17{fill:#486665;stroke:#FFFFFF;stroke-width:0.25;stroke-miterlimit:10;}
	.st18{fill:#C40000;}
	.st19{fill:#232323;}
	.st20{fill:#121212;}
</style>
<pattern  y="1029" width="28.8" height="28.8" patternUnits="userSpaceOnUse" id="SVGID_0000001892680229531719552" viewBox="1.4 -30.2 28.8 28.8" style="overflow:visible;">
	<g>
		<rect x="1.4" y="-30.2" class="st0" width="28.8" height="28.8"/>
		<g>
			<rect x="1.4" y="-30.2" class="st0" width="28.8" height="28.8"/>
			<g>
				<rect x="1.4" y="-30.2" class="st0" width="28.8" height="28.8"/>
				<g>
					<rect x="1.4" y="-30.2" class="st0" width="28.8" height="28.8"/>
					<g>
						<rect x="1.4" y="-30.2" class="st0" width="28.8" height="28.8"/>
						<g>
							<rect x="1.4" y="-30.2" class="st0" width="28.8" height="28.8"/>
							<g>
								<rect x="1.4" y="-30.2" class="st0" width="28.8" height="28.8"/>
								<g>
									<rect x="1.4" y="-30.2" class="st0" width="28.8" height="28.8"/>
									<g>
										<rect x="1.4" y="-30.2" class="st0" width="28.8" height="28.8"/>
										<g>
											<rect x="1.4" y="-30.2" class="st0" width="28.8" height="28.8"/>
											<g>
												<rect x="1.4" y="-30.2" class="st0" width="28.8" height="28.8"/>
												<g>
													<rect x="1.4" y="-30.2" class="st0" width="28.8" height="28.8"/>
													<g>
														<rect x="1.4" y="-30.2" class="st0" width="28.8" height="28.8"/>
														<g>
															<rect x="1.4" y="-30.2" class="st0" width="28.8" height="28.8"/>
															<g>
																<rect x="1.4" y="-30.2" class="st0" width="28.8" height="28.8"/>
																<g>
																	<rect x="1.4" y="-30.2" class="st0" width="28.8" height="28.8"/>
																	<g>
																		<rect x="1.4" y="-30.2" class="st0" width="28.8" height="28.8"/>
																		<g>
																			<rect x="1.4" y="-30.2" class="st0" width="28.8" height="28.8"/>
																			<g>
																				<path class="st1" d="M30.2-31.6c0.8,0,1.4,0.6,1.4,1.4c0,0.8-0.6,1.4-1.4,1.4s-1.4-0.6-1.4-1.4
																					C28.8-31,29.4-31.6,30.2-31.6z"/>
																				<path class="st1" d="M15.8-31.6c0.8,0,1.4,0.6,1.4,1.4c0,0.8-0.6,1.4-1.4,1.4c-0.8,0-1.4-0.6-1.4-1.4
																					C14.4-31,15-31.6,15.8-31.6z"/>
																				<path class="st1" d="M30.2-17.2c0.8,0,1.4,0.6,1.4,1.4s-0.6,1.4-1.4,1.4s-1.4-0.6-1.4-1.4
																					C28.8-16.6,29.4-17.2,30.2-17.2z"/>
																				<path class="st1" d="M15.8-17.2c0.8,0,1.4,0.6,1.4,1.4s-0.6,1.4-1.4,1.4c-0.8,0-1.4-0.6-1.4-1.4
																					C14.4-16.6,15-17.2,15.8-17.2z"/>
																				<path class="st1" d="M8.6-24.4c0.8,0,1.4,0.6,1.4,1.4c0,0.8-0.6,1.4-1.4,1.4c-0.8,0-1.4-0.6-1.4-1.4
																					C7.2-23.8,7.8-24.4,8.6-24.4z"/>
																				<path class="st1" d="M23-24.4c0.8,0,1.4,0.6,1.4,1.4c0,0.8-0.6,1.4-1.4,1.4s-1.4-0.6-1.4-1.4S22.2-24.4,23-24.4
																					z"/>
																				<path class="st1" d="M8.6-10C9.4-10,10-9.4,10-8.6S9.4-7.2,8.6-7.2c-0.8,0-1.4-0.6-1.4-1.4
																					C7.2-9.4,7.8-10,8.6-10z"/>
																				<path class="st1" d="M23-10c0.8,0,1.4,0.6,1.4,1.4S23.8-7.2,23-7.2s-1.4-0.6-1.4-1.4S22.2-10,23-10z"/>
																			</g>
																			<g>
																				<path class="st1" d="M1.4-31.6c0.8,0,1.4,0.6,1.4,1.4c0,0.8-0.6,1.4-1.4,1.4C0.6-28.7,0-29.4,0-30.2
																					C0-31,0.6-31.6,1.4-31.6z"/>
																				<path class="st1" d="M1.4-17.2c0.8,0,1.4,0.6,1.4,1.4s-0.6,1.4-1.4,1.4S0-15,0-15.8S0.6-17.2,1.4-17.2z"/>
																			</g>
																			<g>
																				<path class="st1" d="M30.2-2.8c0.8,0,1.4,0.6,1.4,1.4S31,0,30.2,0s-1.4-0.6-1.4-1.4C28.8-2.2,29.4-2.8,30.2-2.8
																					z"/>
																				<path class="st1" d="M15.8-2.8c0.8,0,1.4,0.6,1.4,1.4S16.6,0,15.8,0s-1.4-0.6-1.4-1.4C14.4-2.2,15-2.8,15.8-2.8
																					z"/>
																			</g>
																			<g>
																				<path class="st1" d="M1.4-2.8c0.8,0,1.4,0.6,1.4,1.4S2.2,0,1.4,0C0.6,0.1,0-0.6,0-1.4C0-2.2,0.6-2.8,1.4-2.8z"
																					/>
																			</g>
																		</g>
																	</g>
																</g>
															</g>
														</g>
													</g>
												</g>
											</g>
										</g>
									</g>
								</g>
							</g>
						</g>
					</g>
				</g>
			</g>
		</g>
	</g>
</pattern>
<pattern  y="1029" width="28.8" height="28.8" patternUnits="userSpaceOnUse" id="SVGID_0000004777505437322626010" viewBox="1.4 -30.2 28.8 28.8" style="overflow:visible;">
	<g>
		<rect x="1.4" y="-30.2" class="st0" width="28.8" height="28.8"/>
		<g>
			<rect x="1.4" y="-30.2" class="st0" width="28.8" height="28.8"/>
			<g>
				<rect x="1.4" y="-30.2" class="st0" width="28.8" height="28.8"/>
				<g>
					<rect x="1.4" y="-30.2" class="st0" width="28.8" height="28.8"/>
					<g>
						<rect x="1.4" y="-30.2" class="st0" width="28.8" height="28.8"/>
						<g>
							<rect x="1.4" y="-30.2" class="st0" width="28.8" height="28.8"/>
							<g>
								<rect x="1.4" y="-30.2" class="st0" width="28.8" height="28.8"/>
								<g>
									<rect x="1.4" y="-30.2" class="st0" width="28.8" height="28.8"/>
									<g>
										<rect x="1.4" y="-30.2" class="st0" width="28.8" height="28.8"/>
										<g>
											<rect x="1.4" y="-30.2" class="st0" width="28.8" height="28.8"/>
											<g>
												<rect x="1.4" y="-30.2" class="st0" width="28.8" height="28.8"/>
												<g>
													<rect x="1.4" y="-30.2" class="st0" width="28.8" height="28.8"/>
													<g>
														<rect x="1.4" y="-30.2" class="st0" width="28.8" height="28.8"/>
														<g>
															<rect x="1.4" y="-30.2" class="st0" width="28.8" height="28.8"/>
															<g>
																<rect x="1.4" y="-30.2" class="st0" width="28.8" height="28.8"/>
																<g>
																	<rect x="1.4" y="-30.2" class="st0" width="28.8" height="28.8"/>
																	<g>
																		<rect x="1.4" y="-30.2" class="st0" width="28.8" height="28.8"/>
																		<g>
																			<rect x="1.4" y="-30.2" class="st0" width="28.8" height="28.8"/>
																			<g>
																				<path class="st1" d="M30.2-31.6c0.8,0,1.4,0.6,1.4,1.4c0,0.8-0.6,1.4-1.4,1.4s-1.4-0.6-1.4-1.4
																					C28.8-31,29.4-31.6,30.2-31.6z"/>
																				<path class="st1" d="M15.8-31.6c0.8,0,1.4,0.6,1.4,1.4c0,0.8-0.6,1.4-1.4,1.4c-0.8,0-1.4-0.6-1.4-1.4
																					C14.4-31,15-31.6,15.8-31.6z"/>
																				<path class="st1" d="M30.2-17.2c0.8,0,1.4,0.6,1.4,1.4s-0.6,1.4-1.4,1.4s-1.4-0.6-1.4-1.4
																					C28.8-16.6,29.4-17.2,30.2-17.2z"/>
																				<path class="st1" d="M15.8-17.2c0.8,0,1.4,0.6,1.4,1.4s-0.6,1.4-1.4,1.4c-0.8,0-1.4-0.6-1.4-1.4
																					C14.4-16.6,15-17.2,15.8-17.2z"/>
																				<path class="st1" d="M8.6-24.4c0.8,0,1.4,0.6,1.4,1.4c0,0.8-0.6,1.4-1.4,1.4c-0.8,0-1.4-0.6-1.4-1.4
																					C7.2-23.8,7.8-24.4,8.6-24.4z"/>
																				<path class="st1" d="M23-24.4c0.8,0,1.4,0.6,1.4,1.4c0,0.8-0.6,1.4-1.4,1.4s-1.4-0.6-1.4-1.4S22.2-24.4,23-24.4
																					z"/>
																				<path class="st1" d="M8.6-10C9.4-10,10-9.4,10-8.6S9.4-7.2,8.6-7.2c-0.8,0-1.4-0.6-1.4-1.4
																					C7.2-9.4,7.8-10,8.6-10z"/>
																				<path class="st1" d="M23-10c0.8,0,1.4,0.6,1.4,1.4S23.8-7.2,23-7.2s-1.4-0.6-1.4-1.4S22.2-10,23-10z"/>
																			</g>
																			<g>
																				<path class="st1" d="M1.4-31.6c0.8,0,1.4,0.6,1.4,1.4c0,0.8-0.6,1.4-1.4,1.4C0.6-28.7,0-29.4,0-30.2
																					C0-31,0.6-31.6,1.4-31.6z"/>
																				<path class="st1" d="M1.4-17.2c0.8,0,1.4,0.6,1.4,1.4s-0.6,1.4-1.4,1.4S0-15,0-15.8S0.6-17.2,1.4-17.2z"/>
																			</g>
																			<g>
																				<path class="st1" d="M30.2-2.8c0.8,0,1.4,0.6,1.4,1.4S31,0,30.2,0s-1.4-0.6-1.4-1.4C28.8-2.2,29.4-2.8,30.2-2.8
																					z"/>
																				<path class="st1" d="M15.8-2.8c0.8,0,1.4,0.6,1.4,1.4S16.6,0,15.8,0s-1.4-0.6-1.4-1.4C14.4-2.2,15-2.8,15.8-2.8
																					z"/>
																			</g>
																			<g>
																				<path class="st1" d="M1.4-2.8c0.8,0,1.4,0.6,1.4,1.4S2.2,0,1.4,0C0.6,0.1,0-0.6,0-1.4C0-2.2,0.6-2.8,1.4-2.8z"
																					/>
																			</g>
																		</g>
																	</g>
																</g>
															</g>
														</g>
													</g>
												</g>
											</g>
										</g>
									</g>
								</g>
							</g>
						</g>
					</g>
				</g>
			</g>
		</g>
	</g>
</pattern>
<pattern  y="1029" width="28.8" height="28.8" patternUnits="userSpaceOnUse" id="SVGID_0000012412650321542811031" viewBox="1.4 -30.2 28.8 28.8" style="overflow:visible;">
	<g>
		<rect x="1.4" y="-30.2" class="st0" width="28.8" height="28.8"/>
		<g>
			<rect x="1.4" y="-30.2" class="st0" width="28.8" height="28.8"/>
			<g>
				<rect x="1.4" y="-30.2" class="st0" width="28.8" height="28.8"/>
				<g>
					<rect x="1.4" y="-30.2" class="st0" width="28.8" height="28.8"/>
					<g>
						<rect x="1.4" y="-30.2" class="st0" width="28.8" height="28.8"/>
						<g>
							<rect x="1.4" y="-30.2" class="st0" width="28.8" height="28.8"/>
							<g>
								<rect x="1.4" y="-30.2" class="st0" width="28.8" height="28.8"/>
								<g>
									<rect x="1.4" y="-30.2" class="st0" width="28.8" height="28.8"/>
									<g>
										<rect x="1.4" y="-30.2" class="st0" width="28.8" height="28.8"/>
										<g>
											<rect x="1.4" y="-30.2" class="st0" width="28.8" height="28.8"/>
											<g>
												<rect x="1.4" y="-30.2" class="st0" width="28.8" height="28.8"/>
												<g>
													<rect x="1.4" y="-30.2" class="st0" width="28.8" height="28.8"/>
													<g>
														<rect x="1.4" y="-30.2" class="st0" width="28.8" height="28.8"/>
														<g>
															<rect x="1.4" y="-30.2" class="st0" width="28.8" height="28.8"/>
															<g>
																<rect x="1.4" y="-30.2" class="st0" width="28.8" height="28.8"/>
																<g>
																	<rect x="1.4" y="-30.2" class="st0" width="28.8" height="28.8"/>
																	<g>
																		<rect x="1.4" y="-30.2" class="st0" width="28.8" height="28.8"/>
																		<g>
																			<rect x="1.4" y="-30.2" class="st0" width="28.8" height="28.8"/>
																			<g>
																				<path class="st1" d="M30.2-31.6c0.8,0,1.4,0.6,1.4,1.4c0,0.8-0.6,1.4-1.4,1.4s-1.4-0.6-1.4-1.4
																					C28.8-31,29.4-31.6,30.2-31.6z"/>
																				<path class="st1" d="M15.8-31.6c0.8,0,1.4,0.6,1.4,1.4c0,0.8-0.6,1.4-1.4,1.4c-0.8,0-1.4-0.6-1.4-1.4
																					C14.4-31,15-31.6,15.8-31.6z"/>
																				<path class="st1" d="M30.2-17.2c0.8,0,1.4,0.6,1.4,1.4s-0.6,1.4-1.4,1.4s-1.4-0.6-1.4-1.4
																					C28.8-16.6,29.4-17.2,30.2-17.2z"/>
																				<path class="st1" d="M15.8-17.2c0.8,0,1.4,0.6,1.4,1.4s-0.6,1.4-1.4,1.4c-0.8,0-1.4-0.6-1.4-1.4
																					C14.4-16.6,15-17.2,15.8-17.2z"/>
																				<path class="st1" d="M8.6-24.4c0.8,0,1.4,0.6,1.4,1.4c0,0.8-0.6,1.4-1.4,1.4c-0.8,0-1.4-0.6-1.4-1.4
																					C7.2-23.8,7.8-24.4,8.6-24.4z"/>
																				<path class="st1" d="M23-24.4c0.8,0,1.4,0.6,1.4,1.4c0,0.8-0.6,1.4-1.4,1.4s-1.4-0.6-1.4-1.4S22.2-24.4,23-24.4
																					z"/>
																				<path class="st1" d="M8.6-10C9.4-10,10-9.4,10-8.6S9.4-7.2,8.6-7.2c-0.8,0-1.4-0.6-1.4-1.4
																					C7.2-9.4,7.8-10,8.6-10z"/>
																				<path class="st1" d="M23-10c0.8,0,1.4,0.6,1.4,1.4S23.8-7.2,23-7.2s-1.4-0.6-1.4-1.4S22.2-10,23-10z"/>
																			</g>
																			<g>
																				<path class="st1" d="M1.4-31.6c0.8,0,1.4,0.6,1.4,1.4c0,0.8-0.6,1.4-1.4,1.4C0.6-28.7,0-29.4,0-30.2
																					C0-31,0.6-31.6,1.4-31.6z"/>
																				<path class="st1" d="M1.4-17.2c0.8,0,1.4,0.6,1.4,1.4s-0.6,1.4-1.4,1.4S0-15,0-15.8S0.6-17.2,1.4-17.2z"/>
																			</g>
																			<g>
																				<path class="st1" d="M30.2-2.8c0.8,0,1.4,0.6,1.4,1.4S31,0,30.2,0s-1.4-0.6-1.4-1.4C28.8-2.2,29.4-2.8,30.2-2.8
																					z"/>
																				<path class="st1" d="M15.8-2.8c0.8,0,1.4,0.6,1.4,1.4S16.6,0,15.8,0s-1.4-0.6-1.4-1.4C14.4-2.2,15-2.8,15.8-2.8
																					z"/>
																			</g>
																			<g>
																				<path class="st1" d="M1.4-2.8c0.8,0,1.4,0.6,1.4,1.4S2.2,0,1.4,0C0.6,0.1,0-0.6,0-1.4C0-2.2,0.6-2.8,1.4-2.8z"
																					/>
																			</g>
																		</g>
																	</g>
																</g>
															</g>
														</g>
													</g>
												</g>
											</g>
										</g>
									</g>
								</g>
							</g>
						</g>
					</g>
				</g>
			</g>
		</g>
	</g>
</pattern>
<g id="Spaces">
	<rect id="prototype_lab" x="430.6" y="335.5" class="st2" width="64.9" height="140.7"/>
	<polygon id="materials_lib" class="st2" points="247.4,499.6 210,576.9 337.8,576.9 337.8,499.6 	"/>
	<polygon id="grad_lab" class="st2" points="530.2,676.4 530.2,649.6 484.5,649.6 484.5,736.9 548.4,736.9 548.4,676.4 	"/>
	<polygon id="incubator" class="st2" points="707.4,503 633.2,503 633.2,585 670.5,585 	"/>
</g>
<g id="restroom">
	<rect x="263.8" y="337.5" class="st3" width="73.1" height="75.5"/>
	<path class="st4" d="M310.3,365c1.2,0,2.1-0.9,2.1-2.1s-0.9-2.1-2.1-2.1s-2.1,0.9-2.1,2.1C308.1,364.1,309.1,365,310.3,365z"/>
	<path class="st4" d="M316.1,373.4l-1.8-6.3c-0.4-1.2-1.3-1.6-2.6-1.6l0,0h-2.9l0,0c-1.3,0-2.1,0.4-2.6,1.6l-1.8,6.3
		c-0.1,0.4,0.1,0.8,0.7,0.9c0.4,0.1,0.9-0.1,1-0.5l1.6-5.5h0.4l-2.7,9.6h2.6v6.8c0,0.5,0.5,1,1,1s1-0.5,1-1v-6.8h0.5v6.8
		c0,0.5,0.5,1,1,1s1-0.5,1-1v-6.8h2.6l-2.7-9.6h0.4l1.6,5.5c0.1,0.4,0.5,0.7,1,0.5C315.9,374.2,316.2,373.8,316.1,373.4z"/>
	<path class="st4" d="M289,365c1.2,0,2.1-0.9,2.1-2.1s-0.9-2.1-2.1-2.1s-2.1,0.9-2.1,2.1C286.7,364.1,287.8,365,289,365z"/>
	<path class="st4" d="M291.7,365.5h-5.5c-1.3,0-2.4,1-2.4,2.4v6.7c0,0.5,0.4,0.9,0.9,0.9s0.9-0.4,0.9-0.9v-5.9h0.5v6.8v9.2
		c0,0.7,0.5,1.2,1.2,1.2s1.2-0.5,1.2-1.2v-9.2h0.5v9.2c0,0.7,0.5,1.2,1.2,1.2s1.2-0.5,1.2-1.2v-9.2v-6.8h0.5v5.9
		c0,0.5,0.4,0.9,0.9,0.9s0.9-0.4,0.9-0.9v-6.7C294.1,366.6,293,365.5,291.7,365.5z"/>
	<rect x="298.9" y="360.8" class="st4" width="2.4" height="24.9"/>
</g>
<g id="employee_areas">
	<pattern  id="SVGID_1_" xlink:href="#SVGID_0000004777505437322626010" patternTransform="matrix(1 0 0 -1 -285.2 -157477.2188)">
	</pattern>
	<path class="st5" d="M259.1,906.7l2.8,38.3l-0.1,0.6l157.7,76.1l9.4,4.2l239.5,0.2v-4.9L667,733.5"/>
	
		<pattern  id="SVGID_00000047039608420959606170000014175530828356112514_" xlink:href="#SVGID_0000001892680229531719552" patternTransform="matrix(1 0 0 -1 -285.2 -157477.2188)">
	</pattern>
	
		<polyline style="opacity:0.45;fill:url(#SVGID_00000047039608420959606170000014175530828356112514_);stroke:#8F9194;stroke-miterlimit:10;enable-background:new    ;" points="
		667.2,736.9 659,736.9 484.1,737.5 484.2,734.4 484.2,649.4 484.2,649.4 500,649.2 500,649 499.8,617.4 499.9,617.9 529.2,617.8 
		529.3,617.4 529,577.2 529,577.7 210.4,577.6 210.4,577.6 247.7,500.1 248.4,500.1 337.3,500.1 337.3,499.8 336.5,413.7 
		336.5,413.4 182.6,412.8 179.2,417 3.5,785.1 2.6,782.6 258.8,906.9 	"/>
	
		<pattern  id="SVGID_00000057842286810854918570000013006081331456610444_" xlink:href="#SVGID_0000012412650321542811031" patternTransform="matrix(1 0 0 1 -120 34945.2422)">
	</pattern>
	
		<rect x="580.7" y="334.9" style="opacity:0.45;fill:url(#SVGID_00000057842286810854918570000013006081331456610444_);stroke:#000000;stroke-width:0.5;stroke-miterlimit:10;enable-background:new    ;" width="87.2" height="87.2"/>
</g>
<g id="stacks">
	<rect x="358" y="92.5" class="st8" width="66.7" height="229.1"/>
	<rect x="500.6" y="53.5" class="st8" width="66.7" height="268.1"/>
	<rect x="581" y="91.6" class="st8" width="66.7" height="229.1"/>
	<rect x="662.6" y="132.6" class="st8" width="66.7" height="188.1"/>
	<rect x="357.8" y="334" class="st8" width="66.7" height="167.1"/>
	<rect x="500.6" y="334.3" class="st8" width="66.2" height="167.1"/>
	<rect x="280" y="254.2" class="st8" width="64.8" height="68.2"/>
	<rect x="290.8" y="214.7" class="st8" width="54" height="39.5"/>
	<rect x="305.9" y="173.8" class="st8" width="38.9" height="40.9"/>
	<rect x="381.6" y="10.9" class="st8" width="43.1" height="81.6"/>
	<rect x="438.7" y="19.7" class="st8" width="46.2" height="250.7"/>
</g>
<g id="Text">
	<text transform="matrix(1 0 0 1 486.998 716.9744)" class="st9 st10">Grad</text>
	<text transform="matrix(1 0 0 1 486.998 734.5745)" class="st9 st10">Lab</text>
	<text transform="matrix(1 0 0 1 271.3002 553.8699)" class="st9 st10">Materials</text>
	<text transform="matrix(1 0 0 1 286.3001 570.47)" class="st9 st10">Library</text>
	<text transform="matrix(0.7451 -0.6669 0.6669 0.7451 438.1879 431.29)" class="st9 st11">Prototyping</text>
	<text transform="matrix(0.7451 -0.6669 0.6669 0.7451 465.8487 429.7246)" class="st9 st11">Lab</text>
	<text transform="matrix(1 0 0 1 633.8356 520.7933)" class="st9 st10">Incubator</text>
	<text transform="matrix(1 0 0 1 633.8363 537.3933)" class="st9 st10">Space</text>
	<text transform="matrix(6.123234e-17 -1 1 6.123234e-17 467.365 252.7824)" class="st9 st12">Microfilm &amp; Microfiche</text>
	<text transform="matrix(1 0 0 1 669.065 204.1097)" class="st9 st13">Historical</text>
	<text transform="matrix(1 0 0 1 668.465 217.1097)" class="st9 st13">California</text>
	<text transform="matrix(1 0 0 1 666.565 230.1097)" class="st9 st13">Textbooks</text>
	<text transform="matrix(1 0 0 1 667.0488 266.9001)" class="st9 st13">Children’s</text>
	<text transform="matrix(1 0 0 1 665.9489 282.9001)" class="st9 st13">&amp; Juvenile</text>
	<text transform="matrix(1 0 0 1 677.8488 298.9001)" class="st9 st13">Books</text>
	<text transform="matrix(1 0 0 1 598.8291 176.8898)" class="st9 st13">Gov’t</text>
	<text transform="matrix(1 0 0 1 593.0291 190.8898)" class="st9 st13">Pubs &amp;</text>
	<text transform="matrix(1 0 0 1 591.9291 204.8898)" class="st9 st13">Federal</text>
	<text transform="matrix(1 0 0 1 582.9291 218.8898)" class="st9 st13">Depository</text>
</g>
<g id="elevator">
	
		<rect x="583.6" y="590.1" transform="matrix(1.787229e-03 -1 1 1.787229e-03 -6.9127 1190.1084)" class="st14" width="18.1" height="16.9"/>
	
		<rect x="583.4" y="614.9" transform="matrix(1.787229e-03 -1 1 1.787229e-03 -31.8875 1214.6924)" class="st14" width="18.1" height="16.9"/>
	
		<rect x="583.5" y="664.3" transform="matrix(1.787229e-03 -1 1 1.787229e-03 -81.2874 1264.0607)" class="st14" width="18.1" height="16.9"/>
	
		<rect x="583.6" y="689.4" transform="matrix(1.787229e-03 -1 1 1.787229e-03 -106.2542 1289.2028)" class="st14" width="18.1" height="16.9"/>
	<line class="st15" x1="605.6" y1="586.9" x2="605.6" y2="715.2"/>
	<g>
		<g>
			<path class="st1" d="M588.6,634.6c-0.2-0.2-0.4-0.3-0.6-0.3s-0.5,0.1-0.6,0.3c-0.5,0.5-1.4,1.4-2.7,2.7c-0.4,0.4-0.4,1,0,1.3
				c0.3,0.3,0.9,0.3,1.2,0l1.1-1.1v3.5c0,0.5,0.4,0.9,0.9,0.9h0.1c0.5,0,0.9-0.4,0.9-0.9v-3.5l1.1,1.1c0.3,0.3,0.9,0.3,1.2,0l0,0
				c0.3-0.3,0.3-0.9,0-1.2C589.9,635.9,589.2,635.2,588.6,634.6z"/>
			<path class="st1" d="M596.4,641.6c0.2,0.2,0.4,0.3,0.6,0.3s0.5-0.1,0.6-0.3c0.5-0.5,1.4-1.4,2.7-2.7c0.4-0.4,0.4-1,0-1.3
				c-0.3-0.3-0.9-0.3-1.2,0l-1.1,1.1v-3.5c0-0.5-0.4-0.9-0.9-0.9H597c-0.5,0-0.9,0.4-0.9,0.9v3.5l-1.1-1.1c-0.3-0.3-0.9-0.3-1.2,0
				l0,0c-0.3,0.3-0.3,0.9,0,1.2C595.1,640.3,595.8,641,596.4,641.6z"/>
		</g>
		<g>
			<g>
				<path class="st1" d="M595.8,648.6c0.5,0,1-0.4,1-1c0-0.5-0.4-1-1-1c-0.5,0-1,0.4-1,1C594.9,648.1,595.3,648.6,595.8,648.6z"/>
				<path class="st1" d="M597.1,648.7h-2.4c-0.6,0-1,0.5-1,1v3c0,0.2,0.2,0.4,0.4,0.4s0.4-0.2,0.4-0.4v-2.6h0.2v3v4.1
					c0,0.3,0.2,0.6,0.6,0.6c0.3,0,0.6-0.2,0.6-0.6v-4.1h0.2v4.1c0,0.3,0.2,0.6,0.6,0.6c0.3,0,0.6-0.2,0.6-0.6v-4.1v-3h0.2v2.6
					c0,0.2,0.2,0.4,0.4,0.4s0.4-0.2,0.4-0.4v-3C598.1,649.2,597.6,648.7,597.1,648.7z"/>
			</g>
			<path class="st1" d="M589.6,648.6c0.5,0,1-0.4,1-1c0-0.5-0.4-1-1-1c-0.5,0-1,0.4-1,1C588.6,648.1,589,648.6,589.6,648.6z"/>
			<path class="st1" d="M592.2,652.3l-0.8-2.8c-0.2-0.5-0.6-0.7-1.2-0.7l0,0h-1.3l0,0c-0.6,0-1,0.2-1.2,0.7l-0.8,2.8
				c-0.1,0.2,0.1,0.4,0.3,0.4c0.2,0.1,0.4,0,0.5-0.2l0.7-2.5h0.2l-1.2,4.3h1.2v3c0,0.3,0.2,0.5,0.5,0.5s0.5-0.2,0.5-0.5v-3h0.2v3
				c0,0.3,0.2,0.5,0.5,0.5s0.5-0.2,0.5-0.5v-3h1.2l-1.2-4.3h0.2l0.7,2.5c0.1,0.2,0.3,0.3,0.5,0.2
				C592.1,652.6,592.2,652.4,592.2,652.3z"/>
		</g>
		<g>
			<path class="st1" d="M598.7,661.2h-12.4c-2.5,0-4.6-2.6-4.6-5.7V649c0-3.2,2.1-5.7,4.6-5.7h12.3c2.5,0,4.6,2.6,4.6,5.7v6.5
				C603.2,658.6,601.2,661.2,598.7,661.2z M586.3,645.3c-1.6,0-2.9,1.6-2.9,3.6v6.5c0,2,1.3,3.6,2.9,3.6h12.3c1.6,0,2.9-1.6,2.9-3.6
				v-6.5c0-2-1.3-3.6-2.9-3.6H586.3z"/>
		</g>
	</g>
</g>
<g id="stairs_00000032626799022009418030000006004862700355200132_">
	<g>
		<path class="st1" d="M616,688.7c1.1,0,2.1-0.9,2.1-2.1c0-1.1-0.9-2.1-2.1-2.1c-1.1,0-2.1,0.9-2.1,2.1
			C614,687.8,614.9,688.7,616,688.7z"/>
		<path class="st1" d="M612.2,695.3c0.7,0,1.2-0.4,1.2-1.1v-1.3l0.7-0.4v3.3v0.7l-2,7.7c-0.2,0.6,0.2,1.2,0.8,1.3
			c0.7,0.2,1.3-0.1,1.6-0.8l1.8-7.1h1.8v2.3c0,0.7,0.6,1.1,1.2,1.1c0.7,0,1.2-0.4,1.2-1.1v-3.4c0-0.7-0.6-1.1-1.2-1.1l0,0l0,0h-2.7
			v-2.1l0.7,0.7c0.2,0.2,0.6,0.4,1,0.4l0,0h2.2c0.7,0,1.2-0.4,1.2-1.1s-0.6-1.1-1.2-1.1h-1.8l-2.2-2.4l-0.1-0.1
			c-0.1-0.1-0.2-0.3-0.4-0.4l0,0h-0.1l0,0h-0.1l0,0c0,0,0,0-0.1,0l0,0c0,0,0,0-0.1,0l0,0c0,0,0,0-0.1,0l0,0l0,0l0,0c0,0,0,0-0.1,0
			c0,0,0,0-0.1,0l0,0c0,0,0,0-0.1,0l0,0c0,0,0,0-0.1,0l0,0c0,0,0,0-0.1,0l0,0c0,0,0,0-0.1,0l0,0c0,0,0,0-0.1,0l0,0l-3.1,2.2
			c-0.3,0.2-0.4,0.6-0.4,0.9l0,0v1.9C611,694.8,611.4,695.3,612.2,695.3z"/>
		<path class="st1" d="M635,691.5h-5.7c-0.2,0-0.3,0.2-0.4,0.4v5.2h-5.2c-0.2,0-0.3,0.2-0.4,0.4v5.6h-5.4c-0.2,0-0.3,0.2-0.4,0.4
			v5.1h-5.2c-0.2,0-0.3,0.2-0.4,0.4v4.9c0,0.2,0.2,0.3,0.4,0.4h22.8c0.2,0,0.3-0.2,0.4-0.4l-0.1-22
			C635.3,691.7,635.2,691.6,635,691.5z"/>
	</g>
</g>
<g id="floor_outline">
	<g>
		<line class="st16" x1="823.2" y1="260.8" x2="667.3" y2="585"/>
		<line class="st16" x1="181.7" y1="412.6" x2="3.4" y2="783.3"/>
		<line class="st16" x1="259.5" y1="907.5" x2="3" y2="784.1"/>
		<line class="st16" x1="261.3" y1="945.9" x2="427.9" y2="1026"/>
		<line class="st16" x1="260.9" y1="257.1" x2="260.9" y2="411.6"/>
		<line class="st16" x1="181.7" y1="412.6" x2="260.2" y2="412.8"/>
		<line class="st16" x1="667.9" y1="1026" x2="666.6" y2="678.2"/>
		<line class="st16" x1="427.9" y1="1026" x2="667.8" y2="1026"/>
		<line class="st16" x1="261.3" y1="945.9" x2="260" y2="907.7"/>
		<line class="st16" x1="295.8" y1="161.6" x2="261.1" y2="255.9"/>
		<line class="st16" x1="335.7" y1="162" x2="295.8" y2="161.6"/>
		<line class="st16" x1="335.7" y1="79" x2="336.1" y2="160.4"/>
		<line class="st16" x1="372.7" y1="79" x2="335.8" y2="78.6"/>
		<line class="st16" x1="372.7" y1="3" x2="372.8" y2="78.2"/>
		<line class="st16" x1="501.7" y1="3" x2="373.7" y2="3"/>
		<line class="st16" x1="502.9" y1="42.2" x2="501.7" y2="3"/>
		<line class="st16" x1="581.2" y1="40.5" x2="502.9" y2="42.2"/>
		<line class="st16" x1="583.5" y1="76.7" x2="581.2" y2="40.5"/>
		<line class="st16" x1="659.3" y1="78" x2="583.5" y2="76.7"/>
		<line class="st16" x1="661.4" y1="114.5" x2="659.3" y2="78"/>
		<line class="st16" x1="740.8" y1="114.9" x2="661.4" y2="114.5"/>
		<line class="st16" x1="823.7" y1="259.9" x2="744.6" y2="221.9"/>
		<line class="st16" x1="740.8" y1="114.9" x2="742.1" y2="220.5"/>
		<line class="st16" x1="606.6" y1="585.1" x2="666.4" y2="585.1"/>
		<line class="st16" x1="606.5" y1="677.5" x2="606.6" y2="585.4"/>
		<line class="st16" x1="606.5" y1="678.2" x2="666.6" y2="678.2"/>
	</g>
</g>
<rect x="679.9" y="377.7" class="st17" width="36.3" height="42.6"/>
<rect x="679.9" y="335.6" class="st17" width="36.3" height="42.6"/>
<text transform="matrix(1 0 0 1 686.0565 362.6948)" class="st4 st9 st10">L04</text>
<text transform="matrix(1 0 0 1 686.057 402.7119)" class="st4 st9 st10">L02</text>
<g id="Emergency_exits_00000010996384918899809540000007483332637389744563_">
	<g>
		<ellipse class="st18" cx="278.8" cy="322.6" rx="15" ry="14.9"/>
		<g>
			<g>
				<path class="st4" d="M270.2,313.4l5.2-1.8c0.3-0.1,0.6,0.1,0.6,0.5v1.4h5.1c0.2,0,0.4,0.2,0.4,0.4v1.6c-0.3,0-0.6,0.1-0.8,0.2
					v-1.4h-4.6v15.8h3.1v0.2c0,0.2-0.1,0.4,0,0.6h-3v1.4c0,0.3-0.3,0.6-0.6,0.5l-5.2-1.8c-0.2-0.1-0.3-0.2-0.3-0.5v-16.7
					C269.9,313.7,270.1,313.5,270.2,313.4z"/>
				<g>
					<g>
						<path class="st4" d="M289.2,329.5h-3.3c-0.4,0-0.8-0.3-1-0.7l-0.4-1.3l1.6-1.3l0,0l0.4,1.4h2.6c0.5,0,1,0.4,1,1
							C290.2,329,289.8,329.5,289.2,329.5z"/>
						<path class="st4" d="M281.6,319.9c-0.9-0.2-1.5-1.1-1.3-2.1c0.2-0.9,1.1-1.5,2.1-1.3s1.5,1.1,1.3,2.1
							C283.4,319.5,282.5,320.1,281.6,319.9z"/>
						<path class="st4" d="M287.9,324.1c-0.4,0.2-0.9,0-1.1-0.4l-0.7-1.5l-0.9-0.3l0.8,2.9c0.1,0.4,0,0.8-0.3,1l-2.8,2.3l-0.8,3
							c-0.1,0.5-0.5,0.7-1,0.7c-0.1,0-0.2,0-0.2,0c-0.5-0.1-0.9-0.7-0.7-1.2l0.8-3.3c0-0.2,0.2-0.4,0.3-0.5l1.8-1.4l-0.9-2.5
							l-0.9,1.1c-0.2,0.2-0.4,0.3-0.6,0.3c-0.1,0-0.3,0-0.4-0.1l-1.7-1c-0.4-0.2-0.5-0.7-0.3-1.1s0.8-0.5,1.1-0.3l1.1,0.6l0.9-1
							c0.2-0.3,0.5-0.5,0.9-0.6l1.5-0.5c0.4-0.2,0.9-0.2,1.4,0l1.9,0.6c0.2,0.1,0.4,0.2,0.5,0.5l0.8,1.8
							C288.5,323.4,288.3,323.9,287.9,324.1z"/>
					</g>
				</g>
			</g>
		</g>
	</g>
	<g>
		<circle class="st18" cx="648.8" cy="721.9" r="15"/>
		<g>
			<g>
				<path class="st4" d="M657.3,712.7l-5.2-1.8c-0.3-0.1-0.6,0.1-0.6,0.5v1.4h-5.1c-0.2,0-0.4,0.2-0.4,0.4v1.6
					c0.3,0,0.6,0.1,0.8,0.2v-1.4h4.6v15.9h-3.1v0.2c0,0.2,0.1,0.4,0,0.6h3v1.4c0,0.3,0.3,0.6,0.6,0.5l5.2-1.8
					c0.2-0.1,0.3-0.2,0.3-0.5v-16.8C657.6,713,657.5,712.8,657.3,712.7z"/>
				<g>
					<g>
						<path class="st4" d="M638.3,728.8h3.3c0.4,0,0.8-0.3,1-0.7l0.4-1.3l-1.6-1.3l0,0l-0.4,1.4h-2.6c-0.5,0-1,0.4-1,1
							C637.3,728.4,637.8,728.8,638.3,728.8z"/>
						<path class="st4" d="M646,719.2c0.9-0.2,1.5-1.1,1.3-2.1c-0.2-0.9-1.1-1.5-2.1-1.3c-0.9,0.2-1.5,1.1-1.3,2.1
							S645.1,719.4,646,719.2z"/>
						<path class="st4" d="M639.6,723.4c0.4,0.2,0.9,0,1.1-0.4l0.7-1.5l0.9-0.3l-0.8,2.9c-0.1,0.4,0,0.8,0.3,1l2.8,2.3l0.8,3
							c0.1,0.5,0.5,0.8,1,0.8c0.1,0,0.2,0,0.2,0c0.5-0.1,0.9-0.7,0.7-1.2l-0.8-3.4c0-0.2-0.2-0.4-0.3-0.5l-1.8-1.4l0.9-2.5l0.9,1.1
							c0.2,0.2,0.4,0.3,0.6,0.3c0.1,0,0.3,0,0.4-0.1l1.7-1c0.4-0.2,0.5-0.8,0.3-1.1c-0.2-0.4-0.8-0.5-1.1-0.3l-1.1,0.6l-0.9-1
							c-0.2-0.3-0.5-0.5-0.9-0.6l-1.5-0.5c-0.4-0.2-0.9-0.2-1.4,0l-1.9,0.6c-0.2,0.1-0.4,0.2-0.5,0.5l-0.8,1.8
							C639,722.8,639.2,723.2,639.6,723.4z"/>
					</g>
				</g>
			</g>
		</g>
	</g>
	<g>
		<circle class="st18" cx="730.3" cy="413" r="15"/>
		<g>
			<g>
				<path class="st4" d="M738.8,403.8l-5.2-1.8c-0.3-0.1-0.6,0.1-0.6,0.5v1.4h-5.1c-0.2,0-0.4,0.2-0.4,0.4v1.6
					c0.3,0,0.6,0.1,0.8,0.2v-1.4h4.6v15.9h-3.1v0.2c0,0.2,0.1,0.4,0,0.6h3v1.4c0,0.3,0.3,0.6,0.6,0.5l5.2-1.8
					c0.2-0.1,0.3-0.2,0.3-0.5v-16.8C739.1,404.1,739,403.9,738.8,403.8z"/>
				<g>
					<g>
						<path class="st4" d="M719.8,419.9h3.3c0.4,0,0.8-0.3,1-0.7l0.4-1.3l-1.6-1.3l0,0l-0.4,1.4h-2.6c-0.5,0-1,0.4-1,1
							C718.8,419.5,719.3,419.9,719.8,419.9z"/>
						<path class="st4" d="M727.5,410.3c0.9-0.2,1.5-1.1,1.3-2.1c-0.2-0.9-1.1-1.5-2.1-1.3c-0.9,0.2-1.5,1.1-1.3,2.1
							S726.6,410.5,727.5,410.3z"/>
						<path class="st4" d="M721.1,414.5c0.4,0.2,0.9,0,1.1-0.4l0.7-1.5l0.9-0.3l-0.8,2.9c-0.1,0.4,0,0.8,0.3,1l2.8,2.3l0.8,3
							c0.1,0.5,0.5,0.8,1,0.8c0.1,0,0.2,0,0.2,0c0.5-0.1,0.9-0.7,0.7-1.2l-0.8-3.4c0-0.2-0.2-0.4-0.3-0.5l-1.8-1.4l0.9-2.5l0.9,1.1
							c0.2,0.2,0.4,0.3,0.6,0.3c0.1,0,0.3,0,0.4-0.1l1.7-1c0.4-0.2,0.5-0.8,0.3-1.1c-0.2-0.4-0.8-0.5-1.1-0.3l-1.1,0.6l-0.9-1
							c-0.2-0.3-0.5-0.5-0.9-0.6l-1.5-0.5c-0.4-0.2-0.9-0.2-1.4,0l-1.9,0.6c-0.2,0.1-0.4,0.2-0.5,0.5l-0.8,1.8
							C720.5,413.9,720.7,414.3,721.1,414.5z"/>
					</g>
				</g>
			</g>
		</g>
	</g>
</g>
<g id="call_numbers">
	<text transform="matrix(1 0 0 1 523.4711 82.3898)" class="st19 st9 st12">RA</text>
	<text transform="matrix(1 0 0 1 529.6959 487.1449)" class="st19 st9 st12">Z</text>
	<text transform="matrix(1 0 0 1 317.5975 303.7997)" class="st19 st9 st12">HE</text>
	<text transform="matrix(1 0 0 1 317.9806 201.2314)" class="st19 st9 st12">ML</text>
	<text transform="matrix(1 0 0 1 382.3443 303.8001)" class="st19 st9 st12">ML</text>
	<text transform="matrix(1 0 0 1 385.8415 487.1451)" class="st19 st9 st12">A</text>
	<text transform="matrix(1 0 0 1 385.4582 357.0995)" class="st19 st9 st12">HE</text>
	<text transform="matrix(1 0 0 1 391.328 36.9822)" class="st19 st9 st12">R</text>
	<g>
		<path class="st19" d="M534.6,412.8l5.6-11c0.4-0.8-0.5-1.6-1.3-1l-2.3,1.7v-16.8c0-0.4-0.3-0.9-0.9-0.9h-4c-0.4,0-0.9,0.3-0.9,0.9
			v16.8l-2.3-1.7c-0.7-0.5-1.6,0.3-1.3,1l5.6,11C533.3,413.4,534.2,413.4,534.6,412.8z"/>
		<path class="st19" d="M534.8,199.7l5.6-11c0.4-0.8-0.5-1.6-1.3-1l-2.3,1.7v-16.8c0-0.4-0.3-0.9-0.9-0.9h-4c-0.4,0-0.9,0.3-0.9,0.9
			v16.8l-2.3-1.7c-0.7-0.5-1.6,0.3-1.3,1l5.6,11C533.5,200.3,534.4,200.3,534.8,199.7z"/>
		<path class="st19" d="M394.6,153.9l-5.6,11c-0.4,0.8,0.5,1.6,1.3,1l2.3-1.7V181c0,0.4,0.3,0.9,0.9,0.9h4c0.4,0,0.9-0.3,0.9-0.9
			v-16.8l2.3,1.7c0.7,0.5,1.6-0.3,1.3-1l-5.6-11C395.8,153.3,394.9,153.3,394.6,153.9z"/>
		<path class="st19" d="M390.4,406.1l-5.6,11c-0.4,0.8,0.5,1.6,1.3,1l2.3-1.7v16.8c0,0.4,0.3,0.9,0.9,0.9h4c0.4,0,0.9-0.3,0.9-0.9
			v-16.7l2.3,1.7c0.7,0.5,1.6-0.3,1.3-1l-5.6-11C391.6,405.5,390.7,405.5,390.4,406.1z"/>
		<path class="st20" d="M319.9,234.9l-5.7,11.1c-0.4,0.8,0.5,1.6,1.3,1l2.3-1.7v16.8c0,0.4,0.3,0.9,0.9,0.9h4c0.4,0,0.9-0.3,0.9-0.9
			v-16.8l2.3,1.7c0.7,0.5,1.6-0.3,1.3-1l-5.6-11C321.1,234.3,320.2,234.3,319.9,234.9z"/>
	</g>
</g>
<rect x="581.7" y="434.1" class="st8" width="42" height="67"/>
<text transform="matrix(-1.836970e-16 -1 1 -1.836970e-16 607.8215 498.1437)" class="st9 st13">Reference</text>
<rect x="629.9" y="434.1" class="st8" width="38.5" height="67"/>
<text transform="matrix(6.123234e-17 -1 1 6.123234e-17 654.0864 491.8049)" class="st9 st12">Census</text>
</svg>
