<?xml version="1.0" encoding="utf-8"?>
<!-- Generator: Adobe Illustrator 28.2.0, SVG Export Plug-In . SVG Version: 6.00 Build 0)  -->
<svg version="1.1" xmlns="http://www.w3.org/2000/svg" xmlns:xlink="http://www.w3.org/1999/xlink" x="0px" y="0px"
	 viewBox="0 0 684.2 906.7" style="enable-background:new 0 0 684.2 906.7;" xml:space="preserve">
<style type="text/css">
	.st0{fill:none;}
	.st1{fill:#231F20;}
	.st2{opacity:0.4;}
	
		.st3{opacity:0.45;fill:url(#SVGID_00000000207285777679231070000002835989799110940577_);stroke:#424343;stroke-miterlimit:10;enable-background:new    ;}
	
		.st4{opacity:0.45;fill:url(#SVGID_00000071554965199589222890000013770534692022282380_);stroke:#424343;stroke-miterlimit:10;enable-background:new    ;}
	.st5{opacity:0.89;fill:none;stroke:#010101;stroke-width:3;stroke-miterlimit:10;enable-background:new    ;}
	.st6{fill:#71A58E;stroke:#231F20;stroke-width:3;stroke-linecap:round;stroke-linejoin:round;}
	.st7{fill:#3F417F;stroke:#010101;stroke-width:3;stroke-miterlimit:10;}
	.st8{fill:#71A58E;stroke:#010101;stroke-width:3;stroke-miterlimit:10;}
	.st9{fill:#71A58E;stroke:#231F20;stroke-width:3;stroke-miterlimit:10;}
	.st10{fill:#0073A0;}
	.st11{fill:#FFFFFF;}
	.st12{opacity:0.4;fill:#1A4363;enable-background:new    ;}
	.st13{fill:#231F20;stroke:#FFFFFF;stroke-width:0.25;stroke-miterlimit:10;}
	.st14{display:none;}
	.st15{display:inline;fill:#231F20;stroke:#FFFFFF;stroke-width:0.25;stroke-miterlimit:10;}
	.st16{display:none;opacity:0.25;fill:#1A4363;enable-background:new    ;}
	.st17{fill:none;stroke:#010101;stroke-width:4;stroke-miterlimit:10;}
	.st18{display:none;fill:#FFFFFF;stroke:#000000;stroke-miterlimit:10;}
	.st19{display:inline;fill:#231F20;}
	.st20{display:none;opacity:0.8;}
	.st21{display:inline;}
	.st22{fill:none;stroke:#000000;stroke-miterlimit:10;}
	.st23{stroke:#000000;stroke-miterlimit:10;}
	.st24{opacity:0.68;fill:#A1BB7E;enable-background:new    ;}
	.st25{enable-background:new    ;}
	.st26{font-family:'ArialMT';}
	.st27{font-size:22px;}
	.st28{font-size:20px;}
	.st29{font-size:18px;}
	.st30{font-size:15px;}
	.st31{fill:none;stroke:#231F20;stroke-width:6;stroke-linecap:round;stroke-linejoin:round;}
	.st32{fill:#FFFFFF;stroke:#231F20;stroke-width:6;stroke-linecap:round;stroke-linejoin:round;}
	.st33{fill:none;stroke:#FFFFFF;stroke-width:8;stroke-miterlimit:10;}
	.st34{fill:none;stroke:#FFFFFF;stroke-width:7;stroke-miterlimit:10;}
	.st35{display:none;enable-background:new    ;}
	.st36{fill:#5197BC;}
	.st37{font-family:'Arial-BoldMT';}
	.st38{font-size:33.4935px;}
	.st39{fill:#C40000;stroke:#FFFFFF;stroke-width:3;stroke-miterlimit:10;}
	.st40{fill:#C40000;}
	.st41{display:inline;fill:#5197BC;}
	.st42{font-family:'Arial-ItalicMT';}
	.st43{font-size:14.003px;}
	.st44{display:inline;fill:none;stroke:#5197BC;stroke-miterlimit:10;}
	.st45{font-size:14px;}
	.st46{fill:#010101;}
	.st47{display:none;fill-rule:evenodd;clip-rule:evenodd;fill:#141515;}
	.st48{fill-rule:evenodd;clip-rule:evenodd;fill:#141515;}
</style>
<pattern  y="906.7" width="28.8" height="28.8" patternUnits="userSpaceOnUse" id="SVGID_0000010467249311285030916" viewBox="1.4 -30.2 28.8 28.8" style="overflow:visible;">
	<g>
		<rect x="1.4" y="-30.2" class="st0" width="28.8" height="28.8"/>
		<g>
			<rect x="1.4" y="-30.2" class="st0" width="28.8" height="28.8"/>
			<g>
				<rect x="1.4" y="-30.2" class="st0" width="28.8" height="28.8"/>
				<g>
					<rect x="1.4" y="-30.2" class="st0" width="28.8" height="28.8"/>
					<g>
						<rect x="1.4" y="-30.2" class="st0" width="28.8" height="28.8"/>
						<g>
							<rect x="1.4" y="-30.2" class="st0" width="28.8" height="28.8"/>
							<g>
								<rect x="1.4" y="-30.2" class="st0" width="28.8" height="28.8"/>
								<g>
									<rect x="1.4" y="-30.2" class="st0" width="28.8" height="28.8"/>
									<g>
										<rect x="1.4" y="-30.2" class="st0" width="28.8" height="28.8"/>
										<g>
											<rect x="1.4" y="-30.2" class="st0" width="28.8" height="28.8"/>
											<g>
												<rect x="1.4" y="-30.2" class="st0" width="28.8" height="28.8"/>
												<g>
													<rect x="1.4" y="-30.2" class="st0" width="28.8" height="28.8"/>
													<g>
														<rect x="1.4" y="-30.2" class="st0" width="28.8" height="28.8"/>
														<g>
															<rect x="1.4" y="-30.2" class="st0" width="28.8" height="28.8"/>
															<g>
																<path class="st1" d="M30.2-31.6c0.8,0,1.4,0.6,1.4,1.4c0,0.8-0.6,1.4-1.4,1.4s-1.4-0.6-1.4-1.4
																	C28.8-31,29.4-31.6,30.2-31.6z"/>
																<path class="st1" d="M15.8-31.6c0.8,0,1.4,0.6,1.4,1.4c0,0.8-0.6,1.4-1.4,1.4c-0.8,0-1.4-0.6-1.4-1.4
																	C14.4-31,15-31.6,15.8-31.6z"/>
																<path class="st1" d="M30.2-17.2c0.8,0,1.4,0.6,1.4,1.4s-0.6,1.4-1.4,1.4s-1.4-0.6-1.4-1.4
																	C28.8-16.6,29.4-17.2,30.2-17.2z"/>
																<path class="st1" d="M15.8-17.2c0.8,0,1.4,0.6,1.4,1.4s-0.6,1.4-1.4,1.4c-0.8,0-1.4-0.6-1.4-1.4
																	C14.4-16.6,15-17.2,15.8-17.2z"/>
																<path class="st1" d="M8.6-24.4c0.8,0,1.4,0.6,1.4,1.4c0,0.8-0.6,1.4-1.4,1.4c-0.8,0-1.4-0.6-1.4-1.4
																	C7.2-23.8,7.8-24.4,8.6-24.4z"/>
																<path class="st1" d="M23-24.4c0.8,0,1.4,0.6,1.4,1.4c0,0.8-0.6,1.4-1.4,1.4s-1.4-0.6-1.4-1.4S22.2-24.4,23-24.4z"/>
																<path class="st1" d="M8.6-10C9.4-10,10-9.4,10-8.6S9.4-7.2,8.6-7.2c-0.8,0-1.4-0.6-1.4-1.4C7.2-9.4,7.8-10,8.6-10z"
																	/>
																<path class="st1" d="M23-10c0.8,0,1.4,0.6,1.4,1.4S23.8-7.2,23-7.2s-1.4-0.6-1.4-1.4S22.2-10,23-10z"/>
															</g>
															<g>
																<path class="st1" d="M1.4-31.6c0.8,0,1.4,0.6,1.4,1.4c0,0.8-0.6,1.4-1.4,1.4C0.6-28.7,0-29.4,0-30.2
																	C0-31,0.6-31.6,1.4-31.6z"/>
																<path class="st1" d="M1.4-17.2c0.8,0,1.4,0.6,1.4,1.4s-0.6,1.4-1.4,1.4S0-15,0-15.8S0.6-17.2,1.4-17.2z"/>
															</g>
															<g>
																<path class="st1" d="M30.2-2.8c0.8,0,1.4,0.6,1.4,1.4S31,0,30.2,0s-1.4-0.6-1.4-1.4C28.8-2.2,29.4-2.8,30.2-2.8z"/>
																<path class="st1" d="M15.8-2.8c0.8,0,1.4,0.6,1.4,1.4S16.6,0,15.8,0s-1.4-0.6-1.4-1.4C14.4-2.2,15-2.8,15.8-2.8z"/>
															</g>
															<g>
																<path class="st1" d="M1.4-2.8c0.8,0,1.4,0.6,1.4,1.4S2.2,0,1.4,0C0.6,0.1,0-0.6,0-1.4C0-2.2,0.6-2.8,1.4-2.8z"/>
															</g>
														</g>
													</g>
												</g>
											</g>
										</g>
									</g>
								</g>
							</g>
						</g>
					</g>
				</g>
			</g>
		</g>
	</g>
</pattern>
<pattern  y="906.7" width="28.8" height="28.8" patternUnits="userSpaceOnUse" id="SVGID_1_" viewBox="1.4 -30.2 28.8 28.8" style="overflow:visible;">
	<g>
		<rect x="1.4" y="-30.2" class="st0" width="28.8" height="28.8"/>
		<g>
			<rect x="1.4" y="-30.2" class="st0" width="28.8" height="28.8"/>
			<g>
				<rect x="1.4" y="-30.2" class="st0" width="28.8" height="28.8"/>
				<g>
					<rect x="1.4" y="-30.2" class="st0" width="28.8" height="28.8"/>
					<g>
						<rect x="1.4" y="-30.2" class="st0" width="28.8" height="28.8"/>
						<g>
							<rect x="1.4" y="-30.2" class="st0" width="28.8" height="28.8"/>
							<g>
								<rect x="1.4" y="-30.2" class="st0" width="28.8" height="28.8"/>
								<g>
									<rect x="1.4" y="-30.2" class="st0" width="28.8" height="28.8"/>
									<g>
										<rect x="1.4" y="-30.2" class="st0" width="28.8" height="28.8"/>
										<g>
											<rect x="1.4" y="-30.2" class="st0" width="28.8" height="28.8"/>
											<g>
												<rect x="1.4" y="-30.2" class="st0" width="28.8" height="28.8"/>
												<g>
													<rect x="1.4" y="-30.2" class="st0" width="28.8" height="28.8"/>
													<g>
														<rect x="1.4" y="-30.2" class="st0" width="28.8" height="28.8"/>
														<g>
															<rect x="1.4" y="-30.2" class="st0" width="28.8" height="28.8"/>
															<g>
																<path class="st1" d="M30.2-31.6c0.8,0,1.4,0.6,1.4,1.4c0,0.8-0.6,1.4-1.4,1.4s-1.4-0.6-1.4-1.4
																	C28.8-31,29.4-31.6,30.2-31.6z"/>
																<path class="st1" d="M15.8-31.6c0.8,0,1.4,0.6,1.4,1.4c0,0.8-0.6,1.4-1.4,1.4c-0.8,0-1.4-0.6-1.4-1.4
																	C14.4-31,15-31.6,15.8-31.6z"/>
																<path class="st1" d="M30.2-17.2c0.8,0,1.4,0.6,1.4,1.4s-0.6,1.4-1.4,1.4s-1.4-0.6-1.4-1.4
																	C28.8-16.6,29.4-17.2,30.2-17.2z"/>
																<path class="st1" d="M15.8-17.2c0.8,0,1.4,0.6,1.4,1.4s-0.6,1.4-1.4,1.4c-0.8,0-1.4-0.6-1.4-1.4
																	C14.4-16.6,15-17.2,15.8-17.2z"/>
																<path class="st1" d="M8.6-24.4c0.8,0,1.4,0.6,1.4,1.4c0,0.8-0.6,1.4-1.4,1.4c-0.8,0-1.4-0.6-1.4-1.4
																	C7.2-23.8,7.8-24.4,8.6-24.4z"/>
																<path class="st1" d="M23-24.4c0.8,0,1.4,0.6,1.4,1.4c0,0.8-0.6,1.4-1.4,1.4s-1.4-0.6-1.4-1.4S22.2-24.4,23-24.4z"/>
																<path class="st1" d="M8.6-10C9.4-10,10-9.4,10-8.6S9.4-7.2,8.6-7.2c-0.8,0-1.4-0.6-1.4-1.4C7.2-9.4,7.8-10,8.6-10z"
																	/>
																<path class="st1" d="M23-10c0.8,0,1.4,0.6,1.4,1.4S23.8-7.2,23-7.2s-1.4-0.6-1.4-1.4S22.2-10,23-10z"/>
															</g>
															<g>
																<path class="st1" d="M1.4-31.6c0.8,0,1.4,0.6,1.4,1.4c0,0.8-0.6,1.4-1.4,1.4C0.6-28.7,0-29.4,0-30.2
																	C0-31,0.6-31.6,1.4-31.6z"/>
																<path class="st1" d="M1.4-17.2c0.8,0,1.4,0.6,1.4,1.4s-0.6,1.4-1.4,1.4S0-15,0-15.8S0.6-17.2,1.4-17.2z"/>
															</g>
															<g>
																<path class="st1" d="M30.2-2.8c0.8,0,1.4,0.6,1.4,1.4S31,0,30.2,0s-1.4-0.6-1.4-1.4C28.8-2.2,29.4-2.8,30.2-2.8z"/>
																<path class="st1" d="M15.8-2.8c0.8,0,1.4,0.6,1.4,1.4S16.6,0,15.8,0s-1.4-0.6-1.4-1.4C14.4-2.2,15-2.8,15.8-2.8z"/>
															</g>
															<g>
																<path class="st1" d="M1.4-2.8c0.8,0,1.4,0.6,1.4,1.4S2.2,0,1.4,0C0.6,0.1,0-0.6,0-1.4C0-2.2,0.6-2.8,1.4-2.8z"/>
															</g>
														</g>
													</g>
												</g>
											</g>
										</g>
									</g>
								</g>
							</g>
						</g>
					</g>
				</g>
			</g>
		</g>
	</g>
</pattern>
<g id="_x2014_ÎÓÈ_x5F_1">
</g>
<g id="Layer_1">
	<g id="Spaces" class="st2">
		<g id="employee_areas">
			
				<pattern  id="SVGID_00000008850025589715797370000015360829445355096972_" xlink:href="#SVGID_1_" patternTransform="matrix(1 0 0 -1 -336.6 -156014.2656)">
			</pattern>
			
				<polyline style="opacity:0.45;fill:url(#SVGID_00000008850025589715797370000015360829445355096972_);stroke:#424343;stroke-miterlimit:10;enable-background:new    ;" points="
				35.7,536.1 3.1,604 118.2,658.5 119.1,823.1 194.1,859.4 195.8,733.7 286,733.4 285.3,618 278.8,618.2 221.6,617.7 221.8,443.5 
				167.9,443.7 167.6,538.1 35.7,536.1 			"/>
			
				<pattern  id="SVGID_00000081615297322965904790000002940114495377958299_" xlink:href="#SVGID_0000010467249311285030916" patternTransform="matrix(1 0 0 -1 -51.4 -121554.8359)">
			</pattern>
			
				<polyline style="opacity:0.45;fill:url(#SVGID_00000081615297322965904790000002940114495377958299_);stroke:#424343;stroke-miterlimit:10;enable-background:new    ;" points="
				409.3,663.5 442.7,663.6 442.9,690.3 523.2,690.2 523.4,616.7 408.4,617 			"/>
		</g>
		<line class="st5" x1="263.4" y1="203.9" x2="263.4" y2="283"/>
		<path id="cafe_00000052796716991338462910000004400667937314557858_" class="st6" d="M263.5,205H119.1v-70.6h144.4V205z"/>
		<path id="_x31_25" class="st7" d="M285.9,733.6l-92.3,0.1l-0.1,125.7l91.6,43.2L285.9,733.6z"/>
		<polyline id="PAR" class="st8" points="166.9,539.1 166.9,443.4 166.9,445 79.6,444.9 36.2,536.1 166.1,537.1 		"/>
		<path id="DHC" class="st9" d="M523.2,690l-80.3,0.3l-0.2-26.9l-34.7,0.1l0.5-46.5l-43.8,0.1l0.1,160.9L524,721.4L523.2,690z"/>
		<path id="children_x27_s_room" class="st9" d="M438.8,463.3l85.6,0.4L680.8,138l-93.9-1.6l-13-16l-213.2,15.3l0.8,226.9
			 M361.3,361.3l78.9,102.8"/>
	</g>
	<g id="restroom">
		<rect x="122.5" y="206.9" class="st10" width="73.1" height="75.5"/>
		<path class="st11" d="M168.5,232.6c1.2,0,2.1-0.9,2.1-2.1c0-1.2-0.9-2.1-2.1-2.1s-2.1,0.9-2.1,2.1
			C166.3,231.7,167.3,232.6,168.5,232.6z"/>
		<path class="st11" d="M174.3,241l-1.8-6.3c-0.4-1.2-1.3-1.6-2.6-1.6l0,0H167l0,0c-1.3,0-2.1,0.4-2.6,1.6l-1.8,6.3
			c-0.1,0.4,0.1,0.8,0.7,0.9c0.4,0.1,0.9-0.1,1-0.5l1.6-5.5h0.4l-2.7,9.6h2.6v6.8c0,0.5,0.5,1,1,1s1-0.5,1-1v-6.8h0.5v6.8
			c0,0.5,0.5,1,1,1s1-0.5,1-1v-6.8h2.6l-2.7-9.6h0.4l1.6,5.5c0.1,0.4,0.5,0.7,1,0.5C174.1,241.8,174.4,241.4,174.3,241z"/>
		<path class="st11" d="M147.3,232.6c1.2,0,2.1-0.9,2.1-2.1c0-1.2-0.9-2.1-2.1-2.1c-1.2,0-2.1,0.9-2.1,2.1
			C145,231.7,146.1,232.6,147.3,232.6z"/>
		<path class="st11" d="M150,233.1h-5.5c-1.3,0-2.4,1-2.4,2.4v6.7c0,0.5,0.4,0.9,0.9,0.9s0.9-0.4,0.9-0.9v-5.9h0.5v6.8v9.2
			c0,0.7,0.5,1.2,1.2,1.2s1.2-0.5,1.2-1.2v-9.2h0.5v9.2c0,0.7,0.5,1.2,1.2,1.2s1.2-0.5,1.2-1.2v-9.2v-6.8h0.5v5.9
			c0,0.5,0.4,0.9,0.9,0.9s0.9-0.4,0.9-0.9v-6.7C152.4,234.2,151.3,233.1,150,233.1z"/>
		<rect x="157.1" y="228.4" class="st11" width="2.4" height="24.9"/>
		<g>
			<circle class="st10" cx="578.3" cy="309.7" r="15"/>
			<g id="Layer_1_00000043417269205140031930000013075138157533666726_">
				<g>
					<g>
						<g>
							<path class="st11" d="M571.4,303.8c0.8,0,1.6-0.7,1.6-1.5s-0.7-1.4-1.6-1.4c-0.8,0-1.5,0.6-1.5,1.4S570.6,303.8,571.4,303.8z
								"/>
							<path class="st11" d="M573.4,304.1h-3.9c-0.9,0-1.7,0.7-1.7,1.7v4.8c0,0.3,0.3,0.6,0.6,0.6s0.6-0.3,0.6-0.6v-4.2h0.3v4.8v6.5
								c0,0.5,0.4,0.8,0.8,0.8c0.5,0,0.8-0.4,0.8-0.8v-6.5h0.4v6.5c0,0.5,0.4,0.8,0.8,0.8c0.5,0,0.8-0.4,0.8-0.8v-6.5v-4.8h0.3v4.1
								c0,0.3,0.3,0.6,0.6,0.6s0.6-0.3,0.6-0.6v-4.8C575,304.8,574.3,304.1,573.4,304.1z"/>
						</g>
						<g>
							<path class="st11" d="M584.5,303.8c0.8,0,1.5-0.7,1.5-1.5s-0.7-1.5-1.5-1.5c-0.8,0.1-1.6,0.7-1.6,1.5
								S583.7,303.8,584.5,303.8z"/>
							<path class="st11" d="M588.7,309.7l-1.2-4.5c-0.3-0.8-0.9-1.1-1.9-1.1l0,0h-2.1l0,0c-0.9,0-1.6,0.3-1.9,1.1l-1.2,4.5
								c-0.1,0.3,0.1,0.6,0.4,0.7s0.6-0.1,0.7-0.3l1.1-3.9h0.3l-2,6.8h1.9v4.9c0,0.4,0.3,0.7,0.7,0.7s0.7-0.3,0.7-0.7V313h0.3v4.9
								c0,0.4,0.3,0.7,0.7,0.7s0.7-0.3,0.7-0.7V313h1.9l-1.9-6.9h0.3l1.1,3.9c0.1,0.3,0.4,0.4,0.7,0.3
								C588.6,310.3,588.8,309.9,588.7,309.7z"/>
						</g>
					</g>
					<rect x="577.4" y="300.8" class="st11" width="1.7" height="17.7"/>
				</g>
			</g>
		</g>
	</g>
	<g id="escalator_00000150794383660195744430000003786862563213663129_">
		<rect x="371.4" y="465" class="st12" width="34" height="107.7"/>
		<g>
			<g>
				<g>
					<path class="st13" d="M385.2,503.8c1.6,0,2.8-1.4,2.8-2.8c0-1.6-1.4-2.8-2.8-2.8c-1.6,0-2.8,1.4-2.8,2.8
						C382.3,502.4,383.7,503.8,385.2,503.8z"/>
					<path class="st13" d="M388.3,507.7c0-1.6-1.4-3-3-3s-3,1.4-3,3v6.8l6-6V507.7L388.3,507.7z"/>
					<path class="st13" d="M398.9,506.8h-5.3c-0.9,0-1.7,0.4-2.4,1.1l-9.3,9.3h-4.1c-1.9,0-3.4,1.6-3.4,3.4c0,1.9,1.6,3.4,3.4,3.4
						h5.6c0.9,0,1.7-0.4,2.4-1.1l9.3-9.3h3.8c1.9,0,3.4-1.6,3.4-3.4C402.2,508.3,400.8,506.8,398.9,506.8z"/>
				</g>
				<g class="st14">
					<path class="st15" d="M398.4,518.8c0.3,0,0.5,0.1,0.4,0.4l-0.9,4.9c0,0.3-0.3,0.4-0.4,0.5c-0.3,0.1-0.4,0.1-0.5,0l-0.5-0.5
						l-3.6,3.6c-0.3,0.3-0.7,0.3-0.8,0.1l-2.5-2.5c-0.1-0.1-0.1-0.5,0.1-0.8l3.6-3.6l-0.5-0.5c-0.1-0.1-0.1-0.4,0-0.5
						c0.1-0.3,0.4-0.4,0.5-0.4L398.4,518.8z"/>
				</g>
			</g>
		</g>
	</g>
	<g id="elevator">
		
			<rect x="441.2" y="469.3" transform="matrix(1.787241e-03 -1 1 1.787241e-03 -28.2595 927.1146)" class="st12" width="18.1" height="16.9"/>
		
			<rect x="440.9" y="494" transform="matrix(1.787241e-03 -1 1 1.787241e-03 -53.2703 951.5584)" class="st12" width="18.1" height="16.9"/>
		
			<rect x="440.9" y="518.8" transform="matrix(1.787241e-03 -1 1 1.787241e-03 -78.1761 976.2761)" class="st16" width="18.1" height="16.9"/>
		
			<rect x="440.9" y="543.4" transform="matrix(1.787241e-03 -1 1 1.787241e-03 -102.72 1000.8024)" class="st12" width="18.1" height="16.9"/>
		
			<rect x="441.1" y="568.1" transform="matrix(1.787241e-03 -1 1 1.787241e-03 -127.1971 1025.7395)" class="st12" width="18.1" height="16.9"/>
		<line class="st17" x1="463.1" y1="465.9" x2="463.1" y2="592.4"/>
		<g>
			<path class="st18" d="M448.9,512.2h-15.1c-4.1,0-7.4,3.3-7.4,7.4v15.1c0,4.1,3.3,7.4,7.4,7.4h15.1c4.1,0,7.4-3.3,7.4-7.4v-15.1
				C456.3,515.5,453,512.2,448.9,512.2z"/>
			<g>
				<path class="st1" d="M446,513.6c-0.2-0.2-0.4-0.3-0.6-0.3s-0.5,0.1-0.6,0.3c-0.5,0.5-1.4,1.4-2.7,2.7c-0.4,0.4-0.4,1,0,1.3
					c0.3,0.3,0.9,0.3,1.2,0l1.1-1.1v3.5c0,0.5,0.4,0.9,0.9,0.9h0.1c0.5,0,0.9-0.4,0.9-0.9v-3.5l1.1,1.1c0.3,0.3,0.9,0.3,1.2,0l0,0
					c0.3-0.3,0.3-0.9,0-1.2C447.3,514.9,446.6,514.2,446,513.6z"/>
				<path class="st1" d="M453.8,520.6c0.2,0.2,0.4,0.3,0.6,0.3s0.5-0.1,0.6-0.3c0.5-0.5,1.4-1.4,2.7-2.7c0.4-0.4,0.4-1,0-1.3
					c-0.3-0.3-0.9-0.3-1.2,0l-1.1,1.1v-3.5c0-0.5-0.4-0.9-0.9-0.9h-0.1c-0.5,0-0.9,0.4-0.9,0.9v3.5l-1.1-1.1c-0.3-0.3-0.9-0.3-1.2,0
					l0,0c-0.3,0.3-0.3,0.9,0,1.2C452.5,519.3,453.2,520,453.8,520.6z"/>
			</g>
			<g>
				<g>
					<path class="st1" d="M453.2,527.6c0.5,0,1-0.4,1-1c0-0.5-0.4-1-1-1c-0.5,0-1,0.4-1,1C452.3,527.1,452.7,527.6,453.2,527.6z"/>
					<path class="st1" d="M454.5,527.7h-2.4c-0.6,0-1,0.5-1,1v3c0,0.2,0.2,0.4,0.4,0.4c0.2,0,0.4-0.2,0.4-0.4v-2.6h0.2v3v4.1
						c0,0.3,0.2,0.6,0.6,0.6c0.3,0,0.6-0.2,0.6-0.6v-4.1h0.2v4.1c0,0.3,0.2,0.6,0.6,0.6c0.3,0,0.6-0.2,0.6-0.6v-4.1v-3h0.2v2.6
						c0,0.2,0.2,0.4,0.4,0.4c0.2,0,0.4-0.2,0.4-0.4v-3C455.5,528.2,455,527.7,454.5,527.7z"/>
				</g>
				<path class="st1" d="M447,527.6c0.5,0,1-0.4,1-1c0-0.5-0.4-1-1-1c-0.5,0-1,0.4-1,1C446,527.1,446.4,527.6,447,527.6z"/>
				<path class="st1" d="M449.6,531.3l-0.8-2.8c-0.2-0.5-0.6-0.7-1.2-0.7l0,0h-1.3l0,0c-0.6,0-1,0.2-1.2,0.7l-0.8,2.8
					c-0.1,0.2,0.1,0.4,0.3,0.4c0.2,0.1,0.4,0,0.5-0.2l0.7-2.5h0.2l-1.2,4.3h1.2v3c0,0.3,0.2,0.5,0.5,0.5s0.5-0.2,0.5-0.5v-3h0.2v3
					c0,0.3,0.2,0.5,0.5,0.5s0.5-0.2,0.5-0.5v-3h1.2l-1.2-4.3h0.2l0.7,2.5c0.1,0.2,0.3,0.3,0.5,0.2
					C449.5,531.6,449.6,531.4,449.6,531.3z"/>
			</g>
			<g>
				<path class="st1" d="M456.1,540.2h-12.4c-2.5,0-4.6-2.6-4.6-5.7V528c0-3.2,2.1-5.7,4.6-5.7H456c2.5,0,4.6,2.6,4.6,5.7v6.5
					C460.6,537.6,458.6,540.2,456.1,540.2z M443.7,524.3c-1.6,0-2.9,1.6-2.9,3.6v6.5c0,2,1.3,3.6,2.9,3.6H456c1.6,0,2.9-1.6,2.9-3.6
					v-6.5c0-2-1.3-3.6-2.9-3.6H443.7z"/>
			</g>
		</g>
	</g>
	<g id="stairs_00000032626799022009418030000006004862700355200132_">
		<path class="st18" d="M488.8,558.3h-17.6c-4.8,0-8.7,3.9-8.7,8.7v17.6c0,4.8,3.9,8.7,8.7,8.7h17.6c4.8,0,8.7-3.9,8.7-8.7V567
			C497.5,562.2,493.6,558.3,488.8,558.3z"/>
		<g>
			<path class="st1" d="M473.3,565.5c1,0,1.9-0.8,1.9-1.9c0-1-0.8-1.9-1.9-1.9c-1,0-1.9,0.8-1.9,1.9
				C471.5,564.7,472.3,565.5,473.3,565.5z"/>
			<path class="st1" d="M469.9,571.4c0.6,0,1.1-0.4,1.1-1v-1.2l0.6-0.4v3v0.6l-1.8,6.9c-0.2,0.5,0.2,1.1,0.7,1.2
				c0.6,0.2,1.2-0.1,1.4-0.7l1.6-6.4h1.6v2.1c0,0.6,0.5,1,1.1,1s1.1-0.4,1.1-1v-3.1c0-0.6-0.5-1-1.1-1l0,0l0,0h-2.4v-1.9l0.6,0.6
				c0.2,0.2,0.5,0.4,0.9,0.4l0,0h2c0.6,0,1.1-0.4,1.1-1s-0.5-1-1.1-1h-1.6l-2-2.2l-0.1-0.1c-0.1-0.1-0.2-0.3-0.4-0.4l0,0h-0.1l0,0
				H473l0,0c0,0,0,0-0.1,0l0,0c0,0,0,0-0.1,0l0,0c0,0,0,0-0.1,0l0,0l0,0l0,0c0,0,0,0-0.1,0c0,0,0,0-0.1,0l0,0c0,0,0,0-0.1,0l0,0
				c0,0,0,0-0.1,0l0,0c0,0,0,0-0.1,0l0,0c0,0,0,0-0.1,0l0,0c0,0,0,0-0.1,0l0,0l-2.8,2c-0.3,0.2-0.4,0.5-0.4,0.8l0,0v1.7
				C468.8,571,469.2,571.4,469.9,571.4z"/>
			<path class="st1" d="M490.4,568h-5.1c-0.2,0-0.3,0.2-0.4,0.4v4.7h-4.7c-0.2,0-0.3,0.2-0.4,0.4v5h-4.9c-0.2,0-0.3,0.2-0.4,0.4v4.6
				h-4.7c-0.2,0-0.3,0.2-0.4,0.4v4.4c0,0.2,0.2,0.3,0.4,0.4h20.5c0.2,0,0.3-0.2,0.4-0.4l-0.1-19.8
				C490.7,568.2,490.6,568.1,490.4,568z"/>
		</g>
		<g class="st14">
			<path class="st19" d="M465,563.5c1.1,0,2.1-0.9,2.1-2.1c0-1.1-0.9-2.1-2.1-2.1c-1.1,0-2.1,0.9-2.1,2.1
				C463,562.6,463.9,563.5,465,563.5z"/>
			<path class="st19" d="M461.2,570c0.7,0,1.2-0.4,1.2-1.1v-1.3l0.7-0.4v3.3v0.7l-2,7.7c-0.2,0.6,0.2,1.2,0.8,1.3
				c0.7,0.2,1.3-0.1,1.6-0.8l1.8-7.1h1.8v2.3c0,0.7,0.6,1.1,1.2,1.1c0.7,0,1.2-0.4,1.2-1.1v-3.4c0-0.7-0.6-1.1-1.2-1.1l0,0l0,0h-2.7
				V568l0.7,0.7c0.2,0.2,0.6,0.4,1,0.4l0,0h2.2c0.7,0,1.2-0.4,1.2-1.1s-0.6-1.1-1.2-1.1h-1.9l-2.2-2.4l-0.1-0.1
				c-0.1-0.1-0.2-0.3-0.4-0.4l0,0h-0.1l0,0h-0.2l0,0c0,0,0,0-0.1,0l0,0c0,0,0,0-0.1,0l0,0c0,0,0,0-0.1,0l0,0l0,0l0,0c0,0,0,0-0.1,0
				c0,0,0,0-0.1,0l0,0c0,0,0,0-0.1,0l0,0c0,0,0,0-0.1,0l0,0c0,0,0,0-0.1,0l0,0c0,0,0,0-0.1,0l0,0c0,0,0,0-0.1,0l0,0l-3.1,2.2
				c-0.3,0.2-0.4,0.6-0.4,0.9l0,0v1.9C460,569.6,460.4,570,461.2,570z"/>
			<path class="st19" d="M484,582v-5.7c0-0.2-0.2-0.3-0.4-0.4h-5.2v-5.3c0-0.2-0.2-0.3-0.4-0.4h-5.6v-5.4c0-0.2-0.2-0.3-0.4-0.4
				h-5.1v-5.2c0-0.2-0.2-0.3-0.4-0.4h-4.9c-0.2,0-0.3,0.2-0.4,0.4V582c0,0.2,0.2,0.3,0.4,0.4l22-0.1
				C483.7,582.3,483.8,582.2,484,582z"/>
		</g>
		<g id="stairs" class="st20">
			<g class="st21">
				<polygon class="st22" points="486.6,556.2 486.6,556.2 486.6,556.2 472.7,556.2 458.7,556.1 458.7,588.6 472.6,588.7 
					472.6,570.1 486.6,570.2 486.6,588.8 500.5,588.8 500.6,556.2 				"/>
				<line class="st22" x1="472.6" y1="584.1" x2="458.7" y2="584.1"/>
				<line class="st22" x1="472.6" y1="579.4" x2="458.7" y2="579.4"/>
				<line class="st22" x1="472.6" y1="574.8" x2="458.7" y2="574.8"/>
				<line class="st22" x1="486.6" y1="584.1" x2="500.5" y2="584.1"/>
				<line class="st22" x1="486.6" y1="579.5" x2="500.5" y2="579.5"/>
				<line class="st22" x1="486.6" y1="574.8" x2="500.5" y2="574.8"/>
				<line class="st22" x1="486.6" y1="570.2" x2="486.6" y2="556.2"/>
				<line class="st22" x1="481.9" y1="570.2" x2="482" y2="556.2"/>
				<line class="st22" x1="477.3" y1="570.1" x2="477.3" y2="556.2"/>
				<line class="st22" x1="472.6" y1="570.1" x2="472.7" y2="556.2"/>
				<line class="st22" x1="500.5" y1="570.2" x2="486.6" y2="570.2"/>
				<line class="st22" x1="500.5" y1="570.2" x2="458.7" y2="570.1"/>
				<polyline class="st22" points="465.6,588.7 465.7,562.7 493.5,562.7 493.6,585.2 				"/>
				<polygon class="st23" points="493.5,588.7 494.5,585.2 493.6,585.2 492.6,585.2 				"/>
				<path class="st23" d="M464.8,588.8c0,0.4,0.4,0.8,0.8,0.8s0.8-0.4,0.8-0.8c0-0.4-0.4-0.8-0.8-0.8S464.8,588.3,464.8,588.8z"/>
			</g>
		</g>
	</g>
	<rect id="circ" x="238.9" y="457.5" class="st24" width="30" height="140"/>
	
		<ellipse id="wepa" transform="matrix(0.3162 -0.9487 0.9487 0.3162 -199.1127 502.0807)" class="st24" cx="248.7" cy="389.2" rx="25" ry="25"/>
	<g id="printers">
		<g>
			<path d="M245.4,393.9h3.3h3.3c0.3,0,0.6-0.3,0.6-0.6c0-0.3-0.3-0.6-0.6-0.6h-6.6c-0.3,0-0.6,0.3-0.6,0.6
				C244.8,393.6,245,393.9,245.4,393.9z"/>
			<path d="M252,395.3h-6.6c-0.3,0-0.6,0.3-0.6,0.6c0,0.3,0.3,0.6,0.6,0.6h6.5c0.3,0,0.6-0.3,0.6-0.6
				C252.6,395.6,252.4,395.3,252,395.3z"/>
		</g>
		<path d="M256.9,384h-1.1v-4.2c0-0.3-0.3-0.6-0.6-0.6h-12.7c-0.3,0-0.6,0.3-0.6,0.6v4.2h-1.1c-1,0-1.9,0.9-1.9,1.9v6.7
			c0,1,0.9,1.9,1.9,1.9h1.1v4.2c0,0.3,0.2,0.6,0.6,0.6h12.7c0.3,0,0.6-0.3,0.6-0.6v-4.1h1.1c1,0,1.9-0.9,1.9-1.9v-6.7
			C258.8,384.9,257.9,384,256.9,384z M240.7,386.8c-0.4,0-0.7-0.3-0.7-0.7c0-0.4,0.3-0.7,0.7-0.7s0.7,0.3,0.7,0.7
			C241.4,386.5,241.1,386.8,240.7,386.8z M242.9,380.4h11.5v3.5h-11.5V380.4z M242.2,386.1c0-0.4,0.3-0.7,0.7-0.7s0.7,0.3,0.7,0.7
			c0,0.4-0.3,0.7-0.7,0.7S242.2,386.5,242.2,386.1z M254.5,394.5v3.5h-11.5v-6.9h11.5V394.5L254.5,394.5z"/>
	</g>
	<g id="coffee">
		<path d="M141.1,166c0.4-0.3,0.8-0.2,1.2-0.2c1.8,0,3.7,0,5.6,0c4.2,0,8.2,0,12.4,0c0.5,0,1-0.1,1.4,0.2c0.3,0.4,0,0.9,0.1,1.3
			c0.2,0.3,0.7,0.2,1,0.3c1.7,0.3,3.1,1.7,3.2,3.5c0.1,1.3-0.4,2.5-1.3,3.4c-0.9,0.9-2.1,1.3-3.3,1.7c-1,0.2-2,0.2-3,0.2
			c-0.6,0-1,0.1-1.4,0.5c-0.7,0.7-1.5,1-2.5,1c-1.9-0.1-3.9-0.1-5.8,0c-1.1,0-1.8-0.3-2.6-1.1c-1.6-1.6-2.7-3.4-3.6-5.4
			c-0.6-1.4-1-2.9-1.2-4.4C141,166.5,141.1,166.3,141.1,166z M159.3,173.9c1.4,0.2,3-0.3,3.9-1.2c0.1-0.1,0.2-0.2,0.3-0.3
			c0.8-1.2,0.3-2.5-1-2.8c-0.4-0.1-0.8-0.2-1.2,0.1c-0.2,0.7-0.5,1.4-0.8,2.1C160.1,172.5,159.7,173.3,159.3,173.9z"/>
		<path d="M143,179.1c0.3-0.1,0.5-0.1,0.7-0.1c5.3,0,10.7,0,16.1,0c0.1,0,0.2,0.1,0.2,0.1l0.1,0.1c-0.2,0.6-0.8,1.8-1.2,2.1
			c-0.2,0.2-0.4,0.2-0.7,0.2c-0.3,0.1-0.7,0-1,0c-3.7,0-7.5,0-11.2,0c-0.2,0-0.6,0-0.8,0c-0.5,0-0.8-0.2-1.1-0.7
			C143.6,180.4,143.2,179.9,143,179.1z"/>
		<path d="M153.7,163.4c0.3-1.3-0.2-2.5-0.7-3.7c-0.9-1.7-0.6-3.8,0.7-5.3c0.1-0.2,0.2-0.2,0.6-0.5c-0.5,1.5,0,2.6,0.6,3.7
			c0.7,1.3,0.8,2.7,0.2,4.1C154.8,162.3,154.4,163,153.7,163.4L153.7,163.4z"/>
		<path d="M148.8,163.4c0.3-1,0.2-2-0.3-2.9c-0.2-0.2-0.3-0.6-0.4-0.8c-0.9-1.9-0.5-4.1,1.2-5.5c0,0.1,0.1,0.2,0.1,0.3
			c-0.2,0.8,0,1.6,0.3,2.3c0.2,0.3,0.3,0.7,0.6,1.1c0.8,1.7,0.6,3.9-0.8,5.3C149.2,163.2,149,163.2,148.8,163.4L148.8,163.4z"/>
		<path d="M153.7,163.4L153.7,163.4L153.7,163.4z"/>
		<polygon points="148.8,163.3 148.8,163.4 148.8,163.4 		"/>
	</g>
	<g id="Text">
		<text transform="matrix(1 0 0 1 431.6846 275.222)" class="st25"><tspan x="0" y="0" class="st26 st27">Children’s</tspan><tspan x="19.6" y="26.4" class="st26 st27">Room</tspan></text>
		<text transform="matrix(1 0 0 1 174.319 169.9156)" class="st26 st28">Nirvana</text>
		<text transform="matrix(1 0 0 1 174.319 188.9156)" class="st26 st28">Soul</text>
		<text transform="matrix(1 0 0 1 84.3584 503.8898)" class="st26 st28">Partners</text>
		<text transform="matrix(1 0 0 1 64.3195 525.4898)" class="st26 st28">in Reading</text>
		<text transform="matrix(1 0 0 1 372.1751 704.3572)" class="st26 st29">Digital</text>
		<text transform="matrix(1 0 0 1 372.1751 722.4578)" class="st26 st29">Humanities</text>
		<text transform="matrix(1 0 0 1 372.1751 740.5573)" class="st26 st29">Center</text>
		<text transform="matrix(1 0 0 1 224.6164 807.5609)" class="st26 st29">125</text>
		<text transform="matrix(1 0 0 1 372.1754 681.786)" class="st26 st30">113</text>
	</g>
	<g id="floor_outline">
		<line class="st31" x1="681.1" y1="137.8" x2="524.8" y2="462.7"/>
		<line class="st31" x1="3.1" y1="603.6" x2="119.6" y2="361.3"/>
		<line class="st31" x1="118.2" y1="658.7" x2="2.9" y2="603.9"/>
		<line class="st31" x1="118.9" y1="823.5" x2="285.5" y2="903.7"/>
		<line class="st31" x1="325.3" y1="3" x2="263.1" y2="133.7"/>
		<line class="st31" x1="468" y1="71.6" x2="325.3" y2="3"/>
		<line class="st31" x1="119.5" y1="134.6" x2="263.1" y2="133.7"/>
		<line class="st31" x1="525.4" y1="40.1" x2="469.8" y2="71.8"/>
		<line class="st31" x1="525.4" y1="123.2" x2="525.4" y2="40.1"/>
		<line class="st31" x1="525.4" y1="123.2" x2="573.4" y2="119.9"/>
		<line class="st31" x1="586.2" y1="135.7" x2="573.4" y2="119.9"/>
		<line class="st31" x1="681.1" y1="137.5" x2="587.2" y2="136.7"/>
		<line class="st31" x1="119.3" y1="134.8" x2="119.9" y2="360.8"/>
		<line class="st31" x1="464.1" y1="462.7" x2="524" y2="462.7"/>
		<line class="st31" x1="464" y1="555.1" x2="464.1" y2="463"/>
		<line class="st31" x1="464" y1="555.8" x2="524.1" y2="555.8"/>
		<line class="st31" x1="524.1" y1="721.6" x2="524.1" y2="555.8"/>
		<line class="st31" x1="286.2" y1="828.7" x2="285.5" y2="903.7"/>
		<line class="st31" x1="118.9" y1="823.5" x2="118.2" y2="658.7"/>
		<line class="st31" x1="316.4" y1="828.1" x2="286.2" y2="827.7"/>
		<line class="st31" x1="523.2" y1="721.7" x2="364.5" y2="778.9"/>
		<line class="st31" x1="364.4" y1="779.1" x2="316.7" y2="827.6"/>
		<path class="st32" d="M265.9,126"/>
	</g>
	<g id="Doors">
		<line class="st33" x1="525.7" y1="75.7" x2="525.7" y2="101.5"/>
		<line class="st33" x1="309.7" y1="35.2" x2="296" y2="64.5"/>
		<line class="st33" x1="362.3" y1="20.4" x2="389.2" y2="33.2"/>
		<line class="st34" x1="287.1" y1="748.2" x2="287.2" y2="776.5"/>
		<line class="st33" x1="507.9" y1="728.2" x2="483" y2="736.9"/>
		<line class="st33" x1="383.6" y1="393.2" x2="399.1" y2="413.4"/>
		<line class="st33" x1="265.3" y1="149.7" x2="265.2" y2="175.2"/>
		<line class="st33" x1="135.5" y1="443" x2="109.9" y2="443"/>
		<line class="st33" x1="352.5" y1="791.6" x2="327.2" y2="817.4"/>
		<line class="st33" x1="224.9" y1="133.5" x2="199.3" y2="133.6"/>
		<line class="st34" x1="363.5" y1="741.6" x2="363.6" y2="769.9"/>
	</g>
	<g id="Entrances">
		<text transform="matrix(1 0 0 1 374.3289 851.2615)" class="st26 st28">Campus Entrance</text>
		<text transform="matrix(1 0 0 1 42.7995 35.2)" class="st26 st28">San Fernando Entrance</text>
		<text transform="matrix(1 0 0 1 172.9208 45.0229)" class="st35 st26 st28">Entrance</text>
		<g>
			<polygon points="263.8,29.7 261.3,35.3 272.1,40.1 270.1,44.7 287.8,43.8 276.7,29.9 274.6,34.5 			"/>
		</g>
		<g>
			<polygon points="366.6,837.4 370.9,833.1 362.4,824.8 366,821.2 349,815.9 354.6,832.8 358.2,829.1 			"/>
		</g>
	</g>
	<g id="North">
		<polygon class="st36" points="620.2,58.1 588.2,67.9 630,90.1 		"/>
		<text transform="matrix(0.8965 0.4431 -0.4431 0.8965 611.8253 48.5606)" class="st36 st37 st38">N</text>
	</g>
	<g id="Emergency_exits">
		<g class="st14">
			<g class="st21">
				<path class="st39" d="M519.1,587.7l-7.2-2.5c-0.4-0.1-0.9,0.2-0.9,0.7v2h-7c-0.3,0-0.5,0.2-0.5,0.5v2.2c0.4,0.1,0.8,0.2,1.1,0.3
					v-2h6.4v21.9h-4.3l0.1,0.3c0.1,0.3,0.1,0.5,0.1,0.9h4.1v2c0,0.4,0.4,0.8,0.9,0.7l7.2-2.5c0.3-0.1,0.4-0.3,0.4-0.7v-23.1
					C519.6,588,519.3,587.8,519.1,587.7z"/>
				<path class="st39" d="M492.9,609.8h4.6c0.7,0,1.1-0.4,1.3-1l0.4-1.9L497,605c0,0,0,0-0.1-0.1l-0.5,2h-3.5
					c-0.8,0-1.4,0.7-1.4,1.4C491.6,609.3,492.1,609.8,492.9,609.8z"/>
				<path class="st39" d="M503.5,596.6c1.3-0.3,2.1-1.5,1.8-2.9c-0.3-1.3-1.5-2.1-2.9-1.8c-1.3,0.3-2.1,1.5-1.8,2.9
					C501,596.1,502.2,596.9,503.5,596.6z"/>
				<path class="st39" d="M494.8,602.4c0.5,0.2,1.2,0,1.5-0.5l0.9-2.1l1.3-0.4l-1,3.9c-0.1,0.5,0.1,1.1,0.4,1.4l3.8,3.2l1,4.2
					c0.1,0.7,0.8,1,1.3,1c0.1,0,0.2,0,0.3,0c0.8-0.2,1.2-0.9,1-1.6l-1.1-4.6c-0.1-0.3-0.2-0.5-0.4-0.8l-2.4-2l1.3-3.4l1.3,1.5
					c0.2,0.2,0.5,0.4,0.9,0.4c0.2,0,0.4-0.1,0.5-0.2l2.3-1.4c0.5-0.3,0.8-1,0.4-1.5s-1-0.8-1.5-0.4l-1.5,0.9l-1.2-1.4
					c-0.3-0.3-0.8-0.7-1.2-0.9l-2.1-0.8c-0.7-0.2-1.3-0.2-1.9,0l-2.6,0.9c-0.3,0.1-0.5,0.3-0.7,0.7l-1.1,2.5
					C493.9,601.5,494.1,602.2,494.8,602.4z"/>
			</g>
		</g>
		<g class="st14">
			<g class="st21">
				<path class="st40" d="M519.1,587.7l-7.2-2.5c-0.4-0.1-0.9,0.2-0.9,0.7v2h-7c-0.3,0-0.5,0.2-0.5,0.5v2.2c0.4,0.1,0.8,0.2,1.1,0.3
					v-2h6.4v21.9h-4.3l0.1,0.3c0.1,0.3,0.1,0.5,0.1,0.9h4.1v2c0,0.4,0.4,0.8,0.9,0.7l7.2-2.5c0.3-0.1,0.4-0.3,0.4-0.7v-23.1
					C519.6,588,519.3,587.8,519.1,587.7z"/>
				<path class="st40" d="M492.9,609.8h4.6c0.7,0,1.1-0.4,1.3-1l0.4-1.9L497,605c0,0,0,0-0.1-0.1l-0.5,2h-3.5
					c-0.8,0-1.4,0.7-1.4,1.4C491.6,609.3,492.1,609.8,492.9,609.8z"/>
				<path class="st40" d="M503.5,596.6c1.3-0.3,2.1-1.5,1.8-2.9c-0.3-1.3-1.5-2.1-2.9-1.8c-1.3,0.3-2.1,1.5-1.8,2.9
					C501,596.1,502.2,596.9,503.5,596.6z"/>
				<path class="st40" d="M494.8,602.4c0.5,0.2,1.2,0,1.5-0.5l0.9-2.1l1.3-0.4l-1,3.9c-0.1,0.5,0.1,1.1,0.4,1.4l3.8,3.2l1,4.2
					c0.1,0.7,0.8,1,1.3,1c0.1,0,0.2,0,0.3,0c0.8-0.2,1.2-0.9,1-1.6l-1.1-4.6c-0.1-0.3-0.2-0.5-0.4-0.8l-2.4-2l1.3-3.4l1.3,1.5
					c0.2,0.2,0.5,0.4,0.9,0.4c0.2,0,0.4-0.1,0.5-0.2l2.3-1.4c0.5-0.3,0.8-1,0.4-1.5s-1-0.8-1.5-0.4l-1.5,0.9l-1.2-1.4
					c-0.3-0.3-0.8-0.7-1.2-0.9l-2.1-0.8c-0.7-0.2-1.3-0.2-1.9,0l-2.6,0.9c-0.3,0.1-0.5,0.3-0.7,0.7l-1.1,2.5
					C493.9,601.5,494.1,602.2,494.8,602.4z"/>
			</g>
		</g>
		<g class="st14">
			<g class="st21">
				<path class="st39" d="M612.3,244.6l-7.3-2.5c-0.5-0.1-0.8,0.2-0.8,0.7v2h-7c-0.4,0-0.6,0.2-0.6,0.6v2.2c0.5,0.1,0.7,0.2,1.1,0.4
					v-2h6.3v21.9h-4.3l0.1,0.4c0.1,0.4,0.1,0.6,0.1,0.8h4v2c0,0.5,0.5,0.7,0.8,0.7l7.3-2.5c0.4-0.1,0.5-0.4,0.5-0.7v-23.2
					C612.8,245,612.5,244.8,612.3,244.6z"/>
				<path class="st39" d="M586.1,266.8h4.6c0.7,0,1.1-0.5,1.3-1l0.5-1.9l-2.2-1.9c0,0,0,0-0.1-0.1l-0.6,2h-3.5
					c-0.7,0-1.4,0.7-1.4,1.4C584.8,266.2,585.4,266.8,586.1,266.8z"/>
				<path class="st39" d="M596.7,253.7c1.3-0.4,2-1.5,1.8-2.9c-0.3-1.4-1.5-2-2.9-1.8c-1.3,0.4-2,1.5-1.8,2.9
					C594.2,253.1,595.5,253.8,596.7,253.7z"/>
				<path class="st39" d="M587.9,259.4c0.6,0.2,1.2,0,1.5-0.6l0.8-2l1.3-0.5l-1,3.9c-0.1,0.6,0.1,1.1,0.5,1.4l3.8,3.2l1,4.2
					c0.1,0.7,0.7,1,1.3,1c0.1,0,0.2,0,0.4,0c0.7-0.2,1.2-0.8,1-1.7l-1.1-4.6c-0.1-0.4-0.2-0.6-0.5-0.7l-2.4-2l1.3-3.4l1.3,1.5
					c0.2,0.2,0.6,0.5,0.8,0.5s0.5-0.1,0.6-0.2l2.3-1.4c0.6-0.4,0.7-1,0.5-1.5c-0.4-0.6-1-0.7-1.5-0.5l-1.5,0.8l-1.2-1.4
					c-0.4-0.4-0.7-0.7-1.2-0.8l-2-0.7c-0.7-0.2-1.3-0.2-1.9,0l-2.6,0.8c-0.4,0.1-0.6,0.4-0.7,0.7l-1.1,2.5
					C587.2,258.5,587.4,259.2,587.9,259.4z"/>
			</g>
		</g>
		<g class="st14">
			<g class="st21">
				<path class="st40" d="M612.3,244.6l-7.3-2.5c-0.5-0.1-0.8,0.2-0.8,0.7v2h-7c-0.4,0-0.6,0.2-0.6,0.6v2.2c0.5,0.1,0.7,0.2,1.1,0.4
					v-2h6.3v21.9h-4.3l0.1,0.4c0.1,0.4,0.1,0.6,0.1,0.8h4v2c0,0.5,0.5,0.7,0.8,0.7l7.3-2.5c0.4-0.1,0.5-0.4,0.5-0.7v-23.2
					C612.8,245,612.5,244.8,612.3,244.6z"/>
				<path class="st40" d="M586.1,266.8h4.6c0.7,0,1.1-0.5,1.3-1l0.5-1.9l-2.2-1.9c0,0,0,0-0.1-0.1l-0.6,2h-3.5
					c-0.7,0-1.4,0.7-1.4,1.4C584.8,266.2,585.4,266.8,586.1,266.8z"/>
				<path class="st40" d="M596.7,253.7c1.3-0.4,2-1.5,1.8-2.9c-0.3-1.4-1.5-2-2.9-1.8c-1.3,0.4-2,1.5-1.8,2.9
					C594.2,253.1,595.5,253.8,596.7,253.7z"/>
				<path class="st40" d="M587.9,259.4c0.6,0.2,1.2,0,1.5-0.6l0.8-2l1.3-0.5l-1,3.9c-0.1,0.6,0.1,1.1,0.5,1.4l3.8,3.2l1,4.2
					c0.1,0.7,0.7,1,1.3,1c0.1,0,0.2,0,0.4,0c0.7-0.2,1.2-0.8,1-1.7l-1.1-4.6c-0.1-0.4-0.2-0.6-0.5-0.7l-2.4-2l1.3-3.4l1.3,1.5
					c0.2,0.2,0.6,0.5,0.8,0.5s0.5-0.1,0.6-0.2l2.3-1.4c0.6-0.4,0.7-1,0.5-1.5c-0.4-0.6-1-0.7-1.5-0.5l-1.5,0.8l-1.2-1.4
					c-0.4-0.4-0.7-0.7-1.2-0.8l-2-0.7c-0.7-0.2-1.3-0.2-1.9,0l-2.6,0.8c-0.4,0.1-0.6,0.4-0.7,0.7l-1.1,2.5
					C587.2,258.5,587.4,259.2,587.9,259.4z"/>
			</g>
		</g>
		<g class="st14">
			<g class="st21">
				<path class="st39" d="M117,286.7l7.2-2.5c0.4-0.1,0.9,0.2,0.9,0.7v2h7c0.3,0,0.5,0.2,0.5,0.5v2.2c-0.4,0.1-0.8,0.2-1.1,0.3v-2
					h-6.4v21.9h4.3l-0.1,0.3c-0.1,0.3-0.1,0.5-0.1,0.9h-4.1v2c0,0.4-0.4,0.8-0.9,0.7l-7.2-2.5c-0.3-0.1-0.4-0.3-0.4-0.7v-23.1
					C116.6,287,116.8,286.8,117,286.7z"/>
				<path class="st39" d="M143.2,308.8h-4.6c-0.7,0-1.1-0.4-1.3-1l-0.4-1.9l2.2-1.9c0,0,0,0,0.1-0.1l0.5,2h3.5
					c0.8,0,1.4,0.7,1.4,1.4C144.7,308.3,144,308.8,143.2,308.8z"/>
				<path class="st39" d="M132.7,295.5c-1.3-0.3-2.1-1.5-1.8-2.9s1.5-2.1,2.9-1.8c1.3,0.3,2.1,1.5,1.8,2.9S133.9,295.9,132.7,295.5z
					"/>
				<path class="st39" d="M141.5,301.4c-0.5,0.2-1.2,0-1.5-0.5l-0.9-2.1l-1.3-0.4l1,3.9c0.1,0.5-0.1,1.1-0.4,1.4l-3.8,3.2l-1,4.2
					c-0.1,0.7-0.8,1-1.3,1c-0.1,0-0.2,0-0.3,0c-0.8-0.2-1.2-0.9-1-1.6l1.1-4.6c0.1-0.3,0.2-0.5,0.4-0.8l2.4-2l-1.3-3.4l-1.3,1.5
					c-0.2,0.2-0.5,0.4-0.9,0.4c-0.2,0-0.4-0.1-0.5-0.2l-2.3-1.4c-0.5-0.3-0.8-1-0.4-1.5c0.3-0.5,1-0.8,1.5-0.4l1.5,0.9l1.2-1.4
					c0.3-0.3,0.8-0.7,1.2-0.9l2.1-0.8c0.7-0.2,1.3-0.2,1.9,0l2.6,0.9c0.3,0.1,0.5,0.3,0.7,0.7l1.1,2.5
					C142.2,300.5,142,301.1,141.5,301.4z"/>
			</g>
		</g>
		<g class="st14">
			<g class="st21">
				<path class="st40" d="M117,286.7l7.2-2.5c0.4-0.1,0.9,0.2,0.9,0.7v2h7c0.3,0,0.5,0.2,0.5,0.5v2.2c-0.4,0.1-0.8,0.2-1.1,0.3v-2
					h-6.4v21.9h4.3l-0.1,0.3c-0.1,0.3-0.1,0.5-0.1,0.9h-4.1v2c0,0.4-0.4,0.8-0.9,0.7l-7.2-2.5c-0.3-0.1-0.4-0.3-0.4-0.7v-23.1
					C116.6,287,116.8,286.8,117,286.7z"/>
				<path class="st40" d="M143.2,308.8h-4.6c-0.7,0-1.1-0.4-1.3-1l-0.4-1.9l2.2-1.9c0,0,0,0,0.1-0.1l0.5,2h3.5
					c0.8,0,1.4,0.7,1.4,1.4C144.7,308.3,144,308.8,143.2,308.8z"/>
				<path class="st40" d="M132.7,295.5c-1.3-0.3-2.1-1.5-1.8-2.9s1.5-2.1,2.9-1.8c1.3,0.3,2.1,1.5,1.8,2.9S133.9,295.9,132.7,295.5z
					"/>
				<path class="st40" d="M141.5,301.4c-0.5,0.2-1.2,0-1.5-0.5l-0.9-2.1l-1.3-0.4l1,3.9c0.1,0.5-0.1,1.1-0.4,1.4l-3.8,3.2l-1,4.2
					c-0.1,0.7-0.8,1-1.3,1c-0.1,0-0.2,0-0.3,0c-0.8-0.2-1.2-0.9-1-1.6l1.1-4.6c0.1-0.3,0.2-0.5,0.4-0.8l2.4-2l-1.3-3.4l-1.3,1.5
					c-0.2,0.2-0.5,0.4-0.9,0.4c-0.2,0-0.4-0.1-0.5-0.2l-2.3-1.4c-0.5-0.3-0.8-1-0.4-1.5c0.3-0.5,1-0.8,1.5-0.4l1.5,0.9l1.2-1.4
					c0.3-0.3,0.8-0.7,1.2-0.9l2.1-0.8c0.7-0.2,1.3-0.2,1.9,0l2.6,0.9c0.3,0.1,0.5,0.3,0.7,0.7l1.1,2.5
					C142.2,300.5,142,301.1,141.5,301.4z"/>
			</g>
		</g>
		<g>
			<circle class="st40" cx="506" cy="601.2" r="15"/>
			<g>
				<g>
					<path class="st11" d="M514.5,592l-5.2-1.8c-0.3-0.1-0.6,0.1-0.6,0.5v1.4h-5.1c-0.2,0-0.4,0.2-0.4,0.4v1.6
						c0.3,0,0.6,0.1,0.8,0.2v-1.4h4.6v15.9h-3.1v0.2c0,0.2,0.1,0.4,0,0.6h3v1.4c0,0.3,0.3,0.6,0.6,0.5l5.2-1.8
						c0.2-0.1,0.3-0.2,0.3-0.5v-16.8C514.9,592.3,514.7,592.1,514.5,592z"/>
					<g>
						<g>
							<path class="st11" d="M495.5,608.1h3.3c0.4,0,0.8-0.3,1-0.7l0.4-1.3l-1.6-1.3l0,0l-0.4,1.4h-2.6c-0.5,0-1,0.4-1,1
								C494.6,607.7,495,608.1,495.5,608.1z"/>
							<path class="st11" d="M503.2,598.5c0.9-0.2,1.5-1.1,1.3-2.1s-1.1-1.5-2.1-1.3c-0.9,0.2-1.5,1.1-1.3,2.1
								S502.3,598.7,503.2,598.5z"/>
							<path class="st11" d="M496.9,602.7c0.4,0.2,0.9,0,1.1-0.4l0.7-1.5l0.9-0.3l-0.8,2.9c-0.1,0.4,0,0.8,0.3,1l2.8,2.3l0.8,3
								c0.1,0.5,0.5,0.8,1,0.8c0.1,0,0.2,0,0.2,0c0.5-0.1,0.9-0.7,0.7-1.2l-0.8-3.4c0-0.2-0.2-0.4-0.3-0.5l-1.8-1.4l0.9-2.5l0.9,1.1
								c0.2,0.2,0.4,0.3,0.6,0.3c0.1,0,0.3,0,0.4-0.1l1.7-1c0.4-0.2,0.5-0.8,0.3-1.1c-0.2-0.4-0.8-0.5-1.1-0.3l-1.1,0.6l-0.9-1
								c-0.2-0.3-0.5-0.5-0.9-0.6l-1.5-0.5c-0.4-0.2-0.9-0.2-1.4,0l-1.9,0.6c-0.2,0.1-0.4,0.2-0.5,0.5l-0.8,1.8
								C496.3,602.1,496.4,602.5,496.9,602.7z"/>
						</g>
					</g>
				</g>
			</g>
		</g>
		<g>
			<circle class="st40" cx="592" cy="281.1" r="15"/>
			<g>
				<g>
					<path class="st11" d="M600.5,271.9l-5.2-1.8c-0.3-0.1-0.6,0.1-0.6,0.5v1.4h-5.1c-0.2,0-0.4,0.2-0.4,0.4v1.6
						c0.3,0,0.6,0.1,0.8,0.2v-1.4h4.6v15.9h-3.1v0.2c0,0.2,0.1,0.4,0,0.6h3v1.4c0,0.3,0.3,0.6,0.6,0.5l5.2-1.8
						c0.2-0.1,0.3-0.2,0.3-0.5v-16.8C600.8,272.2,600.7,272,600.5,271.9z"/>
					<g>
						<g>
							<path class="st11" d="M581.5,288h3.3c0.4,0,0.8-0.3,1-0.7l0.4-1.3l-1.6-1.3l0,0l-0.4,1.4h-2.6c-0.5,0-1,0.4-1,1
								C580.5,287.6,581,288,581.5,288z"/>
							<path class="st11" d="M589.2,278.4c0.9-0.2,1.5-1.1,1.3-2.1c-0.2-0.9-1.1-1.5-2.1-1.3s-1.5,1.1-1.3,2.1
								C587.3,278,588.2,278.6,589.2,278.4z"/>
							<path class="st11" d="M582.8,282.6c0.4,0.2,0.9,0,1.1-0.4l0.7-1.5l0.9-0.3l-0.8,2.9c-0.1,0.4,0,0.8,0.3,1l2.8,2.3l0.8,3
								c0.1,0.5,0.5,0.8,1,0.8c0.1,0,0.2,0,0.2,0c0.5-0.1,0.9-0.7,0.7-1.2l-0.8-3.4c0-0.2-0.2-0.4-0.3-0.5l-1.8-1.4l0.9-2.5l0.9,1.1
								c0.2,0.2,0.4,0.3,0.6,0.3c0.1,0,0.3,0,0.4-0.1l1.7-1c0.4-0.2,0.5-0.8,0.3-1.1c-0.2-0.4-0.8-0.5-1.1-0.3l-1.1,0.6l-0.9-1
								c-0.2-0.3-0.5-0.5-0.9-0.6l-1.5-0.5c-0.4-0.2-0.9-0.2-1.4,0l-1.9,0.6c-0.2,0.1-0.4,0.2-0.5,0.5l-0.8,1.8
								C582.2,281.9,582.4,282.4,582.8,282.6z"/>
						</g>
					</g>
				</g>
			</g>
		</g>
	</g>
	<path class="st11" d="M274.6,608l-1,1v-3.3c0-0.2-0.2-0.5-0.5-0.5c-0.2,0-0.5,0.2-0.5,0.5v3.3l-1-1c-0.1-0.1-0.2-0.1-0.3-0.1
		c-0.1,0-0.2,0-0.3,0.1c-0.2,0.2-0.2,0.5,0,0.6l1.8,1.8c0.1,0.1,0.2,0.1,0.3,0.1c0.1,0,0.2,0,0.3-0.1l1.8-1.8c0.2-0.2,0.2-0.5,0-0.6
		C275.1,607.8,274.8,607.8,274.6,608z"/>
	<g id="San_Fernando" class="st14">
		<text transform="matrix(0.9331 0.3596 -0.3596 0.9331 558.4369 12.392)" class="st41 st42 st43">San Fernando Street</text>
		<line class="st44" x1="684.3" y1="46.3" x2="563.2" y2="-0.2"/>
		<line class="st44" x1="684.2" y1="64.4" x2="547" y2="11.6"/>
	</g>
	<g id="_x34_th_Street" class="st14">
		<text transform="matrix(0.4237 -0.9058 0.9058 0.4237 33.9878 190.6651)" class="st41 st42 st45">Fourth Street</text>
		<line class="st44" x1="67.9" y1="87" x2="10.8" y2="205.9"/>
		<line class="st44" x1="84.2" y1="93.9" x2="27.1" y2="212.8"/>
	</g>
	<g id="book_drop" class="st14">
		<g id="Layer_1-2" class="st21">
			<path class="st46" d="M284,608.8l-0.3-0.2l0.3-0.2c0.3-0.2,0.5-0.6,0.5-1v-2.4c0-0.5-0.2-0.9-0.6-1.1l-7.5-4.5
				c-0.5-0.3-1.1-0.2-1.5,0.1l-9.8,7.9c-0.3,0.3-0.5,0.6-0.5,1v2.3c0,0.5,0.2,0.9,0.6,1.1l0.3,0.2l-0.3,0.2c-0.3,0.3-0.5,0.6-0.5,1
				v2.3c0,0.5,0.2,0.9,0.6,1.1l7.2,4.3c0.3,0.2,0.6,0.3,0.9,0.3c0.4,0,0.8-0.1,1.1-0.4l9.5-7.7c0.3-0.2,0.5-0.6,0.5-1V610
				C284.7,609.5,284.4,609.1,284,608.8L284,608.8z M274,603.4l1.3-1.1c0.2-0.1,0.4-0.2,0.6,0l3.9,2.4c0.3,0.2,0.4,0.7,0.1,0.9
				l-1.3,1.1c-0.2,0.1-0.4,0.2-0.6,0.1l-3.9-2.4C273.8,604.1,273.8,603.6,274,603.4L274,603.4z M265.7,610.8v-1.8l7,4.2
				c0.2,0.1,0.4,0.2,0.7,0.2c0.3,0,0.6-0.1,0.8-0.3l9.2-7.4v1.7c0,0.1,0,0.1-0.1,0.2l-9.5,7.7c-0.3,0.2-0.6,0.2-0.9,0.1l-7.2-4.3
				C265.8,611,265.7,610.9,265.7,610.8z M283.6,612.3c0,0.1,0,0.2-0.1,0.2l-9.5,7.7c-0.2,0.2-0.6,0.2-0.9,0.1l-7.2-4.3
				c-0.1-0.1-0.1-0.1-0.1-0.2v-1.8l7,4.2c0.2,0.1,0.4,0.2,0.7,0.2c0.3,0,0.6-0.1,0.8-0.3l9.2-7.4V612.3z"/>
		</g>
	</g>
	<g class="st14">
		<path class="st21" d="M281.1,600.1c-0.3,0-0.6,0.3-0.6,0.6v14.8h-13.3c-0.6,0-1.1-0.3-1.3-0.8h12.4c0.3,0,0.6-0.3,0.6-0.6
			c0-0.3-0.3-0.6-0.6-0.6h-12.4c0.2-0.5,0.8-0.9,1.4-0.9h12.1c0.3,0,0.6-0.3,0.6-0.6v-14.5c0-0.3-0.3-0.6-0.6-0.6h-12.1
			c-1.5,0-2.8,1.2-2.8,2.8V614c0,0,0,0,0,0c0,0,0,0,0,0c0,0,0,0,0,0c0,1.5,1.3,2.7,2.8,2.7h13.9c0.3,0,0.6-0.3,0.6-0.6v-15.4
			C281.7,600.3,281.4,600.1,281.1,600.1z M270,600.4c0-0.1,0.1-0.2,0.2-0.2h6.8c0.1,0,0.2,0.1,0.2,0.2v1.9c0,0.1-0.1,0.2-0.2,0.2
			h-6.8c-0.1,0-0.2-0.1-0.2-0.2V600.4z M265.6,599.5c0-0.8,0.7-1.5,1.5-1.5v13.2c-0.6,0-1.1,0.2-1.5,0.4V599.5z"/>
		<path class="st21" d="M267.6,612.5c-0.3,0-0.6-0.3-0.6-0.6v-14.5c0-0.3,0.3-0.6,0.6-0.6c0.3,0,0.6,0.3,0.6,0.6v14.5
			C268.3,612.2,268,612.5,267.6,612.5z"/>
	</g>
	<g id="info_00000083054435355446866570000000627384394871523489_" class="st14">
		<g class="st21">
			<path d="M253.5,511c2,0,3.6-1.6,3.6-3.6s-1.6-3.6-3.6-3.6c-2,0-3.6,1.6-3.6,3.6S251.6,511,253.5,511z"/>
		</g>
		<g class="st21">
			<path d="M258.7,527.7h-2.1v-14.6l0,0l0,0c0-0.3-0.3-0.6-0.6-0.6h-7.7c-0.3,0-0.6,0.3-0.6,0.6s0.3,0.6,0.6,0.6h2.2v14h-2.2
				c-0.3,0-0.6,0.3-0.6,0.6c0,0.3,0.3,0.6,0.6,0.6h10.3c0.3,0,0.6-0.3,0.6-0.6C259.2,527.9,259,527.7,258.7,527.7z"/>
		</g>
	</g>
	<path class="st47" d="M245.5,478c1.3,0,2.4-1.1,2.4-2.4c0-1.3-1.1-2.4-2.4-2.4c-1.3,0-2.4,1.1-2.4,2.4
		C243.1,476.9,244.2,478,245.5,478L245.5,478z M255.9,478c-1.3,0-2.4-1.1-2.4-2.4c0-1.3,1.1-2.4,2.4-2.4c1.3,0,2.4,1.1,2.4,2.4
		C258.3,476.9,257.2,478,255.9,478L255.9,478z M257.2,478.9c1.3,0,2.4,1.1,2.4,2.4v1.5h2.5c0.6,0,1.1,0.5,1.1,1.1v11.8H262v-11.8
		h-12.8v2.1c0,0.7-0.6,1.4-1.4,1.4l-0.2,7.5c0,0.4-0.5,0.8-0.9,0.8h-2.5c-0.4,0-0.9-0.4-0.9-0.8l-0.2-7.5c-0.7,0-1.4-0.6-1.4-1.4
		v-2.1h-2.5v11.8h-1.1v-11.8c0-0.6,0.5-1.1,1.1-1.1h2.5v-1.5c0-1.3,1.1-2.4,2.4-2.4h2.7c1.3,0,2.4,1.1,2.4,2.4v1.5h2.9v-1.5
		c0-1.3,1.1-2.4,2.4-2.4H257.2z"/>
	<path class="st48" d="M248.9,516c1.3,0,2.4-1.1,2.4-2.4s-1.1-2.4-2.4-2.4c-1.3,0-2.4,1.1-2.4,2.4S247.5,516,248.9,516L248.9,516z
		 M259.2,516c-1.3,0-2.4-1.1-2.4-2.4s1.1-2.4,2.4-2.4c1.3,0,2.4,1.1,2.4,2.4S260.5,516,259.2,516L259.2,516z M260.6,516.9
		c1.3,0,2.4,1.1,2.4,2.4v1.5h2.5c0.6,0,1.1,0.5,1.1,1.1v11.8h-1.1v-11.8h-12.8v2.1c0,0.7-0.6,1.4-1.4,1.4l-0.2,7.5
		c0,0.4-0.5,0.8-0.9,0.8h-2.5c-0.4,0-0.9-0.4-0.9-0.8l-0.2-7.5c-0.7,0-1.4-0.6-1.4-1.4v-2.1h-2.5v11.8h-1.1v-11.8
		c0-0.6,0.5-1.1,1.1-1.1h2.5v-1.5c0-1.3,1.1-2.4,2.4-2.4h2.7c1.3,0,2.4,1.1,2.4,2.4v1.5h2.9v-1.5c0-1.3,1.1-2.4,2.4-2.4H260.6z"/>
</g>
</svg>
