<?xml version="1.0" encoding="utf-8"?>
<!-- Generator: Adobe Illustrator 28.2.0, SVG Export Plug-In . SVG Version: 6.00 Build 0)  -->
<svg version="1.1" id="Layer_1" xmlns="http://www.w3.org/2000/svg" xmlns:xlink="http://www.w3.org/1999/xlink" x="0px" y="0px"
	 viewBox="0 0 684.2 906.7" style="enable-background:new 0 0 684.2 906.7;" xml:space="preserve">
<style type="text/css">
	.st0{fill:none;}
	.st1{fill:#231F20;}
	.st2{opacity:0.4;}
	.st3{opacity:0.45;fill:url(#SVGID_1_);stroke:#424343;stroke-miterlimit:10;enable-background:new    ;}
	
		.st4{opacity:0.45;fill:url(#SVGID_00000025415540473635697370000011675624527689473726_);stroke:#424343;stroke-miterlimit:10;enable-background:new    ;}
	.st5{opacity:0.89;fill:none;stroke:#010101;stroke-width:3;stroke-miterlimit:10;enable-background:new    ;}
	.st6{fill:#71A58E;stroke:#231F20;stroke-width:3;stroke-linecap:round;stroke-linejoin:round;}
	.st7{fill:#3F417F;stroke:#010101;stroke-width:3;stroke-miterlimit:10;}
	.st8{fill:#71A58E;stroke:#010101;stroke-width:3;stroke-miterlimit:10;}
	.st9{fill:#71A58E;stroke:#231F20;stroke-width:3;stroke-miterlimit:10;}
	.st10{fill:#0073A0;}
	.st11{fill:#FFFFFF;}
	.st12{opacity:0.4;fill:#1A4363;enable-background:new    ;}
	.st13{fill:#231F20;stroke:#FFFFFF;stroke-width:0.25;stroke-miterlimit:10;}
	.st14{display:none;opacity:0.25;fill:#1A4363;enable-background:new    ;}
	.st15{fill:none;stroke:#010101;stroke-width:4;stroke-miterlimit:10;}
	.st16{display:none;}
	.st17{display:inline;fill:#FFFFFF;stroke:#000000;stroke-miterlimit:10;}
	.st18{display:inline;}
	.st19{display:none;fill:#FFFFFF;stroke:#000000;stroke-miterlimit:10;}
	.st20{display:inline;fill:#231F20;}
	.st21{display:none;opacity:0.8;}
	.st22{fill:none;stroke:#000000;stroke-miterlimit:10;}
	.st23{stroke:#000000;stroke-miterlimit:10;}
	.st24{opacity:0.68;fill:#A1BB7E;enable-background:new    ;}
	.st25{font-family:'ArialMT';}
	.st26{font-size:22px;}
	.st27{enable-background:new    ;}
	.st28{font-size:20px;}
	.st29{font-size:18px;}
	.st30{font-size:15px;}
	.st31{fill:none;stroke:#231F20;stroke-width:6;stroke-linecap:round;stroke-linejoin:round;}
	.st32{fill:#FFFFFF;stroke:#231F20;stroke-width:6;stroke-linecap:round;stroke-linejoin:round;}
	.st33{fill:none;stroke:#FFFFFF;stroke-width:8;stroke-miterlimit:10;}
	.st34{fill:none;stroke:#FFFFFF;stroke-width:7;stroke-miterlimit:10;}
	.st35{display:none;enable-background:new    ;}
	.st36{fill:#5197BC;}
	.st37{font-family:'Arial-BoldMT';}
	.st38{font-size:33.4935px;}
	.st39{display:inline;fill:#5197BC;}
	.st40{font-family:'Arial-ItalicMT';}
	.st41{font-size:14.003px;}
	.st42{display:inline;fill:none;stroke:#5197BC;stroke-miterlimit:10;}
	.st43{font-size:14px;}
	.st44{fill:#C40000;stroke:#FFFFFF;stroke-width:3;stroke-miterlimit:10;}
	.st45{fill:#C40000;}
</style>
<pattern  y="906.7" width="28.8" height="28.8" patternUnits="userSpaceOnUse" id="SVGID_0000007658578572585511523" viewBox="1.4 -30.2 28.8 28.8" style="overflow:visible;">
	<g>
		<rect x="1.4" y="-30.2" class="st0" width="28.8" height="28.8"/>
		<g>
			<rect x="1.4" y="-30.2" class="st0" width="28.8" height="28.8"/>
			<g>
				<rect x="1.4" y="-30.2" class="st0" width="28.8" height="28.8"/>
				<g>
					<rect x="1.4" y="-30.2" class="st0" width="28.8" height="28.8"/>
					<g>
						<rect x="1.4" y="-30.2" class="st0" width="28.8" height="28.8"/>
						<g>
							<rect x="1.4" y="-30.2" class="st0" width="28.8" height="28.8"/>
							<g>
								<rect x="1.4" y="-30.2" class="st0" width="28.8" height="28.8"/>
								<g>
									<rect x="1.4" y="-30.2" class="st0" width="28.8" height="28.8"/>
									<g>
										<rect x="1.4" y="-30.2" class="st0" width="28.8" height="28.8"/>
										<g>
											<rect x="1.4" y="-30.2" class="st0" width="28.8" height="28.8"/>
											<g>
												<rect x="1.4" y="-30.2" class="st0" width="28.8" height="28.8"/>
												<g>
													<rect x="1.4" y="-30.2" class="st0" width="28.8" height="28.8"/>
													<g>
														<rect x="1.4" y="-30.2" class="st0" width="28.8" height="28.8"/>
														<g>
															<path class="st1" d="M30.2,0c0.8,0,1.4-0.6,1.4-1.4S31-2.8,30.2-2.8s-1.4,0.6-1.4,1.4C28.8-0.6,29.4,0,30.2,0z"/>
															<path class="st1" d="M15.8,0c0.8,0,1.4-0.6,1.4-1.4s-0.6-1.4-1.4-1.4c-0.8,0-1.4,0.6-1.4,1.4C14.4-0.6,15,0,15.8,0z"
																/>
															<path class="st1" d="M30.2-14.4c0.8,0,1.4-0.6,1.4-1.4s-0.6-1.4-1.4-1.4s-1.4,0.6-1.4,1.4
																C28.8-15,29.4-14.4,30.2-14.4z"/>
															<path class="st1" d="M15.8-14.4c0.8,0,1.4-0.6,1.4-1.4s-0.6-1.4-1.4-1.4c-0.8,0-1.4,0.6-1.4,1.4
																C14.4-15,15-14.4,15.8-14.4z"/>
															<path class="st1" d="M8.6-7.2c0.8,0,1.4-0.6,1.4-1.4S9.4-10,8.6-10c-0.8,0-1.4,0.6-1.4,1.4C7.2-7.8,7.8-7.2,8.6-7.2z
																"/>
															<path class="st1" d="M23-7.2c0.8,0,1.4-0.6,1.4-1.4S23.8-10,23-10s-1.4,0.6-1.4,1.4S22.2-7.2,23-7.2z"/>
															<path class="st1" d="M8.6-21.6c0.8,0,1.4-0.6,1.4-1.4s-0.6-1.4-1.4-1.4c-0.8,0-1.4,0.6-1.4,1.4
																C7.2-22.2,7.8-21.6,8.6-21.6z"/>
															<path class="st1" d="M23-21.6c0.8,0,1.4-0.6,1.4-1.4s-0.6-1.4-1.4-1.4s-1.4,0.6-1.4,1.4C21.6-22.2,22.2-21.6,23-21.6
																z"/>
														</g>
														<g>
															<path class="st1" d="M1.4,0c0.8,0,1.4-0.6,1.4-1.4S2.2-2.8,1.4-2.8C0.6-2.9,0-2.2,0-1.4C0-0.6,0.6,0,1.4,0z"/>
															<path class="st1" d="M1.4-14.4c0.8,0,1.4-0.6,1.4-1.4s-0.6-1.4-1.4-1.4S0-16.6,0-15.8S0.6-14.4,1.4-14.4z"/>
														</g>
														<g>
															<path class="st1" d="M30.2-28.8c0.8,0,1.4-0.6,1.4-1.4s-0.6-1.4-1.4-1.4s-1.4,0.6-1.4,1.4
																C28.8-29.4,29.4-28.8,30.2-28.8z"/>
															<path class="st1" d="M15.8-28.8c0.8,0,1.4-0.6,1.4-1.4s-0.6-1.4-1.4-1.4s-1.4,0.6-1.4,1.4
																C14.4-29.4,15-28.8,15.8-28.8z"/>
														</g>
														<g>
															<path class="st1" d="M1.4-28.8c0.8,0,1.4-0.6,1.4-1.4s-0.6-1.4-1.4-1.4C0.6-31.7,0-31,0-30.2
																C0-29.4,0.6-28.8,1.4-28.8z"/>
														</g>
													</g>
												</g>
											</g>
										</g>
									</g>
								</g>
							</g>
						</g>
					</g>
				</g>
			</g>
		</g>
	</g>
</pattern>
<pattern  y="906.7" width="28.8" height="28.8" patternUnits="userSpaceOnUse" id="SVGID_0000017459949320259750129" viewBox="1.4 -30.2 28.8 28.8" style="overflow:visible;">
	<g>
		<rect x="1.4" y="-30.2" class="st0" width="28.8" height="28.8"/>
		<g>
			<rect x="1.4" y="-30.2" class="st0" width="28.8" height="28.8"/>
			<g>
				<rect x="1.4" y="-30.2" class="st0" width="28.8" height="28.8"/>
				<g>
					<rect x="1.4" y="-30.2" class="st0" width="28.8" height="28.8"/>
					<g>
						<rect x="1.4" y="-30.2" class="st0" width="28.8" height="28.8"/>
						<g>
							<rect x="1.4" y="-30.2" class="st0" width="28.8" height="28.8"/>
							<g>
								<rect x="1.4" y="-30.2" class="st0" width="28.8" height="28.8"/>
								<g>
									<rect x="1.4" y="-30.2" class="st0" width="28.8" height="28.8"/>
									<g>
										<rect x="1.4" y="-30.2" class="st0" width="28.8" height="28.8"/>
										<g>
											<rect x="1.4" y="-30.2" class="st0" width="28.8" height="28.8"/>
											<g>
												<rect x="1.4" y="-30.2" class="st0" width="28.8" height="28.8"/>
												<g>
													<rect x="1.4" y="-30.2" class="st0" width="28.8" height="28.8"/>
													<g>
														<rect x="1.4" y="-30.2" class="st0" width="28.8" height="28.8"/>
														<g>
															<path class="st1" d="M30.2,0c0.8,0,1.4-0.6,1.4-1.4S31-2.8,30.2-2.8s-1.4,0.6-1.4,1.4C28.8-0.6,29.4,0,30.2,0z"/>
															<path class="st1" d="M15.8,0c0.8,0,1.4-0.6,1.4-1.4s-0.6-1.4-1.4-1.4c-0.8,0-1.4,0.6-1.4,1.4C14.4-0.6,15,0,15.8,0z"
																/>
															<path class="st1" d="M30.2-14.4c0.8,0,1.4-0.6,1.4-1.4s-0.6-1.4-1.4-1.4s-1.4,0.6-1.4,1.4
																C28.8-15,29.4-14.4,30.2-14.4z"/>
															<path class="st1" d="M15.8-14.4c0.8,0,1.4-0.6,1.4-1.4s-0.6-1.4-1.4-1.4c-0.8,0-1.4,0.6-1.4,1.4
																C14.4-15,15-14.4,15.8-14.4z"/>
															<path class="st1" d="M8.6-7.2c0.8,0,1.4-0.6,1.4-1.4S9.4-10,8.6-10c-0.8,0-1.4,0.6-1.4,1.4C7.2-7.8,7.8-7.2,8.6-7.2z
																"/>
															<path class="st1" d="M23-7.2c0.8,0,1.4-0.6,1.4-1.4S23.8-10,23-10s-1.4,0.6-1.4,1.4S22.2-7.2,23-7.2z"/>
															<path class="st1" d="M8.6-21.6c0.8,0,1.4-0.6,1.4-1.4s-0.6-1.4-1.4-1.4c-0.8,0-1.4,0.6-1.4,1.4
																C7.2-22.2,7.8-21.6,8.6-21.6z"/>
															<path class="st1" d="M23-21.6c0.8,0,1.4-0.6,1.4-1.4s-0.6-1.4-1.4-1.4s-1.4,0.6-1.4,1.4C21.6-22.2,22.2-21.6,23-21.6
																z"/>
														</g>
														<g>
															<path class="st1" d="M1.4,0c0.8,0,1.4-0.6,1.4-1.4S2.2-2.8,1.4-2.8C0.6-2.9,0-2.2,0-1.4C0-0.6,0.6,0,1.4,0z"/>
															<path class="st1" d="M1.4-14.4c0.8,0,1.4-0.6,1.4-1.4s-0.6-1.4-1.4-1.4S0-16.6,0-15.8S0.6-14.4,1.4-14.4z"/>
														</g>
														<g>
															<path class="st1" d="M30.2-28.8c0.8,0,1.4-0.6,1.4-1.4s-0.6-1.4-1.4-1.4s-1.4,0.6-1.4,1.4
																C28.8-29.4,29.4-28.8,30.2-28.8z"/>
															<path class="st1" d="M15.8-28.8c0.8,0,1.4-0.6,1.4-1.4s-0.6-1.4-1.4-1.4s-1.4,0.6-1.4,1.4
																C14.4-29.4,15-28.8,15.8-28.8z"/>
														</g>
														<g>
															<path class="st1" d="M1.4-28.8c0.8,0,1.4-0.6,1.4-1.4s-0.6-1.4-1.4-1.4C0.6-31.7,0-31,0-30.2
																C0-29.4,0.6-28.8,1.4-28.8z"/>
														</g>
													</g>
												</g>
											</g>
										</g>
									</g>
								</g>
							</g>
						</g>
					</g>
				</g>
			</g>
		</g>
	</g>
</pattern>
<g id="Spaces" class="st2">
	<g id="employee_areas">
		<pattern  id="SVGID_1_" xlink:href="#SVGID_0000017459949320259750129" patternTransform="matrix(1 0 0 1 -320 138565.0156)">
		</pattern>
		<polyline class="st3" points="35.7,536.1 3.1,604 118.2,658.5 119.1,823.1 194.1,859.4 195.8,733.7 286,733.4 285.3,618 
			278.8,618.2 221.6,617.7 221.8,443.5 167.9,443.7 167.6,538.1 35.7,536.1 		"/>
		
			<pattern  id="SVGID_00000052065454685149877280000013982792965484055206_" xlink:href="#SVGID_0000007658578572585511523" patternTransform="matrix(1 0 0 1 -34.8 104105.5859)">
		</pattern>
		
			<polyline style="opacity:0.45;fill:url(#SVGID_00000052065454685149877280000013982792965484055206_);stroke:#424343;stroke-miterlimit:10;enable-background:new    ;" points="
			409.3,663.5 442.7,663.6 442.9,690.3 523.2,690.2 523.4,616.7 408.4,617 		"/>
	</g>
	<line class="st5" x1="263.4" y1="203.9" x2="263.4" y2="283"/>
	<path id="cafe_00000052796716991338462910000004400667937314557858_" class="st6" d="M263.5,205H119.1v-70.6h144.4V205z"/>
	<path id="_x31_25" class="st7" d="M285.9,733.6l-92.3,0.1l-0.1,125.7l91.6,43.2L285.9,733.6z"/>
	<polyline id="PAR" class="st8" points="166.9,539.1 166.9,443.4 166.9,445 79.6,444.9 36.2,536.1 166.1,537.1 	"/>
	<path id="DHC" class="st9" d="M523.2,690l-80.3,0.3l-0.2-26.9l-34.7,0.1l0.5-46.5l-43.8,0.1l0.1,160.9L524,721.4L523.2,690z"/>
	<path id="children_x27_s_room" class="st9" d="M438.8,463.3l85.6,0.4L680.8,138l-93.9-1.6l-13-16l-213.2,15.3l0.8,226.9
		 M361.3,361.3l78.9,102.8"/>
</g>
<g id="restroom">
	<rect x="122.5" y="206.9" class="st10" width="73.1" height="75.5"/>
	<path class="st11" d="M168.5,232.6c1.2,0,2.1-0.9,2.1-2.1c0-1.2-0.9-2.1-2.1-2.1s-2.1,0.9-2.1,2.1
		C166.3,231.7,167.3,232.6,168.5,232.6z"/>
	<path class="st11" d="M174.3,241l-1.8-6.3c-0.4-1.2-1.3-1.6-2.6-1.6l0,0H167l0,0c-1.3,0-2.1,0.4-2.6,1.6l-1.8,6.3
		c-0.1,0.4,0.1,0.8,0.7,0.9c0.4,0.1,0.9-0.1,1-0.5l1.6-5.5h0.4l-2.7,9.6h2.6v6.8c0,0.5,0.5,1,1,1s1-0.5,1-1v-6.8h0.5v6.8
		c0,0.5,0.5,1,1,1s1-0.5,1-1v-6.8h2.6l-2.7-9.6h0.4l1.6,5.5c0.1,0.4,0.5,0.7,1,0.5C174.1,241.8,174.4,241.4,174.3,241z"/>
	<path class="st11" d="M147.3,232.6c1.2,0,2.1-0.9,2.1-2.1c0-1.2-0.9-2.1-2.1-2.1c-1.2,0-2.1,0.9-2.1,2.1
		C145,231.7,146.1,232.6,147.3,232.6z"/>
	<path class="st11" d="M150,233.1h-5.5c-1.3,0-2.4,1-2.4,2.4v6.7c0,0.5,0.4,0.9,0.9,0.9s0.9-0.4,0.9-0.9v-5.9h0.5v6.8v9.2
		c0,0.7,0.5,1.2,1.2,1.2s1.2-0.5,1.2-1.2v-9.2h0.5v9.2c0,0.7,0.5,1.2,1.2,1.2s1.2-0.5,1.2-1.2v-9.2v-6.8h0.5v5.9
		c0,0.5,0.4,0.9,0.9,0.9s0.9-0.4,0.9-0.9v-6.7C152.4,234.2,151.3,233.1,150,233.1z"/>
	<rect x="157.1" y="228.4" class="st11" width="2.4" height="24.9"/>
	<g>
		<circle class="st10" cx="578.3" cy="309.7" r="15"/>
		<g id="Layer_1_00000043417269205140031930000013075138157533666726_">
			<g>
				<g>
					<g>
						<path class="st11" d="M571.4,303.8c0.8,0,1.6-0.7,1.6-1.5s-0.7-1.4-1.6-1.4c-0.8,0-1.5,0.6-1.5,1.4S570.6,303.8,571.4,303.8z"
							/>
						<path class="st11" d="M573.4,304.1h-3.9c-0.9,0-1.7,0.7-1.7,1.7v4.8c0,0.3,0.3,0.6,0.6,0.6s0.6-0.3,0.6-0.6v-4.2h0.3v4.8v6.5
							c0,0.5,0.4,0.8,0.8,0.8c0.5,0,0.8-0.4,0.8-0.8v-6.5h0.4v6.5c0,0.5,0.4,0.8,0.8,0.8c0.5,0,0.8-0.4,0.8-0.8v-6.5v-4.8h0.3v4.1
							c0,0.3,0.3,0.6,0.6,0.6s0.6-0.3,0.6-0.6v-4.8C575,304.8,574.3,304.1,573.4,304.1z"/>
					</g>
					<g>
						<path class="st11" d="M584.5,303.8c0.8,0,1.5-0.7,1.5-1.5s-0.7-1.5-1.5-1.5c-0.8,0.1-1.6,0.7-1.6,1.5S583.7,303.8,584.5,303.8
							z"/>
						<path class="st11" d="M588.7,309.7l-1.2-4.5c-0.3-0.8-0.9-1.1-1.9-1.1l0,0h-2.1l0,0c-0.9,0-1.6,0.3-1.9,1.1l-1.2,4.5
							c-0.1,0.3,0.1,0.6,0.4,0.7s0.6-0.1,0.7-0.3l1.1-3.9h0.3l-2,6.8h1.9v4.9c0,0.4,0.3,0.7,0.7,0.7s0.7-0.3,0.7-0.7V313h0.3v4.9
							c0,0.4,0.3,0.7,0.7,0.7s0.7-0.3,0.7-0.7V313h1.9l-1.9-6.9h0.3l1.1,3.9c0.1,0.3,0.4,0.4,0.7,0.3
							C588.6,310.3,588.8,309.9,588.7,309.7z"/>
					</g>
				</g>
				<rect x="577.4" y="300.8" class="st11" width="1.7" height="17.7"/>
			</g>
		</g>
	</g>
</g>
<g id="escalator_00000150794383660195744430000003786862563213663129_">
	<rect x="371.4" y="465" class="st12" width="34" height="107.7"/>
	<g>
		<g>
			<g>
				<path class="st13" d="M385.2,503.8c1.6,0,2.8-1.4,2.8-2.8c0-1.6-1.4-2.8-2.8-2.8c-1.6,0-2.8,1.4-2.8,2.8
					C382.3,502.4,383.7,503.8,385.2,503.8z"/>
				<path class="st13" d="M388.3,507.7c0-1.6-1.4-3-3-3s-3,1.4-3,3v6.8l6-6V507.7L388.3,507.7z"/>
				<path class="st13" d="M398.9,506.8h-5.3c-0.9,0-1.7,0.4-2.4,1.1l-9.3,9.3h-4.1c-1.9,0-3.4,1.6-3.4,3.4c0,1.9,1.6,3.4,3.4,3.4
					h5.6c0.9,0,1.7-0.4,2.4-1.1l9.3-9.3h3.8c1.9,0,3.4-1.6,3.4-3.4C402.2,508.3,400.8,506.8,398.9,506.8z"/>
			</g>
			<g>
				<path class="st13" d="M398.4,518.8c0.3,0,0.5,0.1,0.4,0.4l-0.9,4.9c0,0.3-0.3,0.4-0.4,0.5c-0.3,0.1-0.4,0.1-0.5,0l-0.5-0.5
					l-3.6,3.6c-0.3,0.3-0.7,0.3-0.8,0.1l-2.5-2.5c-0.1-0.1-0.1-0.5,0.1-0.8l3.6-3.6l-0.5-0.5c-0.1-0.1-0.1-0.4,0-0.5
					c0.1-0.3,0.4-0.4,0.5-0.4L398.4,518.8z"/>
			</g>
		</g>
	</g>
</g>
<g id="elevator">
	
		<rect x="441.2" y="469.3" transform="matrix(1.787244e-03 -1 1 1.787244e-03 -28.2979 927.1085)" class="st12" width="18.1" height="16.9"/>
	
		<rect x="441" y="494" transform="matrix(1.787244e-03 -1 1 1.787244e-03 -53.2592 951.614)" class="st12" width="18.1" height="16.9"/>
	
		<rect x="440.9" y="518.8" transform="matrix(1.787244e-03 -1 1 1.787244e-03 -78.131 976.3037)" class="st14" width="18.1" height="16.9"/>
	
		<rect x="440.8" y="543.4" transform="matrix(1.787244e-03 -1 1 1.787244e-03 -102.7177 1000.7168)" class="st12" width="18.1" height="16.9"/>
	
		<rect x="441.1" y="568.1" transform="matrix(1.787244e-03 -1 1 1.787244e-03 -127.1659 1025.7017)" class="st12" width="18.1" height="16.9"/>
	<line class="st15" x1="463.1" y1="465.9" x2="463.1" y2="592.4"/>
	<g class="st16">
		<path class="st17" d="M451.8,512.2h-15.1c-4.1,0-7.4,3.3-7.4,7.4v15.1c0,4.1,3.3,7.4,7.4,7.4h15.1c4.1,0,7.4-3.3,7.4-7.4v-15.1
			C459.2,515.5,455.9,512.2,451.8,512.2z"/>
		<g class="st18">
			<path class="st1" d="M440.3,514c-0.2-0.2-0.4-0.3-0.6-0.3s-0.5,0.1-0.6,0.3c-0.5,0.5-1.4,1.4-2.7,2.7c-0.4,0.4-0.4,1,0,1.3
				c0.3,0.3,0.9,0.3,1.2,0l1.1-1.1v3.5c0,0.5,0.4,0.9,0.9,0.9h0.1c0.5,0,0.9-0.4,0.9-0.9v-3.5l1.1,1.1c0.3,0.3,0.9,0.3,1.2,0l0,0
				c0.3-0.3,0.3-0.9,0-1.2C441.6,515.3,440.9,514.6,440.3,514z"/>
			<path class="st1" d="M448.1,521c0.2,0.2,0.4,0.3,0.6,0.3s0.5-0.1,0.6-0.3c0.5-0.5,1.4-1.4,2.7-2.7c0.4-0.4,0.4-1,0-1.3
				c-0.3-0.3-0.9-0.3-1.2,0l-1.1,1.1v-3.5c0-0.5-0.4-0.9-0.9-0.9h-0.1c-0.5,0-0.9,0.4-0.9,0.9v3.5l-1.1-1.1c-0.3-0.3-0.9-0.3-1.2,0
				l0,0c-0.3,0.3-0.3,0.9,0,1.2C446.8,519.7,447.5,520.4,448.1,521z"/>
		</g>
		<g class="st18">
			<g>
				<path class="st1" d="M447.5,528c0.5,0,1-0.4,1-1c0-0.5-0.4-1-1-1c-0.5,0-1,0.4-1,1C446.6,527.5,447,528,447.5,528z"/>
				<path class="st1" d="M448.8,528.1h-2.4c-0.6,0-1,0.5-1,1v3c0,0.2,0.2,0.4,0.4,0.4c0.2,0,0.4-0.2,0.4-0.4v-2.6h0.2v3v4.1
					c0,0.3,0.2,0.6,0.6,0.6c0.3,0,0.6-0.2,0.6-0.6v-4.1h0.2v4.1c0,0.3,0.2,0.6,0.6,0.6c0.3,0,0.6-0.2,0.6-0.6v-4.1v-3h0.2v2.6
					c0,0.2,0.2,0.4,0.4,0.4c0.2,0,0.4-0.2,0.4-0.4v-3C449.8,528.6,449.3,528.1,448.8,528.1z"/>
			</g>
			<path class="st1" d="M441.3,528c0.5,0,1-0.4,1-1c0-0.5-0.4-1-1-1c-0.5,0-1,0.4-1,1C440.3,527.5,440.7,528,441.3,528z"/>
			<path class="st1" d="M443.9,531.7l-0.8-2.8c-0.2-0.5-0.6-0.7-1.2-0.7l0,0h-1.3l0,0c-0.6,0-1,0.2-1.2,0.7l-0.8,2.8
				c-0.1,0.2,0.1,0.4,0.3,0.4c0.2,0.1,0.4,0,0.5-0.2l0.7-2.5h0.2l-1.2,4.3h1.2v3c0,0.3,0.2,0.5,0.5,0.5s0.5-0.2,0.5-0.5v-3h0.2v3
				c0,0.3,0.2,0.5,0.5,0.5s0.5-0.2,0.5-0.5v-3h1.2l-1.2-4.3h0.2l0.7,2.5c0.1,0.2,0.3,0.3,0.5,0.2C443.8,532,443.9,531.8,443.9,531.7
				z"/>
		</g>
		<g class="st18">
			<path class="st1" d="M450.4,540.6H438c-2.5,0-4.6-2.6-4.6-5.7v-6.5c0-3.2,2.1-5.7,4.6-5.7h12.3c2.5,0,4.6,2.6,4.6,5.7v6.5
				C454.9,538,452.9,540.6,450.4,540.6z M438,524.7c-1.6,0-2.9,1.6-2.9,3.6v6.5c0,2,1.3,3.6,2.9,3.6h12.3c1.6,0,2.9-1.6,2.9-3.6
				v-6.5c0-2-1.3-3.6-2.9-3.6H438z"/>
		</g>
	</g>
	<g>
		<path class="st19" d="M448.9,512.2h-15.1c-4.1,0-7.4,3.3-7.4,7.4v15.1c0,4.1,3.3,7.4,7.4,7.4h15.1c4.1,0,7.4-3.3,7.4-7.4v-15.1
			C456.3,515.5,453,512.2,448.9,512.2z"/>
		<g>
			<path class="st1" d="M446,513.6c-0.2-0.2-0.4-0.3-0.6-0.3s-0.5,0.1-0.6,0.3c-0.5,0.5-1.4,1.4-2.7,2.7c-0.4,0.4-0.4,1,0,1.3
				c0.3,0.3,0.9,0.3,1.2,0l1.1-1.1v3.5c0,0.5,0.4,0.9,0.9,0.9h0.1c0.5,0,0.9-0.4,0.9-0.9v-3.5l1.1,1.1c0.3,0.3,0.9,0.3,1.2,0l0,0
				c0.3-0.3,0.3-0.9,0-1.2C447.3,514.9,446.6,514.2,446,513.6z"/>
			<path class="st1" d="M453.8,520.6c0.2,0.2,0.4,0.3,0.6,0.3s0.5-0.1,0.6-0.3c0.5-0.5,1.4-1.4,2.7-2.7c0.4-0.4,0.4-1,0-1.3
				c-0.3-0.3-0.9-0.3-1.2,0l-1.1,1.1v-3.5c0-0.5-0.4-0.9-0.9-0.9h-0.1c-0.5,0-0.9,0.4-0.9,0.9v3.5l-1.1-1.1c-0.3-0.3-0.9-0.3-1.2,0
				l0,0c-0.3,0.3-0.3,0.9,0,1.2C452.5,519.3,453.2,520,453.8,520.6z"/>
		</g>
		<g>
			<g>
				<path class="st1" d="M453.2,527.6c0.5,0,1-0.4,1-1c0-0.5-0.4-1-1-1c-0.5,0-1,0.4-1,1C452.3,527.1,452.7,527.6,453.2,527.6z"/>
				<path class="st1" d="M454.5,527.7h-2.4c-0.6,0-1,0.5-1,1v3c0,0.2,0.2,0.4,0.4,0.4c0.2,0,0.4-0.2,0.4-0.4v-2.6h0.2v3v4.1
					c0,0.3,0.2,0.6,0.6,0.6c0.3,0,0.6-0.2,0.6-0.6v-4.1h0.2v4.1c0,0.3,0.2,0.6,0.6,0.6c0.3,0,0.6-0.2,0.6-0.6v-4.1v-3h0.2v2.6
					c0,0.2,0.2,0.4,0.4,0.4c0.2,0,0.4-0.2,0.4-0.4v-3C455.5,528.2,455,527.7,454.5,527.7z"/>
			</g>
			<path class="st1" d="M447,527.6c0.5,0,1-0.4,1-1c0-0.5-0.4-1-1-1c-0.5,0-1,0.4-1,1C446,527.1,446.4,527.6,447,527.6z"/>
			<path class="st1" d="M449.6,531.3l-0.8-2.8c-0.2-0.5-0.6-0.7-1.2-0.7l0,0h-1.3l0,0c-0.6,0-1,0.2-1.2,0.7l-0.8,2.8
				c-0.1,0.2,0.1,0.4,0.3,0.4c0.2,0.1,0.4,0,0.5-0.2l0.7-2.5h0.2l-1.2,4.3h1.2v3c0,0.3,0.2,0.5,0.5,0.5s0.5-0.2,0.5-0.5v-3h0.2v3
				c0,0.3,0.2,0.5,0.5,0.5s0.5-0.2,0.5-0.5v-3h1.2l-1.2-4.3h0.2l0.7,2.5c0.1,0.2,0.3,0.3,0.5,0.2
				C449.5,531.6,449.6,531.4,449.6,531.3z"/>
		</g>
		<g>
			<path class="st1" d="M456.1,540.2h-12.4c-2.5,0-4.6-2.6-4.6-5.7V528c0-3.2,2.1-5.7,4.6-5.7H456c2.5,0,4.6,2.6,4.6,5.7v6.5
				C460.6,537.6,458.6,540.2,456.1,540.2z M443.7,524.3c-1.6,0-2.9,1.6-2.9,3.6v6.5c0,2,1.3,3.6,2.9,3.6H456c1.6,0,2.9-1.6,2.9-3.6
				v-6.5c0-2-1.3-3.6-2.9-3.6H443.7z"/>
		</g>
	</g>
</g>
<g id="stairs_00000032626799022009418030000006004862700355200132_">
	<path class="st19" d="M488.8,558.3h-17.6c-4.8,0-8.7,3.9-8.7,8.7v17.6c0,4.8,3.9,8.7,8.7,8.7h17.6c4.8,0,8.7-3.9,8.7-8.7V567
		C497.5,562.2,493.6,558.3,488.8,558.3z"/>
	<g>
		<path class="st1" d="M473.3,565.5c1,0,1.9-0.8,1.9-1.9c0-1-0.8-1.9-1.9-1.9c-1,0-1.9,0.8-1.9,1.9
			C471.5,564.7,472.3,565.5,473.3,565.5z"/>
		<path class="st1" d="M469.9,571.4c0.6,0,1.1-0.4,1.1-1v-1.2l0.6-0.4v3v0.6l-1.8,6.9c-0.2,0.5,0.2,1.1,0.7,1.2
			c0.6,0.2,1.2-0.1,1.4-0.7l1.6-6.4h1.6v2.1c0,0.6,0.5,1,1.1,1s1.1-0.4,1.1-1v-3.1c0-0.6-0.5-1-1.1-1l0,0l0,0h-2.4v-1.9l0.6,0.6
			c0.2,0.2,0.5,0.4,0.9,0.4l0,0h2c0.6,0,1.1-0.4,1.1-1s-0.5-1-1.1-1h-1.6l-2-2.2l-0.1-0.1c-0.1-0.1-0.2-0.3-0.4-0.4l0,0h-0.1l0,0
			H473l0,0c0,0,0,0-0.1,0l0,0c0,0,0,0-0.1,0l0,0c0,0,0,0-0.1,0l0,0l0,0l0,0c0,0,0,0-0.1,0c0,0,0,0-0.1,0l0,0c0,0,0,0-0.1,0l0,0
			c0,0,0,0-0.1,0l0,0c0,0,0,0-0.1,0l0,0c0,0,0,0-0.1,0l0,0c0,0,0,0-0.1,0l0,0l-2.8,2c-0.3,0.2-0.4,0.5-0.4,0.8l0,0v1.7
			C468.8,571,469.2,571.4,469.9,571.4z"/>
		<path class="st1" d="M490.4,568h-5.1c-0.2,0-0.3,0.2-0.4,0.4v4.7h-4.7c-0.2,0-0.3,0.2-0.4,0.4v5h-4.9c-0.2,0-0.3,0.2-0.4,0.4v4.6
			h-4.7c-0.2,0-0.3,0.2-0.4,0.4v4.4c0,0.2,0.2,0.3,0.4,0.4h20.5c0.2,0,0.3-0.2,0.4-0.4l-0.1-19.8C490.7,568.2,490.6,568.1,490.4,568
			z"/>
	</g>
	<g class="st16">
		<path class="st1" d="M465,563.5c1.1,0,2.1-0.9,2.1-2.1c0-1.1-0.9-2.1-2.1-2.1c-1.1,0-2.1,0.9-2.1,2.1
			C463,562.6,463.9,563.5,465,563.5z"/>
		<path class="st1" d="M461.2,570c0.7,0,1.2-0.4,1.2-1.1v-1.3l0.7-0.4v3.3v0.7l-2,7.7c-0.2,0.6,0.2,1.2,0.8,1.3
			c0.7,0.2,1.3-0.1,1.6-0.8l1.8-7.1h1.8v2.3c0,0.7,0.6,1.1,1.2,1.1c0.7,0,1.2-0.4,1.2-1.1v-3.4c0-0.7-0.6-1.1-1.2-1.1l0,0l0,0h-2.7
			V568l0.7,0.7c0.2,0.2,0.6,0.4,1,0.4l0,0h2.2c0.7,0,1.2-0.4,1.2-1.1s-0.6-1.1-1.2-1.1h-1.9l-2.2-2.4l-0.1-0.1
			c-0.1-0.1-0.2-0.3-0.4-0.4l0,0h-0.1l0,0h-0.2l0,0c0,0,0,0-0.1,0l0,0c0,0,0,0-0.1,0l0,0c0,0,0,0-0.1,0l0,0l0,0l0,0c0,0,0,0-0.1,0
			c0,0,0,0-0.1,0l0,0c0,0,0,0-0.1,0l0,0c0,0,0,0-0.1,0l0,0c0,0,0,0-0.1,0l0,0c0,0,0,0-0.1,0l0,0c0,0,0,0-0.1,0l0,0l-3.1,2.2
			c-0.3,0.2-0.4,0.6-0.4,0.9l0,0v1.9C460,569.6,460.4,570,461.2,570z"/>
		<path class="st20" d="M484,582v-5.7c0-0.2-0.2-0.3-0.4-0.4h-5.2v-5.3c0-0.2-0.2-0.3-0.4-0.4h-5.6v-5.4c0-0.2-0.2-0.3-0.4-0.4h-5.1
			v-5.2c0-0.2-0.2-0.3-0.4-0.4h-4.9c-0.2,0-0.3,0.2-0.4,0.4V582c0,0.2,0.2,0.3,0.4,0.4l22-0.1C483.7,582.3,483.8,582.2,484,582z"/>
	</g>
	<g id="stairs" class="st21">
		<g class="st18">
			<polygon class="st22" points="486.6,556.2 486.6,556.2 486.6,556.2 472.7,556.2 458.7,556.1 458.7,588.6 472.6,588.7 
				472.6,570.1 486.6,570.2 486.6,588.8 500.5,588.8 500.6,556.2 			"/>
			<line class="st22" x1="472.6" y1="584.1" x2="458.7" y2="584.1"/>
			<line class="st22" x1="472.6" y1="579.4" x2="458.7" y2="579.4"/>
			<line class="st22" x1="472.6" y1="574.8" x2="458.7" y2="574.8"/>
			<line class="st22" x1="486.6" y1="584.1" x2="500.5" y2="584.1"/>
			<line class="st22" x1="486.6" y1="579.5" x2="500.5" y2="579.5"/>
			<line class="st22" x1="486.6" y1="574.8" x2="500.5" y2="574.8"/>
			<line class="st22" x1="486.6" y1="570.2" x2="486.6" y2="556.2"/>
			<line class="st22" x1="481.9" y1="570.2" x2="482" y2="556.2"/>
			<line class="st22" x1="477.3" y1="570.1" x2="477.3" y2="556.2"/>
			<line class="st22" x1="472.6" y1="570.1" x2="472.7" y2="556.2"/>
			<line class="st22" x1="500.5" y1="570.2" x2="486.6" y2="570.2"/>
			<line class="st22" x1="500.5" y1="570.2" x2="458.7" y2="570.1"/>
			<polyline class="st22" points="465.6,588.7 465.7,562.7 493.5,562.7 493.6,585.2 			"/>
			<polygon class="st23" points="493.5,588.7 494.5,585.2 493.6,585.2 492.6,585.2 			"/>
			<path class="st23" d="M464.8,588.8c0,0.4,0.4,0.8,0.8,0.8s0.8-0.4,0.8-0.8c0-0.4-0.4-0.8-0.8-0.8S464.8,588.3,464.8,588.8z"/>
		</g>
	</g>
</g>
<rect id="circ" x="237.7" y="453" class="st24" width="26.6" height="152.5"/>
<ellipse id="wepa" transform="matrix(0.1602 -0.9871 0.9871 0.1602 -175.8554 571.1067)" class="st24" cx="247.7" cy="388.9" rx="27.4" ry="27.4"/>
<g id="Text">
	<text transform="matrix(1 0 0 1 398.8255 275.222)" class="st25 st26">Children’s Room</text>
	<text transform="matrix(1 0 0 1 174.319 169.9156)" class="st27"><tspan x="0" y="0" class="st25 st28">Nirvana</tspan><tspan x="0" y="17" class="st25 st28">Soul</tspan></text>
	<text transform="matrix(1 0 0 1 84.3584 503.8898)" class="st25 st28">Partners</text>
	<text transform="matrix(1 0 0 1 64.3195 525.4898)" class="st25 st28">in Reading</text>
	<text transform="matrix(1 0 0 1 372.1751 704.3572)" class="st25 st29">Digital</text>
	<text transform="matrix(1 0 0 1 372.1751 722.4578)" class="st25 st29">Humanities</text>
	<text transform="matrix(1 0 0 1 372.1751 740.5573)" class="st25 st29">Center</text>
	<text transform="matrix(1 0 0 1 224.6164 807.5609)" class="st25 st29">125</text>
	<text transform="matrix(1 0 0 1 372.1754 681.786)" class="st25 st30">113</text>
</g>
<g id="floor_outline">
	<line class="st31" x1="681.1" y1="137.8" x2="524.8" y2="462.7"/>
	<line class="st31" x1="3.1" y1="603.6" x2="119.6" y2="361.3"/>
	<line class="st31" x1="118.2" y1="658.7" x2="2.9" y2="603.9"/>
	<line class="st31" x1="118.9" y1="823.5" x2="285.5" y2="903.7"/>
	<line class="st31" x1="325.3" y1="3" x2="263.1" y2="133.7"/>
	<line class="st31" x1="468" y1="71.6" x2="325.3" y2="3"/>
	<line class="st31" x1="119.5" y1="134.6" x2="263.1" y2="133.7"/>
	<line class="st31" x1="525.4" y1="40.1" x2="469.8" y2="71.8"/>
	<line class="st31" x1="525.4" y1="123.2" x2="525.4" y2="40.1"/>
	<line class="st31" x1="525.4" y1="123.2" x2="573.4" y2="119.9"/>
	<line class="st31" x1="586.2" y1="135.7" x2="573.4" y2="119.9"/>
	<line class="st31" x1="681.1" y1="137.5" x2="587.2" y2="136.7"/>
	<line class="st31" x1="119.3" y1="134.8" x2="119.9" y2="360.8"/>
	<line class="st31" x1="464.1" y1="462.7" x2="524" y2="462.7"/>
	<line class="st31" x1="464" y1="555.1" x2="464.1" y2="463"/>
	<line class="st31" x1="464" y1="555.8" x2="524.1" y2="555.8"/>
	<line class="st31" x1="524.1" y1="721.6" x2="524.1" y2="555.8"/>
	<line class="st31" x1="286.2" y1="828.7" x2="285.5" y2="903.7"/>
	<line class="st31" x1="118.9" y1="823.5" x2="118.2" y2="658.7"/>
	<line class="st31" x1="316.4" y1="828.1" x2="286.2" y2="827.7"/>
	<line class="st31" x1="523.2" y1="721.7" x2="364.5" y2="778.9"/>
	<line class="st31" x1="364.4" y1="779.1" x2="316.7" y2="827.6"/>
	<path class="st32" d="M265.9,126"/>
</g>
<g id="Doors">
	<line class="st33" x1="525.7" y1="75.7" x2="525.7" y2="101.5"/>
	<line class="st33" x1="309.7" y1="35.2" x2="296" y2="64.5"/>
	<line class="st33" x1="362.3" y1="20.4" x2="389.2" y2="33.2"/>
	<line class="st34" x1="287.1" y1="748.2" x2="287.2" y2="776.5"/>
	<line class="st33" x1="507.9" y1="728.2" x2="483" y2="736.9"/>
	<line class="st33" x1="383.6" y1="393.2" x2="399.1" y2="413.4"/>
	<line class="st33" x1="265.3" y1="149.7" x2="265.2" y2="175.2"/>
	<line class="st33" x1="135.5" y1="443" x2="109.9" y2="443"/>
	<line class="st33" x1="352.5" y1="791.6" x2="327.2" y2="817.4"/>
	<line class="st33" x1="224.9" y1="133.5" x2="199.3" y2="133.6"/>
	<line class="st34" x1="363.5" y1="741.6" x2="363.6" y2="769.9"/>
</g>
<g id="Entrances">
	<text transform="matrix(1 0 0 1 374.3289 851.2615)" class="st25 st28">Campus Entrance</text>
	<text transform="matrix(1 0 0 1 42.7995 35.2)" class="st25 st28">San Fernando Entrance</text>
	<text transform="matrix(1 0 0 1 172.9208 45.0229)" class="st35 st25 st28">Entrance</text>
	<g>
		<polygon points="263.8,29.7 261.3,35.3 272.1,40.1 270.1,44.7 287.8,43.8 276.7,29.9 274.6,34.5 		"/>
	</g>
	<g>
		<polygon points="366.6,837.4 370.9,833.1 362.4,824.8 366,821.2 349,815.9 354.6,832.8 358.2,829.1 		"/>
	</g>
</g>
<g id="North">
	<polygon class="st36" points="623.6,54.3 591.6,64.1 633.4,86.3 	"/>
	<text transform="matrix(0.8965 0.4431 -0.4431 0.8965 618.181 41.7799)" class="st36 st37 st38">N</text>
</g>
<g id="San_Fernando" class="st16">
	<text transform="matrix(0.9331 0.3596 -0.3596 0.9331 536.876 20.0398)" class="st39 st40 st41">San Fernando Street</text>
	<line class="st42" x1="684.2" y1="60.6" x2="529.7" y2="1.2"/>
	<line class="st42" x1="677.3" y1="78.6" x2="522.8" y2="19.2"/>
</g>
<g id="_x34_th_Street" class="st16">
	<text transform="matrix(0.4237 -0.9058 0.9058 0.4237 44.0304 173.5342)" class="st39 st40 st43">Fourth Street</text>
	<line class="st42" x1="82.5" y1="55" x2="10.8" y2="204.2"/>
	<line class="st42" x1="102.9" y1="63.6" x2="31.2" y2="212.8"/>
</g>
<g id="Emergency_exits">
	<g class="st16">
		<g class="st18">
			<path class="st44" d="M519.1,587.7l-7.2-2.5c-0.4-0.1-0.9,0.2-0.9,0.7v2h-7c-0.3,0-0.5,0.2-0.5,0.5v2.2c0.4,0.1,0.8,0.2,1.1,0.3
				v-2h6.4v21.9h-4.3l0.1,0.3c0.1,0.3,0.1,0.5,0.1,0.9h4.1v2c0,0.4,0.4,0.8,0.9,0.7l7.2-2.5c0.3-0.1,0.4-0.3,0.4-0.7v-23.1
				C519.6,588,519.3,587.8,519.1,587.7z"/>
			<path class="st44" d="M492.9,609.8h4.6c0.7,0,1.1-0.4,1.3-1l0.4-1.9L497,605c0,0,0,0-0.1-0.1l-0.5,2h-3.5c-0.8,0-1.4,0.7-1.4,1.4
				C491.6,609.3,492.1,609.8,492.9,609.8z"/>
			<path class="st44" d="M503.5,596.6c1.3-0.3,2.1-1.5,1.8-2.9c-0.3-1.3-1.5-2.1-2.9-1.8c-1.3,0.3-2.1,1.5-1.8,2.9
				C501,596.1,502.2,596.9,503.5,596.6z"/>
			<path class="st44" d="M494.8,602.4c0.5,0.2,1.2,0,1.5-0.5l0.9-2.1l1.3-0.4l-1,3.9c-0.1,0.5,0.1,1.1,0.4,1.4l3.8,3.2l1,4.2
				c0.1,0.7,0.8,1,1.3,1c0.1,0,0.2,0,0.3,0c0.8-0.2,1.2-0.9,1-1.6l-1.1-4.6c-0.1-0.3-0.2-0.5-0.4-0.8l-2.4-2l1.3-3.4l1.3,1.5
				c0.2,0.2,0.5,0.4,0.9,0.4c0.2,0,0.4-0.1,0.5-0.2l2.3-1.4c0.5-0.3,0.8-1,0.4-1.5s-1-0.8-1.5-0.4l-1.5,0.9l-1.2-1.4
				c-0.3-0.3-0.8-0.7-1.2-0.9l-2.1-0.8c-0.7-0.2-1.3-0.2-1.9,0l-2.6,0.9c-0.3,0.1-0.5,0.3-0.7,0.7l-1.1,2.5
				C493.9,601.5,494.1,602.2,494.8,602.4z"/>
		</g>
	</g>
	<g class="st16">
		<g class="st18">
			<path class="st45" d="M519.1,587.7l-7.2-2.5c-0.4-0.1-0.9,0.2-0.9,0.7v2h-7c-0.3,0-0.5,0.2-0.5,0.5v2.2c0.4,0.1,0.8,0.2,1.1,0.3
				v-2h6.4v21.9h-4.3l0.1,0.3c0.1,0.3,0.1,0.5,0.1,0.9h4.1v2c0,0.4,0.4,0.8,0.9,0.7l7.2-2.5c0.3-0.1,0.4-0.3,0.4-0.7v-23.1
				C519.6,588,519.3,587.8,519.1,587.7z"/>
			<path class="st45" d="M492.9,609.8h4.6c0.7,0,1.1-0.4,1.3-1l0.4-1.9L497,605c0,0,0,0-0.1-0.1l-0.5,2h-3.5c-0.8,0-1.4,0.7-1.4,1.4
				C491.6,609.3,492.1,609.8,492.9,609.8z"/>
			<path class="st45" d="M503.5,596.6c1.3-0.3,2.1-1.5,1.8-2.9c-0.3-1.3-1.5-2.1-2.9-1.8c-1.3,0.3-2.1,1.5-1.8,2.9
				C501,596.1,502.2,596.9,503.5,596.6z"/>
			<path class="st45" d="M494.8,602.4c0.5,0.2,1.2,0,1.5-0.5l0.9-2.1l1.3-0.4l-1,3.9c-0.1,0.5,0.1,1.1,0.4,1.4l3.8,3.2l1,4.2
				c0.1,0.7,0.8,1,1.3,1c0.1,0,0.2,0,0.3,0c0.8-0.2,1.2-0.9,1-1.6l-1.1-4.6c-0.1-0.3-0.2-0.5-0.4-0.8l-2.4-2l1.3-3.4l1.3,1.5
				c0.2,0.2,0.5,0.4,0.9,0.4c0.2,0,0.4-0.1,0.5-0.2l2.3-1.4c0.5-0.3,0.8-1,0.4-1.5s-1-0.8-1.5-0.4l-1.5,0.9l-1.2-1.4
				c-0.3-0.3-0.8-0.7-1.2-0.9l-2.1-0.8c-0.7-0.2-1.3-0.2-1.9,0l-2.6,0.9c-0.3,0.1-0.5,0.3-0.7,0.7l-1.1,2.5
				C493.9,601.5,494.1,602.2,494.8,602.4z"/>
		</g>
	</g>
	<g class="st16">
		<g class="st18">
			<path class="st44" d="M612.3,244.6l-7.3-2.5c-0.5-0.1-0.8,0.2-0.8,0.7v2h-7c-0.4,0-0.6,0.2-0.6,0.6v2.2c0.5,0.1,0.7,0.2,1.1,0.4
				v-2h6.3v21.9h-4.3l0.1,0.4c0.1,0.4,0.1,0.6,0.1,0.8h4v2c0,0.5,0.5,0.7,0.8,0.7l7.3-2.5c0.4-0.1,0.5-0.4,0.5-0.7v-23.2
				C612.8,245,612.5,244.8,612.3,244.6z"/>
			<path class="st44" d="M586.1,266.8h4.6c0.7,0,1.1-0.5,1.3-1l0.5-1.9l-2.2-1.9c0,0,0,0-0.1-0.1l-0.6,2h-3.5
				c-0.7,0-1.4,0.7-1.4,1.4C584.8,266.2,585.4,266.8,586.1,266.8z"/>
			<path class="st44" d="M596.7,253.7c1.3-0.4,2-1.5,1.8-2.9c-0.3-1.4-1.5-2-2.9-1.8c-1.3,0.4-2,1.5-1.8,2.9
				C594.2,253.1,595.5,253.8,596.7,253.7z"/>
			<path class="st44" d="M587.9,259.4c0.6,0.2,1.2,0,1.5-0.6l0.8-2l1.3-0.5l-1,3.9c-0.1,0.6,0.1,1.1,0.5,1.4l3.8,3.2l1,4.2
				c0.1,0.7,0.7,1,1.3,1c0.1,0,0.2,0,0.4,0c0.7-0.2,1.2-0.8,1-1.7l-1.1-4.6c-0.1-0.4-0.2-0.6-0.5-0.7l-2.4-2l1.3-3.4l1.3,1.5
				c0.2,0.2,0.6,0.5,0.8,0.5s0.5-0.1,0.6-0.2l2.3-1.4c0.6-0.4,0.7-1,0.5-1.5c-0.4-0.6-1-0.7-1.5-0.5l-1.5,0.8l-1.2-1.4
				c-0.4-0.4-0.7-0.7-1.2-0.8l-2-0.7c-0.7-0.2-1.3-0.2-1.9,0l-2.6,0.8c-0.4,0.1-0.6,0.4-0.7,0.7l-1.1,2.5
				C587.2,258.5,587.4,259.2,587.9,259.4z"/>
		</g>
	</g>
	<g class="st16">
		<g class="st18">
			<path class="st45" d="M612.3,244.6l-7.3-2.5c-0.5-0.1-0.8,0.2-0.8,0.7v2h-7c-0.4,0-0.6,0.2-0.6,0.6v2.2c0.5,0.1,0.7,0.2,1.1,0.4
				v-2h6.3v21.9h-4.3l0.1,0.4c0.1,0.4,0.1,0.6,0.1,0.8h4v2c0,0.5,0.5,0.7,0.8,0.7l7.3-2.5c0.4-0.1,0.5-0.4,0.5-0.7v-23.2
				C612.8,245,612.5,244.8,612.3,244.6z"/>
			<path class="st45" d="M586.1,266.8h4.6c0.7,0,1.1-0.5,1.3-1l0.5-1.9l-2.2-1.9c0,0,0,0-0.1-0.1l-0.6,2h-3.5
				c-0.7,0-1.4,0.7-1.4,1.4C584.8,266.2,585.4,266.8,586.1,266.8z"/>
			<path class="st45" d="M596.7,253.7c1.3-0.4,2-1.5,1.8-2.9c-0.3-1.4-1.5-2-2.9-1.8c-1.3,0.4-2,1.5-1.8,2.9
				C594.2,253.1,595.5,253.8,596.7,253.7z"/>
			<path class="st45" d="M587.9,259.4c0.6,0.2,1.2,0,1.5-0.6l0.8-2l1.3-0.5l-1,3.9c-0.1,0.6,0.1,1.1,0.5,1.4l3.8,3.2l1,4.2
				c0.1,0.7,0.7,1,1.3,1c0.1,0,0.2,0,0.4,0c0.7-0.2,1.2-0.8,1-1.7l-1.1-4.6c-0.1-0.4-0.2-0.6-0.5-0.7l-2.4-2l1.3-3.4l1.3,1.5
				c0.2,0.2,0.6,0.5,0.8,0.5s0.5-0.1,0.6-0.2l2.3-1.4c0.6-0.4,0.7-1,0.5-1.5c-0.4-0.6-1-0.7-1.5-0.5l-1.5,0.8l-1.2-1.4
				c-0.4-0.4-0.7-0.7-1.2-0.8l-2-0.7c-0.7-0.2-1.3-0.2-1.9,0l-2.6,0.8c-0.4,0.1-0.6,0.4-0.7,0.7l-1.1,2.5
				C587.2,258.5,587.4,259.2,587.9,259.4z"/>
		</g>
	</g>
	<g class="st16">
		<g class="st18">
			<path class="st44" d="M117,286.7l7.2-2.5c0.4-0.1,0.9,0.2,0.9,0.7v2h7c0.3,0,0.5,0.2,0.5,0.5v2.2c-0.4,0.1-0.8,0.2-1.1,0.3v-2
				h-6.4v21.9h4.3l-0.1,0.3c-0.1,0.3-0.1,0.5-0.1,0.9h-4.1v2c0,0.4-0.4,0.8-0.9,0.7l-7.2-2.5c-0.3-0.1-0.4-0.3-0.4-0.7v-23.1
				C116.6,287,116.8,286.8,117,286.7z"/>
			<path class="st44" d="M143.2,308.8h-4.6c-0.7,0-1.1-0.4-1.3-1l-0.4-1.9l2.2-1.9c0,0,0,0,0.1-0.1l0.5,2h3.5c0.8,0,1.4,0.7,1.4,1.4
				C144.7,308.3,144,308.8,143.2,308.8z"/>
			<path class="st44" d="M132.7,295.5c-1.3-0.3-2.1-1.5-1.8-2.9s1.5-2.1,2.9-1.8c1.3,0.3,2.1,1.5,1.8,2.9S133.9,295.9,132.7,295.5z"
				/>
			<path class="st44" d="M141.5,301.4c-0.5,0.2-1.2,0-1.5-0.5l-0.9-2.1l-1.3-0.4l1,3.9c0.1,0.5-0.1,1.1-0.4,1.4l-3.8,3.2l-1,4.2
				c-0.1,0.7-0.8,1-1.3,1c-0.1,0-0.2,0-0.3,0c-0.8-0.2-1.2-0.9-1-1.6l1.1-4.6c0.1-0.3,0.2-0.5,0.4-0.8l2.4-2l-1.3-3.4l-1.3,1.5
				c-0.2,0.2-0.5,0.4-0.9,0.4c-0.2,0-0.4-0.1-0.5-0.2l-2.3-1.4c-0.5-0.3-0.8-1-0.4-1.5c0.3-0.5,1-0.8,1.5-0.4l1.5,0.9l1.2-1.4
				c0.3-0.3,0.8-0.7,1.2-0.9l2.1-0.8c0.7-0.2,1.3-0.2,1.9,0l2.6,0.9c0.3,0.1,0.5,0.3,0.7,0.7l1.1,2.5
				C142.2,300.5,142,301.1,141.5,301.4z"/>
		</g>
	</g>
	<g class="st16">
		<g class="st18">
			<path class="st45" d="M117,286.7l7.2-2.5c0.4-0.1,0.9,0.2,0.9,0.7v2h7c0.3,0,0.5,0.2,0.5,0.5v2.2c-0.4,0.1-0.8,0.2-1.1,0.3v-2
				h-6.4v21.9h4.3l-0.1,0.3c-0.1,0.3-0.1,0.5-0.1,0.9h-4.1v2c0,0.4-0.4,0.8-0.9,0.7l-7.2-2.5c-0.3-0.1-0.4-0.3-0.4-0.7v-23.1
				C116.6,287,116.8,286.8,117,286.7z"/>
			<path class="st45" d="M143.2,308.8h-4.6c-0.7,0-1.1-0.4-1.3-1l-0.4-1.9l2.2-1.9c0,0,0,0,0.1-0.1l0.5,2h3.5c0.8,0,1.4,0.7,1.4,1.4
				C144.7,308.3,144,308.8,143.2,308.8z"/>
			<path class="st45" d="M132.7,295.5c-1.3-0.3-2.1-1.5-1.8-2.9s1.5-2.1,2.9-1.8c1.3,0.3,2.1,1.5,1.8,2.9S133.9,295.9,132.7,295.5z"
				/>
			<path class="st45" d="M141.5,301.4c-0.5,0.2-1.2,0-1.5-0.5l-0.9-2.1l-1.3-0.4l1,3.9c0.1,0.5-0.1,1.1-0.4,1.4l-3.8,3.2l-1,4.2
				c-0.1,0.7-0.8,1-1.3,1c-0.1,0-0.2,0-0.3,0c-0.8-0.2-1.2-0.9-1-1.6l1.1-4.6c0.1-0.3,0.2-0.5,0.4-0.8l2.4-2l-1.3-3.4l-1.3,1.5
				c-0.2,0.2-0.5,0.4-0.9,0.4c-0.2,0-0.4-0.1-0.5-0.2l-2.3-1.4c-0.5-0.3-0.8-1-0.4-1.5c0.3-0.5,1-0.8,1.5-0.4l1.5,0.9l1.2-1.4
				c0.3-0.3,0.8-0.7,1.2-0.9l2.1-0.8c0.7-0.2,1.3-0.2,1.9,0l2.6,0.9c0.3,0.1,0.5,0.3,0.7,0.7l1.1,2.5
				C142.2,300.5,142,301.1,141.5,301.4z"/>
		</g>
	</g>
	<g>
		<circle class="st45" cx="506" cy="601.2" r="15"/>
		<g>
			<g>
				<path class="st11" d="M514.5,592l-5.2-1.8c-0.3-0.1-0.6,0.1-0.6,0.5v1.4h-5.1c-0.2,0-0.4,0.2-0.4,0.4v1.6c0.3,0,0.6,0.1,0.8,0.2
					v-1.4h4.6v15.9h-3.1v0.2c0,0.2,0.1,0.4,0,0.6h3v1.4c0,0.3,0.3,0.6,0.6,0.5l5.2-1.8c0.2-0.1,0.3-0.2,0.3-0.5v-16.8
					C514.9,592.3,514.7,592.1,514.5,592z"/>
				<g>
					<g>
						<path class="st11" d="M495.5,608.1h3.3c0.4,0,0.8-0.3,1-0.7l0.4-1.3l-1.6-1.3l0,0l-0.4,1.4h-2.6c-0.5,0-1,0.4-1,1
							C494.6,607.7,495,608.1,495.5,608.1z"/>
						<path class="st11" d="M503.2,598.5c0.9-0.2,1.5-1.1,1.3-2.1s-1.1-1.5-2.1-1.3c-0.9,0.2-1.5,1.1-1.3,2.1
							S502.3,598.7,503.2,598.5z"/>
						<path class="st11" d="M496.9,602.7c0.4,0.2,0.9,0,1.1-0.4l0.7-1.5l0.9-0.3l-0.8,2.9c-0.1,0.4,0,0.8,0.3,1l2.8,2.3l0.8,3
							c0.1,0.5,0.5,0.8,1,0.8c0.1,0,0.2,0,0.2,0c0.5-0.1,0.9-0.7,0.7-1.2l-0.8-3.4c0-0.2-0.2-0.4-0.3-0.5l-1.8-1.4l0.9-2.5l0.9,1.1
							c0.2,0.2,0.4,0.3,0.6,0.3c0.1,0,0.3,0,0.4-0.1l1.7-1c0.4-0.2,0.5-0.8,0.3-1.1c-0.2-0.4-0.8-0.5-1.1-0.3l-1.1,0.6l-0.9-1
							c-0.2-0.3-0.5-0.5-0.9-0.6l-1.5-0.5c-0.4-0.2-0.9-0.2-1.4,0l-1.9,0.6c-0.2,0.1-0.4,0.2-0.5,0.5l-0.8,1.8
							C496.3,602.1,496.4,602.5,496.9,602.7z"/>
					</g>
				</g>
			</g>
		</g>
	</g>
	<g>
		<circle class="st45" cx="592" cy="281.1" r="15"/>
		<g>
			<g>
				<path class="st11" d="M600.5,271.9l-5.2-1.8c-0.3-0.1-0.6,0.1-0.6,0.5v1.4h-5.1c-0.2,0-0.4,0.2-0.4,0.4v1.6
					c0.3,0,0.6,0.1,0.8,0.2v-1.4h4.6v15.9h-3.1v0.2c0,0.2,0.1,0.4,0,0.6h3v1.4c0,0.3,0.3,0.6,0.6,0.5l5.2-1.8
					c0.2-0.1,0.3-0.2,0.3-0.5v-16.8C600.8,272.2,600.7,272,600.5,271.9z"/>
				<g>
					<g>
						<path class="st11" d="M581.5,288h3.3c0.4,0,0.8-0.3,1-0.7l0.4-1.3l-1.6-1.3l0,0l-0.4,1.4h-2.6c-0.5,0-1,0.4-1,1
							C580.5,287.6,581,288,581.5,288z"/>
						<path class="st11" d="M589.2,278.4c0.9-0.2,1.5-1.1,1.3-2.1c-0.2-0.9-1.1-1.5-2.1-1.3s-1.5,1.1-1.3,2.1
							C587.3,278,588.2,278.6,589.2,278.4z"/>
						<path class="st11" d="M582.8,282.6c0.4,0.2,0.9,0,1.1-0.4l0.7-1.5l0.9-0.3l-0.8,2.9c-0.1,0.4,0,0.8,0.3,1l2.8,2.3l0.8,3
							c0.1,0.5,0.5,0.8,1,0.8c0.1,0,0.2,0,0.2,0c0.5-0.1,0.9-0.7,0.7-1.2l-0.8-3.4c0-0.2-0.2-0.4-0.3-0.5l-1.8-1.4l0.9-2.5l0.9,1.1
							c0.2,0.2,0.4,0.3,0.6,0.3c0.1,0,0.3,0,0.4-0.1l1.7-1c0.4-0.2,0.5-0.8,0.3-1.1c-0.2-0.4-0.8-0.5-1.1-0.3l-1.1,0.6l-0.9-1
							c-0.2-0.3-0.5-0.5-0.9-0.6l-1.5-0.5c-0.4-0.2-0.9-0.2-1.4,0l-1.9,0.6c-0.2,0.1-0.4,0.2-0.5,0.5l-0.8,1.8
							C582.2,281.9,582.4,282.4,582.8,282.6z"/>
					</g>
				</g>
			</g>
		</g>
	</g>
</g>
<g id="printers" class="st16">
	<g class="st18">
		<path d="M243.6,394.7h4.1h4.1c0.4,0,0.8-0.4,0.8-0.8s-0.4-0.8-0.8-0.8h-8.2c-0.4,0-0.8,0.4-0.8,0.8
			C242.8,394.3,243.1,394.7,243.6,394.7z"/>
		<path d="M251.7,396.4h-8.2c-0.4,0-0.8,0.4-0.8,0.8s0.4,0.8,0.8,0.8h8.1c0.4,0,0.8-0.4,0.8-0.8
			C252.5,396.8,252.2,396.4,251.7,396.4z"/>
	</g>
	<path class="st18" d="M257.8,382.4h-1.4v-5.2c0-0.4-0.4-0.8-0.8-0.8h-15.8c-0.4,0-0.8,0.4-0.8,0.8v5.2h-1.4c-1.3,0-2.3,1.1-2.3,2.3
		v8.3c0,1.3,1.1,2.3,2.3,2.3h1.4v5.2c0,0.4,0.3,0.8,0.8,0.8h15.8c0.4,0,0.8-0.4,0.8-0.8v-5.1h1.4c1.3,0,2.3-1.1,2.3-2.3v-8.3
		C260.2,383.5,259.1,382.4,257.8,382.4z M237.7,385.9c-0.5,0-0.9-0.4-0.9-0.9s0.4-0.9,0.9-0.9s0.9,0.4,0.9,0.9
		S238.2,385.9,237.7,385.9z M240.5,378h14.3v4.4h-14.3V378z M239.6,385c0-0.5,0.4-0.9,0.9-0.9s0.9,0.4,0.9,0.9s-0.4,0.9-0.9,0.9
		S239.6,385.5,239.6,385z M254.8,395.4v4.4h-14.3v-8.5h14.3V395.4L254.8,395.4z"/>
</g>
<g id="coffee">
	<path d="M136.1,165.6c0.5-0.4,1-0.3,1.5-0.3c2.2,0,4.5,0,6.7,0c5,0,9.9,0,14.9,0c0.6,0,1.2-0.1,1.7,0.2c0.4,0.5,0,1.1,0.1,1.6
		c0.3,0.4,0.8,0.3,1.2,0.4c2.1,0.4,3.7,2.1,3.9,4.2c0.1,1.6-0.5,3-1.6,4.1c-1.1,1.1-2.5,1.6-4,2c-1.2,0.3-2.4,0.3-3.6,0.3
		c-0.7,0-1.2,0.1-1.7,0.6c-0.8,0.9-1.8,1.2-3,1.2c-2.3-0.1-4.7-0.1-7,0c-1.3,0-2.2-0.4-3.1-1.3c-1.9-1.9-3.3-4.1-4.3-6.5
		c-0.7-1.7-1.2-3.5-1.5-5.3C136,166.3,136.1,166,136.1,165.6z M157.9,175.2c1.7,0.2,3.6-0.4,4.7-1.4c0.1-0.1,0.3-0.3,0.4-0.4
		c1-1.4,0.4-3-1.2-3.4c-0.5-0.1-1-0.2-1.5,0.1c-0.3,0.8-0.6,1.7-1,2.5C158.9,173.5,158.4,174.4,157.9,175.2z"/>
	<path d="M138.3,181.4c0.4-0.1,0.6-0.1,0.8-0.1c6.4,0,12.9,0,19.3,0c0.1,0,0.2,0.1,0.3,0.1c0,0,0.1,0.1,0.1,0.1
		c-0.2,0.7-1,2.2-1.4,2.5c-0.2,0.2-0.5,0.3-0.8,0.3c-0.4,0.1-0.8,0-1.2,0c-4.5,0-9,0-13.4,0c-0.3,0-0.7,0-1,0c-0.6,0-1-0.3-1.3-0.8
		C139.1,182.9,138.6,182.3,138.3,181.4z"/>
	<path d="M151.2,162.5c0.4-1.6-0.2-3-0.9-4.4c-1.1-2.1-0.7-4.6,0.8-6.4c0.1-0.2,0.3-0.3,0.7-0.6c-0.6,1.8,0,3.1,0.7,4.4
		c0.9,1.6,1,3.2,0.3,4.9C152.5,161.2,152.1,162.1,151.2,162.5L151.2,162.5z"/>
	<path d="M145.3,162.5c0.4-1.2,0.2-2.4-0.4-3.5c-0.2-0.3-0.4-0.7-0.5-1c-1.1-2.3-0.6-4.9,1.4-6.6c0,0.1,0.1,0.3,0.1,0.4
		c-0.3,1,0,1.9,0.4,2.8c0.2,0.4,0.4,0.9,0.7,1.3c1,2.1,0.7,4.7-1,6.4C145.8,162.3,145.5,162.3,145.3,162.5L145.3,162.5z"/>
	<polygon points="151.2,162.5 151.2,162.5 151.2,162.5 	"/>
	<polygon points="145.3,162.4 145.3,162.5 145.3,162.5 	"/>
</g>
</svg>
