<?xml version="1.0" encoding="utf-8"?>
<!-- Generator: Adobe Illustrator 28.2.0, SVG Export Plug-In . SVG Version: 6.00 Build 0)  -->
<svg version="1.1" id="Layer_1" xmlns="http://www.w3.org/2000/svg" xmlns:xlink="http://www.w3.org/1999/xlink" x="0px" y="0px"
	 viewBox="0 0 684.2 906.7" style="enable-background:new 0 0 684.2 906.7;" xml:space="preserve">
<style type="text/css">
	.st0{fill:none;}
	.st1{fill:#231F20;}
	.st2{fill:#0073A0;}
	.st3{fill:#FFFFFF;}
	.st4{opacity:0.5;}
	
		.st5{opacity:0.45;fill:url(#SVGID_00000072261757127738851950000003596457283619427228_);stroke:#424343;stroke-miterlimit:10;enable-background:new    ;}
	
		.st6{opacity:0.45;fill:url(#SVGID_00000138549636880923847650000008524318978893215147_);stroke:#424343;stroke-miterlimit:10;enable-background:new    ;}
	.st7{opacity:0.89;fill:none;stroke:#010101;stroke-width:3;stroke-miterlimit:10;}
	.st8{fill:#71A58E;stroke:#231F20;stroke-width:3;stroke-linecap:round;stroke-linejoin:round;}
	.st9{fill:#3F417F;stroke:#010101;stroke-width:3;stroke-miterlimit:10;}
	.st10{fill:#71A58E;stroke:#010101;stroke-width:3;stroke-miterlimit:10;}
	.st11{fill:#71A58E;stroke:#231F20;stroke-width:3;stroke-miterlimit:10;}
	.st12{opacity:0.4;fill:#1A4363;enable-background:new    ;}
	.st13{fill:#231F20;stroke:#FFFFFF;stroke-width:0.25;stroke-miterlimit:10;}
	.st14{display:none;opacity:0.25;fill:#1A4363;enable-background:new    ;}
	.st15{fill:none;stroke:#010101;stroke-width:4;stroke-miterlimit:10;}
	.st16{display:none;}
	.st17{display:inline;fill:#FFFFFF;stroke:#000000;stroke-miterlimit:10;}
	.st18{display:inline;}
	.st19{display:none;fill:#FFFFFF;stroke:#000000;stroke-miterlimit:10;}
	.st20{display:inline;fill:#231F20;}
	.st21{display:none;opacity:0.8;}
	.st22{fill:none;stroke:#000000;stroke-miterlimit:10;}
	.st23{stroke:#000000;stroke-miterlimit:10;}
	.st24{opacity:0.68;fill:#A1BB7E;}
	.st25{font-family:'ArialMT';}
	.st26{font-size:22px;}
	.st27{font-size:20px;}
	.st28{font-size:18px;}
	.st29{fill:none;stroke:#231F20;stroke-width:6;stroke-linecap:round;stroke-linejoin:round;}
	.st30{fill:#FFFFFF;stroke:#231F20;stroke-width:6;stroke-linecap:round;stroke-linejoin:round;}
	.st31{fill:none;stroke:#FFFFFF;stroke-width:8;stroke-miterlimit:10;}
	.st32{fill:none;stroke:#FFFFFF;stroke-width:7;stroke-miterlimit:10;}
	.st33{fill:#5197BC;}
	.st34{font-family:'Arial-BoldMT';}
	.st35{font-size:33.4935px;}
	.st36{display:inline;fill:#5197BC;}
	.st37{font-family:'Arial-ItalicMT';}
	.st38{font-size:14.003px;}
	.st39{display:inline;fill:none;stroke:#5197BC;stroke-miterlimit:10;}
	.st40{font-size:14px;}
	.st41{display:none;fill:#C40000;stroke:#FFFFFF;stroke-width:0.5;stroke-miterlimit:10;}
	.st42{fill:#C40000;stroke:#FFFFFF;stroke-width:0.5;stroke-miterlimit:10;}
	.st43{fill:#C40000;}
</style>
<pattern  y="906.7" width="28.8" height="28.8" patternUnits="userSpaceOnUse" id="SVGID_0000008019021767887190297" viewBox="1.4 -30.2 28.8 28.8" style="overflow:visible;">
	<g>
		<rect x="1.4" y="-30.2" class="st0" width="28.8" height="28.8"/>
		<g>
			<rect x="1.4" y="-30.2" class="st0" width="28.8" height="28.8"/>
			<g>
				<rect x="1.4" y="-30.2" class="st0" width="28.8" height="28.8"/>
				<g>
					<rect x="1.4" y="-30.2" class="st0" width="28.8" height="28.8"/>
					<g>
						<rect x="1.4" y="-30.2" class="st0" width="28.8" height="28.8"/>
						<g>
							<rect x="1.4" y="-30.2" class="st0" width="28.8" height="28.8"/>
							<g>
								<rect x="1.4" y="-30.2" class="st0" width="28.8" height="28.8"/>
								<g>
									<rect x="1.4" y="-30.2" class="st0" width="28.8" height="28.8"/>
									<g>
										<path class="st1" d="M30.2-31.6c0.8,0,1.4,0.6,1.4,1.4c0,0.8-0.6,1.4-1.4,1.4s-1.4-0.6-1.4-1.4
											C28.8-31,29.4-31.6,30.2-31.6z"/>
										<path class="st1" d="M15.8-31.6c0.8,0,1.4,0.6,1.4,1.4c0,0.8-0.6,1.4-1.4,1.4c-0.8,0-1.4-0.6-1.4-1.4
											C14.4-31,15-31.6,15.8-31.6z"/>
										<path class="st1" d="M30.2-17.2c0.8,0,1.4,0.6,1.4,1.4s-0.6,1.4-1.4,1.4s-1.4-0.6-1.4-1.4C28.8-16.6,29.4-17.2,30.2-17.2z
											"/>
										<path class="st1" d="M15.8-17.2c0.8,0,1.4,0.6,1.4,1.4s-0.6,1.4-1.4,1.4c-0.8,0-1.4-0.6-1.4-1.4
											C14.4-16.6,15-17.2,15.8-17.2z"/>
										<path class="st1" d="M8.6-24.4c0.8,0,1.4,0.6,1.4,1.4c0,0.8-0.6,1.4-1.4,1.4c-0.8,0-1.4-0.6-1.4-1.4
											C7.2-23.8,7.8-24.4,8.6-24.4z"/>
										<path class="st1" d="M23-24.4c0.8,0,1.4,0.6,1.4,1.4c0,0.8-0.6,1.4-1.4,1.4s-1.4-0.6-1.4-1.4S22.2-24.4,23-24.4z"/>
										<path class="st1" d="M8.6-10C9.4-10,10-9.4,10-8.6S9.4-7.2,8.6-7.2c-0.8,0-1.4-0.6-1.4-1.4C7.2-9.4,7.8-10,8.6-10z"/>
										<path class="st1" d="M23-10c0.8,0,1.4,0.6,1.4,1.4S23.8-7.2,23-7.2s-1.4-0.6-1.4-1.4S22.2-10,23-10z"/>
									</g>
									<g>
										<path class="st1" d="M1.4-31.6c0.8,0,1.4,0.6,1.4,1.4c0,0.8-0.6,1.4-1.4,1.4C0.6-28.7,0-29.4,0-30.2
											C0-31,0.6-31.6,1.4-31.6z"/>
										<path class="st1" d="M1.4-17.2c0.8,0,1.4,0.6,1.4,1.4s-0.6,1.4-1.4,1.4S0-15,0-15.8S0.6-17.2,1.4-17.2z"/>
									</g>
									<g>
										<path class="st1" d="M30.2-2.8c0.8,0,1.4,0.6,1.4,1.4S31,0,30.2,0s-1.4-0.6-1.4-1.4C28.8-2.2,29.4-2.8,30.2-2.8z"/>
										<path class="st1" d="M15.8-2.8c0.8,0,1.4,0.6,1.4,1.4S16.6,0,15.8,0s-1.4-0.6-1.4-1.4C14.4-2.2,15-2.8,15.8-2.8z"/>
									</g>
									<g>
										<path class="st1" d="M1.4-2.8c0.8,0,1.4,0.6,1.4,1.4S2.2,0,1.4,0C0.6,0.1,0-0.6,0-1.4C0-2.2,0.6-2.8,1.4-2.8z"/>
									</g>
								</g>
							</g>
						</g>
					</g>
				</g>
			</g>
		</g>
	</g>
</pattern>
<pattern  y="906.7" width="28.8" height="28.8" patternUnits="userSpaceOnUse" id="SVGID_1_" viewBox="1.4 -30.2 28.8 28.8" style="overflow:visible;">
	<g>
		<rect x="1.4" y="-30.2" class="st0" width="28.8" height="28.8"/>
		<g>
			<rect x="1.4" y="-30.2" class="st0" width="28.8" height="28.8"/>
			<g>
				<rect x="1.4" y="-30.2" class="st0" width="28.8" height="28.8"/>
				<g>
					<rect x="1.4" y="-30.2" class="st0" width="28.8" height="28.8"/>
					<g>
						<rect x="1.4" y="-30.2" class="st0" width="28.8" height="28.8"/>
						<g>
							<rect x="1.4" y="-30.2" class="st0" width="28.8" height="28.8"/>
							<g>
								<rect x="1.4" y="-30.2" class="st0" width="28.8" height="28.8"/>
								<g>
									<rect x="1.4" y="-30.2" class="st0" width="28.8" height="28.8"/>
									<g>
										<path class="st1" d="M30.2-31.6c0.8,0,1.4,0.6,1.4,1.4c0,0.8-0.6,1.4-1.4,1.4s-1.4-0.6-1.4-1.4
											C28.8-31,29.4-31.6,30.2-31.6z"/>
										<path class="st1" d="M15.8-31.6c0.8,0,1.4,0.6,1.4,1.4c0,0.8-0.6,1.4-1.4,1.4c-0.8,0-1.4-0.6-1.4-1.4
											C14.4-31,15-31.6,15.8-31.6z"/>
										<path class="st1" d="M30.2-17.2c0.8,0,1.4,0.6,1.4,1.4s-0.6,1.4-1.4,1.4s-1.4-0.6-1.4-1.4C28.8-16.6,29.4-17.2,30.2-17.2z
											"/>
										<path class="st1" d="M15.8-17.2c0.8,0,1.4,0.6,1.4,1.4s-0.6,1.4-1.4,1.4c-0.8,0-1.4-0.6-1.4-1.4
											C14.4-16.6,15-17.2,15.8-17.2z"/>
										<path class="st1" d="M8.6-24.4c0.8,0,1.4,0.6,1.4,1.4c0,0.8-0.6,1.4-1.4,1.4c-0.8,0-1.4-0.6-1.4-1.4
											C7.2-23.8,7.8-24.4,8.6-24.4z"/>
										<path class="st1" d="M23-24.4c0.8,0,1.4,0.6,1.4,1.4c0,0.8-0.6,1.4-1.4,1.4s-1.4-0.6-1.4-1.4S22.2-24.4,23-24.4z"/>
										<path class="st1" d="M8.6-10C9.4-10,10-9.4,10-8.6S9.4-7.2,8.6-7.2c-0.8,0-1.4-0.6-1.4-1.4C7.2-9.4,7.8-10,8.6-10z"/>
										<path class="st1" d="M23-10c0.8,0,1.4,0.6,1.4,1.4S23.8-7.2,23-7.2s-1.4-0.6-1.4-1.4S22.2-10,23-10z"/>
									</g>
									<g>
										<path class="st1" d="M1.4-31.6c0.8,0,1.4,0.6,1.4,1.4c0,0.8-0.6,1.4-1.4,1.4C0.6-28.7,0-29.4,0-30.2
											C0-31,0.6-31.6,1.4-31.6z"/>
										<path class="st1" d="M1.4-17.2c0.8,0,1.4,0.6,1.4,1.4s-0.6,1.4-1.4,1.4S0-15,0-15.8S0.6-17.2,1.4-17.2z"/>
									</g>
									<g>
										<path class="st1" d="M30.2-2.8c0.8,0,1.4,0.6,1.4,1.4S31,0,30.2,0s-1.4-0.6-1.4-1.4C28.8-2.2,29.4-2.8,30.2-2.8z"/>
										<path class="st1" d="M15.8-2.8c0.8,0,1.4,0.6,1.4,1.4S16.6,0,15.8,0s-1.4-0.6-1.4-1.4C14.4-2.2,15-2.8,15.8-2.8z"/>
									</g>
									<g>
										<path class="st1" d="M1.4-2.8c0.8,0,1.4,0.6,1.4,1.4S2.2,0,1.4,0C0.6,0.1,0-0.6,0-1.4C0-2.2,0.6-2.8,1.4-2.8z"/>
									</g>
								</g>
							</g>
						</g>
					</g>
				</g>
			</g>
		</g>
	</g>
</pattern>
<g id="restroom">
	<rect x="122.5" y="206.9" class="st2" width="73.1" height="75.5"/>
	<path class="st3" d="M168.5,232.6c1.2,0,2.1-0.9,2.1-2.1c0-1.2-0.9-2.1-2.1-2.1s-2.1,0.9-2.1,2.1
		C166.3,231.7,167.3,232.6,168.5,232.6z"/>
	<path class="st3" d="M174.3,241l-1.8-6.3c-0.4-1.2-1.3-1.6-2.6-1.6l0,0H167l0,0c-1.3,0-2.1,0.4-2.6,1.6l-1.8,6.3
		c-0.1,0.4,0.1,0.8,0.7,0.9c0.4,0.1,0.9-0.1,1-0.5l1.6-5.5h0.4l-2.7,9.6h2.6v6.8c0,0.5,0.5,1,1,1s1-0.5,1-1v-6.8h0.5v6.8
		c0,0.5,0.5,1,1,1s1-0.5,1-1v-6.8h2.6l-2.7-9.6h0.4l1.6,5.5c0.1,0.4,0.5,0.7,1,0.5C174.1,241.8,174.4,241.4,174.3,241z"/>
	<path class="st3" d="M147.3,232.6c1.2,0,2.1-0.9,2.1-2.1c0-1.2-0.9-2.1-2.1-2.1c-1.2,0-2.1,0.9-2.1,2.1
		C145,231.7,146.1,232.6,147.3,232.6z"/>
	<path class="st3" d="M150,233.1h-5.5c-1.3,0-2.4,1-2.4,2.4v6.7c0,0.5,0.4,0.9,0.9,0.9s0.9-0.4,0.9-0.9v-5.9h0.5v6.8v9.2
		c0,0.7,0.5,1.2,1.2,1.2s1.2-0.5,1.2-1.2v-9.2h0.5v9.2c0,0.7,0.5,1.2,1.2,1.2s1.2-0.5,1.2-1.2v-9.2v-6.8h0.5v5.9
		c0,0.5,0.4,0.9,0.9,0.9s0.9-0.4,0.9-0.9v-6.7C152.4,234.2,151.3,233.1,150,233.1z"/>
	<rect x="157.1" y="228.4" class="st3" width="2.4" height="24.9"/>
</g>
<g id="Spaces" class="st4">
	<g id="employee_areas">
		
			<pattern  id="SVGID_00000137849311067595835110000001956143044674080915_" xlink:href="#SVGID_1_" patternTransform="matrix(1 0 0 -1 -346.6 -103422.9531)">
		</pattern>
		
			<polyline style="opacity:0.45;fill:url(#SVGID_00000137849311067595835110000001956143044674080915_);stroke:#424343;stroke-miterlimit:10;enable-background:new    ;" points="
			35.7,536.1 3.1,604 118.2,658.5 119.1,823.1 194.1,859.4 195.8,733.7 286,733.4 285.3,618 278.8,618.2 221.6,617.7 221.8,443.5 
			167.9,443.5 167.6,538.1 35.7,536.1 		"/>
		
			<pattern  id="SVGID_00000008113107026040482700000002178735527390207383_" xlink:href="#SVGID_0000008019021767887190297" patternTransform="matrix(1 0 0 -1 -61.4 -68963.5156)">
		</pattern>
		
			<polyline style="opacity:0.45;fill:url(#SVGID_00000008113107026040482700000002178735527390207383_);stroke:#424343;stroke-miterlimit:10;enable-background:new    ;" points="
			409.3,663.5 442.7,663.6 442.9,690.3 523.2,690.2 523.4,616.7 408.4,617 		"/>
	</g>
	<line class="st7" x1="263.4" y1="203.9" x2="263.4" y2="283"/>
	<path id="cafe_00000052796716991338462910000004400667937314557858_" class="st8" d="M263.5,205H119.1v-70.6h144.4V205z"/>
	<path id="_x31_25" class="st9" d="M285.9,733.6l-92.3,0.1l-0.1,125.7l91.6,43.2L285.9,733.6z"/>
	<polyline id="PAR" class="st10" points="166.9,539.1 166.9,443 166.9,445 79.6,444.9 36.2,536.1 166.1,537.1 	"/>
	<path id="DHC" class="st11" d="M523.2,690l-80.3,0.3l-0.2-26.9l-34.7,0.1l0.5-46.5l-43.8,0.1l0.1,160.9L524,721.4L523.2,690z"/>
	<path id="children_x27_s_room" class="st11" d="M438.8,463.3l85.6,0.4L680.8,138l-93.9-1.6l-13-16l-213.2,15.3l0.8,226.9
		 M361.3,361.3l78.9,102.8"/>
</g>
<g id="escalator_00000150794383660195744430000003786862563213663129_">
	<rect x="371.4" y="465" class="st12" width="34" height="107.7"/>
	<g>
		<g>
			<g>
				<path class="st13" d="M385.2,503.8c1.6,0,2.8-1.4,2.8-2.8c0-1.6-1.4-2.8-2.8-2.8c-1.6,0-2.8,1.4-2.8,2.8
					C382.3,502.4,383.7,503.8,385.2,503.8z"/>
				<path class="st13" d="M388.3,507.7c0-1.6-1.4-3-3-3s-3,1.4-3,3v6.8l6-6V507.7L388.3,507.7z"/>
				<path class="st13" d="M398.9,506.8h-5.3c-0.9,0-1.7,0.4-2.4,1.1l-9.3,9.3h-4.1c-1.9,0-3.4,1.6-3.4,3.4c0,1.9,1.6,3.4,3.4,3.4
					h5.6c0.9,0,1.7-0.4,2.4-1.1l9.3-9.3h3.8c1.9,0,3.4-1.6,3.4-3.4C402.2,508.3,400.8,506.8,398.9,506.8z"/>
			</g>
			<g>
				<path class="st13" d="M398.4,518.8c0.3,0,0.5,0.1,0.4,0.4l-0.9,4.9c0,0.3-0.3,0.4-0.4,0.5c-0.3,0.1-0.4,0.1-0.5,0l-0.5-0.5
					l-3.6,3.6c-0.3,0.3-0.7,0.3-0.8,0.1l-2.5-2.5c-0.1-0.1-0.1-0.5,0.1-0.8l3.6-3.6l-0.5-0.5c-0.1-0.1-0.1-0.4,0-0.5
					c0.1-0.3,0.4-0.4,0.5-0.4L398.4,518.8z"/>
			</g>
		</g>
	</g>
</g>
<g id="elevator">
	
		<rect x="441.2" y="469.2" transform="matrix(1.787259e-03 -1 1 1.787259e-03 -28.2 927.0275)" class="st12" width="18.1" height="16.9"/>
	
		<rect x="441" y="494" transform="matrix(1.787259e-03 -1 1 1.787259e-03 -53.1981 951.5944)" class="st12" width="18.1" height="16.9"/>
	
		<rect x="440.9" y="518.7" transform="matrix(1.787259e-03 -1 1 1.787259e-03 -77.9557 976.1996)" class="st14" width="18.1" height="16.9"/>
	
		<rect x="440.8" y="543.4" transform="matrix(1.787259e-03 -1 1 1.787259e-03 -102.8144 1000.7)" class="st12" width="18.1" height="16.9"/>
	
		<rect x="441.1" y="568.1" transform="matrix(1.787259e-03 -1 1 1.787259e-03 -127.2124 1025.6714)" class="st12" width="18.1" height="16.9"/>
	<line class="st15" x1="463" y1="465.9" x2="463" y2="594.2"/>
	<g class="st16">
		<path class="st17" d="M451.8,512.2h-15.1c-4.1,0-7.4,3.3-7.4,7.4v15.1c0,4.1,3.3,7.4,7.4,7.4h15.1c4.1,0,7.4-3.3,7.4-7.4v-15.1
			C459.2,515.5,455.9,512.2,451.8,512.2z"/>
		<g class="st18">
			<path class="st1" d="M440.3,514c-0.2-0.2-0.4-0.3-0.6-0.3s-0.5,0.1-0.6,0.3c-0.5,0.5-1.4,1.4-2.7,2.7c-0.4,0.4-0.4,1,0,1.3
				c0.3,0.3,0.9,0.3,1.2,0l1.1-1.1v3.5c0,0.5,0.4,0.9,0.9,0.9h0.1c0.5,0,0.9-0.4,0.9-0.9v-3.5l1.1,1.1c0.3,0.3,0.9,0.3,1.2,0l0,0
				c0.3-0.3,0.3-0.9,0-1.2C441.6,515.3,440.9,514.6,440.3,514z"/>
			<path class="st1" d="M448.1,521c0.2,0.2,0.4,0.3,0.6,0.3s0.5-0.1,0.6-0.3c0.5-0.5,1.4-1.4,2.7-2.7c0.4-0.4,0.4-1,0-1.3
				c-0.3-0.3-0.9-0.3-1.2,0l-1.1,1.1v-3.5c0-0.5-0.4-0.9-0.9-0.9h-0.1c-0.5,0-0.9,0.4-0.9,0.9v3.5l-1.1-1.1c-0.3-0.3-0.9-0.3-1.2,0
				l0,0c-0.3,0.3-0.3,0.9,0,1.2C446.8,519.7,447.5,520.4,448.1,521z"/>
		</g>
		<g class="st18">
			<g>
				<path class="st1" d="M447.5,528c0.5,0,1-0.4,1-1c0-0.5-0.4-1-1-1c-0.5,0-1,0.4-1,1C446.6,527.5,447,528,447.5,528z"/>
				<path class="st1" d="M448.8,528.1h-2.4c-0.6,0-1,0.5-1,1v3c0,0.2,0.2,0.4,0.4,0.4c0.2,0,0.4-0.2,0.4-0.4v-2.6h0.2v3v4.1
					c0,0.3,0.2,0.6,0.6,0.6c0.3,0,0.6-0.2,0.6-0.6v-4.1h0.2v4.1c0,0.3,0.2,0.6,0.6,0.6c0.3,0,0.6-0.2,0.6-0.6v-4.1v-3h0.2v2.6
					c0,0.2,0.2,0.4,0.4,0.4c0.2,0,0.4-0.2,0.4-0.4v-3C449.8,528.6,449.3,528.1,448.8,528.1z"/>
			</g>
			<path class="st1" d="M441.3,528c0.5,0,1-0.4,1-1c0-0.5-0.4-1-1-1c-0.5,0-1,0.4-1,1C440.3,527.5,440.7,528,441.3,528z"/>
			<path class="st1" d="M443.9,531.7l-0.8-2.8c-0.2-0.5-0.6-0.7-1.2-0.7l0,0h-1.3l0,0c-0.6,0-1,0.2-1.2,0.7l-0.8,2.8
				c-0.1,0.2,0.1,0.4,0.3,0.4c0.2,0.1,0.4,0,0.5-0.2l0.7-2.5h0.2l-1.2,4.3h1.2v3c0,0.3,0.2,0.5,0.5,0.5s0.5-0.2,0.5-0.5v-3h0.2v3
				c0,0.3,0.2,0.5,0.5,0.5s0.5-0.2,0.5-0.5v-3h1.2l-1.2-4.3h0.2l0.7,2.5c0.1,0.2,0.3,0.3,0.5,0.2C443.8,532,443.9,531.8,443.9,531.7
				z"/>
		</g>
		<g class="st18">
			<path class="st1" d="M450.4,540.6H438c-2.5,0-4.6-2.6-4.6-5.7v-6.5c0-3.2,2.1-5.7,4.6-5.7h12.3c2.5,0,4.6,2.6,4.6,5.7v6.5
				C454.9,538,452.9,540.6,450.4,540.6z M438,524.7c-1.6,0-2.9,1.6-2.9,3.6v6.5c0,2,1.3,3.6,2.9,3.6h12.3c1.6,0,2.9-1.6,2.9-3.6
				v-6.5c0-2-1.3-3.6-2.9-3.6H438z"/>
		</g>
	</g>
	<g>
		<path class="st19" d="M448.9,512.2h-15.1c-4.1,0-7.4,3.3-7.4,7.4v15.1c0,4.1,3.3,7.4,7.4,7.4h15.1c4.1,0,7.4-3.3,7.4-7.4v-15.1
			C456.3,515.5,453,512.2,448.9,512.2z"/>
		<g>
			<path class="st1" d="M446,513.6c-0.2-0.2-0.4-0.3-0.6-0.3s-0.5,0.1-0.6,0.3c-0.5,0.5-1.4,1.4-2.7,2.7c-0.4,0.4-0.4,1,0,1.3
				c0.3,0.3,0.9,0.3,1.2,0l1.1-1.1v3.5c0,0.5,0.4,0.9,0.9,0.9h0.1c0.5,0,0.9-0.4,0.9-0.9v-3.5l1.1,1.1c0.3,0.3,0.9,0.3,1.2,0l0,0
				c0.3-0.3,0.3-0.9,0-1.2C447.3,514.9,446.6,514.2,446,513.6z"/>
			<path class="st1" d="M453.8,520.6c0.2,0.2,0.4,0.3,0.6,0.3s0.5-0.1,0.6-0.3c0.5-0.5,1.4-1.4,2.7-2.7c0.4-0.4,0.4-1,0-1.3
				c-0.3-0.3-0.9-0.3-1.2,0l-1.1,1.1v-3.5c0-0.5-0.4-0.9-0.9-0.9h-0.1c-0.5,0-0.9,0.4-0.9,0.9v3.5l-1.1-1.1c-0.3-0.3-0.9-0.3-1.2,0
				l0,0c-0.3,0.3-0.3,0.9,0,1.2C452.5,519.3,453.2,520,453.8,520.6z"/>
		</g>
		<g>
			<g>
				<path class="st1" d="M453.2,527.6c0.5,0,1-0.4,1-1c0-0.5-0.4-1-1-1c-0.5,0-1,0.4-1,1C452.3,527.1,452.7,527.6,453.2,527.6z"/>
				<path class="st1" d="M454.5,527.7h-2.4c-0.6,0-1,0.5-1,1v3c0,0.2,0.2,0.4,0.4,0.4c0.2,0,0.4-0.2,0.4-0.4v-2.6h0.2v3v4.1
					c0,0.3,0.2,0.6,0.6,0.6c0.3,0,0.6-0.2,0.6-0.6v-4.1h0.2v4.1c0,0.3,0.2,0.6,0.6,0.6c0.3,0,0.6-0.2,0.6-0.6v-4.1v-3h0.2v2.6
					c0,0.2,0.2,0.4,0.4,0.4c0.2,0,0.4-0.2,0.4-0.4v-3C455.5,528.2,455,527.7,454.5,527.7z"/>
			</g>
			<path class="st1" d="M447,527.6c0.5,0,1-0.4,1-1c0-0.5-0.4-1-1-1c-0.5,0-1,0.4-1,1C446,527.1,446.4,527.6,447,527.6z"/>
			<path class="st1" d="M449.6,531.3l-0.8-2.8c-0.2-0.5-0.6-0.7-1.2-0.7l0,0h-1.3l0,0c-0.6,0-1,0.2-1.2,0.7l-0.8,2.8
				c-0.1,0.2,0.1,0.4,0.3,0.4c0.2,0.1,0.4,0,0.5-0.2l0.7-2.5h0.2l-1.2,4.3h1.2v3c0,0.3,0.2,0.5,0.5,0.5s0.5-0.2,0.5-0.5v-3h0.2v3
				c0,0.3,0.2,0.5,0.5,0.5s0.5-0.2,0.5-0.5v-3h1.2l-1.2-4.3h0.2l0.7,2.5c0.1,0.2,0.3,0.3,0.5,0.2
				C449.5,531.6,449.6,531.4,449.6,531.3z"/>
		</g>
		<g>
			<path class="st1" d="M456.1,540.2h-12.4c-2.5,0-4.6-2.6-4.6-5.7V528c0-3.2,2.1-5.7,4.6-5.7H456c2.5,0,4.6,2.6,4.6,5.7v6.5
				C460.6,537.6,458.6,540.2,456.1,540.2z M443.7,524.3c-1.6,0-2.9,1.6-2.9,3.6v6.5c0,2,1.3,3.6,2.9,3.6H456c1.6,0,2.9-1.6,2.9-3.6
				v-6.5c0-2-1.3-3.6-2.9-3.6H443.7z"/>
		</g>
	</g>
</g>
<g id="stairs_00000032626799022009418030000006004862700355200132_">
	<path class="st19" d="M497.2,562.5h-17.6c-4.8,0-8.7,3.9-8.7,8.7v17.6c0,4.8,3.9,8.7,8.7,8.7h17.6c4.8,0,8.7-3.9,8.7-8.7v-17.6
		C505.9,566.4,502,562.5,497.2,562.5z"/>
	<g class="st16">
		<path class="st20" d="M481.7,569.7c1,0,1.9-0.8,1.9-1.9c0-1-0.8-1.9-1.9-1.9c-1,0-1.9,0.8-1.9,1.9
			C479.9,568.9,480.7,569.7,481.7,569.7z"/>
		<path class="st20" d="M478.3,575.6c0.6,0,1.1-0.4,1.1-1v-1.2l0.6-0.4v3v0.6l-1.8,6.9c-0.2,0.5,0.2,1.1,0.7,1.2
			c0.6,0.2,1.2-0.1,1.4-0.7l1.6-6.4h1.6v2.1c0,0.6,0.5,1,1.1,1s1.1-0.4,1.1-1v-3.1c0-0.6-0.5-1-1.1-1l0,0l0,0h-2.4v-1.9l0.6,0.6
			c0.2,0.2,0.5,0.4,0.9,0.4l0,0h2c0.6,0,1.1-0.4,1.1-1s-0.5-1-1.1-1h-1.6l-2-2.2l-0.1-0.1c-0.1-0.1-0.2-0.3-0.4-0.4l0,0h-0.1l0,0
			h-0.1l0,0c0,0,0,0-0.1,0l0,0c0,0,0,0-0.1,0l0,0c0,0,0,0-0.1,0l0,0l0,0l0,0c0,0,0,0-0.1,0c0,0,0,0-0.1,0l0,0c0,0,0,0-0.1,0l0,0
			c0,0,0,0-0.1,0l0,0c0,0,0,0-0.1,0l0,0c0,0,0,0-0.1,0l0,0c0,0,0,0-0.1,0l0,0l-2.8,2c-0.3,0.2-0.4,0.5-0.4,0.8l0,0v1.7
			C477.2,575.2,477.6,575.6,478.3,575.6z"/>
		<path class="st20" d="M498.8,572.2h-5.1c-0.2,0-0.3,0.2-0.4,0.4v4.7h-4.7c-0.2,0-0.3,0.2-0.4,0.4v5h-4.9c-0.2,0-0.3,0.2-0.4,0.4
			v4.6h-4.7c-0.2,0-0.3,0.2-0.4,0.4v4.4c0,0.2,0.2,0.3,0.4,0.4h20.5c0.2,0,0.3-0.2,0.4-0.4l-0.1-19.8
			C499.1,572.4,499,572.3,498.8,572.2z"/>
	</g>
	<g>
		<path class="st1" d="M473.4,567.7c1.1,0,2.1-0.9,2.1-2.1c0-1.1-0.9-2.1-2.1-2.1c-1.1,0-2.1,0.9-2.1,2.1
			C471.4,566.8,472.3,567.7,473.4,567.7z"/>
		<path class="st1" d="M469.6,574.2c0.7,0,1.2-0.4,1.2-1.1v-1.3l0.7-0.4v3.3v0.7l-2,7.7c-0.2,0.6,0.2,1.2,0.8,1.3
			c0.7,0.2,1.3-0.1,1.6-0.8l1.8-7.1h1.8v2.3c0,0.7,0.6,1.1,1.2,1.1c0.7,0,1.2-0.4,1.2-1.1v-3.4c0-0.7-0.6-1.1-1.2-1.1l0,0l0,0H474
			v-2.1l0.7,0.7c0.2,0.2,0.6,0.4,1,0.4l0,0h2.2c0.7,0,1.2-0.4,1.2-1.1s-0.6-1.1-1.2-1.1H476l-2.2-2.4l-0.1-0.1
			c-0.1-0.1-0.2-0.3-0.4-0.4l0,0h-0.1l0,0H473l0,0c0,0,0,0-0.1,0l0,0c0,0,0,0-0.1,0l0,0c0,0,0,0-0.1,0l0,0l0,0l0,0c0,0,0,0-0.1,0
			c0,0,0,0-0.1,0l0,0c0,0,0,0-0.1,0l0,0c0,0,0,0-0.1,0l0,0c0,0,0,0-0.1,0l0,0c0,0,0,0-0.1,0l0,0c0,0,0,0-0.1,0l0,0l-3.1,2.2
			c-0.3,0.2-0.4,0.6-0.4,0.9l0,0v1.9C468.4,573.8,468.8,574.2,469.6,574.2z"/>
		<path class="st1" d="M492.4,570.4h-5.7c-0.2,0-0.3,0.2-0.4,0.4v5.2H481c-0.2,0-0.3,0.2-0.4,0.4v5.6h-5.4c-0.2,0-0.3,0.2-0.4,0.4
			v5.1h-5.2c-0.2,0-0.3,0.2-0.4,0.4v4.9c0,0.2,0.2,0.3,0.4,0.4h22.8c0.2,0,0.3-0.2,0.4-0.4l-0.1-22
			C492.7,570.7,492.6,570.6,492.4,570.4z"/>
	</g>
	<g id="stairs" class="st21">
		<g class="st18">
			<polygon class="st22" points="495,560.4 495,560.4 495,560.4 481.1,560.4 467.1,560.3 467.1,592.8 481,592.9 481,574.3 
				495,574.4 495,593 508.9,593 509,560.4 			"/>
			<line class="st22" x1="481" y1="588.3" x2="467.1" y2="588.3"/>
			<line class="st22" x1="481" y1="583.6" x2="467.1" y2="583.6"/>
			<line class="st22" x1="481" y1="579" x2="467.1" y2="579"/>
			<line class="st22" x1="495" y1="588.3" x2="508.9" y2="588.3"/>
			<line class="st22" x1="495" y1="583.7" x2="508.9" y2="583.7"/>
			<line class="st22" x1="495" y1="579" x2="508.9" y2="579"/>
			<line class="st22" x1="495" y1="574.4" x2="495" y2="560.4"/>
			<line class="st22" x1="490.3" y1="574.4" x2="490.4" y2="560.4"/>
			<line class="st22" x1="485.7" y1="574.3" x2="485.7" y2="560.4"/>
			<line class="st22" x1="481" y1="574.3" x2="481.1" y2="560.4"/>
			<line class="st22" x1="508.9" y1="574.4" x2="495" y2="574.4"/>
			<line class="st22" x1="508.9" y1="574.4" x2="467.1" y2="574.3"/>
			<polyline class="st22" points="474,592.9 474.1,566.9 501.9,566.9 502,589.4 			"/>
			<polygon class="st23" points="501.9,592.9 502.9,589.4 502,589.4 501,589.4 			"/>
			<path class="st23" d="M473.2,593c0,0.4,0.4,0.8,0.8,0.8s0.8-0.4,0.8-0.8c0-0.4-0.4-0.8-0.8-0.8S473.2,592.5,473.2,593z"/>
		</g>
	</g>
</g>
<rect id="circ" x="237.7" y="453" class="st24" width="26.6" height="152.5"/>
<circle id="wepa" class="st24" cx="245.9" cy="389.8" r="27.4"/>
<g id="Text">
	<text transform="matrix(1 0 0 1 391.6421 340.222)" class="st25 st26">Children’s Room</text>
	<text transform="matrix(1 0 0 1 134.9521 184.9378)" class="st25 st27">Nirvana Soul</text>
	<text transform="matrix(1 0 0 1 84.3584 503.8898)" class="st25 st27">Partners</text>
	<text transform="matrix(1 0 0 1 64.3195 525.4898)" class="st25 st27">in Reading</text>
	<text transform="matrix(1 0 0 1 372.1751 712.3572)" class="st25 st28">Digital</text>
	<text transform="matrix(1 0 0 1 372.1751 730.4578)" class="st25 st28">Humanities</text>
	<text transform="matrix(1 0 0 1 372.1751 748.5573)" class="st25 st28">Center</text>
	<text transform="matrix(1 0 0 1 224.6164 807.5609)" class="st25 st28">125</text>
</g>
<g id="floor_outline">
	<line class="st29" x1="681.1" y1="137.8" x2="524.8" y2="462.7"/>
	<line class="st29" x1="3.1" y1="603.6" x2="119.6" y2="361.3"/>
	<line class="st29" x1="118.2" y1="658.7" x2="2.9" y2="603.9"/>
	<line class="st29" x1="118.9" y1="823.5" x2="285.5" y2="903.7"/>
	<line class="st29" x1="325.3" y1="3" x2="263.1" y2="133.7"/>
	<line class="st29" x1="468" y1="71.6" x2="325.3" y2="3"/>
	<line class="st29" x1="119.5" y1="134.6" x2="263.1" y2="133.7"/>
	<line class="st29" x1="525.4" y1="40.1" x2="469.8" y2="71.8"/>
	<line class="st29" x1="525.4" y1="123.2" x2="525.4" y2="40.1"/>
	<line class="st29" x1="525.4" y1="123.2" x2="573.4" y2="119.9"/>
	<line class="st29" x1="586.2" y1="135.7" x2="573.4" y2="119.9"/>
	<line class="st29" x1="681.1" y1="137.5" x2="587.2" y2="136.7"/>
	<line class="st29" x1="119.3" y1="134.8" x2="119.9" y2="360.8"/>
	<line class="st29" x1="464.1" y1="462.7" x2="524" y2="462.7"/>
	<line class="st29" x1="464" y1="555.1" x2="464.1" y2="463"/>
	<line class="st29" x1="464" y1="555.8" x2="524.1" y2="555.8"/>
	<line class="st29" x1="524.1" y1="721.6" x2="524.1" y2="555.8"/>
	<line class="st29" x1="286.2" y1="828.7" x2="285.5" y2="903.7"/>
	<line class="st29" x1="118.9" y1="823.5" x2="118.2" y2="658.7"/>
	<line class="st29" x1="316.4" y1="828.1" x2="286.2" y2="827.7"/>
	<line class="st29" x1="523.2" y1="721.7" x2="364.5" y2="778.9"/>
	<line class="st29" x1="364.4" y1="779.1" x2="316.7" y2="827.6"/>
	<path class="st30" d="M265.9,126"/>
</g>
<g id="Doors">
	<line class="st31" x1="525.7" y1="75.7" x2="525.7" y2="101.5"/>
	<line class="st31" x1="309.7" y1="35.2" x2="296" y2="64.5"/>
	<line class="st31" x1="362.3" y1="20.4" x2="389.2" y2="33.2"/>
	<line class="st32" x1="287.1" y1="748.2" x2="287.2" y2="776.5"/>
	<line class="st31" x1="507.9" y1="728.2" x2="483" y2="736.9"/>
	<line class="st31" x1="383.6" y1="393.2" x2="399.1" y2="413.4"/>
	<line class="st31" x1="265.3" y1="149.7" x2="265.2" y2="175.2"/>
	<line class="st31" x1="135.5" y1="443" x2="109.9" y2="443"/>
	<line class="st31" x1="352.5" y1="791.6" x2="327.2" y2="817.4"/>
	<line class="st31" x1="224.9" y1="133.5" x2="199.3" y2="133.6"/>
	<line class="st32" x1="363.5" y1="741.6" x2="363.6" y2="769.9"/>
</g>
<g id="Entrances">
	<text transform="matrix(1 0 0 1 374.3289 851.2615)" class="st25 st28">Campus Entrance</text>
	<text transform="matrix(1 0 0 1 139.2119 25.8229)" class="st25 st28">San Fernando</text>
	<text transform="matrix(1 0 0 1 181.2499 45.0229)" class="st25 st28">Entrance</text>
	<g>
		<polygon points="263.8,29.7 261.3,35.3 272.1,40.1 270.1,44.7 287.8,43.8 276.7,29.9 274.6,34.5 		"/>
	</g>
	<g>
		<polygon points="366.6,837.4 370.9,833.1 362.4,824.8 366,821.2 349,815.9 354.6,832.8 358.2,829.1 		"/>
	</g>
</g>
<g id="North">
	<polygon class="st33" points="623.6,54.3 591.6,64.1 633.4,86.3 	"/>
	<text transform="matrix(0.8965 0.4431 -0.4431 0.8965 618.181 41.7799)" class="st33 st34 st35">N</text>
</g>
<g id="San_Fernando" class="st16">
	<text transform="matrix(0.9331 0.3596 -0.3596 0.9331 536.876 20.0398)" class="st36 st37 st38">San Fernando Street</text>
	<line class="st39" x1="684.2" y1="60.6" x2="529.7" y2="1.2"/>
	<line class="st39" x1="677.3" y1="78.6" x2="522.8" y2="19.2"/>
</g>
<g id="_x34_th_Street" class="st16">
	<text transform="matrix(0.4237 -0.9058 0.9058 0.4237 44.0304 173.5342)" class="st36 st37 st40">Fourth Street</text>
	<line class="st39" x1="82.5" y1="55" x2="10.8" y2="204.2"/>
	<line class="st39" x1="102.9" y1="63.6" x2="31.2" y2="212.8"/>
</g>
<g id="Emergency_exits">
	<g>
		<circle class="st41" cx="515.1" cy="602.5" r="17.5"/>
		<g>
			<path class="st42" d="M527,591.4l-6.6-2.3c-0.4-0.1-0.8,0.2-0.8,0.6v1.8h-6.4c-0.3,0-0.5,0.2-0.5,0.5v2c0.4,0.1,0.7,0.2,1,0.3
				v-1.8h5.8v20h-3.9l0.1,0.3c0.1,0.3,0.1,0.5,0.1,0.8h3.7v1.8c0,0.4,0.4,0.7,0.8,0.6l6.6-2.3c0.3-0.1,0.4-0.3,0.4-0.6V592
				C527.4,591.7,527.2,591.5,527,591.4z"/>
			<path class="st42" d="M503.1,611.6h4.2c0.6,0,1-0.4,1.2-0.9l0.4-1.7l-2-1.7c0,0,0,0-0.1-0.1l-0.5,1.8h-3.2
				c-0.7,0-1.3,0.6-1.3,1.3C501.9,611.1,502.4,611.6,503.1,611.6z"/>
			<path class="st42" d="M512.8,599.5c1.2-0.3,1.9-1.4,1.6-2.6c-0.3-1.2-1.4-1.9-2.6-1.6c-1.2,0.3-1.9,1.4-1.6,2.6
				S511.6,599.8,512.8,599.5z"/>
			<path class="st42" d="M504.8,604.8c0.5,0.2,1.1,0,1.4-0.5l0.8-1.9l1.2-0.4l-0.9,3.6c-0.1,0.5,0.1,1,0.4,1.3l3.5,2.9l0.9,3.8
				c0.1,0.6,0.7,0.9,1.2,0.9c0.1,0,0.2,0,0.3,0c0.7-0.2,1.1-0.8,0.9-1.5l-1-4.2c-0.1-0.3-0.2-0.5-0.4-0.7l-2.2-1.8l1.2-3.1l1.2,1.4
				c0.2,0.2,0.5,0.4,0.8,0.4c0.2,0,0.4-0.1,0.5-0.2l2.1-1.3c0.5-0.3,0.7-0.9,0.4-1.4s-0.9-0.7-1.4-0.4l-1.4,0.8l-1.1-1.3
				c-0.3-0.3-0.7-0.6-1.1-0.8l-1.9-0.7c-0.6-0.2-1.2-0.2-1.7,0l-2.4,0.8c-0.3,0.1-0.5,0.3-0.6,0.6l-1,2.3
				C504,604,504.2,604.6,504.8,604.8z"/>
		</g>
	</g>
	<g>
		<circle class="st41" cx="582.7" cy="307.5" r="17.5"/>
		<g>
			<path class="st42" d="M596.8,294.3l-7.8-2.7c-0.5-0.1-0.9,0.2-0.9,0.7v2.1h-7.5c-0.4,0-0.6,0.2-0.6,0.6v2.4
				c0.5,0.1,0.8,0.2,1.2,0.4v-2.1h6.8v23.5h-4.6l0.1,0.4c0.1,0.4,0.1,0.6,0.1,0.9h4.3v2.1c0,0.5,0.5,0.8,0.9,0.7l7.8-2.7
				c0.4-0.1,0.5-0.4,0.5-0.7v-24.8C597.3,294.7,597,294.5,596.8,294.3z"/>
			<path class="st42" d="M568.7,318.1h4.9c0.7,0,1.2-0.5,1.4-1.1l0.5-2l-2.4-2c0,0,0,0-0.1-0.1l-0.6,2.1h-3.8
				c-0.8,0-1.5,0.7-1.5,1.5C567.3,317.5,567.9,318.1,568.7,318.1z"/>
			<path class="st42" d="M580,304c1.4-0.4,2.2-1.6,1.9-3.1s-1.6-2.2-3.1-1.9c-1.4,0.4-2.2,1.6-1.9,3.1
				C577.3,303.4,578.7,304.2,580,304z"/>
			<path class="st42" d="M570.6,310.2c0.6,0.2,1.3,0,1.6-0.6l0.9-2.2l1.4-0.5l-1.1,4.2c-0.1,0.6,0.1,1.2,0.5,1.5l4.1,3.4l1.1,4.5
				c0.1,0.7,0.8,1.1,1.4,1.1c0.1,0,0.2,0,0.4,0c0.8-0.2,1.3-0.9,1.1-1.8l-1.2-4.9c-0.1-0.4-0.2-0.6-0.5-0.8l-2.6-2.1l1.4-3.6
				l1.4,1.6c0.2,0.2,0.6,0.5,0.9,0.5c0.2,0,0.5-0.1,0.6-0.2l2.5-1.5c0.6-0.4,0.8-1.1,0.5-1.6c-0.4-0.6-1.1-0.8-1.6-0.5l-1.6,0.9
				l-1.3-1.5c-0.4-0.4-0.8-0.7-1.3-0.9l-2.2-0.8c-0.7-0.2-1.4-0.2-2,0l-2.8,0.9c-0.4,0.1-0.6,0.4-0.7,0.7l-1.2,2.7
				C569.8,309.2,570,309.9,570.6,310.2z"/>
		</g>
	</g>
	<g class="st16">
		<circle class="st43" cx="129.4" cy="300.5" r="17.5"/>
		<g class="st18">
			<path class="st42" d="M117.5,289.4l6.6-2.3c0.4-0.1,0.8,0.2,0.8,0.6v1.8h6.4c0.3,0,0.5,0.2,0.5,0.5v2c-0.4,0.1-0.7,0.2-1,0.3
				v-1.8H125v20h3.9l-0.1,0.3c-0.1,0.3-0.1,0.5-0.1,0.8H125v1.8c0,0.4-0.4,0.7-0.8,0.6l-6.6-2.3c-0.3-0.1-0.4-0.3-0.4-0.6V290
				C117.1,289.7,117.3,289.5,117.5,289.4z"/>
			<path class="st42" d="M141.4,309.6h-4.2c-0.6,0-1-0.4-1.2-0.9l-0.4-1.7l2-1.7c0,0,0,0,0.1-0.1l0.5,1.8h3.2c0.7,0,1.3,0.6,1.3,1.3
				C142.7,309.1,142.1,309.6,141.4,309.6z"/>
			<path class="st42" d="M131.8,297.5c-1.2-0.3-1.9-1.4-1.6-2.6s1.4-1.9,2.6-1.6c1.2,0.3,1.9,1.4,1.6,2.6S132.9,297.8,131.8,297.5z"
				/>
			<path class="st42" d="M139.8,302.8c-0.5,0.2-1.1,0-1.4-0.5l-0.8-1.9l-1.2-0.4l0.9,3.6c0.1,0.5-0.1,1-0.4,1.3l-3.5,2.9l-0.9,3.8
				c-0.1,0.6-0.7,0.9-1.2,0.9c-0.1,0-0.2,0-0.3,0c-0.7-0.2-1.1-0.8-0.9-1.5l1-4.2c0.1-0.3,0.2-0.5,0.4-0.7l2.2-1.8l-1.2-3.1
				l-1.2,1.4c-0.2,0.2-0.5,0.4-0.8,0.4c-0.2,0-0.4-0.1-0.5-0.2l-2.1-1.3c-0.5-0.3-0.7-0.9-0.4-1.4c0.3-0.5,0.9-0.7,1.4-0.4l1.4,0.8
				l1.1-1.3c0.3-0.3,0.7-0.6,1.1-0.8l1.9-0.7c0.6-0.2,1.2-0.2,1.7,0l2.4,0.8c0.3,0.1,0.5,0.3,0.6,0.6l1,2.3
				C140.5,302,140.3,302.6,139.8,302.8z"/>
		</g>
	</g>
</g>
</svg>
