<?xml version="1.0" encoding="utf-8"?>
<!-- Generator: Adobe Illustrator 28.0.0, SVG Export Plug-In . SVG Version: 6.00 Build 0)  -->
<svg version="1.1" id="Layer_1" xmlns="http://www.w3.org/2000/svg" xmlns:xlink="http://www.w3.org/1999/xlink" x="0px" y="0px"
	 width="1207.8px" height="937px" viewBox="0 0 1207.8 937" style="enable-background:new 0 0 1207.8 937;" xml:space="preserve">
<style type="text/css">
	.st0{fill:none;}
	.st1{fill:none;stroke:#231F20;stroke-width:0.3;}
	.st2{fill:none;stroke:#A2C9EA;stroke-miterlimit:10;}
	.st3{fill:#A2C9EA;}
	.st4{font-family:'Arial-ItalicMT';}
	.st5{font-size:14.001px;}
	.st6{font-family:'ArialNarrow-Bold';}
	.st7{font-size:33.4957px;}
	.st8{font-size:14px;}
	.st9{font-family:'ArialNarrow-Italic';}
	.st10{font-size:14.6406px;}
	.st11{fill:#B9DDA4;stroke:#000000;stroke-width:1;stroke-miterlimit:10;}
	.st12{fill:none;stroke:#000000;stroke-linecap:round;stroke-linejoin:round;stroke-miterlimit:10;}
	.st13{fill:#B9DDA4;stroke:#000000;stroke-miterlimit:10;}
	.st14{fill:none;stroke:#000000;stroke-width:1.5;stroke-miterlimit:10;}
	.st15{fill:none;stroke:#000000;stroke-width:1.3;stroke-miterlimit:10;}
	.st16{stroke:#000000;stroke-width:1.3;stroke-miterlimit:10;}
	.st17{fill:#E5E5E5;stroke:#000000;stroke-width:2;stroke-miterlimit:10;}
	.st18{fill:#E5E5E5;stroke:#000000;stroke-width:2;stroke-miterlimit:10.0002;}
	.st19{fill:#C4EBF7;stroke:#000000;stroke-miterlimit:10;}
	.st20{fill:none;stroke:#000000;stroke-width:3;stroke-miterlimit:10;}
	.st21{fill:url(#SVGID_00000062888848128839178750000005322474553946933688_);stroke:#000000;stroke-width:2;stroke-miterlimit:10;}
	.st22{fill:none;stroke:#000000;stroke-width:2;stroke-miterlimit:10;}
	.st23{fill:none;stroke:#000000;stroke-width:2;stroke-miterlimit:10;stroke-dasharray:2.0044,2.0044;}
	.st24{fill:none;stroke:#000000;stroke-width:2;stroke-miterlimit:10;stroke-dasharray:1.9957,1.9957;}
	.st25{fill:url(#SVGID_00000079462324822335261460000013998013570409979308_);stroke:#000000;stroke-width:2;stroke-miterlimit:10;}
	.st26{fill:#7FDEE5;stroke:#000000;stroke-width:2;stroke-miterlimit:10.0004;}
	.st27{fill:#FCECA4;stroke:#000000;stroke-width:2;stroke-miterlimit:10;}
	.st28{fill:#E4F2F9;}
	.st29{font-family:'Arial-BoldMT';}
	.st30{font-size:300px;}
	.st31{letter-spacing:6;}
	.st32{font-family:'MyriadPro-Semibold';}
	.st33{font-size:18px;}
	.st34{font-family:'MyriadPro-Regular';}
	.st35{font-size:16px;}
	.st36{font-size:48px;}
	.st37{fill:none;stroke:#000000;stroke-width:4;stroke-linecap:round;stroke-linejoin:round;stroke-miterlimit:10;}
	.st38{fill:#146EDC;}
	.st39{fill:#FFFFFF;}
	.st40{fill:#FF0000;}
</style>
<pattern  y="937" width="72" height="72" patternUnits="userSpaceOnUse" id="SVGID_0000003839403846787394442" viewBox="72.2 -144.2 72 72" style="overflow:visible;">
	<g>
		<rect x="72.2" y="-144.2" class="st0" width="72" height="72"/>
		<g>
			<rect x="72.2" y="-144.2" class="st0" width="72" height="72"/>
			<g>
				<rect x="72.2" y="-144.2" class="st0" width="72" height="72"/>
				<g>
					<line class="st1" x1="78.2" y1="-72.5" x2="78.2" y2="0"/>
					<line class="st1" x1="102.2" y1="-72.5" x2="102.2" y2="0"/>
					<line class="st1" x1="126.2" y1="-72.5" x2="126.2" y2="0"/>
					<line class="st1" x1="90.2" y1="-72.5" x2="90.2" y2="0"/>
					<line class="st1" x1="114.2" y1="-72.5" x2="114.2" y2="0"/>
					<line class="st1" x1="138.2" y1="-72.5" x2="138.2" y2="0"/>
				</g>
				<g>
					<line class="st1" x1="144" y1="-78.2" x2="216.5" y2="-78.2"/>
					<line class="st1" x1="144" y1="-102.2" x2="216.5" y2="-102.2"/>
					<line class="st1" x1="144" y1="-126.2" x2="216.5" y2="-126.2"/>
					<line class="st1" x1="144" y1="-90.2" x2="216.5" y2="-90.2"/>
					<line class="st1" x1="144" y1="-114.2" x2="216.5" y2="-114.2"/>
					<line class="st1" x1="144" y1="-138.2" x2="216.5" y2="-138.2"/>
				</g>
				<g>
					<line class="st1" x1="78.2" y1="-144.5" x2="78.2" y2="-72"/>
					<line class="st1" x1="102.2" y1="-144.5" x2="102.2" y2="-72"/>
					<line class="st1" x1="126.2" y1="-144.5" x2="126.2" y2="-72"/>
					<line class="st1" x1="72" y1="-78.2" x2="144.5" y2="-78.2"/>
					<line class="st1" x1="72" y1="-102.2" x2="144.5" y2="-102.2"/>
					<line class="st1" x1="72" y1="-126.2" x2="144.5" y2="-126.2"/>
					<line class="st1" x1="72" y1="-90.2" x2="144.5" y2="-90.2"/>
					<line class="st1" x1="72" y1="-114.2" x2="144.5" y2="-114.2"/>
					<line class="st1" x1="72" y1="-138.2" x2="144.5" y2="-138.2"/>
					<line class="st1" x1="90.2" y1="-144.5" x2="90.2" y2="-72"/>
					<line class="st1" x1="114.2" y1="-144.5" x2="114.2" y2="-72"/>
					<line class="st1" x1="138.2" y1="-144.5" x2="138.2" y2="-72"/>
				</g>
				<g>
					<line class="st1" x1="0" y1="-78.2" x2="72.5" y2="-78.2"/>
					<line class="st1" x1="0" y1="-102.2" x2="72.5" y2="-102.2"/>
					<line class="st1" x1="0" y1="-126.2" x2="72.5" y2="-126.2"/>
					<line class="st1" x1="0" y1="-90.2" x2="72.5" y2="-90.2"/>
					<line class="st1" x1="0" y1="-114.2" x2="72.5" y2="-114.2"/>
					<line class="st1" x1="0" y1="-138.2" x2="72.5" y2="-138.2"/>
				</g>
				<g>
					<line class="st1" x1="78.2" y1="-216.5" x2="78.2" y2="-144"/>
					<line class="st1" x1="102.2" y1="-216.5" x2="102.2" y2="-144"/>
					<line class="st1" x1="126.2" y1="-216.5" x2="126.2" y2="-144"/>
					<line class="st1" x1="90.2" y1="-216.5" x2="90.2" y2="-144"/>
					<line class="st1" x1="114.2" y1="-216.5" x2="114.2" y2="-144"/>
					<line class="st1" x1="138.2" y1="-216.5" x2="138.2" y2="-144"/>
				</g>
			</g>
		</g>
	</g>
</pattern>
<pattern  y="937" width="72" height="72" patternUnits="userSpaceOnUse" id="SVGID_1_" viewBox="72.2 -144.2 72 72" style="overflow:visible;">
	<g>
		<rect x="72.2" y="-144.2" class="st0" width="72" height="72"/>
		<g>
			<rect x="72.2" y="-144.2" class="st0" width="72" height="72"/>
			<g>
				<rect x="72.2" y="-144.2" class="st0" width="72" height="72"/>
				<g>
					<line class="st1" x1="78.2" y1="-72.5" x2="78.2" y2="0"/>
					<line class="st1" x1="102.2" y1="-72.5" x2="102.2" y2="0"/>
					<line class="st1" x1="126.2" y1="-72.5" x2="126.2" y2="0"/>
					<line class="st1" x1="90.2" y1="-72.5" x2="90.2" y2="0"/>
					<line class="st1" x1="114.2" y1="-72.5" x2="114.2" y2="0"/>
					<line class="st1" x1="138.2" y1="-72.5" x2="138.2" y2="0"/>
				</g>
				<g>
					<line class="st1" x1="144" y1="-78.2" x2="216.5" y2="-78.2"/>
					<line class="st1" x1="144" y1="-102.2" x2="216.5" y2="-102.2"/>
					<line class="st1" x1="144" y1="-126.2" x2="216.5" y2="-126.2"/>
					<line class="st1" x1="144" y1="-90.2" x2="216.5" y2="-90.2"/>
					<line class="st1" x1="144" y1="-114.2" x2="216.5" y2="-114.2"/>
					<line class="st1" x1="144" y1="-138.2" x2="216.5" y2="-138.2"/>
				</g>
				<g>
					<line class="st1" x1="78.2" y1="-144.5" x2="78.2" y2="-72"/>
					<line class="st1" x1="102.2" y1="-144.5" x2="102.2" y2="-72"/>
					<line class="st1" x1="126.2" y1="-144.5" x2="126.2" y2="-72"/>
					<line class="st1" x1="72" y1="-78.2" x2="144.5" y2="-78.2"/>
					<line class="st1" x1="72" y1="-102.2" x2="144.5" y2="-102.2"/>
					<line class="st1" x1="72" y1="-126.2" x2="144.5" y2="-126.2"/>
					<line class="st1" x1="72" y1="-90.2" x2="144.5" y2="-90.2"/>
					<line class="st1" x1="72" y1="-114.2" x2="144.5" y2="-114.2"/>
					<line class="st1" x1="72" y1="-138.2" x2="144.5" y2="-138.2"/>
					<line class="st1" x1="90.2" y1="-144.5" x2="90.2" y2="-72"/>
					<line class="st1" x1="114.2" y1="-144.5" x2="114.2" y2="-72"/>
					<line class="st1" x1="138.2" y1="-144.5" x2="138.2" y2="-72"/>
				</g>
				<g>
					<line class="st1" x1="0" y1="-78.2" x2="72.5" y2="-78.2"/>
					<line class="st1" x1="0" y1="-102.2" x2="72.5" y2="-102.2"/>
					<line class="st1" x1="0" y1="-126.2" x2="72.5" y2="-126.2"/>
					<line class="st1" x1="0" y1="-90.2" x2="72.5" y2="-90.2"/>
					<line class="st1" x1="0" y1="-114.2" x2="72.5" y2="-114.2"/>
					<line class="st1" x1="0" y1="-138.2" x2="72.5" y2="-138.2"/>
				</g>
				<g>
					<line class="st1" x1="78.2" y1="-216.5" x2="78.2" y2="-144"/>
					<line class="st1" x1="102.2" y1="-216.5" x2="102.2" y2="-144"/>
					<line class="st1" x1="126.2" y1="-216.5" x2="126.2" y2="-144"/>
					<line class="st1" x1="90.2" y1="-216.5" x2="90.2" y2="-144"/>
					<line class="st1" x1="114.2" y1="-216.5" x2="114.2" y2="-144"/>
					<line class="st1" x1="138.2" y1="-216.5" x2="138.2" y2="-144"/>
				</g>
			</g>
		</g>
	</g>
</pattern>
<g id="streets">
	<g id="San_fernando">
		<line class="st2" x1="284.9" y1="142.9" x2="471.4" y2="24.9"/>
		<line class="st2" x1="297.3" y1="162.7" x2="505.7" y2="30.9"/>
		<polygon class="st0" points="460.8,56.5 317.2,147.6 310.3,136.9 453.9,45.8 		"/>
		<text transform="matrix(0.8481 -0.5299 0.5299 0.8481 337.2661 130.4937)" class="st3 st4 st5">San Fernando Street</text>
	</g>
	<g>
		<polygon class="st3" points="511.4,87.5 504.1,120.2 544.1,94.9 		"/>
		
			<rect x="487" y="62.1" transform="matrix(0.8238 -0.5669 0.5669 0.8238 45.1267 295.9727)" class="st0" width="23.3" height="26.6"/>
		<text transform="matrix(0.829 -0.5592 0.5592 0.829 496.3652 89.7178)" class="st3 st6 st7">N</text>
	</g>
	<g id="_x34_th_Street">
		<line class="st2" x1="311.8" y1="745.4" x2="144.5" y2="421.7"/>
		<line class="st2" x1="333.2" y1="735.8" x2="165.4" y2="411.1"/>
		
			<rect x="229.9" y="499.3" transform="matrix(0.8786 -0.4776 0.4776 0.8786 -245.3593 183.0779)" class="st0" width="15" height="149.6"/>
		<text transform="matrix(-0.4695 -0.8829 0.8829 -0.4695 249.3047 592.6307)" class="st3 st4 st8">Fourth Street</text>
	</g>
	<g id="SJSU_CAMPUS">
		<polygon class="st3" points="1179.3,734.5 1154.1,715.1 1159.9,759.7 		"/>
		
			<rect x="1127.1" y="671.8" transform="matrix(0.9858 -0.1678 0.1678 0.9858 -106.9223 201.6409)" class="st0" width="25.2" height="123.4"/>
		<text transform="matrix(0.1586 0.9873 -0.9873 0.1586 1137.0145 699.5504)" class="st3 st9 st10">SJSU Campus</text>
	</g>
	<g id="Elev_x2F_esc_x2F_stairs">
		<g>
			
				<rect x="778.2" y="483.4" transform="matrix(0.566 -0.8244 0.8244 0.566 -98.9536 890.5242)" class="st11" width="36.3" height="111.7"/>
			<g id="escalator_00000070833955443197976630000013030456594240933513_">
				<g>
					<g id="LINE_00000175300582530713307810000017250745887772802719_">
						<line class="st12" x1="792.5" y1="554.1" x2="744.8" y2="520.8"/>
					</g>
					<g id="LINE_00000005267804367376950950000017670766514589199234_">
						<line class="st12" x1="794.5" y1="556.1" x2="744.4" y2="521.2"/>
					</g>
					<g id="LINE_00000159459067434755131110000002485898742489299876_">
						<line class="st12" x1="802.6" y1="545.5" x2="752.5" y2="510.6"/>
					</g>
					<g id="LINE_00000071536289280342227040000002182415178206999192_">
						<line class="st12" x1="802.2" y1="545.9" x2="752.2" y2="511"/>
					</g>
					<g id="LINE_00000030484882570146493910000014068991845663544962_">
						<line class="st12" x1="799.8" y1="544.9" x2="792.7" y2="554.2"/>
					</g>
					<g id="LINE_00000034072640151112893940000007032175534048167310_">
						<line class="st12" x1="796.1" y1="542.3" x2="789" y2="551.6"/>
					</g>
					<g id="LINE_00000136393277021996936050000000778610375088511875_">
						<line class="st12" x1="792.6" y1="539.9" x2="785.5" y2="549.2"/>
					</g>
					<g id="LINE_00000163071281937567593120000008172368302590632083_">
						<line class="st12" x1="789.1" y1="537.4" x2="782.1" y2="546.8"/>
					</g>
					<g id="LINE_00000093150224269321470460000005923040872473435023_">
						<line class="st12" x1="775.3" y1="527.8" x2="768.2" y2="537.2"/>
					</g>
					<g id="LINE_00000054228373476672798010000001415340832261102243_">
						<line class="st12" x1="778.8" y1="530.2" x2="771.7" y2="539.6"/>
					</g>
					<g id="LINE_00000161620782950736678360000016702901872045779605_">
						<line class="st12" x1="782.3" y1="532.7" x2="775.2" y2="542"/>
					</g>
					<g id="LINE_00000053538539497337447050000000506436644559882125_">
						<line class="st12" x1="785.7" y1="535" x2="778.6" y2="544.4"/>
					</g>
					<g id="LINE_00000181060439717567883380000001328288601116817334_">
						<line class="st12" x1="771.4" y1="525.1" x2="764.3" y2="534.4"/>
					</g>
				</g>
			</g>
			<g>
				<g id="LINE_00000039129921965307840330000000916614772354171053_">
					<line class="st12" x1="802.8" y1="541.5" x2="755.2" y2="508.3"/>
				</g>
				<g id="LINE_00000183232263360243218000000014914434174736856766_">
					<line class="st12" x1="804.9" y1="543.6" x2="754.8" y2="508.7"/>
				</g>
				<g id="LINE_00000134971724595076770800000011634651582775166110_">
					<line class="st12" x1="812.9" y1="533" x2="762.8" y2="498.1"/>
				</g>
				<g id="LINE_00000139985550712778097390000011734148308922649757_">
					<line class="st12" x1="812.5" y1="533.3" x2="762.5" y2="498.5"/>
				</g>
				<g id="LINE_00000161615525219399362960000010358224361716366989_">
					<line class="st12" x1="810.2" y1="532.4" x2="803.1" y2="541.7"/>
				</g>
				<g id="LINE_00000050622520462115683830000014602163837273226142_">
					<line class="st12" x1="806.4" y1="529.8" x2="799.4" y2="539.1"/>
				</g>
				<g id="LINE_00000070816089196109457410000010050429523297744817_">
					<line class="st12" x1="803" y1="527.3" x2="795.9" y2="536.7"/>
				</g>
				<g id="LINE_00000099656406252343713910000000860961959387512708_">
					<line class="st12" x1="799.5" y1="524.9" x2="792.4" y2="534.3"/>
				</g>
				<g id="LINE_00000085228161180388642890000014117454962385211049_">
					<line class="st12" x1="785.7" y1="515.3" x2="778.6" y2="524.6"/>
				</g>
				<g id="LINE_00000111193638674697565340000010071611339552483741_">
					<line class="st12" x1="789.1" y1="517.7" x2="782.1" y2="527.1"/>
				</g>
				<g id="LINE_00000137818096606678954040000001279689764850617767_">
					<line class="st12" x1="792.6" y1="520.1" x2="785.5" y2="529.5"/>
				</g>
				<g id="LINE_00000072259355674821735480000002454678363656134551_">
					<line class="st12" x1="796.1" y1="522.5" x2="789" y2="531.9"/>
				</g>
				<g id="LINE_00000110452060786668643000000011488645479241716150_">
					<line class="st12" x1="781.7" y1="512.5" x2="774.7" y2="521.9"/>
				</g>
			</g>
		</g>
		<polyline id="elevator" class="st13" points="794.9,445.3 875.9,500 907.7,521.4 895.2,539.6 783.2,463.8 794.9,445.3 		"/>
		
			<rect x="877.4" y="464" transform="matrix(0.566 -0.8244 0.8244 0.566 -5.0939 959.1105)" class="st11" width="62" height="40.8"/>
		<g id="elevator_00000155118643947176890710000006878021629677294758_">
			<g id="LINE_4731_">
				<line class="st14" x1="812.6" y1="460.9" x2="798.4" y2="451.2"/>
			</g>
			<g id="LINE_4735_">
				<line class="st14" x1="803.8" y1="473.7" x2="800.5" y2="471.4"/>
			</g>
			<g id="LINE_4738_">
				<line class="st14" x1="793" y1="466.3" x2="789.6" y2="463.9"/>
			</g>
			<g id="LINE_4741_">
				<line class="st14" x1="812.6" y1="460.9" x2="803.8" y2="473.7"/>
			</g>
			<g id="LINE_4744_">
				<line class="st14" x1="813.2" y1="460.8" x2="798.3" y2="450.6"/>
			</g>
			<g id="LINE_4745_">
				<line class="st14" x1="812.7" y1="460.7" x2="798.5" y2="451"/>
			</g>
			<g id="LINE_4746_">
				<line class="st14" x1="798.4" y1="451.2" x2="789.6" y2="463.9"/>
			</g>
			<g id="LINE_4747_">
				<line class="st14" x1="798.8" y1="450.9" x2="798.6" y2="451.3"/>
			</g>
			<g id="LINE_4748_">
				<line class="st14" x1="812.7" y1="460.4" x2="812.4" y2="460.8"/>
			</g>
			<g id="LINE_00000023963411821320410900000009994663940296984221_">
				<line class="st14" x1="832.3" y1="474.4" x2="818.1" y2="464.7"/>
			</g>
			<g id="LINE_00000036243211870807232230000004294824485503304094_">
				<line class="st14" x1="823.5" y1="487.2" x2="820.1" y2="484.9"/>
			</g>
			<g id="LINE_00000021083911021367709180000006361326137356006789_">
				<line class="st14" x1="812.7" y1="479.7" x2="809.3" y2="477.4"/>
			</g>
			<g id="LINE_00000157305032477417135590000014763398251095956890_">
				<line class="st14" x1="832.3" y1="474.4" x2="823.5" y2="487.2"/>
			</g>
			<g id="LINE_00000061429359115443803660000001421681803928210091_">
				<line class="st14" x1="832.8" y1="474.3" x2="817.9" y2="464.1"/>
			</g>
			<g id="LINE_00000137096246246306441270000002996625498926383788_">
				<line class="st14" x1="832.4" y1="474.2" x2="818.2" y2="464.5"/>
			</g>
			<g id="LINE_00000172415491339264399940000003389993333652483473_">
				<line class="st14" x1="818.1" y1="464.7" x2="809.3" y2="477.4"/>
			</g>
			<g id="LINE_00000182499327570779227240000011350039420364845744_">
				<line class="st14" x1="851.9" y1="487.9" x2="837.7" y2="478.1"/>
			</g>
			<g id="LINE_00000137827711904242877120000013475160053294783399_">
				<line class="st14" x1="843.1" y1="500.7" x2="839.8" y2="498.4"/>
			</g>
			<g id="LINE_00000110430310769929994080000003016575270157341115_">
				<line class="st14" x1="832.3" y1="493.2" x2="828.9" y2="490.9"/>
			</g>
			<g id="LINE_00000001632994639779474680000017729122945952289951_">
				<line class="st14" x1="851.9" y1="487.9" x2="843.1" y2="500.7"/>
			</g>
			<g id="LINE_00000101093348003495924100000015220336780324354982_">
				<line class="st14" x1="852.5" y1="487.8" x2="837.6" y2="477.6"/>
			</g>
			<g id="LINE_00000123417822785358762020000005155066374409787060_">
				<line class="st14" x1="852" y1="487.7" x2="837.8" y2="478"/>
			</g>
			<g id="LINE_00000001631246263749752440000010237371117853874571_">
				<line class="st14" x1="837.7" y1="478.1" x2="828.9" y2="490.9"/>
			</g>
			<g id="LINE_00000086666489933795298720000013289038007283657891_">
				<line class="st14" x1="871.6" y1="501.4" x2="857.4" y2="491.6"/>
			</g>
			<g id="LINE_00000010286446039431400240000004179056468150093201_">
				<line class="st14" x1="862.8" y1="514.2" x2="859.4" y2="511.8"/>
			</g>
			<g id="LINE_00000078723507910867709110000003996737817167854731_">
				<line class="st14" x1="852" y1="506.7" x2="848.6" y2="504.4"/>
			</g>
			<g id="LINE_00000084494013187931397180000013021804154882057626_">
				<line class="st14" x1="871.6" y1="501.4" x2="862.8" y2="514.2"/>
			</g>
			<g id="LINE_00000103244059294916214250000010451246233931379622_">
				<line class="st14" x1="872.2" y1="501.3" x2="857.3" y2="491.1"/>
			</g>
			<g id="LINE_00000102513105850367397460000008568563727976591525_">
				<line class="st14" x1="871.7" y1="501.2" x2="857.5" y2="491.5"/>
			</g>
			<g id="LINE_00000077294377489538548660000017451036063543871892_">
				<line class="st14" x1="857.4" y1="491.6" x2="848.6" y2="504.4"/>
			</g>
			<g id="LINE_00000084502092826103097570000007421885943408696208_">
				<line class="st14" x1="891.2" y1="514.9" x2="877" y2="505.1"/>
			</g>
			<g id="LINE_00000054242181457467428560000001838774522505732244_">
				<line class="st14" x1="882.4" y1="527.7" x2="879.1" y2="525.3"/>
			</g>
			<g id="LINE_00000038399793835736963570000006870936880396350634_">
				<line class="st14" x1="871.6" y1="520.2" x2="868.2" y2="517.9"/>
			</g>
			<g id="LINE_00000085233646092173888780000001954179608992735126_">
				<line class="st14" x1="891.2" y1="514.9" x2="882.4" y2="527.7"/>
			</g>
			<g id="LINE_00000140724683986225496660000005009668492149025922_">
				<line class="st14" x1="891.8" y1="514.8" x2="876.9" y2="504.5"/>
			</g>
			<g id="LINE_00000009576526774020755230000003960706048185272964_">
				<line class="st14" x1="891.3" y1="514.7" x2="877.1" y2="505"/>
			</g>
			<g id="LINE_00000142166729456088507190000006205798940652332981_">
				<line class="st14" x1="877" y1="505.1" x2="868.2" y2="517.9"/>
			</g>
		</g>
	</g>
	<g id="stairs">
		<g>
			<polygon class="st15" points="894.8,478 894.8,478 894.8,478 888.2,487.4 881.5,496.9 903.6,512.3 910.2,502.9 897.6,494.1 
				904.3,484.6 916.9,493.4 923.5,484 901.4,468.5 			"/>
			<line class="st15" x1="907.1" y1="500.7" x2="900.5" y2="510.1"/>
			<line class="st15" x1="903.9" y1="498.5" x2="897.3" y2="507.9"/>
			<line class="st15" x1="900.8" y1="496.3" x2="894.2" y2="505.7"/>
			<line class="st15" x1="913.7" y1="491.2" x2="920.3" y2="481.8"/>
			<line class="st15" x1="910.6" y1="489" x2="917.2" y2="479.6"/>
			<line class="st15" x1="907.4" y1="486.8" x2="914" y2="477.4"/>
			<line class="st15" x1="904.3" y1="484.6" x2="894.8" y2="478"/>
			<line class="st15" x1="902.1" y1="487.8" x2="892.6" y2="481.1"/>
			<line class="st15" x1="899.8" y1="490.9" x2="890.4" y2="484.3"/>
			<line class="st15" x1="897.6" y1="494.1" x2="888.2" y2="487.4"/>
			<line class="st15" x1="910.9" y1="475.2" x2="904.3" y2="484.6"/>
			<line class="st15" x1="910.9" y1="475.2" x2="891" y2="503.5"/>
			<polyline class="st15" points="906.9,507.6 889.3,495.3 902.5,476.4 917.8,487 			"/>
			<polygon class="st16" points="920.1,488.7 918.2,486.4 917.8,487 917.3,487.7 			"/>
			<path class="st16" d="M906.6,508.2c0.3,0.2,0.7,0.1,0.9-0.2c0.2-0.3,0.1-0.7-0.2-0.9c-0.3-0.2-0.7-0.1-0.9,0.2
				C906.2,507.6,906.3,508,906.6,508.2z"/>
		</g>
	</g>
</g>
<g id="Ground">
	<g id="Grey_Region">
		<circle id="welcomedesk_1_" class="st17" cx="656" cy="572.7" r="19.6"/>
		<polygon id="childrens_x27_s_room_grey_2" class="st17" points="725.7,210.6 750.2,253.2 723,268.4 699,226.8 		"/>
		<polygon id="childrens_x27_s_room_grey_1" class="st17" points="750.2,253.2 723,268.4 745.7,308.7 773.4,293.5 		"/>
		<polygon id="circulation_course" class="st17" points="676.2,626.8 672.5,620 691.1,603.7 757.4,665.9 776.8,658.4 802.2,693.6 
			796,698.5 773.2,670.1 759.4,683.4 693,615.7 		"/>
		
			<rect x="417.2" y="541.7" transform="matrix(0.5463 -0.8376 0.8376 0.5463 -279.74 646.7142)" class="st18" width="79.8" height="79.8"/>
	</g>
	<g id="text">
		<g>
			<polygon id="light_well_00000009575456661285874380000012870657088554542012_" class="st19" points="812.5,423.7 832.2,396.9 
				783.8,316.7 776.6,327.2 746.1,383.1 803.3,423.8 			"/>
			<polygon id="light_well_00000026867991758152571200000018019653051757557914_" class="st19" points="529.7,680 573.5,751.4 
				609.3,695.6 551.4,655.2 			"/>
			<line class="st20" x1="491.9" y1="451.6" x2="558.5" y2="496.9"/>
			
				<pattern  id="SVGID_00000078730256021677408720000012948971419895138955_" xlink:href="#SVGID_1_" patternTransform="matrix(1 0 0 1 9.4 17668.2207)">
			</pattern>
			
				<polygon style="fill:url(#SVGID_00000078730256021677408720000012948971419895138955_);stroke:#000000;stroke-width:2;stroke-miterlimit:10;" points="
				827.8,684.4 791.2,732.8 654.4,629.2 621.5,679.4 721.4,746.6 712.7,763.3 727.5,776.2 709.7,798.9 696.1,790.1 624.2,839.2 
				661.1,902.7 765,841.5 901.1,935 978.6,889 876.6,817.4 924.6,745.8 829.2,683.2 			"/>
			<line class="st20" x1="1009.4" y1="721.6" x2="1016" y2="756.8"/>
			<line class="st20" x1="367.8" y1="350.7" x2="386" y2="381.6"/>
			<line class="st20" x1="412.4" y1="259.2" x2="381.4" y2="277.2"/>
			<g>
				<g>
					<line class="st22" x1="994.4" y1="706.4" x2="993.9" y2="707.3"/>
					<line class="st23" x1="992.8" y1="709" x2="957.5" y2="766.1"/>
					<line class="st22" x1="957" y1="766.9" x2="956.4" y2="767.8"/>
				</g>
			</g>
			<g>
				<g>
					<line class="st22" x1="531.3" y1="390.9" x2="530.8" y2="391.7"/>
					<line class="st24" x1="529.7" y1="393.4" x2="493" y2="449.3"/>
					<line class="st22" x1="492.4" y1="450.1" x2="491.9" y2="450.9"/>
				</g>
			</g>
			
				<pattern  id="SVGID_00000018955785268451359650000001728817663070063002_" xlink:href="#SVGID_0000003839403846787394442" patternTransform="matrix(1 0 0 1 9.4 17668.2207)">
			</pattern>
			
				<polygon style="fill:url(#SVGID_00000018955785268451359650000001728817663070063002_);stroke:#000000;stroke-width:2;stroke-miterlimit:10;" points="
				953.3,478.1 904.8,550.2 916.1,558 901.6,579.3 891.9,572.6 933.3,604.1 952.5,575.2 982.1,593.7 1027.2,527.9 			"/>
			
				<rect x="847.9" y="586.3" transform="matrix(0.4347 -0.9006 0.9006 0.4347 -39.4594 1121.9113)" class="st26" width="52.1" height="12.2"/>
			<circle cx="560.8" cy="498.4" r="4"/>
		</g>
		<g id="Rooms">
			<polygon id="childrens" class="st27" points="745.6,309.3 698.9,227.4 725.6,211.1 651.4,87.4 638.7,94.9 578.8,163.8 
				554.5,205.2 554.4,205.2 470.5,350.2 652.4,469.6 669.2,426 697.1,437.1 775.7,472.5 775.5,472.7 811.9,423.2 747.6,379.6 
				747.3,378.8 785.8,318.8 785.8,318.8 771.9,294.4 			"/>
			<g id="DHC">
				<polygon class="st27" points="1027.2,527.9 982.1,593.7 952.5,575.2 933.3,604.1 890.4,571.5 868.2,618.9 1003.2,712.5 
					1045.8,539.6 				"/>
			</g>
			<polygon id="PAR" class="st27" points="573.5,751.4 621.5,679.4 721.4,746.6 712.7,763.3 727.5,776.2 709.7,798.9 696.1,790.1 
				624.2,839.2 			"/>
			<polygon id="_x31_25" class="st27" points="924.6,745.8 876.6,817.4 978.6,889 1058.6,841.5 			"/>
			<polygon id="Nirvana" class="st27" points="402.5,590.5 335.3,546.8 398.5,452.7 387,433.3 424.7,409 491.9,451.6 			"/>
		</g>
		<rect x="52.8" y="58.9" class="st0" width="281.9" height="281.8"/>
		<text transform="matrix(1 0 0 1 52.7602 273.6857)" class="st28 st29 st30 st31">G</text>
		<text transform="matrix(1 0 0 1 235.6212 302.5942)" class="st32 st33">San Fernando</text>
		<text transform="matrix(1 0 0 1 274.2212 325.5942)" class="st32 st33">Entrance</text>
		<rect x="588.4" y="302.6" class="st0" width="99.4" height="41.3"/>
		<text transform="matrix(1 0 0 1 600.7191 315.3741)" class="st34 st33">Children’s </text>
		<text transform="matrix(1 0 0 1 615.9191 335.3741)" class="st34 st33">Room</text>
		<rect x="372.9" y="472.2" class="st0" width="99.4" height="52.2"/>
		<text transform="matrix(1 0 0 1 393.6237 484.9714)" class="st34 st33">Nirvana </text>
		<text transform="matrix(1 0 0 1 406.1237 500.9714)" class="st34 st33">Soul</text>
		<rect x="504.9" y="524.1" class="st0" width="99.4" height="52.2"/>
		<text transform="matrix(1 0 0 1 510.3346 535.4307)" class="st34 st35">Brandenburg</text>
		<text transform="matrix(1 0 0 1 523.4346 551.4307)" class="st34 st35">Browsing</text>
		<text transform="matrix(1 0 0 1 520.8346 567.4307)" class="st34 st35">Collection</text>
		<rect x="586.8" y="741" class="st0" width="99.4" height="52.2"/>
		<text transform="matrix(1 0 0 1 596.3676 753.8177)" class="st34 st33">Partners in </text>
		<text transform="matrix(1 0 0 1 605.5676 769.8177)" class="st34 st33">Reading</text>
		<rect x="889.4" y="812.4" class="st0" width="129.3" height="72.6"/>
		<text transform="matrix(1 0 0 1 899.1498 825.1686)" class="st34 st33">Classroom 125</text>
		<rect x="899" y="606.1" class="st0" width="136" height="63.8"/>
		<text transform="matrix(1 0 0 1 942.3078 618.9009)" class="st34 st33">Digital </text>
		<text transform="matrix(1 0 0 1 924.0078 636.9009)" class="st34 st33">Humanities </text>
		<text transform="matrix(1 0 0 1 941.8078 654.9009)" class="st34 st33">Center</text>
		<rect x="712.4" y="623.4" class="st0" width="109" height="51.1"/>
		<text transform="matrix(1 0 0 1 730.6865 634.8023)" class="st34 st35">Circulation</text>
		<text transform="matrix(1 0 0 1 750.6865 648.8023)" class="st34 st35">Desk</text>
		<rect x="555" y="597.1" class="st0" width="92.8" height="46.3"/>
		<text transform="matrix(1 0 0 1 590.6961 607.0094)" class="st34 st8">Self</text>
		<text transform="matrix(1 0 0 1 570.2961 619.0094)" class="st34 st8">Check-Out </text>
		<text transform="matrix(1 0 0 1 573.4961 631.0094)" class="st34 st8">Machines</text>
		<rect x="0.1" y="51.5" class="st0" width="319.9" height="54.6"/>
		<text transform="matrix(1 0 0 1 7.458496e-02 85.9061)" class="st29 st36">Ground Floor</text>
		<text transform="matrix(1 0 0 1 1033.6748 726.4709)" class="st32 st33">Campus</text>
		<text transform="matrix(1 0 0 1 1033.6748 749.4709)" class="st32 st33">Entrance</text>
	</g>
	<g id="Ground_floor">
		<g id="street">
		</g>
	</g>
	<g id="light_well">
	</g>
	<g id="Yelllow_Region">
		<g id="Layer_14">
		</g>
		<g id="children_x27_s_room">
		</g>
	</g>
	<g id="Ground_floor_outline">
	</g>
	<g id="bldg_outline">
		<path class="st37" d="M393.4,458.1c1.4-0.6,4.4-1.4,5.2-1.9c0.2-0.1,0.3-0.3,0.2-0.6c-3.2-5.2-9.6-14.6-13.1-20.1
			c-0.4-0.6-0.7-1-0.7-1.2c-0.1-0.3,0.2-0.4,0.5-0.6c3.5-2,22.3-13.2,25-14.7c-7.9-14.2-50.9-86.3-53.4-90.8c0-0.1,0-0.1,0-0.2
			c0.2-0.1,0.8-0.5,1.9-1.2c4.4-2.9,17.6-10.2,23-13.6c0.1-0.1,0.2-0.2,0.1-0.4c-3.6-6.1-11.1-19.2-14.3-24.5
			c-0.2-0.4-0.3-0.5-0.3-0.8c7.1-4.4,15.9-9.4,26.5-15.7c30.3-17.9,76.1-44.9,78.7-46.5c0.1,0,0.1-0.1,0.1-0.1
			c0.4-1.6,0.3-3.5,0.7-6.1c0.6-6,1.5-14.7,1.8-17c0-0.4,0.1-0.6,0.3-0.9c1.3-1.5,4.1-2.8,5.5-4.2c0.3-0.3,0.3-0.4,0.4-0.8
			c0.2-2.4,1.1-14,1.9-24.1c0.3-5.3,0.9-11.6,1.2-15.5c0.7,0.2,4.9,3.4,11.4,7.7c18.9,13,55.1,37.8,57.4,39.3c0.1,0.1,0.1,0.1,0.2,0
			c0.1-0.1,0.2-0.4,0.6-0.9c4.4-7.3,9.8-16.8,14.9-25.5c3.4-6,6.1-10.4,8.6-14.7c1.6-2.2,56.2-64.7,59.9-69c0.1-0.1,0.1-0.1,0.2-0.2
			c0.1-0.1,0.4-0.3,1.1-0.7c1.3-0.6,3.3-2,4.8-2.8c1.7-1,3.5-2,5.2-3c2.1-1.2,1.5-0.9,1.7-0.8c6.9,11.7,179.5,304.1,182.2,309
			c-7,10.4-32.1,46.8-34.5,50.3c-0.1,0.1-0.1,0.2-0.1,0.2c0.5,0.5,1,0.7,2,1.5c11.8,8.1,71.7,49.2,74,50.8c0.1,0,0.1,0,0.2-0.1
			c0.1-0.2,0.5-0.8,1.2-1.7c6.2-9.3,15.7-22.8,22.7-33.1c4.7-7,7.7-11.1,10.3-14.9c0.2-0.2,0.2-0.3,0.3-0.4c0.2,0.1,2.2,1.5,5.6,3.8
			c25.5,17.7,130.4,89.1,131.8,90.6c-5.3,22.8-40.6,162.7-41.3,167.5c3,15.2,10.9,58.8,12,64.1c0.1,0.3,0.1,0.4-0.1,0.7
			c-0.2,0.4-0.8,1.2-1.7,2.5c-4.4,6.1-12.7,18.5-15.4,22.6c12.7,8.9,46.9,32.1,60.5,41.7c-42.7,25.5-115.7,68.1-156.9,92.6
			c-1.1,0.5-1.5,1-2.1,1.2c0,0-0.1,0-0.1,0c-0.8-0.6-15.1-10.4-34.1-23.4c-5.5-3.8-11.4-7.8-17.5-12c-25-17-62.5-43.1-84.2-57.9
			c-2.4,1.5-83.9,48.8-104.2,61c-3.8-8-98.8-166.3-131.4-222.7c0.2,2.4-153.3-106.9-196.2-134.8c0.1-0.3,0.4-0.6,0.8-1.3
			c14.4-20.7,56.8-81.2,59.9-85.7"/>
	</g>
</g>
<g id="exits_x2C__restrooms">
	<g>
		<g id="Layer_2_00000100379365373932730910000008321279187435210885_">
			<g id="Image_64">
				<g id="Ellipse_1_copy_9">
					<circle class="st38" cx="472.9" cy="563.9" r="14.4"/>
				</g>
			</g>
		</g>
		<g id="Layer_1_00000043417269205140031930000013075138157533666726_">
			<g>
				<g>
					<g>
						<path class="st39" d="M466.3,558.3c0.8,0,1.5-0.7,1.5-1.5s-0.7-1.4-1.5-1.4s-1.5,0.6-1.5,1.4
							C464.8,557.6,465.5,558.3,466.3,558.3z"/>
						<path class="st39" d="M468.2,558.6h-3.7c-0.9,0-1.6,0.7-1.6,1.6v4.6c0,0.3,0.3,0.6,0.6,0.6c0.3,0,0.6-0.3,0.6-0.6v-4h0.3v4.6
							v6.2c0,0.5,0.4,0.8,0.8,0.8c0.5,0,0.8-0.4,0.8-0.8v-6.2h0.4v6.2c0,0.5,0.4,0.8,0.8,0.8c0.5,0,0.8-0.4,0.8-0.8v-6.2v-4.6h0.3v4
							c0,0.3,0.3,0.6,0.6,0.6c0.3,0,0.6-0.3,0.6-0.6v-4.6C469.8,559.3,469.1,558.6,468.2,558.6z"/>
					</g>
					<g>
						<path class="st39" d="M478.9,558.3c0.8,0,1.5-0.7,1.5-1.5s-0.7-1.5-1.5-1.5c-0.8,0.1-1.5,0.7-1.5,1.5S478.1,558.3,478.9,558.3
							z"/>
						<path class="st39" d="M482.8,564l-1.2-4.3c-0.3-0.8-0.9-1.1-1.8-1.1l0,0h-2l0,0c-0.9,0-1.5,0.3-1.8,1.1l-1.2,4.3
							c-0.1,0.3,0.1,0.6,0.4,0.7c0.3,0.1,0.6-0.1,0.7-0.3l1.1-3.8h0.3l-1.9,6.5h1.8v4.7c0,0.4,0.3,0.7,0.7,0.7s0.7-0.3,0.7-0.7v-4.7
							h0.3v4.7c0,0.4,0.3,0.7,0.7,0.7c0.4,0,0.7-0.3,0.7-0.7v-4.7h1.8l-1.8-6.6h0.3l1.1,3.8c0.1,0.3,0.4,0.4,0.7,0.3
							C482.7,564.5,482.9,564.2,482.8,564z"/>
					</g>
				</g>
				<rect x="472.1" y="555.4" class="st39" width="1.6" height="17"/>
			</g>
		</g>
	</g>
	<g>
		<g id="Layer_2_00000006707414574049126950000001803257397824628128_">
			<g id="Image_64_00000178177477347343644230000016652520540391285401_">
				<g id="Ellipse_1_copy_9_00000061467021648887645250000018189148448059970461_">
					<circle class="st38" cx="734.8" cy="260.8" r="14.4"/>
				</g>
			</g>
		</g>
		<g id="Layer_1_00000056401591133385568380000003900226411499876786_">
			<g>
				<g>
					<g>
						<path class="st39" d="M728.2,255.2c0.8,0,1.5-0.7,1.5-1.5s-0.7-1.4-1.5-1.4s-1.5,0.6-1.5,1.4S727.4,255.2,728.2,255.2z"/>
						<path class="st39" d="M730.1,255.5h-3.7c-0.9,0-1.6,0.7-1.6,1.6v4.6c0,0.3,0.3,0.6,0.6,0.6s0.6-0.3,0.6-0.6v-4h0.3v4.6v6.2
							c0,0.5,0.4,0.8,0.8,0.8c0.5,0,0.8-0.4,0.8-0.8v-6.2h0.4v6.2c0,0.5,0.4,0.8,0.8,0.8c0.5,0,0.8-0.4,0.8-0.8v-6.2v-4.6h0.3v4
							c0,0.3,0.3,0.6,0.6,0.6s0.6-0.3,0.6-0.6v-4.6C731.7,256.2,731,255.5,730.1,255.5z"/>
					</g>
					<g>
						<path class="st39" d="M740.8,255.2c0.8,0,1.5-0.7,1.5-1.5s-0.7-1.5-1.5-1.5c-0.8,0.1-1.5,0.7-1.5,1.5S740,255.2,740.8,255.2z"
							/>
						<path class="st39" d="M744.8,260.9l-1.2-4.3c-0.3-0.8-0.9-1.1-1.8-1.1l0,0h-2l0,0c-0.9,0-1.5,0.3-1.8,1.1l-1.2,4.3
							c-0.1,0.3,0.1,0.6,0.4,0.7c0.3,0.1,0.6-0.1,0.7-0.3l1.1-3.8h0.3l-1.9,6.5h1.8v4.7c0,0.4,0.3,0.7,0.7,0.7s0.7-0.3,0.7-0.7V264
							h0.3v4.7c0,0.4,0.3,0.7,0.7,0.7s0.7-0.3,0.7-0.7V264h1.8l-1.8-6.6h0.3l1.1,3.8c0.1,0.3,0.4,0.4,0.7,0.3
							C744.7,261.4,744.9,261.1,744.8,260.9z"/>
					</g>
				</g>
				<rect x="734" y="252.3" class="st39" width="1.6" height="17"/>
			</g>
		</g>
	</g>
	<g>
		<g id="Layer_1_00000042702974373661500170000003668872372288945812_">
			<g id="Layer_2_00000109017616333713485160000009889481783568913028_">
				<g id="Image_29">
					<g id="Ellipse_1_copy_2">
						<circle class="st40" cx="702" cy="205" r="14.4"/>
					</g>
				</g>
			</g>
		</g>
		<g>
			<g>
				<path class="st39" d="M710.2,196.3l-5-1.7c-0.3-0.1-0.6,0.1-0.6,0.4v1.3h-4.9c-0.2,0-0.4,0.2-0.4,0.4v1.5c0.3,0,0.5,0.1,0.8,0.2
					v-1.3h4.4v15.3h-3v0.2c0,0.2,0.1,0.4,0,0.6h2.9v1.3c0,0.3,0.3,0.6,0.6,0.5l5-1.7c0.2-0.1,0.3-0.2,0.3-0.4v-16.1
					C710.5,196.5,710.4,196.3,710.2,196.3z"/>
				<g>
					<g>
						<path class="st39" d="M692,211.7h3.2c0.4,0,0.8-0.3,0.9-0.7l0.3-1.3l-1.6-1.3l0,0l-0.4,1.4H692c-0.5,0-1,0.4-1,1
							C691.1,211.3,691.5,211.7,692,211.7z"/>
						<path class="st39" d="M699.4,202.5c0.9-0.2,1.5-1.1,1.2-2c-0.2-0.9-1.1-1.5-2-1.2c-0.9,0.2-1.5,1.1-1.2,2
							C697.6,202.1,698.5,202.7,699.4,202.5z"/>
						<path class="st39" d="M693.3,206.5c0.4,0.2,0.9,0,1-0.4l0.6-1.4l0.9-0.3l-0.7,2.8c-0.1,0.4,0,0.7,0.3,1l2.7,2.2l0.7,2.9
							c0.1,0.4,0.5,0.7,0.9,0.7c0.1,0,0.2,0,0.2,0c0.5-0.1,0.8-0.6,0.7-1.2l-0.8-3.2c0-0.2-0.2-0.4-0.3-0.5l-1.7-1.4l0.9-2.4
							l0.9,1.1c0.2,0.2,0.4,0.3,0.6,0.3c0.1,0,0.3,0,0.4-0.1l1.6-1c0.4-0.2,0.5-0.7,0.3-1.1c-0.2-0.4-0.7-0.5-1.1-0.3l-1,0.6l-0.9-1
							c-0.2-0.3-0.5-0.5-0.9-0.6l-1.4-0.5c-0.4-0.2-0.9-0.2-1.3,0l-1.9,0.6c-0.2,0.1-0.4,0.2-0.5,0.4l-0.8,1.8
							C692.7,205.9,692.9,206.3,693.3,206.5z"/>
					</g>
				</g>
			</g>
		</g>
	</g>
	<g>
		<g id="Layer_1_00000042007272843511667690000008406306761235619238_">
			<g id="Layer_2_00000022556735553191659450000005795340208093633970_">
				<g id="Image_29_00000173841480334063734140000011531086694327245201_">
					<g id="Ellipse_1_copy_2_00000107550855543152140580000014742607775612015036_">
						<circle class="st40" cx="932" cy="465.9" r="14.4"/>
					</g>
				</g>
			</g>
		</g>
		<g>
			<g>
				<path class="st39" d="M940.2,457.1l-5-1.7c-0.3-0.1-0.6,0.1-0.6,0.4v1.3h-4.9c-0.2,0-0.4,0.2-0.4,0.4v1.5c0.3,0,0.5,0.1,0.8,0.2
					v-1.3h4.4v15.3h-3v0.2c0,0.2,0.1,0.4,0,0.6h2.9v1.3c0,0.3,0.3,0.6,0.6,0.5l5-1.7c0.2-0.1,0.3-0.2,0.3-0.4v-16.1
					C940.5,457.3,940.4,457.1,940.2,457.1z"/>
				<g>
					<g>
						<path class="st39" d="M921.9,472.5h3.2c0.4,0,0.8-0.3,0.9-0.7l0.3-1.3l-1.6-1.3l0,0l-0.4,1.4h-2.5c-0.5,0-1,0.4-1,1
							C921,472.1,921.4,472.5,921.9,472.5z"/>
						<path class="st39" d="M929.3,463.3c0.9-0.2,1.5-1.1,1.2-2c-0.2-0.9-1.1-1.5-2-1.2c-0.9,0.2-1.5,1.1-1.2,2
							C927.5,463,928.4,463.5,929.3,463.3z"/>
						<path class="st39" d="M923.2,467.3c0.4,0.2,0.9,0,1-0.4l0.6-1.4l0.9-0.3L925,468c-0.1,0.4,0,0.7,0.3,1l2.7,2.2l0.7,2.9
							c0.1,0.4,0.5,0.7,0.9,0.7c0.1,0,0.2,0,0.2,0c0.5-0.1,0.8-0.6,0.7-1.2l-0.8-3.2c0-0.2-0.2-0.4-0.3-0.5l-1.7-1.4l0.9-2.4
							l0.9,1.1c0.2,0.2,0.4,0.3,0.6,0.3c0.1,0,0.3,0,0.4-0.1l1.6-1c0.4-0.2,0.5-0.7,0.3-1.1s-0.7-0.5-1.1-0.3l-1,0.6l-0.9-1
							c-0.2-0.3-0.5-0.5-0.9-0.6l-1.4-0.5c-0.4-0.2-0.9-0.2-1.3,0l-1.9,0.6c-0.2,0.1-0.4,0.2-0.5,0.4l-0.8,1.8
							C922.6,466.7,922.8,467.2,923.2,467.3z"/>
					</g>
				</g>
			</g>
		</g>
	</g>
	<g>
		<g id="Layer_1_00000019663380885152700260000017736699896416463545_">
			<g id="Layer_2_00000150801938894541612660000009455676156958400433_">
				<g id="Image_29_00000049214467997389285920000008911158312051820730_">
					<g id="Ellipse_1_copy_2_00000160154265438407168590000015565595157570235035_">
						<circle class="st40" cx="479.6" cy="621.5" r="14.4"/>
					</g>
				</g>
			</g>
		</g>
		<g>
			<g>
				<path class="st39" d="M487.8,612.7l-5-1.7c-0.3-0.1-0.6,0.1-0.6,0.4v1.3h-4.9c-0.2,0-0.4,0.2-0.4,0.4v1.5c0.3,0,0.5,0.1,0.8,0.2
					v-1.3h4.4v15.3h-3v0.2c0,0.2,0.1,0.4,0,0.6h2.9v1.3c0,0.3,0.3,0.6,0.6,0.5l5-1.7c0.2-0.1,0.3-0.2,0.3-0.4v-16.1
					C488.1,612.9,488,612.8,487.8,612.7z"/>
				<g>
					<g>
						<path class="st39" d="M469.6,628.1h3.2c0.4,0,0.8-0.3,0.9-0.7l0.3-1.3l-1.6-1.3l0,0l-0.4,1.4h-2.5c-0.5,0-1,0.4-1,1
							C468.6,627.7,469.1,628.1,469.6,628.1z"/>
						<path class="st39" d="M476.9,618.9c0.9-0.2,1.5-1.1,1.2-2c-0.2-0.9-1.1-1.5-2-1.2c-0.9,0.2-1.5,1.1-1.2,2
							S476.1,619.1,476.9,618.9z"/>
						<path class="st39" d="M470.8,623c0.4,0.2,0.9,0,1-0.4l0.6-1.4l0.9-0.3l-0.7,2.8c-0.1,0.4,0,0.7,0.3,1l2.7,2.2l0.7,2.9
							c0.1,0.4,0.5,0.7,0.9,0.7c0.1,0,0.2,0,0.2,0c0.5-0.1,0.8-0.6,0.7-1.2l-0.8-3.2c0-0.2-0.2-0.4-0.3-0.5l-1.7-1.4l0.9-2.4
							l0.9,1.1c0.2,0.2,0.4,0.3,0.6,0.3c0.1,0,0.3,0,0.4-0.1l1.6-1c0.4-0.2,0.5-0.7,0.3-1.1c-0.2-0.4-0.7-0.5-1.1-0.3l-1,0.6l-0.9-1
							c-0.2-0.3-0.5-0.5-0.9-0.6l-1.4-0.5c-0.4-0.2-0.9-0.2-1.3,0l-1.9,0.6c-0.2,0.1-0.4,0.2-0.5,0.4l-0.8,1.8
							C470.3,622.3,470.4,622.8,470.8,623z"/>
					</g>
				</g>
			</g>
		</g>
	</g>
</g>
</svg>
