<?xml version="1.0" encoding="utf-8"?>
<!-- Generator: Adobe Illustrator 28.0.0, SVG Export Plug-In . SVG Version: 6.00 Build 0)  -->
<svg version="1.1" xmlns="http://www.w3.org/2000/svg" xmlns:xlink="http://www.w3.org/1999/xlink" x="0px" y="0px"
	 viewBox="0 0 1253.2 946.2" style="enable-background:new 0 0 1253.2 946.2;" xml:space="preserve">
<style type="text/css">
	.st0{fill:none;}
	.st1{fill:none;stroke:#231F20;stroke-width:0.3;}
	.st2{fill:#FFFFFF;stroke:#000000;stroke-miterlimit:10;}
	.st3{fill:#A2C9EA;stroke:#A2C9EA;stroke-miterlimit:10;}
	.st4{fill:#A2C9EA;}
	.st5{font-family:'Arial-ItalicMT';}
	.st6{font-size:14px;}
	.st7{font-family:'ArialNarrow-Italic';}
	.st8{font-size:14.6418px;}
	.st9{font-family:'ArialNarrow-Bold';}
	.st10{font-size:33.4957px;}
	.st11{font-size:24px;}
	.st12{fill:#EAC16E;stroke:#000000;stroke-miterlimit:10;}
	.st13{fill:#F5F5C8;stroke:#000000;stroke-miterlimit:10;}
	.st14{fill:none;stroke:#000000;stroke-miterlimit:10;}
	.st15{fill:#C4EBF7;stroke:#000000;stroke-miterlimit:10;}
	.st16{fill:#E5E5E5;stroke:#000000;stroke-miterlimit:10;}
	.st17{display:none;fill:#E5E5E5;stroke:#000000;stroke-miterlimit:10;}
	.st18{fill:#7FDEE5;stroke:#000000;stroke-miterlimit:10;}
	.st19{display:none;fill:#7FDEE5;stroke:#000000;stroke-miterlimit:10;}
	.st20{fill:url(#Grid_1_pica_Lines);stroke:#000000;stroke-miterlimit:10;}
	.st21{display:none;}
	.st22{display:inline;fill:none;}
	.st23{display:inline;fill:#E4F2F9;}
	.st24{font-family:'Arial-BoldMT';}
	.st25{font-size:300px;}
	.st26{letter-spacing:7;}
	.st27{display:inline;}
	.st28{font-family:'MyriadPro-Regular';}
	.st29{font-size:12px;}
	.st30{font-size:48px;}
	.st31{font-size:21px;}
	.st32{fill:#C60606;stroke:#000000;stroke-miterlimit:10;}
	.st33{fill:#FFFFFF;}
	.st34{fill:#146EDC;stroke:#000000;stroke-miterlimit:10;}
	.st35{fill:#F9E235;stroke:#000000;stroke-miterlimit:10;}
	.st36{fill:#785AA0;stroke:#000000;stroke-miterlimit:10;}
	.st37{fill:#785AA0;}
	.st38{font-family:'Verdana-Bold';}
	.st39{font-size:11px;}
	.st40{fill:#939393;stroke:#000000;stroke-miterlimit:10;}
	.st41{fill:#205E3C;stroke:#000000;stroke-miterlimit:10;}
	.st42{fill:#205E3C;stroke:#205E3C;stroke-miterlimit:10;}
	.st43{display:inline;fill:#146EDC;stroke:#000000;stroke-miterlimit:10;}
	.st44{display:inline;fill:#FFFFFF;}
</style>
<pattern  x="217.1" y="975" width="72" height="72" patternUnits="userSpaceOnUse" id="Grid_1_pica_Lines" viewBox="72.2 -144.2 72 72" style="overflow:visible;">
	<g>
		<rect x="72.2" y="-144.2" class="st0" width="72" height="72"/>
		<g>
			<line class="st1" x1="78.2" y1="-72.5" x2="78.2" y2="0"/>
			<line class="st1" x1="102.2" y1="-72.5" x2="102.2" y2="0"/>
			<line class="st1" x1="126.2" y1="-72.5" x2="126.2" y2="0"/>
			<line class="st1" x1="90.2" y1="-72.5" x2="90.2" y2="0"/>
			<line class="st1" x1="114.2" y1="-72.5" x2="114.2" y2="0"/>
			<line class="st1" x1="138.2" y1="-72.5" x2="138.2" y2="0"/>
		</g>
		<g>
			<line class="st1" x1="144" y1="-78.2" x2="216.5" y2="-78.2"/>
			<line class="st1" x1="144" y1="-102.2" x2="216.5" y2="-102.2"/>
			<line class="st1" x1="144" y1="-126.2" x2="216.5" y2="-126.2"/>
			<line class="st1" x1="144" y1="-90.2" x2="216.5" y2="-90.2"/>
			<line class="st1" x1="144" y1="-114.2" x2="216.5" y2="-114.2"/>
			<line class="st1" x1="144" y1="-138.2" x2="216.5" y2="-138.2"/>
		</g>
		<g>
			<line class="st1" x1="78.2" y1="-144.5" x2="78.2" y2="-72"/>
			<line class="st1" x1="102.2" y1="-144.5" x2="102.2" y2="-72"/>
			<line class="st1" x1="126.2" y1="-144.5" x2="126.2" y2="-72"/>
			<line class="st1" x1="72" y1="-78.2" x2="144.5" y2="-78.2"/>
			<line class="st1" x1="72" y1="-102.2" x2="144.5" y2="-102.2"/>
			<line class="st1" x1="72" y1="-126.2" x2="144.5" y2="-126.2"/>
			<line class="st1" x1="72" y1="-90.2" x2="144.5" y2="-90.2"/>
			<line class="st1" x1="72" y1="-114.2" x2="144.5" y2="-114.2"/>
			<line class="st1" x1="72" y1="-138.2" x2="144.5" y2="-138.2"/>
			<line class="st1" x1="90.2" y1="-144.5" x2="90.2" y2="-72"/>
			<line class="st1" x1="114.2" y1="-144.5" x2="114.2" y2="-72"/>
			<line class="st1" x1="138.2" y1="-144.5" x2="138.2" y2="-72"/>
		</g>
		<g>
			<line class="st1" x1="0" y1="-78.2" x2="72.5" y2="-78.2"/>
			<line class="st1" x1="0" y1="-102.2" x2="72.5" y2="-102.2"/>
			<line class="st1" x1="0" y1="-126.2" x2="72.5" y2="-126.2"/>
			<line class="st1" x1="0" y1="-90.2" x2="72.5" y2="-90.2"/>
			<line class="st1" x1="0" y1="-114.2" x2="72.5" y2="-114.2"/>
			<line class="st1" x1="0" y1="-138.2" x2="72.5" y2="-138.2"/>
		</g>
		<g>
			<line class="st1" x1="78.2" y1="-216.5" x2="78.2" y2="-144"/>
			<line class="st1" x1="102.2" y1="-216.5" x2="102.2" y2="-144"/>
			<line class="st1" x1="126.2" y1="-216.5" x2="126.2" y2="-144"/>
			<line class="st1" x1="90.2" y1="-216.5" x2="90.2" y2="-144"/>
			<line class="st1" x1="114.2" y1="-216.5" x2="114.2" y2="-144"/>
			<line class="st1" x1="138.2" y1="-216.5" x2="138.2" y2="-144"/>
		</g>
	</g>
</pattern>
<g id="Base_white">
	<polyline id="overall" class="st2" points="680.5,63.9 631,138.6 612.8,139.2 591.5,173.7 584,174.9 526,135.3 526,161.2 
		355.9,268.1 429.4,396 440,415.1 374.7,505.4 552.7,634.5 558.6,642.1 594.7,708 642.5,797.4 675.3,858.1 781.4,802.8 918.9,901.6 
		1002.3,854.6 1083.7,805.7 1040.5,774.5 1026.5,673.3 1174.4,586.8 1174.4,566.1 1050.2,488.5 1010.6,462.4 975.9,437.8 
		927.5,399.8 915.8,422.3 891.2,455.3 837.9,418.6 870.7,374.4 817.3,280 809.7,288.4 680.5,63.9 	"/>
	<polygon id="belowgrid" class="st2" points="817.9,650.7 824.3,645.8 797.7,610.6 777.3,618.1 707.8,555.9 688.3,572.2 692.1,579 
		684.3,583.9 645,637.6 594.7,708 642.5,797.4 675.3,858.1 781.4,802.8 918.9,901.6 1002.3,854.6 1083.7,805.7 947.4,707.3 
		841.2,631.6 824.3,658.3 	"/>
</g>
<g id="street">
	<g id="San_fernando">
		<line class="st3" x1="312.2" y1="121.4" x2="498.7" y2="3.4"/>
		<line class="st3" x1="324.6" y1="141.2" x2="533" y2="9.4"/>
		
			<rect x="349.7" y="59.8" transform="matrix(0.848 -0.5299 0.5299 0.848 28.8419 235.1878)" class="st0" width="149.6" height="15"/>
		<text transform="matrix(0.8481 -0.5299 0.5299 0.8481 362.4428 109.1039)" class="st4 st5 st6">San Fernando Street</text>
	</g>
	<g id="_x34_th_Street">
		<line class="st3" x1="339" y1="723.9" x2="171.8" y2="400.2"/>
		<line class="st3" x1="360.4" y1="714.3" x2="192.7" y2="389.6"/>
		
			<rect x="256.4" y="474.9" transform="matrix(0.8829 -0.4695 0.4695 0.8829 -227.2027 188.2335)" class="st0" width="15" height="149.6"/>
		<text transform="matrix(-0.4695 -0.8829 0.8829 -0.4695 286.3133 586.4722)" class="st4 st5 st6">Fourth Street</text>
	</g>
	<g id="SJSU_CAMPUS">
		<polygon class="st4" points="1206.5,713 1181.3,693.6 1187.2,738.2 		"/>
		
			<rect x="1152.1" y="655.8" transform="matrix(0.9873 -0.1586 0.1586 0.9873 -99.0579 193.7985)" class="st0" width="25.2" height="123.4"/>
		<text transform="matrix(0.1586 0.9873 -0.9873 0.1586 1160.572 678.3352)" class="st4 st7 st8">SJSU Campus</text>
	</g>
</g>
<g id="North">
	<g>
		<polygon class="st4" points="538.7,66 531.3,98.7 571.4,73.4 		"/>
		
			<rect x="518.1" y="40.2" transform="matrix(0.829 -0.5592 0.5592 0.829 60.6827 305.3841)" class="st0" width="23.3" height="26.6"/>
		<text transform="matrix(0.829 -0.5592 0.5592 0.829 527.511 67.8912)" class="st4 st9 st10">N</text>
	</g>
	
		<rect x="658.9" y="150.3" transform="matrix(0.9873 -0.1586 0.1586 0.9873 -31.2763 110.9696)" class="st0" width="41.4" height="202.2"/>
	<text transform="matrix(0.1586 0.9873 -0.9873 0.1586 672.477 184.5267)" class="st4 st9 st11">SJSU Campus</text>
</g>
<g id="Vertical_flow">
	<polyline id="elevator" class="st12" points="808.5,399.8 891.2,455.3 923.7,477.1 910.8,495.6 796.6,418.6 808.5,399.8 	"/>
	<polygon id="stairs" class="st12" points="915.8,422.3 945.6,443.9 923.7,477.1 891.2,455.3 	"/>
	<polygon id="esc2" class="st12" points="771.5,470.7 759.5,486 845.6,548 856.6,532.2 	"/>
	<polygon id="esc1" class="st12" points="856.6,532.2 867.8,515.8 784.9,453.6 771.5,470.7 	"/>
</g>
<g id="Yelllow_Region">
	<polygon id="childrensroom_1_" class="st13" points="631,138.6 680.5,63.9 809.7,288.4 776.5,333.6 827.9,371.8 786.5,437 
		723.8,416.3 721.9,393.8 683.7,376.8 666.1,421.4 498.7,309.1 584,174.9 591.5,173.7 612.8,139.2 	"/>
	<polygon id="friendsoflib_1_" class="st13" points="1050.2,488.5 1005.1,554.3 975.5,535.8 956.3,564.6 913.4,532.1 891.2,579.4 
		1026.5,673.3 1174.4,586.8 1174.4,566.1 	"/>
	<polygon id="morgridge_1_" class="st13" points="594.7,708 645,637.6 742.7,708 733.4,724.5 747.8,737.8 729.3,759.9 716,750.7 
		642.5,797.4 	"/>
	<polygon id="compinstruction_1_" class="st13" points="947.4,707.3 898.6,780.9 1002.3,854.6 1083.7,805.7 	"/>
	<polygon id="coursereserve_1_" class="st13" points="779.4,635.6 709.7,567.9 684.3,583.9 814,673.3 824.3,658.3 793.9,622.3 	"/>
	<polyline id="brandenburg_1_" class="st14" points="531.9,417.1 595.6,462.8 597.3,527.6 582.8,531.9 587,560.3 602.9,554.9 
		602.9,561.3 554.8,635.2 438.1,551.5 531.9,417.1 	"/>
	<polygon id="on4th_1_" class="st13" points="438.1,551.5 374.7,505.4 440,415.1 429.7,395.5 467.3,373 530.9,418.1 	"/>
	<g id="Layer_14">
	</g>
</g>
<g id="light_well">
	<polygon id="lightwell2" class="st15" points="577.6,610.5 558.5,642 594.7,707.9 634,652.9 	"/>
	<polygon id="lightwell1" class="st15" points="776.5,333.6 809.7,288.4 817.3,280 870.7,374.4 827.9,371.8 	"/>
</g>
<g id="Grey_Region">
	<polygon id="toilet" class="st16" points="1002.4,476.3 1010.6,462.4 975.9,437.8 929.9,505.2 955,520.8 961.5,511.9 983.6,527 
		990,518.1 1017.2,536.6 1035.1,510.4 1020.3,499.7 1025.3,491.5 	"/>
	<circle id="securitydesk_3_" class="st16" cx="567.8" cy="416.2" r="14"/>
	<circle id="welcomedesk_1_" class="st16" cx="677.3" cy="532.9" r="19.6"/>
	<polygon id="selfchkout2_1_" class="st17" points="601.9,583.1 591.1,598 637.6,632.2 648.4,615.8 	"/>
	<polygon id="selfcheckout_1_" class="st17" points="628.7,488.1 616.5,509.2 628.7,518.4 641.1,499.7 	"/>
	<polygon id="selfcheckoutcurve_1_" class="st17" points="622.4,521.2 607.6,524.8 611.2,528.5 613.7,531.8 616.5,536 618.5,540.3 
		619.1,544.4 619.1,548.5 618.4,552.5 616.5,556.5 614,560.9 630.9,561.3 632.3,555.9 633.1,551.4 633.7,547.1 633.7,542.5 
		632.2,538.2 630.2,534.5 628,530.5 625.7,526.7 623.9,524 	"/>
	<polygon id="ent2_1_" class="st16" points="453.3,232.7 428.7,248.1 434.1,256.1 459.2,241.2 	"/>
	<polygon id="ent1_1_" class="st16" points="406.3,314.3 413.8,309 428.7,331.9 420.2,336.7 	"/>
	<ellipse id="securitydesk_2_" class="st16" cx="888.2" cy="646.7" rx="8.1" ry="11.7"/>
	<polygon id="phonebluebox_1_" class="st18" points="903.7,524.2 883.6,572.6 891.4,579.9 912.7,533.8 	"/>
	<polygon id="publicpcbluebox_1_" class="st19" points="829.6,552.1 843,552.1 848.8,552.1 851,551.4 852.6,550.2 864.2,540 
		870.5,548.9 859.1,559.5 856.7,561.6 854.8,562.5 852.3,562.9 849.4,562.9 829.6,562.9 	"/>
	<polyline id="near_brandenburg" class="st17" points="597.3,527.6 602.9,554.9 587,560.3 582.8,531.9 597.3,527.6 	"/>
	<polygon id="childrens_x27_s_room_grey_2" class="st16" points="751.9,188 776.5,230.7 749.2,245.9 725.2,204.3 	"/>
	<polygon id="childrens_x27_s_room_grey_1" class="st16" points="776.5,230.7 749.2,245.9 771.9,286.2 799.7,271 	"/>
	<polyline class="st16" points="980.5,509.1 968.6,501.2 961.5,511.9 973.2,519.9 1002.4,476.3 	"/>
	<polygon id="grid_1_" class="st20" points="918.9,901.6 1002.3,854.6 898.6,780.9 947.4,707.3 841.2,631.6 814,673.3 684.3,583.9 
		645,637.6 742.7,708 733.4,724.5 747.8,737.8 729.3,759.9 716,750.7 642.5,797.4 675.3,858.1 781.4,802.8 	"/>
	<polygon id="circulation_course" class="st16" points="692.1,579 688.3,572.2 707.8,555.9 777.3,618.1 797.7,610.6 824.3,645.8 
		817.9,650.7 793.9,622.3 779.4,635.6 709.7,567.9 	"/>
</g>
<g id="text" class="st21">
	<rect x="80" y="37.4" class="st22" width="281.9" height="281.8"/>
	<text transform="matrix(1 0 0 1 80.0136 252.176)" class="st23 st24 st25 st26">G</text>
	<rect x="626.8" y="242.6" class="st22" width="99.4" height="41.3"/>
	<text transform="matrix(1 0 0 1 628.5883 252.537)" class="st27 st28 st6">Children’s Room</text>
	<rect x="411.5" y="436.1" class="st22" width="99.4" height="52.2"/>
	<text transform="matrix(1 0 0 1 438.64 446.0753)" class="st27"><tspan x="0" y="0" class="st28 st6">Nirvana </tspan><tspan x="9.7" y="16" class="st28 st6">Soul</tspan></text>
	<rect x="487.5" y="487.2" class="st22" width="99.4" height="52.2"/>
	<text transform="matrix(1 0 0 1 498.4439 497.1108)" class="st27"><tspan x="0" y="0" class="st28 st6">Brandenburg</tspan><tspan x="11.4" y="16" class="st28 st6">Browsing</tspan><tspan x="9.2" y="32" class="st28 st6">Collection</tspan></text>
	<rect x="611" y="697.8" class="st22" width="99.4" height="52.2"/>
	<text transform="matrix(1 0 0 1 629.7154 707.7697)" class="st27"><tspan x="0" y="0" class="st28 st6">Morgridge</tspan><tspan x="8.1" y="16" class="st28 st6">Literacy</tspan><tspan x="11.4" y="32" class="st28 st6">Center</tspan></text>
	<rect x="903.9" y="771.7" class="st22" width="129.3" height="72.6"/>
	<text transform="matrix(1 0 0 1 925.8916 781.6)" class="st27 st28 st6">Classroom 125</text>
	<rect x="968.6" y="590.6" class="st22" width="136" height="45"/>
	<text transform="matrix(1 0 0 1 982.5079 600.5717)" class="st27"><tspan x="0" y="0" class="st28 st6">Digital Humanities </tspan><tspan x="34.5" y="18" class="st28 st6">Center</tspan></text>
	<rect x="639.1" y="489.4" class="st22" width="74.6" height="35.2"/>
	<text transform="matrix(1 0 0 1 656.4858 497.9532)" class="st27"><tspan x="0" y="0" class="st28 st29">Printing </tspan><tspan x="2.1" y="12" class="st28 st29">Station</tspan></text>
	<rect x="727" y="581.6" class="st22" width="109" height="51.1"/>
	<text transform="matrix(1 0 0 1 754.3291 590.1168)" class="st27"><tspan x="0" y="0" class="st28 st29">Circulation</tspan><tspan x="15" y="14" class="st28 st29">Desk</tspan></text>
	<rect x="794.5" y="316.6" class="st22" width="40.2" height="28.5"/>
	<text transform="matrix(1 0 0 1 799.4736 326.5852)" class="st27"><tspan x="0" y="0" class="st28 st6">Light</tspan><tspan x="2.3" y="14" class="st28 st6">Well</tspan></text>
	<rect x="881.6" y="639.9" class="st22" width="75.4" height="28.5"/>
	<text transform="matrix(1 0 0 1 899.1472 648.4163)" class="st27"><tspan x="0" y="0" class="st28 st29">Security</tspan><tspan x="7.9" y="14" class="st28 st29">Desk</tspan></text>
	<rect x="818.1" y="558.1" class="st22" width="75.4" height="12.2"/>
	<text transform="matrix(1 0 0 1 830.0625 566.6611)" class="st27 st28 st29">Public PCs</text>
	<rect x="574.5" y="646.7" class="st22" width="40.2" height="28.5"/>
	<text transform="matrix(1 0 0 1 579.5156 656.6758)" class="st27"><tspan x="0" y="0" class="st28 st6">Light</tspan><tspan x="2.3" y="14" class="st28 st6">Well</tspan></text>
	<rect x="530.9" y="377.1" class="st22" width="75.4" height="28.5"/>
	<text transform="matrix(1 0 0 1 548.4637 385.6333)" class="st27"><tspan x="0" y="0" class="st28 st29">Security</tspan><tspan x="7.9" y="14" class="st28 st29">Desk</tspan></text>
	<rect x="587.6" y="546.5" class="st22" width="92.8" height="46.3"/>
	<text transform="matrix(1 0 0 1 624.8897 555.0083)" class="st27"><tspan x="0" y="0" class="st28 st29">Self</tspan><tspan x="-17.5" y="14" class="st28 st29">Check-Out </tspan><tspan x="-14.7" y="28" class="st28 st29">Machines</tspan></text>
	<rect x="30.2" y="33" class="st22" width="319.9" height="54.6"/>
	<text transform="matrix(1 0 0 1 30.1561 67.3672)" class="st27 st24 st30">Ground Floor</text>
	<rect x="31.2" y="97.4" class="st22" width="229.9" height="77.9"/>
	<text transform="matrix(1 0 0 1 31.1561 112.4047)" class="st27"><tspan x="0" y="0" class="st5 st31">Circulation</tspan><tspan x="0" y="25.2" class="st5 st31">Information</tspan><tspan x="0" y="50.4" class="st5 st31">Childrens’s Services</tspan></text>
</g>
<g id="exit" class="st21">
	<g id="exit_3_" class="st27">
		<circle class="st32" cx="961.4" cy="430.5" r="16.7"/>
		<rect x="949.4" y="425.7" class="st0" width="23.8" height="10.5"/>
		<text transform="matrix(1 0 0 1 950.4941 434.2256)" class="st33 st28 st29">EXIT</text>
	</g>
	<g id="exit_2_" class="st27">
		<circle class="st32" cx="734.5" cy="155.5" r="16.7"/>
		<rect x="722.5" y="150.7" class="st0" width="23.8" height="10.5"/>
		<text transform="matrix(1 0 0 1 723.6275 159.237)" class="st33 st28 st29">EXIT</text>
	</g>
	<g id="exit_1_" class="st27">
		<circle class="st32" cx="449.3" cy="560.3" r="16.7"/>
		<rect x="437.3" y="555.5" class="st0" width="23.8" height="10.5"/>
		<text transform="matrix(1 0 0 1 438.4622 563.9958)" class="st33 st28 st29">EXIT</text>
	</g>
</g>
<g id="toilet_1_" class="st21">
	<g id="toilet_4_" class="st27">
		<circle class="st34" cx="494.5" cy="563.9" r="14.2"/>
		<path class="st33" d="M498.1,560.1l0,4.6c0,0.5,0.4,0.9,0.9,0.9l1.9,0c0.5,0,0.9-0.4,0.9-0.9l0-4.6c0-0.5-0.4-0.9-0.9-0.9l-1.9,0
			C498.5,559.2,498.1,559.6,498.1,560.1z"/>
		<path class="st33" d="M503.4,559.4l0,4.9c0,0.3-0.2,0.6-0.6,0.6l-0.4,0c-0.3,0-0.6-0.2-0.6-0.6l0-4.9c0-0.3,0.2-0.6,0.6-0.6l0.4,0
			C503.2,558.8,503.4,559.1,503.4,559.4z"/>
		<path class="st33" d="M498,559.4l0,5c0,0.3-0.2,0.6-0.6,0.6l-0.4,0c-0.3,0-0.6-0.2-0.6-0.6l0-5c0-0.3,0.2-0.6,0.6-0.6l0.4,0
			C497.7,558.8,498,559.1,498,559.4z"/>
		<circle class="st33" cx="499.9" cy="556.8" r="1.6"/>
		<path class="st33" d="M496.5,559.3l0,0.7c0,0.3,0.3,0.6,0.6,0.6l5.7,0c0.3,0,0.6-0.3,0.6-0.6l0-0.7c0-0.3-0.3-0.6-0.6-0.6l-5.7,0
			C496.8,558.7,496.5,559,496.5,559.3z"/>
		<path class="st33" d="M499.8,564.1l0,7.4c0,0.3-0.2,0.6-0.6,0.6l-0.6,0c-0.3,0-0.6-0.2-0.6-0.6l0-7.4c0-0.3,0.2-0.6,0.6-0.6l0.6,0
			C499.6,563.6,499.8,563.8,499.8,564.1z"/>
		<path class="st33" d="M501.8,564l0,7.4c0,0.3-0.2,0.6-0.6,0.6l-0.6,0c-0.3,0-0.6-0.2-0.6-0.6l0-7.4c0-0.3,0.2-0.6,0.6-0.6l0.6,0
			C501.5,563.5,501.8,563.7,501.8,564z"/>
		<rect x="494.2" y="554.4" class="st33" width="0.7" height="18.3"/>
		<path class="st33" d="M487.1,559.5l-1,4.9c-0.1,0.3-0.4,0.5-0.7,0.4l-0.4-0.1c-0.3-0.1-0.5-0.4-0.4-0.7l1-4.9
			c0.1-0.3,0.4-0.5,0.7-0.4l0.4,0.1C487,558.9,487.2,559.2,487.1,559.5z"/>
		<circle class="st33" cx="489.1" cy="556.8" r="1.6"/>
		<path class="st33" d="M485.6,559.3l0,0.7c0,0.3,0.3,0.6,0.6,0.6l5.7,0c0.3,0,0.6-0.3,0.6-0.6l0-0.7c0-0.3-0.3-0.6-0.6-0.6l-5.7,0
			C485.9,558.7,485.6,559,485.6,559.3z"/>
		<path class="st33" d="M489,564.1l0,7.4c0,0.3-0.2,0.5-0.5,0.5l-0.4,0c-0.3,0-0.5-0.2-0.5-0.5l0-7.4c0-0.3,0.2-0.5,0.5-0.5l0.4,0
			C488.7,563.6,489,563.8,489,564.1z"/>
		<path class="st33" d="M492.5,559.1l1,4.9c0.1,0.3-0.1,0.6-0.4,0.7l-0.4,0.1c-0.3,0.1-0.6-0.1-0.7-0.4l-1-4.9
			c-0.1-0.3,0.1-0.6,0.4-0.7l0.4-0.1C492.1,558.6,492.4,558.8,492.5,559.1z"/>
		<polygon class="st33" points="485.9,566.9 487.1,560.7 491,560.7 492.2,566.9 		"/>
		<path class="st33" d="M490.9,564.1l0,7.4c0,0.3-0.2,0.5-0.5,0.5l-0.4,0c-0.3,0-0.5-0.2-0.5-0.5l0-7.4c0-0.3,0.2-0.5,0.5-0.5l0.4,0
			C490.6,563.6,490.9,563.8,490.9,564.1z"/>
	</g>
	<g id="toilet_3_" class="st27">
		<circle class="st34" cx="774.4" cy="258.4" r="14.2"/>
		<path class="st33" d="M778,254.6l0,4.6c0,0.5,0.4,0.9,0.9,0.9l1.9,0c0.5,0,0.9-0.4,0.9-0.9l0-4.6c0-0.5-0.4-0.9-0.9-0.9l-1.9,0
			C778.4,253.8,778,254.2,778,254.6z"/>
		<path class="st33" d="M783.3,253.9l0,4.9c0,0.3-0.2,0.6-0.6,0.6l-0.4,0c-0.3,0-0.6-0.2-0.6-0.6l0-4.9c0-0.3,0.2-0.6,0.6-0.6l0.4,0
			C783.1,253.4,783.3,253.6,783.3,253.9z"/>
		<path class="st33" d="M777.9,253.9l0,5c0,0.3-0.2,0.6-0.6,0.6l-0.4,0c-0.3,0-0.6-0.2-0.6-0.6l0-5c0-0.3,0.2-0.6,0.6-0.6l0.4,0
			C777.6,253.4,777.9,253.6,777.9,253.9z"/>
		<circle class="st33" cx="779.8" cy="251.3" r="1.6"/>
		<path class="st33" d="M776.4,253.9l0,0.7c0,0.3,0.3,0.6,0.6,0.6l5.7,0c0.3,0,0.6-0.3,0.6-0.6l0-0.7c0-0.3-0.3-0.6-0.6-0.6l-5.7,0
			C776.7,253.2,776.4,253.5,776.4,253.9z"/>
		<path class="st33" d="M779.8,258.6l0,7.4c0,0.3-0.2,0.6-0.6,0.6l-0.6,0c-0.3,0-0.6-0.2-0.6-0.6l0-7.4c0-0.3,0.2-0.6,0.6-0.6l0.6,0
			C779.5,258.1,779.8,258.3,779.8,258.6z"/>
		<path class="st33" d="M781.7,258.6l0,7.4c0,0.3-0.2,0.6-0.6,0.6l-0.6,0c-0.3,0-0.6-0.2-0.6-0.6l0-7.4c0-0.3,0.2-0.6,0.6-0.6l0.6,0
			C781.4,258,781.7,258.3,781.7,258.6z"/>
		<rect x="774.1" y="249" class="st33" width="0.7" height="18.3"/>
		<path class="st33" d="M767,254l-1,4.9c-0.1,0.3-0.4,0.5-0.7,0.4l-0.4-0.1c-0.3-0.1-0.5-0.4-0.4-0.7l1-4.9c0.1-0.3,0.4-0.5,0.7-0.4
			l0.4,0.1C766.9,253.4,767.1,253.7,767,254z"/>
		<circle class="st33" cx="769" cy="251.3" r="1.6"/>
		<path class="st33" d="M765.5,253.9l0,0.7c0,0.3,0.3,0.6,0.6,0.6l5.7,0c0.3,0,0.6-0.3,0.6-0.6l0-0.7c0-0.3-0.3-0.6-0.6-0.6l-5.7,0
			C765.8,253.2,765.5,253.5,765.5,253.9z"/>
		<path class="st33" d="M768.9,258.6l0,7.4c0,0.3-0.2,0.5-0.5,0.5l-0.4,0c-0.3,0-0.5-0.2-0.5-0.5l0-7.4c0-0.3,0.2-0.5,0.5-0.5l0.4,0
			C768.6,258.1,768.9,258.3,768.9,258.6z"/>
		<path class="st33" d="M772.4,253.7l1,4.9c0.1,0.3-0.1,0.6-0.4,0.7l-0.4,0.1c-0.3,0.1-0.6-0.1-0.7-0.4l-1-4.9
			c-0.1-0.3,0.1-0.6,0.4-0.7l0.4-0.1C772,253.2,772.3,253.4,772.4,253.7z"/>
		<polygon class="st33" points="765.8,261.5 767,255.2 770.9,255.2 772.1,261.5 		"/>
		<path class="st33" d="M770.8,258.6l0,7.4c0,0.3-0.2,0.5-0.5,0.5l-0.4,0c-0.3,0-0.5-0.2-0.5-0.5l0-7.4c0-0.3,0.2-0.5,0.5-0.5l0.4,0
			C770.5,258.1,770.8,258.3,770.8,258.6z"/>
	</g>
	<g id="toilet_2_" class="st27">
		<circle class="st34" cx="1004.4" cy="506.5" r="14.2"/>
		<path class="st33" d="M1008,502.6l0,4.6c0,0.5,0.4,0.9,0.9,0.9l1.9,0c0.5,0,0.9-0.4,0.9-0.9l0-4.6c0-0.5-0.4-0.9-0.9-0.9l-1.9,0
			C1008.4,501.8,1008,502.2,1008,502.6z"/>
		<path class="st33" d="M1013.3,501.9l0,4.9c0,0.3-0.2,0.6-0.6,0.6l-0.4,0c-0.3,0-0.6-0.2-0.6-0.6l0-4.9c0-0.3,0.2-0.6,0.6-0.6
			l0.4,0C1013.1,501.4,1013.3,501.6,1013.3,501.9z"/>
		<path class="st33" d="M1007.8,501.9l0,5c0,0.3-0.2,0.6-0.6,0.6l-0.4,0c-0.3,0-0.6-0.2-0.6-0.6l0-5c0-0.3,0.2-0.6,0.6-0.6l0.4,0
			C1007.6,501.4,1007.8,501.6,1007.8,501.9z"/>
		<circle class="st33" cx="1009.8" cy="499.3" r="1.6"/>
		<path class="st33" d="M1006.4,501.9l0,0.7c0,0.3,0.3,0.6,0.6,0.6l5.7,0c0.3,0,0.6-0.3,0.6-0.6l0-0.7c0-0.3-0.3-0.6-0.6-0.6l-5.7,0
			C1006.6,501.2,1006.4,501.5,1006.4,501.9z"/>
		<path class="st33" d="M1009.7,506.6l0,7.4c0,0.3-0.2,0.6-0.6,0.6l-0.6,0c-0.3,0-0.6-0.2-0.6-0.6l0-7.4c0-0.3,0.2-0.6,0.6-0.6
			l0.6,0C1009.5,506.1,1009.7,506.3,1009.7,506.6z"/>
		<path class="st33" d="M1011.7,506.6l0,7.4c0,0.3-0.2,0.6-0.6,0.6l-0.6,0c-0.3,0-0.6-0.2-0.6-0.6l0-7.4c0-0.3,0.2-0.6,0.6-0.6
			l0.6,0C1011.4,506,1011.7,506.3,1011.7,506.6z"/>
		<rect x="1004.1" y="497" class="st33" width="0.7" height="18.3"/>
		<path class="st33" d="M997,502l-1,4.9c-0.1,0.3-0.4,0.5-0.7,0.4l-0.4-0.1c-0.3-0.1-0.5-0.4-0.4-0.7l1-4.9c0.1-0.3,0.4-0.5,0.7-0.4
			l0.4,0.1C996.9,501.4,997.1,501.7,997,502z"/>
		<circle class="st33" cx="999" cy="499.3" r="1.6"/>
		<path class="st33" d="M995.5,501.9l0,0.7c0,0.3,0.3,0.6,0.6,0.6l5.7,0c0.3,0,0.6-0.3,0.6-0.6l0-0.7c0-0.3-0.3-0.6-0.6-0.6l-5.7,0
			C995.8,501.2,995.5,501.5,995.5,501.9z"/>
		<path class="st33" d="M998.9,506.6l0,7.4c0,0.3-0.2,0.5-0.5,0.5l-0.4,0c-0.3,0-0.5-0.2-0.5-0.5l0-7.4c0-0.3,0.2-0.5,0.5-0.5l0.4,0
			C998.6,506.1,998.9,506.3,998.9,506.6z"/>
		<path class="st33" d="M1002.4,501.7l1,4.9c0.1,0.3-0.1,0.6-0.4,0.7l-0.4,0.1c-0.3,0.1-0.6-0.1-0.7-0.4l-1-4.9
			c-0.1-0.3,0.1-0.6,0.4-0.7l0.4-0.1C1002,501.2,1002.3,501.4,1002.4,501.7z"/>
		<polygon class="st33" points="995.8,509.5 997,503.2 1000.9,503.2 1002.1,509.5 		"/>
		<path class="st33" d="M1000.8,506.6l0,7.4c0,0.3-0.2,0.5-0.5,0.5l-0.4,0c-0.3,0-0.5-0.2-0.5-0.5l0-7.4c0-0.3,0.2-0.5,0.5-0.5
			l0.4,0C1000.5,506.1,1000.8,506.3,1000.8,506.6z"/>
	</g>
</g>
<g id="stairs_x2F_ele" class="st21">
	<g id="symbol_-_stairs" class="st27">
		<circle class="st35" cx="918.4" cy="449.7" r="12.3"/>
		<polygon points="910.5,455.8 910.5,452.3 914,452.3 914,448.8 917.5,448.8 917.5,445.4 920.9,445.4 920.9,441.9 924.4,441.9 
			924.4,455.8 		"/>
	</g>
	<g id="symbol_-_ele" class="st27">
		<circle class="st35" cx="860.1" cy="448.8" r="12.3"/>
		<rect x="853.9" y="443.3" width="5.8" height="11.6"/>
		<rect x="860.6" y="443.3" width="5.8" height="11.6"/>
		<rect x="858.8" y="441.1" width="2.7" height="1.6"/>
		<polygon points="857.7,441.1 860.1,439.5 862.5,441.1 		"/>
	</g>
	<g id="symbol_-_esc" class="st27">
		<circle class="st35" cx="820" cy="506.5" r="12.3"/>
		<polygon points="813,513.4 813,509.9 816.5,509.9 816.5,506.4 820,506.4 820,503 823.5,503 823.5,499.5 827,499.5 827,513.4 		"/>
		<rect x="814.8" y="497.9" transform="matrix(0.7071 0.7071 -0.7071 0.7071 594.2682 -429.5944)" width="1.7" height="9.4"/>
		<polygon points="820.3,500.5 817.8,498 820.1,498 		"/>
		<polygon points="811.1,504.6 813.6,507 811.3,507 		"/>
	</g>
</g>
<g id="service" class="st21">
	<g id="service_1_" class="st27">
		<circle class="st36" cx="677.3" cy="532.9" r="12.3"/>
		<path class="st33" d="M681.7,537.1h-8.9c-2,0-3.6-1.6-3.6-3.6v-4.4c0-2,1.6-3.6,3.6-3.6h8.9c2,0,3.6,1.6,3.6,3.6v4.4
			C685.3,535.5,683.7,537.1,681.7,537.1z"/>
		<rect x="672.9" y="527" class="st0" width="8.7" height="9.4"/>
		<text transform="matrix(1 0 0 1 675.403 535.3398)" class="st37 st38 st39">i</text>
		<polygon class="st33" points="673,537.1 671.7,541.5 676.7,537.1 		"/>
	</g>
</g>
<g id="reading" class="st21">
	<g id="symbol-reading" class="st27">
		<circle cx="1004.8" cy="554.3" r="13.7"/>
		<rect x="997.8" y="552.1" transform="matrix(0.866 -0.5 0.5 0.866 -144.7496 576.1061)" class="st2" width="9.7" height="12.1"/>
		
			<rect x="1000.1" y="547.6" transform="matrix(0.942 -0.3356 0.3356 0.942 -127.8207 369.5234)" class="st2" width="10.4" height="13.9"/>
		
			<rect x="1002.8" y="545.4" transform="matrix(0.981 -0.1941 0.1941 0.981 -88.0038 206.2484)" class="st2" width="10.9" height="13.4"/>
		<line class="st40" x1="1005.3" y1="549.5" x2="1010.2" y2="548.5"/>
		<line class="st40" x1="1005.8" y1="552.1" x2="1010.7" y2="551.1"/>
		<line class="st40" x1="1006.2" y1="554.8" x2="1011.2" y2="553.8"/>
	</g>
</g>
<g id="book_return" class="st21">
	<g id="symbol-book_return_1_" class="st27">
		<circle class="st41" cx="1167.6" cy="576.9" r="13.7"/>
		
			<rect x="1164.6" y="569.8" transform="matrix(0.942 -0.3356 0.3356 0.942 -125.7023 426.0325)" class="st33" width="10.4" height="13.9"/>
		<polygon class="st33" points="1166.9,585.2 1163.6,584.9 1158.9,571.8 1162.2,572.1 		"/>
		<polygon class="st33" points="1161.9,571.6 1169.6,568.2 1171.4,568.3 1162.3,571.6 		"/>
		<line class="st42" x1="1166" y1="573.7" x2="1170.8" y2="571.9"/>
		<line class="st42" x1="1166.8" y1="575.9" x2="1171.6" y2="574.2"/>
		<line class="st42" x1="1167.6" y1="578.2" x2="1172.4" y2="576.4"/>
		<polygon class="st33" points="1161.4,571.5 1168.8,568.2 1167.6,568.1 1160.8,571.5 		"/>
		<polygon class="st33" points="1160.2,571.4 1166.9,568.1 1165.6,568.1 1159.5,571.4 		"/>
	</g>
	<g id="symbol-book_return" class="st27">
		<circle class="st41" cx="824.3" cy="652.9" r="13.7"/>
		
			<rect x="821.4" y="645.7" transform="matrix(0.942 -0.3356 0.3356 0.942 -171.0993 315.2475)" class="st33" width="10.4" height="13.9"/>
		<polygon class="st33" points="823.6,661.1 820.3,660.8 815.7,647.7 818.9,648 		"/>
		<polygon class="st33" points="818.7,647.5 826.4,644.2 828.2,644.3 819,647.6 		"/>
		<line class="st42" x1="822.8" y1="649.6" x2="827.6" y2="647.9"/>
		<line class="st42" x1="823.6" y1="651.9" x2="828.4" y2="650.1"/>
		<line class="st42" x1="824.4" y1="654.1" x2="829.2" y2="652.4"/>
		<polygon class="st33" points="818.1,647.5 825.5,644.2 824.3,644.1 817.5,647.4 		"/>
		<polygon class="st33" points="816.9,647.4 823.6,644.1 822.3,644.1 816.3,647.3 		"/>
	</g>
</g>
<g id="phone" class="st21">
	<g id="phone_1" class="st27">
		<circle class="st34" cx="933" cy="532.9" r="13.7"/>
		<path class="st33" d="M929.5,537.8l-0.3,3.1c-0.1,0.7,0.4,1.3,1.1,1.4l2.5,0.3c0.7,0.1,1.3-0.4,1.4-1.1l0.3-3.1
			c0.1-0.7-0.4-1.3-1.1-1.4l-2.5-0.3C930.2,536.6,929.6,537.1,929.5,537.8z"/>
		<path class="st33" d="M934.5,525.9l-1.5,13.8c-0.1,0.7,0.4,1.4,1.2,1.4l0.3,0c0.7,0.1,1.4-0.4,1.4-1.2l1.5-13.8
			c0.1-0.7-0.4-1.4-1.2-1.4l-0.3,0C935.3,524.7,934.6,525.2,934.5,525.9z"/>
		<path class="st33" d="M930.9,524.1l-0.3,3.1c-0.1,0.7,0.4,1.3,1.1,1.4l2.7,0.3c0.7,0.1,1.3-0.4,1.4-1.1l0.3-3.1
			c0.1-0.7-0.4-1.3-1.1-1.4l-2.7-0.3C931.6,522.9,930.9,523.4,930.9,524.1z"/>
		
			<ellipse transform="matrix(0.7723 -0.6353 0.6353 0.7723 -130.8729 716.3926)" class="st33" cx="933.9" cy="540.8" rx="2.4" ry="1.3"/>
		
			<ellipse transform="matrix(0.7567 -0.6537 0.6537 0.7567 -115.7664 739.4011)" class="st33" cx="935.6" cy="525.2" rx="1.3" ry="2.3"/>
	</g>
	<g id="phone_1_1_">
		<circle class="st43" cx="941.4" cy="549" r="13.7"/>
		<g class="st27">
			<path class="st33" d="M940.2,554.2l-0.3,3.1c-0.1,0.7,0.5,1.3,1.2,1.4l2.5,0.2c0.7,0.1,1.3-0.5,1.4-1.2l0.3-3.1
				c0.1-0.7-0.5-1.3-1.2-1.4l-2.5-0.2C940.9,552.9,940.3,553.5,940.2,554.2z"/>
			<path class="st33" d="M945,542.2l-1.2,13.8c-0.1,0.7,0.5,1.3,1.2,1.4l0.3,0c0.7,0.1,1.3-0.5,1.4-1.2l1.2-13.8
				c0.1-0.7-0.5-1.3-1.2-1.4l-0.3,0C945.7,540.9,945,541.4,945,542.2z"/>
			<path class="st33" d="M941.3,540.5l-0.3,3.1c-0.1,0.7,0.5,1.3,1.2,1.4l2.7,0.2c0.7,0.1,1.3-0.5,1.4-1.2l0.3-3.1
				c0.1-0.7-0.5-1.3-1.2-1.4l-2.7-0.2C941.9,539.2,941.3,539.8,941.3,540.5z"/>
			
				<ellipse transform="matrix(0.7572 -0.6532 0.6532 0.7572 -134.4545 752.2864)" class="st33" cx="944.7" cy="557" rx="2.4" ry="1.3"/>
			
				<ellipse transform="matrix(0.7412 -0.6713 0.6713 0.7412 -118.641 775.1713)" class="st33" cx="946" cy="541.4" rx="1.3" ry="2.3"/>
		</g>
		<circle class="st44" cx="933.6" cy="550.1" r="2.4"/>
		<circle class="st44" cx="934.2" cy="555.8" r="1.9"/>
		<circle class="st44" cx="937.9" cy="552.7" r="1.2"/>
	</g>
	<g id="campus_phone">
		<g class="st27">
			<circle class="st34" cx="964.8" cy="566.5" r="13.7"/>
			<g>
				<path class="st33" d="M969.2,563.5l1.8,0c0.7,0,1.3-0.6,1.3-1.3l0-1.3c0-0.7-0.6-1.3-1.3-1.3l-1.8,0c-0.7,0-1.3,0.6-1.3,1.3
					l0,1.3C967.9,562.9,968.5,563.5,969.2,563.5z"/>
				<path class="st33" d="M959.2,560.7l10.8-0.1c0.5,0,1-0.4,1-1l0-0.3c0-0.5-0.4-1-1-1l-10.8,0.1c-0.5,0-1,0.4-1,1l0,0.3
					C958.2,560.2,958.7,560.7,959.2,560.7z"/>
				<path class="st33" d="M958.5,563.6l1.8,0c0.7,0,1.3-0.6,1.3-1.3l0-1.5c0-0.7-0.6-1.3-1.3-1.3l-1.8,0c-0.7,0-1.3,0.6-1.3,1.3
					l0,1.5C957.2,563.1,957.8,563.6,958.5,563.6z"/>
				
					<ellipse transform="matrix(0.6931 -0.7209 0.7209 0.6931 -105.5974 871.6219)" class="st33" cx="970.7" cy="559.8" rx="1" ry="1.8"/>
				
					<ellipse transform="matrix(0.6754 -0.7374 0.7374 0.6754 -101.7544 888.6567)" class="st33" cx="958.6" cy="559.9" rx="1.8" ry="1"/>
			</g>
		</g>
		<g class="st27">
			<g>
				
					<rect x="958.3" y="568.1" transform="matrix(0.7071 0.7071 -0.7071 0.7071 683.6444 -511.7474)" class="st33" width="2.4" height="2.4"/>
				
					<rect x="963.4" y="563.1" transform="matrix(0.7071 0.7071 -0.7071 0.7071 681.5494 -516.8052)" class="st33" width="2.4" height="2.4"/>
				
					<rect x="963.4" y="573.2" transform="matrix(0.7071 0.7071 -0.7071 0.7071 688.7022 -513.8424)" class="st33" width="2.4" height="2.4"/>
				
					<rect x="968.5" y="568.1" transform="matrix(0.7071 0.7071 -0.7071 0.7071 686.6072 -518.9002)" class="st33" width="2.4" height="2.4"/>
				
					<rect x="960.9" y="564.9" transform="matrix(0.7071 0.7071 -0.7071 0.7071 682.588 -514.2979)" class="st33" width="2.4" height="3.9"/>
				
					<rect x="965.9" y="570" transform="matrix(0.7071 0.7071 -0.7071 0.7071 687.6547 -516.3713)" class="st33" width="2.4" height="3.9"/>
				
					<rect x="960.9" y="570" transform="matrix(-0.7071 0.7071 -0.7071 -0.7071 2046.8187 295.997)" class="st33" width="2.4" height="3.9"/>
				
					<rect x="966" y="564.9" transform="matrix(-0.7071 0.7071 -0.7071 -0.7071 2051.8765 283.7864)" class="st33" width="2.4" height="3.9"/>
				
					<rect x="962.7" y="567.5" transform="matrix(0.7071 0.7071 -0.7071 0.7071 685.1335 -515.3425)" class="st33" width="3.8" height="3.8"/>
			</g>
			<polygon class="st33" points="959.6,564.3 959.6,567 962.3,564.3 			"/>
			<polygon class="st33" points="969.7,574.4 969.7,571.7 967,574.4 			"/>
			<polygon class="st33" points="969.7,564.3 967,564.3 969.7,567 			"/>
			<polygon class="st33" points="959.5,574.4 962.3,574.5 959.6,571.7 			"/>
		</g>
	</g>
</g>
<g id="comp" class="st21">
	<g id="comp_2_" class="st27">
		<circle cx="899.8" cy="555.9" r="13.7"/>
		
			<rect x="894.4" y="546.8" transform="matrix(6.123234e-17 -1 1 6.123234e-17 346.3387 1453.6696)" class="st16" width="11.2" height="13.7"/>
		
			<rect x="897.9" y="552.9" transform="matrix(6.123234e-17 -1 1 6.123234e-17 338.0196 1462.1217)" class="st16" width="4.3" height="18.3"/>
		
			<rect x="896.1" y="548.4" transform="matrix(6.123234e-17 -1 1 6.123234e-17 346.4528 1453.701)" class="st16" width="7.9" height="10.5"/>
	</g>
	<g id="comp_1_" class="st27">
		<circle cx="846.4" cy="540" r="13.7"/>
		
			<rect x="841" y="530.9" transform="matrix(6.123234e-17 -1 1 6.123234e-17 308.8369 1384.3459)" class="st16" width="11.2" height="13.7"/>
		
			<rect x="844.5" y="537" transform="matrix(6.123234e-17 -1 1 6.123234e-17 300.5179 1392.7981)" class="st16" width="4.3" height="18.3"/>
		
			<rect x="842.7" y="532.5" transform="matrix(6.123234e-17 -1 1 6.123234e-17 308.9511 1384.3774)" class="st16" width="7.9" height="10.5"/>
	</g>
</g>
</svg>
