<?xml version="1.0" encoding="utf-8"?>
<!-- Generator: Adobe Illustrator 28.2.0, SVG Export Plug-In . SVG Version: 6.00 Build 0)  -->
<svg version="1.1" id="Layer_1" xmlns="http://www.w3.org/2000/svg" xmlns:xlink="http://www.w3.org/1999/xlink" x="0px" y="0px"
	 viewBox="0 0 684.2 906.7" style="enable-background:new 0 0 684.2 906.7;" xml:space="preserve">
<style type="text/css">
	.st0{fill:none;}
	.st1{fill:#231F20;}
	.st2{opacity:0.4;}
	.st3{opacity:0.45;fill:url(#SVGID_1_);stroke:#424343;stroke-miterlimit:10;enable-background:new    ;}
	.st4{opacity:0.89;fill:none;stroke:#010101;stroke-width:3;stroke-miterlimit:10;enable-background:new    ;}
	.st5{fill:#71A58E;stroke:#231F20;stroke-width:3;stroke-linecap:round;stroke-linejoin:round;}
	.st6{fill:#3F417F;stroke:#010101;stroke-width:3;stroke-miterlimit:10;}
	.st7{fill:#71A58E;stroke:#010101;stroke-width:3;stroke-miterlimit:10;}
	.st8{fill:#71A58E;stroke:#231F20;stroke-width:3;stroke-miterlimit:10;}
	.st9{fill:#0073A0;}
	.st10{fill:#FFFFFF;}
	.st11{opacity:0.4;fill:#1A4363;enable-background:new    ;}
	.st12{fill:#231F20;stroke:#FFFFFF;stroke-width:0.25;stroke-miterlimit:10;}
	.st13{fill:none;stroke:#010101;stroke-width:4;stroke-miterlimit:10;}
	.st14{fill:none;stroke:#000000;stroke-width:1;stroke-miterlimit:10;}
	.st15{opacity:0.68;}
	.st16{fill:#A1BB7E;stroke:#A1BB7E;stroke-width:7;stroke-miterlimit:10;}
	.st17{opacity:0.68;fill:#A1BB7E;enable-background:new    ;}
	.st18{font-family:'ArialMT';}
	.st19{font-size:22px;}
	.st20{font-size:20px;}
	.st21{font-size:18px;}
	.st22{font-size:16px;}
	.st23{fill:#5197BC;}
	.st24{font-family:'Arial-BoldMT';}
	.st25{font-size:33.4935px;}
	.st26{fill:none;stroke:#231F20;stroke-width:6;stroke-linecap:round;stroke-linejoin:round;}
	.st27{fill:#FFFFFF;stroke:#231F20;stroke-width:6;stroke-linecap:round;stroke-linejoin:round;}
	.st28{fill:none;stroke:#FFFFFF;stroke-width:8;stroke-miterlimit:10;}
	.st29{fill:none;stroke:#FFFFFF;stroke-width:7;stroke-miterlimit:10;}
	.st30{fill:#C40000;}
</style>
<pattern  y="906.7" width="28.8" height="28.8" patternUnits="userSpaceOnUse" id="SVGID_0000002468160898839060469" viewBox="1.4 -30.2 28.8 28.8" style="overflow:visible;">
	<g>
		<rect x="1.4" y="-30.2" class="st0" width="28.8" height="28.8"/>
		<g>
			<rect x="1.4" y="-30.2" class="st0" width="28.8" height="28.8"/>
			<g>
				<rect x="1.4" y="-30.2" class="st0" width="28.8" height="28.8"/>
				<g>
					<rect x="1.4" y="-30.2" class="st0" width="28.8" height="28.8"/>
					<g>
						<rect x="1.4" y="-30.2" class="st0" width="28.8" height="28.8"/>
						<g>
							<rect x="1.4" y="-30.2" class="st0" width="28.8" height="28.8"/>
							<g>
								<rect x="1.4" y="-30.2" class="st0" width="28.8" height="28.8"/>
								<g>
									<rect x="1.4" y="-30.2" class="st0" width="28.8" height="28.8"/>
									<g>
										<rect x="1.4" y="-30.2" class="st0" width="28.8" height="28.8"/>
										<g>
											<rect x="1.4" y="-30.2" class="st0" width="28.8" height="28.8"/>
											<g>
												<rect x="1.4" y="-30.2" class="st0" width="28.8" height="28.8"/>
												<g>
													<rect x="1.4" y="-30.2" class="st0" width="28.8" height="28.8"/>
													<g>
														<rect x="1.4" y="-30.2" class="st0" width="28.8" height="28.8"/>
														<g>
															<rect x="1.4" y="-30.2" class="st0" width="28.8" height="28.8"/>
															<g>
																<rect x="1.4" y="-30.2" class="st0" width="28.8" height="28.8"/>
																<g>
																	<rect x="1.4" y="-30.2" class="st0" width="28.8" height="28.8"/>
																	<g>
																		<rect x="1.4" y="-30.2" class="st0" width="28.8" height="28.8"/>
																		<g>
																			<rect x="1.4" y="-30.2" class="st0" width="28.8" height="28.8"/>
																			<g>
																				<rect x="1.4" y="-30.2" class="st0" width="28.8" height="28.8"/>
																				<g>
																					<path class="st1" d="M30.2,0c0.8,0,1.4-0.6,1.4-1.4S31-2.8,30.2-2.8s-1.4,0.6-1.4,1.4C28.8-0.6,29.4,0,30.2,0z
																						"/>
																					<path class="st1" d="M15.8,0c0.8,0,1.4-0.6,1.4-1.4s-0.6-1.4-1.4-1.4c-0.8,0-1.4,0.6-1.4,1.4
																						C14.4-0.6,15,0,15.8,0z"/>
																					<path class="st1" d="M30.2-14.4c0.8,0,1.4-0.6,1.4-1.4s-0.6-1.4-1.4-1.4s-1.4,0.6-1.4,1.4
																						C28.8-15,29.4-14.4,30.2-14.4z"/>
																					<path class="st1" d="M15.8-14.4c0.8,0,1.4-0.6,1.4-1.4s-0.6-1.4-1.4-1.4c-0.8,0-1.4,0.6-1.4,1.4
																						C14.4-15,15-14.4,15.8-14.4z"/>
																					<path class="st1" d="M8.6-7.2c0.8,0,1.4-0.6,1.4-1.4S9.4-10,8.6-10c-0.8,0-1.4,0.6-1.4,1.4
																						C7.2-7.8,7.8-7.2,8.6-7.2z"/>
																					<path class="st1" d="M23-7.2c0.8,0,1.4-0.6,1.4-1.4S23.8-10,23-10s-1.4,0.6-1.4,1.4S22.2-7.2,23-7.2z"/>
																					<path class="st1" d="M8.6-21.6c0.8,0,1.4-0.6,1.4-1.4s-0.6-1.4-1.4-1.4c-0.8,0-1.4,0.6-1.4,1.4
																						C7.2-22.2,7.8-21.6,8.6-21.6z"/>
																					<path class="st1" d="M23-21.6c0.8,0,1.4-0.6,1.4-1.4s-0.6-1.4-1.4-1.4s-1.4,0.6-1.4,1.4
																						C21.6-22.2,22.2-21.6,23-21.6z"/>
																				</g>
																				<g>
																					<path class="st1" d="M1.4,0c0.8,0,1.4-0.6,1.4-1.4S2.2-2.8,1.4-2.8C0.6-2.9,0-2.2,0-1.4C0-0.6,0.6,0,1.4,0z"/>
																					<path class="st1" d="M1.4-14.4c0.8,0,1.4-0.6,1.4-1.4s-0.6-1.4-1.4-1.4S0-16.6,0-15.8S0.6-14.4,1.4-14.4z"/>
																				</g>
																				<g>
																					<path class="st1" d="M30.2-28.8c0.8,0,1.4-0.6,1.4-1.4s-0.6-1.4-1.4-1.4s-1.4,0.6-1.4,1.4
																						C28.8-29.4,29.4-28.8,30.2-28.8z"/>
																					<path class="st1" d="M15.8-28.8c0.8,0,1.4-0.6,1.4-1.4s-0.6-1.4-1.4-1.4s-1.4,0.6-1.4,1.4
																						C14.4-29.4,15-28.8,15.8-28.8z"/>
																				</g>
																				<g>
																					<path class="st1" d="M1.4-28.8c0.8,0,1.4-0.6,1.4-1.4s-0.6-1.4-1.4-1.4C0.6-31.7,0-31,0-30.2
																						C0-29.4,0.6-28.8,1.4-28.8z"/>
																				</g>
																			</g>
																		</g>
																	</g>
																</g>
															</g>
														</g>
													</g>
												</g>
											</g>
										</g>
									</g>
								</g>
							</g>
						</g>
					</g>
				</g>
			</g>
		</g>
	</g>
</pattern>
<g id="Spaces" class="st2">
	<g id="employee_areas">
		<pattern  id="SVGID_1_" xlink:href="#SVGID_0000002468160898839060469" patternTransform="matrix(1 0 0 1 -419.6 190621.1094)">
		</pattern>
		<polyline class="st3" points="35.7,536.1 3.1,604 118.2,658.5 119.1,823.1 194.1,859.4 195.8,733.7 286,733.4 285.3,618 
			278.8,618.2 221.6,617.7 221.8,443.5 167.9,443.7 167.6,538.1 35.7,536.1 		"/>
	</g>
	<line class="st4" x1="286.6" y1="215.4" x2="286.6" y2="294.5"/>
	<path id="cafe_00000052796716991338462910000004400667937314557858_" class="st5" d="M286.6,218.6l-167.5-0.2v-84h168L286.6,218.6z
		"/>
	<path id="_x31_25" class="st6" d="M285.9,733.6l-92.3,0.1l-0.1,125.7l91.6,43.2L285.9,733.6z"/>
	<polyline id="PAR" class="st7" points="166.9,539.1 166.9,443.4 166.9,445 79.6,444.9 36.2,536.1 166.1,537.1 	"/>
	<path id="DHC" class="st8" d="M523.2,691.9l-80.3,0.1l-0.2-23.1h-29.9l0.5-52l-48.6,0.1l0.1,160.9L524,721.4L523.2,691.9z"/>
	<path id="children_x27_s_room" class="st8" d="M438.8,463.3l85.6,0.4L680.8,138l-93.9-1.6l-13-16l-213.2,15.3l0.8,226.9
		 M361.3,361.3l78.9,102.8"/>
</g>
<g id="restroom">
	<g id="restroom_00000067921546007013965380000012687461363368965267_">
		<rect x="122.5" y="219.7" class="st9" width="73.1" height="75.5"/>
		<path class="st10" d="M168.5,245.4c1.2,0,2.1-0.9,2.1-2.1c0-1.2-0.9-2.1-2.1-2.1s-2.1,0.9-2.1,2.1
			C166.3,244.5,167.3,245.4,168.5,245.4z"/>
		<path class="st10" d="M174.3,253.8l-1.8-6.3c-0.4-1.2-1.3-1.6-2.6-1.6l0,0H167l0,0c-1.3,0-2.1,0.4-2.6,1.6l-1.8,6.3
			c-0.1,0.4,0.1,0.8,0.7,0.9c0.4,0.1,0.9-0.1,1-0.5l1.6-5.5h0.4l-2.7,9.6h2.6v6.8c0,0.5,0.5,1,1,1s1-0.5,1-1v-6.8h0.5v6.8
			c0,0.5,0.5,1,1,1s1-0.5,1-1v-6.8h2.6l-2.7-9.6h0.4l1.6,5.5c0.1,0.4,0.5,0.7,1,0.5C174.1,254.6,174.4,254.2,174.3,253.8z"/>
		<path class="st10" d="M147.3,245.4c1.2,0,2.1-0.9,2.1-2.1c0-1.2-0.9-2.1-2.1-2.1c-1.2,0-2.1,0.9-2.1,2.1
			C145,244.5,146.1,245.4,147.3,245.4z"/>
		<path class="st10" d="M150,245.9h-5.5c-1.3,0-2.4,1-2.4,2.4v6.7c0,0.5,0.4,0.9,0.9,0.9s0.9-0.4,0.9-0.9v-5.9h0.5v6.8v9.2
			c0,0.7,0.5,1.2,1.2,1.2s1.2-0.5,1.2-1.2v-9.2h0.5v9.2c0,0.7,0.5,1.2,1.2,1.2s1.2-0.5,1.2-1.2v-9.2v-6.8h0.5v5.9
			c0,0.5,0.4,0.9,0.9,0.9s0.9-0.4,0.9-0.9v-6.7C152.4,247,151.3,245.9,150,245.9z"/>
		<rect x="157.1" y="241.2" class="st10" width="2.4" height="24.9"/>
	</g>
	<g id="restroom_00000129203183757696906870000009799256100089178502_">
		<circle class="st9" cx="578.3" cy="309.7" r="15"/>
		<g id="Layer_1_00000043417269205140031930000013075138157533666726_">
			<g>
				<g>
					<g>
						<path class="st10" d="M571.4,303.8c0.8,0,1.6-0.7,1.6-1.5s-0.7-1.4-1.6-1.4c-0.8,0-1.5,0.6-1.5,1.4S570.6,303.8,571.4,303.8z"
							/>
						<path class="st10" d="M573.4,304.1h-3.9c-0.9,0-1.7,0.7-1.7,1.7v4.8c0,0.3,0.3,0.6,0.6,0.6s0.6-0.3,0.6-0.6v-4.2h0.3v4.8v6.5
							c0,0.5,0.4,0.8,0.8,0.8c0.5,0,0.8-0.4,0.8-0.8v-6.5h0.4v6.5c0,0.5,0.4,0.8,0.8,0.8c0.5,0,0.8-0.4,0.8-0.8v-6.5v-4.8h0.3v4.1
							c0,0.3,0.3,0.6,0.6,0.6s0.6-0.3,0.6-0.6v-4.8C575,304.8,574.3,304.1,573.4,304.1z"/>
					</g>
					<g>
						<path class="st10" d="M584.5,303.8c0.8,0,1.5-0.7,1.5-1.5s-0.7-1.5-1.5-1.5c-0.8,0.1-1.6,0.7-1.6,1.5S583.7,303.8,584.5,303.8
							z"/>
						<path class="st10" d="M588.7,309.7l-1.2-4.5c-0.3-0.8-0.9-1.1-1.9-1.1l0,0h-2.1l0,0c-0.9,0-1.6,0.3-1.9,1.1l-1.2,4.5
							c-0.1,0.3,0.1,0.6,0.4,0.7s0.6-0.1,0.7-0.3l1.1-3.9h0.3l-2,6.8h1.9v4.9c0,0.4,0.3,0.7,0.7,0.7s0.7-0.3,0.7-0.7V313h0.3v4.9
							c0,0.4,0.3,0.7,0.7,0.7s0.7-0.3,0.7-0.7V313h1.9l-1.9-6.9h0.3l1.1,3.9c0.1,0.3,0.4,0.4,0.7,0.3
							C588.6,310.3,588.8,309.9,588.7,309.7z"/>
					</g>
				</g>
				<rect x="577.4" y="300.8" class="st10" width="1.7" height="17.7"/>
			</g>
		</g>
	</g>
	<g id="restroom_00000093154083196299017300000003324237930340482739_">
		<rect x="443.9" y="616.3" class="st9" width="77.2" height="77.2"/>
		<g>
			<g>
				<g>
					<path class="st10" d="M472,646.5c1.2,0,2.1-0.9,2.1-2.1c0-1.2-0.9-2.1-2.1-2.1s-2.1,0.9-2.1,2.1
						C469.7,645.6,470.8,646.5,472,646.5z"/>
					<path class="st10" d="M474.7,647h-5.5c-1.3,0-2.4,1-2.4,2.4v6.7c0,0.5,0.4,0.9,0.9,0.9s0.9-0.4,0.9-0.9v-5.9h0.5v6.8v9.2
						c0,0.7,0.5,1.2,1.2,1.2s1.2-0.5,1.2-1.2V657h0.5v9.2c0,0.7,0.5,1.2,1.2,1.2s1.2-0.5,1.2-1.2V657v-6.8h0.5v5.9
						c0,0.5,0.4,0.9,0.9,0.9s0.9-0.4,0.9-0.9v-6.7C477.1,648.1,476,647,474.7,647z"/>
				</g>
				<g>
					<path class="st10" d="M493.3,646.5c1.2,0,2.1-0.9,2.1-2.1c0-1.2-0.9-2.1-2.1-2.1s-2.1,0.9-2.1,2.1
						C491.1,645.6,492.1,646.5,493.3,646.5z"/>
					<path class="st10" d="M499.1,654.9l-1.8-6.3c-0.4-1.2-1.3-1.6-2.6-1.6l0,0h-2.9l0,0c-1.3,0-2.1,0.4-2.6,1.6l-1.8,6.3
						c-0.1,0.4,0.1,0.8,0.7,0.9c0.4,0.1,0.9-0.1,1-0.5l1.6-5.5h0.4l-2.7,9.6h2.6v6.8c0,0.5,0.5,1,1,1s1-0.5,1-1v-6.8h0.5v6.8
						c0,0.5,0.5,1,1,1s1-0.5,1-1v-6.8h2.6l-2.7-9.6h0.4l1.6,5.5c0.1,0.4,0.5,0.7,1,0.5C498.9,655.6,499.2,655.3,499.1,654.9z"/>
				</g>
			</g>
			<rect x="481.9" y="642.3" class="st10" width="2.4" height="24.9"/>
		</g>
	</g>
</g>
<g id="escalator_00000150794383660195744430000003786862563213663129_">
	<rect x="371.4" y="465" class="st11" width="34" height="107.7"/>
	<g>
		<g>
			<g>
				<path class="st12" d="M385.2,503.8c1.6,0,2.8-1.4,2.8-2.8c0-1.6-1.4-2.8-2.8-2.8c-1.6,0-2.8,1.4-2.8,2.8
					C382.3,502.4,383.7,503.8,385.2,503.8z"/>
				<path class="st12" d="M388.3,507.7c0-1.6-1.4-3-3-3s-3,1.4-3,3v6.8l6-6V507.7L388.3,507.7z"/>
				<path class="st12" d="M398.9,506.8h-5.3c-0.9,0-1.7,0.4-2.4,1.1l-9.3,9.3h-4.1c-1.9,0-3.4,1.6-3.4,3.4c0,1.9,1.6,3.4,3.4,3.4
					h5.6c0.9,0,1.7-0.4,2.4-1.1l9.3-9.3h3.8c1.9,0,3.4-1.6,3.4-3.4C402.2,508.3,400.8,506.8,398.9,506.8z"/>
			</g>
		</g>
	</g>
</g>
<g id="elevator">
	
		<rect x="441.3" y="469.2" transform="matrix(1.787226e-03 -1 1 1.787226e-03 -28.1112 927.1987)" class="st11" width="18.1" height="16.9"/>
	
		<rect x="441.1" y="494.1" transform="matrix(1.787226e-03 -1 1 1.787226e-03 -53.2138 951.7477)" class="st11" width="18.1" height="16.9"/>
	
		<rect x="441" y="543.3" transform="matrix(1.787226e-03 -1 1 1.787226e-03 -102.5865 1000.8296)" class="st11" width="18.1" height="16.9"/>
	
		<rect x="441.2" y="568.2" transform="matrix(1.787226e-03 -1 1 1.787226e-03 -127.2548 1025.8672)" class="st11" width="18.1" height="16.9"/>
	<line class="st13" x1="463.1" y1="465.9" x2="463.1" y2="592.4"/>
	<g>
		<g>
			<path class="st1" d="M446,513.6c-0.2-0.2-0.4-0.3-0.6-0.3s-0.5,0.1-0.6,0.3c-0.5,0.5-1.4,1.4-2.7,2.7c-0.4,0.4-0.4,1,0,1.3
				c0.3,0.3,0.9,0.3,1.2,0l1.1-1.1v3.5c0,0.5,0.4,0.9,0.9,0.9h0.1c0.5,0,0.9-0.4,0.9-0.9v-3.5l1.1,1.1c0.3,0.3,0.9,0.3,1.2,0l0,0
				c0.3-0.3,0.3-0.9,0-1.2C447.3,514.9,446.6,514.2,446,513.6z"/>
			<path class="st1" d="M453.8,520.6c0.2,0.2,0.4,0.3,0.6,0.3s0.5-0.1,0.6-0.3c0.5-0.5,1.4-1.4,2.7-2.7c0.4-0.4,0.4-1,0-1.3
				c-0.3-0.3-0.9-0.3-1.2,0l-1.1,1.1v-3.5c0-0.5-0.4-0.9-0.9-0.9h-0.1c-0.5,0-0.9,0.4-0.9,0.9v3.5l-1.1-1.1c-0.3-0.3-0.9-0.3-1.2,0
				l0,0c-0.3,0.3-0.3,0.9,0,1.2C452.5,519.3,453.2,520,453.8,520.6z"/>
		</g>
		<g>
			<g>
				<path class="st1" d="M453.2,527.6c0.5,0,1-0.4,1-1c0-0.5-0.4-1-1-1c-0.5,0-1,0.4-1,1C452.3,527.1,452.7,527.6,453.2,527.6z"/>
				<path class="st1" d="M454.5,527.7h-2.4c-0.6,0-1,0.5-1,1v3c0,0.2,0.2,0.4,0.4,0.4c0.2,0,0.4-0.2,0.4-0.4v-2.6h0.2v3v4.1
					c0,0.3,0.2,0.6,0.6,0.6c0.3,0,0.6-0.2,0.6-0.6v-4.1h0.2v4.1c0,0.3,0.2,0.6,0.6,0.6c0.3,0,0.6-0.2,0.6-0.6v-4.1v-3h0.2v2.6
					c0,0.2,0.2,0.4,0.4,0.4c0.2,0,0.4-0.2,0.4-0.4v-3C455.5,528.2,455,527.7,454.5,527.7z"/>
			</g>
			<path class="st1" d="M447,527.6c0.5,0,1-0.4,1-1c0-0.5-0.4-1-1-1c-0.5,0-1,0.4-1,1C446,527.1,446.4,527.6,447,527.6z"/>
			<path class="st1" d="M449.6,531.3l-0.8-2.8c-0.2-0.5-0.6-0.7-1.2-0.7l0,0h-1.3l0,0c-0.6,0-1,0.2-1.2,0.7l-0.8,2.8
				c-0.1,0.2,0.1,0.4,0.3,0.4c0.2,0.1,0.4,0,0.5-0.2l0.7-2.5h0.2l-1.2,4.3h1.2v3c0,0.3,0.2,0.5,0.5,0.5s0.5-0.2,0.5-0.5v-3h0.2v3
				c0,0.3,0.2,0.5,0.5,0.5s0.5-0.2,0.5-0.5v-3h1.2l-1.2-4.3h0.2l0.7,2.5c0.1,0.2,0.3,0.3,0.5,0.2
				C449.5,531.6,449.6,531.4,449.6,531.3z"/>
		</g>
		<g>
			<path class="st1" d="M456.1,540.2h-12.4c-2.5,0-4.6-2.6-4.6-5.7V528c0-3.2,2.1-5.7,4.6-5.7H456c2.5,0,4.6,2.6,4.6,5.7v6.5
				C460.6,537.6,458.6,540.2,456.1,540.2z M443.7,524.3c-1.6,0-2.9,1.6-2.9,3.6v6.5c0,2,1.3,3.6,2.9,3.6H456c1.6,0,2.9-1.6,2.9-3.6
				v-6.5c0-2-1.3-3.6-2.9-3.6H443.7z"/>
		</g>
	</g>
	<g>
		<g>
			<path class="st1" d="M507.8,219.9c-0.2-0.2-0.4-0.3-0.6-0.3s-0.5,0.1-0.6,0.3c-0.5,0.5-1.4,1.4-2.7,2.7c-0.4,0.4-0.4,1,0,1.3
				c0.3,0.3,0.9,0.3,1.2,0l1.1-1.1v3.5c0,0.5,0.4,0.9,0.9,0.9h0.1c0.5,0,0.9-0.4,0.9-0.9v-3.5l1.1,1.1c0.3,0.3,0.9,0.3,1.2,0l0,0
				c0.3-0.3,0.3-0.9,0-1.2C509.1,221.2,508.4,220.5,507.8,219.9z"/>
			<path class="st1" d="M515.6,226.9c0.2,0.2,0.4,0.3,0.6,0.3s0.5-0.1,0.6-0.3c0.5-0.5,1.4-1.4,2.7-2.7c0.4-0.4,0.4-1,0-1.3
				c-0.3-0.3-0.9-0.3-1.2,0l-1.1,1.1v-3.5c0-0.5-0.4-0.9-0.9-0.9h-0.1c-0.5,0-0.9,0.4-0.9,0.9v3.5l-1.1-1.1c-0.3-0.3-0.9-0.3-1.2,0
				l0,0c-0.3,0.3-0.3,0.9,0,1.2C514.3,225.6,515,226.3,515.6,226.9z"/>
		</g>
		<g>
			<g>
				<path class="st1" d="M515,233.9c0.5,0,1-0.4,1-1c0-0.5-0.4-1-1-1c-0.5,0-1,0.4-1,1C514.1,233.4,514.5,233.9,515,233.9z"/>
				<path class="st1" d="M516.3,234h-2.4c-0.6,0-1,0.5-1,1v3c0,0.2,0.2,0.4,0.4,0.4s0.4-0.2,0.4-0.4v-2.6h0.2v3v4.1
					c0,0.3,0.2,0.6,0.6,0.6c0.3,0,0.6-0.2,0.6-0.6v-4.1h0.2v4.1c0,0.3,0.2,0.6,0.6,0.6c0.3,0,0.6-0.2,0.6-0.6v-4.1v-3h0.2v2.6
					c0,0.2,0.2,0.4,0.4,0.4s0.4-0.2,0.4-0.4v-3C517.3,234.5,516.8,234,516.3,234z"/>
			</g>
			<path class="st1" d="M508.8,233.9c0.5,0,1-0.4,1-1c0-0.5-0.4-1-1-1c-0.5,0-1,0.4-1,1C507.8,233.4,508.2,233.9,508.8,233.9z"/>
			<path class="st1" d="M511.4,237.6l-0.8-2.8c-0.2-0.5-0.6-0.7-1.2-0.7l0,0h-1.3l0,0c-0.6,0-1,0.2-1.2,0.7l-0.8,2.8
				c-0.1,0.2,0.1,0.4,0.3,0.4c0.2,0.1,0.4,0,0.5-0.2l0.7-2.5h0.2l-1.2,4.3h1.2v3c0,0.3,0.2,0.5,0.5,0.5s0.5-0.2,0.5-0.5v-3h0.2v3
				c0,0.3,0.2,0.5,0.5,0.5s0.5-0.2,0.5-0.5v-3h1.2l-1.2-4.3h0.2l0.7,2.5c0.1,0.2,0.3,0.3,0.5,0.2
				C511.3,237.9,511.4,237.7,511.4,237.6z"/>
		</g>
		<g>
			<path class="st1" d="M517.9,246.5h-12.4c-2.5,0-4.6-2.6-4.6-5.7v-6.5c0-3.2,2.1-5.7,4.6-5.7h12.3c2.5,0,4.6,2.6,4.6,5.7v6.5
				C522.4,243.9,520.4,246.5,517.9,246.5z M505.5,230.6c-1.6,0-2.9,1.6-2.9,3.6v6.5c0,2,1.3,3.6,2.9,3.6h12.3c1.6,0,2.9-1.6,2.9-3.6
				v-6.5c0-2-1.3-3.6-2.9-3.6H505.5z"/>
		</g>
		
			<rect x="495.6" y="217.1" transform="matrix(1.913658e-03 -1 1 1.913658e-03 277.5021 744.1412)" class="st14" width="31.9" height="31.9"/>
	</g>
</g>
<g id="stairs_00000032626799022009418030000006004862700355200132_">
	<g>
		<path class="st1" d="M473.3,565.5c1,0,1.9-0.8,1.9-1.9c0-1-0.8-1.9-1.9-1.9c-1,0-1.9,0.8-1.9,1.9
			C471.5,564.7,472.3,565.5,473.3,565.5z"/>
		<path class="st1" d="M469.9,571.4c0.6,0,1.1-0.4,1.1-1v-1.2l0.6-0.4v3v0.6l-1.8,6.9c-0.2,0.5,0.2,1.1,0.7,1.2
			c0.6,0.2,1.2-0.1,1.4-0.7l1.6-6.4h1.6v2.1c0,0.6,0.5,1,1.1,1s1.1-0.4,1.1-1v-3.1c0-0.6-0.5-1-1.1-1l0,0l0,0h-2.4v-1.9l0.6,0.6
			c0.2,0.2,0.5,0.4,0.9,0.4l0,0h2c0.6,0,1.1-0.4,1.1-1s-0.5-1-1.1-1h-1.6l-2-2.2l-0.1-0.1c-0.1-0.1-0.2-0.3-0.4-0.4l0,0h-0.1l0,0
			H473l0,0c0,0,0,0-0.1,0l0,0c0,0,0,0-0.1,0l0,0c0,0,0,0-0.1,0l0,0l0,0l0,0c0,0,0,0-0.1,0c0,0,0,0-0.1,0l0,0c0,0,0,0-0.1,0l0,0
			c0,0,0,0-0.1,0l0,0c0,0,0,0-0.1,0l0,0c0,0,0,0-0.1,0l0,0c0,0,0,0-0.1,0l0,0l-2.8,2c-0.3,0.2-0.4,0.5-0.4,0.8l0,0v1.7
			C468.8,571,469.2,571.4,469.9,571.4z"/>
		<path class="st1" d="M490.4,568h-5.1c-0.2,0-0.3,0.2-0.4,0.4v4.7h-4.7c-0.2,0-0.3,0.2-0.4,0.4v5h-4.9c-0.2,0-0.3,0.2-0.4,0.4v4.6
			h-4.7c-0.2,0-0.3,0.2-0.4,0.4v4.4c0,0.2,0.2,0.3,0.4,0.4h20.5c0.2,0,0.3-0.2,0.4-0.4l-0.1-19.8C490.7,568.2,490.6,568.1,490.4,568
			z"/>
	</g>
</g>
<g id="circ" class="st15">
	<path class="st16" d="M257.5,459.9l-16.2-2.4l1.1-7.2l16.2,2.4L257.5,459.9z M258.6,452.7L243.1,557l8.6,1.3L267.2,454L258.6,452.7
		z M272.5,561.3l-29.4-4.4l-1.1,7.2l29.4,4.4L272.5,561.3z M263.9,560l-6.4,42.7l8.6,1.3l6.4-42.7L263.9,560z"/>
</g>
<path id="wepa" class="st17" d="M252.5,399.4c5.8-11,18.4-15.2,29.4-9.5c11,5.8,15.2,19.3,9.5,30.3c-5.8,11-18.4,15.2-29.4,9.5
	C250.9,424,246.7,410.4,252.5,399.4z"/>
<g id="printers">
	<g>
		<path d="M269.3,414.1h2.1h3c0.3,0,0.5-0.3,0.5-0.5s-0.3-0.5-0.5-0.5h-5c-0.3,0-0.5,0.3-0.5,0.5
			C268.8,413.8,268.9,414.1,269.3,414.1z"/>
		<path d="M274.3,415.3h-5c-0.3,0-0.5,0.3-0.5,0.5c0,0.3,0.3,0.5,0.5,0.5h4.9c0.3,0,0.5-0.3,0.5-0.5
			C274.9,415.6,274.7,415.3,274.3,415.3z"/>
	</g>
	<path d="M278.7,405.2h-1v-3.8c0-0.3-0.3-0.5-0.5-0.5h-10.5c-0.3,0-0.5,0.3-0.5,0.5v3.8h-1c-0.9,0-1.7,0.8-1.7,1.7v6
		c0,0.9,0.8,1.7,1.7,1.7h1v3.8c0,0.3,0.2,0.5,0.5,0.5h10.5c0.3,0,0.5-0.3,0.5-0.5v-3.7h1c0.9,0,1.7-0.8,1.7-1.7v-6
		C280.4,406,279.6,405.2,278.7,405.2z M265.1,407.7c-0.4,0-0.6-0.3-0.6-0.6c0-0.4,0.3-0.6,0.6-0.6s0.6,0.3,0.6,0.6
		C265.7,407.4,265.4,407.7,265.1,407.7z M267.1,402h9.4v3.1h-9.4V402z M266.4,407.1c0-0.4,0.3-0.6,0.6-0.6s0.6,0.3,0.6,0.6
		c0,0.4-0.3,0.6-0.6,0.6S266.4,407.4,266.4,407.1z M276.6,414.6v3.1h-9.4v-6.2h9.4V414.6L276.6,414.6z"/>
</g>
<g id="coffee">
	<path d="M146.1,171c0.4-0.3,0.8-0.2,1.2-0.2c1.8,0,3.7,0,5.6,0c4.2,0,8.2,0,12.4,0c0.5,0,1-0.1,1.4,0.2c0.3,0.4,0,0.9,0.1,1.3
		c0.2,0.3,0.7,0.2,1,0.3c1.7,0.3,3.1,1.7,3.2,3.5c0.1,1.3-0.4,2.5-1.3,3.4c-0.9,0.9-2.1,1.3-3.3,1.7c-1,0.2-2,0.2-3,0.2
		c-0.6,0-1,0.1-1.4,0.5c-0.7,0.7-1.5,1-2.5,1c-1.9-0.1-3.9-0.1-5.8,0c-1.1,0-1.8-0.3-2.6-1.1c-1.6-1.6-2.7-3.4-3.6-5.4
		c-0.6-1.4-1-2.9-1.2-4.4C146,171.5,146.1,171.3,146.1,171z M164.3,178.9c1.4,0.2,3-0.3,3.9-1.2c0.1-0.1,0.2-0.2,0.3-0.3
		c0.8-1.2,0.3-2.5-1-2.8c-0.4-0.1-0.8-0.2-1.2,0.1c-0.2,0.7-0.5,1.4-0.8,2.1C165.1,177.5,164.7,178.3,164.3,178.9z"/>
	<path d="M148,184.1c0.3-0.1,0.5-0.1,0.7-0.1c5.3,0,10.7,0,16.1,0c0.1,0,0.2,0.1,0.2,0.1l0.1,0.1c-0.2,0.6-0.8,1.8-1.2,2.1
		c-0.2,0.2-0.4,0.2-0.7,0.2c-0.3,0.1-0.7,0-1,0c-3.7,0-7.5,0-11.2,0c-0.2,0-0.6,0-0.8,0c-0.5,0-0.8-0.2-1.1-0.7
		C148.6,185.4,148.2,184.9,148,184.1z"/>
	<path d="M158.7,168.4c0.3-1.3-0.2-2.5-0.7-3.7c-0.9-1.7-0.6-3.8,0.7-5.3c0.1-0.2,0.2-0.2,0.6-0.5c-0.5,1.5,0,2.6,0.6,3.7
		c0.7,1.3,0.8,2.7,0.2,4.1C159.8,167.3,159.4,168,158.7,168.4L158.7,168.4z"/>
	<path d="M153.8,168.4c0.3-1,0.2-2-0.3-2.9c-0.2-0.2-0.3-0.6-0.4-0.8c-0.9-1.9-0.5-4.1,1.2-5.5c0,0.1,0.1,0.2,0.1,0.3
		c-0.2,0.8,0,1.6,0.3,2.3c0.2,0.3,0.3,0.7,0.6,1.1c0.8,1.7,0.6,3.9-0.8,5.3C154.2,168.2,154,168.2,153.8,168.4L153.8,168.4z"/>
	<path d="M158.7,168.4L158.7,168.4L158.7,168.4z"/>
	<polygon points="153.8,168.3 153.8,168.4 153.8,168.4 	"/>
</g>
<g id="Text">
	<text transform="matrix(1 0 0 1 416.013 311.4999)" class="st18 st19">Children’s</text>
	<text transform="matrix(1 0 0 1 435.613 337.9)" class="st18 st19">Room</text>
	<text transform="matrix(1 0 0 1 181.319 173.9156)" class="st18 st20">Nirvana</text>
	<text transform="matrix(1 0 0 1 181.319 192.9156)" class="st18 st20">Soul</text>
	<text transform="matrix(1 0 0 1 84.3584 503.8898)" class="st18 st20">Partners</text>
	<text transform="matrix(1 0 0 1 64.3195 525.4898)" class="st18 st20">in Reading</text>
	<text transform="matrix(1 0 0 1 372.1751 704.3572)" class="st18 st21">Digital</text>
	<text transform="matrix(1 0 0 1 372.1751 722.4578)" class="st18 st21">Humanities</text>
	<text transform="matrix(1 0 0 1 372.1751 740.5573)" class="st18 st21">Center</text>
	<text transform="matrix(1 0 0 1 224.6164 807.5609)" class="st18 st21">125</text>
	<text transform="matrix(1 0 0 1 372.1754 681.786)" class="st18 st22">113</text>
</g>
<g id="North_00000164482264290555914440000013737384098679011727_">
	<polygon class="st23" points="649.9,29.5 616.9,23.8 644.2,62.5 	"/>
	<text transform="matrix(0.6 0.8 -0.8 0.6 646.6995 17.2401)" class="st23 st24 st25">N</text>
</g>
<g id="floor_outline">
	<line class="st26" x1="681.1" y1="137.8" x2="524.8" y2="462.7"/>
	<line class="st26" x1="3.1" y1="603.6" x2="119.6" y2="361.3"/>
	<line class="st26" x1="118.2" y1="658.7" x2="2.9" y2="603.9"/>
	<line class="st26" x1="118.9" y1="823.5" x2="285.5" y2="903.7"/>
	<line class="st26" x1="325.3" y1="3" x2="263.1" y2="133.7"/>
	<line class="st26" x1="468" y1="71.6" x2="325.3" y2="3"/>
	<line class="st26" x1="119.5" y1="134.6" x2="263.1" y2="133.7"/>
	<line class="st26" x1="525.4" y1="40.1" x2="469.8" y2="71.8"/>
	<line class="st26" x1="525.4" y1="123.2" x2="525.4" y2="40.1"/>
	<line class="st26" x1="525.4" y1="123.2" x2="573.4" y2="119.9"/>
	<line class="st26" x1="586.2" y1="135.7" x2="573.4" y2="119.9"/>
	<line class="st26" x1="681.1" y1="137.5" x2="587.2" y2="136.7"/>
	<line class="st26" x1="119.3" y1="134.8" x2="119.9" y2="360.8"/>
	<line class="st26" x1="464.1" y1="462.7" x2="524" y2="462.7"/>
	<line class="st26" x1="464" y1="555.1" x2="464.1" y2="463"/>
	<line class="st26" x1="464" y1="555.8" x2="524.1" y2="555.8"/>
	<line class="st26" x1="524.1" y1="721.6" x2="524.1" y2="555.8"/>
	<line class="st26" x1="286.2" y1="828.7" x2="285.5" y2="903.7"/>
	<line class="st26" x1="118.9" y1="823.5" x2="118.2" y2="658.7"/>
	<line class="st26" x1="316.4" y1="828.1" x2="286.2" y2="827.7"/>
	<line class="st26" x1="523.2" y1="721.7" x2="364.5" y2="778.9"/>
	<line class="st26" x1="364.4" y1="779.1" x2="316.7" y2="827.6"/>
	<path class="st27" d="M265.9,126"/>
</g>
<g id="Doors">
	<line class="st28" x1="525.7" y1="75.7" x2="525.7" y2="101.5"/>
	<line class="st28" x1="309.7" y1="35.2" x2="296" y2="64.5"/>
	<line class="st28" x1="362.3" y1="20.4" x2="389.2" y2="33.2"/>
	<line class="st29" x1="287.1" y1="748.2" x2="287.2" y2="776.5"/>
	<line class="st28" x1="507.9" y1="728.2" x2="483" y2="736.9"/>
	<line class="st28" x1="383.6" y1="393.2" x2="399.1" y2="413.4"/>
	<line class="st28" x1="289.1" y1="173.6" x2="289" y2="199.1"/>
	<line class="st28" x1="135.5" y1="443" x2="109.9" y2="443"/>
	<line class="st28" x1="352.5" y1="791.6" x2="327.2" y2="817.4"/>
	<line class="st28" x1="224.9" y1="133.5" x2="199.3" y2="133.6"/>
	<line class="st29" x1="363.5" y1="741.6" x2="363.6" y2="769.9"/>
</g>
<g id="Entrances">
	<text transform="matrix(1 0 0 1 374.3289 851.2615)" class="st18 st20">Campus Entrance</text>
	<text transform="matrix(1 0 0 1 42.7995 35.2)" class="st18 st20">San Fernando Entrance</text>
	<g>
		<polygon points="263.8,29.7 261.3,35.3 272.1,40.1 270.1,44.7 287.8,43.8 276.7,29.9 274.6,34.5 		"/>
	</g>
	<g>
		<polygon points="366.6,837.4 370.9,833.1 362.4,824.8 366,821.2 349,815.9 354.6,832.8 358.2,829.1 		"/>
	</g>
</g>
<g id="Emergency_exits">
	<g>
		<circle class="st30" cx="506" cy="601.2" r="15"/>
		<g>
			<g>
				<path class="st10" d="M514.5,592l-5.2-1.8c-0.3-0.1-0.6,0.1-0.6,0.5v1.4h-5.1c-0.2,0-0.4,0.2-0.4,0.4v1.6c0.3,0,0.6,0.1,0.8,0.2
					v-1.4h4.6v15.9h-3.1v0.2c0,0.2,0.1,0.4,0,0.6h3v1.4c0,0.3,0.3,0.6,0.6,0.5l5.2-1.8c0.2-0.1,0.3-0.2,0.3-0.5v-16.8
					C514.9,592.3,514.7,592.1,514.5,592z"/>
				<g>
					<g>
						<path class="st10" d="M495.5,608.1h3.3c0.4,0,0.8-0.3,1-0.7l0.4-1.3l-1.6-1.3l0,0l-0.4,1.4h-2.6c-0.5,0-1,0.4-1,1
							C494.6,607.7,495,608.1,495.5,608.1z"/>
						<path class="st10" d="M503.2,598.5c0.9-0.2,1.5-1.1,1.3-2.1s-1.1-1.5-2.1-1.3c-0.9,0.2-1.5,1.1-1.3,2.1
							S502.3,598.7,503.2,598.5z"/>
						<path class="st10" d="M496.9,602.7c0.4,0.2,0.9,0,1.1-0.4l0.7-1.5l0.9-0.3l-0.8,2.9c-0.1,0.4,0,0.8,0.3,1l2.8,2.3l0.8,3
							c0.1,0.5,0.5,0.8,1,0.8c0.1,0,0.2,0,0.2,0c0.5-0.1,0.9-0.7,0.7-1.2l-0.8-3.4c0-0.2-0.2-0.4-0.3-0.5l-1.8-1.4l0.9-2.5l0.9,1.1
							c0.2,0.2,0.4,0.3,0.6,0.3c0.1,0,0.3,0,0.4-0.1l1.7-1c0.4-0.2,0.5-0.8,0.3-1.1c-0.2-0.4-0.8-0.5-1.1-0.3l-1.1,0.6l-0.9-1
							c-0.2-0.3-0.5-0.5-0.9-0.6l-1.5-0.5c-0.4-0.2-0.9-0.2-1.4,0l-1.9,0.6c-0.2,0.1-0.4,0.2-0.5,0.5l-0.8,1.8
							C496.3,602.1,496.4,602.5,496.9,602.7z"/>
					</g>
				</g>
			</g>
		</g>
	</g>
	<g>
		<circle class="st30" cx="592" cy="281.1" r="15"/>
		<g>
			<g>
				<path class="st10" d="M600.5,271.9l-5.2-1.8c-0.3-0.1-0.6,0.1-0.6,0.5v1.4h-5.1c-0.2,0-0.4,0.2-0.4,0.4v1.6
					c0.3,0,0.6,0.1,0.8,0.2v-1.4h4.6v15.9h-3.1v0.2c0,0.2,0.1,0.4,0,0.6h3v1.4c0,0.3,0.3,0.6,0.6,0.5l5.2-1.8
					c0.2-0.1,0.3-0.2,0.3-0.5v-16.8C600.8,272.2,600.7,272,600.5,271.9z"/>
				<g>
					<g>
						<path class="st10" d="M581.5,288h3.3c0.4,0,0.8-0.3,1-0.7l0.4-1.3l-1.6-1.3l0,0l-0.4,1.4h-2.6c-0.5,0-1,0.4-1,1
							C580.5,287.6,581,288,581.5,288z"/>
						<path class="st10" d="M589.2,278.4c0.9-0.2,1.5-1.1,1.3-2.1c-0.2-0.9-1.1-1.5-2.1-1.3s-1.5,1.1-1.3,2.1
							C587.3,278,588.2,278.6,589.2,278.4z"/>
						<path class="st10" d="M582.8,282.6c0.4,0.2,0.9,0,1.1-0.4l0.7-1.5l0.9-0.3l-0.8,2.9c-0.1,0.4,0,0.8,0.3,1l2.8,2.3l0.8,3
							c0.1,0.5,0.5,0.8,1,0.8c0.1,0,0.2,0,0.2,0c0.5-0.1,0.9-0.7,0.7-1.2l-0.8-3.4c0-0.2-0.2-0.4-0.3-0.5l-1.8-1.4l0.9-2.5l0.9,1.1
							c0.2,0.2,0.4,0.3,0.6,0.3c0.1,0,0.3,0,0.4-0.1l1.7-1c0.4-0.2,0.5-0.8,0.3-1.1c-0.2-0.4-0.8-0.5-1.1-0.3l-1.1,0.6l-0.9-1
							c-0.2-0.3-0.5-0.5-0.9-0.6l-1.5-0.5c-0.4-0.2-0.9-0.2-1.4,0l-1.9,0.6c-0.2,0.1-0.4,0.2-0.5,0.5l-0.8,1.8
							C582.2,281.9,582.4,282.4,582.8,282.6z"/>
					</g>
				</g>
			</g>
		</g>
	</g>
</g>
</svg>
