<?xml version="1.0" encoding="utf-8"?>
<!-- Generator: Adobe Illustrator 28.3.0, SVG Export Plug-In . SVG Version: 6.00 Build 0)  -->
<svg version="1.1" id="Layer_1" xmlns="http://www.w3.org/2000/svg" xmlns:xlink="http://www.w3.org/1999/xlink" x="0px" y="0px"
	 viewBox="0 0 684.2 906.7" style="enable-background:new 0 0 684.2 906.7;" xml:space="preserve">
<style type="text/css">
	.st0{fill:none;}
	.st1{fill:none;stroke:#231F20;stroke-width:0.3;stroke-linejoin:round;}
	.st2{opacity:0.45;fill:url(#SVGID_1_);stroke:#424343;stroke-miterlimit:10;enable-background:new    ;}
	.st3{opacity:0.89;fill:none;stroke:#010101;stroke-width:3;stroke-miterlimit:10;enable-background:new    ;}
	.st4{fill:#B8D2C7;stroke:#231F20;stroke-width:2;stroke-linecap:round;stroke-linejoin:round;}
	.st5{fill:#B8C9FF;stroke:#010101;stroke-width:2;stroke-miterlimit:10;}
	.st6{fill:#B8D2C7;stroke:#010101;stroke-width:2;stroke-miterlimit:10;}
	.st7{fill:#B8D2C7;stroke:#231F20;stroke-width:2;stroke-miterlimit:10;}
	.st8{fill:#0073A0;}
	.st9{fill:#FFFFFF;}
	.st10{opacity:0.4;fill:#1A4363;enable-background:new    ;}
	.st11{fill:#231F20;stroke:#FFFFFF;stroke-width:0.25;stroke-miterlimit:10;}
	.st12{fill:none;stroke:#010101;stroke-width:4;stroke-miterlimit:10;}
	.st13{fill:#231F20;}
	.st14{fill:#A1BB7E;stroke:#A1BB7E;stroke-width:7;stroke-miterlimit:10;}
	.st15{fill:#A1BB7E;}
	.st16{font-family:'ArialMT';}
	.st17{font-size:22px;}
	.st18{font-size:20px;}
	.st19{font-size:18px;}
	.st20{font-size:16px;}
	.st21{fill:#5197BC;}
	.st22{font-family:'Arial-BoldMT';}
	.st23{font-size:28.7148px;}
	.st24{fill:#2E368F;}
	.st25{font-family:'Arial-ItalicMT';}
	.st26{font-size:14px;}
	.st27{fill:none;stroke:#2E368F;stroke-miterlimit:10;}
	.st28{fill:none;stroke:#231F20;stroke-width:4;stroke-linecap:round;stroke-linejoin:round;}
	.st29{fill:#FFFFFF;stroke:#231F20;stroke-width:4;stroke-linecap:round;stroke-linejoin:round;}
	.st30{fill:none;stroke:#FFFFFF;stroke-width:8;stroke-miterlimit:10;}
	.st31{fill:none;stroke:#FFFFFF;stroke-width:7;stroke-miterlimit:10;}
	.st32{font-size:15px;}
	.st33{font-size:12px;}
	.st34{fill:#C40000;}
	.st35{opacity:0.5;fill:#E5A823;enable-background:new    ;}
	.st36{fill:#0056A1;}
	.st37{fill:#F2F2F2;}
	.st38{fill:#0058A1;}
	.st39{font-size:72px;}
	.st40{font-size:11px;}
</style>
<pattern  y="906.7" width="72" height="72" patternUnits="userSpaceOnUse" id="SVGID_0000002040026870161672508" viewBox="79.6 -151.6 72 72" style="overflow:visible;">
	<g>
		<rect x="79.6" y="-151.6" class="st0" width="72" height="72"/>
		<g>
			<rect x="79.6" y="-151.6" class="st0" width="72" height="72"/>
			<g>
				<rect x="79.6" y="-151.6" class="st0" width="72" height="72"/>
				<g>
					<rect x="79.6" y="-151.6" class="st0" width="72" height="72"/>
					<g>
						<rect x="79.6" y="-151.6" class="st0" width="72" height="72"/>
						<g>
							<rect x="79.6" y="-151.6" class="st0" width="72" height="72"/>
							<g>
								<line class="st1" x1="144.1" y1="-162.1" x2="162.1" y2="-144.1"/>
								<line class="st1" x1="144.1" y1="-168.1" x2="168.1" y2="-144.1"/>
								<line class="st1" x1="144.1" y1="-174.1" x2="174.1" y2="-144.1"/>
								<line class="st1" x1="144.1" y1="-180.1" x2="180.1" y2="-144.1"/>
								<line class="st1" x1="144.1" y1="-186.1" x2="186.1" y2="-144.1"/>
								<line class="st1" x1="144.1" y1="-192.1" x2="192.1" y2="-144.1"/>
								<line class="st1" x1="144.1" y1="-198.1" x2="198.1" y2="-144.1"/>
								<line class="st1" x1="144.1" y1="-204.1" x2="204.1" y2="-144.1"/>
								<line class="st1" x1="144.1" y1="-210.1" x2="210.1" y2="-144.1"/>
								<line class="st1" x1="144.1" y1="-216.1" x2="216.1" y2="-144.1"/>
								<line class="st1" x1="144.1" y1="-222.1" x2="222.1" y2="-144.1"/>
								<line class="st1" x1="144.1" y1="-228.1" x2="228.1" y2="-144.1"/>
								<line class="st1" x1="150.1" y1="-228.1" x2="228.1" y2="-150.1"/>
							</g>
							<g>
								<line class="st1" x1="72.1" y1="-162.1" x2="90.1" y2="-144.1"/>
								<line class="st1" x1="72.1" y1="-168.1" x2="96.1" y2="-144.1"/>
								<line class="st1" x1="72.1" y1="-174.1" x2="102.1" y2="-144.1"/>
								<line class="st1" x1="72.1" y1="-180.1" x2="108.1" y2="-144.1"/>
								<line class="st1" x1="72.1" y1="-186.1" x2="114.1" y2="-144.1"/>
								<line class="st1" x1="72.1" y1="-192.1" x2="120.1" y2="-144.1"/>
								<line class="st1" x1="72.1" y1="-198.1" x2="126.1" y2="-144.1"/>
								<line class="st1" x1="72.1" y1="-204.1" x2="132.1" y2="-144.1"/>
								<line class="st1" x1="72.1" y1="-210.1" x2="138.1" y2="-144.1"/>
								<line class="st1" x1="72.1" y1="-216.1" x2="144.1" y2="-144.1"/>
								<line class="st1" x1="72.1" y1="-222.1" x2="150.1" y2="-144.1"/>
								<line class="st1" x1="72.1" y1="-228.1" x2="156.1" y2="-144.1"/>
								<line class="st1" x1="78.1" y1="-228.1" x2="156.1" y2="-150.1"/>
							</g>
							<g>
								<line class="st1" x1="0.1" y1="-228.1" x2="84.1" y2="-144.1"/>
								<line class="st1" x1="6.1" y1="-228.1" x2="84.1" y2="-150.1"/>
							</g>
							<g>
								<line class="st1" x1="144.1" y1="-90.1" x2="162.1" y2="-72.1"/>
								<line class="st1" x1="144.1" y1="-96.1" x2="168.1" y2="-72.1"/>
								<line class="st1" x1="144.1" y1="-102.1" x2="174.1" y2="-72.1"/>
								<line class="st1" x1="144.1" y1="-108.1" x2="180.1" y2="-72.1"/>
								<line class="st1" x1="144.1" y1="-114.1" x2="186.1" y2="-72.1"/>
								<line class="st1" x1="144.1" y1="-120.1" x2="192.1" y2="-72.1"/>
								<line class="st1" x1="144.1" y1="-126.1" x2="198.1" y2="-72.1"/>
								<line class="st1" x1="144.1" y1="-132.1" x2="204.1" y2="-72.1"/>
								<line class="st1" x1="144.1" y1="-138.1" x2="210.1" y2="-72.1"/>
								<line class="st1" x1="144.1" y1="-144.1" x2="216.1" y2="-72.1"/>
								<line class="st1" x1="144.1" y1="-150.1" x2="222.1" y2="-72.1"/>
								<line class="st1" x1="144.1" y1="-156.1" x2="228.1" y2="-72.1"/>
								<line class="st1" x1="150.1" y1="-156.1" x2="228.1" y2="-78.1"/>
							</g>
							<g>
								<line class="st1" x1="72.1" y1="-90.1" x2="90.1" y2="-72.1"/>
								<line class="st1" x1="72.1" y1="-96.1" x2="96.1" y2="-72.1"/>
								<line class="st1" x1="72.1" y1="-102.1" x2="102.1" y2="-72.1"/>
								<line class="st1" x1="72.1" y1="-108.1" x2="108.1" y2="-72.1"/>
								<line class="st1" x1="72.1" y1="-114.1" x2="114.1" y2="-72.1"/>
								<line class="st1" x1="72.1" y1="-120.1" x2="120.1" y2="-72.1"/>
								<line class="st1" x1="72.1" y1="-126.1" x2="126.1" y2="-72.1"/>
								<line class="st1" x1="72.1" y1="-132.1" x2="132.1" y2="-72.1"/>
								<line class="st1" x1="72.1" y1="-138.1" x2="138.1" y2="-72.1"/>
								<line class="st1" x1="72.1" y1="-144.1" x2="144.1" y2="-72.1"/>
								<line class="st1" x1="72.1" y1="-150.1" x2="150.1" y2="-72.1"/>
								<line class="st1" x1="72.1" y1="-156.1" x2="156.1" y2="-72.1"/>
								<line class="st1" x1="78.1" y1="-156.1" x2="156.1" y2="-78.1"/>
								<line class="st1" x1="84.1" y1="-156.1" x2="156.1" y2="-84.1"/>
								<line class="st1" x1="90.1" y1="-156.1" x2="156.1" y2="-90.1"/>
								<line class="st1" x1="96.1" y1="-156.1" x2="156.1" y2="-96.1"/>
								<line class="st1" x1="102.1" y1="-156.1" x2="156.1" y2="-102.1"/>
								<line class="st1" x1="108.1" y1="-156.1" x2="156.1" y2="-108.1"/>
								<line class="st1" x1="114.1" y1="-156.1" x2="156.1" y2="-114.1"/>
								<line class="st1" x1="120.1" y1="-156.1" x2="156.1" y2="-120.1"/>
								<line class="st1" x1="126.1" y1="-156.1" x2="156.1" y2="-126.1"/>
								<line class="st1" x1="132.1" y1="-156.1" x2="156.1" y2="-132.1"/>
								<line class="st1" x1="138.1" y1="-156.1" x2="156.1" y2="-138.1"/>
								<line class="st1" x1="144.1" y1="-156.1" x2="156.1" y2="-144.1"/>
							</g>
							<g>
								<line class="st1" x1="0.1" y1="-156.1" x2="84.1" y2="-72.1"/>
								<line class="st1" x1="6.1" y1="-156.1" x2="84.1" y2="-78.1"/>
								<line class="st1" x1="12.1" y1="-156.1" x2="84.1" y2="-84.1"/>
								<line class="st1" x1="18.1" y1="-156.1" x2="84.1" y2="-90.1"/>
								<line class="st1" x1="24.1" y1="-156.1" x2="84.1" y2="-96.1"/>
								<line class="st1" x1="30.1" y1="-156.1" x2="84.1" y2="-102.1"/>
								<line class="st1" x1="36.1" y1="-156.1" x2="84.1" y2="-108.1"/>
								<line class="st1" x1="42.1" y1="-156.1" x2="84.1" y2="-114.1"/>
								<line class="st1" x1="48.1" y1="-156.1" x2="84.1" y2="-120.1"/>
								<line class="st1" x1="54.1" y1="-156.1" x2="84.1" y2="-126.1"/>
								<line class="st1" x1="60.1" y1="-156.1" x2="84.1" y2="-132.1"/>
								<line class="st1" x1="66.1" y1="-156.1" x2="84.1" y2="-138.1"/>
								<line class="st1" x1="72.1" y1="-156.1" x2="84.1" y2="-144.1"/>
							</g>
							<g>
								<line class="st1" x1="144.1" y1="-84.1" x2="228.1" y2="-0.1"/>
								<line class="st1" x1="150.1" y1="-84.1" x2="228.1" y2="-6.1"/>
							</g>
							<g>
								<line class="st1" x1="72.1" y1="-84.1" x2="156.1" y2="-0.1"/>
								<line class="st1" x1="78.1" y1="-84.1" x2="156.1" y2="-6.1"/>
								<line class="st1" x1="84.1" y1="-84.1" x2="156.1" y2="-12.1"/>
								<line class="st1" x1="90.1" y1="-84.1" x2="156.1" y2="-18.1"/>
								<line class="st1" x1="96.1" y1="-84.1" x2="156.1" y2="-24.1"/>
								<line class="st1" x1="102.1" y1="-84.1" x2="156.1" y2="-30.1"/>
								<line class="st1" x1="108.1" y1="-84.1" x2="156.1" y2="-36.1"/>
								<line class="st1" x1="114.1" y1="-84.1" x2="156.1" y2="-42.1"/>
								<line class="st1" x1="120.1" y1="-84.1" x2="156.1" y2="-48.1"/>
								<line class="st1" x1="126.1" y1="-84.1" x2="156.1" y2="-54.1"/>
								<line class="st1" x1="132.1" y1="-84.1" x2="156.1" y2="-60.1"/>
								<line class="st1" x1="138.1" y1="-84.1" x2="156.1" y2="-66.1"/>
								<line class="st1" x1="144.1" y1="-84.1" x2="156.1" y2="-72.1"/>
							</g>
							<g>
								<line class="st1" x1="0.1" y1="-84.1" x2="84.1" y2="-0.1"/>
								<line class="st1" x1="6.1" y1="-84.1" x2="84.1" y2="-6.1"/>
								<line class="st1" x1="12.1" y1="-84.1" x2="84.1" y2="-12.1"/>
								<line class="st1" x1="18.1" y1="-84.1" x2="84.1" y2="-18.1"/>
								<line class="st1" x1="24.1" y1="-84.1" x2="84.1" y2="-24.1"/>
								<line class="st1" x1="30.1" y1="-84.1" x2="84.1" y2="-30.1"/>
								<line class="st1" x1="36.1" y1="-84.1" x2="84.1" y2="-36.1"/>
								<line class="st1" x1="42.1" y1="-84.1" x2="84.1" y2="-42.1"/>
								<line class="st1" x1="48.1" y1="-84.1" x2="84.1" y2="-48.1"/>
								<line class="st1" x1="54.1" y1="-84.1" x2="84.1" y2="-54.1"/>
								<line class="st1" x1="60.1" y1="-84.1" x2="84.1" y2="-60.1"/>
								<line class="st1" x1="66.1" y1="-84.1" x2="84.1" y2="-66.1"/>
								<line class="st1" x1="72.1" y1="-84.1" x2="84.1" y2="-72.1"/>
							</g>
						</g>
					</g>
				</g>
			</g>
		</g>
	</g>
</pattern>
<g id="Spaces">
	<g id="employee_areas">
		<pattern  id="SVGID_1_" xlink:href="#SVGID_0000002040026870161672508" patternTransform="matrix(1 0 0 -1 -618 -53022.9062)">
		</pattern>
		<polyline class="st2" points="35.7,536.1 3.1,604 118.2,658.5 119.1,823.1 194.1,859.4 195.8,733.7 286,733.4 285.3,618 
			278.8,618.2 221.6,617.7 221.8,443.5 167.9,443.7 167.6,538.1 35.7,536.1 		"/>
	</g>
	<line class="st3" x1="286.6" y1="215.4" x2="286.6" y2="294.5"/>
	<path id="cafe_00000052796716991338462910000004400667937314557858_" class="st4" d="M286.6,218.6l-167.5-0.2v-84h168L286.6,218.6z
		"/>
	<path id="_x31_25" class="st5" d="M285.9,733.6l-92.3,0.1l-0.1,125.7l91.6,43.2L285.9,733.6z"/>
	<polyline id="PAR" class="st6" points="166.9,539.1 166.9,443.4 166.9,445 79.6,444.9 36.2,536.1 166.1,537.1 	"/>
	<path id="DHC" class="st7" d="M523.2,691.9l-80.3,0.1l-0.2-23.1h-29.9l0.5-52l-48.6,0.1l0.1,160.9L524,721.4L523.2,691.9z"/>
	<path id="children_x27_s_room" class="st7" d="M438.8,463.3l85.6,0.4L680.8,138l-93.9-1.6l-13-16l-213.2,15.3l0.8,226.9
		 M361.3,361.3l78.9,102.8"/>
</g>
<g id="restroom">
	<g id="restroom_00000067921546007013965380000012687461363368965267_">
		<rect x="121.5" y="219.4" class="st8" width="73.1" height="74.8"/>
		<path class="st9" d="M167.5,244.9c1.2,0,2.1-0.9,2.1-2.1s-0.9-2.1-2.1-2.1s-2.1,0.9-2.1,2.1C165.3,244,166.3,244.9,167.5,244.9z"
			/>
		<path class="st9" d="M173.3,253.2l-1.8-6.2c-0.4-1.2-1.3-1.6-2.6-1.6l0,0H166l0,0c-1.3,0-2.1,0.4-2.6,1.6l-1.8,6.2
			c-0.1,0.4,0.1,0.8,0.7,0.9c0.4,0.1,0.9-0.1,1-0.5l1.6-5.4h0.4l-2.7,9.5h2.6v6.7c0,0.5,0.5,1,1,1s1-0.5,1-1v-6.7h0.5v6.7
			c0,0.5,0.5,1,1,1s1-0.5,1-1v-6.7h2.6l-2.7-9.5h0.4l1.6,5.4c0.1,0.4,0.5,0.7,1,0.5C173.1,254,173.4,253.6,173.3,253.2z"/>
		<path class="st9" d="M146.3,244.9c1.2,0,2.1-0.9,2.1-2.1s-0.9-2.1-2.1-2.1c-1.2,0-2.1,0.9-2.1,2.1
			C144,244,145.1,244.9,146.3,244.9z"/>
		<path class="st9" d="M149,245.4h-5.5c-1.3,0-2.4,1-2.4,2.4v6.6c0,0.5,0.4,0.9,0.9,0.9s0.9-0.4,0.9-0.9v-5.8h0.5v6.7v9.1
			c0,0.7,0.5,1.2,1.2,1.2s1.2-0.5,1.2-1.2v-9.1h0.5v9.1c0,0.7,0.5,1.2,1.2,1.2s1.2-0.5,1.2-1.2v-9.1v-6.7h0.5v5.8
			c0,0.5,0.4,0.9,0.9,0.9s0.9-0.4,0.9-0.9v-6.6C151.4,246.5,150.3,245.4,149,245.4z"/>
		<rect x="156.1" y="240.7" class="st9" width="2.4" height="24.7"/>
	</g>
	<g id="restroom_00000129203183757696906870000009799256100089178502_">
		<circle class="st8" cx="585.3" cy="309.9" r="10"/>
		<g id="Layer_1_00000043417269205140031930000013075138157533666726_">
			<g>
				<g>
					<g>
						<path class="st9" d="M580.7,305.9c0.5,0,1.1-0.5,1.1-1s-0.5-0.9-1.1-0.9c-0.5,0-1,0.4-1,0.9S580.1,305.9,580.7,305.9z"/>
						<path class="st9" d="M582,306.1h-2.6c-0.6,0-1.1,0.5-1.1,1.1v3.2c0,0.2,0.2,0.4,0.4,0.4c0.2,0,0.4-0.2,0.4-0.4v-2.8h0.2v3.2
							v4.3c0,0.3,0.3,0.5,0.5,0.5c0.3,0,0.5-0.3,0.5-0.5v-4.3h0.3v4.3c0,0.3,0.3,0.5,0.5,0.5c0.3,0,0.5-0.3,0.5-0.5v-4.3v-3.2h0.2
							v2.7c0,0.2,0.2,0.4,0.4,0.4c0.2,0,0.4-0.2,0.4-0.4v-3.2C583.1,306.6,582.6,306.1,582,306.1z"/>
					</g>
					<g>
						<path class="st9" d="M589.4,305.9c0.5,0,1-0.5,1-1s-0.5-1-1-1c-0.5,0.1-1.1,0.5-1.1,1S588.9,305.9,589.4,305.9z"/>
						<path class="st9" d="M592.2,309.9l-0.8-3c-0.2-0.5-0.6-0.7-1.3-0.7l0,0h-1.4l0,0c-0.6,0-1.1,0.2-1.3,0.7l-0.8,3
							c-0.1,0.2,0.1,0.4,0.3,0.5c0.2,0.1,0.4-0.1,0.5-0.2l0.7-2.6h0.2l-1.3,4.5h1.3v3.3c0,0.3,0.2,0.5,0.5,0.5s0.5-0.2,0.5-0.5v-3.3
							h0.2v3.3c0,0.3,0.2,0.5,0.5,0.5c0.3,0,0.5-0.2,0.5-0.5v-3.3h1.3l-1.3-4.6h0.2l0.7,2.6c0.1,0.2,0.3,0.3,0.5,0.2
							C592.1,310.3,592.3,310,592.2,309.9z"/>
					</g>
				</g>
				<rect x="584.7" y="303.9" class="st9" width="1.1" height="11.8"/>
			</g>
		</g>
	</g>
	<g id="restroom_00000093154083196299017300000003324237930340482739_">
		<rect x="443.8" y="616.3" class="st8" width="78.3" height="74.5"/>
		<g>
			<g>
				<g>
					<path class="st9" d="M472.3,645.4c1.2,0,2.1-0.9,2.1-2c0-1.2-0.9-2-2.1-2s-2.1,0.9-2.1,2C470,644.6,471.1,645.4,472.3,645.4z"
						/>
					<path class="st9" d="M475.1,645.9h-5.6c-1.3,0-2.4,1-2.4,2.3v6.5c0,0.5,0.4,0.9,0.9,0.9s0.9-0.4,0.9-0.9V649h0.5v6.6v8.9
						c0,0.7,0.5,1.2,1.2,1.2s1.2-0.5,1.2-1.2v-8.9h0.5v8.9c0,0.7,0.5,1.2,1.2,1.2s1.2-0.5,1.2-1.2v-8.9V649h0.5v5.7
						c0,0.5,0.4,0.9,0.9,0.9s0.9-0.4,0.9-0.9v-6.5C477.5,647,476.4,645.9,475.1,645.9z"/>
				</g>
				<g>
					<path class="st9" d="M493.9,645.4c1.2,0,2.1-0.9,2.1-2c0-1.2-0.9-2-2.1-2s-2.1,0.9-2.1,2C491.7,644.6,492.7,645.4,493.9,645.4z
						"/>
					<path class="st9" d="M499.8,653.5l-1.8-6.1c-0.4-1.2-1.3-1.5-2.6-1.5l0,0h-2.9l0,0c-1.3,0-2.1,0.4-2.6,1.5l-1.8,6.1
						c-0.1,0.4,0.1,0.8,0.7,0.9c0.4,0.1,0.9-0.1,1-0.5l1.6-5.3h0.4l-2.7,9.3h2.6v6.6c0,0.5,0.5,1,1,1s1-0.5,1-1v-6.6h0.5v6.6
						c0,0.5,0.5,1,1,1s1-0.5,1-1v-6.6h2.6l-2.7-9.3h0.4l1.6,5.3c0.1,0.4,0.5,0.7,1,0.5S499.9,653.9,499.8,653.5z"/>
				</g>
			</g>
			<rect x="482.4" y="641.4" class="st9" width="2.4" height="24"/>
		</g>
	</g>
</g>
<g id="escalator_00000150794383660195744430000003786862563213663129_">
	<rect x="371.4" y="465" class="st10" width="34" height="107.7"/>
	<g>
		<g>
			<g>
				<path class="st11" d="M385.1,503.7c1.6,0,2.8-1.4,2.8-2.8c0-1.6-1.4-2.8-2.8-2.8c-1.6,0-2.8,1.4-2.8,2.8
					C382.2,502.3,383.6,503.7,385.1,503.7z"/>
				<path class="st11" d="M388.2,507.6c0-1.6-1.4-3-3-3s-3,1.4-3,3v6.8l6-6V507.6L388.2,507.6z"/>
				<path class="st11" d="M398.8,506.7h-5.3c-0.9,0-1.7,0.4-2.4,1.1l-9.3,9.3h-4.1c-1.9,0-3.4,1.6-3.4,3.4c0,1.9,1.6,3.4,3.4,3.4
					h5.6c0.9,0,1.7-0.4,2.4-1.1l9.3-9.3h3.8c1.9,0,3.4-1.6,3.4-3.4C402.1,508.2,400.7,506.7,398.8,506.7z"/>
			</g>
			<g>
				<path class="st11" d="M398.3,518.7c0.3,0,0.5,0.1,0.4,0.4l-0.9,4.9c0,0.3-0.3,0.4-0.4,0.5c-0.3,0.1-0.4,0.1-0.5,0l-0.5-0.5
					l-3.6,3.6c-0.3,0.3-0.7,0.3-0.8,0.1l-2.5-2.5c-0.1-0.1-0.1-0.5,0.1-0.8l3.6-3.6l-0.5-0.5c-0.1-0.1-0.1-0.4,0-0.5
					c0.1-0.3,0.4-0.4,0.5-0.4L398.3,518.7z"/>
			</g>
		</g>
	</g>
</g>
<g id="elevator">
	
		<rect x="444.4" y="469.4" transform="matrix(1.787202e-03 -1 1 1.787202e-03 -25.2219 930.3737)" class="st10" width="18.1" height="16.9"/>
	
		<rect x="444.3" y="494.2" transform="matrix(1.787202e-03 -1 1 1.787202e-03 -50.0705 955.1294)" class="st10" width="18.1" height="16.9"/>
	
		<rect x="444.4" y="543.4" transform="matrix(1.787202e-03 -1 1 1.787202e-03 -99.2365 1004.2416)" class="st10" width="18.1" height="16.9"/>
	
		<rect x="444.3" y="568.2" transform="matrix(1.787202e-03 -1 1 1.787202e-03 -124.123 1028.9971)" class="st10" width="18.1" height="16.9"/>
	<line class="st12" x1="464.1" y1="465.9" x2="464.1" y2="592.4"/>
	<g>
		<g>
			<path class="st13" d="M447,513.6c-0.2-0.2-0.4-0.3-0.6-0.3s-0.5,0.1-0.6,0.3c-0.5,0.5-1.4,1.4-2.7,2.7c-0.4,0.4-0.4,1,0,1.3
				c0.3,0.3,0.9,0.3,1.2,0l1.1-1.1v3.5c0,0.5,0.4,0.9,0.9,0.9h0.1c0.5,0,0.9-0.4,0.9-0.9v-3.5l1.1,1.1c0.3,0.3,0.9,0.3,1.2,0l0,0
				c0.3-0.3,0.3-0.9,0-1.2C448.3,514.9,447.6,514.2,447,513.6z"/>
			<path class="st13" d="M454.8,520.6c0.2,0.2,0.4,0.3,0.6,0.3s0.5-0.1,0.6-0.3c0.5-0.5,1.4-1.4,2.7-2.7c0.4-0.4,0.4-1,0-1.3
				c-0.3-0.3-0.9-0.3-1.2,0l-1.1,1.1v-3.5c0-0.5-0.4-0.9-0.9-0.9h-0.1c-0.5,0-0.9,0.4-0.9,0.9v3.5l-1.1-1.1c-0.3-0.3-0.9-0.3-1.2,0
				l0,0c-0.3,0.3-0.3,0.9,0,1.2C453.5,519.3,454.2,520,454.8,520.6z"/>
		</g>
		<g>
			<g>
				<path class="st13" d="M454.2,527.6c0.5,0,1-0.4,1-1c0-0.5-0.4-1-1-1c-0.5,0-1,0.4-1,1C453.3,527.1,453.7,527.6,454.2,527.6z"/>
				<path class="st13" d="M455.5,527.7h-2.4c-0.6,0-1,0.5-1,1v3c0,0.2,0.2,0.4,0.4,0.4c0.2,0,0.4-0.2,0.4-0.4v-2.6h0.2v3v4.1
					c0,0.3,0.2,0.6,0.6,0.6c0.3,0,0.6-0.2,0.6-0.6v-4.1h0.2v4.1c0,0.3,0.2,0.6,0.6,0.6c0.3,0,0.6-0.2,0.6-0.6v-4.1v-3h0.2v2.6
					c0,0.2,0.2,0.4,0.4,0.4c0.2,0,0.4-0.2,0.4-0.4v-3C456.5,528.2,456,527.7,455.5,527.7z"/>
			</g>
			<path class="st13" d="M448,527.6c0.5,0,1-0.4,1-1c0-0.5-0.4-1-1-1c-0.5,0-1,0.4-1,1C447,527.1,447.4,527.6,448,527.6z"/>
			<path class="st13" d="M450.6,531.3l-0.8-2.8c-0.2-0.5-0.6-0.7-1.2-0.7l0,0h-1.3l0,0c-0.6,0-1,0.2-1.2,0.7l-0.8,2.8
				c-0.1,0.2,0.1,0.4,0.3,0.4c0.2,0.1,0.4,0,0.5-0.2l0.7-2.5h0.2l-1.2,4.3h1.2v3c0,0.3,0.2,0.5,0.5,0.5s0.5-0.2,0.5-0.5v-3h0.2v3
				c0,0.3,0.2,0.5,0.5,0.5s0.5-0.2,0.5-0.5v-3h1.2l-1.2-4.3h0.2l0.7,2.5c0.1,0.2,0.3,0.3,0.5,0.2
				C450.5,531.6,450.6,531.4,450.6,531.3z"/>
		</g>
		<g>
			<path class="st13" d="M457.1,540.2h-12.4c-2.5,0-4.6-2.6-4.6-5.7V528c0-3.2,2.1-5.7,4.6-5.7H457c2.5,0,4.6,2.6,4.6,5.7v6.5
				C461.6,537.6,459.6,540.2,457.1,540.2z M444.7,524.3c-1.6,0-2.9,1.6-2.9,3.6v6.5c0,2,1.3,3.6,2.9,3.6H457c1.6,0,2.9-1.6,2.9-3.6
				v-6.5c0-2-1.3-3.6-2.9-3.6H444.7z"/>
		</g>
	</g>
</g>
<g id="stairs_00000032626799022009418030000006004862700355200132_">
	<g>
		<path class="st13" d="M473.3,565.5c1,0,1.9-0.8,1.9-1.9c0-1-0.8-1.9-1.9-1.9c-1,0-1.9,0.8-1.9,1.9
			C471.5,564.7,472.3,565.5,473.3,565.5z"/>
		<path class="st13" d="M469.9,571.4c0.6,0,1.1-0.4,1.1-1v-1.2l0.6-0.4v3v0.6l-1.8,6.9c-0.2,0.5,0.2,1.1,0.7,1.2
			c0.6,0.2,1.2-0.1,1.4-0.7l1.6-6.4h1.6v2.1c0,0.6,0.5,1,1.1,1s1.1-0.4,1.1-1v-3.1c0-0.6-0.5-1-1.1-1l0,0l0,0h-2.4v-1.9l0.6,0.6
			c0.2,0.2,0.5,0.4,0.9,0.4l0,0h2c0.6,0,1.1-0.4,1.1-1s-0.5-1-1.1-1h-1.6l-2-2.2l-0.1-0.1c-0.1-0.1-0.2-0.3-0.4-0.4l0,0h-0.1l0,0
			H473l0,0c0,0,0,0-0.1,0l0,0c0,0,0,0-0.1,0l0,0c0,0,0,0-0.1,0l0,0l0,0l0,0c0,0,0,0-0.1,0c0,0,0,0-0.1,0l0,0c0,0,0,0-0.1,0l0,0
			c0,0,0,0-0.1,0l0,0c0,0,0,0-0.1,0l0,0c0,0,0,0-0.1,0l0,0c0,0,0,0-0.1,0l0,0l-2.8,2c-0.3,0.2-0.4,0.5-0.4,0.8l0,0v1.7
			C468.8,571,469.2,571.4,469.9,571.4z"/>
		<path class="st13" d="M490.4,568h-5.1c-0.2,0-0.3,0.2-0.4,0.4v4.7h-4.7c-0.2,0-0.3,0.2-0.4,0.4v5h-4.9c-0.2,0-0.3,0.2-0.4,0.4v4.6
			h-4.7c-0.2,0-0.3,0.2-0.4,0.4v4.4c0,0.2,0.2,0.3,0.4,0.4h20.5c0.2,0,0.3-0.2,0.4-0.4l-0.1-19.8C490.7,568.2,490.6,568.1,490.4,568
			z"/>
	</g>
</g>
<g id="circ">
	<path class="st14" d="M257.5,459.9l-16.2-2.4l1.1-7.2l16.2,2.4L257.5,459.9z M258.6,452.7L243.1,557l8.6,1.3L267.2,454L258.6,452.7
		z M272.5,561.3l-29.4-4.4l-1.1,7.2l29.4,4.4L272.5,561.3z M263.9,560l-6.4,42.7l8.6,1.3l6.4-42.7L263.9,560z"/>
</g>
<path id="wepa" class="st15" d="M252.5,399.4c5.8-11,18.4-15.2,29.4-9.5c11,5.8,15.2,19.3,9.5,30.3c-5.8,11-18.4,15.2-29.4,9.5
	C250.9,424,246.7,410.4,252.5,399.4z"/>
<g id="printers">
	<g>
		<path d="M269.1,414.4h2.2h3.2c0.3,0,0.5-0.3,0.5-0.5s-0.3-0.5-0.5-0.5h-5.3c-0.3,0-0.5,0.3-0.5,0.5
			C268.6,414.1,268.7,414.4,269.1,414.4z"/>
		<path d="M274.5,415.7h-5.3c-0.3,0-0.5,0.3-0.5,0.5c0,0.3,0.3,0.5,0.5,0.5h5.2c0.3,0,0.5-0.3,0.5-0.5
			C275.1,416,274.9,415.7,274.5,415.7z"/>
	</g>
	<path d="M279.1,404.9H278v-4c0-0.3-0.3-0.5-0.5-0.5h-11.2c-0.3,0-0.5,0.3-0.5,0.5v4h-1.1c-1,0-1.8,0.9-1.8,1.8v6.4
		c0,1,0.9,1.8,1.8,1.8h1.1v4c0,0.3,0.2,0.5,0.5,0.5h11.2c0.3,0,0.5-0.3,0.5-0.5V415h1.1c1,0,1.8-0.9,1.8-1.8v-6.4
		C280.9,405.7,280.1,404.9,279.1,404.9z M264.7,407.6c-0.4,0-0.6-0.3-0.6-0.6c0-0.4,0.3-0.6,0.6-0.6c0.3,0,0.6,0.3,0.6,0.6
		C265.3,407.2,265,407.6,264.7,407.6z M266.8,401.5h10v3.3h-10V401.5z M266,406.9c0-0.4,0.3-0.6,0.6-0.6s0.6,0.3,0.6,0.6
		c0,0.4-0.3,0.6-0.6,0.6S266,407.2,266,406.9z M276.9,414.9v3.3h-10v-6.6h10V414.9L276.9,414.9z"/>
</g>
<g id="coffee">
	<path d="M146.1,171c0.4-0.3,0.8-0.2,1.2-0.2c1.8,0,3.7,0,5.6,0c4.2,0,8.2,0,12.4,0c0.5,0,1-0.1,1.4,0.2c0.3,0.4,0,0.9,0.1,1.3
		c0.2,0.3,0.7,0.2,1,0.3c1.7,0.3,3.1,1.7,3.2,3.5c0.1,1.3-0.4,2.5-1.3,3.4c-0.9,0.9-2.1,1.3-3.3,1.7c-1,0.2-2,0.2-3,0.2
		c-0.6,0-1,0.1-1.4,0.5c-0.7,0.7-1.5,1-2.5,1c-1.9-0.1-3.9-0.1-5.8,0c-1.1,0-1.8-0.3-2.6-1.1c-1.6-1.6-2.7-3.4-3.6-5.4
		c-0.6-1.4-1-2.9-1.2-4.4C146,171.5,146.1,171.3,146.1,171z M164.3,178.9c1.4,0.2,3-0.3,3.9-1.2c0.1-0.1,0.2-0.2,0.3-0.3
		c0.8-1.2,0.3-2.5-1-2.8c-0.4-0.1-0.8-0.2-1.2,0.1c-0.2,0.7-0.5,1.4-0.8,2.1C165.1,177.5,164.7,178.3,164.3,178.9z"/>
	<path d="M148,184.1c0.3-0.1,0.5-0.1,0.7-0.1c5.3,0,10.7,0,16.1,0c0.1,0,0.2,0.1,0.2,0.1l0.1,0.1c-0.2,0.6-0.8,1.8-1.2,2.1
		c-0.2,0.2-0.4,0.2-0.7,0.2c-0.3,0.1-0.7,0-1,0c-3.7,0-7.5,0-11.2,0c-0.2,0-0.6,0-0.8,0c-0.5,0-0.8-0.2-1.1-0.7
		C148.6,185.4,148.2,184.9,148,184.1z"/>
	<path d="M158.7,168.4c0.3-1.3-0.2-2.5-0.7-3.7c-0.9-1.7-0.6-3.8,0.7-5.3c0.1-0.2,0.2-0.2,0.6-0.5c-0.5,1.5,0,2.6,0.6,3.7
		c0.7,1.3,0.8,2.7,0.2,4.1C159.8,167.3,159.4,168,158.7,168.4L158.7,168.4z"/>
	<path d="M153.8,168.4c0.3-1,0.2-2-0.3-2.9c-0.2-0.2-0.3-0.6-0.4-0.8c-0.9-1.9-0.5-4.1,1.2-5.5c0,0.1,0.1,0.2,0.1,0.3
		c-0.2,0.8,0,1.6,0.3,2.3c0.2,0.3,0.3,0.7,0.6,1.1c0.8,1.7,0.6,3.9-0.8,5.3C154.2,168.2,154,168.2,153.8,168.4L153.8,168.4z"/>
	<path d="M158.7,168.4L158.7,168.4L158.7,168.4z"/>
	<polygon points="153.8,168.3 153.8,168.4 153.8,168.4 	"/>
</g>
<g id="Text">
	<text transform="matrix(1 0 0 1 416.013 311.4999)" class="st16 st17">Children’s</text>
	<text transform="matrix(1 0 0 1 435.613 337.9)" class="st16 st17">Room</text>
	<text transform="matrix(1 0 0 1 181.319 173.9156)" class="st16 st18">Nirvana</text>
	<text transform="matrix(1 0 0 1 181.319 192.9156)" class="st16 st18">Soul</text>
	<text transform="matrix(1 0 0 1 84.3584 503.8898)" class="st16 st18">Partners</text>
	<text transform="matrix(1 0 0 1 64.3195 525.4898)" class="st16 st18">in Reading</text>
	<text transform="matrix(1 0 0 1 372.1751 704.3572)" class="st16 st19">Digital</text>
	<text transform="matrix(1 0 0 1 372.1751 722.4578)" class="st16 st19">Humanities</text>
	<text transform="matrix(1 0 0 1 372.1751 740.5573)" class="st16 st19">Center</text>
	<text transform="matrix(1 0 0 1 217.2245 803.3502)" class="st16 st19">Room</text>
	<text transform="matrix(1 0 0 1 226.2245 824.9502)" class="st16 st19">125</text>
	<text transform="matrix(1 0 0 1 372.1754 681.786)" class="st16 st20">113</text>
</g>
<g id="North_00000164482264290555914440000013737384098679011727_">
	<polygon class="st21" points="654.8,25.3 626.5,20.4 649.9,53.6 	"/>
	<text transform="matrix(0.6 0.8 -0.8 0.6 652.0501 14.7806)" class="st21 st22 st23">N</text>
	<text transform="matrix(0.8983 0.4394 -0.4394 0.8983 544.4727 22.8462)" class="st24 st25 st26">San Fernando Street</text>
	<line class="st27" x1="533.1" y1="20.9" x2="671.5" y2="88.6"/>
	<line class="st27" x1="539.5" y1="6.6" x2="677.9" y2="74.4"/>
	<text transform="matrix(0.4394 -0.8983 0.8983 0.4394 21.8455 243.3615)" class="st24 st25 st26">Fourth Street</text>
	<line class="st27" x1="14.3" y1="265.5" x2="71.8" y2="148"/>
	<line class="st27" x1="1.1" y1="259" x2="58.6" y2="141.5"/>
</g>
<g id="floor_outline">
	<line class="st28" x1="681.1" y1="137.8" x2="524.8" y2="462.7"/>
	<line class="st28" x1="3.1" y1="603.6" x2="119.6" y2="361.3"/>
	<line class="st28" x1="118.2" y1="658.7" x2="2.9" y2="603.9"/>
	<line class="st28" x1="118.9" y1="823.5" x2="285.5" y2="903.7"/>
	<line class="st28" x1="325.3" y1="3" x2="263.1" y2="133.7"/>
	<line class="st28" x1="468" y1="71.6" x2="325.3" y2="3"/>
	<line class="st28" x1="119.5" y1="134.6" x2="263.1" y2="133.7"/>
	<line class="st28" x1="525.4" y1="40.1" x2="469.8" y2="71.8"/>
	<line class="st28" x1="525.4" y1="123.2" x2="525.4" y2="40.1"/>
	<line class="st28" x1="525.4" y1="123.2" x2="573.4" y2="119.9"/>
	<line class="st28" x1="586.2" y1="135.7" x2="573.4" y2="119.9"/>
	<line class="st28" x1="681.1" y1="137.5" x2="587.2" y2="136.7"/>
	<line class="st28" x1="119.3" y1="134.8" x2="119.9" y2="360.8"/>
	<line class="st28" x1="464.1" y1="462.7" x2="524" y2="462.7"/>
	<line class="st28" x1="464" y1="555.1" x2="464.1" y2="463"/>
	<line class="st28" x1="464" y1="555.8" x2="524.1" y2="555.8"/>
	<line class="st28" x1="524.1" y1="721.6" x2="524.1" y2="555.8"/>
	<line class="st28" x1="286.2" y1="828.7" x2="285.5" y2="903.7"/>
	<line class="st28" x1="118.9" y1="823.5" x2="118.2" y2="658.7"/>
	<line class="st28" x1="316.4" y1="828.1" x2="286.2" y2="827.7"/>
	<line class="st28" x1="523.2" y1="721.7" x2="364.5" y2="778.9"/>
	<line class="st28" x1="364.4" y1="779.1" x2="316.7" y2="827.6"/>
	<path class="st29" d="M265.9,126"/>
</g>
<g id="Doors">
	<line class="st30" x1="525.7" y1="75.7" x2="525.7" y2="101.5"/>
	<line class="st30" x1="309.7" y1="35.2" x2="296" y2="64.5"/>
	<line class="st30" x1="362.3" y1="20.4" x2="389.2" y2="33.2"/>
	<line class="st31" x1="287.1" y1="748.2" x2="287.2" y2="776.5"/>
	<line class="st30" x1="507.9" y1="728.2" x2="483" y2="736.9"/>
	<line class="st30" x1="383.6" y1="393.2" x2="399.1" y2="413.4"/>
	<line class="st30" x1="289.1" y1="173.6" x2="289" y2="199.1"/>
	<line class="st30" x1="135.5" y1="443" x2="109.9" y2="443"/>
	<line class="st30" x1="352.5" y1="791.6" x2="327.2" y2="817.4"/>
	<line class="st30" x1="224.9" y1="133.5" x2="199.3" y2="133.6"/>
	<line class="st31" x1="363.5" y1="741.6" x2="363.6" y2="769.9"/>
</g>
<g id="Entrances">
	<text transform="matrix(1 0 0 1 374.3289 851.2615)" class="st16 st32">Campus Entrance</text>
	<text transform="matrix(1 0 0 1 168.5313 16.9589)" class="st16 st33">San Fernando Entrance</text>
	<g>
		<polygon points="276,18.9 271.9,23.4 280.5,31.4 277.2,35.1 294.2,40 288.2,23.3 284.7,26.9 		"/>
	</g>
	<g>
		<polygon points="366.6,837.4 370.9,833.1 362.4,824.8 366,821.2 349,815.9 354.6,832.8 358.2,829.1 		"/>
	</g>
</g>
<g id="Emergency_exits">
	<g>
		<circle class="st34" cx="511.6" cy="605.9" r="10"/>
		<g>
			<g>
				<path class="st9" d="M517.3,599.7l-3.5-1.2c-0.2-0.1-0.4,0.1-0.4,0.3v0.9H510c-0.1,0-0.3,0.1-0.3,0.3v1.1c0.2,0,0.4,0.1,0.5,0.1
					v-0.9h3.1v10.6h-2.1v0.1c0,0.1,0.1,0.3,0,0.4h2v0.9c0,0.2,0.2,0.4,0.4,0.3l3.5-1.2c0.1-0.1,0.2-0.1,0.2-0.3V600
					C517.5,599.9,517.4,599.8,517.3,599.7z"/>
				<g>
					<g>
						<path class="st9" d="M504.6,610.5h2.2c0.3,0,0.5-0.2,0.7-0.5l0.3-0.9l-1.1-0.9l0,0l-0.3,0.9h-1.7c-0.3,0-0.7,0.3-0.7,0.7
							C503.9,610.2,504.3,610.5,504.6,610.5z"/>
						<path class="st9" d="M509.7,604.1c0.6-0.1,1-0.7,0.9-1.4c-0.1-0.6-0.7-1-1.4-0.9c-0.6,0.1-1,0.7-0.9,1.4
							C508.5,603.9,509.1,604.2,509.7,604.1z"/>
						<path class="st9" d="M505.5,606.9c0.3,0.1,0.6,0,0.7-0.3l0.5-1l0.6-0.2l-0.5,1.9c-0.1,0.3,0,0.5,0.2,0.7l1.9,1.5l0.5,2
							c0.1,0.3,0.3,0.5,0.7,0.5c0.1,0,0.1,0,0.1,0c0.3-0.1,0.6-0.5,0.5-0.8l-0.5-2.3c0-0.1-0.1-0.3-0.2-0.3l-1.2-0.9l0.6-1.7
							l0.6,0.7c0.1,0.1,0.3,0.2,0.4,0.2c0.1,0,0.2,0,0.3-0.1l1.1-0.7c0.3-0.1,0.3-0.5,0.2-0.7c-0.1-0.3-0.5-0.3-0.7-0.2l-0.7,0.4
							l-0.6-0.7c-0.1-0.2-0.3-0.3-0.6-0.4l-1-0.3c-0.3-0.1-0.6-0.1-0.9,0l-1.3,0.4c-0.1,0.1-0.3,0.1-0.3,0.3l-0.5,1.2
							C505.1,606.5,505.2,606.7,505.5,606.9z"/>
					</g>
				</g>
			</g>
		</g>
	</g>
	<g>
		<circle class="st34" cx="594" cy="291.6" r="10"/>
		<g>
			<g>
				<path class="st9" d="M599.7,285.5l-3.5-1.2c-0.2-0.1-0.4,0.1-0.4,0.3v0.9h-3.4c-0.1,0-0.3,0.1-0.3,0.3v1.1
					c0.2,0,0.4,0.1,0.5,0.1v-0.9h3.1v10.6h-2.1v0.1c0,0.1,0.1,0.3,0,0.4h2v0.9c0,0.2,0.2,0.4,0.4,0.3l3.5-1.2
					c0.1-0.1,0.2-0.1,0.2-0.3v-11.2C599.9,285.7,599.8,285.5,599.7,285.5z"/>
				<g>
					<g>
						<path class="st9" d="M587,296.2h2.2c0.3,0,0.5-0.2,0.7-0.5l0.3-0.9l-1.1-0.9l0,0l-0.3,0.9h-1.7c-0.3,0-0.7,0.3-0.7,0.7
							C586.4,295.9,586.7,296.2,587,296.2z"/>
						<path class="st9" d="M592.2,289.8c0.6-0.1,1-0.7,0.9-1.4c-0.1-0.6-0.7-1-1.4-0.9c-0.6,0.1-1,0.7-0.9,1.4
							C590.9,289.6,591.6,289.9,592.2,289.8z"/>
						<path class="st9" d="M587.9,292.6c0.3,0.1,0.6,0,0.7-0.3l0.5-1l0.6-0.2l-0.5,1.9c-0.1,0.3,0,0.5,0.2,0.7l1.9,1.5l0.5,2
							c0.1,0.3,0.3,0.5,0.7,0.5c0.1,0,0.1,0,0.1,0c0.3-0.1,0.6-0.5,0.5-0.8l-0.5-2.3c0-0.1-0.1-0.3-0.2-0.3l-1.2-0.9l0.6-1.7
							l0.6,0.7c0.1,0.1,0.3,0.2,0.4,0.2c0.1,0,0.2,0,0.3-0.1l1.1-0.7c0.3-0.1,0.3-0.5,0.2-0.7c-0.1-0.3-0.5-0.3-0.7-0.2l-0.7,0.4
							l-0.6-0.7c-0.1-0.2-0.3-0.3-0.6-0.4l-1-0.3c-0.3-0.1-0.6-0.1-0.9,0l-1.3,0.4c-0.1,0.1-0.3,0.1-0.3,0.3l-0.5,1.2
							C587.5,292.2,587.6,292.5,587.9,292.6z"/>
					</g>
				</g>
			</g>
		</g>
	</g>
</g>
<g id="brandenburg">
	<rect x="209.9" y="233.2" class="st35" width="59.6" height="110.7"/>
	<rect x="130.7" y="304.1" class="st35" width="79.2" height="39.8"/>
	<text transform="matrix(0.8604 -0.5096 0.5096 0.8604 192.9348 323.0307)" class="st16 st26">Brandenburg</text>
	<text transform="matrix(0.8604 -0.5096 0.5096 0.8604 210.6455 329.9746)" class="st16 st26">Browsing</text>
	<text transform="matrix(0.8604 -0.5096 0.5096 0.8604 216.5686 343.8999)" class="st16 st26">Collection</text>
</g>
<g id="self_check_out">
	<rect x="189.6" y="350.2" class="st15" width="38" height="35.6"/>
	<g id="checkout_00000021825673645572332570000014184296419070708901_">
		<rect x="204.3" y="363.5" width="0.6" height="9"/>
		<rect x="206.2" y="363.5" width="1" height="9"/>
		<rect x="208.6" y="363.5" width="0.4" height="9"/>
		<rect x="210.2" y="363.5" width="0.7" height="9"/>
		<rect x="212.2" y="363.5" width="0.8" height="9"/>
		<rect x="214.5" y="363.5" width="1" height="9"/>
		<rect x="201.6" y="363.5" width="1.2" height="9"/>
		<polygon points="199.5,361.6 203,361.6 203,360.7 198.6,360.7 198.6,365 199.5,365 		"/>
		<polygon points="217.7,365 218.6,365 218.6,360.7 214.2,360.7 214.2,361.6 217.7,361.6 		"/>
		<polygon points="217.7,370.9 217.7,374.3 214.2,374.3 214.2,375.2 218.6,375.2 218.6,370.9 		"/>
		<polygon points="199.5,370.9 198.6,370.9 198.6,375.2 203,375.2 203,374.3 199.5,374.3 		"/>
	</g>
</g>
<g id="hold_shelf">
	<rect x="130.7" y="350.2" class="st15" width="38" height="35.6"/>
	<text transform="matrix(1 0 0 1 131.1562 365.3102)" class="st16 st26">Holds</text>
	<text transform="matrix(1 0 0 1 133.0562 380.3102)" class="st16 st26">Shelf</text>
</g>
<g id="security_00000048486265434582297130000018089840482801634187_">
	<circle class="st36" cx="298.1" cy="248.4" r="10"/>
	<circle class="st37" cx="298.1" cy="248.4" r="8.1"/>
	<g>
		<polygon class="st38" points="298,241.7 292,252 304,252 		"/>
		<polygon class="st38" points="304,244.8 292,244.8 298,255.1 		"/>
	</g>
	<g id="security_00000108273052356465173750000007603735780726726797_">
		<circle class="st36" cx="296" cy="651.5" r="10"/>
		<circle class="st37" cx="296" cy="651.5" r="8.1"/>
		<g>
			<polygon class="st38" points="295.9,644.8 289.9,655.1 301.9,655.1 			"/>
			<polygon class="st38" points="301.9,647.9 289.9,647.9 295.9,658.2 			"/>
		</g>
	</g>
</g>
<g id="book_drop">
	<g>
		<path d="M285.3,604.8c-0.3,0-0.4,0.2-0.4,0.4v11.1h-10c-0.4,0-0.9-0.3-1-0.6h9.3c0.3,0,0.4-0.2,0.4-0.4s-0.2-0.4-0.4-0.4h-9.4
			c0.2-0.4,0.6-0.7,1-0.7h9.1c0.3,0,0.4-0.2,0.4-0.4v-10.9c0-0.3-0.2-0.4-0.4-0.4h-9.1c-1.1,0-2.1,1-2.1,2.1v10.8l0,0l0,0l0,0
			c0,1.1,1,2.1,2.1,2.1h10.5c0.3,0,0.4-0.2,0.4-0.4v-11.6C285.8,605.1,285.6,604.8,285.3,604.8z M277.1,605.2c0-0.1,0.1-0.2,0.2-0.2
			h5.1c0.1,0,0.2,0.1,0.2,0.2v1.5c0,0.1-0.1,0.2-0.2,0.2h-5.1c-0.1,0-0.2-0.1-0.2-0.2V605.2z M273.8,604.5c0-0.6,0.5-1.1,1.1-1.1v10
			c-0.4,0-0.8,0.1-1.1,0.3C273.8,613.6,273.8,604.5,273.8,604.5z"/>
		<path d="M275.3,614.2c-0.3,0-0.4-0.2-0.4-0.4v-10.8c0-0.3,0.2-0.4,0.4-0.4s0.4,0.2,0.4,0.4v10.8
			C275.7,614,275.5,614.2,275.3,614.2z"/>
	</g>
	<path class="st9" d="M280.5,610.8l-0.8,0.8v-2.5c0-0.2-0.2-0.3-0.3-0.3s-0.3,0.2-0.3,0.3v2.5l-0.8-0.8c-0.1-0.1-0.2-0.1-0.3-0.1
		c-0.1,0-0.2,0-0.3,0.1c-0.2,0.2-0.2,0.3,0,0.5l1.3,1.3c0.1,0.1,0.2,0.1,0.3,0.1s0.2,0,0.3-0.1l1.3-1.3c0.2-0.2,0.2-0.3,0-0.5
		C280.9,610.7,280.6,610.7,280.5,610.8z"/>
</g>
<rect id="_x31_5-min_computers" x="363.7" y="608.6" class="st15" width="50.6" height="7.4"/>
<g>
	<text transform="matrix(1 0 0 1 1.831055e-04 61.7693)" class="st21 st22 st39">G</text>
	<text transform="matrix(1 0 0 1 62.278 20.085)"><tspan x="0" y="0" class="st16 st40">Circulation</tspan><tspan x="0" y="13.2" class="st16 st40">Information</tspan><tspan x="0" y="26.4" class="st16 st40">Children’s Services</tspan><tspan x="0" y="39.6" class="st16 st40">Digital Humanities Center</tspan></text>
</g>
</svg>
