<?xml version="1.0" encoding="utf-8"?>
<!-- Generator: Adobe Illustrator 28.3.0, SVG Export Plug-In . SVG Version: 6.00 Build 0)  -->
<svg version="1.1" id="Layer_1" xmlns="http://www.w3.org/2000/svg" xmlns:xlink="http://www.w3.org/1999/xlink" x="0px" y="0px"
	 viewBox="0 0 684.2 970.5" style="enable-background:new 0 0 684.2 970.5;" xml:space="preserve">
<style type="text/css">
	.st0{fill:none;}
	.st1{fill:#231F20;}
	.st2{opacity:0.4;}
	
		.st3{opacity:0.45;fill:url(#SVGID_00000181054665402169628020000010039065414903409300_);stroke:#424343;stroke-miterlimit:10;enable-background:new    ;}
	.st4{opacity:0.89;fill:none;stroke:#010101;stroke-width:3;stroke-miterlimit:10;enable-background:new    ;}
	.st5{fill:#71A58E;stroke:#231F20;stroke-width:3;stroke-linecap:round;stroke-linejoin:round;}
	.st6{fill:#3F417F;stroke:#010101;stroke-width:3;stroke-miterlimit:10;}
	.st7{fill:#71A58E;stroke:#010101;stroke-width:3;stroke-miterlimit:10;}
	.st8{fill:#71A58E;stroke:#231F20;stroke-width:3;stroke-miterlimit:10;}
	.st9{fill:#0073A0;}
	.st10{fill:#FFFFFF;}
	.st11{opacity:0.4;fill:#1A4363;enable-background:new    ;}
	.st12{fill:#231F20;stroke:#FFFFFF;stroke-width:0.25;stroke-miterlimit:10;}
	.st13{fill:none;stroke:#010101;stroke-width:4;stroke-miterlimit:10;}
	.st14{fill:none;stroke:#000000;stroke-width:1;stroke-miterlimit:10;}
	.st15{opacity:0.68;}
	.st16{fill:#A1BB7E;stroke:#A1BB7E;stroke-width:7;stroke-miterlimit:10;}
	.st17{opacity:0.68;fill:#A1BB7E;enable-background:new    ;}
	.st18{font-family:'ArialMT';}
	.st19{font-size:22px;}
	.st20{font-size:20px;}
	.st21{font-size:18px;}
	.st22{font-size:16px;}
	.st23{fill:#5197BC;}
	.st24{font-family:'Arial-BoldMT';}
	.st25{font-size:28.7148px;}
	.st26{fill:#2E368F;}
	.st27{font-family:'Arial-ItalicMT';}
	.st28{font-size:14px;}
	.st29{fill:none;stroke:#2E368F;stroke-miterlimit:10;}
	.st30{fill:none;stroke:#231F20;stroke-width:6;stroke-linecap:round;stroke-linejoin:round;}
	.st31{fill:#FFFFFF;stroke:#231F20;stroke-width:6;stroke-linecap:round;stroke-linejoin:round;}
	.st32{fill:none;stroke:#FFFFFF;stroke-width:8;stroke-miterlimit:10;}
	.st33{fill:none;stroke:#FFFFFF;stroke-width:7;stroke-miterlimit:10;}
	.st34{font-size:15px;}
	.st35{fill:#C40000;}
</style>
<pattern  x="14.3" y="918.1" width="28.8" height="28.8" patternUnits="userSpaceOnUse" id="SVGID_1_" viewBox="1.4 -30.2 28.8 28.8" style="overflow:visible;">
	<g>
		<rect x="1.4" y="-30.2" class="st0" width="28.8" height="28.8"/>
		<g>
			<rect x="1.4" y="-30.2" class="st0" width="28.8" height="28.8"/>
			<g>
				<rect x="1.4" y="-30.2" class="st0" width="28.8" height="28.8"/>
				<g>
					<rect x="1.4" y="-30.2" class="st0" width="28.8" height="28.8"/>
					<g>
						<rect x="1.4" y="-30.2" class="st0" width="28.8" height="28.8"/>
						<g>
							<rect x="1.4" y="-30.2" class="st0" width="28.8" height="28.8"/>
							<g>
								<rect x="1.4" y="-30.2" class="st0" width="28.8" height="28.8"/>
								<g>
									<rect x="1.4" y="-30.2" class="st0" width="28.8" height="28.8"/>
									<g>
										<rect x="1.4" y="-30.2" class="st0" width="28.8" height="28.8"/>
										<g>
											<rect x="1.4" y="-30.2" class="st0" width="28.8" height="28.8"/>
											<g>
												<rect x="1.4" y="-30.2" class="st0" width="28.8" height="28.8"/>
												<g>
													<rect x="1.4" y="-30.2" class="st0" width="28.8" height="28.8"/>
													<g>
														<rect x="1.4" y="-30.2" class="st0" width="28.8" height="28.8"/>
														<g>
															<rect x="1.4" y="-30.2" class="st0" width="28.8" height="28.8"/>
															<g>
																<rect x="1.4" y="-30.2" class="st0" width="28.8" height="28.8"/>
																<g>
																	<rect x="1.4" y="-30.2" class="st0" width="28.8" height="28.8"/>
																	<g>
																		<rect x="1.4" y="-30.2" class="st0" width="28.8" height="28.8"/>
																		<g>
																			<rect x="1.4" y="-30.2" class="st0" width="28.8" height="28.8"/>
																			<g>
																				<rect x="1.4" y="-30.2" class="st0" width="28.8" height="28.8"/>
																				<g>
																					<rect x="1.4" y="-30.2" class="st0" width="28.8" height="28.8"/>
																					<g>
																						<path class="st1" d="M30.2-31.6c0.8,0,1.4,0.6,1.4,1.4c0,0.8-0.6,1.4-1.4,1.4s-1.4-0.6-1.4-1.4
																							C28.8-31,29.4-31.6,30.2-31.6z"/>
																						<path class="st1" d="M15.8-31.6c0.8,0,1.4,0.6,1.4,1.4c0,0.8-0.6,1.4-1.4,1.4c-0.8,0-1.4-0.6-1.4-1.4
																							C14.4-31,15-31.6,15.8-31.6z"/>
																						<path class="st1" d="M30.2-17.2c0.8,0,1.4,0.6,1.4,1.4s-0.6,1.4-1.4,1.4s-1.4-0.6-1.4-1.4
																							C28.8-16.6,29.4-17.2,30.2-17.2z"/>
																						<path class="st1" d="M15.8-17.2c0.8,0,1.4,0.6,1.4,1.4s-0.6,1.4-1.4,1.4c-0.8,0-1.4-0.6-1.4-1.4
																							C14.4-16.6,15-17.2,15.8-17.2z"/>
																						<path class="st1" d="M8.6-24.4c0.8,0,1.4,0.6,1.4,1.4c0,0.8-0.6,1.4-1.4,1.4c-0.8,0-1.4-0.6-1.4-1.4
																							C7.2-23.8,7.8-24.4,8.6-24.4z"/>
																						<path class="st1" d="M23-24.4c0.8,0,1.4,0.6,1.4,1.4c0,0.8-0.6,1.4-1.4,1.4s-1.4-0.6-1.4-1.4
																							S22.2-24.4,23-24.4z"/>
																						<path class="st1" d="M8.6-10C9.4-10,10-9.4,10-8.6S9.4-7.2,8.6-7.2c-0.8,0-1.4-0.6-1.4-1.4
																							C7.2-9.4,7.8-10,8.6-10z"/>
																						<path class="st1" d="M23-10c0.8,0,1.4,0.6,1.4,1.4S23.8-7.2,23-7.2s-1.4-0.6-1.4-1.4S22.2-10,23-10z"/>
																					</g>
																					<g>
																						<path class="st1" d="M1.4-31.6c0.8,0,1.4,0.6,1.4,1.4c0,0.8-0.6,1.4-1.4,1.4C0.6-28.7,0-29.4,0-30.2
																							C0-31,0.6-31.6,1.4-31.6z"/>
																						<path class="st1" d="M1.4-17.2c0.8,0,1.4,0.6,1.4,1.4s-0.6,1.4-1.4,1.4S0-15,0-15.8S0.6-17.2,1.4-17.2z"/>
																					</g>
																					<g>
																						<path class="st1" d="M30.2-2.8c0.8,0,1.4,0.6,1.4,1.4S31,0,30.2,0s-1.4-0.6-1.4-1.4
																							C28.8-2.2,29.4-2.8,30.2-2.8z"/>
																						<path class="st1" d="M15.8-2.8c0.8,0,1.4,0.6,1.4,1.4S16.6,0,15.8,0s-1.4-0.6-1.4-1.4
																							C14.4-2.2,15-2.8,15.8-2.8z"/>
																					</g>
																					<g>
																						<path class="st1" d="M1.4-2.8c0.8,0,1.4,0.6,1.4,1.4S2.2,0,1.4,0C0.6,0.1,0-0.6,0-1.4C0-2.2,0.6-2.8,1.4-2.8z
																							"/>
																					</g>
																				</g>
																			</g>
																		</g>
																	</g>
																</g>
															</g>
														</g>
													</g>
												</g>
											</g>
										</g>
									</g>
								</g>
							</g>
						</g>
					</g>
				</g>
			</g>
		</g>
	</g>
</pattern>
<g>
	<g id="Spaces" class="st2">
		<g id="employee_areas">
			
				<pattern  id="SVGID_00000010295981492679811230000015556718736590714255_" xlink:href="#SVGID_1_" patternTransform="matrix(1 0 0 -1 -436.2 -207965.5312)">
			</pattern>
			
				<polyline style="opacity:0.45;fill:url(#SVGID_00000010295981492679811230000015556718736590714255_);stroke:#424343;stroke-miterlimit:10;enable-background:new    ;" points="
				35.8,599.9 3.2,667.8 118.3,722.3 119.2,886.9 194.2,923.2 195.9,797.5 286.1,797.2 285.4,681.8 278.9,682 221.7,681.5 
				221.9,507.3 168,507.5 167.7,601.9 35.8,599.9 			"/>
		</g>
		<line class="st4" x1="286.7" y1="279.2" x2="286.7" y2="358.3"/>
		<path id="cafe_00000052796716991338462910000004400667937314557858_" class="st5" d="M286.7,282.4l-167.5-0.2v-84h168L286.7,282.4
			z"/>
		<path id="_x31_25" class="st6" d="M286,797.4l-92.3,0.1l-0.1,125.7l91.6,43.2L286,797.4z"/>
		<polyline id="PAR" class="st7" points="167,602.9 167,507.2 167,508.8 79.7,508.7 36.3,599.9 166.2,600.9 		"/>
		<path id="DHC" class="st8" d="M523.3,755.7l-80.3,0.1l-0.2-23.1h-29.9l0.5-52l-48.6,0.1l0.1,160.9l159.2-56.5L523.3,755.7z"/>
		<path id="children_x27_s_room" class="st8" d="M438.9,527.1l85.6,0.4l156.4-325.7l-93.9-1.6l-13-16l-213.2,15.3l0.8,226.9
			 M361.4,425.1l78.9,102.8"/>
	</g>
	<g id="restroom">
		<g id="restroom_00000067921546007013965380000012687461363368965267_">
			<rect x="122.6" y="283.5" class="st9" width="73.1" height="75.5"/>
			<path class="st10" d="M168.6,309.2c1.2,0,2.1-0.9,2.1-2.1c0-1.2-0.9-2.1-2.1-2.1s-2.1,0.9-2.1,2.1
				C166.4,308.3,167.4,309.2,168.6,309.2z"/>
			<path class="st10" d="M174.4,317.6l-1.8-6.3c-0.4-1.2-1.3-1.6-2.6-1.6l0,0h-2.9l0,0c-1.3,0-2.1,0.4-2.6,1.6l-1.8,6.3
				c-0.1,0.4,0.1,0.8,0.7,0.9c0.4,0.1,0.9-0.1,1-0.5l1.6-5.5h0.4l-2.7,9.6h2.6v6.8c0,0.5,0.5,1,1,1s1-0.5,1-1v-6.8h0.5v6.8
				c0,0.5,0.5,1,1,1s1-0.5,1-1v-6.8h2.6l-2.7-9.6h0.4l1.6,5.5c0.1,0.4,0.5,0.7,1,0.5C174.2,318.4,174.5,318,174.4,317.6z"/>
			<path class="st10" d="M147.4,309.2c1.2,0,2.1-0.9,2.1-2.1c0-1.2-0.9-2.1-2.1-2.1c-1.2,0-2.1,0.9-2.1,2.1
				C145.1,308.3,146.2,309.2,147.4,309.2z"/>
			<path class="st10" d="M150.1,309.7h-5.5c-1.3,0-2.4,1-2.4,2.4v6.7c0,0.5,0.4,0.9,0.9,0.9s0.9-0.4,0.9-0.9v-5.9h0.5v6.8v9.2
				c0,0.7,0.5,1.2,1.2,1.2s1.2-0.5,1.2-1.2v-9.2h0.5v9.2c0,0.7,0.5,1.2,1.2,1.2s1.2-0.5,1.2-1.2v-9.2v-6.8h0.5v5.9
				c0,0.5,0.4,0.9,0.9,0.9s0.9-0.4,0.9-0.9v-6.7C152.5,310.8,151.4,309.7,150.1,309.7z"/>
			<rect x="157.2" y="305" class="st10" width="2.4" height="24.9"/>
		</g>
		<g id="restroom_00000129203183757696906870000009799256100089178502_">
			<circle class="st9" cx="578.4" cy="373.5" r="15"/>
			<g id="Layer_1_00000043417269205140031930000013075138157533666726_">
				<g>
					<g>
						<g>
							<path class="st10" d="M571.5,367.6c0.8,0,1.6-0.7,1.6-1.5s-0.7-1.4-1.6-1.4c-0.8,0-1.5,0.6-1.5,1.4S570.7,367.6,571.5,367.6z
								"/>
							<path class="st10" d="M573.5,367.9h-3.9c-0.9,0-1.7,0.7-1.7,1.7v4.8c0,0.3,0.3,0.6,0.6,0.6s0.6-0.3,0.6-0.6v-4.2h0.3v4.8v6.5
								c0,0.5,0.4,0.8,0.8,0.8c0.5,0,0.8-0.4,0.8-0.8V375h0.4v6.5c0,0.5,0.4,0.8,0.8,0.8c0.5,0,0.8-0.4,0.8-0.8V375v-4.8h0.3v4.1
								c0,0.3,0.3,0.6,0.6,0.6s0.6-0.3,0.6-0.6v-4.8C575.1,368.6,574.4,367.9,573.5,367.9z"/>
						</g>
						<g>
							<path class="st10" d="M584.6,367.6c0.8,0,1.5-0.7,1.5-1.5s-0.7-1.5-1.5-1.5c-0.8,0.1-1.6,0.7-1.6,1.5
								S583.8,367.6,584.6,367.6z"/>
							<path class="st10" d="M588.8,373.5l-1.2-4.5c-0.3-0.8-0.9-1.1-1.9-1.1l0,0h-2.1l0,0c-0.9,0-1.6,0.3-1.9,1.1l-1.2,4.5
								c-0.1,0.3,0.1,0.6,0.4,0.7s0.6-0.1,0.7-0.3l1.1-3.9h0.3l-2,6.8h1.9v4.9c0,0.4,0.3,0.7,0.7,0.7s0.7-0.3,0.7-0.7v-4.9h0.3v4.9
								c0,0.4,0.3,0.7,0.7,0.7s0.7-0.3,0.7-0.7v-4.9h1.9l-1.9-6.9h0.3l1.1,3.9c0.1,0.3,0.4,0.4,0.7,0.3
								C588.7,374.1,588.9,373.7,588.8,373.5z"/>
						</g>
					</g>
					<rect x="577.5" y="364.6" class="st10" width="1.7" height="17.7"/>
				</g>
			</g>
		</g>
		<g id="restroom_00000093154083196299017300000003324237930340482739_">
			<rect x="444" y="680.1" class="st9" width="77.2" height="77.2"/>
			<g>
				<g>
					<g>
						<path class="st10" d="M472.1,710.3c1.2,0,2.1-0.9,2.1-2.1c0-1.2-0.9-2.1-2.1-2.1s-2.1,0.9-2.1,2.1
							C469.8,709.4,470.9,710.3,472.1,710.3z"/>
						<path class="st10" d="M474.8,710.8h-5.5c-1.3,0-2.4,1-2.4,2.4v6.7c0,0.5,0.4,0.9,0.9,0.9s0.9-0.4,0.9-0.9V714h0.5v6.8v9.2
							c0,0.7,0.5,1.2,1.2,1.2s1.2-0.5,1.2-1.2v-9.2h0.5v9.2c0,0.7,0.5,1.2,1.2,1.2s1.2-0.5,1.2-1.2v-9.2V714h0.5v5.9
							c0,0.5,0.4,0.9,0.9,0.9s0.9-0.4,0.9-0.9v-6.7C477.2,711.9,476.1,710.8,474.8,710.8z"/>
					</g>
					<g>
						<path class="st10" d="M493.4,710.3c1.2,0,2.1-0.9,2.1-2.1c0-1.2-0.9-2.1-2.1-2.1s-2.1,0.9-2.1,2.1
							C491.2,709.4,492.2,710.3,493.4,710.3z"/>
						<path class="st10" d="M499.2,718.7l-1.8-6.3c-0.4-1.2-1.3-1.6-2.6-1.6l0,0h-2.9l0,0c-1.3,0-2.1,0.4-2.6,1.6l-1.8,6.3
							c-0.1,0.4,0.1,0.8,0.7,0.9c0.4,0.1,0.9-0.1,1-0.5l1.6-5.5h0.4l-2.7,9.6h2.6v6.8c0,0.5,0.5,1,1,1s1-0.5,1-1v-6.8h0.5v6.8
							c0,0.5,0.5,1,1,1s1-0.5,1-1v-6.8h2.6l-2.7-9.6h0.4l1.6,5.5c0.1,0.4,0.5,0.7,1,0.5C499,719.4,499.3,719.1,499.2,718.7z"/>
					</g>
				</g>
				<rect x="482" y="706.1" class="st10" width="2.4" height="24.9"/>
			</g>
		</g>
	</g>
	<g id="escalator_00000150794383660195744430000003786862563213663129_">
		<rect x="371.5" y="528.8" class="st11" width="34" height="107.7"/>
		<g>
			<g>
				<g>
					<path class="st12" d="M385.3,567.6c1.6,0,2.8-1.4,2.8-2.8c0-1.6-1.4-2.8-2.8-2.8c-1.6,0-2.8,1.4-2.8,2.8
						C382.4,566.2,383.8,567.6,385.3,567.6z"/>
					<path class="st12" d="M388.4,571.5c0-1.6-1.4-3-3-3s-3,1.4-3,3v6.8l6-6V571.5L388.4,571.5z"/>
					<path class="st12" d="M399,570.6h-5.3c-0.9,0-1.7,0.4-2.4,1.1L382,581h-4.1c-1.9,0-3.4,1.6-3.4,3.4c0,1.9,1.6,3.4,3.4,3.4h5.6
						c0.9,0,1.7-0.4,2.4-1.1l9.3-9.3h3.8c1.9,0,3.4-1.6,3.4-3.4C402.3,572.1,400.9,570.6,399,570.6z"/>
				</g>
			</g>
		</g>
	</g>
	<g id="elevator">
		
			<rect x="441.4" y="533" transform="matrix(1.787223e-03 -1 1 1.787223e-03 -91.8315 990.9463)" class="st11" width="18.1" height="16.9"/>
		
			<rect x="441.2" y="557.8" transform="matrix(1.787223e-03 -1 1 1.787223e-03 -116.8275 1015.4924)" class="st11" width="18.1" height="16.9"/>
		
			<rect x="441" y="607.1" transform="matrix(1.787223e-03 -1 1 1.787223e-03 -166.2699 1064.5013)" class="st11" width="18.1" height="16.9"/>
		
			<rect x="441.2" y="632" transform="matrix(1.787223e-03 -1 1 1.787223e-03 -190.9202 1089.571)" class="st11" width="18.1" height="16.9"/>
		<line class="st13" x1="463.2" y1="529.7" x2="463.2" y2="656.2"/>
		<g>
			<g>
				<path class="st1" d="M446.1,577.4c-0.2-0.2-0.4-0.3-0.6-0.3s-0.5,0.1-0.6,0.3c-0.5,0.5-1.4,1.4-2.7,2.7c-0.4,0.4-0.4,1,0,1.3
					c0.3,0.3,0.9,0.3,1.2,0l1.1-1.1v3.5c0,0.5,0.4,0.9,0.9,0.9h0.1c0.5,0,0.9-0.4,0.9-0.9v-3.5l1.1,1.1c0.3,0.3,0.9,0.3,1.2,0l0,0
					c0.3-0.3,0.3-0.9,0-1.2C447.4,578.7,446.7,578,446.1,577.4z"/>
				<path class="st1" d="M453.9,584.4c0.2,0.2,0.4,0.3,0.6,0.3s0.5-0.1,0.6-0.3c0.5-0.5,1.4-1.4,2.7-2.7c0.4-0.4,0.4-1,0-1.3
					c-0.3-0.3-0.9-0.3-1.2,0l-1.1,1.1V578c0-0.5-0.4-0.9-0.9-0.9h-0.1c-0.5,0-0.9,0.4-0.9,0.9v3.5l-1.1-1.1c-0.3-0.3-0.9-0.3-1.2,0
					l0,0c-0.3,0.3-0.3,0.9,0,1.2C452.6,583.1,453.3,583.8,453.9,584.4z"/>
			</g>
			<g>
				<g>
					<path class="st1" d="M453.3,591.4c0.5,0,1-0.4,1-1c0-0.5-0.4-1-1-1c-0.5,0-1,0.4-1,1C452.4,590.9,452.8,591.4,453.3,591.4z"/>
					<path class="st1" d="M454.6,591.5h-2.4c-0.6,0-1,0.5-1,1v3c0,0.2,0.2,0.4,0.4,0.4c0.2,0,0.4-0.2,0.4-0.4v-2.6h0.2v3v4.1
						c0,0.3,0.2,0.6,0.6,0.6c0.3,0,0.6-0.2,0.6-0.6v-4.1h0.2v4.1c0,0.3,0.2,0.6,0.6,0.6c0.3,0,0.6-0.2,0.6-0.6v-4.1v-3h0.2v2.6
						c0,0.2,0.2,0.4,0.4,0.4c0.2,0,0.4-0.2,0.4-0.4v-3C455.6,592,455.1,591.5,454.6,591.5z"/>
				</g>
				<path class="st1" d="M447.1,591.4c0.5,0,1-0.4,1-1c0-0.5-0.4-1-1-1c-0.5,0-1,0.4-1,1C446.1,590.9,446.5,591.4,447.1,591.4z"/>
				<path class="st1" d="M449.7,595.1l-0.8-2.8c-0.2-0.5-0.6-0.7-1.2-0.7l0,0h-1.3l0,0c-0.6,0-1,0.2-1.2,0.7l-0.8,2.8
					c-0.1,0.2,0.1,0.4,0.3,0.4c0.2,0.1,0.4,0,0.5-0.2l0.7-2.5h0.2l-1.2,4.3h1.2v3c0,0.3,0.2,0.5,0.5,0.5s0.5-0.2,0.5-0.5v-3h0.2v3
					c0,0.3,0.2,0.5,0.5,0.5s0.5-0.2,0.5-0.5v-3h1.2l-1.2-4.3h0.2l0.7,2.5c0.1,0.2,0.3,0.3,0.5,0.2
					C449.6,595.4,449.7,595.2,449.7,595.1z"/>
			</g>
			<g>
				<path class="st1" d="M456.2,604h-12.4c-2.5,0-4.6-2.6-4.6-5.7v-6.5c0-3.2,2.1-5.7,4.6-5.7h12.3c2.5,0,4.6,2.6,4.6,5.7v6.5
					C460.7,601.4,458.7,604,456.2,604z M443.8,588.1c-1.6,0-2.9,1.6-2.9,3.6v6.5c0,2,1.3,3.6,2.9,3.6h12.3c1.6,0,2.9-1.6,2.9-3.6
					v-6.5c0-2-1.3-3.6-2.9-3.6H443.8z"/>
			</g>
		</g>
		<g>
			<g>
				<path class="st1" d="M507.9,283.7c-0.2-0.2-0.4-0.3-0.6-0.3s-0.5,0.1-0.6,0.3c-0.5,0.5-1.4,1.4-2.7,2.7c-0.4,0.4-0.4,1,0,1.3
					c0.3,0.3,0.9,0.3,1.2,0l1.1-1.1v3.5c0,0.5,0.4,0.9,0.9,0.9h0.1c0.5,0,0.9-0.4,0.9-0.9v-3.5l1.1,1.1c0.3,0.3,0.9,0.3,1.2,0l0,0
					c0.3-0.3,0.3-0.9,0-1.2C509.2,285,508.5,284.3,507.9,283.7z"/>
				<path class="st1" d="M515.7,290.7c0.2,0.2,0.4,0.3,0.6,0.3s0.5-0.1,0.6-0.3c0.5-0.5,1.4-1.4,2.7-2.7c0.4-0.4,0.4-1,0-1.3
					c-0.3-0.3-0.9-0.3-1.2,0l-1.1,1.1v-3.5c0-0.5-0.4-0.9-0.9-0.9h-0.1c-0.5,0-0.9,0.4-0.9,0.9v3.5l-1.1-1.1c-0.3-0.3-0.9-0.3-1.2,0
					l0,0c-0.3,0.3-0.3,0.9,0,1.2C514.4,289.4,515.1,290.1,515.7,290.7z"/>
			</g>
			<g>
				<g>
					<path class="st1" d="M515.1,297.7c0.5,0,1-0.4,1-1c0-0.5-0.4-1-1-1c-0.5,0-1,0.4-1,1C514.2,297.2,514.6,297.7,515.1,297.7z"/>
					<path class="st1" d="M516.4,297.8H514c-0.6,0-1,0.5-1,1v3c0,0.2,0.2,0.4,0.4,0.4s0.4-0.2,0.4-0.4v-2.6h0.2v3v4.1
						c0,0.3,0.2,0.6,0.6,0.6c0.3,0,0.6-0.2,0.6-0.6v-4.1h0.2v4.1c0,0.3,0.2,0.6,0.6,0.6c0.3,0,0.6-0.2,0.6-0.6v-4.1v-3h0.2v2.6
						c0,0.2,0.2,0.4,0.4,0.4s0.4-0.2,0.4-0.4v-3C517.4,298.3,516.9,297.8,516.4,297.8z"/>
				</g>
				<path class="st1" d="M508.9,297.7c0.5,0,1-0.4,1-1c0-0.5-0.4-1-1-1c-0.5,0-1,0.4-1,1C507.9,297.2,508.3,297.7,508.9,297.7z"/>
				<path class="st1" d="M511.5,301.4l-0.8-2.8c-0.2-0.5-0.6-0.7-1.2-0.7l0,0h-1.3l0,0c-0.6,0-1,0.2-1.2,0.7l-0.8,2.8
					c-0.1,0.2,0.1,0.4,0.3,0.4c0.2,0.1,0.4,0,0.5-0.2l0.7-2.5h0.2l-1.2,4.3h1.2v3c0,0.3,0.2,0.5,0.5,0.5s0.5-0.2,0.5-0.5v-3h0.2v3
					c0,0.3,0.2,0.5,0.5,0.5s0.5-0.2,0.5-0.5v-3h1.2l-1.2-4.3h0.2l0.7,2.5c0.1,0.2,0.3,0.3,0.5,0.2
					C511.4,301.7,511.5,301.5,511.5,301.4z"/>
			</g>
			<g>
				<path class="st1" d="M518,310.3h-12.4c-2.5,0-4.6-2.6-4.6-5.7v-6.5c0-3.2,2.1-5.7,4.6-5.7h12.3c2.5,0,4.6,2.6,4.6,5.7v6.5
					C522.5,307.7,520.5,310.3,518,310.3z M505.6,294.4c-1.6,0-2.9,1.6-2.9,3.6v6.5c0,2,1.3,3.6,2.9,3.6h12.3c1.6,0,2.9-1.6,2.9-3.6
					V298c0-2-1.3-3.6-2.9-3.6H505.6z"/>
			</g>
			
				<rect x="495.7" y="280.9" transform="matrix(1.913655e-03 -1 1 1.913655e-03 213.8467 807.8679)" class="st14" width="31.9" height="31.9"/>
		</g>
	</g>
	<g id="stairs_00000032626799022009418030000006004862700355200132_">
		<g>
			<path class="st1" d="M473.4,629.3c1,0,1.9-0.8,1.9-1.9c0-1-0.8-1.9-1.9-1.9c-1,0-1.9,0.8-1.9,1.9
				C471.6,628.5,472.4,629.3,473.4,629.3z"/>
			<path class="st1" d="M470,635.2c0.6,0,1.1-0.4,1.1-1V633l0.6-0.4v3v0.6l-1.8,6.9c-0.2,0.5,0.2,1.1,0.7,1.2
				c0.6,0.2,1.2-0.1,1.4-0.7l1.6-6.4h1.6v2.1c0,0.6,0.5,1,1.1,1s1.1-0.4,1.1-1v-3.1c0-0.6-0.5-1-1.1-1l0,0l0,0h-2.4v-1.9l0.6,0.6
				c0.2,0.2,0.5,0.4,0.9,0.4l0,0h2c0.6,0,1.1-0.4,1.1-1s-0.5-1-1.1-1h-1.6l-2-2.2l-0.1-0.1c-0.1-0.1-0.2-0.3-0.4-0.4l0,0h-0.1l0,0
				h-0.1l0,0c0,0,0,0-0.1,0l0,0c0,0,0,0-0.1,0l0,0c0,0,0,0-0.1,0l0,0l0,0l0,0c0,0,0,0-0.1,0c0,0,0,0-0.1,0l0,0c0,0,0,0-0.1,0l0,0
				c0,0,0,0-0.1,0l0,0c0,0,0,0-0.1,0l0,0c0,0,0,0-0.1,0l0,0c0,0,0,0-0.1,0l0,0l-2.8,2c-0.3,0.2-0.4,0.5-0.4,0.8l0,0v1.7
				C468.9,634.8,469.3,635.2,470,635.2z"/>
			<path class="st1" d="M490.5,631.8h-5.1c-0.2,0-0.3,0.2-0.4,0.4v4.7h-4.7c-0.2,0-0.3,0.2-0.4,0.4v5H475c-0.2,0-0.3,0.2-0.4,0.4
				v4.6h-4.7c-0.2,0-0.3,0.2-0.4,0.4v4.4c0,0.2,0.2,0.3,0.4,0.4h20.5c0.2,0,0.3-0.2,0.4-0.4l-0.1-19.8
				C490.8,632,490.7,631.9,490.5,631.8z"/>
		</g>
	</g>
	<g id="circ" class="st15">
		<path class="st16" d="M257.6,523.7l-16.2-2.4l1.1-7.2l16.2,2.4L257.6,523.7z M258.7,516.5l-15.5,104.3l8.6,1.3l15.5-104.3
			L258.7,516.5z M272.6,625.1l-29.4-4.4l-1.1,7.2l29.4,4.4L272.6,625.1z M264,623.8l-6.4,42.7l8.6,1.3l6.4-42.7L264,623.8z"/>
	</g>
	<path id="wepa" class="st17" d="M252.6,463.2c5.8-11,18.4-15.2,29.4-9.5c11,5.8,15.2,19.3,9.5,30.3c-5.8,11-18.4,15.2-29.4,9.5
		C251,487.8,246.8,474.2,252.6,463.2z"/>
	<g id="printers">
		<g>
			<path d="M269.4,477.9h2.1h3c0.3,0,0.5-0.3,0.5-0.5s-0.3-0.5-0.5-0.5h-5c-0.3,0-0.5,0.3-0.5,0.5
				C268.9,477.6,269,477.9,269.4,477.9z"/>
			<path d="M274.4,479.1h-5c-0.3,0-0.5,0.3-0.5,0.5c0,0.3,0.3,0.5,0.5,0.5h4.9c0.3,0,0.5-0.3,0.5-0.5
				C275,479.4,274.8,479.1,274.4,479.1z"/>
		</g>
		<path d="M278.8,469h-1v-3.8c0-0.3-0.3-0.5-0.5-0.5h-10.5c-0.3,0-0.5,0.3-0.5,0.5v3.8h-1c-0.9,0-1.7,0.8-1.7,1.7v6
			c0,0.9,0.8,1.7,1.7,1.7h1v3.8c0,0.3,0.2,0.5,0.5,0.5h10.5c0.3,0,0.5-0.3,0.5-0.5v-3.7h1c0.9,0,1.7-0.8,1.7-1.7v-6
			C280.5,469.8,279.7,469,278.8,469z M265.2,471.5c-0.4,0-0.6-0.3-0.6-0.6c0-0.4,0.3-0.6,0.6-0.6s0.6,0.3,0.6,0.6
			C265.8,471.2,265.5,471.5,265.2,471.5z M267.2,465.8h9.4v3.1h-9.4V465.8z M266.5,470.9c0-0.4,0.3-0.6,0.6-0.6s0.6,0.3,0.6,0.6
			c0,0.4-0.3,0.6-0.6,0.6S266.5,471.2,266.5,470.9z M276.7,478.4v3.1h-9.4v-6.2h9.4V478.4L276.7,478.4z"/>
	</g>
	<g id="coffee">
		<path d="M146.2,234.8c0.4-0.3,0.8-0.2,1.2-0.2c1.8,0,3.7,0,5.6,0c4.2,0,8.2,0,12.4,0c0.5,0,1-0.1,1.4,0.2c0.3,0.4,0,0.9,0.1,1.3
			c0.2,0.3,0.7,0.2,1,0.3c1.7,0.3,3.1,1.7,3.2,3.5c0.1,1.3-0.4,2.5-1.3,3.4c-0.9,0.9-2.1,1.3-3.3,1.7c-1,0.2-2,0.2-3,0.2
			c-0.6,0-1,0.1-1.4,0.5c-0.7,0.7-1.5,1-2.5,1c-1.9-0.1-3.9-0.1-5.8,0c-1.1,0-1.8-0.3-2.6-1.1c-1.6-1.6-2.7-3.4-3.6-5.4
			c-0.6-1.4-1-2.9-1.2-4.4C146.1,235.3,146.2,235.1,146.2,234.8z M164.4,242.7c1.4,0.2,3-0.3,3.9-1.2c0.1-0.1,0.2-0.2,0.3-0.3
			c0.8-1.2,0.3-2.5-1-2.8c-0.4-0.1-0.8-0.2-1.2,0.1c-0.2,0.7-0.5,1.4-0.8,2.1C165.2,241.3,164.8,242.1,164.4,242.7z"/>
		<path d="M148.1,247.9c0.3-0.1,0.5-0.1,0.7-0.1c5.3,0,10.7,0,16.1,0c0.1,0,0.2,0.1,0.2,0.1l0.1,0.1c-0.2,0.6-0.8,1.8-1.2,2.1
			c-0.2,0.2-0.4,0.2-0.7,0.2c-0.3,0.1-0.7,0-1,0c-3.7,0-7.5,0-11.2,0c-0.2,0-0.6,0-0.8,0c-0.5,0-0.8-0.2-1.1-0.7
			C148.7,249.2,148.3,248.7,148.1,247.9z"/>
		<path d="M158.8,232.2c0.3-1.3-0.2-2.5-0.7-3.7c-0.9-1.7-0.6-3.8,0.7-5.3c0.1-0.2,0.2-0.2,0.6-0.5c-0.5,1.5,0,2.6,0.6,3.7
			c0.7,1.3,0.8,2.7,0.2,4.1C159.9,231.1,159.5,231.8,158.8,232.2L158.8,232.2z"/>
		<path d="M153.9,232.2c0.3-1,0.2-2-0.3-2.9c-0.2-0.2-0.3-0.6-0.4-0.8c-0.9-1.9-0.5-4.1,1.2-5.5c0,0.1,0.1,0.2,0.1,0.3
			c-0.2,0.8,0,1.6,0.3,2.3c0.2,0.3,0.3,0.7,0.6,1.1c0.8,1.7,0.6,3.9-0.8,5.3C154.3,232,154.1,232,153.9,232.2L153.9,232.2z"/>
		<path d="M158.8,232.2L158.8,232.2L158.8,232.2z"/>
		<polygon points="153.9,232.1 153.9,232.2 153.9,232.2 		"/>
	</g>
	<g id="Text">
		<text transform="matrix(1 0 0 1 416.113 375.2686)" class="st18 st19">Children’s</text>
		<text transform="matrix(1 0 0 1 435.713 401.6686)" class="st18 st19">Room</text>
		<text transform="matrix(1 0 0 1 181.419 237.6842)" class="st18 st20">Nirvana</text>
		<text transform="matrix(1 0 0 1 181.419 256.6842)" class="st18 st20">Soul</text>
		<text transform="matrix(1 0 0 1 84.4584 567.6584)" class="st18 st20">Partners</text>
		<text transform="matrix(1 0 0 1 64.4195 589.2584)" class="st18 st20">in Reading</text>
		<text transform="matrix(1 0 0 1 372.2751 768.1258)" class="st18 st21">Digital</text>
		<text transform="matrix(1 0 0 1 372.2751 786.2264)" class="st18 st21">Humanities</text>
		<text transform="matrix(1 0 0 1 372.2751 804.3259)" class="st18 st21">Center</text>
		<text transform="matrix(1 0 0 1 224.7164 871.3295)" class="st18 st21">125</text>
		<text transform="matrix(1 0 0 1 372.2754 745.5546)" class="st18 st22">113</text>
	</g>
	<g id="North_00000164482264290555914440000013737384098679011727_">
		<g>
			<polygon class="st23" points="654.8,25.3 626.5,20.4 649.9,53.6 			"/>
			<text transform="matrix(0.6 0.8 -0.8 0.6 652.0496 14.781)" class="st23 st24 st25">N</text>
		</g>
		<text transform="matrix(0.8983 0.4394 -0.4394 0.8983 486.5179 40.5758)" class="st26 st27 st28">San Fernando Street</text>
		<line class="st29" x1="458.1" y1="30.3" x2="628.1" y2="113.4"/>
		<line class="st29" x1="464.4" y1="16" x2="634.4" y2="99.1"/>
		<text transform="matrix(0.4394 -0.8983 0.8983 0.4394 30.8064 210.9285)" class="st26 st27 st28">Fourth Street</text>
		<line class="st29" x1="23.3" y1="233" x2="80.8" y2="115.5"/>
		<line class="st29" x1="10.1" y1="226.6" x2="67.6" y2="109.1"/>
	</g>
	<g id="floor_outline">
		<line class="st30" x1="681.2" y1="201.6" x2="524.9" y2="526.5"/>
		<line class="st30" x1="3.2" y1="667.4" x2="119.7" y2="425.1"/>
		<line class="st30" x1="118.3" y1="722.5" x2="3" y2="667.7"/>
		<line class="st30" x1="119" y1="887.3" x2="285.6" y2="967.5"/>
		<line class="st30" x1="325.4" y1="66.8" x2="263.2" y2="197.5"/>
		<line class="st30" x1="468.1" y1="135.4" x2="325.4" y2="66.8"/>
		<line class="st30" x1="119.6" y1="198.4" x2="263.2" y2="197.5"/>
		<line class="st30" x1="525.5" y1="103.9" x2="469.9" y2="135.6"/>
		<line class="st30" x1="525.5" y1="187" x2="525.5" y2="103.9"/>
		<line class="st30" x1="525.5" y1="187" x2="573.5" y2="183.7"/>
		<line class="st30" x1="586.3" y1="199.5" x2="573.5" y2="183.7"/>
		<line class="st30" x1="681.2" y1="201.3" x2="587.3" y2="200.5"/>
		<line class="st30" x1="119.4" y1="198.6" x2="120" y2="424.6"/>
		<line class="st30" x1="464.2" y1="526.5" x2="524.1" y2="526.5"/>
		<line class="st30" x1="464.1" y1="618.9" x2="464.2" y2="526.8"/>
		<line class="st30" x1="464.1" y1="619.6" x2="524.2" y2="619.6"/>
		<line class="st30" x1="524.2" y1="785.4" x2="524.2" y2="619.6"/>
		<line class="st30" x1="286.3" y1="892.5" x2="285.6" y2="967.5"/>
		<line class="st30" x1="119" y1="887.3" x2="118.3" y2="722.5"/>
		<line class="st30" x1="316.5" y1="891.9" x2="286.3" y2="891.5"/>
		<line class="st30" x1="523.3" y1="785.5" x2="364.6" y2="842.7"/>
		<line class="st30" x1="364.5" y1="842.9" x2="316.8" y2="891.4"/>
		<path class="st31" d="M266,189.8"/>
	</g>
	<g id="Doors">
		<line class="st32" x1="525.8" y1="139.5" x2="525.8" y2="165.3"/>
		<line class="st32" x1="309.8" y1="99" x2="296.1" y2="128.3"/>
		<line class="st32" x1="362.4" y1="84.2" x2="389.3" y2="97"/>
		<line class="st33" x1="287.2" y1="812" x2="287.3" y2="840.3"/>
		<line class="st32" x1="508" y1="792" x2="483.1" y2="800.7"/>
		<line class="st32" x1="383.7" y1="457" x2="399.2" y2="477.2"/>
		<line class="st32" x1="289.2" y1="237.4" x2="289.1" y2="262.9"/>
		<line class="st32" x1="135.6" y1="506.8" x2="110" y2="506.8"/>
		<line class="st32" x1="352.6" y1="855.4" x2="327.3" y2="881.2"/>
		<line class="st32" x1="225" y1="197.3" x2="199.4" y2="197.4"/>
		<line class="st33" x1="363.6" y1="805.4" x2="363.7" y2="833.7"/>
	</g>
	<g id="Entrances">
		<text transform="matrix(1 0 0 1 374.4289 915.0301)" class="st18 st34">Campus Entrance</text>
		<text transform="matrix(1 0 0 1 135.8606 66.7688)" class="st18 st34">San Fernando Entrance</text>
		<g>
			<polygon points="278.6,73.5 273.3,76.6 279.2,86.8 274.9,89.4 289.8,99 288.9,81.2 284.5,83.7 			"/>
		</g>
		<g>
			<polygon points="366.7,901.2 371,896.9 362.5,888.6 366.1,885 349.1,879.7 354.7,896.6 358.3,892.9 			"/>
		</g>
	</g>
	<g id="Emergency_exits">
		<g>
			<circle class="st35" cx="506.1" cy="665" r="15"/>
			<g>
				<g>
					<path class="st10" d="M514.6,655.8l-5.2-1.8c-0.3-0.1-0.6,0.1-0.6,0.5v1.4h-5.1c-0.2,0-0.4,0.2-0.4,0.4v1.6
						c0.3,0,0.6,0.1,0.8,0.2v-1.4h4.6v15.9h-3.1v0.2c0,0.2,0.1,0.4,0,0.6h3v1.4c0,0.3,0.3,0.6,0.6,0.5l5.2-1.8
						c0.2-0.1,0.3-0.2,0.3-0.5v-16.8C515,656.1,514.8,655.9,514.6,655.8z"/>
					<g>
						<g>
							<path class="st10" d="M495.6,671.9h3.3c0.4,0,0.8-0.3,1-0.7l0.4-1.3l-1.6-1.3l0,0l-0.4,1.4h-2.6c-0.5,0-1,0.4-1,1
								C494.7,671.5,495.1,671.9,495.6,671.9z"/>
							<path class="st10" d="M503.3,662.3c0.9-0.2,1.5-1.1,1.3-2.1s-1.1-1.5-2.1-1.3c-0.9,0.2-1.5,1.1-1.3,2.1
								S502.4,662.5,503.3,662.3z"/>
							<path class="st10" d="M497,666.5c0.4,0.2,0.9,0,1.1-0.4l0.7-1.5l0.9-0.3l-0.8,2.9c-0.1,0.4,0,0.8,0.3,1l2.8,2.3l0.8,3
								c0.1,0.5,0.5,0.8,1,0.8c0.1,0,0.2,0,0.2,0c0.5-0.1,0.9-0.7,0.7-1.2l-0.8-3.4c0-0.2-0.2-0.4-0.3-0.5l-1.8-1.4l0.9-2.5l0.9,1.1
								c0.2,0.2,0.4,0.3,0.6,0.3c0.1,0,0.3,0,0.4-0.1l1.7-1c0.4-0.2,0.5-0.8,0.3-1.1c-0.2-0.4-0.8-0.5-1.1-0.3l-1.1,0.6l-0.9-1
								c-0.2-0.3-0.5-0.5-0.9-0.6l-1.5-0.5c-0.4-0.2-0.9-0.2-1.4,0l-1.9,0.6c-0.2,0.1-0.4,0.2-0.5,0.5l-0.8,1.8
								C496.4,665.9,496.5,666.3,497,666.5z"/>
						</g>
					</g>
				</g>
			</g>
		</g>
		<g>
			<circle class="st35" cx="592.1" cy="344.9" r="15"/>
			<g>
				<g>
					<path class="st10" d="M600.6,335.7l-5.2-1.8c-0.3-0.1-0.6,0.1-0.6,0.5v1.4h-5.1c-0.2,0-0.4,0.2-0.4,0.4v1.6
						c0.3,0,0.6,0.1,0.8,0.2v-1.4h4.6v15.9h-3.1v0.2c0,0.2,0.1,0.4,0,0.6h3v1.4c0,0.3,0.3,0.6,0.6,0.5l5.2-1.8
						c0.2-0.1,0.3-0.2,0.3-0.5v-16.8C600.9,336,600.8,335.8,600.6,335.7z"/>
					<g>
						<g>
							<path class="st10" d="M581.6,351.8h3.3c0.4,0,0.8-0.3,1-0.7l0.4-1.3l-1.6-1.3l0,0l-0.4,1.4h-2.6c-0.5,0-1,0.4-1,1
								C580.6,351.4,581.1,351.8,581.6,351.8z"/>
							<path class="st10" d="M589.3,342.2c0.9-0.2,1.5-1.1,1.3-2.1c-0.2-0.9-1.1-1.5-2.1-1.3s-1.5,1.1-1.3,2.1
								C587.4,341.8,588.3,342.4,589.3,342.2z"/>
							<path class="st10" d="M582.9,346.4c0.4,0.2,0.9,0,1.1-0.4l0.7-1.5l0.9-0.3l-0.8,2.9c-0.1,0.4,0,0.8,0.3,1l2.8,2.3l0.8,3
								c0.1,0.5,0.5,0.8,1,0.8c0.1,0,0.2,0,0.2,0c0.5-0.1,0.9-0.7,0.7-1.2l-0.8-3.4c0-0.2-0.2-0.4-0.3-0.5l-1.8-1.4l0.9-2.5l0.9,1.1
								c0.2,0.2,0.4,0.3,0.6,0.3c0.1,0,0.3,0,0.4-0.1l1.7-1c0.4-0.2,0.5-0.8,0.3-1.1c-0.2-0.4-0.8-0.5-1.1-0.3l-1.1,0.6l-0.9-1
								c-0.2-0.3-0.5-0.5-0.9-0.6l-1.5-0.5c-0.4-0.2-0.9-0.2-1.4,0l-1.9,0.6c-0.2,0.1-0.4,0.2-0.5,0.5l-0.8,1.8
								C582.3,345.7,582.5,346.2,582.9,346.4z"/>
						</g>
					</g>
				</g>
			</g>
		</g>
	</g>
</g>
</svg>
