<?xml version="1.0" encoding="utf-8"?>
<!-- Generator: Adobe Illustrator 28.3.0, SVG Export Plug-In . SVG Version: 6.00 Build 0)  -->
<svg version="1.1" xmlns="http://www.w3.org/2000/svg" xmlns:xlink="http://www.w3.org/1999/xlink" x="0px" y="0px"
	 viewBox="0 0 684.2 906.7" style="enable-background:new 0 0 684.2 906.7;" xml:space="preserve">
<style type="text/css">
	.st0{fill:none;}
	.st1{fill:none;stroke:#221F1F;stroke-width:0.3;stroke-linejoin:round;}
	.st2{fill:none;stroke:#231F20;stroke-width:0.3;stroke-linejoin:round;}
	
		.st3{opacity:0.45;fill:url(#SVGID_00000106838784290504312260000006126435630438586279_);stroke:#424343;stroke-miterlimit:10;enable-background:new    ;}
	.st4{opacity:0.89;fill:none;stroke:#010101;stroke-width:3;stroke-miterlimit:10;enable-background:new    ;}
	.st5{fill:#B8D2C7;stroke:#231F20;stroke-width:2;stroke-linecap:round;stroke-linejoin:round;}
	.st6{fill:#B8C9FF;stroke:#010101;stroke-width:2;stroke-miterlimit:10;}
	.st7{fill:#B8D2C7;stroke:#010101;stroke-width:2;stroke-miterlimit:10;}
	.st8{fill:#B8D2C7;stroke:#231F20;stroke-width:2;stroke-miterlimit:10;}
	.st9{fill:#0073A0;}
	.st10{fill:#FFFFFF;}
	.st11{opacity:0.4;fill:#1A4363;enable-background:new    ;}
	.st12{fill:#231F20;stroke:#FFFFFF;stroke-width:0.25;stroke-miterlimit:10;}
	.st13{fill:none;stroke:#010101;stroke-width:4;stroke-miterlimit:10;}
	.st14{fill:#231F20;}
	.st15{fill:#A1BB7E;stroke:#A1BB7E;stroke-width:7;stroke-miterlimit:10;}
	.st16{fill:#A1BB7E;}
	.st17{font-family:'ArialMT';}
	.st18{font-size:22px;}
	.st19{font-size:20px;}
	.st20{font-size:18px;}
	.st21{font-size:16px;}
	.st22{fill:#5197BC;}
	.st23{font-family:'Arial-BoldMT';}
	.st24{font-size:28.7148px;}
	.st25{fill:#2E368F;}
	.st26{font-family:'Arial-ItalicMT';}
	.st27{font-size:14px;}
	.st28{fill:none;stroke:#2E368F;stroke-miterlimit:10;}
	.st29{fill:none;stroke:#231F20;stroke-width:4;stroke-linecap:round;stroke-linejoin:round;}
	.st30{fill:#FFFFFF;stroke:#231F20;stroke-width:4;stroke-linecap:round;stroke-linejoin:round;}
	.st31{fill:none;stroke:#FFFFFF;stroke-width:8;stroke-miterlimit:10;}
	.st32{fill:none;stroke:#FFFFFF;stroke-width:7;stroke-miterlimit:10;}
	.st33{font-size:15px;}
	.st34{font-size:12px;}
	.st35{fill:#C40000;}
	.st36{opacity:0.5;fill:#E5A823;enable-background:new    ;}
	.st37{fill:#0056A1;}
	.st38{fill:#F2F2F2;}
	.st39{fill:#0058A1;}
	.st40{font-size:72px;}
	.st41{font-size:11px;}
	.st42{fill:#2EA443;}
	.st43{fill:#0055A2;}
	.st44{font-size:9.1652px;}
	.st45{fill:url(#SVGID_00000100373028584803319090000000874934316046757013_);stroke:#ABACAF;stroke-miterlimit:10;}
	.st46{fill:#C12026;}
	.st47{fill:#352664;}
</style>
<pattern  y="906.7" width="72" height="72" patternUnits="userSpaceOnUse" id="SVGID_0000006578861025418131657" viewBox="79.6 -151.6 72 72" style="overflow:visible;">
	<g>
		<rect x="79.6" y="-151.6" class="st0" width="72" height="72"/>
		<g>
			<rect x="79.6" y="-151.6" class="st0" width="72" height="72"/>
			<g>
				<rect x="79.6" y="-151.6" class="st0" width="72" height="72"/>
				<g>
					<rect x="79.6" y="-151.6" class="st0" width="72" height="72"/>
					<g>
						<rect x="79.6" y="-151.6" class="st0" width="72" height="72"/>
						<g>
							<rect x="79.6" y="-151.6" class="st0" width="72" height="72"/>
							<g>
								<rect x="79.6" y="-151.6" class="st0" width="72" height="72"/>
								<g>
									<rect x="79.6" y="-151.6" class="st0" width="72" height="72"/>
									<g>
										<rect x="79.6" y="-151.6" class="st0" width="72" height="72"/>
										<g>
											<rect x="79.6" y="-151.6" class="st0" width="72" height="72"/>
											<g>
												<rect x="79.6" y="-151.6" class="st0" width="72" height="72"/>
												<g>
													<rect x="79.6" y="-151.6" class="st0" width="72" height="72"/>
													<g>
														<rect x="79.6" y="-151.6" class="st0" width="72" height="72"/>
														<g>
															<rect x="79.6" y="-151.6" class="st0" width="72" height="72"/>
															<g>
																<line class="st1" x1="144.1" y1="-162.1" x2="162.1" y2="-144.1"/>
																<line class="st1" x1="144.1" y1="-168.1" x2="168.1" y2="-144.1"/>
																<line class="st1" x1="144.1" y1="-174.1" x2="174.1" y2="-144.1"/>
																<line class="st1" x1="144.1" y1="-180.1" x2="180.1" y2="-144.1"/>
																<line class="st1" x1="144.1" y1="-186.1" x2="186.1" y2="-144.1"/>
																<line class="st1" x1="144.1" y1="-192.1" x2="192.1" y2="-144.1"/>
																<line class="st1" x1="144.1" y1="-198.1" x2="198.1" y2="-144.1"/>
																<line class="st1" x1="144.1" y1="-204.1" x2="204.1" y2="-144.1"/>
																<line class="st1" x1="144.1" y1="-210.1" x2="210.1" y2="-144.1"/>
																<line class="st1" x1="144.1" y1="-216.1" x2="216.1" y2="-144.1"/>
																<line class="st1" x1="144.1" y1="-222.1" x2="222.1" y2="-144.1"/>
																<line class="st1" x1="144.1" y1="-228.1" x2="228.1" y2="-144.1"/>
																<line class="st1" x1="150.1" y1="-228.1" x2="228.1" y2="-150.1"/>
															</g>
															<g>
																<line class="st1" x1="72.1" y1="-162.1" x2="90.1" y2="-144.1"/>
																<line class="st1" x1="72.1" y1="-168.1" x2="96.1" y2="-144.1"/>
																<line class="st1" x1="72.1" y1="-174.1" x2="102.1" y2="-144.1"/>
																<line class="st1" x1="72.1" y1="-180.1" x2="108.1" y2="-144.1"/>
																<line class="st1" x1="72.1" y1="-186.1" x2="114.1" y2="-144.1"/>
																<line class="st1" x1="72.1" y1="-192.1" x2="120.1" y2="-144.1"/>
																<line class="st1" x1="72.1" y1="-198.1" x2="126.1" y2="-144.1"/>
																<line class="st1" x1="72.1" y1="-204.1" x2="132.1" y2="-144.1"/>
																<line class="st1" x1="72.1" y1="-210.1" x2="138.1" y2="-144.1"/>
																<line class="st1" x1="72.1" y1="-216.1" x2="144.1" y2="-144.1"/>
																<line class="st1" x1="72.1" y1="-222.1" x2="150.1" y2="-144.1"/>
																<line class="st1" x1="72.1" y1="-228.1" x2="156.1" y2="-144.1"/>
																<line class="st1" x1="78.1" y1="-228.1" x2="156.1" y2="-150.1"/>
															</g>
															<g>
																<line class="st1" x1="0.1" y1="-228.1" x2="84.1" y2="-144.1"/>
																<line class="st1" x1="6.1" y1="-228.1" x2="84.1" y2="-150.1"/>
															</g>
															<g>
																<line class="st1" x1="144.1" y1="-90.1" x2="162.1" y2="-72.1"/>
																<line class="st1" x1="144.1" y1="-96.1" x2="168.1" y2="-72.1"/>
																<line class="st1" x1="144.1" y1="-102.1" x2="174.1" y2="-72.1"/>
																<line class="st1" x1="144.1" y1="-108.1" x2="180.1" y2="-72.1"/>
																<line class="st1" x1="144.1" y1="-114.1" x2="186.1" y2="-72.1"/>
																<line class="st1" x1="144.1" y1="-120.1" x2="192.1" y2="-72.1"/>
																<line class="st1" x1="144.1" y1="-126.1" x2="198.1" y2="-72.1"/>
																<line class="st1" x1="144.1" y1="-132.1" x2="204.1" y2="-72.1"/>
																<line class="st1" x1="144.1" y1="-138.1" x2="210.1" y2="-72.1"/>
																<line class="st1" x1="144.1" y1="-144.1" x2="216.1" y2="-72.1"/>
																<line class="st1" x1="144.1" y1="-150.1" x2="222.1" y2="-72.1"/>
																<line class="st1" x1="144.1" y1="-156.1" x2="228.1" y2="-72.1"/>
																<line class="st1" x1="150.1" y1="-156.1" x2="228.1" y2="-78.1"/>
															</g>
															<g>
																<line class="st1" x1="72.1" y1="-90.1" x2="90.1" y2="-72.1"/>
																<line class="st1" x1="72.1" y1="-96.1" x2="96.1" y2="-72.1"/>
																<line class="st1" x1="72.1" y1="-102.1" x2="102.1" y2="-72.1"/>
																<line class="st1" x1="72.1" y1="-108.1" x2="108.1" y2="-72.1"/>
																<line class="st1" x1="72.1" y1="-114.1" x2="114.1" y2="-72.1"/>
																<line class="st1" x1="72.1" y1="-120.1" x2="120.1" y2="-72.1"/>
																<line class="st1" x1="72.1" y1="-126.1" x2="126.1" y2="-72.1"/>
																<line class="st1" x1="72.1" y1="-132.1" x2="132.1" y2="-72.1"/>
																<line class="st1" x1="72.1" y1="-138.1" x2="138.1" y2="-72.1"/>
																<line class="st1" x1="72.1" y1="-144.1" x2="144.1" y2="-72.1"/>
																<line class="st1" x1="72.1" y1="-150.1" x2="150.1" y2="-72.1"/>
																<line class="st1" x1="72.1" y1="-156.1" x2="156.1" y2="-72.1"/>
																<line class="st1" x1="78.1" y1="-156.1" x2="156.1" y2="-78.1"/>
																<line class="st1" x1="84.1" y1="-156.1" x2="156.1" y2="-84.1"/>
																<line class="st1" x1="90.1" y1="-156.1" x2="156.1" y2="-90.1"/>
																<line class="st1" x1="96.1" y1="-156.1" x2="156.1" y2="-96.1"/>
																<line class="st1" x1="102.1" y1="-156.1" x2="156.1" y2="-102.1"/>
																<line class="st1" x1="108.1" y1="-156.1" x2="156.1" y2="-108.1"/>
																<line class="st1" x1="114.1" y1="-156.1" x2="156.1" y2="-114.1"/>
																<line class="st1" x1="120.1" y1="-156.1" x2="156.1" y2="-120.1"/>
																<line class="st1" x1="126.1" y1="-156.1" x2="156.1" y2="-126.1"/>
																<line class="st1" x1="132.1" y1="-156.1" x2="156.1" y2="-132.1"/>
																<line class="st1" x1="138.1" y1="-156.1" x2="156.1" y2="-138.1"/>
																<line class="st1" x1="144.1" y1="-156.1" x2="156.1" y2="-144.1"/>
															</g>
															<g>
																<line class="st1" x1="0.1" y1="-156.1" x2="84.1" y2="-72.1"/>
																<line class="st1" x1="6.1" y1="-156.1" x2="84.1" y2="-78.1"/>
																<line class="st1" x1="12.1" y1="-156.1" x2="84.1" y2="-84.1"/>
																<line class="st1" x1="18.1" y1="-156.1" x2="84.1" y2="-90.1"/>
																<line class="st1" x1="24.1" y1="-156.1" x2="84.1" y2="-96.1"/>
																<line class="st1" x1="30.1" y1="-156.1" x2="84.1" y2="-102.1"/>
																<line class="st1" x1="36.1" y1="-156.1" x2="84.1" y2="-108.1"/>
																<line class="st1" x1="42.1" y1="-156.1" x2="84.1" y2="-114.1"/>
																<line class="st1" x1="48.1" y1="-156.1" x2="84.1" y2="-120.1"/>
																<line class="st1" x1="54.1" y1="-156.1" x2="84.1" y2="-126.1"/>
																<line class="st1" x1="60.1" y1="-156.1" x2="84.1" y2="-132.1"/>
																<line class="st1" x1="66.1" y1="-156.1" x2="84.1" y2="-138.1"/>
																<line class="st1" x1="72.1" y1="-156.1" x2="84.1" y2="-144.1"/>
															</g>
															<g>
																<line class="st1" x1="144.1" y1="-84.1" x2="228.1" y2="-0.1"/>
																<line class="st1" x1="150.1" y1="-84.1" x2="228.1" y2="-6.1"/>
															</g>
															<g>
																<line class="st1" x1="72.1" y1="-84.1" x2="156.1" y2="-0.1"/>
																<line class="st1" x1="78.1" y1="-84.1" x2="156.1" y2="-6.1"/>
																<line class="st1" x1="84.1" y1="-84.1" x2="156.1" y2="-12.1"/>
																<line class="st1" x1="90.1" y1="-84.1" x2="156.1" y2="-18.1"/>
																<line class="st1" x1="96.1" y1="-84.1" x2="156.1" y2="-24.1"/>
																<line class="st1" x1="102.1" y1="-84.1" x2="156.1" y2="-30.1"/>
																<line class="st1" x1="108.1" y1="-84.1" x2="156.1" y2="-36.1"/>
																<line class="st1" x1="114.1" y1="-84.1" x2="156.1" y2="-42.1"/>
																<line class="st1" x1="120.1" y1="-84.1" x2="156.1" y2="-48.1"/>
																<line class="st1" x1="126.1" y1="-84.1" x2="156.1" y2="-54.1"/>
																<line class="st1" x1="132.1" y1="-84.1" x2="156.1" y2="-60.1"/>
																<line class="st1" x1="138.1" y1="-84.1" x2="156.1" y2="-66.1"/>
																<line class="st1" x1="144.1" y1="-84.1" x2="156.1" y2="-72.1"/>
															</g>
															<g>
																<line class="st1" x1="0.1" y1="-84.1" x2="84.1" y2="-0.1"/>
																<line class="st1" x1="6.1" y1="-84.1" x2="84.1" y2="-6.1"/>
																<line class="st1" x1="12.1" y1="-84.1" x2="84.1" y2="-12.1"/>
																<line class="st1" x1="18.1" y1="-84.1" x2="84.1" y2="-18.1"/>
																<line class="st1" x1="24.1" y1="-84.1" x2="84.1" y2="-24.1"/>
																<line class="st1" x1="30.1" y1="-84.1" x2="84.1" y2="-30.1"/>
																<line class="st1" x1="36.1" y1="-84.1" x2="84.1" y2="-36.1"/>
																<line class="st1" x1="42.1" y1="-84.1" x2="84.1" y2="-42.1"/>
																<line class="st1" x1="48.1" y1="-84.1" x2="84.1" y2="-48.1"/>
																<line class="st1" x1="54.1" y1="-84.1" x2="84.1" y2="-54.1"/>
																<line class="st1" x1="60.1" y1="-84.1" x2="84.1" y2="-60.1"/>
																<line class="st1" x1="66.1" y1="-84.1" x2="84.1" y2="-66.1"/>
																<line class="st1" x1="72.1" y1="-84.1" x2="84.1" y2="-72.1"/>
															</g>
														</g>
													</g>
												</g>
											</g>
										</g>
									</g>
								</g>
							</g>
						</g>
					</g>
				</g>
			</g>
		</g>
	</g>
</pattern>
<pattern  y="906.7" width="72" height="72" patternUnits="userSpaceOnUse" id="SVGID_1_" viewBox="79.6 -148.6 72 72" style="overflow:visible;">
	<g>
		<rect x="79.6" y="-148.6" class="st0" width="72" height="72"/>
		<g>
			<rect x="79.6" y="-148.6" class="st0" width="72" height="72"/>
			<g>
				<rect x="79.6" y="-148.6" class="st0" width="72" height="72"/>
				<g>
					<rect x="79.6" y="-148.6" class="st0" width="72" height="72"/>
					<g>
						<rect x="79.6" y="-148.6" class="st0" width="72" height="72"/>
						<g>
							<rect x="79.6" y="-148.6" class="st0" width="72" height="72"/>
							<g>
								<rect x="79.6" y="-148.6" class="st0" width="72" height="72"/>
								<g>
									<line class="st2" x1="144.1" y1="-66.1" x2="162.1" y2="-84.1"/>
									<line class="st2" x1="144.1" y1="-60.1" x2="168.1" y2="-84.1"/>
									<line class="st2" x1="144.1" y1="-54.1" x2="174.1" y2="-84.1"/>
									<line class="st2" x1="144.1" y1="-48.1" x2="180.1" y2="-84.1"/>
									<line class="st2" x1="144.1" y1="-42.1" x2="186.1" y2="-84.1"/>
									<line class="st2" x1="144.1" y1="-36.1" x2="192.1" y2="-84.1"/>
									<line class="st2" x1="144.1" y1="-30.1" x2="198.1" y2="-84.1"/>
									<line class="st2" x1="144.1" y1="-24.1" x2="204.1" y2="-84.1"/>
									<line class="st2" x1="144.1" y1="-18.1" x2="210.1" y2="-84.1"/>
									<line class="st2" x1="144.1" y1="-12.1" x2="216.1" y2="-84.1"/>
									<line class="st2" x1="144.1" y1="-6.1" x2="222.1" y2="-84.1"/>
									<line class="st2" x1="144.1" y1="-0.1" x2="228.1" y2="-84.1"/>
									<line class="st2" x1="150.1" y1="-0.1" x2="228.1" y2="-78.1"/>
								</g>
								<g>
									<line class="st2" x1="72.1" y1="-66.1" x2="90.1" y2="-84.1"/>
									<line class="st2" x1="72.1" y1="-60.1" x2="96.1" y2="-84.1"/>
									<line class="st2" x1="72.1" y1="-54.1" x2="102.1" y2="-84.1"/>
									<line class="st2" x1="72.1" y1="-48.1" x2="108.1" y2="-84.1"/>
									<line class="st2" x1="72.1" y1="-42.1" x2="114.1" y2="-84.1"/>
									<line class="st2" x1="72.1" y1="-36.1" x2="120.1" y2="-84.1"/>
									<line class="st2" x1="72.1" y1="-30.1" x2="126.1" y2="-84.1"/>
									<line class="st2" x1="72.1" y1="-24.1" x2="132.1" y2="-84.1"/>
									<line class="st2" x1="72.1" y1="-18.1" x2="138.1" y2="-84.1"/>
									<line class="st2" x1="72.1" y1="-12.1" x2="144.1" y2="-84.1"/>
									<line class="st2" x1="72.1" y1="-6.1" x2="150.1" y2="-84.1"/>
									<line class="st2" x1="72.1" y1="-0.1" x2="156.1" y2="-84.1"/>
									<line class="st2" x1="78.1" y1="-0.1" x2="156.1" y2="-78.1"/>
								</g>
								<g>
									<line class="st2" x1="0.1" y1="-0.1" x2="84.1" y2="-84.1"/>
									<line class="st2" x1="6.1" y1="-0.1" x2="84.1" y2="-78.1"/>
								</g>
								<g>
									<line class="st2" x1="144.1" y1="-138.1" x2="162.1" y2="-156.1"/>
									<line class="st2" x1="144.1" y1="-132.1" x2="168.1" y2="-156.1"/>
									<line class="st2" x1="144.1" y1="-126.1" x2="174.1" y2="-156.1"/>
									<line class="st2" x1="144.1" y1="-120.1" x2="180.1" y2="-156.1"/>
									<line class="st2" x1="144.1" y1="-114.1" x2="186.1" y2="-156.1"/>
									<line class="st2" x1="144.1" y1="-108.1" x2="192.1" y2="-156.1"/>
									<line class="st2" x1="144.1" y1="-102.1" x2="198.1" y2="-156.1"/>
									<line class="st2" x1="144.1" y1="-96.1" x2="204.1" y2="-156.1"/>
									<line class="st2" x1="144.1" y1="-90.1" x2="210.1" y2="-156.1"/>
									<line class="st2" x1="144.1" y1="-84.1" x2="216.1" y2="-156.1"/>
									<line class="st2" x1="144.1" y1="-78.1" x2="222.1" y2="-156.1"/>
									<line class="st2" x1="144.1" y1="-72.1" x2="228.1" y2="-156.1"/>
									<line class="st2" x1="150.1" y1="-72.1" x2="228.1" y2="-150.1"/>
								</g>
								<g>
									<line class="st2" x1="72.1" y1="-138.1" x2="90.1" y2="-156.1"/>
									<line class="st2" x1="72.1" y1="-132.1" x2="96.1" y2="-156.1"/>
									<line class="st2" x1="72.1" y1="-126.1" x2="102.1" y2="-156.1"/>
									<line class="st2" x1="72.1" y1="-120.1" x2="108.1" y2="-156.1"/>
									<line class="st2" x1="72.1" y1="-114.1" x2="114.1" y2="-156.1"/>
									<line class="st2" x1="72.1" y1="-108.1" x2="120.1" y2="-156.1"/>
									<line class="st2" x1="72.1" y1="-102.1" x2="126.1" y2="-156.1"/>
									<line class="st2" x1="72.1" y1="-96.1" x2="132.1" y2="-156.1"/>
									<line class="st2" x1="72.1" y1="-90.1" x2="138.1" y2="-156.1"/>
									<line class="st2" x1="72.1" y1="-84.1" x2="144.1" y2="-156.1"/>
									<line class="st2" x1="72.1" y1="-78.1" x2="150.1" y2="-156.1"/>
									<line class="st2" x1="72.1" y1="-72.1" x2="156.1" y2="-156.1"/>
									<line class="st2" x1="78.1" y1="-72.1" x2="156.1" y2="-150.1"/>
									<line class="st2" x1="84.1" y1="-72.1" x2="156.1" y2="-144.1"/>
									<line class="st2" x1="90.1" y1="-72.1" x2="156.1" y2="-138.1"/>
									<line class="st2" x1="96.1" y1="-72.1" x2="156.1" y2="-132.1"/>
									<line class="st2" x1="102.1" y1="-72.1" x2="156.1" y2="-126.1"/>
									<line class="st2" x1="108.1" y1="-72.1" x2="156.1" y2="-120.1"/>
									<line class="st2" x1="114.1" y1="-72.1" x2="156.1" y2="-114.1"/>
									<line class="st2" x1="120.1" y1="-72.1" x2="156.1" y2="-108.1"/>
									<line class="st2" x1="126.1" y1="-72.1" x2="156.1" y2="-102.1"/>
									<line class="st2" x1="132.1" y1="-72.1" x2="156.1" y2="-96.1"/>
									<line class="st2" x1="138.1" y1="-72.1" x2="156.1" y2="-90.1"/>
									<line class="st2" x1="144.1" y1="-72.1" x2="156.1" y2="-84.1"/>
								</g>
								<g>
									<line class="st2" x1="0.1" y1="-72.1" x2="84.1" y2="-156.1"/>
									<line class="st2" x1="6.1" y1="-72.1" x2="84.1" y2="-150.1"/>
									<line class="st2" x1="12.1" y1="-72.1" x2="84.1" y2="-144.1"/>
									<line class="st2" x1="18.1" y1="-72.1" x2="84.1" y2="-138.1"/>
									<line class="st2" x1="24.1" y1="-72.1" x2="84.1" y2="-132.1"/>
									<line class="st2" x1="30.1" y1="-72.1" x2="84.1" y2="-126.1"/>
									<line class="st2" x1="36.1" y1="-72.1" x2="84.1" y2="-120.1"/>
									<line class="st2" x1="42.1" y1="-72.1" x2="84.1" y2="-114.1"/>
									<line class="st2" x1="48.1" y1="-72.1" x2="84.1" y2="-108.1"/>
									<line class="st2" x1="54.1" y1="-72.1" x2="84.1" y2="-102.1"/>
									<line class="st2" x1="60.1" y1="-72.1" x2="84.1" y2="-96.1"/>
									<line class="st2" x1="66.1" y1="-72.1" x2="84.1" y2="-90.1"/>
									<line class="st2" x1="72.1" y1="-72.1" x2="84.1" y2="-84.1"/>
								</g>
								<g>
									<line class="st2" x1="144.1" y1="-144.1" x2="228.1" y2="-228.1"/>
									<line class="st2" x1="150.1" y1="-144.1" x2="228.1" y2="-222.1"/>
								</g>
								<g>
									<line class="st2" x1="72.1" y1="-144.1" x2="156.1" y2="-228.1"/>
									<line class="st2" x1="78.1" y1="-144.1" x2="156.1" y2="-222.1"/>
									<line class="st2" x1="84.1" y1="-144.1" x2="156.1" y2="-216.1"/>
									<line class="st2" x1="90.1" y1="-144.1" x2="156.1" y2="-210.1"/>
									<line class="st2" x1="96.1" y1="-144.1" x2="156.1" y2="-204.1"/>
									<line class="st2" x1="102.1" y1="-144.1" x2="156.1" y2="-198.1"/>
									<line class="st2" x1="108.1" y1="-144.1" x2="156.1" y2="-192.1"/>
									<line class="st2" x1="114.1" y1="-144.1" x2="156.1" y2="-186.1"/>
									<line class="st2" x1="120.1" y1="-144.1" x2="156.1" y2="-180.1"/>
									<line class="st2" x1="126.1" y1="-144.1" x2="156.1" y2="-174.1"/>
									<line class="st2" x1="132.1" y1="-144.1" x2="156.1" y2="-168.1"/>
									<line class="st2" x1="138.1" y1="-144.1" x2="156.1" y2="-162.1"/>
									<line class="st2" x1="144.1" y1="-144.1" x2="156.1" y2="-156.1"/>
								</g>
								<g>
									<line class="st2" x1="0.1" y1="-144.1" x2="84.1" y2="-228.1"/>
									<line class="st2" x1="6.1" y1="-144.1" x2="84.1" y2="-222.1"/>
									<line class="st2" x1="12.1" y1="-144.1" x2="84.1" y2="-216.1"/>
									<line class="st2" x1="18.1" y1="-144.1" x2="84.1" y2="-210.1"/>
									<line class="st2" x1="24.1" y1="-144.1" x2="84.1" y2="-204.1"/>
									<line class="st2" x1="30.1" y1="-144.1" x2="84.1" y2="-198.1"/>
									<line class="st2" x1="36.1" y1="-144.1" x2="84.1" y2="-192.1"/>
									<line class="st2" x1="42.1" y1="-144.1" x2="84.1" y2="-186.1"/>
									<line class="st2" x1="48.1" y1="-144.1" x2="84.1" y2="-180.1"/>
									<line class="st2" x1="54.1" y1="-144.1" x2="84.1" y2="-174.1"/>
									<line class="st2" x1="60.1" y1="-144.1" x2="84.1" y2="-168.1"/>
									<line class="st2" x1="66.1" y1="-144.1" x2="84.1" y2="-162.1"/>
									<line class="st2" x1="72.1" y1="-144.1" x2="84.1" y2="-156.1"/>
								</g>
							</g>
						</g>
					</g>
				</g>
			</g>
		</g>
	</g>
</pattern>
<g id="Layer_1">
	<g id="Spaces">
		<g id="employee_areas">
			
				<pattern  id="SVGID_00000047743056008116740810000013331503836659785899_" xlink:href="#SVGID_1_" patternTransform="matrix(1 0 0 1 -741.6 52775.4961)">
			</pattern>
			
				<polyline style="opacity:0.45;fill:url(#SVGID_00000047743056008116740810000013331503836659785899_);stroke:#424343;stroke-miterlimit:10;enable-background:new    ;" points="
				35.7,536.1 3.1,604 118.2,658.5 119.1,823.1 194.1,859.4 195.8,733.7 286,733.4 285.3,618 278.8,618.2 221.6,617.7 221.8,443.5 
				167.9,443.7 167.6,538.1 35.7,536.1 			"/>
		</g>
		<line class="st4" x1="286.6" y1="215.4" x2="286.6" y2="294.5"/>
		<path id="cafe_00000052796716991338462910000004400667937314557858_" class="st5" d="M286.6,218.6l-167.5-0.2v-84h168L286.6,218.6
			z"/>
		<path id="_x31_25" class="st6" d="M285.9,733.6l-92.3,0.1l-0.1,125.7l91.6,43.2L285.9,733.6z"/>
		<polyline id="PAR" class="st7" points="166.9,539.1 166.9,443.4 166.9,445 79.6,444.9 36.2,536.1 166.1,537.1 		"/>
		<path id="DHC" class="st8" d="M523.2,691.9l-80.3,0.1l-0.2-23.1h-29.9l0.5-52l-48.6,0.1l0.1,160.9L524,721.4L523.2,691.9z"/>
		<path id="children_x27_s_room" class="st8" d="M438.8,463.3l85.6,0.4L680.8,138l-93.9-1.6l-13-16l-213.2,15.3l0.8,226.9
			 M361.3,361.3l78.9,102.8"/>
	</g>
	<g id="restroom">
		<g id="restroom_00000067921546007013965380000012687461363368965267_">
			<rect x="121.5" y="219.4" class="st9" width="73.1" height="74.8"/>
			<path class="st10" d="M167.5,244.9c1.2,0,2.1-0.9,2.1-2.1s-0.9-2.1-2.1-2.1s-2.1,0.9-2.1,2.1C165.3,244,166.3,244.9,167.5,244.9z
				"/>
			<path class="st10" d="M173.3,253.2l-1.8-6.2c-0.4-1.2-1.3-1.6-2.6-1.6l0,0H166l0,0c-1.3,0-2.1,0.4-2.6,1.6l-1.8,6.2
				c-0.1,0.4,0.1,0.8,0.7,0.9c0.4,0.1,0.9-0.1,1-0.5l1.6-5.4h0.4l-2.7,9.5h2.6v6.7c0,0.5,0.5,1,1,1s1-0.5,1-1v-6.7h0.5v6.7
				c0,0.5,0.5,1,1,1s1-0.5,1-1v-6.7h2.6l-2.7-9.5h0.4l1.6,5.4c0.1,0.4,0.5,0.7,1,0.5C173.1,254,173.4,253.6,173.3,253.2z"/>
			<path class="st10" d="M146.3,244.9c1.2,0,2.1-0.9,2.1-2.1s-0.9-2.1-2.1-2.1c-1.2,0-2.1,0.9-2.1,2.1
				C144,244,145.1,244.9,146.3,244.9z"/>
			<path class="st10" d="M149,245.4h-5.5c-1.3,0-2.4,1-2.4,2.4v6.6c0,0.5,0.4,0.9,0.9,0.9s0.9-0.4,0.9-0.9v-5.8h0.5v6.7v9.1
				c0,0.7,0.5,1.2,1.2,1.2s1.2-0.5,1.2-1.2v-9.1h0.5v9.1c0,0.7,0.5,1.2,1.2,1.2s1.2-0.5,1.2-1.2v-9.1v-6.7h0.5v5.8
				c0,0.5,0.4,0.9,0.9,0.9s0.9-0.4,0.9-0.9v-6.6C151.4,246.5,150.3,245.4,149,245.4z"/>
			<rect x="156.1" y="240.7" class="st10" width="2.4" height="24.7"/>
		</g>
		<g id="restroom_00000129203183757696906870000009799256100089178502_">
			<circle class="st9" cx="585.3" cy="309.9" r="10"/>
			<g id="Layer_1_00000043417269205140031930000013075138157533666726_">
				<g>
					<g>
						<g>
							<path class="st10" d="M580.7,305.9c0.5,0,1.1-0.5,1.1-1s-0.5-0.9-1.1-0.9c-0.5,0-1,0.4-1,0.9S580.1,305.9,580.7,305.9z"/>
							<path class="st10" d="M582,306.1h-2.6c-0.6,0-1.1,0.5-1.1,1.1v3.2c0,0.2,0.2,0.4,0.4,0.4s0.4-0.2,0.4-0.4v-2.8h0.2v3.2v4.3
								c0,0.3,0.3,0.5,0.5,0.5c0.3,0,0.5-0.3,0.5-0.5v-4.3h0.3v4.3c0,0.3,0.3,0.5,0.5,0.5c0.3,0,0.5-0.3,0.5-0.5v-4.3v-3.2h0.2v2.7
								c0,0.2,0.2,0.4,0.4,0.4s0.4-0.2,0.4-0.4v-3.2C583.1,306.6,582.6,306.1,582,306.1z"/>
						</g>
						<g>
							<path class="st10" d="M589.4,305.9c0.5,0,1-0.5,1-1s-0.5-1-1-1c-0.5,0.1-1.1,0.5-1.1,1S588.9,305.9,589.4,305.9z"/>
							<path class="st10" d="M592.2,309.9l-0.8-3c-0.2-0.5-0.6-0.7-1.3-0.7l0,0h-1.4l0,0c-0.6,0-1.1,0.2-1.3,0.7l-0.8,3
								c-0.1,0.2,0.1,0.4,0.3,0.5s0.4-0.1,0.5-0.2l0.7-2.6h0.2l-1.3,4.5h1.3v3.3c0,0.3,0.2,0.5,0.5,0.5s0.5-0.2,0.5-0.5v-3.3h0.2
								v3.3c0,0.3,0.2,0.5,0.5,0.5s0.5-0.2,0.5-0.5v-3.3h1.3l-1.3-4.6h0.2l0.7,2.6c0.1,0.2,0.3,0.3,0.5,0.2
								C592.1,310.3,592.3,310,592.2,309.9z"/>
						</g>
					</g>
					<rect x="584.7" y="303.9" class="st10" width="1.1" height="11.8"/>
				</g>
			</g>
		</g>
		<g id="restroom_00000093154083196299017300000003324237930340482739_">
			<rect x="443.8" y="616.3" class="st9" width="78.3" height="74.5"/>
			<g>
				<g>
					<g>
						<path class="st10" d="M472.3,645.4c1.2,0,2.1-0.9,2.1-2c0-1.2-0.9-2-2.1-2s-2.1,0.9-2.1,2C470,644.6,471.1,645.4,472.3,645.4z
							"/>
						<path class="st10" d="M475.1,645.9h-5.6c-1.3,0-2.4,1-2.4,2.3v6.5c0,0.5,0.4,0.9,0.9,0.9s0.9-0.4,0.9-0.9V649h0.5v6.6v8.9
							c0,0.7,0.5,1.2,1.2,1.2s1.2-0.5,1.2-1.2v-8.9h0.5v8.9c0,0.7,0.5,1.2,1.2,1.2s1.2-0.5,1.2-1.2v-8.9V649h0.5v5.7
							c0,0.5,0.4,0.9,0.9,0.9s0.9-0.4,0.9-0.9v-6.5C477.5,647,476.4,645.9,475.1,645.9z"/>
					</g>
					<g>
						<path class="st10" d="M493.9,645.4c1.2,0,2.1-0.9,2.1-2c0-1.2-0.9-2-2.1-2s-2.1,0.9-2.1,2
							C491.7,644.6,492.7,645.4,493.9,645.4z"/>
						<path class="st10" d="M499.8,653.5l-1.8-6.1c-0.4-1.2-1.3-1.5-2.6-1.5l0,0h-2.9l0,0c-1.3,0-2.1,0.4-2.6,1.5l-1.8,6.1
							c-0.1,0.4,0.1,0.8,0.7,0.9c0.4,0.1,0.9-0.1,1-0.5l1.6-5.3h0.4l-2.7,9.3h2.6v6.6c0,0.5,0.5,1,1,1s1-0.5,1-1v-6.6h0.5v6.6
							c0,0.5,0.5,1,1,1s1-0.5,1-1v-6.6h2.6l-2.7-9.3h0.4l1.6,5.3c0.1,0.4,0.5,0.7,1,0.5S499.9,653.9,499.8,653.5z"/>
					</g>
				</g>
				<rect x="482.4" y="641.4" class="st10" width="2.4" height="24"/>
			</g>
		</g>
	</g>
	<g id="escalator_00000150794383660195744430000003786862563213663129_">
		<rect x="371.4" y="465" class="st11" width="34" height="107.7"/>
		<g>
			<g>
				<g>
					<path class="st12" d="M385.1,503.7c1.6,0,2.8-1.4,2.8-2.8c0-1.6-1.4-2.8-2.8-2.8c-1.6,0-2.8,1.4-2.8,2.8
						C382.2,502.3,383.6,503.7,385.1,503.7z"/>
					<path class="st12" d="M388.2,507.6c0-1.6-1.4-3-3-3s-3,1.4-3,3v6.8l6-6V507.6L388.2,507.6z"/>
					<path class="st12" d="M398.8,506.7h-5.3c-0.9,0-1.7,0.4-2.4,1.1l-9.3,9.3h-4.1c-1.9,0-3.4,1.6-3.4,3.4c0,1.9,1.6,3.4,3.4,3.4
						h5.6c0.9,0,1.7-0.4,2.4-1.1l9.3-9.3h3.8c1.9,0,3.4-1.6,3.4-3.4C402.1,508.2,400.7,506.7,398.8,506.7z"/>
				</g>
				<g>
					<path class="st12" d="M398.3,518.7c0.3,0,0.5,0.1,0.4,0.4l-0.9,4.9c0,0.3-0.3,0.4-0.4,0.5c-0.3,0.1-0.4,0.1-0.5,0l-0.5-0.5
						l-3.6,3.6c-0.3,0.3-0.7,0.3-0.8,0.1l-2.5-2.5c-0.1-0.1-0.1-0.5,0.1-0.8l3.6-3.6l-0.5-0.5c-0.1-0.1-0.1-0.4,0-0.5
						c0.1-0.3,0.4-0.4,0.5-0.4L398.3,518.7z"/>
				</g>
			</g>
		</g>
	</g>
	<g id="elevator">
		
			<rect x="444.4" y="469.3" transform="matrix(1.787199e-03 -1 1 1.787199e-03 -25.1489 930.3616)" class="st11" width="18.1" height="16.9"/>
		
			<rect x="444.3" y="494.2" transform="matrix(1.787199e-03 -1 1 1.787199e-03 -50.0975 955.1684)" class="st11" width="18.1" height="16.9"/>
		
			<rect x="444.4" y="543.3" transform="matrix(1.787199e-03 -1 1 1.787199e-03 -99.1634 1004.2149)" class="st11" width="18.1" height="16.9"/>
		
			<rect x="444.3" y="568.2" transform="matrix(1.787199e-03 -1 1 1.787199e-03 -124.1497 1028.9835)" class="st11" width="18.1" height="16.9"/>
		<line class="st13" x1="464.1" y1="465.9" x2="464.1" y2="592.4"/>
		<g>
			<g>
				<path class="st14" d="M447,513.6c-0.2-0.2-0.4-0.3-0.6-0.3s-0.5,0.1-0.6,0.3c-0.5,0.5-1.4,1.4-2.7,2.7c-0.4,0.4-0.4,1,0,1.3
					c0.3,0.3,0.9,0.3,1.2,0l1.1-1.1v3.5c0,0.5,0.4,0.9,0.9,0.9h0.1c0.5,0,0.9-0.4,0.9-0.9v-3.5l1.1,1.1c0.3,0.3,0.9,0.3,1.2,0l0,0
					c0.3-0.3,0.3-0.9,0-1.2C448.3,514.9,447.6,514.2,447,513.6z"/>
				<path class="st14" d="M454.8,520.6c0.2,0.2,0.4,0.3,0.6,0.3s0.5-0.1,0.6-0.3c0.5-0.5,1.4-1.4,2.7-2.7c0.4-0.4,0.4-1,0-1.3
					c-0.3-0.3-0.9-0.3-1.2,0l-1.1,1.1v-3.5c0-0.5-0.4-0.9-0.9-0.9h-0.1c-0.5,0-0.9,0.4-0.9,0.9v3.5l-1.1-1.1c-0.3-0.3-0.9-0.3-1.2,0
					l0,0c-0.3,0.3-0.3,0.9,0,1.2C453.5,519.3,454.2,520,454.8,520.6z"/>
			</g>
			<g>
				<g>
					<path class="st14" d="M454.2,527.6c0.5,0,1-0.4,1-1c0-0.5-0.4-1-1-1c-0.5,0-1,0.4-1,1C453.3,527.1,453.7,527.6,454.2,527.6z"/>
					<path class="st14" d="M455.5,527.7h-2.4c-0.6,0-1,0.5-1,1v3c0,0.2,0.2,0.4,0.4,0.4c0.2,0,0.4-0.2,0.4-0.4v-2.6h0.2v3v4.1
						c0,0.3,0.2,0.6,0.6,0.6c0.3,0,0.6-0.2,0.6-0.6v-4.1h0.2v4.1c0,0.3,0.2,0.6,0.6,0.6c0.3,0,0.6-0.2,0.6-0.6v-4.1v-3h0.2v2.6
						c0,0.2,0.2,0.4,0.4,0.4c0.2,0,0.4-0.2,0.4-0.4v-3C456.5,528.2,456,527.7,455.5,527.7z"/>
				</g>
				<path class="st14" d="M448,527.6c0.5,0,1-0.4,1-1c0-0.5-0.4-1-1-1c-0.5,0-1,0.4-1,1C447,527.1,447.4,527.6,448,527.6z"/>
				<path class="st14" d="M450.6,531.3l-0.8-2.8c-0.2-0.5-0.6-0.7-1.2-0.7l0,0h-1.3l0,0c-0.6,0-1,0.2-1.2,0.7l-0.8,2.8
					c-0.1,0.2,0.1,0.4,0.3,0.4c0.2,0.1,0.4,0,0.5-0.2l0.7-2.5h0.2l-1.2,4.3h1.2v3c0,0.3,0.2,0.5,0.5,0.5s0.5-0.2,0.5-0.5v-3h0.2v3
					c0,0.3,0.2,0.5,0.5,0.5s0.5-0.2,0.5-0.5v-3h1.2l-1.2-4.3h0.2l0.7,2.5c0.1,0.2,0.3,0.3,0.5,0.2
					C450.5,531.6,450.6,531.4,450.6,531.3z"/>
			</g>
			<g>
				<path class="st14" d="M457.1,540.2h-12.4c-2.5,0-4.6-2.6-4.6-5.7V528c0-3.2,2.1-5.7,4.6-5.7H457c2.5,0,4.6,2.6,4.6,5.7v6.5
					C461.6,537.6,459.6,540.2,457.1,540.2z M444.7,524.3c-1.6,0-2.9,1.6-2.9,3.6v6.5c0,2,1.3,3.6,2.9,3.6H457c1.6,0,2.9-1.6,2.9-3.6
					v-6.5c0-2-1.3-3.6-2.9-3.6H444.7z"/>
			</g>
		</g>
	</g>
	<g id="stairs_00000032626799022009418030000006004862700355200132_">
		<g>
			<path class="st14" d="M473.3,565.5c1,0,1.9-0.8,1.9-1.9c0-1-0.8-1.9-1.9-1.9c-1,0-1.9,0.8-1.9,1.9
				C471.5,564.7,472.3,565.5,473.3,565.5z"/>
			<path class="st14" d="M469.9,571.4c0.6,0,1.1-0.4,1.1-1v-1.2l0.6-0.4v3v0.6l-1.8,6.9c-0.2,0.5,0.2,1.1,0.7,1.2
				c0.6,0.2,1.2-0.1,1.4-0.7l1.6-6.4h1.6v2.1c0,0.6,0.5,1,1.1,1s1.1-0.4,1.1-1v-3.1c0-0.6-0.5-1-1.1-1l0,0l0,0h-2.4v-1.9l0.6,0.6
				c0.2,0.2,0.5,0.4,0.9,0.4l0,0h2c0.6,0,1.1-0.4,1.1-1s-0.5-1-1.1-1h-1.6l-2-2.2l-0.1-0.1c-0.1-0.1-0.2-0.3-0.4-0.4l0,0h-0.1l0,0
				H473l0,0c0,0,0,0-0.1,0l0,0c0,0,0,0-0.1,0l0,0c0,0,0,0-0.1,0l0,0l0,0l0,0c0,0,0,0-0.1,0c0,0,0,0-0.1,0l0,0c0,0,0,0-0.1,0l0,0
				c0,0,0,0-0.1,0l0,0c0,0,0,0-0.1,0l0,0c0,0,0,0-0.1,0l0,0c0,0,0,0-0.1,0l0,0l-2.8,2c-0.3,0.2-0.4,0.5-0.4,0.8l0,0v1.7
				C468.8,571,469.2,571.4,469.9,571.4z"/>
			<path class="st14" d="M490.4,568h-5.1c-0.2,0-0.3,0.2-0.4,0.4v4.7h-4.7c-0.2,0-0.3,0.2-0.4,0.4v5h-4.9c-0.2,0-0.3,0.2-0.4,0.4
				v4.6h-4.7c-0.2,0-0.3,0.2-0.4,0.4v4.4c0,0.2,0.2,0.3,0.4,0.4h20.5c0.2,0,0.3-0.2,0.4-0.4l-0.1-19.8
				C490.7,568.2,490.6,568.1,490.4,568z"/>
		</g>
	</g>
	<g id="circ">
		<path class="st15" d="M257.5,459.9l-16.2-2.4l1.1-7.2l16.2,2.4L257.5,459.9z M258.6,452.7L243.1,557l8.6,1.3L267.2,454
			L258.6,452.7z M272.5,561.3l-29.4-4.4l-1.1,7.2l29.4,4.4L272.5,561.3z M263.9,560l-6.4,42.7l8.6,1.3l6.4-42.7L263.9,560z"/>
	</g>
	<path id="wepa" class="st16" d="M252.5,399.4c5.8-11,18.4-15.2,29.4-9.5c11,5.8,15.2,19.3,9.5,30.3c-5.8,11-18.4,15.2-29.4,9.5
		C250.9,424,246.7,410.4,252.5,399.4z"/>
	<g id="printers">
		<g>
			<path d="M269.1,414.4h2.2h3.2c0.3,0,0.5-0.3,0.5-0.5s-0.3-0.5-0.5-0.5h-5.3c-0.3,0-0.5,0.3-0.5,0.5
				C268.6,414.1,268.7,414.4,269.1,414.4z"/>
			<path d="M274.5,415.7h-5.3c-0.3,0-0.5,0.3-0.5,0.5c0,0.3,0.3,0.5,0.5,0.5h5.2c0.3,0,0.5-0.3,0.5-0.5
				C275.1,416,274.9,415.7,274.5,415.7z"/>
		</g>
		<path d="M279.1,404.9H278v-4c0-0.3-0.3-0.5-0.5-0.5h-11.2c-0.3,0-0.5,0.3-0.5,0.5v4h-1.1c-1,0-1.8,0.9-1.8,1.8v6.4
			c0,1,0.9,1.8,1.8,1.8h1.1v4c0,0.3,0.2,0.5,0.5,0.5h11.2c0.3,0,0.5-0.3,0.5-0.5V415h1.1c1,0,1.8-0.9,1.8-1.8v-6.4
			C280.9,405.7,280.1,404.9,279.1,404.9z M264.7,407.6c-0.4,0-0.6-0.3-0.6-0.6c0-0.4,0.3-0.6,0.6-0.6c0.3,0,0.6,0.3,0.6,0.6
			C265.3,407.2,265,407.6,264.7,407.6z M266.8,401.5h10v3.3h-10V401.5z M266,406.9c0-0.4,0.3-0.6,0.6-0.6s0.6,0.3,0.6,0.6
			c0,0.4-0.3,0.6-0.6,0.6S266,407.2,266,406.9z M276.9,414.9v3.3h-10v-6.6h10V414.9L276.9,414.9z"/>
	</g>
	<g id="coffee">
		<path d="M146.1,171c0.4-0.3,0.8-0.2,1.2-0.2c1.8,0,3.7,0,5.6,0c4.2,0,8.2,0,12.4,0c0.5,0,1-0.1,1.4,0.2c0.3,0.4,0,0.9,0.1,1.3
			c0.2,0.3,0.7,0.2,1,0.3c1.7,0.3,3.1,1.7,3.2,3.5c0.1,1.3-0.4,2.5-1.3,3.4c-0.9,0.9-2.1,1.3-3.3,1.7c-1,0.2-2,0.2-3,0.2
			c-0.6,0-1,0.1-1.4,0.5c-0.7,0.7-1.5,1-2.5,1c-1.9-0.1-3.9-0.1-5.8,0c-1.1,0-1.8-0.3-2.6-1.1c-1.6-1.6-2.7-3.4-3.6-5.4
			c-0.6-1.4-1-2.9-1.2-4.4C146,171.5,146.1,171.3,146.1,171z M164.3,178.9c1.4,0.2,3-0.3,3.9-1.2c0.1-0.1,0.2-0.2,0.3-0.3
			c0.8-1.2,0.3-2.5-1-2.8c-0.4-0.1-0.8-0.2-1.2,0.1c-0.2,0.7-0.5,1.4-0.8,2.1C165.1,177.5,164.7,178.3,164.3,178.9z"/>
		<path d="M148,184.1c0.3-0.1,0.5-0.1,0.7-0.1c5.3,0,10.7,0,16.1,0c0.1,0,0.2,0.1,0.2,0.1l0.1,0.1c-0.2,0.6-0.8,1.8-1.2,2.1
			c-0.2,0.2-0.4,0.2-0.7,0.2c-0.3,0.1-0.7,0-1,0c-3.7,0-7.5,0-11.2,0c-0.2,0-0.6,0-0.8,0c-0.5,0-0.8-0.2-1.1-0.7
			C148.6,185.4,148.2,184.9,148,184.1z"/>
		<path d="M158.7,168.4c0.3-1.3-0.2-2.5-0.7-3.7c-0.9-1.7-0.6-3.8,0.7-5.3c0.1-0.2,0.2-0.2,0.6-0.5c-0.5,1.5,0,2.6,0.6,3.7
			c0.7,1.3,0.8,2.7,0.2,4.1C159.8,167.3,159.4,168,158.7,168.4L158.7,168.4z"/>
		<path d="M153.8,168.4c0.3-1,0.2-2-0.3-2.9c-0.2-0.2-0.3-0.6-0.4-0.8c-0.9-1.9-0.5-4.1,1.2-5.5c0,0.1,0.1,0.2,0.1,0.3
			c-0.2,0.8,0,1.6,0.3,2.3c0.2,0.3,0.3,0.7,0.6,1.1c0.8,1.7,0.6,3.9-0.8,5.3C154.2,168.2,154,168.2,153.8,168.4L153.8,168.4z"/>
		<path d="M158.7,168.4L158.7,168.4L158.7,168.4z"/>
		<polygon points="153.8,168.3 153.8,168.4 153.8,168.4 		"/>
	</g>
	<g id="Text">
		<text transform="matrix(1 0 0 1 416.013 311.4999)" class="st17 st18">Children’s</text>
		<text transform="matrix(1 0 0 1 435.613 337.9)" class="st17 st18">Room</text>
		<text transform="matrix(1 0 0 1 181.319 173.9156)" class="st17 st19">Nirvana</text>
		<text transform="matrix(1 0 0 1 181.319 192.9156)" class="st17 st19">Soul</text>
		<text transform="matrix(1 0 0 1 84.3584 503.8898)" class="st17 st19">Partners</text>
		<text transform="matrix(1 0 0 1 64.3195 525.4898)" class="st17 st19">in Reading</text>
		<text transform="matrix(1 0 0 1 372.1751 704.3572)" class="st17 st20">Digital</text>
		<text transform="matrix(1 0 0 1 372.1751 722.4578)" class="st17 st20">Humanities</text>
		<text transform="matrix(1 0 0 1 372.1751 740.5573)" class="st17 st20">Center</text>
		<text transform="matrix(1 0 0 1 217.2245 803.3502)" class="st17 st20">Room</text>
		<text transform="matrix(1 0 0 1 226.2245 824.9502)" class="st17 st20">125</text>
		<text transform="matrix(1 0 0 1 372.1754 681.786)" class="st17 st21">113</text>
	</g>
	<g id="North_00000164482264290555914440000013737384098679011727_">
		<polygon class="st22" points="654.8,25.3 626.5,20.4 649.9,53.6 		"/>
		<text transform="matrix(0.6 0.8 -0.8 0.6 652.0501 14.7806)" class="st22 st23 st24">N</text>
		<text transform="matrix(0.8983 0.4394 -0.4394 0.8983 544.4725 22.8464)" class="st25 st26 st27">San Fernando Street</text>
		<line class="st28" x1="533.1" y1="20.9" x2="671.5" y2="88.6"/>
		<line class="st28" x1="539.5" y1="6.6" x2="677.9" y2="74.4"/>
		<text transform="matrix(0.4394 -0.8983 0.8983 0.4394 21.8458 243.3617)" class="st25 st26 st27">Fourth Street</text>
		<line class="st28" x1="14.3" y1="265.5" x2="71.8" y2="148"/>
		<line class="st28" x1="1.1" y1="259" x2="58.6" y2="141.5"/>
	</g>
	<g id="floor_outline">
		<line class="st29" x1="681.1" y1="137.8" x2="524.8" y2="462.7"/>
		<line class="st29" x1="3.1" y1="603.6" x2="119.6" y2="361.3"/>
		<line class="st29" x1="118.2" y1="658.7" x2="2.9" y2="603.9"/>
		<line class="st29" x1="118.9" y1="823.5" x2="285.5" y2="903.7"/>
		<line class="st29" x1="325.3" y1="3" x2="263.1" y2="133.7"/>
		<line class="st29" x1="468" y1="71.6" x2="325.3" y2="3"/>
		<line class="st29" x1="119.5" y1="134.6" x2="263.1" y2="133.7"/>
		<line class="st29" x1="525.4" y1="40.1" x2="469.8" y2="71.8"/>
		<line class="st29" x1="525.4" y1="123.2" x2="525.4" y2="40.1"/>
		<line class="st29" x1="525.4" y1="123.2" x2="573.4" y2="119.9"/>
		<line class="st29" x1="586.2" y1="135.7" x2="573.4" y2="119.9"/>
		<line class="st29" x1="681.1" y1="137.5" x2="587.2" y2="136.7"/>
		<line class="st29" x1="119.3" y1="134.8" x2="119.9" y2="360.8"/>
		<line class="st29" x1="464.1" y1="462.7" x2="524" y2="462.7"/>
		<line class="st29" x1="464" y1="555.1" x2="464.1" y2="463"/>
		<line class="st29" x1="464" y1="555.8" x2="524.1" y2="555.8"/>
		<line class="st29" x1="524.1" y1="721.6" x2="524.1" y2="555.8"/>
		<line class="st29" x1="286.2" y1="828.7" x2="285.5" y2="903.7"/>
		<line class="st29" x1="118.9" y1="823.5" x2="118.2" y2="658.7"/>
		<line class="st29" x1="316.4" y1="828.1" x2="286.2" y2="827.7"/>
		<line class="st29" x1="523.2" y1="721.7" x2="364.5" y2="778.9"/>
		<line class="st29" x1="364.4" y1="779.1" x2="316.7" y2="827.6"/>
		<path class="st30" d="M265.9,126"/>
	</g>
	<g id="Doors">
		<line class="st31" x1="525.7" y1="75.7" x2="525.7" y2="101.5"/>
		<line class="st31" x1="309.7" y1="35.2" x2="296" y2="64.5"/>
		<line class="st31" x1="362.3" y1="20.4" x2="389.2" y2="33.2"/>
		<line class="st32" x1="287.1" y1="748.2" x2="287.2" y2="776.5"/>
		<line class="st31" x1="507.9" y1="728.2" x2="483" y2="736.9"/>
		<line class="st31" x1="383.6" y1="393.2" x2="399.1" y2="413.4"/>
		<line class="st31" x1="289.1" y1="173.6" x2="289" y2="199.1"/>
		<line class="st31" x1="135.5" y1="443" x2="109.9" y2="443"/>
		<line class="st31" x1="352.5" y1="791.6" x2="327.2" y2="817.4"/>
		<line class="st31" x1="224.9" y1="133.5" x2="199.3" y2="133.6"/>
		<line class="st32" x1="363.5" y1="741.6" x2="363.6" y2="769.9"/>
	</g>
	<g id="Entrances">
		<text transform="matrix(1 0 0 1 374.3289 851.2615)" class="st17 st33">Campus Entrance</text>
		<text transform="matrix(1 0 0 1 168.5313 16.9589)" class="st17 st34">San Fernando Entrance</text>
		<g>
			<polygon points="276,18.9 271.9,23.4 280.5,31.4 277.2,35.1 294.2,40 288.2,23.3 284.7,26.9 			"/>
		</g>
		<g>
			<polygon points="366.6,837.4 370.9,833.1 362.4,824.8 366,821.2 349,815.9 354.6,832.8 358.2,829.1 			"/>
		</g>
	</g>
	<g id="Emergency_exits">
		<g>
			
				<ellipse transform="matrix(0.1602 -0.9871 0.9871 0.1602 -168.4256 1013.8395)" class="st35" cx="511.6" cy="605.9" rx="10" ry="10"/>
			<g>
				<g>
					<path class="st10" d="M517.3,599.7l-3.5-1.2c-0.2-0.1-0.4,0.1-0.4,0.3v0.9H510c-0.1,0-0.3,0.1-0.3,0.3v1.1
						c0.2,0,0.4,0.1,0.5,0.1v-0.9h3.1v10.6h-2.1v0.1c0,0.1,0.1,0.3,0,0.4h2v0.9c0,0.2,0.2,0.4,0.4,0.3l3.5-1.2
						c0.1-0.1,0.2-0.1,0.2-0.3V600C517.5,599.9,517.4,599.8,517.3,599.7z"/>
					<g>
						<g>
							<path class="st10" d="M504.6,610.5h2.2c0.3,0,0.5-0.2,0.7-0.5l0.3-0.9l-1.1-0.9l0,0l-0.3,0.9h-1.7c-0.3,0-0.7,0.3-0.7,0.7
								C503.9,610.2,504.3,610.5,504.6,610.5z"/>
							<path class="st10" d="M509.7,604.1c0.6-0.1,1-0.7,0.9-1.4c-0.1-0.6-0.7-1-1.4-0.9c-0.6,0.1-1,0.7-0.9,1.4
								C508.5,603.9,509.1,604.2,509.7,604.1z"/>
							<path class="st10" d="M505.5,606.9c0.3,0.1,0.6,0,0.7-0.3l0.5-1l0.6-0.2l-0.5,1.9c-0.1,0.3,0,0.5,0.2,0.7l1.9,1.5l0.5,2
								c0.1,0.3,0.3,0.5,0.7,0.5c0.1,0,0.1,0,0.1,0c0.3-0.1,0.6-0.5,0.5-0.8l-0.5-2.3c0-0.1-0.1-0.3-0.2-0.3l-1.2-0.9l0.6-1.7
								l0.6,0.7c0.1,0.1,0.3,0.2,0.4,0.2s0.2,0,0.3-0.1l1.1-0.7c0.3-0.1,0.3-0.5,0.2-0.7c-0.1-0.3-0.5-0.3-0.7-0.2l-0.7,0.4
								l-0.6-0.7c-0.1-0.2-0.3-0.3-0.6-0.4l-1-0.3c-0.3-0.1-0.6-0.1-0.9,0l-1.3,0.4c-0.1,0.1-0.3,0.1-0.3,0.3l-0.5,1.2
								C505.1,606.5,505.2,606.7,505.5,606.9z"/>
						</g>
					</g>
				</g>
			</g>
		</g>
		<g>
			<circle class="st35" cx="594" cy="291.6" r="10"/>
			<g>
				<g>
					<path class="st10" d="M599.7,285.5l-3.5-1.2c-0.2-0.1-0.4,0.1-0.4,0.3v0.9h-3.4c-0.1,0-0.3,0.1-0.3,0.3v1.1
						c0.2,0,0.4,0.1,0.5,0.1v-0.9h3.1v10.6h-2.1v0.1c0,0.1,0.1,0.3,0,0.4h2v0.9c0,0.2,0.2,0.4,0.4,0.3l3.5-1.2
						c0.1-0.1,0.2-0.1,0.2-0.3v-11.2C599.9,285.7,599.8,285.5,599.7,285.5z"/>
					<g>
						<g>
							<path class="st10" d="M587,296.2h2.2c0.3,0,0.5-0.2,0.7-0.5l0.3-0.9l-1.1-0.9l0,0l-0.3,0.9h-1.7c-0.3,0-0.7,0.3-0.7,0.7
								C586.4,295.9,586.7,296.2,587,296.2z"/>
							<path class="st10" d="M592.2,289.8c0.6-0.1,1-0.7,0.9-1.4c-0.1-0.6-0.7-1-1.4-0.9c-0.6,0.1-1,0.7-0.9,1.4
								C590.9,289.6,591.6,289.9,592.2,289.8z"/>
							<path class="st10" d="M587.9,292.6c0.3,0.1,0.6,0,0.7-0.3l0.5-1l0.6-0.2l-0.5,1.9c-0.1,0.3,0,0.5,0.2,0.7l1.9,1.5l0.5,2
								c0.1,0.3,0.3,0.5,0.7,0.5c0.1,0,0.1,0,0.1,0c0.3-0.1,0.6-0.5,0.5-0.8l-0.5-2.3c0-0.1-0.1-0.3-0.2-0.3l-1.2-0.9l0.6-1.7
								l0.6,0.7c0.1,0.1,0.3,0.2,0.4,0.2c0.1,0,0.2,0,0.3-0.1l1.1-0.7c0.3-0.1,0.3-0.5,0.2-0.7c-0.1-0.3-0.5-0.3-0.7-0.2l-0.7,0.4
								l-0.6-0.7c-0.1-0.2-0.3-0.3-0.6-0.4l-1-0.3c-0.3-0.1-0.6-0.1-0.9,0l-1.3,0.4c-0.1,0.1-0.3,0.1-0.3,0.3l-0.5,1.2
								C587.5,292.2,587.6,292.5,587.9,292.6z"/>
						</g>
					</g>
				</g>
			</g>
		</g>
	</g>
	<g id="brandenburg">
		<rect x="209.9" y="233.2" class="st36" width="59.6" height="110.7"/>
		<rect x="130.7" y="304.1" class="st36" width="79.2" height="39.8"/>
		<text transform="matrix(0.8604 -0.5096 0.5096 0.8604 192.9348 323.0307)" class="st17 st27">Brandenburg</text>
		<text transform="matrix(0.8604 -0.5096 0.5096 0.8604 210.6455 329.9746)" class="st17 st27">Browsing</text>
		<text transform="matrix(0.8604 -0.5096 0.5096 0.8604 216.5686 343.8999)" class="st17 st27">Collection</text>
	</g>
	<g id="self_check_out">
		<rect x="189.6" y="350.2" class="st16" width="38" height="35.6"/>
		<g id="checkout_00000021825673645572332570000014184296419070708901_">
			<rect x="204.3" y="363.5" width="0.6" height="9"/>
			<rect x="206.2" y="363.5" width="1" height="9"/>
			<rect x="208.6" y="363.5" width="0.4" height="9"/>
			<rect x="210.2" y="363.5" width="0.7" height="9"/>
			<rect x="212.2" y="363.5" width="0.8" height="9"/>
			<rect x="214.5" y="363.5" width="1" height="9"/>
			<rect x="201.6" y="363.5" width="1.2" height="9"/>
			<polygon points="199.5,361.6 203,361.6 203,360.7 198.6,360.7 198.6,365 199.5,365 			"/>
			<polygon points="217.7,365 218.6,365 218.6,360.7 214.2,360.7 214.2,361.6 217.7,361.6 			"/>
			<polygon points="217.7,370.9 217.7,374.3 214.2,374.3 214.2,375.2 218.6,375.2 218.6,370.9 			"/>
			<polygon points="199.5,370.9 198.6,370.9 198.6,375.2 203,375.2 203,374.3 199.5,374.3 			"/>
		</g>
	</g>
	<g id="hold_shelf">
		<rect x="130.7" y="350.2" class="st16" width="38" height="35.6"/>
		<text transform="matrix(1 0 0 1 131.1562 365.3102)" class="st17 st27">Holds</text>
		<text transform="matrix(1 0 0 1 133.0562 380.3102)" class="st17 st27">Shelf</text>
	</g>
	<g id="security_00000048486265434582297130000018089840482801634187_">
		<circle class="st37" cx="298.1" cy="248.4" r="10"/>
		<circle class="st38" cx="298.1" cy="248.4" r="8.1"/>
		<g>
			<polygon class="st39" points="298,241.7 292,252 304,252 			"/>
			<polygon class="st39" points="304,244.8 292,244.8 298,255.1 			"/>
		</g>
		<g id="security_00000108273052356465173750000007603735780726726797_">
			<circle class="st37" cx="296" cy="651.5" r="10"/>
			<circle class="st38" cx="296" cy="651.5" r="8.1"/>
			<g>
				<polygon class="st39" points="295.9,644.8 289.9,655.1 301.9,655.1 				"/>
				<polygon class="st39" points="301.9,647.9 289.9,647.9 295.9,658.2 				"/>
			</g>
		</g>
	</g>
	<g id="book_drop">
		<g>
			<path d="M285.3,604.8c-0.3,0-0.4,0.2-0.4,0.4v11.1h-10c-0.4,0-0.9-0.3-1-0.6h9.3c0.3,0,0.4-0.2,0.4-0.4s-0.2-0.4-0.4-0.4h-9.4
				c0.2-0.4,0.6-0.7,1-0.7h9.1c0.3,0,0.4-0.2,0.4-0.4v-10.9c0-0.3-0.2-0.4-0.4-0.4h-9.1c-1.1,0-2.1,1-2.1,2.1v10.8l0,0l0,0l0,0
				c0,1.1,1,2.1,2.1,2.1h10.5c0.3,0,0.4-0.2,0.4-0.4v-11.6C285.8,605.1,285.6,604.8,285.3,604.8z M277.1,605.2
				c0-0.1,0.1-0.2,0.2-0.2h5.1c0.1,0,0.2,0.1,0.2,0.2v1.5c0,0.1-0.1,0.2-0.2,0.2h-5.1c-0.1,0-0.2-0.1-0.2-0.2V605.2z M273.8,604.5
				c0-0.6,0.5-1.1,1.1-1.1v10c-0.4,0-0.8,0.1-1.1,0.3C273.8,613.6,273.8,604.5,273.8,604.5z"/>
			<path d="M275.3,614.2c-0.3,0-0.4-0.2-0.4-0.4V603c0-0.3,0.2-0.4,0.4-0.4s0.4,0.2,0.4,0.4v10.8C275.7,614,275.5,614.2,275.3,614.2
				z"/>
		</g>
		<path class="st10" d="M280.5,610.8l-0.8,0.8v-2.5c0-0.2-0.2-0.3-0.3-0.3s-0.3,0.2-0.3,0.3v2.5l-0.8-0.8c-0.1-0.1-0.2-0.1-0.3-0.1
			c-0.1,0-0.2,0-0.3,0.1c-0.2,0.2-0.2,0.3,0,0.5l1.3,1.3c0.1,0.1,0.2,0.1,0.3,0.1s0.2,0,0.3-0.1l1.3-1.3c0.2-0.2,0.2-0.3,0-0.5
			C280.9,610.7,280.6,610.7,280.5,610.8z"/>
	</g>
	<rect id="_x31_5-min_computers" x="363.7" y="608.6" class="st16" width="50.6" height="7.4"/>
	<g>
		<text transform="matrix(1 0 0 1 1.792908e-04 61.7693)" class="st22 st23 st40">G</text>
		<text transform="matrix(1 0 0 1 62.278 20.085)" class="st17 st41">Circulation</text>
		<text transform="matrix(1 0 0 1 62.278 33.285)" class="st17 st41">Information</text>
		<text transform="matrix(1 0 0 1 62.278 46.485)" class="st17 st41">Children’s Services</text>
		<text transform="matrix(1 0 0 1 62.278 59.685)" class="st17 st41">Digital Humanities Center</text>
	</g>
	<g id="help_00000053507882460323947710000005173013969711991960_">
		<circle class="st42" cx="243.8" cy="490.1" r="10"/>
		<g id="help">
			<path class="st10" d="M245.4,496.8c0,0.2-0.1,0.3-0.3,0.3h-2.3c-0.2,0-0.3-0.1-0.3-0.3v-2.3c0-0.2,0.1-0.3,0.3-0.3h2.3
				c0.2,0,0.3,0.1,0.3,0.3V496.8z"/>
			<path class="st10" d="M239.5,486.9c0,0.2,0,0.5,0,0.5c0,0.2,0.1,0.3,0.3,0.3h2c0.2,0,0.3-0.1,0.3-0.3c0-0.1,0.1-2.3,2.4-2.3
				c0.8,0,1.8,0.5,1.8,1.7c0,1.3-2.4,2.4-3,3.6c-0.2,0.4-0.4,0.9-0.4,1.5c0,0.1,0,0.6,0,0.6c0,0.2,0.1,0.3,0.3,0.3h1.9
				c0.2,0,0.3-0.1,0.3-0.3c0,0,0-0.4,0-0.5c0-0.5,0.3-0.9,0.6-1.1c0.1-0.1,0.3-0.2,0.4-0.4c1.1-0.9,2.5-1.9,2.5-3.9
				c0-5-7.6-5.5-9.1-1.1C239.6,486,239.5,486.5,239.5,486.9z"/>
		</g>
	</g>
	<g id="help_00000009578085156437906520000003671329427407633568_">
		<circle class="st43" cx="251.6" cy="586.1" r="10"/>
		<g id="help_00000063606793426723259450000007580580581239885464_">
			<path class="st10" d="M253.2,592.7c0,0.2-0.1,0.3-0.3,0.3h-2.3c-0.2,0-0.3-0.1-0.3-0.3v-2.3c0-0.2,0.1-0.3,0.3-0.3h2.3
				c0.2,0,0.3,0.1,0.3,0.3V592.7z"/>
			<path class="st10" d="M247.2,582.9c0,0.2,0,0.5,0,0.5c0,0.2,0.1,0.3,0.3,0.3h2c0.2,0,0.3-0.1,0.3-0.3c0-0.1,0.1-2.3,2.4-2.3
				c0.8,0,1.8,0.5,1.8,1.7c0,1.3-2.4,2.4-3,3.6c-0.2,0.4-0.4,0.9-0.4,1.5c0,0.1,0,0.6,0,0.6c0,0.2,0.1,0.3,0.3,0.3h1.9
				c0.2,0,0.3-0.1,0.3-0.3c0,0,0-0.4,0-0.5c0-0.5,0.3-0.9,0.6-1.1c0.1-0.1,0.3-0.2,0.4-0.4c1.1-0.9,2.5-1.9,2.5-3.9
				c0-5-7.6-5.5-9.1-1.1C247.3,582,247.2,582.5,247.2,582.9z"/>
		</g>
	</g>
	<g id="computer">
		<path d="M397.8,612.7h-15.9c-0.6,0-1.1-0.5-1.1-1.1v-9.5c0-0.6,0.5-1.1,1.1-1.1h15.9c0.6,0,1.1,0.5,1.1,1.1v9.5
			C398.8,612.2,398.4,612.7,397.8,612.7z"/>
		<path class="st10" d="M382.6,611.1c-0.1,0-0.1-0.1-0.1-0.1v-8.5c0-0.1,0.1-0.1,0.1-0.1h14.6c0.1,0,0.1,0.1,0.1,0.1v8.5
			c0,0.1-0.1,0.1-0.1,0.1H382.6z"/>
		<path d="M393,615l-0.7-0.7c-0.3-0.3-0.4-0.6-0.4-1v-0.9h-4v0.9c0,0.4-0.1,0.7-0.4,1l-0.7,0.7c-0.2,0.2-0.1,0.6,0.3,0.6h5.8
			C393.1,615.6,393.2,615.2,393,615z"/>
	</g>
	<g id="computer_00000126302611109873470970000002923512635295732117_">
		<path d="M264.1,451.1h-15.9c-0.6,0-1.1-0.5-1.1-1.1v-9.5c0-0.6,0.5-1.1,1.1-1.1h15.9c0.6,0,1.1,0.5,1.1,1.1v9.5
			C265.2,450.7,264.7,451.1,264.1,451.1z"/>
		<path class="st10" d="M248.9,449.5c-0.1,0-0.1-0.1-0.1-0.1v-8.5c0-0.1,0.1-0.1,0.1-0.1h14.6c0.1,0,0.1,0.1,0.1,0.1v8.5
			c0,0.1-0.1,0.1-0.1,0.1H248.9z"/>
		<path d="M259.3,453.4l-0.7-0.7c-0.3-0.3-0.4-0.6-0.4-1v-0.9h-4v0.9c0,0.4-0.1,0.7-0.4,1l-0.7,0.7c-0.2,0.2-0.1,0.6,0.3,0.6h5.8
			C259.4,454.1,259.6,453.7,259.3,453.4z"/>
	</g>
</g>
<g id="Layer_2">
	<g id="catalog-only">
		<g id="computer_00000091704875098025709410000011201441452821773443_">
			<path d="M565.3,647.7h-13.7c-0.5,0-0.9-0.4-0.9-0.9v-8.4c0-0.5,0.4-0.9,0.9-0.9h13.7c0.5,0,0.9,0.4,0.9,0.9v8.4
				C566.2,647.3,565.8,647.7,565.3,647.7z"/>
			<path class="st10" d="M552.1,646.3c-0.1,0-0.1-0.1-0.1-0.1v-7.5c0-0.1,0.1-0.1,0.1-0.1h12.6c0.1,0,0.1,0.1,0.1,0.1v7.5
				c0,0.1-0.1,0.1-0.1,0.1H552.1z"/>
			<path d="M561.2,649.7l-0.6-0.6c-0.2-0.2-0.4-0.5-0.4-0.9v-0.8h-3.5v0.8c0,0.3-0.1,0.6-0.4,0.9l-0.6,0.6c-0.2,0.2-0.1,0.5,0.2,0.5
				h5C561.2,650.2,561.4,649.9,561.2,649.7z"/>
		</g>
		<text transform="matrix(0.9845 0 0 1 571.385 642.7711)"><tspan x="0" y="0" class="st14 st17 st44">Catalog-only station/</tspan><tspan x="0" y="9.8" class="st14 st17 st44">15-minute computers</tspan></text>
	</g>
	<g id="employee_areas_00000129926621965621824280000018279696537731636892_">
		
			<pattern  id="SVGID_00000044891872447276254900000017112998707747628732_" xlink:href="#SVGID_0000006578861025418131657" patternTransform="matrix(1 0 0 -1 -243.2 -260803.9219)">
		</pattern>
		
			<rect x="550.7" y="697.6" style="fill:url(#SVGID_00000044891872447276254900000017112998707747628732_);stroke:#ABACAF;stroke-miterlimit:10;" width="16.1" height="16.4"/>
		<text transform="matrix(0.9845 0 0 1 571.2756 708.4078)" class="st14 st17 st44">Employee areas</text>
	</g>
	<g id="printer_x2F_scanner">
		<text transform="matrix(0.9845 0 0 1 571.6458 587.9488)" class="st14 st17 st44">Printer/scanner</text>
		<g id="printers_00000109725479819050364760000008051135581958571711_">
			<g>
				<path d="M556.1,588.6h2.7h2.7c0.3,0,0.5-0.3,0.5-0.5c0-0.3-0.3-0.5-0.5-0.5h-5.3c-0.3,0-0.5,0.3-0.5,0.5
					C555.5,588.3,555.7,588.6,556.1,588.6z"/>
				<path d="M561.3,589.7H556c-0.3,0-0.5,0.3-0.5,0.5c0,0.3,0.3,0.5,0.5,0.5h5.3c0.3,0,0.5-0.3,0.5-0.5
					C561.8,589.9,561.6,589.7,561.3,589.7z"/>
			</g>
			<path d="M565.3,580.4h-0.9V577c0-0.3-0.3-0.5-0.5-0.5h-10.3c-0.3,0-0.5,0.3-0.5,0.5v3.4h-0.9c-0.8,0-1.5,0.7-1.5,1.5v5.5
				c0,0.9,0.7,1.5,1.5,1.5h0.9v3.4c0,0.3,0.2,0.5,0.5,0.5h10.3c0.3,0,0.5-0.3,0.5-0.5V589h0.9c0.8,0,1.5-0.7,1.5-1.5V582
				C566.8,581.2,566.1,580.4,565.3,580.4z M552.2,582.8c-0.3,0-0.6-0.3-0.6-0.6c0-0.3,0.3-0.6,0.6-0.6s0.6,0.3,0.6,0.6
				C552.8,582.5,552.6,582.8,552.2,582.8z M554,577.5h9.3v2.9H554V577.5z M553.5,582.2c0-0.3,0.3-0.6,0.6-0.6s0.6,0.3,0.6,0.6
				c0,0.3-0.3,0.6-0.6,0.6S553.5,582.5,553.5,582.2z M563.3,589v2.9H554v-5.6h9.3V589L563.3,589z"/>
		</g>
	</g>
	<g id="restroom_00000050665370888885764430000007812822050001158819_">
		<g id="restroom_00000070837754240991121940000007007774599678235054_">
			<ellipse class="st9" cx="558.7" cy="685.6" rx="8.1" ry="8.2"/>
			<g id="Layer_1_00000060715158580398953970000009125487124648110722_">
				<g>
					<g>
						<g>
							<path class="st10" d="M555,682.4c0.4,0,0.9-0.4,0.9-0.8s-0.4-0.8-0.9-0.8c-0.4,0-0.8,0.3-0.8,0.8S554.6,682.4,555,682.4z"/>
							<path class="st10" d="M556.1,682.5H554c-0.5,0-0.9,0.4-0.9,0.9v2.6c0,0.2,0.2,0.3,0.3,0.3c0.2,0,0.3-0.2,0.3-0.3v-2.3h0.2
								v2.6v3.5c0,0.3,0.2,0.4,0.4,0.4c0.3,0,0.4-0.2,0.4-0.4v-3.5h0.2v3.5c0,0.3,0.2,0.4,0.4,0.4c0.3,0,0.4-0.2,0.4-0.4v-3.5v-2.6
								h0.2v2.2c0,0.2,0.2,0.3,0.3,0.3c0.2,0,0.3-0.2,0.3-0.3v-2.6C557,682.9,556.6,682.5,556.1,682.5z"/>
						</g>
						<g>
							<path class="st10" d="M562.1,682.4c0.4,0,0.8-0.4,0.8-0.8s-0.4-0.8-0.8-0.8c-0.4,0.1-0.9,0.4-0.9,0.8
								S561.6,682.4,562.1,682.4z"/>
							<path class="st10" d="M564.3,685.6l-0.6-2.5c-0.2-0.4-0.5-0.6-1-0.6l0,0h-1.1l0,0c-0.5,0-0.9,0.2-1,0.6l-0.6,2.5
								c-0.1,0.2,0.1,0.3,0.2,0.4s0.3-0.1,0.4-0.2l0.6-2.1h0.2l-1.1,3.7h1v2.7c0,0.2,0.2,0.4,0.4,0.4s0.4-0.2,0.4-0.4v-2.7h0.2v2.7
								c0,0.2,0.2,0.4,0.4,0.4c0.2,0,0.4-0.2,0.4-0.4v-2.7h1l-1-3.8h0.2l0.6,2.1c0.1,0.2,0.2,0.2,0.4,0.2
								C564.3,685.9,564.4,685.7,564.3,685.6z"/>
						</g>
					</g>
					<rect x="558.2" y="680.7" class="st10" width="0.9" height="9.7"/>
				</g>
			</g>
		</g>
		<text transform="matrix(0.9845 0 0 1 571.6458 688.7847)" class="st14 st17 st44">Restroom</text>
	</g>
	<g id="emergency_exit">
		<g id="exit_00000172421847671536740090000005394806115369917327_">
			<ellipse class="st46" cx="558.7" cy="665.4" rx="8.1" ry="8.2"/>
			<g>
				<g>
					<path class="st10" d="M563.3,660.4l-2.8-1c-0.2-0.1-0.3,0.1-0.3,0.3v0.8h-2.7c-0.1,0-0.2,0.1-0.2,0.2v0.9
						c0.2,0,0.3,0.1,0.4,0.1v-0.8h2.5v8.7h-1.7v0.1c0,0.1,0.1,0.2,0,0.3h1.6v0.8c0,0.2,0.2,0.3,0.3,0.3l2.8-1
						c0.1-0.1,0.2-0.1,0.2-0.3v-9.2C563.5,660.6,563.4,660.5,563.3,660.4z"/>
					<g>
						<g>
							<path class="st10" d="M553.1,669.2h1.8c0.2,0,0.4-0.2,0.5-0.4l0.2-0.7l-0.9-0.7l0,0l-0.2,0.8h-1.4c-0.3,0-0.5,0.2-0.5,0.5
								C552.6,669,552.8,669.2,553.1,669.2z"/>
							<path class="st10" d="M557.2,663.9c0.5-0.1,0.8-0.6,0.7-1.1c-0.1-0.5-0.6-0.8-1.1-0.7c-0.5,0.1-0.8,0.6-0.7,1.1
								C556.2,663.7,556.7,664.1,557.2,663.9z"/>
							<path class="st10" d="M553.8,666.2c0.2,0.1,0.5,0,0.6-0.2l0.4-0.8l0.5-0.2l-0.4,1.6c-0.1,0.2,0,0.4,0.2,0.5l1.5,1.3l0.4,1.6
								c0.1,0.3,0.3,0.4,0.5,0.4c0.1,0,0.1,0,0.1,0c0.3-0.1,0.5-0.4,0.4-0.7l-0.4-1.9c0-0.1-0.1-0.2-0.2-0.3l-1-0.8l0.5-1.4l0.5,0.6
								c0.1,0.1,0.2,0.2,0.3,0.2c0.1,0,0.2,0,0.2-0.1l0.9-0.5c0.2-0.1,0.3-0.4,0.2-0.6c-0.1-0.2-0.4-0.3-0.6-0.2l-0.6,0.3l-0.5-0.5
								c-0.1-0.2-0.3-0.3-0.5-0.3l-0.8-0.3c-0.2-0.1-0.5-0.1-0.8,0l-1,0.3c-0.1,0.1-0.2,0.1-0.3,0.3l-0.4,1
								C553.5,665.9,553.6,666.1,553.8,666.2z"/>
						</g>
					</g>
				</g>
			</g>
		</g>
		<text transform="matrix(0.9845 0 0 1 571.6458 669.4195)" class="st14 st17 st44">Emergency exit</text>
	</g>
	<g id="book_return">
		<g id="Layer_1_00000117654583283511716670000007938627718812062123_">
			<g>
				<path d="M564.1,619.6c-0.3,0-0.5,0.2-0.5,0.5v12.1h-10.7c-0.5,0-0.9-0.3-1.1-0.7h10c0.3,0,0.5-0.2,0.5-0.5s-0.2-0.5-0.5-0.5h-10
					c0.2-0.4,0.6-0.7,1.1-0.7h9.8c0.3,0,0.5-0.2,0.5-0.5v-11.9c0-0.3-0.2-0.5-0.5-0.5h-9.8c-1.2,0-2.2,1-2.2,2.3V631v0l0,0
					c0,0,0,0,0,0c0,1.2,1,2.2,2.2,2.2h11.2c0.3,0,0.5-0.2,0.5-0.5v-12.6C564.6,619.8,564.4,619.6,564.1,619.6z M555.2,619.9
					c0-0.1,0.1-0.2,0.2-0.2h5.5c0.1,0,0.2,0.1,0.2,0.2v1.6c0,0.1-0.1,0.2-0.2,0.2h-5.5c-0.1,0-0.2-0.1-0.2-0.2V619.9z M551.7,619.1
					c0-0.7,0.5-1.2,1.2-1.2v10.8c-0.4,0-0.9,0.1-1.2,0.4V619.1z"/>
				<path d="M553.3,629.8c-0.3,0-0.5-0.2-0.5-0.5v-11.8c0-0.3,0.2-0.5,0.5-0.5c0.3,0,0.5,0.2,0.5,0.5v11.8
					C553.8,629.5,553.6,629.8,553.3,629.8z"/>
			</g>
			<path class="st10" d="M558.9,626.1l-0.8,0.8v-2.7c0-0.2-0.2-0.4-0.4-0.4c-0.2,0-0.4,0.2-0.4,0.4v2.7l-0.8-0.8
				c-0.1-0.1-0.2-0.1-0.3-0.1s-0.2,0-0.3,0.1c-0.1,0.1-0.1,0.4,0,0.5l1.4,1.5c0.1,0.1,0.2,0.1,0.3,0.1s0.2,0,0.3-0.1l1.4-1.5
				c0.1-0.1,0.1-0.4,0-0.5C559.3,625.9,559.1,625.9,558.9,626.1z"/>
		</g>
		<text transform="matrix(0.9845 0 0 1 570.5569 628.6402)" class="st14 st17 st44">Book return</text>
	</g>
	<g id="security_desk">
		<g id="security_00000183233601680662688050000014919325878088714883_">
			<ellipse class="st37" cx="558.7" cy="544.3" rx="8.1" ry="8.2"/>
			<ellipse class="st38" cx="558.7" cy="544.3" rx="6.5" ry="6.6"/>
			<g>
				<polygon class="st39" points="558.7,538.1 553.3,547.6 564.1,547.6 				"/>
				<polygon class="st39" points="564.1,541 553.3,541 558.7,550.6 				"/>
			</g>
		</g>
		<text transform="matrix(0.9845 0 0 1 571.6448 547.2681)" class="st14 st17 st44">Security desk</text>
	</g>
	<g id="self-checkout">
		<g id="checkout_00000057139281343384194730000012802187595464660650_">
			<rect x="555.3" y="560.8" width="0.5" height="7.4"/>
			<rect x="556.8" y="560.8" width="0.8" height="7.4"/>
			<rect x="558.7" y="560.8" width="0.4" height="7.4"/>
			<rect x="560.1" y="560.8" width="0.5" height="7.4"/>
			<rect x="561.7" y="560.8" width="0.6" height="7.4"/>
			<rect x="563.5" y="560.8" width="0.8" height="7.4"/>
			<rect x="553.1" y="560.8" width="1" height="7.4"/>
			<polygon points="551.4,559.3 554.2,559.3 554.2,558.5 550.7,558.5 550.7,562.1 551.4,562.1 			"/>
			<polygon points="566,562.1 566.8,562.1 566.8,558.5 563.2,558.5 563.2,559.3 566,559.3 			"/>
			<polygon points="566,566.9 566,569.7 563.2,569.7 563.2,570.5 566.8,570.5 566.8,566.9 			"/>
			<polygon points="551.4,566.9 550.7,566.9 550.7,570.5 554.2,570.5 554.2,569.7 551.4,569.7 			"/>
		</g>
		<text transform="matrix(0.9845 0 0 1 571.6458 567.2955)" class="st14 st17 st44">Self-checkout machines</text>
	</g>
	<g id="help_00000098935012458218154330000015838396799672572308_">
		<g id="help_00000157290516526395250730000014785419968177931424_">
			<ellipse class="st47" cx="558.7" cy="604.9" rx="8.1" ry="8.2"/>
			<g id="help_00000044178838353864998840000012939294410147356567_">
				<path class="st10" d="M560,610.3c0,0.2-0.1,0.2-0.2,0.2h-1.9c-0.2,0-0.2-0.1-0.2-0.2v-1.9c0-0.2,0.1-0.2,0.2-0.2h1.9
					c0.2,0,0.2,0.1,0.2,0.2V610.3z"/>
				<path class="st10" d="M555.2,602.3c0,0.2,0,0.4,0,0.4c0,0.2,0.1,0.2,0.2,0.2h1.6c0.2,0,0.2-0.1,0.2-0.2c0-0.1,0.1-1.9,1.9-1.9
					c0.6,0,1.5,0.4,1.5,1.4c0,1.1-1.9,2-2.4,2.9c-0.2,0.3-0.3,0.7-0.3,1.2c0,0.1,0,0.5,0,0.5c0,0.2,0.1,0.2,0.2,0.2h1.5
					c0.2,0,0.2-0.1,0.2-0.2c0,0,0-0.3,0-0.4c0-0.4,0.2-0.7,0.5-0.9c0.1-0.1,0.2-0.2,0.3-0.3c0.9-0.7,2-1.6,2-3.2
					c0-4.1-6.1-4.5-7.3-0.9C555.3,601.5,555.2,601.9,555.2,602.3z"/>
			</g>
		</g>
		<text transform="matrix(0.9845 0 0 1 571.6448 608.1324)" class="st14 st17 st44">Help</text>
	</g>
	<text transform="matrix(1 0 0 1 551.785 523.7139)" class="st23 st27">LEGEND</text>
</g>
</svg>
