<?xml version="1.0" encoding="utf-8"?>
<!-- Generator: Adobe Illustrator 28.1.0, SVG Export Plug-In . SVG Version: 6.00 Build 0)  -->
<svg version="1.1" id="Layer_1" xmlns="http://www.w3.org/2000/svg" xmlns:xlink="http://www.w3.org/1999/xlink" x="0px" y="0px"
	 viewBox="0 0 684.2 906.7" style="enable-background:new 0 0 684.2 906.7;" xml:space="preserve">
<style type="text/css">
	.st0{fill:none;}
	.st1{fill:#231F20;}
	.st2{fill:#0073A0;}
	.st3{fill:#FFFFFF;}
	.st4{opacity:0.5;}
	
		.st5{opacity:0.45;fill:url(#SVGID_00000042015071678361743660000017147782853407663785_);stroke:#424343;stroke-miterlimit:10;enable-background:new    ;}
	
		.st6{opacity:0.45;fill:url(#SVGID_00000166639079821854411750000016620408993238128539_);stroke:#424343;stroke-miterlimit:10;enable-background:new    ;}
	.st7{fill:none;stroke:#010101;stroke-width:4;stroke-miterlimit:10;}
	.st8{fill:#71A58E;stroke:#231F20;stroke-width:4;stroke-linecap:round;stroke-linejoin:round;}
	.st9{fill:#3F417F;stroke:#010101;stroke-width:4;stroke-miterlimit:10;}
	.st10{fill:#71A58E;stroke:#010101;stroke-width:4;stroke-miterlimit:10;}
	.st11{fill:#71A58E;stroke:#231F20;stroke-width:4;stroke-miterlimit:10;}
	.st12{opacity:0.5;fill:#1A4363;}
	.st13{fill:#FFFFFF;stroke:#000000;stroke-miterlimit:10;}
	.st14{fill:#A1BB7E;}
	.st15{font-family:'ArialMT';}
	.st16{font-size:18px;}
	.st17{fill:none;stroke:#231F20;stroke-width:6;stroke-linecap:round;stroke-linejoin:round;}
	.st18{fill:#FFFFFF;stroke:#231F20;stroke-width:6;stroke-linecap:round;stroke-linejoin:round;}
	.st19{fill:none;stroke:#FFFFFF;stroke-width:8;stroke-miterlimit:10;}
	.st20{fill:none;stroke:#FFFFFF;stroke-width:7;stroke-miterlimit:10;}
</style>
<pattern  y="906.7" width="28.8" height="28.8" patternUnits="userSpaceOnUse" id="SVGID_0000016303674961254124712" viewBox="1.4 -30.2 28.8 28.8" style="overflow:visible;">
	<g>
		<rect x="1.4" y="-30.2" class="st0" width="28.8" height="28.8"/>
		<g>
			<rect x="1.4" y="-30.2" class="st0" width="28.8" height="28.8"/>
			<g>
				<rect x="1.4" y="-30.2" class="st0" width="28.8" height="28.8"/>
				<g>
					<rect x="1.4" y="-30.2" class="st0" width="28.8" height="28.8"/>
					<g>
						<path class="st1" d="M30.2-31.6c0.8,0,1.4,0.6,1.4,1.4c0,0.8-0.6,1.4-1.4,1.4s-1.4-0.6-1.4-1.4C28.8-31,29.4-31.6,30.2-31.6z"
							/>
						<path class="st1" d="M15.8-31.6c0.8,0,1.4,0.6,1.4,1.4c0,0.8-0.6,1.4-1.4,1.4c-0.8,0-1.4-0.6-1.4-1.4
							C14.4-31,15-31.6,15.8-31.6z"/>
						<path class="st1" d="M30.2-17.2c0.8,0,1.4,0.6,1.4,1.4s-0.6,1.4-1.4,1.4s-1.4-0.6-1.4-1.4C28.8-16.6,29.4-17.2,30.2-17.2z"/>
						<path class="st1" d="M15.8-17.2c0.8,0,1.4,0.6,1.4,1.4s-0.6,1.4-1.4,1.4c-0.8,0-1.4-0.6-1.4-1.4C14.4-16.6,15-17.2,15.8-17.2z
							"/>
						<path class="st1" d="M8.6-24.4c0.8,0,1.4,0.6,1.4,1.4c0,0.8-0.6,1.4-1.4,1.4c-0.8,0-1.4-0.6-1.4-1.4
							C7.2-23.8,7.8-24.4,8.6-24.4z"/>
						<path class="st1" d="M23-24.4c0.8,0,1.4,0.6,1.4,1.4c0,0.8-0.6,1.4-1.4,1.4s-1.4-0.6-1.4-1.4S22.2-24.4,23-24.4z"/>
						<path class="st1" d="M8.6-10C9.4-10,10-9.4,10-8.6S9.4-7.2,8.6-7.2c-0.8,0-1.4-0.6-1.4-1.4C7.2-9.4,7.8-10,8.6-10z"/>
						<path class="st1" d="M23-10c0.8,0,1.4,0.6,1.4,1.4S23.8-7.2,23-7.2s-1.4-0.6-1.4-1.4S22.2-10,23-10z"/>
					</g>
					<g>
						<path class="st1" d="M1.4-31.6c0.8,0,1.4,0.6,1.4,1.4c0,0.8-0.6,1.4-1.4,1.4C0.6-28.7,0-29.4,0-30.2C0-31,0.6-31.6,1.4-31.6z"
							/>
						<path class="st1" d="M1.4-17.2c0.8,0,1.4,0.6,1.4,1.4s-0.6,1.4-1.4,1.4S0-15,0-15.8S0.6-17.2,1.4-17.2z"/>
					</g>
					<g>
						<path class="st1" d="M30.2-2.8c0.8,0,1.4,0.6,1.4,1.4S31,0,30.2,0s-1.4-0.6-1.4-1.4C28.8-2.2,29.4-2.8,30.2-2.8z"/>
						<path class="st1" d="M15.8-2.8c0.8,0,1.4,0.6,1.4,1.4S16.6,0,15.8,0s-1.4-0.6-1.4-1.4C14.4-2.2,15-2.8,15.8-2.8z"/>
					</g>
					<g>
						<path class="st1" d="M1.4-2.8c0.8,0,1.4,0.6,1.4,1.4S2.2,0,1.4,0C0.6,0.1,0-0.6,0-1.4C0-2.2,0.6-2.8,1.4-2.8z"/>
					</g>
				</g>
			</g>
		</g>
	</g>
</pattern>
<pattern  y="906.7" width="28.8" height="28.8" patternUnits="userSpaceOnUse" id="SVGID_1_" viewBox="1.4 -30.2 28.8 28.8" style="overflow:visible;">
	<g>
		<rect x="1.4" y="-30.2" class="st0" width="28.8" height="28.8"/>
		<g>
			<rect x="1.4" y="-30.2" class="st0" width="28.8" height="28.8"/>
			<g>
				<rect x="1.4" y="-30.2" class="st0" width="28.8" height="28.8"/>
				<g>
					<rect x="1.4" y="-30.2" class="st0" width="28.8" height="28.8"/>
					<g>
						<path class="st1" d="M30.2-31.6c0.8,0,1.4,0.6,1.4,1.4c0,0.8-0.6,1.4-1.4,1.4s-1.4-0.6-1.4-1.4C28.8-31,29.4-31.6,30.2-31.6z"
							/>
						<path class="st1" d="M15.8-31.6c0.8,0,1.4,0.6,1.4,1.4c0,0.8-0.6,1.4-1.4,1.4c-0.8,0-1.4-0.6-1.4-1.4
							C14.4-31,15-31.6,15.8-31.6z"/>
						<path class="st1" d="M30.2-17.2c0.8,0,1.4,0.6,1.4,1.4s-0.6,1.4-1.4,1.4s-1.4-0.6-1.4-1.4C28.8-16.6,29.4-17.2,30.2-17.2z"/>
						<path class="st1" d="M15.8-17.2c0.8,0,1.4,0.6,1.4,1.4s-0.6,1.4-1.4,1.4c-0.8,0-1.4-0.6-1.4-1.4C14.4-16.6,15-17.2,15.8-17.2z
							"/>
						<path class="st1" d="M8.6-24.4c0.8,0,1.4,0.6,1.4,1.4c0,0.8-0.6,1.4-1.4,1.4c-0.8,0-1.4-0.6-1.4-1.4
							C7.2-23.8,7.8-24.4,8.6-24.4z"/>
						<path class="st1" d="M23-24.4c0.8,0,1.4,0.6,1.4,1.4c0,0.8-0.6,1.4-1.4,1.4s-1.4-0.6-1.4-1.4S22.2-24.4,23-24.4z"/>
						<path class="st1" d="M8.6-10C9.4-10,10-9.4,10-8.6S9.4-7.2,8.6-7.2c-0.8,0-1.4-0.6-1.4-1.4C7.2-9.4,7.8-10,8.6-10z"/>
						<path class="st1" d="M23-10c0.8,0,1.4,0.6,1.4,1.4S23.8-7.2,23-7.2s-1.4-0.6-1.4-1.4S22.2-10,23-10z"/>
					</g>
					<g>
						<path class="st1" d="M1.4-31.6c0.8,0,1.4,0.6,1.4,1.4c0,0.8-0.6,1.4-1.4,1.4C0.6-28.7,0-29.4,0-30.2C0-31,0.6-31.6,1.4-31.6z"
							/>
						<path class="st1" d="M1.4-17.2c0.8,0,1.4,0.6,1.4,1.4s-0.6,1.4-1.4,1.4S0-15,0-15.8S0.6-17.2,1.4-17.2z"/>
					</g>
					<g>
						<path class="st1" d="M30.2-2.8c0.8,0,1.4,0.6,1.4,1.4S31,0,30.2,0s-1.4-0.6-1.4-1.4C28.8-2.2,29.4-2.8,30.2-2.8z"/>
						<path class="st1" d="M15.8-2.8c0.8,0,1.4,0.6,1.4,1.4S16.6,0,15.8,0s-1.4-0.6-1.4-1.4C14.4-2.2,15-2.8,15.8-2.8z"/>
					</g>
					<g>
						<path class="st1" d="M1.4-2.8c0.8,0,1.4,0.6,1.4,1.4S2.2,0,1.4,0C0.6,0.1,0-0.6,0-1.4C0-2.2,0.6-2.8,1.4-2.8z"/>
					</g>
				</g>
			</g>
		</g>
	</g>
</pattern>
<g id="restroom">
	<rect x="122.5" y="206.9" class="st2" width="73.1" height="75.5"/>
	<path class="st3" d="M170.1,234.4c1.2,0,2.1-0.9,2.1-2.1c0-1.2-0.9-2.1-2.1-2.1c-1.2,0-2.1,0.9-2.1,2.1
		C167.9,233.5,168.9,234.4,170.1,234.4z"/>
	<path class="st3" d="M175.9,242.8l-1.8-6.3c-0.4-1.2-1.3-1.6-2.6-1.6l0,0h-2.9l0,0c-1.3,0-2.1,0.4-2.6,1.6l-1.8,6.3
		c-0.1,0.4,0.1,0.8,0.7,0.9c0.4,0.1,0.9-0.1,1-0.5l1.6-5.5h0.4l-2.7,9.6h2.6v6.8c0,0.5,0.5,1,1,1s1-0.5,1-1v-6.8h0.5v6.8
		c0,0.5,0.5,1,1,1s1-0.5,1-1v-6.8h2.6l-2.7-9.6h0.4l1.6,5.5c0.1,0.4,0.5,0.7,1,0.5C175.7,243.6,176,243.2,175.9,242.8z"/>
	<path class="st3" d="M148.8,234.4c1.2,0,2.1-0.9,2.1-2.1c0-1.2-0.9-2.1-2.1-2.1c-1.2,0-2.1,0.9-2.1,2.1
		C146.5,233.5,147.6,234.4,148.8,234.4z"/>
	<path class="st3" d="M151.5,234.9H146c-1.3,0-2.4,1-2.4,2.4v6.7c0,0.5,0.4,0.9,0.9,0.9s0.9-0.4,0.9-0.9v-5.9h0.5v6.8v9.2
		c0,0.7,0.5,1.2,1.2,1.2s1.2-0.5,1.2-1.2v-9.2h0.5v9.2c0,0.7,0.5,1.2,1.2,1.2s1.2-0.5,1.2-1.2v-9.2v-6.8h0.5v5.9
		c0,0.5,0.4,0.9,0.9,0.9s0.9-0.4,0.9-0.9v-6.7C153.9,236,152.8,234.9,151.5,234.9z"/>
	<rect x="158.7" y="230.2" class="st3" width="2.4" height="24.9"/>
</g>
<g id="Spaces" class="st4">
	<g id="employee_areas">
		
			<pattern  id="SVGID_00000035496148023358882210000009420728309067461779_" xlink:href="#SVGID_1_" patternTransform="matrix(1 0 0 -1 -307.6 -68989.8047)">
		</pattern>
		
			<polyline style="opacity:0.45;fill:url(#SVGID_00000035496148023358882210000009420728309067461779_);stroke:#424343;stroke-miterlimit:10;enable-background:new    ;" points="
			35.7,536.1 3.1,604 118.2,658.5 119.1,823.1 194.1,859.4 195.8,733.7 286,733.4 285.3,618 278.8,618.2 221.6,617.7 221.8,443.5 
			167.9,443.5 167.6,538.1 35.7,536.1 		"/>
		
			<pattern  id="SVGID_00000165935870431439877130000007570905963804476300_" xlink:href="#SVGID_0000016303674961254124712" patternTransform="matrix(1 0 0 -1 -22.4 -34530.3594)">
		</pattern>
		
			<polyline style="opacity:0.45;fill:url(#SVGID_00000165935870431439877130000007570905963804476300_);stroke:#424343;stroke-miterlimit:10;enable-background:new    ;" points="
			409.3,663.5 442.7,663.6 442.9,690.3 523.2,690.2 523.4,616.7 408.4,617 		"/>
	</g>
	<line class="st7" x1="263.4" y1="203.9" x2="263.4" y2="283"/>
	<path id="cafe_00000052796716991338462910000004400667937314557858_" class="st8" d="M263.5,205H119.1v-70.6h144.4V205z"/>
	<path id="_x31_25" class="st9" d="M285.9,733.6l-92.3,0.1l-0.1,125.7l91.6,43.2L285.9,733.6z"/>
	<polyline id="PAR" class="st10" points="166.9,539.1 166.9,443 166.9,445 79.6,444.9 36.2,536.1 166.1,537.1 	"/>
	<path id="DHC" class="st11" d="M523.2,690l-80.3,0.3l-0.2-26.9l-34.7,0.1l0.5-46.5l-43.8,0.1l0.1,160.9L524,721.4L523.2,690z"/>
	<path id="children_x27_s_room" class="st11" d="M438.8,463.3l85.6,0.4L680.8,138l-93.9-1.6l-13-16l-213.2,15.3l0.8,226.9
		 M361.3,361.3l78.9,102.8"/>
</g>
<g id="escalator">
	<rect x="371.4" y="465" class="st12" width="34" height="107.7"/>
	<g>
		<path class="st13" d="M395.9,499.2h-15.1c-4.1,0-7.4,3.3-7.4,7.4v15.1c0,4.1,3.3,7.4,7.4,7.4h15.1c4.1,0,7.4-3.3,7.4-7.4v-15.1
			C403.4,502.5,400,499.2,395.9,499.2z"/>
		<g>
			<g>
				<path class="st1" d="M385.7,508.2c1,0,1.7-0.8,1.7-1.7c0-1-0.8-1.7-1.7-1.7c-1,0-1.7,0.8-1.7,1.7
					C384,507.4,384.8,508.2,385.7,508.2z"/>
				<path class="st1" d="M387.6,510c0-1-0.8-1.8-1.8-1.8S384,509,384,510v4.1l3.6-3.6V510L387.6,510z"/>
				<path class="st1" d="M396.4,507.9h-4c-0.7,0-1.3,0.3-1.8,0.8l-7,7h-3.1c-1.4,0-2.6,1.2-2.6,2.6c0,1.4,1.2,2.6,2.6,2.6h4.2
					c0.7,0,1.3-0.3,1.8-0.8l7-7h2.9c1.4,0,2.6-1.2,2.6-2.6C398.9,509.1,397.8,507.9,396.4,507.9z"/>
			</g>
			<g>
				<path class="st1" d="M396,517c0.2,0,0.4,0.1,0.3,0.3l-0.7,3.7c0,0.2-0.2,0.3-0.3,0.4c-0.2,0.1-0.3,0.1-0.4,0l-0.4-0.4l-2.7,2.7
					c-0.2,0.2-0.5,0.2-0.6,0.1l-1.9-1.9c-0.1-0.1-0.1-0.4,0.1-0.6l2.7-2.7l-0.4-0.4c-0.1-0.1-0.1-0.3,0-0.4c0.1-0.2,0.3-0.3,0.4-0.3
					L396,517z"/>
			</g>
		</g>
	</g>
</g>
<g id="elevator">
	
		<rect x="441.1" y="469.2" transform="matrix(1.787271e-03 -1 1 1.787271e-03 -28.3049 926.9019)" class="st12" width="18.1" height="16.9"/>
	
		<rect x="441" y="493.9" transform="matrix(1.787271e-03 -1 1 1.787271e-03 -53.155 951.505)" class="st12" width="18.1" height="16.9"/>
	
		<rect x="440.9" y="518.7" transform="matrix(1.787271e-03 -1 1 1.787271e-03 -77.9405 976.1735)" class="st12" width="18.1" height="16.9"/>
	
		<rect x="440.8" y="543.3" transform="matrix(1.787271e-03 -1 1 1.787271e-03 -102.7255 1000.6434)" class="st12" width="18.1" height="16.9"/>
	
		<rect x="441" y="568.2" transform="matrix(1.787271e-03 -1 1 1.787271e-03 -127.3765 1025.6451)" class="st12" width="18.1" height="16.9"/>
	<line class="st7" x1="463" y1="465.9" x2="463" y2="594.2"/>
	<g>
		<path class="st13" d="M451.8,512.2h-15.1c-4.1,0-7.4,3.3-7.4,7.4v15.1c0,4.1,3.3,7.4,7.4,7.4h15.1c4.1,0,7.4-3.3,7.4-7.4v-15.1
			C459.2,515.5,455.9,512.2,451.8,512.2z"/>
		<g>
			<path class="st1" d="M440.3,514c-0.2-0.2-0.4-0.3-0.6-0.3s-0.5,0.1-0.6,0.3c-0.5,0.5-1.4,1.4-2.7,2.7c-0.4,0.4-0.4,1,0,1.3
				c0.3,0.3,0.9,0.3,1.2,0l1.1-1.1v3.5c0,0.5,0.4,0.9,0.9,0.9h0.1c0.5,0,0.9-0.4,0.9-0.9v-3.5l1.1,1.1c0.3,0.3,0.9,0.3,1.2,0l0,0
				c0.3-0.3,0.3-0.9,0-1.2C441.6,515.3,440.9,514.6,440.3,514z"/>
			<path class="st1" d="M448.1,521c0.2,0.2,0.4,0.3,0.6,0.3s0.5-0.1,0.6-0.3c0.5-0.5,1.4-1.4,2.7-2.7c0.4-0.4,0.4-1,0-1.3
				c-0.3-0.3-0.9-0.3-1.2,0l-1.1,1.1v-3.5c0-0.5-0.4-0.9-0.9-0.9h-0.1c-0.5,0-0.9,0.4-0.9,0.9v3.5l-1.1-1.1c-0.3-0.3-0.9-0.3-1.2,0
				l0,0c-0.3,0.3-0.3,0.9,0,1.2C446.8,519.7,447.5,520.4,448.1,521z"/>
		</g>
		<g>
			<g>
				<path class="st1" d="M447.5,528c0.5,0,1-0.4,1-1c0-0.5-0.4-1-1-1c-0.5,0-1,0.4-1,1C446.6,527.5,447,528,447.5,528z"/>
				<path class="st1" d="M448.8,528.1h-2.4c-0.6,0-1,0.5-1,1v3c0,0.2,0.2,0.4,0.4,0.4c0.2,0,0.4-0.2,0.4-0.4v-2.6h0.2v3v4.1
					c0,0.3,0.2,0.6,0.6,0.6c0.3,0,0.6-0.2,0.6-0.6v-4.1h0.2v4.1c0,0.3,0.2,0.6,0.6,0.6c0.3,0,0.6-0.2,0.6-0.6v-4.1v-3h0.2v2.6
					c0,0.2,0.2,0.4,0.4,0.4c0.2,0,0.4-0.2,0.4-0.4v-3C449.8,528.6,449.3,528.1,448.8,528.1z"/>
			</g>
			<path class="st1" d="M441.3,528c0.5,0,1-0.4,1-1c0-0.5-0.4-1-1-1c-0.5,0-1,0.4-1,1C440.3,527.5,440.7,528,441.3,528z"/>
			<path class="st1" d="M443.9,531.7l-0.8-2.8c-0.2-0.5-0.6-0.7-1.2-0.7l0,0h-1.3l0,0c-0.6,0-1,0.2-1.2,0.7l-0.8,2.8
				c-0.1,0.2,0.1,0.4,0.3,0.4c0.2,0.1,0.4,0,0.5-0.2l0.7-2.5h0.2l-1.2,4.3h1.2v3c0,0.3,0.2,0.5,0.5,0.5s0.5-0.2,0.5-0.5v-3h0.2v3
				c0,0.3,0.2,0.5,0.5,0.5s0.5-0.2,0.5-0.5v-3h1.2l-1.2-4.3h0.2l0.7,2.5c0.1,0.2,0.3,0.3,0.5,0.2C443.8,532,443.9,531.8,443.9,531.7
				z"/>
		</g>
		<g>
			<path class="st1" d="M450.4,540.6H438c-2.5,0-4.6-2.6-4.6-5.7v-6.5c0-3.2,2.1-5.7,4.6-5.7h12.3c2.5,0,4.6,2.6,4.6,5.7v6.5
				C454.9,538,452.9,540.6,450.4,540.6z M438,524.7c-1.6,0-2.9,1.6-2.9,3.6v6.5c0,2,1.3,3.6,2.9,3.6h12.3c1.6,0,2.9-1.6,2.9-3.6
				v-6.5c0-2-1.3-3.6-2.9-3.6H438z"/>
		</g>
	</g>
</g>
<g id="stairs_00000032626799022009418030000006004862700355200132_">
	<path class="st13" d="M502.3,562.9h-17.6c-4.8,0-8.7,3.9-8.7,8.7v17.6c0,4.8,3.9,8.7,8.7,8.7h17.6c4.8,0,8.7-3.9,8.7-8.7v-17.6
		C511,566.8,507.1,562.9,502.3,562.9z"/>
	<path class="st1" d="M486.8,570.1c1,0,1.9-0.8,1.9-1.9c0-1-0.8-1.9-1.9-1.9c-1,0-1.9,0.8-1.9,1.9
		C485,569.3,485.8,570.1,486.8,570.1z"/>
	<path class="st1" d="M483.4,576c0.6,0,1.1-0.4,1.1-1v-1.2l0.6-0.4v3v0.6l-1.8,6.9c-0.2,0.5,0.2,1.1,0.7,1.2
		c0.6,0.2,1.2-0.1,1.4-0.7l1.6-6.4h1.6v2.1c0,0.6,0.5,1,1.1,1s1.1-0.4,1.1-1V577c0-0.6-0.5-1-1.1-1l0,0l0,0h-2.4v-1.9l0.6,0.6
		c0.2,0.2,0.5,0.4,0.9,0.4l0,0h2c0.6,0,1.1-0.4,1.1-1s-0.5-1-1.1-1h-1.6l-2-2.2l-0.1-0.1c-0.1-0.1-0.2-0.3-0.4-0.4l0,0h-0.1l0,0
		h-0.1l0,0c0,0,0,0-0.1,0l0,0c0,0,0,0-0.1,0l0,0c0,0,0,0-0.1,0l0,0l0,0l0,0c0,0,0,0-0.1,0c0,0,0,0-0.1,0l0,0c0,0,0,0-0.1,0l0,0
		c0,0,0,0-0.1,0l0,0c0,0,0,0-0.1,0l0,0c0,0,0,0-0.1,0l0,0c0,0,0,0-0.1,0l0,0l-2.8,2c-0.3,0.2-0.4,0.5-0.4,0.8l0,0v1.7
		C482.3,575.6,482.7,576,483.4,576z"/>
	<path class="st1" d="M503.9,572.6h-5.1c-0.2,0-0.3,0.2-0.4,0.4v4.7h-4.7c-0.2,0-0.3,0.2-0.4,0.4v5h-4.9c-0.2,0-0.3,0.2-0.4,0.4v4.6
		h-4.7c-0.2,0-0.3,0.2-0.4,0.4v4.4c0,0.2,0.2,0.3,0.4,0.4h20.5c0.2,0,0.3-0.2,0.4-0.4l-0.1-19.8
		C504.2,572.8,504.1,572.7,503.9,572.6z"/>
</g>
<rect id="circ" x="234.7" y="453" class="st14" width="31.8" height="152.5"/>
<circle id="wepa" class="st14" cx="245.9" cy="389.8" r="27.4"/>
<g id="Text">
	<text transform="matrix(1 0 0 1 425 239.8898)" class="st15 st16">Children’s Room</text>
	<text transform="matrix(1 0 0 1 139 177.8898)" class="st15 st16">Nirvana Soul</text>
	<text transform="matrix(1 0 0 1 79.9443 488.8898)" class="st15 st16">Partners</text>
	<text transform="matrix(1 0 0 1 71.2443 510.4898)" class="st15 st16">in Reading</text>
	<text transform="matrix(1 0 0 1 377 691.8898)" class="st15 st16">Digital</text>
	<text transform="matrix(1 0 0 1 377 713.4898)" class="st15 st16">Humanities</text>
	<text transform="matrix(1 0 0 1 377 735.0898)" class="st15 st16">Center</text>
	<text transform="matrix(1 0 0 1 224.6164 807.5609)" class="st15 st16">125</text>
</g>
<g id="_x31__00000175289735911205073720000005912144770742057113_">
	<line class="st17" x1="681.1" y1="137.8" x2="524.8" y2="462.7"/>
	<line class="st17" x1="3.1" y1="603.6" x2="119.6" y2="361.3"/>
	<line class="st17" x1="118.2" y1="658.7" x2="2.9" y2="603.9"/>
	<line class="st17" x1="118.9" y1="823.5" x2="285.5" y2="903.7"/>
	<line class="st17" x1="325.3" y1="3" x2="263.1" y2="133.7"/>
	<line class="st17" x1="468" y1="71.6" x2="325.3" y2="3"/>
	<line class="st17" x1="119.5" y1="134.6" x2="263.1" y2="133.7"/>
	<line class="st17" x1="525.4" y1="40.1" x2="469.8" y2="71.8"/>
	<line class="st17" x1="525.4" y1="123.2" x2="525.4" y2="40.1"/>
	<line class="st17" x1="525.4" y1="123.2" x2="573.4" y2="119.9"/>
	<line class="st17" x1="586.2" y1="135.7" x2="573.4" y2="119.9"/>
	<line class="st17" x1="681.1" y1="137.5" x2="587.2" y2="136.7"/>
	<line class="st17" x1="119.3" y1="134.8" x2="119.9" y2="360.8"/>
	<line class="st17" x1="464.1" y1="462.7" x2="524" y2="462.7"/>
	<line class="st17" x1="464" y1="555.1" x2="464.1" y2="463"/>
	<line class="st17" x1="464" y1="555.8" x2="524.1" y2="555.8"/>
	<line class="st17" x1="524.1" y1="721.6" x2="524.1" y2="555.8"/>
	<line class="st17" x1="286.2" y1="828.7" x2="285.5" y2="903.7"/>
	<line class="st17" x1="118.9" y1="823.5" x2="118.2" y2="658.7"/>
	<line class="st17" x1="316.4" y1="828.1" x2="286.2" y2="827.7"/>
	<line class="st17" x1="523.2" y1="721.7" x2="364.5" y2="778.9"/>
	<line class="st17" x1="364.4" y1="779.1" x2="316.7" y2="827.6"/>
	<path class="st18" d="M265.9,126"/>
</g>
<g id="Doors">
	<line class="st19" x1="525.7" y1="75.7" x2="525.7" y2="101.5"/>
	<line class="st19" x1="309.7" y1="35.2" x2="296" y2="64.5"/>
	<line class="st19" x1="362.3" y1="20.4" x2="389.2" y2="33.2"/>
	<line class="st20" x1="339.3" y1="786" x2="311.8" y2="804.6"/>
	<line class="st19" x1="358.1" y1="736.1" x2="358.1" y2="760"/>
	<line class="st20" x1="287.1" y1="748.2" x2="287.2" y2="776.5"/>
	<line class="st19" x1="507.9" y1="728.2" x2="483" y2="736.9"/>
	<line class="st19" x1="383.6" y1="393.2" x2="399.1" y2="413.4"/>
	<line class="st19" x1="265.3" y1="149.7" x2="265.2" y2="175.2"/>
	<line class="st19" x1="135.5" y1="443" x2="109.9" y2="443"/>
	<line class="st19" x1="352.5" y1="791.6" x2="327.2" y2="817.4"/>
	<line class="st19" x1="224.9" y1="133.5" x2="199.3" y2="133.6"/>
	<line class="st20" x1="363.5" y1="741.6" x2="363.6" y2="769.9"/>
</g>
</svg>
