<?xml version="1.0" encoding="utf-8"?>
<!-- Generator: Adobe Illustrator 28.0.0, SVG Export Plug-In . SVG Version: 6.00 Build 0)  -->
<svg version="1.1" id="Layer_1" xmlns="http://www.w3.org/2000/svg" xmlns:xlink="http://www.w3.org/1999/xlink" x="0px" y="0px"
	 width="1207.8px" height="937px" viewBox="0 0 1207.8 937" style="enable-background:new 0 0 1207.8 937;" xml:space="preserve">
<style type="text/css">
	.st0{display:none;}
	.st1{display:inline;}
	.st2{fill:none;stroke:#A2C9EA;stroke-miterlimit:10;}
	.st3{fill:none;}
	.st4{fill:#A2C9EA;}
	.st5{font-family:'Arial-ItalicMT';}
	.st6{font-size:14.0025px;}
	.st7{font-family:'ArialNarrow-Bold';}
	.st8{font-size:33.4957px;}
	.st9{font-size:14px;}
	.st10{font-family:'ArialNarrow-Italic';}
	.st11{font-size:14.6388px;}
	.st12{fill:#FCECA4;stroke:#000000;stroke-miterlimit:10;}
	.st13{fill:none;stroke:#000000;stroke-width:4;stroke-linecap:round;stroke-linejoin:round;stroke-miterlimit:10;}
	.st14{fill:#E4F2F9;}
	.st15{font-family:'Arial-BoldMT';}
	.st16{font-size:300px;}
	.st17{letter-spacing:6;}
	.st18{font-size:48px;}
	.st19{fill:#FF0000;}
	.st20{fill:#FFFFFF;}
	.st21{font-family:'MyriadPro-Regular';}
	.st22{font-size:18px;}
</style>
<g id="Layer_1_00000020382760180596522300000011154304701188421516_" class="st0">
	<g id="streets" class="st1">
		<g id="San_fernando">
			<line class="st2" x1="284.9" y1="142.9" x2="471.4" y2="24.9"/>
			<line class="st2" x1="297.3" y1="162.7" x2="505.7" y2="30.9"/>
			<polygon class="st3" points="460.8,56.5 317.2,147.6 310.3,136.9 453.9,45.8 			"/>
			<text transform="matrix(0.8481 -0.5299 0.5299 0.8481 337.2668 130.4967)" class="st4 st5 st6">San Fernando Street</text>
		</g>
		<g>
			<polygon class="st4" points="511.4,87.5 504.1,120.2 544.1,94.9 			"/>
			
				<rect x="487" y="62.1" transform="matrix(0.8238 -0.5669 0.5669 0.8238 45.123 295.9703)" class="st3" width="23.3" height="26.6"/>
			<text transform="matrix(0.829 -0.5592 0.5592 0.829 496.3652 89.7178)" class="st4 st7 st8">N</text>
		</g>
		<g id="_x34_th_Street">
			<line class="st2" x1="311.8" y1="745.4" x2="144.5" y2="421.7"/>
			<line class="st2" x1="333.2" y1="735.8" x2="165.4" y2="411.1"/>
			
				<rect x="229.9" y="499.3" transform="matrix(0.8786 -0.4776 0.4776 0.8786 -245.3666 183.0898)" class="st3" width="15" height="149.6"/>
			<text transform="matrix(-0.4695 -0.8829 0.8829 -0.4695 249.3047 592.6307)" class="st4 st5 st9">Fourth Street</text>
		</g>
		<g id="SJSU_CAMPUS">
			<polygon class="st4" points="1179.3,734.5 1154.1,715.1 1159.9,759.7 			"/>
			
				<rect x="1127.1" y="671.8" transform="matrix(0.9858 -0.1678 0.1678 0.9858 -106.9212 201.6421)" class="st3" width="25.2" height="123.4"/>
			<text transform="matrix(0.1586 0.9873 -0.9873 0.1586 1137.0145 699.5504)" class="st4 st10 st11">SJSU Campus</text>
		</g>
	</g>
</g>
<g id="Mezzanine">
	<g>
		<path class="st12" d="M649.5,86.1l0.4,1.1l-0.2-0.5l-53.3,73.5h0.5l-18.5,2.2c-4.2,8.1-82.5,142.6-107.2,186
			c-0.3,0.5-0.5,0.9-0.7,1.2l0,0c3,2,152.1,100.2,178.2,117.5c2,1.3,2.9,1.9,3.9,2.6c0,0,0,0,0-0.1c1.9-6.2,36.9-101.7,45.5-127.3
			c3.7,0.8,37.7,6.3,43.7,7.9c1.3-3.1,7.9-18.7,10-24.6c2.1-1.4,23.3-15.1,27.9-18.1C753,261.6,650.8,85.6,650.8,85.5
			C650.4,85.6,650,85.8,649.5,86.1z"/>
		<path class="st12" d="M470.1,350c0-0.1,0.2-0.3,0.3-0.5C470.3,349.5,470.1,350,470.1,350z"/>
		<path class="st12" d="M780.3,306.9c-0.1,0.1-0.4,0.3-0.7,0.5c0.2,0.3,0.4,0.6,0.5,0.9L780.3,306.9z"/>
	</g>
	<g id="bldg_outline_00000124853320555714364620000005367128391134930108_">
		<polyline class="st13" points="578.5,161.4 596.6,160.3 596.6,160.3 650.1,86 650.5,85.9 832.8,395 798.1,445.6 874.3,497.9 
			908.8,447.6 1046.2,541.9 1004.8,709.2 1016.9,774 999.5,799.4 1060.2,841.1 901.1,935 765,841.5 661.1,902.7 529.7,680 
			333.5,545.2 394.3,458.2 393.4,458.1 399.2,456.1 384.8,434.1 410.6,418.9 356.9,328 382.3,313 367.4,287.5 472.9,225.2 
			475.4,201.1 481.5,196.7 484.6,156.4 553.6,203.7 577.9,162.2 		"/>
	</g>
	<text transform="matrix(1 0 0 1 52.7602 273.6857)" class="st14 st15 st16 st17">M</text>
	<text transform="matrix(1 0 0 1 7.458496e-02 85.9061)" class="st15 st18">Mezzanine</text>
	<g>
		<g id="Layer_1_00000180337690079339058680000002815139442650711977_">
			<g id="Layer_2_00000039832252083408272780000016269060822969449644_">
				<g id="Image_29_00000069392641806709744210000006744993020916500412_">
					<g id="Ellipse_1_copy_2_00000020395073286204377550000004635230385856944558_">
						<circle class="st19" cx="702" cy="205" r="14.4"/>
					</g>
				</g>
			</g>
		</g>
		<g>
			<g>
				<path class="st20" d="M710.2,196.3l-5-1.7c-0.3-0.1-0.6,0.1-0.6,0.4v1.3h-4.9c-0.2,0-0.4,0.2-0.4,0.4v1.5c0.3,0,0.5,0.1,0.8,0.2
					v-1.3h4.4v15.3h-3v0.2c0,0.2,0.1,0.4,0,0.6h2.9v1.3c0,0.3,0.3,0.6,0.6,0.5l5-1.7c0.2-0.1,0.3-0.2,0.3-0.4v-16.1
					C710.5,196.5,710.4,196.3,710.2,196.3z"/>
				<g>
					<g>
						<path class="st20" d="M692,211.7h3.2c0.4,0,0.8-0.3,0.9-0.7l0.3-1.3l-1.6-1.3l0,0l-0.4,1.4H692c-0.5,0-1,0.4-1,1
							C691.1,211.3,691.5,211.7,692,211.7z"/>
						<path class="st20" d="M699.4,202.5c0.9-0.2,1.5-1.1,1.2-2c-0.2-0.9-1.1-1.5-2-1.2c-0.9,0.2-1.5,1.1-1.2,2
							C697.6,202.1,698.5,202.7,699.4,202.5z"/>
						<path class="st20" d="M693.3,206.5c0.4,0.2,0.9,0,1-0.4l0.6-1.4l0.9-0.3l-0.7,2.8c-0.1,0.4,0,0.7,0.3,1l2.7,2.2l0.7,2.9
							c0.1,0.4,0.5,0.7,0.9,0.7c0.1,0,0.2,0,0.2,0c0.5-0.1,0.8-0.6,0.7-1.2l-0.8-3.2c0-0.2-0.2-0.4-0.3-0.5l-1.7-1.4l0.9-2.4
							l0.9,1.1c0.2,0.2,0.4,0.3,0.6,0.3c0.1,0,0.3,0,0.4-0.1l1.6-1c0.4-0.2,0.5-0.7,0.3-1.1c-0.2-0.4-0.7-0.5-1.1-0.3l-1,0.6l-0.9-1
							c-0.2-0.3-0.5-0.5-0.9-0.6l-1.4-0.5c-0.4-0.2-0.9-0.2-1.3,0l-1.9,0.6c-0.2,0.1-0.4,0.2-0.5,0.4l-0.8,1.8
							C692.7,205.9,692.9,206.3,693.3,206.5z"/>
					</g>
				</g>
			</g>
		</g>
	</g>
	<text transform="matrix(1 0 0 1 600.7191 315.3741)" class="st21 st22">Teen HQ</text>
</g>
</svg>
