<?xml version="1.0" encoding="UTF-8"?>
<svg id="Layer_1" data-name="Layer 1" xmlns="http://www.w3.org/2000/svg" version="1.1" viewBox="0 0 684.2 906.7">
  <defs>
    <style>
      .cls-1 {
        font-size: 20px;
      }

      .cls-1, .cls-2 {
        fill: #000;
        font-family: ArialMT, Arial;
      }

      .cls-1, .cls-2, .cls-3, .cls-4, .cls-5, .cls-6, .cls-7 {
        isolation: isolate;
      }

      .cls-8, .cls-9, .cls-10, .cls-11, .cls-12 {
        stroke-width: 0px;
      }

      .cls-8, .cls-3, .cls-5 {
        fill: #5197bc;
      }

      .cls-13 {
        stroke: #2e368f;
      }

      .cls-13, .cls-14 {
        fill: none;
      }

      .cls-13, .cls-4 {
        stroke-miterlimit: 10;
      }

      .cls-9 {
        fill: #0055a2;
      }

      .cls-10 {
        fill: #c40000;
      }

      .cls-2 {
        font-size: 11px;
      }

      .cls-3 {
        font-size: 72px;
      }

      .cls-3, .cls-5 {
        font-family: Arial-BoldMT, Arial;
        font-weight: 700;
      }

      .cls-14 {
        stroke: #231f20;
        stroke-linecap: round;
        stroke-linejoin: round;
        stroke-width: 4px;
      }

      .cls-4 {
        fill: #71a58e;
        opacity: .5;
        stroke: #000;
        stroke-width: 3px;
      }

      .cls-5 {
        font-size: 28.7px;
      }

      .cls-11 {
        fill: #fff;
      }

      .cls-12 {
        fill: #231f20;
      }

      .cls-7 {
        fill: #2e368f;
        font-family: Arial-ItalicMT, Arial;
        font-size: 14px;
        font-style: italic;
      }
    </style>
  </defs>
  <g id="teen_hq" data-name="teen hq">
    <path class="cls-4" d="M361.1,135.9c0,3.6,1.8,182.1,2,213.4v4.7h.1c6-1.5,105-26.3,131-33.4,1.4,3.5,15.8,34.8,17.9,40.7,3.3-.7,19.9-3.9,26-5.4,2.3,1,26.8,11.7,31.8,13.8,23.2-47.8,110.9-231.7,111-231.7M679,138.5l-88.6-1.5-4-1.6-12.6-14.5c-9.1,1-164.7,12.2-214.5,15.9"/>
  </g>
  <g id="floor_outline" data-name="floor outline">
    <g id="c">
      <g id="d">
        <line class="cls-14" x1="681.2" y1="137.8" x2="524.9" y2="462.7"/>
        <line class="cls-14" x1="3.1" y1="603.7" x2="119.7" y2="361.3"/>
        <line class="cls-14" x1="118.3" y1="658.8" x2="3" y2="603.9"/>
        <line class="cls-14" x1="118.9" y1="823.6" x2="285.5" y2="903.7"/>
        <line class="cls-14" x1="325.4" y1="3" x2="263.1" y2="133.8"/>
        <line class="cls-14" x1="468.1" y1="71.7" x2="325.4" y2="3"/>
        <line class="cls-14" x1="119.6" y1="134.6" x2="263.2" y2="133.8"/>
        <line class="cls-14" x1="525.4" y1="40.1" x2="469.9" y2="71.9"/>
        <line class="cls-14" x1="525.4" y1="123.3" x2="525.4" y2="40.1"/>
        <line class="cls-14" x1="525.4" y1="123.3" x2="573.5" y2="119.9"/>
        <line class="cls-14" x1="586.3" y1="135.8" x2="573.5" y2="119.9"/>
        <line class="cls-14" x1="681.2" y1="137.6" x2="587.3" y2="136.8"/>
        <line class="cls-14" x1="119.4" y1="134.8" x2="119.9" y2="360.8"/>
        <line class="cls-14" x1="464.2" y1="462.8" x2="524" y2="462.8"/>
        <line class="cls-14" x1="464.1" y1="555.2" x2="464.2" y2="463.1"/>
        <line class="cls-14" x1="464.1" y1="555.9" x2="524.2" y2="555.9"/>
        <line class="cls-14" x1="524.1" y1="721.6" x2="524.2" y2="555.9"/>
        <line class="cls-14" x1="286.3" y1="828.8" x2="285.5" y2="903.7"/>
        <line class="cls-14" x1="118.9" y1="823.6" x2="118.3" y2="658.8"/>
        <line class="cls-14" x1="316.5" y1="828.1" x2="286.3" y2="827.8"/>
        <line class="cls-14" x1="523.3" y1="721.8" x2="364.6" y2="779"/>
        <line class="cls-14" x1="364.4" y1="779.2" x2="316.8" y2="827.7"/>
      </g>
    </g>
  </g>
  <text class="cls-1" transform="translate(434.6 198.5)"><tspan x="0" y="0">Teen HQ</tspan></text>
  <g id="emergency_exit" data-name="emergency exit">
    <g>
      <circle class="cls-10" cx="625.2" cy="225.9" r="10"/>
      <g>
        <path class="cls-11" d="M630.9,219.7l-3.5-1.2c-.2-.1-.4.1-.4.3v.9h-3.4c0,0-.3.1-.3.3v1.1c.2,0,.4.1.5.1v-.9h3.1v10.6h-2.1c0,.2,0,.4,0,.5h2v.9c0,.2.2.4.4.3l3.5-1.2c0-.1.2-.1.2-.3v-11.1c.2-.1,0-.2,0-.3Z"/>
        <g>
          <path class="cls-11" d="M618.2,230.5h2.2c.3,0,.5-.2.7-.5l.3-.9-1.1-.9h0l-.3.9h-1.7c-.3,0-.7.3-.7.7-.1.4.3.7.6.7Z"/>
          <path class="cls-11" d="M623.3,224.1c.6-.1,1-.7.9-1.4,0-.6-.7-1-1.4-.9-.6.1-1,.7-.9,1.4.2.7.8,1,1.4.9Z"/>
          <path class="cls-11" d="M619.1,226.9c.3.1.6,0,.7-.3l.5-1,.6-.2-.5,1.9c0,.3,0,.5.2.7l1.9,1.5.5,2c0,.3.3.5.7.5h0c.3-.1.6-.5.5-.8l-.5-2.3c0-.1,0-.3-.2-.3l-1.2-.9.6-1.7.6.7c0,.1.3.2.4.2s.2,0,.3-.1l1.1-.7c.3-.1.3-.5.2-.7,0-.3-.5-.3-.7-.2l-.7.4-.6-.7c0-.2-.3-.3-.6-.4l-1-.3c-.3-.1-.6-.1-.9,0l-1.3.4c0,.1-.3.1-.3.3l-.5,1.2c-.3.4-.2.6.1.8Z"/>
        </g>
      </g>
    </g>
  </g>
  <g>
    <g>
      <path class="cls-12" d="M507.1,221.7c-.2-.2-.4-.3-.6-.3s-.5.1-.6.3c-.5.5-1.4,1.4-2.7,2.7-.4.4-.4,1,0,1.3.3.3.9.3,1.2,0l1.1-1.1v3.5c0,.5.4.9.9.9h.1c.5,0,.9-.4.9-.9v-3.5l1.1,1.1c.3.3.9.3,1.2,0h0c.3-.3.3-.9,0-1.2-1.3-1.5-2-2.2-2.6-2.8Z"/>
      <path class="cls-12" d="M514.9,228.7c.2.2.4.3.6.3s.5-.1.6-.3c.5-.5,1.4-1.4,2.7-2.7.4-.4.4-1,0-1.3-.3-.3-.9-.3-1.2,0l-1.1,1.1v-3.5c0-.5-.4-.9-.9-.9h0c-.5,0-.9.4-.9.9v3.5l-1.1-1.1c-.3-.3-.9-.3-1.2,0h0c-.3.3-.3.9,0,1.2,1.3,1.5,2,2.2,2.6,2.8Z"/>
    </g>
    <g>
      <g>
        <path class="cls-12" d="M514.3,235.7c.5,0,1-.4,1-1s-.4-1-1-1-1,.4-1,1c.1.5.5,1,1,1Z"/>
        <path class="cls-12" d="M515.6,235.8h-2.4c-.6,0-1,.5-1,1v3c0,.2.2.4.4.4s.4-.2.4-.4v-2.6h.2v7.1c0,.3.2.6.6.6s.6-.2.6-.6v-4.1h.2v4.1c0,.3.2.6.6.6s.6-.2.6-.6v-7.1h.2v2.6c0,.2.2.4.4.4s.4-.2.4-.4v-3c-.2-.5-.7-1-1.2-1Z"/>
      </g>
      <path class="cls-12" d="M508.1,235.7c.5,0,1-.4,1-1s-.4-1-1-1-1,.4-1,1,.4,1,1,1Z"/>
      <path class="cls-12" d="M510.7,239.4l-.8-2.8c-.2-.5-.6-.7-1.2-.7h-1.3c-.6,0-1,.2-1.2.7l-.8,2.8c-.1.2.1.4.3.4.2.1.4,0,.5-.2l.7-2.5h.2l-1.2,4.3h1.2v3c0,.3.2.5.5.5s.5-.2.5-.5v-3h.2v3c0,.3.2.5.5.5s.5-.2.5-.5v-3h1.2l-1.2-4.3h.2l.7,2.5c.1.2.3.3.5.2-.1,0,0-.3,0-.4Z"/>
    </g>
    <path class="cls-12" d="M517.2,248.3h-12.4c-2.5,0-4.6-2.6-4.6-5.7v-6.5c0-3.2,2.1-5.7,4.6-5.7h12.3c2.5,0,4.6,2.6,4.6,5.7v6.5c0,3.1-2,5.7-4.5,5.7ZM504.8,232.4c-1.6,0-2.9,1.6-2.9,3.6v6.5c0,2,1.3,3.6,2.9,3.6h12.3c1.6,0,2.9-1.6,2.9-3.6v-6.5c0-2-1.3-3.6-2.9-3.6h-12.3Z"/>
  </g>
  <g id="stairs">
    <g>
      <path class="cls-12" d="M370.8,321.8c1,0,1.9-.8,1.9-1.9s-.8-1.9-1.9-1.9-1.9.8-1.9,1.9c.1,1.1.9,1.9,1.9,1.9Z"/>
      <path class="cls-12" d="M367.4,327.7c.6,0,1.1-.4,1.1-1v-1.2l.6-.4v3.6l-1.8,6.9c-.2.5.2,1.1.7,1.2.6.2,1.2-.1,1.4-.7l1.6-6.4h1.6v2.1c0,.6.5,1,1.1,1s1.1-.4,1.1-1v-3.1c0-.6-.5-1-1.1-1h-2.4v-1.9l.6.6c.2.2.5.4.9.4h2c.6,0,1.1-.4,1.1-1s-.5-1-1.1-1h-1.6l-2-2.2h-.1c-.1-.2-.2-.4-.4-.5h-1.2l-2.8,2c-.3.2-.4.5-.4.8h0v1.7c0,.7.4,1.1,1.1,1.1Z"/>
      <path class="cls-12" d="M387.9,324.3h-5.1c-.2,0-.3.2-.4.4v4.7h-4.7c-.2,0-.3.2-.4.4v5h-4.9c-.2,0-.3.2-.4.4v4.6h-4.7c-.2,0-.3.2-.4.4v4.4c0,.2.2.3.4.4h20.5c.2,0,.3-.2.4-.4v-19.8c0-.3,0-.4-.3-.5Z"/>
    </g>
  </g>
  <g id="North">
    <polygon class="cls-8" points="654.8 25.3 626.5 20.4 649.9 53.6 654.8 25.3"/>
    <text class="cls-5" transform="translate(652 14.8) rotate(53.1)"><tspan x="0" y="0">N</tspan></text>
    <text class="cls-7" transform="translate(23.1 241.6) rotate(-63.9)"><tspan x="0" y="0">Fourth Street</tspan></text>
    <line class="cls-13" x1="15.6" y1="263.7" x2="73.1" y2="146.2"/>
    <line class="cls-13" x1="2.4" y1="257.2" x2="59.9" y2="139.7"/>
    <text class="cls-7" transform="translate(544.5 22.8) rotate(26.1)"><tspan x="0" y="0">San Fernando Street</tspan></text>
    <line class="cls-13" x1="533.1" y1="20.9" x2="671.5" y2="88.6"/>
    <line class="cls-13" x1="539.5" y1="6.6" x2="677.9" y2="74.3"/>
  </g>
  <g>
    <text class="cls-3" transform="translate(0 61.8)"><tspan x="0" y="0">M</tspan></text>
    <g class="cls-6">
      <text class="cls-2" transform="translate(64 20.1)"><tspan x="0" y="0">Teen HQ</tspan></text>
      <text class="cls-2" transform="translate(64 33.3)"><tspan x="0" y="0">Children’s Exploration Room</tspan></text>
    </g>
  </g>
  <g id="bluelight_phone" data-name="bluelight phone">
    <circle class="cls-9" cx="396.8" cy="283.8" r="10"/>
    <g>
      <polygon class="cls-11" points="399.5 277.1 396.4 282.5 402.6 282.5 399.5 277.1"/>
      <polygon class="cls-11" points="402.6 278.7 396.4 278.7 399.5 284.1 402.6 278.7"/>
    </g>
    <g id="bluelight_phone-2" data-name="bluelight phone">
      <g>
        <path class="cls-11" d="M393.4,282.6c.1.1.2.1.3,0h.1c0-.1,1.1-1.1,1.1-1.1.1-.1.1-.2,0-.3l-2.4-2.6c-.1-.1-.2-.1-.3,0l-1.1,1c-.1.1-.1.2,0,.3l2.3,2.7Z"/>
        <path class="cls-11" d="M401.4,288.6l-2.4-2.6c-.1-.1-.2-.1-.3,0l-1.2,1.1c-.1.1-.1.2,0,.3l2.4,2.6c.1.1.2.1.3,0h.1c0-.1,1.1-1.1,1.1-1.1.1,0,.1,0,0-.3Z"/>
        <path class="cls-11" d="M394.6,285.8c-1.8-1.9-1.4-2.7-1.3-2.8l-2.6-2.9s-1.9,2.6,2.4,7.2c4.3,4.6,6.8,2.9,6.8,2.9l-2.6-2.8c-.3.1-1.1.2-2.7-1.6Z"/>
      </g>
    </g>
  </g>
</svg>