<?xml version="1.0" encoding="utf-8"?>
<!-- Generator: Adobe Illustrator 28.2.0, SVG Export Plug-In . SVG Version: 6.00 Build 0)  -->
<svg version="1.1" id="Layer_1" xmlns="http://www.w3.org/2000/svg" xmlns:xlink="http://www.w3.org/1999/xlink" x="0px" y="0px"
	 viewBox="0 0 684.2 906.7" style="enable-background:new 0 0 684.2 906.7;" xml:space="preserve">
<style type="text/css">
	.st0{opacity:0.5;fill:#71A58E;stroke:#000000;stroke-width:4;stroke-miterlimit:10;enable-background:new    ;}
	.st1{fill:none;stroke:#231F20;stroke-width:6;stroke-linecap:round;stroke-linejoin:round;}
	.st2{font-family:'ArialMT';}
	.st3{font-size:20px;}
	.st4{fill:#C40000;}
	.st5{fill:#FFFFFF;}
	.st6{fill:#231F20;}
	.st7{fill:none;stroke:#000000;stroke-miterlimit:10;enable-background:new    ;}
</style>
<g id="teen_hq">
	<path class="st0" d="M361.1,135.9c0,3.6,1.8,182.1,2,213.4c0,2.4,0,3.5,0,4.7c0,0,0,0,0.1-0.1c6-1.4,105-26.2,131-33.3
		c1.4,3.5,15.8,34.8,17.9,40.7c3.3-0.7,19.9-3.9,26-5.4c2.3,1,26.8,11.7,31.8,13.8c23.2-47.8,110.9-231.7,111-231.7 M679,138.5
		l-88.6-1.5l-4-1.6l-12.6-14.5c-9.1,1-164.7,12.2-214.5,15.9"/>
</g>
<g id="floor_outline">
	<g id="c">
		<g id="d">
			<line class="st1" x1="681.2" y1="137.8" x2="524.9" y2="462.7"/>
			<line class="st1" x1="3.1" y1="603.7" x2="119.7" y2="361.3"/>
			<line class="st1" x1="118.3" y1="658.8" x2="3" y2="603.9"/>
			<line class="st1" x1="118.9" y1="823.6" x2="285.5" y2="903.7"/>
			<line class="st1" x1="325.4" y1="3" x2="263.1" y2="133.8"/>
			<line class="st1" x1="468.1" y1="71.7" x2="325.4" y2="3"/>
			<line class="st1" x1="119.6" y1="134.6" x2="263.2" y2="133.8"/>
			<line class="st1" x1="525.4" y1="40.1" x2="469.9" y2="71.9"/>
			<line class="st1" x1="525.4" y1="123.3" x2="525.4" y2="40.1"/>
			<line class="st1" x1="525.4" y1="123.3" x2="573.5" y2="119.9"/>
			<line class="st1" x1="586.3" y1="135.8" x2="573.5" y2="119.9"/>
			<line class="st1" x1="681.2" y1="137.6" x2="587.3" y2="136.8"/>
			<line class="st1" x1="119.4" y1="134.8" x2="119.9" y2="360.8"/>
			<line class="st1" x1="464.2" y1="462.8" x2="524" y2="462.8"/>
			<line class="st1" x1="464.1" y1="555.2" x2="464.2" y2="463.1"/>
			<line class="st1" x1="464.1" y1="555.9" x2="524.2" y2="555.9"/>
			<line class="st1" x1="524.1" y1="721.6" x2="524.2" y2="555.9"/>
			<line class="st1" x1="286.3" y1="828.8" x2="285.5" y2="903.7"/>
			<line class="st1" x1="118.9" y1="823.6" x2="118.3" y2="658.8"/>
			<line class="st1" x1="316.5" y1="828.1" x2="286.3" y2="827.8"/>
			<line class="st1" x1="523.3" y1="721.8" x2="364.6" y2="779"/>
			<line class="st1" x1="364.4" y1="779.2" x2="316.8" y2="827.7"/>
		</g>
	</g>
</g>
<text transform="matrix(1 0 0 1 399.8038 285.2347)" class="st2 st3">Teen HQ</text>
<g id="emergency_exit">
	<g>
		<circle class="st4" cx="619.2" cy="225.2" r="15"/>
		<g>
			<g>
				<path class="st5" d="M627.7,216l-5.2-1.8c-0.3-0.1-0.6,0.1-0.6,0.5v1.4h-5.1c-0.2,0-0.4,0.2-0.4,0.4v1.6c0.3,0,0.6,0.1,0.8,0.2
					v-1.4h4.6v15.9h-3.1v0.2c0,0.2,0.1,0.4,0,0.6h3v1.4c0,0.3,0.3,0.6,0.6,0.5l5.2-1.8c0.2-0.1,0.3-0.2,0.3-0.5v-16.8
					C628,216.3,627.9,216.1,627.7,216z"/>
				<g>
					<g>
						<path class="st5" d="M608.7,232.1h3.3c0.4,0,0.8-0.3,1-0.7l0.4-1.3l-1.6-1.3l0,0l-0.4,1.4h-2.6c-0.5,0-1,0.4-1,1
							C607.7,231.7,608.2,232.1,608.7,232.1z"/>
						<path class="st5" d="M616.4,222.5c0.9-0.2,1.5-1.1,1.3-2.1c-0.2-0.9-1.1-1.5-2.1-1.3c-0.9,0.2-1.5,1.1-1.3,2.1
							S615.5,222.7,616.4,222.5z"/>
						<path class="st5" d="M610,226.7c0.4,0.2,0.9,0,1.1-0.4l0.7-1.5l0.9-0.3l-0.8,2.9c-0.1,0.4,0,0.8,0.3,1l2.8,2.3l0.8,3
							c0.1,0.5,0.5,0.8,1,0.8c0.1,0,0.2,0,0.2,0c0.5-0.1,0.9-0.7,0.7-1.2l-0.8-3.4c0-0.2-0.2-0.4-0.3-0.5l-1.8-1.4l0.9-2.5l0.9,1.1
							c0.2,0.2,0.4,0.3,0.6,0.3c0.1,0,0.3,0,0.4-0.1l1.7-1c0.4-0.2,0.5-0.8,0.3-1.1c-0.2-0.4-0.8-0.5-1.1-0.3l-1.1,0.6l-0.9-1
							c-0.2-0.3-0.5-0.5-0.9-0.6l-1.5-0.5c-0.4-0.2-0.9-0.2-1.4,0l-1.9,0.6c-0.2,0.1-0.4,0.2-0.5,0.5l-0.8,1.8
							C609.4,226.1,609.6,226.5,610,226.7z"/>
					</g>
				</g>
			</g>
		</g>
	</g>
</g>
<g>
	<g>
		<path class="st6" d="M507.1,221.7c-0.2-0.2-0.4-0.3-0.6-0.3s-0.5,0.1-0.6,0.3c-0.5,0.5-1.4,1.4-2.7,2.7c-0.4,0.4-0.4,1,0,1.3
			c0.3,0.3,0.9,0.3,1.2,0l1.1-1.1v3.5c0,0.5,0.4,0.9,0.9,0.9h0.1c0.5,0,0.9-0.4,0.9-0.9v-3.5l1.1,1.1c0.3,0.3,0.9,0.3,1.2,0l0,0
			c0.3-0.3,0.3-0.9,0-1.2C508.4,223,507.7,222.3,507.1,221.7z"/>
		<path class="st6" d="M514.9,228.7c0.2,0.2,0.4,0.3,0.6,0.3s0.5-0.1,0.6-0.3c0.5-0.5,1.4-1.4,2.7-2.7c0.4-0.4,0.4-1,0-1.3
			c-0.3-0.3-0.9-0.3-1.2,0l-1.1,1.1v-3.5c0-0.5-0.4-0.9-0.9-0.9h-0.1c-0.5,0-0.9,0.4-0.9,0.9v3.5l-1.1-1.1c-0.3-0.3-0.9-0.3-1.2,0
			l0,0c-0.3,0.3-0.3,0.9,0,1.2C513.6,227.4,514.3,228.1,514.9,228.7z"/>
	</g>
	<g>
		<g>
			<path class="st6" d="M514.3,235.7c0.5,0,1-0.4,1-1c0-0.5-0.4-1-1-1c-0.5,0-1,0.4-1,1C513.4,235.2,513.8,235.7,514.3,235.7z"/>
			<path class="st6" d="M515.6,235.8h-2.4c-0.6,0-1,0.5-1,1v3c0,0.2,0.2,0.4,0.4,0.4c0.2,0,0.4-0.2,0.4-0.4v-2.6h0.2v3v4.1
				c0,0.3,0.2,0.6,0.6,0.6c0.3,0,0.6-0.2,0.6-0.6v-4.1h0.2v4.1c0,0.3,0.2,0.6,0.6,0.6c0.3,0,0.6-0.2,0.6-0.6v-4.1v-3h0.2v2.6
				c0,0.2,0.2,0.4,0.4,0.4c0.2,0,0.4-0.2,0.4-0.4v-3C516.6,236.3,516.1,235.8,515.6,235.8z"/>
		</g>
		<path class="st6" d="M508.1,235.7c0.5,0,1-0.4,1-1c0-0.5-0.4-1-1-1c-0.5,0-1,0.4-1,1C507.1,235.2,507.5,235.7,508.1,235.7z"/>
		<path class="st6" d="M510.7,239.4l-0.8-2.8c-0.2-0.5-0.6-0.7-1.2-0.7l0,0h-1.3l0,0c-0.6,0-1,0.2-1.2,0.7l-0.8,2.8
			c-0.1,0.2,0.1,0.4,0.3,0.4c0.2,0.1,0.4,0,0.5-0.2l0.7-2.5h0.2l-1.2,4.3h1.2v3c0,0.3,0.2,0.5,0.5,0.5s0.5-0.2,0.5-0.5v-3h0.2v3
			c0,0.3,0.2,0.5,0.5,0.5s0.5-0.2,0.5-0.5v-3h1.2l-1.2-4.3h0.2l0.7,2.5c0.1,0.2,0.3,0.3,0.5,0.2
			C510.6,239.7,510.7,239.5,510.7,239.4z"/>
	</g>
	<g>
		<path class="st6" d="M517.2,248.3h-12.4c-2.5,0-4.6-2.6-4.6-5.7v-6.5c0-3.2,2.1-5.7,4.6-5.7h12.3c2.5,0,4.6,2.6,4.6,5.7v6.5
			C521.7,245.7,519.7,248.3,517.2,248.3z M504.8,232.4c-1.6,0-2.9,1.6-2.9,3.6v6.5c0,2,1.3,3.6,2.9,3.6h12.3c1.6,0,2.9-1.6,2.9-3.6
			V236c0-2-1.3-3.6-2.9-3.6H504.8z"/>
	</g>
	
		<rect x="495" y="218.9" transform="matrix(1.913665e-03 -1 1 1.913665e-03 275.1167 745.3611)" class="st7" width="31.9" height="31.9"/>
</g>
</svg>
