<?xml version="1.0" encoding="utf-8"?>
<!-- Generator: Adobe Illustrator 28.1.0, SVG Export Plug-In . SVG Version: 6.00 Build 0)  -->
<svg version="1.1" id="Layer_1" xmlns="http://www.w3.org/2000/svg" xmlns:xlink="http://www.w3.org/1999/xlink" x="0px" y="0px"
	 viewBox="0 0 684.2 906.7" style="enable-background:new 0 0 684.2 906.7;" xml:space="preserve">
<style type="text/css">
	.st0{opacity:0.5;fill:#71A58E;stroke:#000000;stroke-width:4;stroke-miterlimit:10;}
	.st1{font-family:'ArialMT';}
	.st2{font-size:18px;}
	.st3{fill:none;stroke:#231F20;stroke-width:6;stroke-linecap:round;stroke-linejoin:round;}
</style>
<g id="teen_hq">
	<path class="st0" d="M361.1,135.9c0,3.6,1.8,182.1,2,213.4c0,2.4,0,3.5,0,4.7c0,0,0,0,0.1-0.1c6-1.4,105-26.2,131-33.3
		c1.4,3.5,15.8,34.8,17.9,40.7c3.3-0.7,19.9-3.9,26-5.4c2.3,1,26.8,11.7,31.8,13.8c23.2-47.8,110.9-231.7,111-231.7 M679,138.5
		l-88.6-1.5l-4-1.6l-12.6-14.5c-9.1,1-164.7,12.2-214.5,15.9"/>
	<text transform="matrix(1 0 0 1 465.291 228.3806)" class="st1 st2">Teen HQ</text>
</g>
<g id="floor_outline">
	<g id="c">
		<g id="d">
			<line class="st3" x1="681.2" y1="137.8" x2="524.9" y2="462.7"/>
			<line class="st3" x1="3.1" y1="603.7" x2="119.7" y2="361.3"/>
			<line class="st3" x1="118.3" y1="658.8" x2="3" y2="603.9"/>
			<line class="st3" x1="118.9" y1="823.6" x2="285.5" y2="903.7"/>
			<line class="st3" x1="325.4" y1="3" x2="263.1" y2="133.8"/>
			<line class="st3" x1="468.1" y1="71.7" x2="325.4" y2="3"/>
			<line class="st3" x1="119.6" y1="134.6" x2="263.2" y2="133.8"/>
			<line class="st3" x1="525.4" y1="40.1" x2="469.9" y2="71.9"/>
			<line class="st3" x1="525.4" y1="123.3" x2="525.4" y2="40.1"/>
			<line class="st3" x1="525.4" y1="123.3" x2="573.5" y2="119.9"/>
			<line class="st3" x1="586.3" y1="135.8" x2="573.5" y2="119.9"/>
			<line class="st3" x1="681.2" y1="137.6" x2="587.3" y2="136.8"/>
			<line class="st3" x1="119.4" y1="134.8" x2="119.9" y2="360.8"/>
			<line class="st3" x1="464.2" y1="462.8" x2="524" y2="462.8"/>
			<line class="st3" x1="464.1" y1="555.2" x2="464.2" y2="463.1"/>
			<line class="st3" x1="464.1" y1="555.9" x2="524.2" y2="555.9"/>
			<line class="st3" x1="524.1" y1="721.6" x2="524.2" y2="555.9"/>
			<line class="st3" x1="286.3" y1="828.8" x2="285.5" y2="903.7"/>
			<line class="st3" x1="118.9" y1="823.6" x2="118.3" y2="658.8"/>
			<line class="st3" x1="316.5" y1="828.1" x2="286.3" y2="827.8"/>
			<line class="st3" x1="523.3" y1="721.8" x2="364.6" y2="779"/>
			<line class="st3" x1="364.4" y1="779.2" x2="316.8" y2="827.7"/>
		</g>
	</g>
</g>
</svg>
