<?xml version="1.0" encoding="utf-8"?>
<!-- Generator: Adobe Illustrator 28.1.0, SVG Export Plug-In . SVG Version: 6.00 Build 0)  -->
<svg version="1.1" id="Layer_1" xmlns="http://www.w3.org/2000/svg" xmlns:xlink="http://www.w3.org/1999/xlink" x="0px" y="0px"
	 viewBox="0 0 684.1 869.6" style="enable-background:new 0 0 684.1 869.6;" xml:space="preserve">
<style type="text/css">
	.st0{fill:none;}
	.st1{fill:#231F20;}
	.st2{opacity:0.45;fill:url(#SVGID_1_);stroke:#C2C4C6;stroke-miterlimit:10;enable-background:new    ;}
	.st3{fill:none;stroke:#000000;stroke-miterlimit:10;}
	
		.st4{opacity:0.45;fill:url(#SVGID_00000024695398772333713980000010834030585836773801_);stroke:#C2C4C6;stroke-miterlimit:10;enable-background:new    ;}
	.st5{fill:none;stroke:#E2E3E4;stroke-miterlimit:10;}
	
		.st6{opacity:0.45;fill:url(#SVGID_00000134228958536750360410000005754877042818543274_);stroke:#ABADB0;stroke-miterlimit:10;enable-background:new    ;}
	.st7{display:none;}
	.st8{display:inline;fill:#EBCA74;}
	.st9{fill:#62748C;stroke:#8F9194;stroke-miterlimit:10;}
	
		.st10{opacity:0.45;fill:url(#SVGID_00000032629039863730734360000008627340153651332280_);stroke:#C4C6C8;stroke-miterlimit:10;enable-background:new    ;}
	.st11{fill:none;stroke:#8F9194;stroke-miterlimit:10;}
	.st12{fill:#71A58E;stroke:#000000;stroke-width:4;stroke-miterlimit:10;}
	.st13{fill:#688D8C;stroke:#D65C52;stroke-width:0.25;stroke-miterlimit:10;}
	.st14{fill:#D67F4C;stroke:#8F9194;stroke-miterlimit:10;}
	.st15{fill:#FFFFFF;}
	.st16{fill:#D67F4C;}
	.st17{fill:#E4F0F9;}
	.st18{fill:#D65C52;}
	.st19{fill:#FFFFFF;stroke:#000000;stroke-miterlimit:10;}
	.st20{fill:none;stroke:#010101;stroke-width:4;stroke-miterlimit:10;}
	.st21{font-family:'MyriadPro-Bold';}
	.st22{font-size:18px;}
	.st23{fill:none;stroke:#221F1F;stroke-width:6;stroke-linecap:round;stroke-linejoin:round;}
	.st24{fill:none;stroke:#231F20;stroke-width:6;stroke-linecap:round;stroke-linejoin:round;}
</style>
<pattern  y="869.6" width="28.8" height="28.8" patternUnits="userSpaceOnUse" id="SVGID_0000000090969647345121621" viewBox="1.4 -30.2 28.8 28.8" style="overflow:visible;">
	<g>
		<rect x="1.4" y="-30.2" class="st0" width="28.8" height="28.8"/>
		<g>
			<rect x="1.4" y="-30.2" class="st0" width="28.8" height="28.8"/>
			<g>
				<rect x="1.4" y="-30.2" class="st0" width="28.8" height="28.8"/>
				<g>
					<path class="st1" d="M30.2,0c0.8,0,1.4-0.6,1.4-1.4S31-2.8,30.2-2.8s-1.4,0.6-1.4,1.4C28.8-0.6,29.4,0,30.2,0z"/>
					<path class="st1" d="M15.8,0c0.8,0,1.4-0.6,1.4-1.4s-0.6-1.4-1.4-1.4c-0.8,0-1.4,0.6-1.4,1.4C14.4-0.6,15,0,15.8,0z"/>
					<path class="st1" d="M30.2-14.4c0.8,0,1.4-0.6,1.4-1.4s-0.6-1.4-1.4-1.4s-1.4,0.6-1.4,1.4C28.8-15,29.4-14.4,30.2-14.4z"/>
					<path class="st1" d="M15.8-14.4c0.8,0,1.4-0.6,1.4-1.4s-0.6-1.4-1.4-1.4c-0.8,0-1.4,0.6-1.4,1.4C14.4-15,15-14.4,15.8-14.4z"/>
					<path class="st1" d="M8.6-7.2c0.8,0,1.4-0.6,1.4-1.4S9.4-10,8.6-10c-0.8,0-1.4,0.6-1.4,1.4C7.2-7.8,7.8-7.2,8.6-7.2z"/>
					<path class="st1" d="M23-7.2c0.8,0,1.4-0.6,1.4-1.4S23.8-10,23-10s-1.4,0.6-1.4,1.4S22.2-7.2,23-7.2z"/>
					<path class="st1" d="M8.6-21.6c0.8,0,1.4-0.6,1.4-1.4s-0.6-1.4-1.4-1.4c-0.8,0-1.4,0.6-1.4,1.4C7.2-22.2,7.8-21.6,8.6-21.6z"/>
					<path class="st1" d="M23-21.6c0.8,0,1.4-0.6,1.4-1.4s-0.6-1.4-1.4-1.4s-1.4,0.6-1.4,1.4C21.6-22.2,22.2-21.6,23-21.6z"/>
				</g>
				<g>
					<path class="st1" d="M1.4,0c0.8,0,1.4-0.6,1.4-1.4S2.2-2.8,1.4-2.8C0.6-2.9,0-2.2,0-1.4C0-0.6,0.6,0,1.4,0z"/>
					<path class="st1" d="M1.4-14.4c0.8,0,1.4-0.6,1.4-1.4s-0.6-1.4-1.4-1.4S0-16.6,0-15.8S0.6-14.4,1.4-14.4z"/>
				</g>
				<g>
					<path class="st1" d="M30.2-28.8c0.8,0,1.4-0.6,1.4-1.4s-0.6-1.4-1.4-1.4s-1.4,0.6-1.4,1.4C28.8-29.4,29.4-28.8,30.2-28.8z"/>
					<path class="st1" d="M15.8-28.8c0.8,0,1.4-0.6,1.4-1.4s-0.6-1.4-1.4-1.4s-1.4,0.6-1.4,1.4C14.4-29.4,15-28.8,15.8-28.8z"/>
				</g>
				<g>
					<path class="st1" d="M1.4-28.8c0.8,0,1.4-0.6,1.4-1.4s-0.6-1.4-1.4-1.4C0.6-31.7,0-31,0-30.2C0-29.4,0.6-28.8,1.4-28.8z"/>
				</g>
			</g>
		</g>
	</g>
</pattern>
<pattern  y="869.6" width="28.8" height="28.8" patternUnits="userSpaceOnUse" id="SVGID_0000000666686074519055135" viewBox="1.4 -30.2 28.8 28.8" style="overflow:visible;">
	<g>
		<rect x="1.4" y="-30.2" class="st0" width="28.8" height="28.8"/>
		<g>
			<rect x="1.4" y="-30.2" class="st0" width="28.8" height="28.8"/>
			<g>
				<rect x="1.4" y="-30.2" class="st0" width="28.8" height="28.8"/>
				<g>
					<path class="st1" d="M30.2,0c0.8,0,1.4-0.6,1.4-1.4S31-2.8,30.2-2.8s-1.4,0.6-1.4,1.4C28.8-0.6,29.4,0,30.2,0z"/>
					<path class="st1" d="M15.8,0c0.8,0,1.4-0.6,1.4-1.4s-0.6-1.4-1.4-1.4c-0.8,0-1.4,0.6-1.4,1.4C14.4-0.6,15,0,15.8,0z"/>
					<path class="st1" d="M30.2-14.4c0.8,0,1.4-0.6,1.4-1.4s-0.6-1.4-1.4-1.4s-1.4,0.6-1.4,1.4C28.8-15,29.4-14.4,30.2-14.4z"/>
					<path class="st1" d="M15.8-14.4c0.8,0,1.4-0.6,1.4-1.4s-0.6-1.4-1.4-1.4c-0.8,0-1.4,0.6-1.4,1.4C14.4-15,15-14.4,15.8-14.4z"/>
					<path class="st1" d="M8.6-7.2c0.8,0,1.4-0.6,1.4-1.4S9.4-10,8.6-10c-0.8,0-1.4,0.6-1.4,1.4C7.2-7.8,7.8-7.2,8.6-7.2z"/>
					<path class="st1" d="M23-7.2c0.8,0,1.4-0.6,1.4-1.4S23.8-10,23-10s-1.4,0.6-1.4,1.4S22.2-7.2,23-7.2z"/>
					<path class="st1" d="M8.6-21.6c0.8,0,1.4-0.6,1.4-1.4s-0.6-1.4-1.4-1.4c-0.8,0-1.4,0.6-1.4,1.4C7.2-22.2,7.8-21.6,8.6-21.6z"/>
					<path class="st1" d="M23-21.6c0.8,0,1.4-0.6,1.4-1.4s-0.6-1.4-1.4-1.4s-1.4,0.6-1.4,1.4C21.6-22.2,22.2-21.6,23-21.6z"/>
				</g>
				<g>
					<path class="st1" d="M1.4,0c0.8,0,1.4-0.6,1.4-1.4S2.2-2.8,1.4-2.8C0.6-2.9,0-2.2,0-1.4C0-0.6,0.6,0,1.4,0z"/>
					<path class="st1" d="M1.4-14.4c0.8,0,1.4-0.6,1.4-1.4s-0.6-1.4-1.4-1.4S0-16.6,0-15.8S0.6-14.4,1.4-14.4z"/>
				</g>
				<g>
					<path class="st1" d="M30.2-28.8c0.8,0,1.4-0.6,1.4-1.4s-0.6-1.4-1.4-1.4s-1.4,0.6-1.4,1.4C28.8-29.4,29.4-28.8,30.2-28.8z"/>
					<path class="st1" d="M15.8-28.8c0.8,0,1.4-0.6,1.4-1.4s-0.6-1.4-1.4-1.4s-1.4,0.6-1.4,1.4C14.4-29.4,15-28.8,15.8-28.8z"/>
				</g>
				<g>
					<path class="st1" d="M1.4-28.8c0.8,0,1.4-0.6,1.4-1.4s-0.6-1.4-1.4-1.4C0.6-31.7,0-31,0-30.2C0-29.4,0.6-28.8,1.4-28.8z"/>
				</g>
			</g>
		</g>
	</g>
</pattern>
<pattern  y="869.6" width="28.8" height="28.8" patternUnits="userSpaceOnUse" id="SVGID_0000015007417308049970083" viewBox="1.4 -30.2 28.8 28.8" style="overflow:visible;">
	<g>
		<rect x="1.4" y="-30.2" class="st0" width="28.8" height="28.8"/>
		<g>
			<rect x="1.4" y="-30.2" class="st0" width="28.8" height="28.8"/>
			<g>
				<rect x="1.4" y="-30.2" class="st0" width="28.8" height="28.8"/>
				<g>
					<path class="st1" d="M30.2,0c0.8,0,1.4-0.6,1.4-1.4S31-2.8,30.2-2.8s-1.4,0.6-1.4,1.4C28.8-0.6,29.4,0,30.2,0z"/>
					<path class="st1" d="M15.8,0c0.8,0,1.4-0.6,1.4-1.4s-0.6-1.4-1.4-1.4c-0.8,0-1.4,0.6-1.4,1.4C14.4-0.6,15,0,15.8,0z"/>
					<path class="st1" d="M30.2-14.4c0.8,0,1.4-0.6,1.4-1.4s-0.6-1.4-1.4-1.4s-1.4,0.6-1.4,1.4C28.8-15,29.4-14.4,30.2-14.4z"/>
					<path class="st1" d="M15.8-14.4c0.8,0,1.4-0.6,1.4-1.4s-0.6-1.4-1.4-1.4c-0.8,0-1.4,0.6-1.4,1.4C14.4-15,15-14.4,15.8-14.4z"/>
					<path class="st1" d="M8.6-7.2c0.8,0,1.4-0.6,1.4-1.4S9.4-10,8.6-10c-0.8,0-1.4,0.6-1.4,1.4C7.2-7.8,7.8-7.2,8.6-7.2z"/>
					<path class="st1" d="M23-7.2c0.8,0,1.4-0.6,1.4-1.4S23.8-10,23-10s-1.4,0.6-1.4,1.4S22.2-7.2,23-7.2z"/>
					<path class="st1" d="M8.6-21.6c0.8,0,1.4-0.6,1.4-1.4s-0.6-1.4-1.4-1.4c-0.8,0-1.4,0.6-1.4,1.4C7.2-22.2,7.8-21.6,8.6-21.6z"/>
					<path class="st1" d="M23-21.6c0.8,0,1.4-0.6,1.4-1.4s-0.6-1.4-1.4-1.4s-1.4,0.6-1.4,1.4C21.6-22.2,22.2-21.6,23-21.6z"/>
				</g>
				<g>
					<path class="st1" d="M1.4,0c0.8,0,1.4-0.6,1.4-1.4S2.2-2.8,1.4-2.8C0.6-2.9,0-2.2,0-1.4C0-0.6,0.6,0,1.4,0z"/>
					<path class="st1" d="M1.4-14.4c0.8,0,1.4-0.6,1.4-1.4s-0.6-1.4-1.4-1.4S0-16.6,0-15.8S0.6-14.4,1.4-14.4z"/>
				</g>
				<g>
					<path class="st1" d="M30.2-28.8c0.8,0,1.4-0.6,1.4-1.4s-0.6-1.4-1.4-1.4s-1.4,0.6-1.4,1.4C28.8-29.4,29.4-28.8,30.2-28.8z"/>
					<path class="st1" d="M15.8-28.8c0.8,0,1.4-0.6,1.4-1.4s-0.6-1.4-1.4-1.4s-1.4,0.6-1.4,1.4C14.4-29.4,15-28.8,15.8-28.8z"/>
				</g>
				<g>
					<path class="st1" d="M1.4-28.8c0.8,0,1.4-0.6,1.4-1.4s-0.6-1.4-1.4-1.4C0.6-31.7,0-31,0-30.2C0-29.4,0.6-28.8,1.4-28.8z"/>
				</g>
			</g>
		</g>
	</g>
</pattern>
<pattern  y="869.6" width="28.8" height="28.8" patternUnits="userSpaceOnUse" id="SVGID_0000016447266759167289322" viewBox="1.4 -30.2 28.8 28.8" style="overflow:visible;">
	<g>
		<rect x="1.4" y="-30.2" class="st0" width="28.8" height="28.8"/>
		<g>
			<rect x="1.4" y="-30.2" class="st0" width="28.8" height="28.8"/>
			<g>
				<rect x="1.4" y="-30.2" class="st0" width="28.8" height="28.8"/>
				<g>
					<path class="st1" d="M30.2,0c0.8,0,1.4-0.6,1.4-1.4S31-2.8,30.2-2.8s-1.4,0.6-1.4,1.4C28.8-0.6,29.4,0,30.2,0z"/>
					<path class="st1" d="M15.8,0c0.8,0,1.4-0.6,1.4-1.4s-0.6-1.4-1.4-1.4c-0.8,0-1.4,0.6-1.4,1.4C14.4-0.6,15,0,15.8,0z"/>
					<path class="st1" d="M30.2-14.4c0.8,0,1.4-0.6,1.4-1.4s-0.6-1.4-1.4-1.4s-1.4,0.6-1.4,1.4C28.8-15,29.4-14.4,30.2-14.4z"/>
					<path class="st1" d="M15.8-14.4c0.8,0,1.4-0.6,1.4-1.4s-0.6-1.4-1.4-1.4c-0.8,0-1.4,0.6-1.4,1.4C14.4-15,15-14.4,15.8-14.4z"/>
					<path class="st1" d="M8.6-7.2c0.8,0,1.4-0.6,1.4-1.4S9.4-10,8.6-10c-0.8,0-1.4,0.6-1.4,1.4C7.2-7.8,7.8-7.2,8.6-7.2z"/>
					<path class="st1" d="M23-7.2c0.8,0,1.4-0.6,1.4-1.4S23.8-10,23-10s-1.4,0.6-1.4,1.4S22.2-7.2,23-7.2z"/>
					<path class="st1" d="M8.6-21.6c0.8,0,1.4-0.6,1.4-1.4s-0.6-1.4-1.4-1.4c-0.8,0-1.4,0.6-1.4,1.4C7.2-22.2,7.8-21.6,8.6-21.6z"/>
					<path class="st1" d="M23-21.6c0.8,0,1.4-0.6,1.4-1.4s-0.6-1.4-1.4-1.4s-1.4,0.6-1.4,1.4C21.6-22.2,22.2-21.6,23-21.6z"/>
				</g>
				<g>
					<path class="st1" d="M1.4,0c0.8,0,1.4-0.6,1.4-1.4S2.2-2.8,1.4-2.8C0.6-2.9,0-2.2,0-1.4C0-0.6,0.6,0,1.4,0z"/>
					<path class="st1" d="M1.4-14.4c0.8,0,1.4-0.6,1.4-1.4s-0.6-1.4-1.4-1.4S0-16.6,0-15.8S0.6-14.4,1.4-14.4z"/>
				</g>
				<g>
					<path class="st1" d="M30.2-28.8c0.8,0,1.4-0.6,1.4-1.4s-0.6-1.4-1.4-1.4s-1.4,0.6-1.4,1.4C28.8-29.4,29.4-28.8,30.2-28.8z"/>
					<path class="st1" d="M15.8-28.8c0.8,0,1.4-0.6,1.4-1.4s-0.6-1.4-1.4-1.4s-1.4,0.6-1.4,1.4C14.4-29.4,15-28.8,15.8-28.8z"/>
				</g>
				<g>
					<path class="st1" d="M1.4-28.8c0.8,0,1.4-0.6,1.4-1.4s-0.6-1.4-1.4-1.4C0.6-31.7,0-31,0-30.2C0-29.4,0.6-28.8,1.4-28.8z"/>
				</g>
			</g>
		</g>
	</g>
</pattern>
<g id="employee_areas">
	<pattern  id="SVGID_1_" xlink:href="#SVGID_0000016447266759167289322" patternTransform="matrix(1 0 0 1 -204.2 52590.7812)">
	</pattern>
	<polygon class="st2" points="116.7,621.9 117.3,687.9 205.7,687.8 206,561.4 123.7,561.5 125.2,427.8 70.4,427.1 4.9,564.6 	"/>
	<line class="st3" x1="525.1" y1="668.5" x2="525.2" y2="587"/>
	
		<pattern  id="SVGID_00000048461586832401116150000013370850402405078188_" xlink:href="#SVGID_0000000090969647345121621" patternTransform="matrix(1 0 0 1 -204.2 52590.7812)">
	</pattern>
	
		<polyline style="opacity:0.45;fill:url(#SVGID_00000048461586832401116150000013370850402405078188_);stroke:#C2C4C6;stroke-miterlimit:10;enable-background:new    ;" points="
		468.6,610.7 468.7,582.9 424.8,582.9 424.6,610.5 424.7,610.2 469,610.1 	"/>
	<line class="st5" x1="469" y1="582.9" x2="480.7" y2="582.9"/>
	
		<pattern  id="SVGID_00000093141193686723413450000001732406642142969264_" xlink:href="#SVGID_0000015007417308049970083" patternTransform="matrix(1 0 0 1 -33.2 17313.8398)">
	</pattern>
	
		<polygon style="opacity:0.45;fill:url(#SVGID_00000093141193686723413450000001732406642142969264_);stroke:#ABADB0;stroke-miterlimit:10;enable-background:new    ;" points="
		525,262.5 440.1,262.6 440.2,176.8 524.9,176.8 	"/>
</g>
<g id="stacks_00000111169711514069899420000012906246108212425110_" class="st7">
	<rect x="122.1" y="275" class="st8" width="118.5" height="48.4"/>
	<rect x="375.3" y="188.7" class="st8" width="51.2" height="93.9"/>
</g>
<g id="spaces">
	<polyline id="_x32_25_00000116235876951198584460000015863712647643009706_" class="st9" points="283.7,862.1 283.6,716.6 
		266.2,704.9 119.1,704.6 119.3,785.4 283.6,863.7 	"/>
	<polygon id="_x32_55_00000171711371533934043890000005027550862519950216_" class="st9" points="272.4,688.1 282.8,676.6 
		282.7,582.9 207.1,583.3 207,687.5 	"/>
	
		<pattern  id="SVGID_00000127736295661868701690000011816429460229149622_" xlink:href="#SVGID_0000000666686074519055135" patternTransform="matrix(1 0 0 1 -204.2 52590.7812)">
	</pattern>
	
		<polygon style="opacity:0.45;fill:url(#SVGID_00000127736295661868701690000011816429460229149622_);stroke:#C4C6C8;stroke-miterlimit:10;enable-background:new    ;" points="
		458.6,772.3 450.9,780.8 524.2,815.5 524.5,772.4 	"/>
	<polygon id="_x32_13_00000036249146119411855670000018268131171449101442_" class="st9" points="441.7,759.6 459.2,759.7 
		459.2,771.9 524.8,772.4 525.1,668.5 441.6,668.2 	"/>
	<polygon id="_x32_17-219_00000003071105624623675260000009780586777286281396_" class="st9" points="362.9,725.3 362.6,582.9 
		425.3,582.9 424.9,753 	"/>
	<line class="st11" x1="362.7" y1="669.2" x2="425" y2="669.1"/>
	<polygon id="ATC_00000124144310135758618090000017541423169651988360_" class="st12" points="679.5,100 565,341.8 523.5,341.4 
		524.5,86.2 574.4,83.8 589.3,99.2 	"/>
	<g id="study_rooms_224_226_00000101082389026642934280000008382691233873161621_">
		<rect x="440" y="203.2" class="st13" width="40.5" height="28.5"/>
		<rect x="440" y="231.8" class="st13" width="40.5" height="30.7"/>
	</g>
</g>
<g id="restroom">
	<polygon class="st14" points="441.7,668.5 441.6,638.2 458.6,638.1 458.6,624.4 481,624.4 481.2,582.9 521.8,583.1 523.7,668.2 	
		"/>
	<path class="st15" d="M505.4,633.2c1.2,0,2.1-0.9,2.1-2.1s-0.9-2.1-2.1-2.1s-2.1,0.9-2.1,2.1C503.1,632.3,504.2,633.2,505.4,633.2z
		"/>
	<path class="st15" d="M511.1,641.6l-1.8-6.3c-0.4-1.2-1.3-1.6-2.6-1.6l0,0h-2.9l0,0c-1.3,0-2.1,0.4-2.6,1.6l-1.8,6.3
		c-0.1,0.4,0.1,0.8,0.7,0.9c0.4,0.1,0.9-0.1,1-0.5l1.6-5.5h0.4l-2.7,9.6h2.6v6.8c0,0.5,0.5,1,1,1s1-0.5,1-1v-6.8h0.5v6.8
		c0,0.5,0.5,1,1,1s1-0.5,1-1v-6.8h2.6l-2.7-9.6h0.4l1.6,5.5c0.1,0.4,0.5,0.7,1,0.5C511,642.4,511.3,642,511.1,641.6z"/>
	<path class="st15" d="M484,633.2c1.2,0,2.1-0.9,2.1-2.1s-0.9-2.1-2.1-2.1s-2.1,0.9-2.1,2.1C481.8,632.3,482.9,633.2,484,633.2z"/>
	<path class="st15" d="M486.8,633.8h-5.5c-1.3,0-2.4,1-2.4,2.4v6.7c0,0.5,0.4,0.9,0.9,0.9s0.9-0.4,0.9-0.9V637h0.5v6.8v9.2
		c0,0.7,0.5,1.2,1.2,1.2c0.7,0,1.2-0.5,1.2-1.2v-9.2h0.5v9.2c0,0.7,0.5,1.2,1.2,1.2c0.7,0,1.2-0.5,1.2-1.2v-9.2V637h0.5v5.9
		c0,0.5,0.4,0.9,0.9,0.9s0.9-0.4,0.9-0.9v-6.7C489.1,634.8,488.1,633.8,486.8,633.8z"/>
	<rect x="494" y="629" class="st15" width="2.4" height="24.9"/>
	<rect x="122.4" y="170.2" class="st16" width="73.1" height="75.5"/>
	<path class="st15" d="M169.6,197.7c1.2,0,2.1-0.9,2.1-2.1c0-1.2-0.9-2.1-2.1-2.1c-1.2,0-2.1,0.9-2.1,2.1
		C167.3,196.8,168.4,197.7,169.6,197.7z"/>
	<path class="st15" d="M175.3,206.1l-1.8-6.3c-0.4-1.2-1.3-1.6-2.6-1.6l0,0H168l0,0c-1.3,0-2.1,0.4-2.6,1.6l-1.8,6.3
		c-0.1,0.4,0.1,0.8,0.7,0.9c0.4,0.1,0.9-0.1,1-0.5l1.6-5.5h0.4l-2.7,9.6h2.6v6.8c0,0.5,0.5,1,1,1s1-0.5,1-1v-6.8h0.5v6.8
		c0,0.5,0.5,1,1,1s1-0.5,1-1v-6.8h2.6l-2.7-9.6h0.4l1.6,5.5c0.1,0.4,0.5,0.7,1,0.5C175.2,206.9,175.5,206.5,175.3,206.1z"/>
	<path class="st15" d="M148.2,197.7c1.2,0,2.1-0.9,2.1-2.1c0-1.2-0.9-2.1-2.1-2.1s-2.1,0.9-2.1,2.1
		C146,196.8,147.1,197.7,148.2,197.7z"/>
	<path class="st15" d="M151,198.3h-5.5c-1.3,0-2.4,1-2.4,2.4v6.7c0,0.5,0.4,0.9,0.9,0.9s0.9-0.4,0.9-0.9v-5.9h0.5v6.8v9.2
		c0,0.7,0.5,1.2,1.2,1.2s1.2-0.5,1.2-1.2v-9.2h0.5v9.2c0,0.7,0.5,1.2,1.2,1.2s1.2-0.5,1.2-1.2v-9.2v-6.8h0.5v5.9
		c0,0.5,0.4,0.9,0.9,0.9s0.9-0.4,0.9-0.9v-6.7C153.3,199.3,152.3,198.3,151,198.3z"/>
	<rect x="158.2" y="193.5" class="st15" width="2.4" height="24.9"/>
</g>
<polygon id="atrium" class="st17" points="292,346.6 368.5,345.9 368.1,499.8 291.5,500.4 "/>
<g id="escalator_00000043437865109118368120000003986335687569727406_">
	<rect x="371.6" y="425.9" class="st18" width="34" height="107.7"/>
	<g>
		<path class="st19" d="M396.1,460.1H381c-4.1,0-7.4,3.3-7.4,7.4v15.1c0,4.1,3.3,7.4,7.4,7.4h15.1c4.1,0,7.4-3.3,7.4-7.4v-15.1
			C403.6,463.4,400.2,460.1,396.1,460.1z"/>
		<g>
			<g>
				<path class="st1" d="M385.9,469.1c1,0,1.7-0.8,1.7-1.7c0-1-0.8-1.7-1.7-1.7c-1,0-1.7,0.8-1.7,1.7
					C384.2,468.3,385,469.1,385.9,469.1z"/>
				<path class="st1" d="M387.8,470.9c0-1-0.8-1.8-1.8-1.8s-1.8,0.8-1.8,1.8v4.1l3.6-3.7L387.8,470.9L387.8,470.9z"/>
				<path class="st1" d="M396.5,468.8h-4c-0.7,0-1.3,0.3-1.8,0.8l-7,7h-3.1c-1.4,0-2.6,1.2-2.6,2.6s1.2,2.6,2.6,2.6h4.2
					c0.7,0,1.3-0.3,1.8-0.8l7-7h2.9c1.4,0,2.6-1.2,2.6-2.6C399.1,469.9,398,468.8,396.5,468.8z"/>
			</g>
			<g>
				<path class="st1" d="M396.1,477.9c0.2,0,0.4,0.1,0.3,0.3l-0.7,3.7c0,0.2-0.2,0.3-0.3,0.4c-0.2,0.1-0.3,0.1-0.4,0l-0.4-0.4
					l-2.7,2.7c-0.2,0.2-0.5,0.2-0.6,0.1l-1.9-1.9c-0.1-0.1-0.1-0.4,0.1-0.6l2.7-2.7l-0.4-0.4c-0.1-0.1-0.1-0.3,0-0.4
					c0.1-0.2,0.3-0.3,0.4-0.3L396.1,477.9z"/>
			</g>
		</g>
	</g>
</g>
<g id="elevator_00000129923789646981679440000009271267698581510323_">
	
		<rect x="441.1" y="430" transform="matrix(1.787274e-03 -1 1 1.787274e-03 10.9324 887.869)" class="st18" width="18.1" height="16.9"/>
	
		<rect x="441.2" y="454.8" transform="matrix(1.787274e-03 -1 1 1.787274e-03 -13.7696 912.674)" class="st18" width="18.1" height="16.9"/>
	
		<rect x="441.1" y="479.5" transform="matrix(1.787274e-03 -1 1 1.787274e-03 -38.606 937.2788)" class="st18" width="18.1" height="16.9"/>
	
		<rect x="441" y="504.3" transform="matrix(1.787274e-03 -1 1 1.787274e-03 -63.4414 961.8837)" class="st18" width="18.1" height="16.9"/>
	
		<rect x="441.1" y="529" transform="matrix(1.787274e-03 -1 1 1.787274e-03 -88.1433 986.6883)" class="st18" width="18.1" height="16.9"/>
	<line class="st20" x1="463.2" y1="426.8" x2="463.2" y2="555.1"/>
	<g>
		<path class="st19" d="M451.9,473.1h-15.1c-4.1,0-7.4,3.3-7.4,7.4v15.1c0,4.1,3.3,7.4,7.4,7.4h15.1c4.1,0,7.4-3.3,7.4-7.4v-15.1
			C459.4,476.4,456,473.1,451.9,473.1z"/>
		<g>
			<path class="st1" d="M440.5,474.9c-0.2-0.2-0.4-0.3-0.6-0.3s-0.5,0.1-0.6,0.3c-0.5,0.5-1.4,1.4-2.7,2.7c-0.4,0.4-0.4,1,0,1.3
				c0.3,0.3,0.9,0.3,1.2,0l1.1-1.1v3.5c0,0.5,0.4,0.9,0.9,0.9h0.1c0.5,0,0.9-0.4,0.9-0.9v-3.5l1.1,1.1c0.3,0.3,0.9,0.3,1.2,0l0,0
				c0.3-0.3,0.3-0.9,0-1.2C441.8,476.2,441.1,475.5,440.5,474.9z"/>
			<path class="st1" d="M448.2,481.9c0.2,0.2,0.4,0.3,0.6,0.3s0.5-0.1,0.6-0.3c0.5-0.5,1.4-1.4,2.7-2.7c0.4-0.4,0.4-1,0-1.3
				c-0.3-0.3-0.9-0.3-1.2,0l-1.1,1.1v-3.5c0-0.5-0.4-0.9-0.9-0.9h-0.1c-0.5,0-0.9,0.4-0.9,0.9v3.5l-1.1-1.1c-0.3-0.3-0.9-0.3-1.2,0
				l0,0c-0.3,0.3-0.3,0.9,0,1.2C447,480.6,447.7,481.3,448.2,481.9z"/>
		</g>
		<g>
			<g>
				<path class="st1" d="M447.7,488.9c0.5,0,1-0.4,1-1c0-0.5-0.4-1-1-1c-0.5,0-1,0.4-1,1C446.7,488.4,447.2,488.9,447.7,488.9z"/>
				<path class="st1" d="M448.9,489h-2.4c-0.6,0-1,0.5-1,1v3c0,0.2,0.2,0.4,0.4,0.4c0.2,0,0.4-0.2,0.4-0.4v-2.6h0.2v3v4.1
					c0,0.3,0.2,0.6,0.6,0.6c0.3,0,0.6-0.2,0.6-0.6v-4.1h0.2v4.1c0,0.3,0.2,0.6,0.6,0.6c0.3,0,0.6-0.2,0.6-0.6v-4.1v-3h0.2v2.6
					c0,0.2,0.2,0.4,0.4,0.4c0.2,0,0.4-0.2,0.4-0.4v-3C450,489.5,449.5,489,448.9,489z"/>
			</g>
			<path class="st1" d="M441.4,488.9c0.5,0,1-0.4,1-1c0-0.5-0.4-1-1-1c-0.5,0-1,0.4-1,1C440.5,488.4,440.9,488.9,441.4,488.9z"/>
			<path class="st1" d="M444,492.6l-0.8-2.8c-0.2-0.5-0.6-0.7-1.2-0.7l0,0h-1.3l0,0c-0.6,0-1,0.2-1.2,0.7l-0.8,2.8
				c-0.1,0.2,0.1,0.4,0.3,0.4c0.2,0.1,0.4,0,0.5-0.2l0.7-2.5h0.2l-1.2,4.3h1.2v3c0,0.3,0.2,0.5,0.5,0.5s0.5-0.2,0.5-0.5v-3h0.2v3
				c0,0.3,0.2,0.5,0.5,0.5s0.5-0.2,0.5-0.5v-3h1.2l-1.2-4.3h0.2l0.7,2.5c0.1,0.2,0.3,0.3,0.5,0.2C444,492.9,444.1,492.7,444,492.6z"
				/>
		</g>
		<g>
			<path class="st1" d="M450.6,501.5h-12.3c-2.5,0-4.6-2.6-4.6-5.7v-6.5c0-3.2,2.1-5.7,4.6-5.7h12.3c2.5,0,4.6,2.6,4.6,5.7v6.5
				C455.1,498.9,453.1,501.5,450.6,501.5z M438.2,485.6c-1.6,0-2.9,1.6-2.9,3.6v6.5c0,2,1.3,3.6,2.9,3.6h12.3c1.6,0,2.9-1.6,2.9-3.6
				v-6.5c0-2-1.3-3.6-2.9-3.6H438.2z"/>
		</g>
	</g>
</g>
<g id="stairs_00000004506460415138557040000012298731305797168303_">
	<path class="st19" d="M502.5,523.8h-17.6c-4.8,0-8.7,3.9-8.7,8.7v17.6c0,4.8,3.9,8.7,8.7,8.7h17.6c4.8,0,8.7-3.9,8.7-8.7v-17.6
		C511.2,527.7,507.3,523.8,502.5,523.8z"/>
	<path class="st1" d="M487,531c1,0,1.9-0.8,1.9-1.9c0-1-0.8-1.9-1.9-1.9c-1,0-1.9,0.8-1.9,1.9C485.2,530.2,486,531,487,531z"/>
	<path class="st1" d="M483.6,536.9c0.6,0,1.1-0.4,1.1-1v-1.2l0.6-0.4v3v0.6l-1.8,6.9c-0.2,0.5,0.2,1.1,0.7,1.2
		c0.6,0.2,1.2-0.1,1.4-0.7l1.6-6.4h1.6v2.1c0,0.6,0.5,1,1.1,1s1.1-0.4,1.1-1v-3.1c0-0.6-0.5-1-1.1-1l0,0l0,0h-2.4V535l0.6,0.6
		c0.2,0.2,0.5,0.4,0.9,0.4l0,0h2c0.6,0,1.1-0.4,1.1-1s-0.5-1-1.1-1h-1.6l-2-2.2l-0.1-0.1c-0.1-0.1-0.2-0.3-0.4-0.4l0,0h-0.1l0,0
		h-0.1l0,0c0,0,0,0-0.1,0l0,0c0,0,0,0-0.1,0l0,0c0,0,0,0-0.1,0l0,0l0,0l0,0c0,0,0,0-0.1,0c0,0,0,0-0.1,0l0,0c0,0,0,0-0.1,0l0,0
		c0,0,0,0-0.1,0l0,0c0,0,0,0-0.1,0l0,0c0,0,0,0-0.1,0l0,0c0,0,0,0-0.1,0l0,0l-2.8,2c-0.3,0.2-0.4,0.5-0.4,0.8l0,0v1.7
		C482.5,536.5,482.9,536.9,483.6,536.9z"/>
	<path class="st1" d="M504.1,533.5H499c-0.2,0-0.3,0.2-0.4,0.4v4.7h-4.7c-0.2,0-0.3,0.2-0.4,0.4v5h-4.9c-0.2,0-0.3,0.2-0.4,0.4v4.6
		h-4.7c-0.2,0-0.3,0.2-0.4,0.4v4.4c0,0.2,0.2,0.3,0.4,0.4H504c0.2,0,0.3-0.2,0.4-0.4l-0.1-19.8C504.4,533.7,504.3,533.6,504.1,533.5
		z"/>
</g>
<g id="Text">
	<text transform="matrix(1 0 0 1 231.5156 636.0569)" class="st15 st21 st22">255</text>
	<text transform="matrix(1 0 0 1 193.2832 756.7336)" class="st15 st21 st22">225</text>
	<text transform="matrix(1 0 0 1 379.6289 632.2863)" class="st15 st21 st22">219</text>
	<text transform="matrix(1 0 0 1 379.6289 706.5642)" class="st15 st21 st22">217</text>
	<text transform="matrix(1 0 0 1 469.5431 720.2469)" class="st15 st21 st22">213</text>
	<text transform="matrix(1 0 0 1 445.7309 223.1889)" class="st15 st21 st22">226</text>
	<text transform="matrix(1 0 0 1 445.7309 250.5409)" class="st15 st21 st22">224</text>
	<text transform="matrix(1 0 0 1 535.2824 143.3839)" class="st15 st21 st22">Adaptive</text>
	<text transform="matrix(1 0 0 1 535.2824 164.9839)" class="st15 st21 st22">Technology</text>
	<text transform="matrix(1 0 0 1 535.2824 186.5839)" class="st15 st21 st22">Center</text>
</g>
<g id="Floor_outline">
	<line class="st23" x1="680.7" y1="101.1" x2="524.8" y2="425.3"/>
	<line class="st23" x1="3" y1="566.2" x2="120.5" y2="322.1"/>
	<line class="st23" x1="116.8" y1="621.3" x2="2.9" y2="566.5"/>
	<line class="st23" x1="118.8" y1="786.1" x2="285.4" y2="866.3"/>
	<line class="st23" x1="119.4" y1="97.2" x2="360.8" y2="96.6"/>
	<line class="st23" x1="525.3" y1="2.7" x2="362.1" y2="95.9"/>
	<line class="st23" x1="525.3" y1="85.8" x2="525.3" y2="2.7"/>
	<line class="st23" x1="525.3" y1="85.8" x2="573.3" y2="82.5"/>
	<line class="st23" x1="586.2" y1="98.3" x2="573.3" y2="82.5"/>
	<line class="st23" x1="681" y1="100.4" x2="587.2" y2="99.3"/>
	<line class="st23" x1="119.4" y1="97.2" x2="119.8" y2="323.4"/>
	<line class="st23" x1="525.2" y1="817.8" x2="524.1" y2="518.5"/>
	<line class="st23" x1="286.1" y1="740.8" x2="285.4" y2="866.3"/>
	<line class="st23" x1="118.8" y1="786.1" x2="118.3" y2="622"/>
	<line class="st23" x1="286.8" y1="739.9" x2="363.9" y2="740.3"/>
	<line class="st24" x1="464.1" y1="425.4" x2="523.9" y2="425.4"/>
	<line class="st24" x1="464" y1="517.8" x2="464.1" y2="425.7"/>
	<line class="st24" x1="464" y1="518.5" x2="524.1" y2="518.5"/>
	<line class="st23" x1="525.2" y1="817.8" x2="365.2" y2="740.8"/>
</g>
</svg>
