<?xml version="1.0" encoding="utf-8"?>
<!-- Generator: Adobe Illustrator 28.0.0, SVG Export Plug-In . SVG Version: 6.00 Build 0)  -->
<svg version="1.1" id="Layer_1" xmlns="http://www.w3.org/2000/svg" xmlns:xlink="http://www.w3.org/1999/xlink" x="0px" y="0px"
	 width="1207.8px" height="937px" viewBox="0 0 1207.8 937" style="enable-background:new 0 0 1207.8 937;" xml:space="preserve">
<style type="text/css">
	.st0{fill:none;}
	.st1{fill:none;stroke:#231F20;stroke-width:0.3;}
	.st2{fill:none;stroke:#A2C9EA;stroke-miterlimit:10;}
	.st3{fill:#A2C9EA;}
	.st4{font-family:'Arial-ItalicMT';}
	.st5{font-size:14.0005px;}
	.st6{font-family:'ArialNarrow-Bold';}
	.st7{font-size:33.4957px;}
	.st8{font-size:14px;}
	.st9{font-family:'ArialNarrow-Italic';}
	.st10{font-size:14.6412px;}
	.st11{fill:#B9DDA4;stroke:#000000;stroke-width:1;stroke-miterlimit:10;}
	.st12{fill:none;stroke:#000000;stroke-linecap:round;stroke-linejoin:round;stroke-miterlimit:10;}
	.st13{fill:#B9DDA4;stroke:#000000;stroke-miterlimit:10;}
	.st14{fill:none;stroke:#000000;stroke-width:1.5;stroke-miterlimit:10;}
	.st15{fill:none;stroke:#000000;stroke-width:1.3;stroke-miterlimit:10;}
	.st16{stroke:#000000;stroke-width:1.3;stroke-miterlimit:10;}
	.st17{font-family:'MyriadPro-Regular';}
	.st18{fill:#FCECA4;stroke:#000000;stroke-miterlimit:10;}
	.st19{fill:url(#SVGID_1_);stroke:#000000;stroke-miterlimit:10;}
	.st20{fill:url(#SVGID_00000123438686352418022690000014802128957220043164_);stroke:#000000;stroke-miterlimit:10;}
	.st21{fill:none;stroke:#000000;stroke-miterlimit:10;}
	.st22{fill:#F0F0F0;stroke:#000000;stroke-miterlimit:10;}
	.st23{fill:url(#SVGID_00000041290906850215575310000011891486409967989899_);stroke:#000000;stroke-miterlimit:10;}
	.st24{fill:url(#SVGID_00000010296293550863321740000010200133267246130872_);stroke:#000000;stroke-miterlimit:10;}
	.st25{fill:#FCECA4;stroke:#000000;stroke-width:1;stroke-miterlimit:9.9996;}
	.st26{font-size:18px;}
	.st27{font-size:12px;}
	.st28{fill:#E4F2F9;}
	.st29{font-family:'Arial-BoldMT';}
	.st30{font-size:300px;}
	.st31{letter-spacing:6;}
	.st32{font-size:48px;}
	.st33{fill:#E5E5E5;stroke:#000000;stroke-width:1;stroke-miterlimit:9.9996;}
	.st34{fill:#C4EBF7;stroke:#000000;stroke-width:1;stroke-miterlimit:10.0004;}
	.st35{fill:none;stroke:#000000;stroke-width:4;stroke-linecap:round;stroke-linejoin:round;stroke-miterlimit:10;}
	.st36{fill:#E5E5E5;stroke:#000000;stroke-width:2;stroke-miterlimit:10.0001;}
	.st37{fill:#146EDC;}
	.st38{fill:#FFFFFF;}
	.st39{fill:#FF0000;}
</style>
<pattern  y="937" width="72" height="72" patternUnits="userSpaceOnUse" id="Grid_.25_inch_Lines" viewBox="72.2 -144.3 72 72" style="overflow:visible;">
	<g>
		<rect x="72.2" y="-144.3" class="st0" width="72" height="72"/>
		<g>
			<rect x="72.2" y="-144.3" class="st0" width="72" height="72"/>
			<g>
				<line class="st1" x1="117.2" y1="-144" x2="117.2" y2="-216.5"/>
				<line class="st1" x1="81.2" y1="-144" x2="81.2" y2="-216.5"/>
				<line class="st1" x1="135.2" y1="-144" x2="135.2" y2="-216.5"/>
				<line class="st1" x1="99.2" y1="-144" x2="99.2" y2="-216.5"/>
			</g>
			<g>
				<line class="st1" x1="144" y1="-81.3" x2="216.5" y2="-81.3"/>
				<line class="st1" x1="144" y1="-117.3" x2="216.5" y2="-117.3"/>
				<line class="st1" x1="144" y1="-99.3" x2="216.5" y2="-99.3"/>
				<line class="st1" x1="144" y1="-135.3" x2="216.5" y2="-135.3"/>
			</g>
			<g>
				<line class="st1" x1="72" y1="-81.3" x2="144.5" y2="-81.3"/>
				<line class="st1" x1="72" y1="-117.3" x2="144.5" y2="-117.3"/>
				<line class="st1" x1="72" y1="-99.3" x2="144.5" y2="-99.3"/>
				<line class="st1" x1="72" y1="-135.3" x2="144.5" y2="-135.3"/>
				<line class="st1" x1="117.2" y1="-72" x2="117.2" y2="-144.5"/>
				<line class="st1" x1="81.2" y1="-72" x2="81.2" y2="-144.5"/>
				<line class="st1" x1="135.2" y1="-72" x2="135.2" y2="-144.5"/>
				<line class="st1" x1="99.2" y1="-72" x2="99.2" y2="-144.5"/>
			</g>
			<g>
				<line class="st1" x1="0" y1="-81.3" x2="72.5" y2="-81.3"/>
				<line class="st1" x1="0" y1="-117.3" x2="72.5" y2="-117.3"/>
				<line class="st1" x1="0" y1="-99.3" x2="72.5" y2="-99.3"/>
				<line class="st1" x1="0" y1="-135.3" x2="72.5" y2="-135.3"/>
			</g>
			<g>
				<line class="st1" x1="117.2" y1="0" x2="117.2" y2="-72.5"/>
				<line class="st1" x1="81.2" y1="0" x2="81.2" y2="-72.5"/>
				<line class="st1" x1="135.2" y1="0" x2="135.2" y2="-72.5"/>
				<line class="st1" x1="99.2" y1="0" x2="99.2" y2="-72.5"/>
			</g>
		</g>
	</g>
</pattern>
<pattern  y="937" width="72" height="72" patternUnits="userSpaceOnUse" id="Grid_1_pica_Lines" viewBox="72.2 -144.3 72 72" style="overflow:visible;">
	<g>
		<rect x="72.2" y="-144.3" class="st0" width="72" height="72"/>
		<g>
			<rect x="72.2" y="-144.3" class="st0" width="72" height="72"/>
			<g>
				<line class="st1" x1="78.2" y1="-144" x2="78.2" y2="-216.5"/>
				<line class="st1" x1="102.2" y1="-144" x2="102.2" y2="-216.5"/>
				<line class="st1" x1="126.2" y1="-144" x2="126.2" y2="-216.5"/>
				<line class="st1" x1="90.2" y1="-144" x2="90.2" y2="-216.5"/>
				<line class="st1" x1="114.2" y1="-144" x2="114.2" y2="-216.5"/>
				<line class="st1" x1="138.2" y1="-144" x2="138.2" y2="-216.5"/>
			</g>
			<g>
				<line class="st1" x1="144" y1="-138.3" x2="216.5" y2="-138.3"/>
				<line class="st1" x1="144" y1="-114.3" x2="216.5" y2="-114.3"/>
				<line class="st1" x1="144" y1="-90.3" x2="216.5" y2="-90.3"/>
				<line class="st1" x1="144" y1="-126.3" x2="216.5" y2="-126.3"/>
				<line class="st1" x1="144" y1="-102.3" x2="216.5" y2="-102.3"/>
				<line class="st1" x1="144" y1="-78.3" x2="216.5" y2="-78.3"/>
			</g>
			<g>
				<line class="st1" x1="78.2" y1="-72" x2="78.2" y2="-144.5"/>
				<line class="st1" x1="102.2" y1="-72" x2="102.2" y2="-144.5"/>
				<line class="st1" x1="126.2" y1="-72" x2="126.2" y2="-144.5"/>
				<line class="st1" x1="72" y1="-138.3" x2="144.5" y2="-138.3"/>
				<line class="st1" x1="72" y1="-114.3" x2="144.5" y2="-114.3"/>
				<line class="st1" x1="72" y1="-90.3" x2="144.5" y2="-90.3"/>
				<line class="st1" x1="72" y1="-126.3" x2="144.5" y2="-126.3"/>
				<line class="st1" x1="72" y1="-102.3" x2="144.5" y2="-102.3"/>
				<line class="st1" x1="72" y1="-78.3" x2="144.5" y2="-78.3"/>
				<line class="st1" x1="90.2" y1="-72" x2="90.2" y2="-144.5"/>
				<line class="st1" x1="114.2" y1="-72" x2="114.2" y2="-144.5"/>
				<line class="st1" x1="138.2" y1="-72" x2="138.2" y2="-144.5"/>
			</g>
			<g>
				<line class="st1" x1="0" y1="-138.3" x2="72.5" y2="-138.3"/>
				<line class="st1" x1="0" y1="-114.3" x2="72.5" y2="-114.3"/>
				<line class="st1" x1="0" y1="-90.3" x2="72.5" y2="-90.3"/>
				<line class="st1" x1="0" y1="-126.3" x2="72.5" y2="-126.3"/>
				<line class="st1" x1="0" y1="-102.3" x2="72.5" y2="-102.3"/>
				<line class="st1" x1="0" y1="-78.3" x2="72.5" y2="-78.3"/>
			</g>
			<g>
				<line class="st1" x1="78.2" y1="0" x2="78.2" y2="-72.5"/>
				<line class="st1" x1="102.2" y1="0" x2="102.2" y2="-72.5"/>
				<line class="st1" x1="126.2" y1="0" x2="126.2" y2="-72.5"/>
				<line class="st1" x1="90.2" y1="0" x2="90.2" y2="-72.5"/>
				<line class="st1" x1="114.2" y1="0" x2="114.2" y2="-72.5"/>
				<line class="st1" x1="138.2" y1="0" x2="138.2" y2="-72.5"/>
			</g>
		</g>
	</g>
</pattern>
<g id="streets">
	<g id="San_fernando">
		<line class="st2" x1="284.9" y1="142.9" x2="471.4" y2="24.9"/>
		<line class="st2" x1="297.3" y1="162.7" x2="505.7" y2="30.9"/>
		<polygon class="st0" points="460.8,56.5 317.2,147.6 310.3,136.9 453.9,45.8 		"/>
		<text transform="matrix(0.8481 -0.5299 0.5299 0.8481 337.2656 130.4928)" class="st3 st4 st5">San Fernando Street</text>
	</g>
	<g>
		<polygon class="st3" points="511.4,87.5 504.1,120.2 544.1,94.9 		"/>
		
			<rect x="487" y="62.1" transform="matrix(0.8238 -0.5669 0.5669 0.8238 45.1277 295.9664)" class="st0" width="23.3" height="26.6"/>
		<text transform="matrix(0.829 -0.5592 0.5592 0.829 496.3652 89.7178)" class="st3 st6 st7">N</text>
	</g>
	<g id="_x34_th_Street">
		<line class="st2" x1="311.8" y1="745.4" x2="144.5" y2="421.7"/>
		<line class="st2" x1="333.2" y1="735.8" x2="165.4" y2="411.1"/>
		
			<rect x="229.9" y="499.3" transform="matrix(0.8786 -0.4776 0.4776 0.8786 -245.3847 183.0722)" class="st0" width="15" height="149.6"/>
		<text transform="matrix(-0.4695 -0.8829 0.8829 -0.4695 249.3047 592.6307)" class="st3 st4 st8">Fourth Street</text>
	</g>
	<g id="SJSU_CAMPUS">
		<polygon class="st3" points="1179.3,734.5 1154.1,715.1 1159.9,759.7 		"/>
		
			<rect x="1127.1" y="671.8" transform="matrix(0.9858 -0.1678 0.1678 0.9858 -106.9291 201.6478)" class="st0" width="25.2" height="123.4"/>
		<text transform="matrix(0.1586 0.9873 -0.9873 0.1586 1137.0145 699.5504)" class="st3 st9 st10">SJSU Campus</text>
	</g>
	<g id="Elev_x2F_esc_x2F_stairs">
		<g>
			
				<rect x="778.2" y="483.4" transform="matrix(0.566 -0.8244 0.8244 0.566 -98.9674 890.5416)" class="st11" width="36.3" height="111.7"/>
			<g id="escalator_00000070833955443197976630000013030456594240933513_">
				<g>
					<g id="LINE_00000175300582530713307810000017250745887772802719_">
						<line class="st12" x1="792.5" y1="554.1" x2="744.8" y2="520.8"/>
					</g>
					<g id="LINE_00000005267804367376950950000017670766514589199234_">
						<line class="st12" x1="794.5" y1="556.1" x2="744.4" y2="521.2"/>
					</g>
					<g id="LINE_00000159459067434755131110000002485898742489299876_">
						<line class="st12" x1="802.6" y1="545.5" x2="752.5" y2="510.6"/>
					</g>
					<g id="LINE_00000071536289280342227040000002182415178206999192_">
						<line class="st12" x1="802.2" y1="545.9" x2="752.2" y2="511"/>
					</g>
					<g id="LINE_00000030484882570146493910000014068991845663544962_">
						<line class="st12" x1="799.8" y1="544.9" x2="792.7" y2="554.2"/>
					</g>
					<g id="LINE_00000034072640151112893940000007032175534048167310_">
						<line class="st12" x1="796.1" y1="542.3" x2="789" y2="551.6"/>
					</g>
					<g id="LINE_00000136393277021996936050000000778610375088511875_">
						<line class="st12" x1="792.6" y1="539.9" x2="785.5" y2="549.2"/>
					</g>
					<g id="LINE_00000163071281937567593120000008172368302590632083_">
						<line class="st12" x1="789.1" y1="537.4" x2="782.1" y2="546.8"/>
					</g>
					<g id="LINE_00000093150224269321470460000005923040872473435023_">
						<line class="st12" x1="775.3" y1="527.8" x2="768.2" y2="537.2"/>
					</g>
					<g id="LINE_00000054228373476672798010000001415340832261102243_">
						<line class="st12" x1="778.8" y1="530.2" x2="771.7" y2="539.6"/>
					</g>
					<g id="LINE_00000161620782950736678360000016702901872045779605_">
						<line class="st12" x1="782.3" y1="532.7" x2="775.2" y2="542"/>
					</g>
					<g id="LINE_00000053538539497337447050000000506436644559882125_">
						<line class="st12" x1="785.7" y1="535" x2="778.6" y2="544.4"/>
					</g>
					<g id="LINE_00000181060439717567883380000001328288601116817334_">
						<line class="st12" x1="771.4" y1="525.1" x2="764.3" y2="534.4"/>
					</g>
				</g>
			</g>
			<g>
				<g id="LINE_00000039129921965307840330000000916614772354171053_">
					<line class="st12" x1="802.8" y1="541.5" x2="755.2" y2="508.3"/>
				</g>
				<g id="LINE_00000183232263360243218000000014914434174736856766_">
					<line class="st12" x1="804.9" y1="543.6" x2="754.8" y2="508.7"/>
				</g>
				<g id="LINE_00000134971724595076770800000011634651582775166110_">
					<line class="st12" x1="812.9" y1="533" x2="762.8" y2="498.1"/>
				</g>
				<g id="LINE_00000139985550712778097390000011734148308922649757_">
					<line class="st12" x1="812.5" y1="533.3" x2="762.5" y2="498.5"/>
				</g>
				<g id="LINE_00000161615525219399362960000010358224361716366989_">
					<line class="st12" x1="810.2" y1="532.4" x2="803.1" y2="541.7"/>
				</g>
				<g id="LINE_00000050622520462115683830000014602163837273226142_">
					<line class="st12" x1="806.4" y1="529.8" x2="799.4" y2="539.1"/>
				</g>
				<g id="LINE_00000070816089196109457410000010050429523297744817_">
					<line class="st12" x1="803" y1="527.3" x2="795.9" y2="536.7"/>
				</g>
				<g id="LINE_00000099656406252343713910000000860961959387512708_">
					<line class="st12" x1="799.5" y1="524.9" x2="792.4" y2="534.3"/>
				</g>
				<g id="LINE_00000085228161180388642890000014117454962385211049_">
					<line class="st12" x1="785.7" y1="515.3" x2="778.6" y2="524.6"/>
				</g>
				<g id="LINE_00000111193638674697565340000010071611339552483741_">
					<line class="st12" x1="789.1" y1="517.7" x2="782.1" y2="527.1"/>
				</g>
				<g id="LINE_00000137818096606678954040000001279689764850617767_">
					<line class="st12" x1="792.6" y1="520.1" x2="785.5" y2="529.5"/>
				</g>
				<g id="LINE_00000072259355674821735480000002454678363656134551_">
					<line class="st12" x1="796.1" y1="522.5" x2="789" y2="531.9"/>
				</g>
				<g id="LINE_00000110452060786668643000000011488645479241716150_">
					<line class="st12" x1="781.7" y1="512.5" x2="774.7" y2="521.9"/>
				</g>
			</g>
		</g>
		<polyline id="elevator" class="st13" points="794.9,445.3 875.9,500 907.7,521.4 895.2,539.6 783.2,463.8 794.9,445.3 		"/>
		
			<rect x="877.4" y="464" transform="matrix(0.566 -0.8244 0.8244 0.566 -5.0977 959.1079)" class="st11" width="62" height="40.8"/>
		<g id="elevator_00000155118643947176890710000006878021629677294758_">
			<g id="LINE_4731_">
				<line class="st14" x1="812.6" y1="460.9" x2="798.4" y2="451.2"/>
			</g>
			<g id="LINE_4735_">
				<line class="st14" x1="803.8" y1="473.7" x2="800.5" y2="471.4"/>
			</g>
			<g id="LINE_4738_">
				<line class="st14" x1="793" y1="466.3" x2="789.6" y2="463.9"/>
			</g>
			<g id="LINE_4741_">
				<line class="st14" x1="812.6" y1="460.9" x2="803.8" y2="473.7"/>
			</g>
			<g id="LINE_4744_">
				<line class="st14" x1="813.2" y1="460.8" x2="798.3" y2="450.6"/>
			</g>
			<g id="LINE_4745_">
				<line class="st14" x1="812.7" y1="460.7" x2="798.5" y2="451"/>
			</g>
			<g id="LINE_4746_">
				<line class="st14" x1="798.4" y1="451.2" x2="789.6" y2="463.9"/>
			</g>
			<g id="LINE_4747_">
				<line class="st14" x1="798.8" y1="450.9" x2="798.6" y2="451.3"/>
			</g>
			<g id="LINE_4748_">
				<line class="st14" x1="812.7" y1="460.4" x2="812.4" y2="460.8"/>
			</g>
			<g id="LINE_00000023963411821320410900000009994663940296984221_">
				<line class="st14" x1="832.3" y1="474.4" x2="818.1" y2="464.7"/>
			</g>
			<g id="LINE_00000036243211870807232230000004294824485503304094_">
				<line class="st14" x1="823.5" y1="487.2" x2="820.1" y2="484.9"/>
			</g>
			<g id="LINE_00000021083911021367709180000006361326137356006789_">
				<line class="st14" x1="812.7" y1="479.7" x2="809.3" y2="477.4"/>
			</g>
			<g id="LINE_00000157305032477417135590000014763398251095956890_">
				<line class="st14" x1="832.3" y1="474.4" x2="823.5" y2="487.2"/>
			</g>
			<g id="LINE_00000061429359115443803660000001421681803928210091_">
				<line class="st14" x1="832.8" y1="474.3" x2="817.9" y2="464.1"/>
			</g>
			<g id="LINE_00000137096246246306441270000002996625498926383788_">
				<line class="st14" x1="832.4" y1="474.2" x2="818.2" y2="464.5"/>
			</g>
			<g id="LINE_00000172415491339264399940000003389993333652483473_">
				<line class="st14" x1="818.1" y1="464.7" x2="809.3" y2="477.4"/>
			</g>
			<g id="LINE_00000182499327570779227240000011350039420364845744_">
				<line class="st14" x1="851.9" y1="487.9" x2="837.7" y2="478.1"/>
			</g>
			<g id="LINE_00000137827711904242877120000013475160053294783399_">
				<line class="st14" x1="843.1" y1="500.7" x2="839.8" y2="498.4"/>
			</g>
			<g id="LINE_00000110430310769929994080000003016575270157341115_">
				<line class="st14" x1="832.3" y1="493.2" x2="828.9" y2="490.9"/>
			</g>
			<g id="LINE_00000001632994639779474680000017729122945952289951_">
				<line class="st14" x1="851.9" y1="487.9" x2="843.1" y2="500.7"/>
			</g>
			<g id="LINE_00000101093348003495924100000015220336780324354982_">
				<line class="st14" x1="852.5" y1="487.8" x2="837.6" y2="477.6"/>
			</g>
			<g id="LINE_00000123417822785358762020000005155066374409787060_">
				<line class="st14" x1="852" y1="487.7" x2="837.8" y2="478"/>
			</g>
			<g id="LINE_00000001631246263749752440000010237371117853874571_">
				<line class="st14" x1="837.7" y1="478.1" x2="828.9" y2="490.9"/>
			</g>
			<g id="LINE_00000086666489933795298720000013289038007283657891_">
				<line class="st14" x1="871.6" y1="501.4" x2="857.4" y2="491.6"/>
			</g>
			<g id="LINE_00000010286446039431400240000004179056468150093201_">
				<line class="st14" x1="862.8" y1="514.2" x2="859.4" y2="511.8"/>
			</g>
			<g id="LINE_00000078723507910867709110000003996737817167854731_">
				<line class="st14" x1="852" y1="506.7" x2="848.6" y2="504.4"/>
			</g>
			<g id="LINE_00000084494013187931397180000013021804154882057626_">
				<line class="st14" x1="871.6" y1="501.4" x2="862.8" y2="514.2"/>
			</g>
			<g id="LINE_00000103244059294916214250000010451246233931379622_">
				<line class="st14" x1="872.2" y1="501.3" x2="857.3" y2="491.1"/>
			</g>
			<g id="LINE_00000102513105850367397460000008568563727976591525_">
				<line class="st14" x1="871.7" y1="501.2" x2="857.5" y2="491.5"/>
			</g>
			<g id="LINE_00000077294377489538548660000017451036063543871892_">
				<line class="st14" x1="857.4" y1="491.6" x2="848.6" y2="504.4"/>
			</g>
			<g id="LINE_00000084502092826103097570000007421885943408696208_">
				<line class="st14" x1="891.2" y1="514.9" x2="877" y2="505.1"/>
			</g>
			<g id="LINE_00000054242181457467428560000001838774522505732244_">
				<line class="st14" x1="882.4" y1="527.7" x2="879.1" y2="525.3"/>
			</g>
			<g id="LINE_00000038399793835736963570000006870936880396350634_">
				<line class="st14" x1="871.6" y1="520.2" x2="868.2" y2="517.9"/>
			</g>
			<g id="LINE_00000085233646092173888780000001954179608992735126_">
				<line class="st14" x1="891.2" y1="514.9" x2="882.4" y2="527.7"/>
			</g>
			<g id="LINE_00000140724683986225496660000005009668492149025922_">
				<line class="st14" x1="891.8" y1="514.8" x2="876.9" y2="504.5"/>
			</g>
			<g id="LINE_00000009576526774020755230000003960706048185272964_">
				<line class="st14" x1="891.3" y1="514.7" x2="877.1" y2="505"/>
			</g>
			<g id="LINE_00000142166729456088507190000006205798940652332981_">
				<line class="st14" x1="877" y1="505.1" x2="868.2" y2="517.9"/>
			</g>
		</g>
	</g>
	<g id="stairs">
		<g>
			<polygon class="st15" points="894.8,478 894.8,478 894.8,478 888.2,487.4 881.5,496.9 903.6,512.3 910.2,502.9 897.6,494.1 
				904.3,484.6 916.9,493.4 923.5,484 901.4,468.5 			"/>
			<line class="st15" x1="907.1" y1="500.7" x2="900.5" y2="510.1"/>
			<line class="st15" x1="903.9" y1="498.5" x2="897.3" y2="507.9"/>
			<line class="st15" x1="900.8" y1="496.3" x2="894.2" y2="505.7"/>
			<line class="st15" x1="913.7" y1="491.2" x2="920.3" y2="481.8"/>
			<line class="st15" x1="910.6" y1="489" x2="917.2" y2="479.6"/>
			<line class="st15" x1="907.4" y1="486.8" x2="914" y2="477.4"/>
			<line class="st15" x1="904.3" y1="484.6" x2="894.8" y2="478"/>
			<line class="st15" x1="902.1" y1="487.8" x2="892.6" y2="481.1"/>
			<line class="st15" x1="899.8" y1="490.9" x2="890.4" y2="484.3"/>
			<line class="st15" x1="897.6" y1="494.1" x2="888.2" y2="487.4"/>
			<line class="st15" x1="910.9" y1="475.2" x2="904.3" y2="484.6"/>
			<line class="st15" x1="910.9" y1="475.2" x2="891" y2="503.5"/>
			<polyline class="st15" points="906.9,507.6 889.3,495.3 902.5,476.4 917.8,487 			"/>
			<polygon class="st16" points="920.1,488.7 918.2,486.4 917.8,487 917.3,487.7 			"/>
			<path class="st16" d="M906.6,508.2c0.3,0.2,0.7,0.1,0.9-0.2c0.2-0.3,0.1-0.7-0.2-0.9c-0.3-0.2-0.7-0.1-0.9,0.2
				C906.2,507.6,906.3,508,906.6,508.2z"/>
		</g>
	</g>
</g>
<g id="Second">
	<text transform="matrix(1 0 0 1 587.4943 630.2958)" class="st17 st8">Public PCs </text>
	<text transform="matrix(1 0 0 1 604.6943 647.0958)" class="st17 st8">1–25</text>
	<text transform="matrix(1 0 0 1 509.8541 426.6523)" class="st17 st8">Public PCs </text>
	<text transform="matrix(1 0 0 1 523.4541 443.4523)" class="st17 st8">42–52</text>
	<text transform="matrix(1 0 0 1 728.97 434.134)" class="st17 st8">Public PCs </text>
	<text transform="matrix(1 0 0 1 742.5699 450.934)" class="st17 st8">26–41</text>
	<text transform="matrix(1 0 0 1 678.4685 368.6916)" class="st17 st8">Writing </text>
	<text transform="matrix(1 0 0 1 681.9685 385.4916)" class="st17 st8">Center</text>
	<polyline id="_x32_25" class="st18" points="1058.8,839.9 939.4,758 919.9,766.1 836.1,887.7 901,934.7 1060.1,840.8 	"/>
	<pattern  id="SVGID_1_" xlink:href="#Grid_1_pica_Lines" patternTransform="matrix(1 0 0 -1 99.6 -17954.6309)">
	</pattern>
	<polygon class="st19" points="764.9,841.2 819.8,877.7 871,805.1 762.8,731.5 718.8,801.5 609,725.2 581.2,767.4 661,902.4 	"/>
	<polygon id="_x32_55" class="st18" points="910.3,752.3 904.4,737 827,683.7 784.8,746.5 871,805.1 	"/>
	
		<pattern  id="SVGID_00000004543604476284755190000001384201304397432222_" xlink:href="#Grid_1_pica_Lines" patternTransform="matrix(1 0 0 -1 99.6 -17954.6309)">
	</pattern>
	
		<polygon style="fill:url(#SVGID_00000004543604476284755190000001384201304397432222_);stroke:#000000;stroke-miterlimit:10;" points="
		1081.8,645.4 1084.5,656.5 1153.2,613.9 1121.7,592.5 	"/>
	<polygon class="st18" points="1063.6,651 1074.3,639.5 1081.8,645.4 1121.7,592.5 1033.2,532.1 986,602.9 	"/>
	<line class="st21" x1="1033.2" y1="532.1" x2="965.8" y2="486.2"/>
	<polygon class="st18" points="988.7,700.4 872.9,618.9 908.4,567.5 1048.6,664.5 	"/>
	<line class="st21" x1="941.2" y1="667.1" x2="977.5" y2="615.3"/>
	<polygon class="st22" points="987.4,600 962.4,583.1 971.7,569.2 960.7,561.2 972.8,543.2 941.3,521.1 965.4,486.1 1033.2,532 	"/>
	
		<pattern  id="SVGID_00000156581187672524224940000001001513504195804563_" xlink:href="#Grid_.25_inch_Lines" patternTransform="matrix(1 0 0 -1 99.6 -17954.6309)">
	</pattern>
	
		<polyline style="fill:url(#SVGID_00000156581187672524224940000001001513504195804563_);stroke:#000000;stroke-miterlimit:10;" points="
		956,546.9 933.4,530.4 908.4,567.5 931.1,583.2 930.9,582.9 955.7,546.2 	"/>
	<line class="st21" x1="933.4" y1="530.4" x2="941.3" y2="521.1"/>
	
		<pattern  id="SVGID_00000132782022276385555620000010111476116233291936_" xlink:href="#Grid_1_pica_Lines" patternTransform="matrix(1 0 0 -1 99.6 -17954.6309)">
	</pattern>
	
		<polygon style="fill:url(#SVGID_00000132782022276385555620000010111476116233291936_);stroke:#000000;stroke-miterlimit:10;" points="
		697.5,306.9 649.2,375.6 579.1,326.3 627.4,257.7 	"/>
	<polygon id="ATC" class="st18" points="649.3,85.2 784.1,313 756.2,347 550.5,202.8 576,160.7 592.9,160.8 	"/>
	<g id="study_rooms_224_226">
		
			<rect x="615.2" y="310.3" transform="matrix(0.575 -0.8181 0.8181 0.575 -8.5475 664.7905)" class="st25" width="40.8" height="60.6"/>
		<line class="st21" x1="623.2" y1="356.8" x2="646.5" y2="323.3"/>
	</g>
	<rect x="597.3" y="200.8" class="st0" width="128.2" height="52"/>
	<text transform="matrix(1 0 0 1 627.4539 213.6285)" class="st17 st26">Adaptive</text>
	<text transform="matrix(1 0 0 1 617.1539 231.6285)" class="st17 st26">Technology</text>
	<text transform="matrix(1 0 0 1 636.2539 249.6285)" class="st17 st26">Center</text>
	<rect x="810.2" y="731.8" class="st0" width="69.5" height="26.9"/>
	<text transform="matrix(1 0 0 1 820.5112 741.7299)" class="st17 st8">Meeting </text>
	<text transform="matrix(1 0 0 1 815.3112 755.7299)" class="st17 st8">Room 255</text>
	<rect x="802.6" y="630.3" class="st0" width="99.4" height="52.6"/>
	<text transform="matrix(1 0 0 1 823.2748 640.2025)" class="st17 st8">Jennifer &amp;</text>
	<text transform="matrix(1 0 0 1 809.6748 656.2025)" class="st17 st8">Philip Dinapoli </text>
	<text transform="matrix(1 0 0 1 832.0748 672.2025)" class="st17 st8">Gallery </text>
	<rect x="889.1" y="614" class="st0" width="69.5" height="24.4"/>
	<text transform="matrix(1 0 0 1 913.0715 623.9254)" class="st17 st8">219</text>
	<rect x="952.5" y="651" class="st0" width="69.5" height="25.6"/>
	<text transform="matrix(1 0 0 1 976.4388 660.8932)" class="st17 st8">217</text>
	<rect x="1019.1" y="587.2" class="st0" width="69.5" height="25.8"/>
	<text transform="matrix(1 0 0 1 1043.09 597.0909)" class="st17 st8">213</text>
	<rect x="903.5" y="831" class="st0" width="65.2" height="31"/>
	<text transform="matrix(1 0 0 1 911.7275 840.979)" class="st17 st8">Meeting </text>
	<text transform="matrix(1 0 0 1 906.5275 854.979)" class="st17 st8">Room 225</text>
	<rect x="609.7" y="325.3" class="st0" width="26.8" height="13.3"/>
	<text transform="matrix(1 0 0 1 613.8913 333.7971)" class="st17 st27">226</text>
	<rect x="635.1" y="343" class="st0" width="26.8" height="13.3"/>
	<text transform="matrix(1 0 0 1 639.2673 351.5358)" class="st17 st27">224</text>
	<rect x="94.1" y="50.6" class="st0" width="223.5" height="281.8"/>
	<text transform="matrix(1 0 0 1 94.1095 265.382)" class="st28 st29 st30 st31">2</text>
	<rect x="0.1" y="51.5" class="st0" width="321.8" height="54.6"/>
	<text transform="matrix(1 0 0 1 7.458496e-02 85.9061)" class="st29 st32">Second Floor</text>
	
		<rect id="ref_desk" x="578.5" y="461.2" transform="matrix(0.8669 -0.4984 0.4984 0.8669 -160.0128 364.015)" class="st33" width="46.4" height="41"/>
	
		<rect id="atrium_00000150807762971790072890000017350531321045162684_" x="678.4" y="479.5" transform="matrix(0.575 -0.8182 0.8182 0.575 -150.6497 822.3655)" class="st34" width="75.6" height="153.3"/>
	<g>
		<line class="st35" x1="333.4" y1="544.9" x2="394.2" y2="457.9"/>
		<line class="st35" x1="399.1" y1="455.9" x2="393.3" y2="457.8"/>
		<line class="st35" x1="384.7" y1="433.8" x2="399.1" y2="455.9"/>
		<line class="st35" x1="419.7" y1="413.2" x2="384.7" y2="433.8"/>
		<line class="st35" x1="473.7" y1="336.8" x2="421.4" y2="411.7"/>
		<line class="st35" x1="481.4" y1="196.4" x2="473.6" y2="335"/>
		<line class="st35" x1="484.5" y1="156.1" x2="481.4" y2="196.4"/>
		<line class="st35" x1="553.4" y1="203.4" x2="484.5" y2="156.1"/>
		<line class="st35" x1="577.8" y1="161.9" x2="553.4" y2="203.4"/>
		<line class="st35" x1="649.9" y1="86.1" x2="596.4" y2="160.4"/>
		<line class="st35" x1="832.7" y1="394.7" x2="650.4" y2="85.6"/>
		<line class="st35" x1="798" y1="445.3" x2="832.7" y2="394.7"/>
		<line class="st35" x1="874.1" y1="497.6" x2="798" y2="445.3"/>
		<line class="st35" x1="908.7" y1="447.3" x2="874.1" y2="497.6"/>
		<line class="st35" x1="1153.2" y1="613.9" x2="908.7" y2="447.3"/>
		<line class="st35" x1="1001.9" y1="706.9" x2="1153.2" y2="613.9"/>
		<line class="st35" x1="958.6" y1="769.5" x2="1000.6" y2="708.4"/>
		<line class="st35" x1="1060.1" y1="840.8" x2="958.6" y2="769.5"/>
		<line class="st35" x1="901" y1="934.7" x2="1060.1" y2="840.8"/>
		<line class="st35" x1="764.9" y1="841.2" x2="901" y2="934.7"/>
		<line class="st35" x1="661" y1="902.4" x2="764.9" y2="841.2"/>
		<line class="st35" x1="529.6" y1="679.7" x2="661" y2="902.4"/>
		<line class="st35" x1="333.4" y1="545" x2="529.6" y2="679.7"/>
		<line class="st35" x1="596.4" y1="160.4" x2="579.1" y2="161.5"/>
	</g>
	<g id="north">
	</g>
	<rect x="684.1" y="547.5" class="st0" width="59.2" height="14"/>
	<text transform="matrix(1 0 0 1 693.4554 557.4026)" class="st17 st8">Atrium</text>
	
		<rect x="417.1" y="541.1" transform="matrix(0.5463 -0.8376 0.8376 0.5463 -279.3169 646.3967)" class="st36" width="79.8" height="79.8"/>
</g>
<g id="exits_x2C__restrooms">
	<g>
		<g id="Layer_2_00000100379365373932730910000008321279187435210885_">
			<g id="Image_64">
				<g id="Ellipse_1_copy_9">
					<circle class="st37" cx="472.9" cy="563.9" r="14.4"/>
				</g>
			</g>
		</g>
		<g id="Layer_1_00000043417269205140031930000013075138157533666726_">
			<g>
				<g>
					<g>
						<path class="st38" d="M466.3,558.3c0.8,0,1.5-0.7,1.5-1.5s-0.7-1.4-1.5-1.4s-1.5,0.6-1.5,1.4
							C464.8,557.6,465.5,558.3,466.3,558.3z"/>
						<path class="st38" d="M468.2,558.6h-3.7c-0.9,0-1.6,0.7-1.6,1.6v4.6c0,0.3,0.3,0.6,0.6,0.6c0.3,0,0.6-0.3,0.6-0.6v-4h0.3v4.6
							v6.2c0,0.5,0.4,0.8,0.8,0.8c0.5,0,0.8-0.4,0.8-0.8v-6.2h0.4v6.2c0,0.5,0.4,0.8,0.8,0.8c0.5,0,0.8-0.4,0.8-0.8v-6.2v-4.6h0.3v4
							c0,0.3,0.3,0.6,0.6,0.6c0.3,0,0.6-0.3,0.6-0.6v-4.6C469.8,559.3,469.1,558.6,468.2,558.6z"/>
					</g>
					<g>
						<path class="st38" d="M478.9,558.3c0.8,0,1.5-0.7,1.5-1.5s-0.7-1.5-1.5-1.5c-0.8,0.1-1.5,0.7-1.5,1.5S478.1,558.3,478.9,558.3
							z"/>
						<path class="st38" d="M482.8,564l-1.2-4.3c-0.3-0.8-0.9-1.1-1.8-1.1l0,0h-2l0,0c-0.9,0-1.5,0.3-1.8,1.1l-1.2,4.3
							c-0.1,0.3,0.1,0.6,0.4,0.7c0.3,0.1,0.6-0.1,0.7-0.3l1.1-3.8h0.3l-1.9,6.5h1.8v4.7c0,0.4,0.3,0.7,0.7,0.7s0.7-0.3,0.7-0.7v-4.7
							h0.3v4.7c0,0.4,0.3,0.7,0.7,0.7c0.4,0,0.7-0.3,0.7-0.7v-4.7h1.8l-1.8-6.6h0.3l1.1,3.8c0.1,0.3,0.4,0.4,0.7,0.3
							C482.7,564.5,482.9,564.2,482.8,564z"/>
					</g>
				</g>
				<rect x="472.1" y="555.4" class="st38" width="1.6" height="17"/>
			</g>
		</g>
	</g>
	<g>
		<g id="Layer_1_00000042702974373661500170000003668872372288945812_">
			<g id="Layer_2_00000109017616333713485160000009889481783568913028_">
				<g id="Image_29">
					<g id="Ellipse_1_copy_2">
						<circle class="st39" cx="691.3" cy="314.7" r="14.4"/>
					</g>
				</g>
			</g>
		</g>
		<g>
			<g>
				<path class="st38" d="M699.5,305.9l-5-1.7c-0.3-0.1-0.6,0.1-0.6,0.4v1.3H689c-0.2,0-0.4,0.2-0.4,0.4v1.5c0.3,0,0.5,0.1,0.8,0.2
					v-1.3h4.4V322h-3v0.2c0,0.2,0.1,0.4,0,0.6h2.9v1.3c0,0.3,0.3,0.6,0.6,0.5l5-1.7c0.2-0.1,0.3-0.2,0.3-0.4v-16.1
					C699.8,306.2,699.7,306,699.5,305.9z"/>
				<g>
					<g>
						<path class="st38" d="M681.3,321.4h3.2c0.4,0,0.8-0.3,0.9-0.7l0.3-1.3l-1.6-1.3l0,0l-0.4,1.4h-2.5c-0.5,0-1,0.4-1,1
							C680.4,320.9,680.8,321.4,681.3,321.4z"/>
						<path class="st38" d="M688.7,312.1c0.9-0.2,1.5-1.1,1.2-2c-0.2-0.9-1.1-1.5-2-1.2c-0.9,0.2-1.5,1.1-1.2,2
							C686.9,311.8,687.8,312.3,688.7,312.1z"/>
						<path class="st38" d="M682.6,316.2c0.4,0.2,0.9,0,1-0.4l0.6-1.4l0.9-0.3l-0.7,2.8c-0.1,0.4,0,0.7,0.3,1l2.7,2.2l0.7,2.9
							c0.1,0.4,0.5,0.7,0.9,0.7c0.1,0,0.2,0,0.2,0c0.5-0.1,0.8-0.6,0.7-1.2l-0.8-3.2c0-0.2-0.2-0.4-0.3-0.5l-1.7-1.4l0.9-2.4
							l0.9,1.1c0.2,0.2,0.4,0.3,0.6,0.3c0.1,0,0.3,0,0.4-0.1l1.6-1c0.4-0.2,0.5-0.7,0.3-1.1s-0.7-0.5-1.1-0.3l-1,0.6l-0.9-1
							c-0.2-0.3-0.5-0.5-0.9-0.6l-1.4-0.5c-0.4-0.2-0.9-0.2-1.3,0l-1.9,0.6c-0.2,0.1-0.4,0.2-0.5,0.4l-0.8,1.8
							C682,315.5,682.2,316,682.6,316.2z"/>
					</g>
				</g>
			</g>
		</g>
	</g>
	<g>
		<g id="Layer_1_00000042007272843511667690000008406306761235619238_">
			<g id="Layer_2_00000022556735553191659450000005795340208093633970_">
				<g id="Image_29_00000173841480334063734140000011531086694327245201_">
					<g id="Ellipse_1_copy_2_00000107550855543152140580000014742607775612015036_">
						<circle class="st39" cx="932" cy="465.9" r="14.4"/>
					</g>
				</g>
			</g>
		</g>
		<g>
			<g>
				<path class="st38" d="M940.2,457.1l-5-1.7c-0.3-0.1-0.6,0.1-0.6,0.4v1.3h-4.9c-0.2,0-0.4,0.2-0.4,0.4v1.5c0.3,0,0.5,0.1,0.8,0.2
					v-1.3h4.4v15.3h-3v0.2c0,0.2,0.1,0.4,0,0.6h2.9v1.3c0,0.3,0.3,0.6,0.6,0.5l5-1.7c0.2-0.1,0.3-0.2,0.3-0.4v-16.1
					C940.5,457.3,940.4,457.1,940.2,457.1z"/>
				<g>
					<g>
						<path class="st38" d="M921.9,472.5h3.2c0.4,0,0.8-0.3,0.9-0.7l0.3-1.3l-1.6-1.3l0,0l-0.4,1.4h-2.5c-0.5,0-1,0.4-1,1
							C921,472.1,921.4,472.5,921.9,472.5z"/>
						<path class="st38" d="M929.3,463.3c0.9-0.2,1.5-1.1,1.2-2c-0.2-0.9-1.1-1.5-2-1.2c-0.9,0.2-1.5,1.1-1.2,2
							C927.5,463,928.4,463.5,929.3,463.3z"/>
						<path class="st38" d="M923.2,467.3c0.4,0.2,0.9,0,1-0.4l0.6-1.4l0.9-0.3L925,468c-0.1,0.4,0,0.7,0.3,1l2.7,2.2l0.7,2.9
							c0.1,0.4,0.5,0.7,0.9,0.7c0.1,0,0.2,0,0.2,0c0.5-0.1,0.8-0.6,0.7-1.2l-0.8-3.2c0-0.2-0.2-0.4-0.3-0.5l-1.7-1.4l0.9-2.4
							l0.9,1.1c0.2,0.2,0.4,0.3,0.6,0.3c0.1,0,0.3,0,0.4-0.1l1.6-1c0.4-0.2,0.5-0.7,0.3-1.1s-0.7-0.5-1.1-0.3l-1,0.6l-0.9-1
							c-0.2-0.3-0.5-0.5-0.9-0.6l-1.4-0.5c-0.4-0.2-0.9-0.2-1.3,0l-1.9,0.6c-0.2,0.1-0.4,0.2-0.5,0.4l-0.8,1.8
							C922.6,466.7,922.8,467.2,923.2,467.3z"/>
					</g>
				</g>
			</g>
		</g>
	</g>
	<g>
		<g id="Layer_1_00000019663380885152700260000017736699896416463545_">
			<g id="Layer_2_00000150801938894541612660000009455676156958400433_">
				<g id="Image_29_00000049214467997389285920000008911158312051820730_">
					<g id="Ellipse_1_copy_2_00000160154265438407168590000015565595157570235035_">
						<circle class="st39" cx="412.8" cy="573.6" r="14.4"/>
					</g>
				</g>
			</g>
		</g>
		<g>
			<g>
				<path class="st38" d="M421,564.8l-5-1.7c-0.3-0.1-0.6,0.1-0.6,0.4v1.3h-4.9c-0.2,0-0.4,0.2-0.4,0.4v1.5c0.3,0,0.5,0.1,0.8,0.2
					v-1.3h4.4v15.3h-3v0.2c0,0.2,0.1,0.4,0,0.6h2.9v1.3c0,0.3,0.3,0.6,0.6,0.5l5-1.7c0.2-0.1,0.3-0.2,0.3-0.4v-16.1
					C421.3,565,421.2,564.9,421,564.8z"/>
				<g>
					<g>
						<path class="st38" d="M402.8,580.2h3.2c0.4,0,0.8-0.3,0.9-0.7l0.3-1.3l-1.6-1.3l0,0l-0.4,1.4h-2.5c-0.5,0-1,0.4-1,1
							C401.8,579.8,402.3,580.2,402.8,580.2z"/>
						<path class="st38" d="M410.1,571c0.9-0.2,1.5-1.1,1.2-2c-0.2-0.9-1.1-1.5-2-1.2c-0.9,0.2-1.5,1.1-1.2,2S409.3,571.2,410.1,571
							z"/>
						<path class="st38" d="M404,575.1c0.4,0.2,0.9,0,1-0.4l0.6-1.4l0.9-0.3l-0.7,2.8c-0.1,0.4,0,0.7,0.3,1l2.7,2.2l0.7,2.9
							c0.1,0.4,0.5,0.7,0.9,0.7c0.1,0,0.2,0,0.2,0c0.5-0.1,0.8-0.6,0.7-1.2l-0.8-3.2c0-0.2-0.2-0.4-0.3-0.5l-1.7-1.4l0.9-2.4
							l0.9,1.1c0.2,0.2,0.4,0.3,0.6,0.3c0.1,0,0.3,0,0.4-0.1l1.6-1c0.4-0.2,0.5-0.7,0.3-1.1c-0.2-0.4-0.7-0.5-1.1-0.3l-1,0.6l-0.9-1
							c-0.2-0.3-0.5-0.5-0.9-0.6l-1.4-0.5c-0.4-0.2-0.9-0.2-1.3,0l-1.9,0.6c-0.2,0.1-0.4,0.2-0.5,0.4l-0.8,1.8
							C403.5,574.4,403.6,574.9,404,575.1z"/>
					</g>
				</g>
			</g>
		</g>
	</g>
	<g>
		<g id="Layer_2_00000090287708573909370120000015528676360269084048_">
			<g id="Image_64_00000056429901070639207310000000004013371461789362_">
				<g id="Ellipse_1_copy_9_00000126283228105064793040000007157497871469456054_">
					<circle class="st37" cx="988.7" cy="533.4" r="14.4"/>
				</g>
			</g>
		</g>
		<g id="Layer_1_00000035518951821911710160000001908990774452682385_">
			<g>
				<g>
					<g>
						<path class="st38" d="M982.1,527.8c0.8,0,1.5-0.7,1.5-1.5s-0.7-1.4-1.5-1.4s-1.5,0.6-1.5,1.4
							C980.6,527.1,981.3,527.8,982.1,527.8z"/>
						<path class="st38" d="M984,528.1h-3.7c-0.9,0-1.6,0.7-1.6,1.6v4.6c0,0.3,0.3,0.6,0.6,0.6s0.6-0.3,0.6-0.6v-4h0.3v4.6v6.2
							c0,0.5,0.4,0.8,0.8,0.8c0.5,0,0.8-0.4,0.8-0.8v-6.2h0.4v6.2c0,0.5,0.4,0.8,0.8,0.8c0.5,0,0.8-0.4,0.8-0.8v-6.2v-4.6h0.3v4
							c0,0.3,0.3,0.6,0.6,0.6s0.6-0.3,0.6-0.6v-4.6C985.6,528.8,984.9,528.1,984,528.1z"/>
					</g>
					<g>
						<path class="st38" d="M994.7,527.8c0.8,0,1.5-0.7,1.5-1.5s-0.7-1.5-1.5-1.5c-0.8,0.1-1.5,0.7-1.5,1.5S993.9,527.8,994.7,527.8
							z"/>
						<path class="st38" d="M998.6,533.5l-1.2-4.3c-0.3-0.8-0.9-1.1-1.8-1.1l0,0h-2l0,0c-0.9,0-1.5,0.3-1.8,1.1l-1.2,4.3
							c-0.1,0.3,0.1,0.6,0.4,0.7c0.3,0.1,0.6-0.1,0.7-0.3l1.1-3.8h0.3l-1.9,6.5h1.8v4.7c0,0.4,0.3,0.7,0.7,0.7s0.7-0.3,0.7-0.7v-4.7
							h0.3v4.7c0,0.4,0.3,0.7,0.7,0.7s0.7-0.3,0.7-0.7v-4.7h1.8l-1.8-6.6h0.3l1.1,3.8c0.1,0.3,0.4,0.4,0.7,0.3
							C998.5,534,998.7,533.7,998.6,533.5z"/>
					</g>
				</g>
				<rect x="987.9" y="524.9" class="st38" width="1.6" height="17"/>
			</g>
		</g>
	</g>
	<g>
		<circle class="st39" cx="811.7" cy="853.2" r="14.4"/>
		<g>
			<g>
				<path class="st38" d="M819.9,844.4l-5-1.7c-0.3-0.1-0.6,0.1-0.6,0.4v1.3h-4.9c-0.2,0-0.4,0.2-0.4,0.4v1.5c0.3,0,0.5,0.1,0.8,0.2
					v-1.3h4.4v15.3h-3v0.2c0,0.2,0.1,0.4,0,0.6h2.9v1.3c0,0.3,0.3,0.6,0.6,0.5l5-1.7c0.2-0.1,0.3-0.2,0.3-0.4v-16.1
					C820.2,844.7,820.1,844.5,819.9,844.4z"/>
				<g>
					<g>
						<path class="st38" d="M801.7,859.9h3.2c0.4,0,0.8-0.3,0.9-0.7l0.3-1.3l-1.6-1.3l0,0l-0.4,1.4h-2.5c-0.5,0-1,0.4-1,1
							C800.8,859.4,801.2,859.9,801.7,859.9z"/>
						<path class="st38" d="M809.1,850.6c0.9-0.2,1.5-1.1,1.2-2c-0.2-0.9-1.1-1.5-2-1.2c-0.9,0.2-1.5,1.1-1.2,2
							C807.3,850.3,808.2,850.8,809.1,850.6z"/>
						<path class="st38" d="M803,854.7c0.4,0.2,0.9,0,1-0.4l0.6-1.4l0.9-0.3l-0.7,2.8c-0.1,0.4,0,0.7,0.3,1l2.7,2.2l0.7,2.9
							c0.1,0.4,0.5,0.7,0.9,0.7c0.1,0,0.2,0,0.2,0c0.5-0.1,0.8-0.6,0.7-1.2l-0.8-3.2c0-0.2-0.2-0.4-0.3-0.5l-1.7-1.4l0.9-2.4
							l0.9,1.1c0.2,0.2,0.4,0.3,0.6,0.3c0.1,0,0.3,0,0.4-0.1l1.6-1c0.4-0.2,0.5-0.7,0.3-1.1c-0.2-0.4-0.7-0.5-1.1-0.3l-1,0.6l-0.9-1
							c-0.2-0.3-0.5-0.5-0.9-0.6l-1.4-0.5c-0.4-0.2-0.9-0.2-1.3,0l-1.9,0.6c-0.2,0.1-0.4,0.2-0.5,0.4l-0.8,1.8
							C802.4,854,802.6,854.5,803,854.7z"/>
					</g>
				</g>
			</g>
		</g>
	</g>
</g>
</svg>
