<?xml version="1.0" encoding="utf-8"?>
<!-- Generator: Adobe Illustrator 28.2.0, SVG Export Plug-In . SVG Version: 6.00 Build 0)  -->
<svg version="1.1" id="Layer_1" xmlns="http://www.w3.org/2000/svg" xmlns:xlink="http://www.w3.org/1999/xlink" x="0px" y="0px"
	 viewBox="0 0 684.1 869.6" style="enable-background:new 0 0 684.1 869.6;" xml:space="preserve">
<style type="text/css">
	.st0{fill:none;}
	.st1{fill:#231F20;}
	.st2{opacity:0.45;fill:url(#SVGID_1_);stroke:#C2C4C6;stroke-miterlimit:10;enable-background:new    ;}
	.st3{fill:none;stroke:#000000;stroke-miterlimit:10;}
	
		.st4{opacity:0.45;fill:url(#SVGID_00000091703906589023063530000015238018415016172945_);stroke:#C2C4C6;stroke-miterlimit:10;enable-background:new    ;}
	.st5{fill:none;stroke:#E2E3E4;stroke-miterlimit:10;}
	
		.st6{opacity:0.45;fill:url(#SVGID_00000051358439269774806590000005260509209300501397_);stroke:#ABADB0;stroke-miterlimit:10;enable-background:new    ;}
	.st7{opacity:0.45;fill:#404181;stroke:#8F9194;stroke-miterlimit:10;enable-background:new    ;}
	
		.st8{opacity:0.45;fill:url(#SVGID_00000005225600941147736870000003821158926192776880_);stroke:#C4C6C8;stroke-miterlimit:10;enable-background:new    ;}
	.st9{fill:none;stroke:#FFFFFF;stroke-miterlimit:10;}
	.st10{opacity:0.45;fill:#71A58E;stroke:#000000;stroke-width:4;stroke-miterlimit:10;enable-background:new    ;}
	.st11{fill:#0073A0;stroke:#8F9194;stroke-miterlimit:10;}
	.st12{fill:#FFFFFF;}
	.st13{fill:#0073A0;}
	.st14{fill:#E4F0F9;}
	.st15{opacity:0.4;fill:#1A4363;enable-background:new    ;}
	.st16{fill:#231F20;stroke:#FFFFFF;stroke-width:0.25;stroke-miterlimit:10;}
	.st17{fill:none;stroke:#010101;stroke-width:4;stroke-miterlimit:10;}
	.st18{font-family:'ArialMT';}
	.st19{font-size:18px;}
	.st20{fill:none;stroke:#221F1F;stroke-width:6;stroke-linecap:round;stroke-linejoin:round;}
	.st21{fill:none;stroke:#231F20;stroke-width:6;stroke-linecap:round;stroke-linejoin:round;}
	.st22{fill:#C40000;stroke:#FFFFFF;stroke-width:3;stroke-miterlimit:10;}
	.st23{fill:#C40000;}
</style>
<pattern  y="869.6" width="28.8" height="28.8" patternUnits="userSpaceOnUse" id="SVGID_0000008306542498016042004" viewBox="1.4 -30.2 28.8 28.8" style="overflow:visible;">
	<g>
		<rect x="1.4" y="-30.2" class="st0" width="28.8" height="28.8"/>
		<g>
			<rect x="1.4" y="-30.2" class="st0" width="28.8" height="28.8"/>
			<g>
				<rect x="1.4" y="-30.2" class="st0" width="28.8" height="28.8"/>
				<g>
					<rect x="1.4" y="-30.2" class="st0" width="28.8" height="28.8"/>
					<g>
						<rect x="1.4" y="-30.2" class="st0" width="28.8" height="28.8"/>
						<g>
							<rect x="1.4" y="-30.2" class="st0" width="28.8" height="28.8"/>
							<g>
								<rect x="1.4" y="-30.2" class="st0" width="28.8" height="28.8"/>
								<g>
									<rect x="1.4" y="-30.2" class="st0" width="28.8" height="28.8"/>
									<g>
										<rect x="1.4" y="-30.2" class="st0" width="28.8" height="28.8"/>
										<g>
											<rect x="1.4" y="-30.2" class="st0" width="28.8" height="28.8"/>
											<g>
												<rect x="1.4" y="-30.2" class="st0" width="28.8" height="28.8"/>
												<g>
													<path class="st1" d="M30.2,0c0.8,0,1.4-0.6,1.4-1.4S31-2.8,30.2-2.8s-1.4,0.6-1.4,1.4C28.8-0.6,29.4,0,30.2,0z"/>
													<path class="st1" d="M15.8,0c0.8,0,1.4-0.6,1.4-1.4s-0.6-1.4-1.4-1.4c-0.8,0-1.4,0.6-1.4,1.4C14.4-0.6,15,0,15.8,0z"/>
													<path class="st1" d="M30.2-14.4c0.8,0,1.4-0.6,1.4-1.4s-0.6-1.4-1.4-1.4s-1.4,0.6-1.4,1.4C28.8-15,29.4-14.4,30.2-14.4
														z"/>
													<path class="st1" d="M15.8-14.4c0.8,0,1.4-0.6,1.4-1.4s-0.6-1.4-1.4-1.4c-0.8,0-1.4,0.6-1.4,1.4
														C14.4-15,15-14.4,15.8-14.4z"/>
													<path class="st1" d="M8.6-7.2c0.8,0,1.4-0.6,1.4-1.4S9.4-10,8.6-10c-0.8,0-1.4,0.6-1.4,1.4C7.2-7.8,7.8-7.2,8.6-7.2z"
														/>
													<path class="st1" d="M23-7.2c0.8,0,1.4-0.6,1.4-1.4S23.8-10,23-10s-1.4,0.6-1.4,1.4S22.2-7.2,23-7.2z"/>
													<path class="st1" d="M8.6-21.6c0.8,0,1.4-0.6,1.4-1.4s-0.6-1.4-1.4-1.4c-0.8,0-1.4,0.6-1.4,1.4
														C7.2-22.2,7.8-21.6,8.6-21.6z"/>
													<path class="st1" d="M23-21.6c0.8,0,1.4-0.6,1.4-1.4s-0.6-1.4-1.4-1.4s-1.4,0.6-1.4,1.4C21.6-22.2,22.2-21.6,23-21.6z"
														/>
												</g>
												<g>
													<path class="st1" d="M1.4,0c0.8,0,1.4-0.6,1.4-1.4S2.2-2.8,1.4-2.8C0.6-2.9,0-2.2,0-1.4C0-0.6,0.6,0,1.4,0z"/>
													<path class="st1" d="M1.4-14.4c0.8,0,1.4-0.6,1.4-1.4s-0.6-1.4-1.4-1.4S0-16.6,0-15.8S0.6-14.4,1.4-14.4z"/>
												</g>
												<g>
													<path class="st1" d="M30.2-28.8c0.8,0,1.4-0.6,1.4-1.4s-0.6-1.4-1.4-1.4s-1.4,0.6-1.4,1.4
														C28.8-29.4,29.4-28.8,30.2-28.8z"/>
													<path class="st1" d="M15.8-28.8c0.8,0,1.4-0.6,1.4-1.4s-0.6-1.4-1.4-1.4s-1.4,0.6-1.4,1.4C14.4-29.4,15-28.8,15.8-28.8
														z"/>
												</g>
												<g>
													<path class="st1" d="M1.4-28.8c0.8,0,1.4-0.6,1.4-1.4s-0.6-1.4-1.4-1.4C0.6-31.7,0-31,0-30.2C0-29.4,0.6-28.8,1.4-28.8
														z"/>
												</g>
											</g>
										</g>
									</g>
								</g>
							</g>
						</g>
					</g>
				</g>
			</g>
		</g>
	</g>
</pattern>
<pattern  y="869.6" width="28.8" height="28.8" patternUnits="userSpaceOnUse" id="SVGID_0000008956433668270895613" viewBox="1.4 -30.2 28.8 28.8" style="overflow:visible;">
	<g>
		<rect x="1.4" y="-30.2" class="st0" width="28.8" height="28.8"/>
		<g>
			<rect x="1.4" y="-30.2" class="st0" width="28.8" height="28.8"/>
			<g>
				<rect x="1.4" y="-30.2" class="st0" width="28.8" height="28.8"/>
				<g>
					<rect x="1.4" y="-30.2" class="st0" width="28.8" height="28.8"/>
					<g>
						<rect x="1.4" y="-30.2" class="st0" width="28.8" height="28.8"/>
						<g>
							<rect x="1.4" y="-30.2" class="st0" width="28.8" height="28.8"/>
							<g>
								<rect x="1.4" y="-30.2" class="st0" width="28.8" height="28.8"/>
								<g>
									<rect x="1.4" y="-30.2" class="st0" width="28.8" height="28.8"/>
									<g>
										<rect x="1.4" y="-30.2" class="st0" width="28.8" height="28.8"/>
										<g>
											<rect x="1.4" y="-30.2" class="st0" width="28.8" height="28.8"/>
											<g>
												<rect x="1.4" y="-30.2" class="st0" width="28.8" height="28.8"/>
												<g>
													<path class="st1" d="M30.2,0c0.8,0,1.4-0.6,1.4-1.4S31-2.8,30.2-2.8s-1.4,0.6-1.4,1.4C28.8-0.6,29.4,0,30.2,0z"/>
													<path class="st1" d="M15.8,0c0.8,0,1.4-0.6,1.4-1.4s-0.6-1.4-1.4-1.4c-0.8,0-1.4,0.6-1.4,1.4C14.4-0.6,15,0,15.8,0z"/>
													<path class="st1" d="M30.2-14.4c0.8,0,1.4-0.6,1.4-1.4s-0.6-1.4-1.4-1.4s-1.4,0.6-1.4,1.4C28.8-15,29.4-14.4,30.2-14.4
														z"/>
													<path class="st1" d="M15.8-14.4c0.8,0,1.4-0.6,1.4-1.4s-0.6-1.4-1.4-1.4c-0.8,0-1.4,0.6-1.4,1.4
														C14.4-15,15-14.4,15.8-14.4z"/>
													<path class="st1" d="M8.6-7.2c0.8,0,1.4-0.6,1.4-1.4S9.4-10,8.6-10c-0.8,0-1.4,0.6-1.4,1.4C7.2-7.8,7.8-7.2,8.6-7.2z"
														/>
													<path class="st1" d="M23-7.2c0.8,0,1.4-0.6,1.4-1.4S23.8-10,23-10s-1.4,0.6-1.4,1.4S22.2-7.2,23-7.2z"/>
													<path class="st1" d="M8.6-21.6c0.8,0,1.4-0.6,1.4-1.4s-0.6-1.4-1.4-1.4c-0.8,0-1.4,0.6-1.4,1.4
														C7.2-22.2,7.8-21.6,8.6-21.6z"/>
													<path class="st1" d="M23-21.6c0.8,0,1.4-0.6,1.4-1.4s-0.6-1.4-1.4-1.4s-1.4,0.6-1.4,1.4C21.6-22.2,22.2-21.6,23-21.6z"
														/>
												</g>
												<g>
													<path class="st1" d="M1.4,0c0.8,0,1.4-0.6,1.4-1.4S2.2-2.8,1.4-2.8C0.6-2.9,0-2.2,0-1.4C0-0.6,0.6,0,1.4,0z"/>
													<path class="st1" d="M1.4-14.4c0.8,0,1.4-0.6,1.4-1.4s-0.6-1.4-1.4-1.4S0-16.6,0-15.8S0.6-14.4,1.4-14.4z"/>
												</g>
												<g>
													<path class="st1" d="M30.2-28.8c0.8,0,1.4-0.6,1.4-1.4s-0.6-1.4-1.4-1.4s-1.4,0.6-1.4,1.4
														C28.8-29.4,29.4-28.8,30.2-28.8z"/>
													<path class="st1" d="M15.8-28.8c0.8,0,1.4-0.6,1.4-1.4s-0.6-1.4-1.4-1.4s-1.4,0.6-1.4,1.4C14.4-29.4,15-28.8,15.8-28.8
														z"/>
												</g>
												<g>
													<path class="st1" d="M1.4-28.8c0.8,0,1.4-0.6,1.4-1.4s-0.6-1.4-1.4-1.4C0.6-31.7,0-31,0-30.2C0-29.4,0.6-28.8,1.4-28.8
														z"/>
												</g>
											</g>
										</g>
									</g>
								</g>
							</g>
						</g>
					</g>
				</g>
			</g>
		</g>
	</g>
</pattern>
<pattern  y="869.6" width="28.8" height="28.8" patternUnits="userSpaceOnUse" id="SVGID_0000011404083906171932365" viewBox="1.4 -30.2 28.8 28.8" style="overflow:visible;">
	<g>
		<rect x="1.4" y="-30.2" class="st0" width="28.8" height="28.8"/>
		<g>
			<rect x="1.4" y="-30.2" class="st0" width="28.8" height="28.8"/>
			<g>
				<rect x="1.4" y="-30.2" class="st0" width="28.8" height="28.8"/>
				<g>
					<rect x="1.4" y="-30.2" class="st0" width="28.8" height="28.8"/>
					<g>
						<rect x="1.4" y="-30.2" class="st0" width="28.8" height="28.8"/>
						<g>
							<rect x="1.4" y="-30.2" class="st0" width="28.8" height="28.8"/>
							<g>
								<rect x="1.4" y="-30.2" class="st0" width="28.8" height="28.8"/>
								<g>
									<rect x="1.4" y="-30.2" class="st0" width="28.8" height="28.8"/>
									<g>
										<rect x="1.4" y="-30.2" class="st0" width="28.8" height="28.8"/>
										<g>
											<rect x="1.4" y="-30.2" class="st0" width="28.8" height="28.8"/>
											<g>
												<rect x="1.4" y="-30.2" class="st0" width="28.8" height="28.8"/>
												<g>
													<path class="st1" d="M30.2,0c0.8,0,1.4-0.6,1.4-1.4S31-2.8,30.2-2.8s-1.4,0.6-1.4,1.4C28.8-0.6,29.4,0,30.2,0z"/>
													<path class="st1" d="M15.8,0c0.8,0,1.4-0.6,1.4-1.4s-0.6-1.4-1.4-1.4c-0.8,0-1.4,0.6-1.4,1.4C14.4-0.6,15,0,15.8,0z"/>
													<path class="st1" d="M30.2-14.4c0.8,0,1.4-0.6,1.4-1.4s-0.6-1.4-1.4-1.4s-1.4,0.6-1.4,1.4C28.8-15,29.4-14.4,30.2-14.4
														z"/>
													<path class="st1" d="M15.8-14.4c0.8,0,1.4-0.6,1.4-1.4s-0.6-1.4-1.4-1.4c-0.8,0-1.4,0.6-1.4,1.4
														C14.4-15,15-14.4,15.8-14.4z"/>
													<path class="st1" d="M8.6-7.2c0.8,0,1.4-0.6,1.4-1.4S9.4-10,8.6-10c-0.8,0-1.4,0.6-1.4,1.4C7.2-7.8,7.8-7.2,8.6-7.2z"
														/>
													<path class="st1" d="M23-7.2c0.8,0,1.4-0.6,1.4-1.4S23.8-10,23-10s-1.4,0.6-1.4,1.4S22.2-7.2,23-7.2z"/>
													<path class="st1" d="M8.6-21.6c0.8,0,1.4-0.6,1.4-1.4s-0.6-1.4-1.4-1.4c-0.8,0-1.4,0.6-1.4,1.4
														C7.2-22.2,7.8-21.6,8.6-21.6z"/>
													<path class="st1" d="M23-21.6c0.8,0,1.4-0.6,1.4-1.4s-0.6-1.4-1.4-1.4s-1.4,0.6-1.4,1.4C21.6-22.2,22.2-21.6,23-21.6z"
														/>
												</g>
												<g>
													<path class="st1" d="M1.4,0c0.8,0,1.4-0.6,1.4-1.4S2.2-2.8,1.4-2.8C0.6-2.9,0-2.2,0-1.4C0-0.6,0.6,0,1.4,0z"/>
													<path class="st1" d="M1.4-14.4c0.8,0,1.4-0.6,1.4-1.4s-0.6-1.4-1.4-1.4S0-16.6,0-15.8S0.6-14.4,1.4-14.4z"/>
												</g>
												<g>
													<path class="st1" d="M30.2-28.8c0.8,0,1.4-0.6,1.4-1.4s-0.6-1.4-1.4-1.4s-1.4,0.6-1.4,1.4
														C28.8-29.4,29.4-28.8,30.2-28.8z"/>
													<path class="st1" d="M15.8-28.8c0.8,0,1.4-0.6,1.4-1.4s-0.6-1.4-1.4-1.4s-1.4,0.6-1.4,1.4C14.4-29.4,15-28.8,15.8-28.8
														z"/>
												</g>
												<g>
													<path class="st1" d="M1.4-28.8c0.8,0,1.4-0.6,1.4-1.4s-0.6-1.4-1.4-1.4C0.6-31.7,0-31,0-30.2C0-29.4,0.6-28.8,1.4-28.8
														z"/>
												</g>
											</g>
										</g>
									</g>
								</g>
							</g>
						</g>
					</g>
				</g>
			</g>
		</g>
	</g>
</pattern>
<pattern  y="869.6" width="28.8" height="28.8" patternUnits="userSpaceOnUse" id="SVGID_0000013062124367973174616" viewBox="1.4 -30.2 28.8 28.8" style="overflow:visible;">
	<g>
		<rect x="1.4" y="-30.2" class="st0" width="28.8" height="28.8"/>
		<g>
			<rect x="1.4" y="-30.2" class="st0" width="28.8" height="28.8"/>
			<g>
				<rect x="1.4" y="-30.2" class="st0" width="28.8" height="28.8"/>
				<g>
					<rect x="1.4" y="-30.2" class="st0" width="28.8" height="28.8"/>
					<g>
						<rect x="1.4" y="-30.2" class="st0" width="28.8" height="28.8"/>
						<g>
							<rect x="1.4" y="-30.2" class="st0" width="28.8" height="28.8"/>
							<g>
								<rect x="1.4" y="-30.2" class="st0" width="28.8" height="28.8"/>
								<g>
									<rect x="1.4" y="-30.2" class="st0" width="28.8" height="28.8"/>
									<g>
										<rect x="1.4" y="-30.2" class="st0" width="28.8" height="28.8"/>
										<g>
											<rect x="1.4" y="-30.2" class="st0" width="28.8" height="28.8"/>
											<g>
												<rect x="1.4" y="-30.2" class="st0" width="28.8" height="28.8"/>
												<g>
													<path class="st1" d="M30.2,0c0.8,0,1.4-0.6,1.4-1.4S31-2.8,30.2-2.8s-1.4,0.6-1.4,1.4C28.8-0.6,29.4,0,30.2,0z"/>
													<path class="st1" d="M15.8,0c0.8,0,1.4-0.6,1.4-1.4s-0.6-1.4-1.4-1.4c-0.8,0-1.4,0.6-1.4,1.4C14.4-0.6,15,0,15.8,0z"/>
													<path class="st1" d="M30.2-14.4c0.8,0,1.4-0.6,1.4-1.4s-0.6-1.4-1.4-1.4s-1.4,0.6-1.4,1.4C28.8-15,29.4-14.4,30.2-14.4
														z"/>
													<path class="st1" d="M15.8-14.4c0.8,0,1.4-0.6,1.4-1.4s-0.6-1.4-1.4-1.4c-0.8,0-1.4,0.6-1.4,1.4
														C14.4-15,15-14.4,15.8-14.4z"/>
													<path class="st1" d="M8.6-7.2c0.8,0,1.4-0.6,1.4-1.4S9.4-10,8.6-10c-0.8,0-1.4,0.6-1.4,1.4C7.2-7.8,7.8-7.2,8.6-7.2z"
														/>
													<path class="st1" d="M23-7.2c0.8,0,1.4-0.6,1.4-1.4S23.8-10,23-10s-1.4,0.6-1.4,1.4S22.2-7.2,23-7.2z"/>
													<path class="st1" d="M8.6-21.6c0.8,0,1.4-0.6,1.4-1.4s-0.6-1.4-1.4-1.4c-0.8,0-1.4,0.6-1.4,1.4
														C7.2-22.2,7.8-21.6,8.6-21.6z"/>
													<path class="st1" d="M23-21.6c0.8,0,1.4-0.6,1.4-1.4s-0.6-1.4-1.4-1.4s-1.4,0.6-1.4,1.4C21.6-22.2,22.2-21.6,23-21.6z"
														/>
												</g>
												<g>
													<path class="st1" d="M1.4,0c0.8,0,1.4-0.6,1.4-1.4S2.2-2.8,1.4-2.8C0.6-2.9,0-2.2,0-1.4C0-0.6,0.6,0,1.4,0z"/>
													<path class="st1" d="M1.4-14.4c0.8,0,1.4-0.6,1.4-1.4s-0.6-1.4-1.4-1.4S0-16.6,0-15.8S0.6-14.4,1.4-14.4z"/>
												</g>
												<g>
													<path class="st1" d="M30.2-28.8c0.8,0,1.4-0.6,1.4-1.4s-0.6-1.4-1.4-1.4s-1.4,0.6-1.4,1.4
														C28.8-29.4,29.4-28.8,30.2-28.8z"/>
													<path class="st1" d="M15.8-28.8c0.8,0,1.4-0.6,1.4-1.4s-0.6-1.4-1.4-1.4s-1.4,0.6-1.4,1.4C14.4-29.4,15-28.8,15.8-28.8
														z"/>
												</g>
												<g>
													<path class="st1" d="M1.4-28.8c0.8,0,1.4-0.6,1.4-1.4s-0.6-1.4-1.4-1.4C0.6-31.7,0-31,0-30.2C0-29.4,0.6-28.8,1.4-28.8
														z"/>
												</g>
											</g>
										</g>
									</g>
								</g>
							</g>
						</g>
					</g>
				</g>
			</g>
		</g>
	</g>
</pattern>
<g id="employee_areas">
	<pattern  id="SVGID_1_" xlink:href="#SVGID_0000013062124367973174616" patternTransform="matrix(1 0 0 1 -254.8 122112.6406)">
	</pattern>
	<polygon class="st2" points="116.7,621.9 117.3,687.9 205.7,687.8 206,561.4 123.7,561.5 125.2,427.8 70.4,427.1 4.9,564.6 	"/>
	<line class="st3" x1="525.1" y1="668.5" x2="525.2" y2="587"/>
	
		<pattern  id="SVGID_00000067213302132837131800000008271352440705609092_" xlink:href="#SVGID_0000008956433668270895613" patternTransform="matrix(1 0 0 1 -254.8 122112.6406)">
	</pattern>
	
		<polyline style="opacity:0.45;fill:url(#SVGID_00000067213302132837131800000008271352440705609092_);stroke:#C2C4C6;stroke-miterlimit:10;enable-background:new    ;" points="
		468.6,610.7 468.7,582.9 424.8,582.9 424.6,610.5 424.7,610.2 469,610.1 	"/>
	<line class="st5" x1="469" y1="582.9" x2="480.7" y2="582.9"/>
	
		<pattern  id="SVGID_00000175319410776646377740000004520885834969988778_" xlink:href="#SVGID_0000011404083906171932365" patternTransform="matrix(1 0 0 1 -83.8 86835.6953)">
	</pattern>
	
		<polygon style="opacity:0.45;fill:url(#SVGID_00000175319410776646377740000004520885834969988778_);stroke:#ABADB0;stroke-miterlimit:10;enable-background:new    ;" points="
		525,262.5 440.1,262.6 440.2,176.8 524.9,176.8 	"/>
</g>
<g id="spaces">
	<polyline id="_x32_25_00000116235876951198584460000015863712647643009706_" class="st7" points="283.7,862.1 283.6,716.6 
		266.2,704.9 119.1,704.6 119.3,785.4 283.6,863.7 	"/>
	<polygon id="_x32_55_00000171711371533934043890000005027550862519950216_" class="st7" points="272.4,688.1 282.8,676.6 
		282.7,582.9 207.1,583.3 207,687.5 	"/>
	
		<pattern  id="SVGID_00000138531437007205894870000012104338596296500919_" xlink:href="#SVGID_0000008306542498016042004" patternTransform="matrix(1 0 0 1 -254.8 122112.6406)">
	</pattern>
	
		<polygon style="opacity:0.45;fill:url(#SVGID_00000138531437007205894870000012104338596296500919_);stroke:#C4C6C8;stroke-miterlimit:10;enable-background:new    ;" points="
		458.6,772.3 450.9,780.8 524.2,815.5 524.5,772.4 	"/>
	<polygon id="_x32_13_00000036249146119411855670000018268131171449101442_" class="st7" points="441.7,759.6 459.2,759.7 
		459.2,771.9 524.8,772.4 525.1,668.5 441.6,668.2 	"/>
	<polygon id="_x32_17-219_00000003071105624623675260000009780586777286281396_" class="st7" points="362.9,725.3 362.6,582.9 
		425.3,582.9 424.9,753 	"/>
	<line id="line_btw_217_x26_219" class="st9" x1="362.7" y1="669.2" x2="425" y2="669.1"/>
	<polygon id="ATC_00000124144310135758618090000017541423169651988360_" class="st10" points="679.5,100 565,341.8 523.5,341.4 
		524.5,86.2 574.4,83.8 589.3,99.2 	"/>
</g>
<g id="restroom">
	<polygon class="st11" points="441.7,668.5 441.6,638.2 458.6,638.1 458.6,624.4 481,624.4 481.2,582.9 521.8,583.1 523.7,668.2 	
		"/>
	<path class="st12" d="M505.4,633.2c1.2,0,2.1-0.9,2.1-2.1s-0.9-2.1-2.1-2.1s-2.1,0.9-2.1,2.1C503.1,632.3,504.2,633.2,505.4,633.2z
		"/>
	<path class="st12" d="M511.1,641.6l-1.8-6.3c-0.4-1.2-1.3-1.6-2.6-1.6l0,0h-2.9l0,0c-1.3,0-2.1,0.4-2.6,1.6l-1.8,6.3
		c-0.1,0.4,0.1,0.8,0.7,0.9c0.4,0.1,0.9-0.1,1-0.5l1.6-5.5h0.4l-2.7,9.6h2.6v6.8c0,0.5,0.5,1,1,1s1-0.5,1-1v-6.8h0.5v6.8
		c0,0.5,0.5,1,1,1s1-0.5,1-1v-6.8h2.6l-2.7-9.6h0.4l1.6,5.5c0.1,0.4,0.5,0.7,1,0.5C511,642.4,511.3,642,511.1,641.6z"/>
	<path class="st12" d="M484,633.2c1.2,0,2.1-0.9,2.1-2.1s-0.9-2.1-2.1-2.1s-2.1,0.9-2.1,2.1C481.8,632.3,482.9,633.2,484,633.2z"/>
	<path class="st12" d="M486.8,633.8h-5.5c-1.3,0-2.4,1-2.4,2.4v6.7c0,0.5,0.4,0.9,0.9,0.9s0.9-0.4,0.9-0.9V637h0.5v6.8v9.2
		c0,0.7,0.5,1.2,1.2,1.2s1.2-0.5,1.2-1.2v-9.2h0.5v9.2c0,0.7,0.5,1.2,1.2,1.2s1.2-0.5,1.2-1.2v-9.2V637h0.5v5.9
		c0,0.5,0.4,0.9,0.9,0.9s0.9-0.4,0.9-0.9v-6.7C489.1,634.8,488.1,633.8,486.8,633.8z"/>
	<rect x="494" y="629" class="st12" width="2.4" height="24.9"/>
	<rect x="122.4" y="170.2" class="st13" width="73.1" height="75.5"/>
	<path class="st12" d="M169.6,197.7c1.2,0,2.1-0.9,2.1-2.1c0-1.2-0.9-2.1-2.1-2.1c-1.2,0-2.1,0.9-2.1,2.1
		C167.3,196.8,168.4,197.7,169.6,197.7z"/>
	<path class="st12" d="M175.3,206.1l-1.8-6.3c-0.4-1.2-1.3-1.6-2.6-1.6l0,0H168l0,0c-1.3,0-2.1,0.4-2.6,1.6l-1.8,6.3
		c-0.1,0.4,0.1,0.8,0.7,0.9c0.4,0.1,0.9-0.1,1-0.5l1.6-5.5h0.4l-2.7,9.6h2.6v6.8c0,0.5,0.5,1,1,1s1-0.5,1-1v-6.8h0.5v6.8
		c0,0.5,0.5,1,1,1s1-0.5,1-1v-6.8h2.6l-2.7-9.6h0.4l1.6,5.5c0.1,0.4,0.5,0.7,1,0.5C175.2,206.9,175.5,206.5,175.3,206.1z"/>
	<path class="st12" d="M148.2,197.7c1.2,0,2.1-0.9,2.1-2.1c0-1.2-0.9-2.1-2.1-2.1s-2.1,0.9-2.1,2.1
		C146,196.8,147.1,197.7,148.2,197.7z"/>
	<path class="st12" d="M151,198.3h-5.5c-1.3,0-2.4,1-2.4,2.4v6.7c0,0.5,0.4,0.9,0.9,0.9s0.9-0.4,0.9-0.9v-5.9h0.5v6.8v9.2
		c0,0.7,0.5,1.2,1.2,1.2s1.2-0.5,1.2-1.2v-9.2h0.5v9.2c0,0.7,0.5,1.2,1.2,1.2s1.2-0.5,1.2-1.2v-9.2v-6.8h0.5v5.9
		c0,0.5,0.4,0.9,0.9,0.9s0.9-0.4,0.9-0.9v-6.7C153.3,199.3,152.3,198.3,151,198.3z"/>
	<rect x="158.2" y="193.5" class="st12" width="2.4" height="24.9"/>
</g>
<polygon id="atrium" class="st14" points="292,346.6 368.5,345.9 368.1,499.8 291.5,500.4 "/>
<g id="escalator_00000091716072017625956250000001553014480789666982_">
	<rect x="371.5" y="425.9" class="st15" width="34" height="107.7"/>
	<g>
		<g>
			<g>
				<path class="st16" d="M385.3,464.7c1.6,0,2.8-1.4,2.8-2.8c0-1.6-1.4-2.8-2.8-2.8c-1.6,0-2.8,1.4-2.8,2.8
					C382.4,463.3,383.8,464.7,385.3,464.7z"/>
				<path class="st16" d="M388.4,468.6c0-1.6-1.4-3-3-3s-3,1.4-3,3v6.8l6-6V468.6L388.4,468.6z"/>
				<path class="st16" d="M399,467.7h-5.3c-0.9,0-1.7,0.4-2.4,1.1l-9.3,9.3h-4.1c-1.9,0-3.4,1.6-3.4,3.4c0,1.9,1.6,3.4,3.4,3.4h5.6
					c0.9,0,1.7-0.4,2.4-1.1l9.3-9.3h3.8c1.9,0,3.4-1.6,3.4-3.4C402.3,469.2,400.9,467.7,399,467.7z"/>
			</g>
			<g>
				<path class="st16" d="M398.5,479.7c0.3,0,0.5,0.1,0.4,0.4L398,485c0,0.3-0.3,0.4-0.4,0.5c-0.3,0.1-0.4,0.1-0.5,0l-0.5-0.5
					l-3.6,3.6c-0.3,0.3-0.7,0.3-0.8,0.1l-2.5-2.5c-0.1-0.1-0.1-0.5,0.1-0.8l3.6-3.6l-0.5-0.5c-0.1-0.1-0.1-0.4,0-0.5
					c0.1-0.3,0.4-0.4,0.5-0.4L398.5,479.7z"/>
			</g>
		</g>
	</g>
</g>
<g id="elevator">
	
		<rect x="441.2" y="430.1" transform="matrix(1.787253e-03 -1 1 1.787253e-03 10.8309 888.0425)" class="st15" width="18.1" height="16.9"/>
	
		<rect x="441" y="454.9" transform="matrix(1.787253e-03 -1 1 1.787253e-03 -14.0919 912.5012)" class="st15" width="18.1" height="16.9"/>
	
		<rect x="441" y="504.2" transform="matrix(1.787253e-03 -1 1 1.787253e-03 -63.4788 961.7795)" class="st15" width="18.1" height="16.9"/>
	
		<rect x="441.2" y="529.1" transform="matrix(1.787253e-03 -1 1 1.787253e-03 -88.01 986.8402)" class="st15" width="18.1" height="16.9"/>
	<line class="st17" x1="463.1" y1="426.8" x2="463.1" y2="555.1"/>
	<g>
		<g>
			<path class="st1" d="M446.1,474.5c-0.2-0.2-0.4-0.3-0.6-0.3s-0.5,0.1-0.6,0.3c-0.5,0.5-1.4,1.4-2.7,2.7c-0.4,0.4-0.4,1,0,1.3
				c0.3,0.3,0.9,0.3,1.2,0l1.1-1.1v3.5c0,0.5,0.4,0.9,0.9,0.9h0.1c0.5,0,0.9-0.4,0.9-0.9v-3.5l1.1,1.1c0.3,0.3,0.9,0.3,1.2,0l0,0
				c0.3-0.3,0.3-0.9,0-1.2C447.4,475.8,446.7,475.1,446.1,474.5z"/>
			<path class="st1" d="M453.9,481.5c0.2,0.2,0.4,0.3,0.6,0.3s0.5-0.1,0.6-0.3c0.5-0.5,1.4-1.4,2.7-2.7c0.4-0.4,0.4-1,0-1.3
				c-0.3-0.3-0.9-0.3-1.2,0l-1.1,1.1v-3.5c0-0.5-0.4-0.9-0.9-0.9h-0.1c-0.5,0-0.9,0.4-0.9,0.9v3.5l-1.1-1.1c-0.3-0.3-0.9-0.3-1.2,0
				l0,0c-0.3,0.3-0.3,0.9,0,1.2C452.6,480.2,453.3,480.9,453.9,481.5z"/>
		</g>
		<g>
			<g>
				<path class="st1" d="M453.3,488.5c0.5,0,1-0.4,1-1c0-0.5-0.4-1-1-1c-0.5,0-1,0.4-1,1C452.4,488,452.8,488.5,453.3,488.5z"/>
				<path class="st1" d="M454.6,488.6h-2.4c-0.6,0-1,0.5-1,1v3c0,0.2,0.2,0.4,0.4,0.4c0.2,0,0.4-0.2,0.4-0.4V490h0.2v3v4.1
					c0,0.3,0.2,0.6,0.6,0.6c0.3,0,0.6-0.2,0.6-0.6V493h0.2v4.1c0,0.3,0.2,0.6,0.6,0.6c0.3,0,0.6-0.2,0.6-0.6V493v-3h0.2v2.6
					c0,0.2,0.2,0.4,0.4,0.4c0.2,0,0.4-0.2,0.4-0.4v-3C455.6,489.1,455.1,488.6,454.6,488.6z"/>
			</g>
			<path class="st1" d="M447.1,488.5c0.5,0,1-0.4,1-1c0-0.5-0.4-1-1-1c-0.5,0-1,0.4-1,1C446.1,488,446.5,488.5,447.1,488.5z"/>
			<path class="st1" d="M449.7,492.2l-0.8-2.8c-0.2-0.5-0.6-0.7-1.2-0.7l0,0h-1.3l0,0c-0.6,0-1,0.2-1.2,0.7l-0.8,2.8
				c-0.1,0.2,0.1,0.4,0.3,0.4c0.2,0.1,0.4,0,0.5-0.2l0.7-2.5h0.2l-1.2,4.3h1.2v3c0,0.3,0.2,0.5,0.5,0.5s0.5-0.2,0.5-0.5v-3h0.2v3
				c0,0.3,0.2,0.5,0.5,0.5s0.5-0.2,0.5-0.5v-3h1.2l-1.2-4.3h0.2l0.7,2.5c0.1,0.2,0.3,0.3,0.5,0.2
				C449.6,492.5,449.7,492.3,449.7,492.2z"/>
		</g>
		<g>
			<path class="st1" d="M456.2,501.1h-12.4c-2.5,0-4.6-2.6-4.6-5.7v-6.5c0-3.2,2.1-5.7,4.6-5.7h12.3c2.5,0,4.6,2.6,4.6,5.7v6.5
				C460.7,498.5,458.7,501.1,456.2,501.1z M443.8,485.2c-1.6,0-2.9,1.6-2.9,3.6v6.5c0,2,1.3,3.6,2.9,3.6h12.3c1.6,0,2.9-1.6,2.9-3.6
				v-6.5c0-2-1.3-3.6-2.9-3.6H443.8z"/>
		</g>
	</g>
</g>
<g id="stairs_00000032626799022009418030000006004862700355200132_">
	<g>
		<path class="st1" d="M473.5,528.6c1.1,0,2.1-0.9,2.1-2.1c0-1.1-0.9-2.1-2.1-2.1c-1.1,0-2.1,0.9-2.1,2.1
			C471.5,527.7,472.4,528.6,473.5,528.6z"/>
		<path class="st1" d="M469.7,535.2c0.7,0,1.2-0.4,1.2-1.1v-1.3l0.7-0.4v3.3v0.7l-2,7.7c-0.2,0.6,0.2,1.2,0.8,1.3
			c0.7,0.2,1.3-0.1,1.6-0.8l1.8-7.1h1.8v2.3c0,0.7,0.6,1.1,1.2,1.1c0.7,0,1.2-0.4,1.2-1.1v-3.4c0-0.7-0.6-1.1-1.2-1.1l0,0l0,0h-2.7
			v-2.1l0.7,0.7c0.2,0.2,0.6,0.4,1,0.4l0,0h2.2c0.7,0,1.2-0.4,1.2-1.1s-0.6-1.1-1.2-1.1h-1.8l-2.2-2.4l-0.1-0.1
			c-0.1-0.1-0.2-0.3-0.4-0.4l0,0h-0.1l0,0h-0.1l0,0c0,0,0,0-0.1,0l0,0c0,0,0,0-0.1,0l0,0c0,0,0,0-0.1,0l0,0l0,0l0,0c0,0,0,0-0.1,0
			c0,0,0,0-0.1,0l0,0c0,0,0,0-0.1,0l0,0c0,0,0,0-0.1,0l0,0c0,0,0,0-0.1,0l0,0c0,0,0,0-0.1,0l0,0c0,0,0,0-0.1,0l0,0l-3.1,2.2
			c-0.3,0.2-0.4,0.6-0.4,0.9l0,0v1.9C468.5,534.7,468.9,535.2,469.7,535.2z"/>
		<path class="st1" d="M492.5,531.4h-5.7c-0.2,0-0.3,0.2-0.4,0.4v5.2h-5.2c-0.2,0-0.3,0.2-0.4,0.4v5.6h-5.4c-0.2,0-0.3,0.2-0.4,0.4
			v5.1h-5.2c-0.2,0-0.3,0.2-0.4,0.4v4.9c0,0.2,0.2,0.3,0.4,0.4h22.8c0.2,0,0.3-0.2,0.4-0.4l-0.1-22
			C492.8,531.6,492.7,531.5,492.5,531.4z"/>
	</g>
</g>
<g id="Text">
	<text transform="matrix(1 0 0 1 231.5156 639.0569)" class="st18 st19">255</text>
	<text transform="matrix(1 0 0 1 193.2832 774.7336)" class="st18 st19">225</text>
	<text transform="matrix(1 0 0 1 379.6289 632.2863)" class="st18 st19">219</text>
	<text transform="matrix(1 0 0 1 379.6289 706.5642)" class="st18 st19">217</text>
	<text transform="matrix(1 0 0 1 469.5431 725.2469)" class="st18 st19">213</text>
	<text transform="matrix(1 0 0 1 530 195.8898)" class="st18 st19">Adaptive</text>
	<text transform="matrix(1 0 0 1 530 217.4898)" class="st18 st19">Technology</text>
	<text transform="matrix(1 0 0 1 530 239.0898)" class="st18 st19">Center</text>
</g>
<g id="Floor_outline">
	<line class="st20" x1="680.7" y1="101.1" x2="524.8" y2="425.3"/>
	<line class="st20" x1="3" y1="566.2" x2="120.5" y2="322.1"/>
	<line class="st20" x1="116.8" y1="621.3" x2="2.9" y2="566.5"/>
	<line class="st20" x1="118.8" y1="786.1" x2="285.4" y2="866.3"/>
	<line class="st20" x1="119.4" y1="97.2" x2="360.8" y2="96.6"/>
	<line class="st20" x1="525.3" y1="2.7" x2="362.1" y2="95.9"/>
	<line class="st20" x1="525.3" y1="85.8" x2="525.3" y2="2.7"/>
	<line class="st20" x1="525.3" y1="85.8" x2="573.3" y2="82.5"/>
	<line class="st20" x1="586.2" y1="98.3" x2="573.3" y2="82.5"/>
	<line class="st20" x1="681" y1="100.4" x2="587.2" y2="99.3"/>
	<line class="st20" x1="119.4" y1="97.2" x2="119.8" y2="323.4"/>
	<line class="st20" x1="525.2" y1="817.8" x2="524.1" y2="518.5"/>
	<line class="st20" x1="286.1" y1="740.8" x2="285.4" y2="866.3"/>
	<line class="st20" x1="118.8" y1="786.1" x2="118.3" y2="622"/>
	<line class="st20" x1="286.8" y1="739.9" x2="363.9" y2="740.3"/>
	<line class="st21" x1="464.1" y1="425.4" x2="523.9" y2="425.4"/>
	<line class="st21" x1="464" y1="517.8" x2="464.1" y2="425.7"/>
	<line class="st21" x1="464" y1="518.5" x2="524.1" y2="518.5"/>
	<line class="st20" x1="525.2" y1="817.8" x2="365.2" y2="740.8"/>
</g>
<g id="Emergency_exits_00000110442743784794260610000002806853807004054171_">
	<g>
		<g>
			<path class="st22" d="M526.9,553.9l-7.2-2.5c-0.4-0.1-0.9,0.2-0.9,0.7v2h-7c-0.3,0-0.5,0.2-0.5,0.5v2.2c0.4,0.1,0.8,0.2,1.1,0.3
				v-2h6.4V577h-4.3l0.1,0.3c0.1,0.3,0.1,0.5,0.1,0.9h4.1v2c0,0.4,0.4,0.8,0.9,0.7l7.2-2.5c0.3-0.1,0.4-0.3,0.4-0.7v-23.1
				C527.3,554.2,527.1,554,526.9,553.9z"/>
			<path class="st22" d="M500.7,576.1h4.6c0.7,0,1.1-0.4,1.3-1l0.4-1.9l-2.2-1.9c0,0,0,0-0.1-0.1l-0.5,2h-3.5
				c-0.8,0-1.4,0.7-1.4,1.4C499.4,575.5,499.9,576.1,500.7,576.1z"/>
			<path class="st22" d="M511.3,562.8c1.3-0.3,2.1-1.5,1.8-2.9c-0.3-1.3-1.5-2.1-2.9-1.8c-1.3,0.3-2.1,1.5-1.8,2.9
				C508.8,562.4,510,563.1,511.3,562.8z"/>
			<path class="st22" d="M502.5,568.6c0.5,0.2,1.2,0,1.5-0.5l0.9-2.1l1.3-0.4l-1,3.9c-0.1,0.5,0.1,1.1,0.4,1.4l3.8,3.2l1,4.2
				c0.1,0.7,0.8,1,1.3,1c0.1,0,0.2,0,0.3,0c0.8-0.2,1.2-0.9,1-1.6l-1.1-4.6c-0.1-0.3-0.2-0.5-0.4-0.8l-2.4-2l1.3-3.4l1.3,1.5
				c0.2,0.2,0.5,0.4,0.9,0.4c0.2,0,0.4-0.1,0.5-0.2l2.3-1.4c0.5-0.3,0.8-1,0.4-1.5c-0.3-0.5-1-0.8-1.5-0.4l-1.5,0.9l-1.2-1.4
				c-0.3-0.3-0.8-0.7-1.2-0.9l-2.1-0.8c-0.7-0.2-1.3-0.2-1.9,0l-2.6,0.9c-0.3,0.1-0.5,0.3-0.7,0.7l-1.1,2.5
				C501.7,567.7,501.9,568.4,502.5,568.6z"/>
		</g>
	</g>
	<g>
		<g>
			<path class="st23" d="M526.9,553.9l-7.2-2.5c-0.4-0.1-0.9,0.2-0.9,0.7v2h-7c-0.3,0-0.5,0.2-0.5,0.5v2.2c0.4,0.1,0.8,0.2,1.1,0.3
				v-2h6.4V577h-4.3l0.1,0.3c0.1,0.3,0.1,0.5,0.1,0.9h4.1v2c0,0.4,0.4,0.8,0.9,0.7l7.2-2.5c0.3-0.1,0.4-0.3,0.4-0.7v-23.1
				C527.3,554.2,527.1,554,526.9,553.9z"/>
			<path class="st23" d="M500.7,576.1h4.6c0.7,0,1.1-0.4,1.3-1l0.4-1.9l-2.2-1.9c0,0,0,0-0.1-0.1l-0.5,2h-3.5
				c-0.8,0-1.4,0.7-1.4,1.4C499.4,575.5,499.9,576.1,500.7,576.1z"/>
			<path class="st23" d="M511.3,562.8c1.3-0.3,2.1-1.5,1.8-2.9c-0.3-1.3-1.5-2.1-2.9-1.8c-1.3,0.3-2.1,1.5-1.8,2.9
				C508.8,562.4,510,563.1,511.3,562.8z"/>
			<path class="st23" d="M502.5,568.6c0.5,0.2,1.2,0,1.5-0.5l0.9-2.1l1.3-0.4l-1,3.9c-0.1,0.5,0.1,1.1,0.4,1.4l3.8,3.2l1,4.2
				c0.1,0.7,0.8,1,1.3,1c0.1,0,0.2,0,0.3,0c0.8-0.2,1.2-0.9,1-1.6l-1.1-4.6c-0.1-0.3-0.2-0.5-0.4-0.8l-2.4-2l1.3-3.4l1.3,1.5
				c0.2,0.2,0.5,0.4,0.9,0.4c0.2,0,0.4-0.1,0.5-0.2l2.3-1.4c0.5-0.3,0.8-1,0.4-1.5c-0.3-0.5-1-0.8-1.5-0.4l-1.5,0.9l-1.2-1.4
				c-0.3-0.3-0.8-0.7-1.2-0.9l-2.1-0.8c-0.7-0.2-1.3-0.2-1.9,0l-2.6,0.9c-0.3,0.1-0.5,0.3-0.7,0.7l-1.1,2.5
				C501.7,567.7,501.9,568.4,502.5,568.6z"/>
		</g>
	</g>
	<g>
		<g>
			<path class="st22" d="M519.8,158.4l-7.3-2.5c-0.5-0.1-0.8,0.2-0.8,0.7v2h-7c-0.4,0-0.6,0.2-0.6,0.6v2.2c0.5,0.1,0.7,0.2,1.1,0.4
				v-2h6.3v21.9h-4.3l0.1,0.4c0.1,0.4,0.1,0.6,0.1,0.8h4v2c0,0.5,0.5,0.7,0.8,0.7l7.3-2.5c0.4-0.1,0.5-0.4,0.5-0.7v-23.1
				C520.2,158.8,519.9,158.6,519.8,158.4z"/>
			<path class="st22" d="M493.6,180.6h4.6c0.7,0,1.1-0.5,1.3-1l0.5-1.9l-2.2-1.9c0,0,0,0-0.1-0.1l-0.6,2h-3.5
				c-0.7,0-1.4,0.7-1.4,1.4C492.3,180,492.8,180.6,493.6,180.6z"/>
			<path class="st22" d="M504.1,167.4c1.3-0.4,2-1.5,1.8-2.9c-0.3-1.4-1.5-2-2.9-1.8c-1.3,0.4-2,1.5-1.8,2.9
				C501.6,166.9,502.9,167.6,504.1,167.4z"/>
			<path class="st22" d="M495.4,173.2c0.6,0.2,1.2,0,1.5-0.6l0.8-2l1.3-0.5l-1,3.9c-0.1,0.6,0.1,1.1,0.5,1.4l3.8,3.2l1,4.2
				c0.1,0.7,0.7,1,1.3,1c0.1,0,0.2,0,0.4,0c0.7-0.2,1.2-0.8,1-1.7l-1.1-4.6c-0.1-0.4-0.2-0.6-0.5-0.7l-2.4-2l1.3-3.4l1.3,1.5
				c0.2,0.2,0.6,0.5,0.8,0.5c0.2,0,0.5-0.1,0.6-0.2l2.3-1.4c0.6-0.4,0.7-1,0.5-1.5c-0.4-0.6-1-0.7-1.5-0.5l-1.5,0.8l-1.2-1.4
				c-0.4-0.4-0.7-0.7-1.2-0.8l-2-0.7c-0.7-0.2-1.3-0.2-1.9,0l-2.6,0.8c-0.4,0.1-0.6,0.4-0.7,0.7l-1.1,2.5
				C494.6,172.3,494.8,172.9,495.4,173.2z"/>
		</g>
	</g>
	<g>
		<g>
			<path class="st23" d="M519.8,158.4l-7.3-2.5c-0.5-0.1-0.8,0.2-0.8,0.7v2h-7c-0.4,0-0.6,0.2-0.6,0.6v2.2c0.5,0.1,0.7,0.2,1.1,0.4
				v-2h6.3v21.9h-4.3l0.1,0.4c0.1,0.4,0.1,0.6,0.1,0.8h4v2c0,0.5,0.5,0.7,0.8,0.7l7.3-2.5c0.4-0.1,0.5-0.4,0.5-0.7v-23.1
				C520.2,158.8,519.9,158.6,519.8,158.4z"/>
			<path class="st23" d="M493.6,180.6h4.6c0.7,0,1.1-0.5,1.3-1l0.5-1.9l-2.2-1.9c0,0,0,0-0.1-0.1l-0.6,2h-3.5
				c-0.7,0-1.4,0.7-1.4,1.4C492.3,180,492.8,180.6,493.6,180.6z"/>
			<path class="st23" d="M504.1,167.4c1.3-0.4,2-1.5,1.8-2.9c-0.3-1.4-1.5-2-2.9-1.8c-1.3,0.4-2,1.5-1.8,2.9
				C501.6,166.9,502.9,167.6,504.1,167.4z"/>
			<path class="st23" d="M495.4,173.2c0.6,0.2,1.2,0,1.5-0.6l0.8-2l1.3-0.5l-1,3.9c-0.1,0.6,0.1,1.1,0.5,1.4l3.8,3.2l1,4.2
				c0.1,0.7,0.7,1,1.3,1c0.1,0,0.2,0,0.4,0c0.7-0.2,1.2-0.8,1-1.7l-1.1-4.6c-0.1-0.4-0.2-0.6-0.5-0.7l-2.4-2l1.3-3.4l1.3,1.5
				c0.2,0.2,0.6,0.5,0.8,0.5c0.2,0,0.5-0.1,0.6-0.2l2.3-1.4c0.6-0.4,0.7-1,0.5-1.5c-0.4-0.6-1-0.7-1.5-0.5l-1.5,0.8l-1.2-1.4
				c-0.4-0.4-0.7-0.7-1.2-0.8l-2-0.7c-0.7-0.2-1.3-0.2-1.9,0l-2.6,0.8c-0.4,0.1-0.6,0.4-0.7,0.7l-1.1,2.5
				C494.6,172.3,494.8,172.9,495.4,173.2z"/>
		</g>
	</g>
	<g>
		<g>
			<path class="st22" d="M116.9,250l7.2-2.5c0.4-0.1,0.9,0.2,0.9,0.7v2h7c0.3,0,0.5,0.2,0.5,0.5v2.2c-0.4,0.1-0.8,0.2-1.1,0.3v-2
				h-6.4v21.9h4.3l-0.1,0.3c-0.1,0.3-0.1,0.5-0.1,0.9h-4.1v2c0,0.4-0.4,0.8-0.9,0.7l-7.2-2.5c-0.3-0.1-0.4-0.3-0.4-0.7v-23.1
				C116.5,250.3,116.7,250.1,116.9,250z"/>
			<path class="st22" d="M143.1,272.1h-4.6c-0.7,0-1.1-0.4-1.3-1l-0.4-1.9l2.2-1.9c0,0,0,0,0.1-0.1l0.5,2h3.5c0.8,0,1.4,0.7,1.4,1.4
				C144.5,271.6,143.9,272.1,143.1,272.1z"/>
			<path class="st22" d="M132.6,258.9c-1.3-0.3-2.1-1.5-1.8-2.9s1.5-2.1,2.9-1.8c1.3,0.3,2.1,1.5,1.8,2.9S133.8,259.2,132.6,258.9z"
				/>
			<path class="st22" d="M141.4,264.7c-0.5,0.2-1.2,0-1.5-0.5l-0.9-2.1l-1.3-0.4l1,3.9c0.1,0.5-0.1,1.1-0.4,1.4l-3.8,3.2l-1,4.2
				c-0.1,0.7-0.8,1-1.3,1c-0.1,0-0.2,0-0.3,0c-0.8-0.2-1.2-0.9-1-1.6l1.1-4.6c0.1-0.3,0.2-0.5,0.4-0.8l2.4-2l-1.3-3.4l-1.3,1.5
				c-0.2,0.2-0.5,0.4-0.9,0.4c-0.2,0-0.4-0.1-0.5-0.2l-2.3-1.4c-0.5-0.3-0.8-1-0.4-1.5c0.3-0.5,1-0.8,1.5-0.4l1.5,0.9l1.2-1.4
				c0.3-0.3,0.8-0.7,1.2-0.9l2.1-0.8c0.7-0.2,1.3-0.2,1.9,0l2.6,0.9c0.3,0.1,0.5,0.3,0.7,0.7l1.1,2.5
				C142.1,263.8,141.9,264.5,141.4,264.7z"/>
		</g>
	</g>
	<g>
		<g>
			<path class="st23" d="M116.9,250l7.2-2.5c0.4-0.1,0.9,0.2,0.9,0.7v2h7c0.3,0,0.5,0.2,0.5,0.5v2.2c-0.4,0.1-0.8,0.2-1.1,0.3v-2
				h-6.4v21.9h4.3l-0.1,0.3c-0.1,0.3-0.1,0.5-0.1,0.9h-4.1v2c0,0.4-0.4,0.8-0.9,0.7l-7.2-2.5c-0.3-0.1-0.4-0.3-0.4-0.7v-23.1
				C116.5,250.3,116.7,250.1,116.9,250z"/>
			<path class="st23" d="M143.1,272.1h-4.6c-0.7,0-1.1-0.4-1.3-1l-0.4-1.9l2.2-1.9c0,0,0,0,0.1-0.1l0.5,2h3.5c0.8,0,1.4,0.7,1.4,1.4
				C144.5,271.6,143.9,272.1,143.1,272.1z"/>
			<path class="st23" d="M132.6,258.9c-1.3-0.3-2.1-1.5-1.8-2.9s1.5-2.1,2.9-1.8c1.3,0.3,2.1,1.5,1.8,2.9S133.8,259.2,132.6,258.9z"
				/>
			<path class="st23" d="M141.4,264.7c-0.5,0.2-1.2,0-1.5-0.5l-0.9-2.1l-1.3-0.4l1,3.9c0.1,0.5-0.1,1.1-0.4,1.4l-3.8,3.2l-1,4.2
				c-0.1,0.7-0.8,1-1.3,1c-0.1,0-0.2,0-0.3,0c-0.8-0.2-1.2-0.9-1-1.6l1.1-4.6c0.1-0.3,0.2-0.5,0.4-0.8l2.4-2l-1.3-3.4l-1.3,1.5
				c-0.2,0.2-0.5,0.4-0.9,0.4c-0.2,0-0.4-0.1-0.5-0.2l-2.3-1.4c-0.5-0.3-0.8-1-0.4-1.5c0.3-0.5,1-0.8,1.5-0.4l1.5,0.9l1.2-1.4
				c0.3-0.3,0.8-0.7,1.2-0.9l2.1-0.8c0.7-0.2,1.3-0.2,1.9,0l2.6,0.9c0.3,0.1,0.5,0.3,0.7,0.7l1.1,2.5
				C142.1,263.8,141.9,264.5,141.4,264.7z"/>
		</g>
	</g>
	<g>
		<g>
			<path class="st22" d="M116,676.2l7.2-2.5c0.4-0.1,0.9,0.2,0.9,0.7v2h7c0.3,0,0.5,0.2,0.5,0.5v2.2c-0.4,0.1-0.8,0.2-1.1,0.3v-2
				h-6.4v21.9h4.3l-0.1,0.3c-0.1,0.3-0.1,0.5-0.1,0.9h-4.1v2c0,0.4-0.4,0.8-0.9,0.7l-7.2-2.5c-0.3-0.1-0.4-0.3-0.4-0.7v-23.1
				C115.6,676.5,115.8,676.3,116,676.2z"/>
			<path class="st22" d="M142.2,698.4h-4.6c-0.7,0-1.1-0.4-1.3-1l-0.4-1.9l2.2-1.9c0,0,0,0,0.1-0.1l0.5,2h3.5c0.8,0,1.4,0.7,1.4,1.4
				C143.6,697.8,143,698.4,142.2,698.4z"/>
			<path class="st22" d="M131.7,685.1c-1.3-0.3-2.1-1.5-1.8-2.9s1.5-2.1,2.9-1.8c1.3,0.3,2.1,1.5,1.8,2.9
				C134.2,684.7,132.9,685.4,131.7,685.1z"/>
			<path class="st22" d="M140.5,690.9c-0.5,0.2-1.2,0-1.5-0.5l-0.9-2.1l-1.3-0.4l1,3.9c0.1,0.5-0.1,1.1-0.4,1.4l-3.8,3.2l-1,4.2
				c-0.1,0.7-0.8,1-1.3,1c-0.1,0-0.2,0-0.3,0c-0.8-0.2-1.2-0.9-1-1.6l1.1-4.6c0.1-0.3,0.2-0.5,0.4-0.8l2.4-2l-1.3-3.4l-1.3,1.5
				c-0.2,0.2-0.5,0.4-0.9,0.4c-0.2,0-0.4-0.1-0.5-0.2l-2.3-1.4c-0.5-0.3-0.8-1-0.4-1.5c0.3-0.5,1-0.8,1.5-0.4l1.5,0.9l1.2-1.4
				c0.3-0.3,0.8-0.7,1.2-0.9l2.1-0.8c0.7-0.2,1.3-0.2,1.9,0l2.6,0.9c0.3,0.1,0.5,0.3,0.7,0.7l1.1,2.5
				C141.2,690,141,690.7,140.5,690.9z"/>
		</g>
	</g>
	<g>
		<g>
			<path class="st23" d="M116,676.2l7.2-2.5c0.4-0.1,0.9,0.2,0.9,0.7v2h7c0.3,0,0.5,0.2,0.5,0.5v2.2c-0.4,0.1-0.8,0.2-1.1,0.3v-2
				h-6.4v21.9h4.3l-0.1,0.3c-0.1,0.3-0.1,0.5-0.1,0.9h-4.1v2c0,0.4-0.4,0.8-0.9,0.7l-7.2-2.5c-0.3-0.1-0.4-0.3-0.4-0.7v-23.1
				C115.6,676.5,115.8,676.3,116,676.2z"/>
			<path class="st23" d="M142.2,698.4h-4.6c-0.7,0-1.1-0.4-1.3-1l-0.4-1.9l2.2-1.9c0,0,0,0,0.1-0.1l0.5,2h3.5c0.8,0,1.4,0.7,1.4,1.4
				C143.6,697.8,143,698.4,142.2,698.4z"/>
			<path class="st23" d="M131.7,685.1c-1.3-0.3-2.1-1.5-1.8-2.9s1.5-2.1,2.9-1.8c1.3,0.3,2.1,1.5,1.8,2.9
				C134.2,684.7,132.9,685.4,131.7,685.1z"/>
			<path class="st23" d="M140.5,690.9c-0.5,0.2-1.2,0-1.5-0.5l-0.9-2.1l-1.3-0.4l1,3.9c0.1,0.5-0.1,1.1-0.4,1.4l-3.8,3.2l-1,4.2
				c-0.1,0.7-0.8,1-1.3,1c-0.1,0-0.2,0-0.3,0c-0.8-0.2-1.2-0.9-1-1.6l1.1-4.6c0.1-0.3,0.2-0.5,0.4-0.8l2.4-2l-1.3-3.4l-1.3,1.5
				c-0.2,0.2-0.5,0.4-0.9,0.4c-0.2,0-0.4-0.1-0.5-0.2l-2.3-1.4c-0.5-0.3-0.8-1-0.4-1.5c0.3-0.5,1-0.8,1.5-0.4l1.5,0.9l1.2-1.4
				c0.3-0.3,0.8-0.7,1.2-0.9l2.1-0.8c0.7-0.2,1.3-0.2,1.9,0l2.6,0.9c0.3,0.1,0.5,0.3,0.7,0.7l1.1,2.5
				C141.2,690,141,690.7,140.5,690.9z"/>
		</g>
	</g>
</g>
</svg>
