<?xml version="1.0" encoding="utf-8"?>
<!-- Generator: Adobe Illustrator 28.3.0, SVG Export Plug-In . SVG Version: 6.00 Build 0)  -->
<svg version="1.1" id="Layer_1" xmlns="http://www.w3.org/2000/svg" xmlns:xlink="http://www.w3.org/1999/xlink" x="0px" y="0px"
	 viewBox="0 0 684.1 869.6" style="enable-background:new 0 0 684.1 869.6;" xml:space="preserve">
<style type="text/css">
	.st0{fill:none;}
	.st1{fill:#231F20;}
	
		.st2{opacity:0.45;fill:url(#SVGID_00000004543767669679836350000014294999516377654146_);stroke:#C2C4C6;stroke-miterlimit:10;enable-background:new    ;}
	.st3{fill:none;stroke:#000000;stroke-miterlimit:10;}
	
		.st4{opacity:0.45;fill:url(#SVGID_00000110463983178522465560000005542587281506028463_);stroke:#C2C4C6;stroke-miterlimit:10;enable-background:new    ;}
	.st5{fill:none;stroke:#E2E3E4;stroke-miterlimit:10;}
	
		.st6{opacity:0.45;fill:url(#SVGID_00000061469585743388268500000007685338895361754815_);stroke:#ABADB0;stroke-miterlimit:10;enable-background:new    ;}
	.st7{fill:#CAE7F9;stroke:#000000;stroke-width:0.5;stroke-miterlimit:10;enable-background:new    ;}
	
		.st8{opacity:0.45;fill:url(#SVGID_00000049923775974738241990000005603097135525989018_);stroke:#C4C6C8;stroke-miterlimit:10;enable-background:new    ;}
	.st9{fill:none;stroke:#FFFFFF;stroke-miterlimit:10;}
	.st10{opacity:0.45;fill:#71A58E;stroke:#000000;stroke-width:3;stroke-miterlimit:10;enable-background:new    ;}
	.st11{opacity:0.35;fill:#A1BB7E;enable-background:new    ;}
	.st12{display:none;}
	.st13{display:inline;fill:#CCCCFF;stroke:#8F9194;stroke-miterlimit:10;}
	
		.st14{display:inline;opacity:0.45;fill:url(#SVGID_00000170269636893092370290000007187043806813136281_);stroke:#C4C6C8;stroke-miterlimit:10;enable-background:new    ;}
	.st15{display:inline;fill:none;stroke:#FFFFFF;stroke-miterlimit:10;}
	.st16{display:inline;opacity:0.45;fill:#71A58E;stroke:#000000;stroke-width:3;stroke-miterlimit:10;enable-background:new    ;}
	.st17{display:inline;opacity:0.35;fill:#A1BB7E;enable-background:new    ;}
	.st18{fill:#0073A0;stroke:#8F9194;stroke-miterlimit:10;}
	.st19{fill:#FFFFFF;}
	.st20{fill:#0073A0;}
	.st21{fill:#E4F0F9;}
	.st22{opacity:0.4;fill:#1A4363;enable-background:new    ;}
	.st23{fill:#231F20;stroke:#FFFFFF;stroke-width:0.25;stroke-miterlimit:10;}
	.st24{fill:none;stroke:#010101;stroke-width:4;stroke-miterlimit:10;}
	.st25{font-family:'ArialMT';}
	.st26{font-size:18px;}
	.st27{font-size:16px;}
	.st28{font-size:14px;}
	.st29{font-size:12px;}
	.st30{fill:none;stroke:#221F1F;stroke-width:6;stroke-linecap:round;stroke-linejoin:round;}
	.st31{fill:none;stroke:#231F20;stroke-width:6;stroke-linecap:round;stroke-linejoin:round;}
	.st32{fill:none;stroke:#FFFFFF;stroke-width:8;stroke-miterlimit:10;}
	.st33{fill:#C40000;}
	.st34{opacity:0.5;fill:#A1BB7E;enable-background:new    ;}
	.st35{fill:#5197BC;}
	.st36{font-family:'Arial-BoldMT';}
	.st37{font-size:33.4935px;}
</style>
<pattern  y="869.6" width="28.8" height="28.8" patternUnits="userSpaceOnUse" id="SVGID_0000004630178158198650825" viewBox="1.4 -30.2 28.8 28.8" style="overflow:visible;">
	<g>
		<rect x="1.4" y="-30.2" class="st0" width="28.8" height="28.8"/>
		<g>
			<rect x="1.4" y="-30.2" class="st0" width="28.8" height="28.8"/>
			<g>
				<rect x="1.4" y="-30.2" class="st0" width="28.8" height="28.8"/>
				<g>
					<rect x="1.4" y="-30.2" class="st0" width="28.8" height="28.8"/>
					<g>
						<rect x="1.4" y="-30.2" class="st0" width="28.8" height="28.8"/>
						<g>
							<rect x="1.4" y="-30.2" class="st0" width="28.8" height="28.8"/>
							<g>
								<rect x="1.4" y="-30.2" class="st0" width="28.8" height="28.8"/>
								<g>
									<rect x="1.4" y="-30.2" class="st0" width="28.8" height="28.8"/>
									<g>
										<rect x="1.4" y="-30.2" class="st0" width="28.8" height="28.8"/>
										<g>
											<rect x="1.4" y="-30.2" class="st0" width="28.8" height="28.8"/>
											<g>
												<rect x="1.4" y="-30.2" class="st0" width="28.8" height="28.8"/>
												<g>
													<rect x="1.4" y="-30.2" class="st0" width="28.8" height="28.8"/>
													<g>
														<rect x="1.4" y="-30.2" class="st0" width="28.8" height="28.8"/>
														<g>
															<rect x="1.4" y="-30.2" class="st0" width="28.8" height="28.8"/>
															<g>
																<rect x="1.4" y="-30.2" class="st0" width="28.8" height="28.8"/>
																<g>
																	<rect x="1.4" y="-30.2" class="st0" width="28.8" height="28.8"/>
																	<g>
																		<rect x="1.4" y="-30.2" class="st0" width="28.8" height="28.8"/>
																		<g>
																			<rect x="1.4" y="-30.2" class="st0" width="28.8" height="28.8"/>
																			<g>
																				<rect x="1.4" y="-30.2" class="st0" width="28.8" height="28.8"/>
																				<g>
																					<rect x="1.4" y="-30.2" class="st0" width="28.8" height="28.8"/>
																					<g>
																						<rect x="1.4" y="-30.2" class="st0" width="28.8" height="28.8"/>
																						<g>
																							<rect x="1.4" y="-30.2" class="st0" width="28.8" height="28.8"/>
																							<g>
																								<path class="st1" d="M30.2-31.6c0.8,0,1.4,0.6,1.4,1.4c0,0.8-0.6,1.4-1.4,1.4s-1.4-0.6-1.4-1.4
																									C28.8-31,29.4-31.6,30.2-31.6z"/>
																								<path class="st1" d="M15.8-31.6c0.8,0,1.4,0.6,1.4,1.4c0,0.8-0.6,1.4-1.4,1.4c-0.8,0-1.4-0.6-1.4-1.4
																									C14.4-31,15-31.6,15.8-31.6z"/>
																								<path class="st1" d="M30.2-17.2c0.8,0,1.4,0.6,1.4,1.4s-0.6,1.4-1.4,1.4s-1.4-0.6-1.4-1.4
																									C28.8-16.6,29.4-17.2,30.2-17.2z"/>
																								<path class="st1" d="M15.8-17.2c0.8,0,1.4,0.6,1.4,1.4s-0.6,1.4-1.4,1.4c-0.8,0-1.4-0.6-1.4-1.4
																									C14.4-16.6,15-17.2,15.8-17.2z"/>
																								<path class="st1" d="M8.6-24.4c0.8,0,1.4,0.6,1.4,1.4c0,0.8-0.6,1.4-1.4,1.4c-0.8,0-1.4-0.6-1.4-1.4
																									C7.2-23.8,7.8-24.4,8.6-24.4z"/>
																								<path class="st1" d="M23-24.4c0.8,0,1.4,0.6,1.4,1.4c0,0.8-0.6,1.4-1.4,1.4s-1.4-0.6-1.4-1.4
																									S22.2-24.4,23-24.4z"/>
																								<path class="st1" d="M8.6-10C9.4-10,10-9.4,10-8.6S9.4-7.2,8.6-7.2c-0.8,0-1.4-0.6-1.4-1.4
																									C7.2-9.4,7.8-10,8.6-10z"/>
																								<path class="st1" d="M23-10c0.8,0,1.4,0.6,1.4,1.4S23.8-7.2,23-7.2s-1.4-0.6-1.4-1.4S22.2-10,23-10z"/>
																							</g>
																							<g>
																								<path class="st1" d="M1.4-31.6c0.8,0,1.4,0.6,1.4,1.4c0,0.8-0.6,1.4-1.4,1.4C0.6-28.7,0-29.4,0-30.2
																									C0-31,0.6-31.6,1.4-31.6z"/>
																								<path class="st1" d="M1.4-17.2c0.8,0,1.4,0.6,1.4,1.4s-0.6,1.4-1.4,1.4S0-15,0-15.8S0.6-17.2,1.4-17.2z"/>
																							</g>
																							<g>
																								<path class="st1" d="M30.2-2.8c0.8,0,1.4,0.6,1.4,1.4S31,0,30.2,0s-1.4-0.6-1.4-1.4
																									C28.8-2.2,29.4-2.8,30.2-2.8z"/>
																								<path class="st1" d="M15.8-2.8c0.8,0,1.4,0.6,1.4,1.4S16.6,0,15.8,0s-1.4-0.6-1.4-1.4
																									C14.4-2.2,15-2.8,15.8-2.8z"/>
																							</g>
																							<g>
																								<path class="st1" d="M1.4-2.8c0.8,0,1.4,0.6,1.4,1.4S2.2,0,1.4,0C0.6,0.1,0-0.6,0-1.4
																									C0-2.2,0.6-2.8,1.4-2.8z"/>
																							</g>
																						</g>
																					</g>
																				</g>
																			</g>
																		</g>
																	</g>
																</g>
															</g>
														</g>
													</g>
												</g>
											</g>
										</g>
									</g>
								</g>
							</g>
						</g>
					</g>
				</g>
			</g>
		</g>
	</g>
</pattern>
<pattern  y="869.6" width="28.8" height="28.8" patternUnits="userSpaceOnUse" id="SVGID_0000006863671770380844092" viewBox="1.4 -30.2 28.8 28.8" style="overflow:visible;">
	<g>
		<rect x="1.4" y="-30.2" class="st0" width="28.8" height="28.8"/>
		<g>
			<rect x="1.4" y="-30.2" class="st0" width="28.8" height="28.8"/>
			<g>
				<rect x="1.4" y="-30.2" class="st0" width="28.8" height="28.8"/>
				<g>
					<rect x="1.4" y="-30.2" class="st0" width="28.8" height="28.8"/>
					<g>
						<rect x="1.4" y="-30.2" class="st0" width="28.8" height="28.8"/>
						<g>
							<rect x="1.4" y="-30.2" class="st0" width="28.8" height="28.8"/>
							<g>
								<rect x="1.4" y="-30.2" class="st0" width="28.8" height="28.8"/>
								<g>
									<rect x="1.4" y="-30.2" class="st0" width="28.8" height="28.8"/>
									<g>
										<rect x="1.4" y="-30.2" class="st0" width="28.8" height="28.8"/>
										<g>
											<rect x="1.4" y="-30.2" class="st0" width="28.8" height="28.8"/>
											<g>
												<rect x="1.4" y="-30.2" class="st0" width="28.8" height="28.8"/>
												<g>
													<rect x="1.4" y="-30.2" class="st0" width="28.8" height="28.8"/>
													<g>
														<rect x="1.4" y="-30.2" class="st0" width="28.8" height="28.8"/>
														<g>
															<rect x="1.4" y="-30.2" class="st0" width="28.8" height="28.8"/>
															<g>
																<rect x="1.4" y="-30.2" class="st0" width="28.8" height="28.8"/>
																<g>
																	<rect x="1.4" y="-30.2" class="st0" width="28.8" height="28.8"/>
																	<g>
																		<rect x="1.4" y="-30.2" class="st0" width="28.8" height="28.8"/>
																		<g>
																			<rect x="1.4" y="-30.2" class="st0" width="28.8" height="28.8"/>
																			<g>
																				<rect x="1.4" y="-30.2" class="st0" width="28.8" height="28.8"/>
																				<g>
																					<rect x="1.4" y="-30.2" class="st0" width="28.8" height="28.8"/>
																					<g>
																						<rect x="1.4" y="-30.2" class="st0" width="28.8" height="28.8"/>
																						<g>
																							<rect x="1.4" y="-30.2" class="st0" width="28.8" height="28.8"/>
																							<g>
																								<path class="st1" d="M30.2-31.6c0.8,0,1.4,0.6,1.4,1.4c0,0.8-0.6,1.4-1.4,1.4s-1.4-0.6-1.4-1.4
																									C28.8-31,29.4-31.6,30.2-31.6z"/>
																								<path class="st1" d="M15.8-31.6c0.8,0,1.4,0.6,1.4,1.4c0,0.8-0.6,1.4-1.4,1.4c-0.8,0-1.4-0.6-1.4-1.4
																									C14.4-31,15-31.6,15.8-31.6z"/>
																								<path class="st1" d="M30.2-17.2c0.8,0,1.4,0.6,1.4,1.4s-0.6,1.4-1.4,1.4s-1.4-0.6-1.4-1.4
																									C28.8-16.6,29.4-17.2,30.2-17.2z"/>
																								<path class="st1" d="M15.8-17.2c0.8,0,1.4,0.6,1.4,1.4s-0.6,1.4-1.4,1.4c-0.8,0-1.4-0.6-1.4-1.4
																									C14.4-16.6,15-17.2,15.8-17.2z"/>
																								<path class="st1" d="M8.6-24.4c0.8,0,1.4,0.6,1.4,1.4c0,0.8-0.6,1.4-1.4,1.4c-0.8,0-1.4-0.6-1.4-1.4
																									C7.2-23.8,7.8-24.4,8.6-24.4z"/>
																								<path class="st1" d="M23-24.4c0.8,0,1.4,0.6,1.4,1.4c0,0.8-0.6,1.4-1.4,1.4s-1.4-0.6-1.4-1.4
																									S22.2-24.4,23-24.4z"/>
																								<path class="st1" d="M8.6-10C9.4-10,10-9.4,10-8.6S9.4-7.2,8.6-7.2c-0.8,0-1.4-0.6-1.4-1.4
																									C7.2-9.4,7.8-10,8.6-10z"/>
																								<path class="st1" d="M23-10c0.8,0,1.4,0.6,1.4,1.4S23.8-7.2,23-7.2s-1.4-0.6-1.4-1.4S22.2-10,23-10z"/>
																							</g>
																							<g>
																								<path class="st1" d="M1.4-31.6c0.8,0,1.4,0.6,1.4,1.4c0,0.8-0.6,1.4-1.4,1.4C0.6-28.7,0-29.4,0-30.2
																									C0-31,0.6-31.6,1.4-31.6z"/>
																								<path class="st1" d="M1.4-17.2c0.8,0,1.4,0.6,1.4,1.4s-0.6,1.4-1.4,1.4S0-15,0-15.8S0.6-17.2,1.4-17.2z"/>
																							</g>
																							<g>
																								<path class="st1" d="M30.2-2.8c0.8,0,1.4,0.6,1.4,1.4S31,0,30.2,0s-1.4-0.6-1.4-1.4
																									C28.8-2.2,29.4-2.8,30.2-2.8z"/>
																								<path class="st1" d="M15.8-2.8c0.8,0,1.4,0.6,1.4,1.4S16.6,0,15.8,0s-1.4-0.6-1.4-1.4
																									C14.4-2.2,15-2.8,15.8-2.8z"/>
																							</g>
																							<g>
																								<path class="st1" d="M1.4-2.8c0.8,0,1.4,0.6,1.4,1.4S2.2,0,1.4,0C0.6,0.1,0-0.6,0-1.4
																									C0-2.2,0.6-2.8,1.4-2.8z"/>
																							</g>
																						</g>
																					</g>
																				</g>
																			</g>
																		</g>
																	</g>
																</g>
															</g>
														</g>
													</g>
												</g>
											</g>
										</g>
									</g>
								</g>
							</g>
						</g>
					</g>
				</g>
			</g>
		</g>
	</g>
</pattern>
<pattern  y="869.6" width="28.8" height="28.8" patternUnits="userSpaceOnUse" id="SVGID_0000008089649651458121520" viewBox="1.4 -30.2 28.8 28.8" style="overflow:visible;">
	<g>
		<rect x="1.4" y="-30.2" class="st0" width="28.8" height="28.8"/>
		<g>
			<rect x="1.4" y="-30.2" class="st0" width="28.8" height="28.8"/>
			<g>
				<rect x="1.4" y="-30.2" class="st0" width="28.8" height="28.8"/>
				<g>
					<rect x="1.4" y="-30.2" class="st0" width="28.8" height="28.8"/>
					<g>
						<rect x="1.4" y="-30.2" class="st0" width="28.8" height="28.8"/>
						<g>
							<rect x="1.4" y="-30.2" class="st0" width="28.8" height="28.8"/>
							<g>
								<rect x="1.4" y="-30.2" class="st0" width="28.8" height="28.8"/>
								<g>
									<rect x="1.4" y="-30.2" class="st0" width="28.8" height="28.8"/>
									<g>
										<rect x="1.4" y="-30.2" class="st0" width="28.8" height="28.8"/>
										<g>
											<rect x="1.4" y="-30.2" class="st0" width="28.8" height="28.8"/>
											<g>
												<rect x="1.4" y="-30.2" class="st0" width="28.8" height="28.8"/>
												<g>
													<rect x="1.4" y="-30.2" class="st0" width="28.8" height="28.8"/>
													<g>
														<rect x="1.4" y="-30.2" class="st0" width="28.8" height="28.8"/>
														<g>
															<rect x="1.4" y="-30.2" class="st0" width="28.8" height="28.8"/>
															<g>
																<rect x="1.4" y="-30.2" class="st0" width="28.8" height="28.8"/>
																<g>
																	<rect x="1.4" y="-30.2" class="st0" width="28.8" height="28.8"/>
																	<g>
																		<rect x="1.4" y="-30.2" class="st0" width="28.8" height="28.8"/>
																		<g>
																			<rect x="1.4" y="-30.2" class="st0" width="28.8" height="28.8"/>
																			<g>
																				<rect x="1.4" y="-30.2" class="st0" width="28.8" height="28.8"/>
																				<g>
																					<rect x="1.4" y="-30.2" class="st0" width="28.8" height="28.8"/>
																					<g>
																						<rect x="1.4" y="-30.2" class="st0" width="28.8" height="28.8"/>
																						<g>
																							<rect x="1.4" y="-30.2" class="st0" width="28.8" height="28.8"/>
																							<g>
																								<path class="st1" d="M30.2-31.6c0.8,0,1.4,0.6,1.4,1.4c0,0.8-0.6,1.4-1.4,1.4s-1.4-0.6-1.4-1.4
																									C28.8-31,29.4-31.6,30.2-31.6z"/>
																								<path class="st1" d="M15.8-31.6c0.8,0,1.4,0.6,1.4,1.4c0,0.8-0.6,1.4-1.4,1.4c-0.8,0-1.4-0.6-1.4-1.4
																									C14.4-31,15-31.6,15.8-31.6z"/>
																								<path class="st1" d="M30.2-17.2c0.8,0,1.4,0.6,1.4,1.4s-0.6,1.4-1.4,1.4s-1.4-0.6-1.4-1.4
																									C28.8-16.6,29.4-17.2,30.2-17.2z"/>
																								<path class="st1" d="M15.8-17.2c0.8,0,1.4,0.6,1.4,1.4s-0.6,1.4-1.4,1.4c-0.8,0-1.4-0.6-1.4-1.4
																									C14.4-16.6,15-17.2,15.8-17.2z"/>
																								<path class="st1" d="M8.6-24.4c0.8,0,1.4,0.6,1.4,1.4c0,0.8-0.6,1.4-1.4,1.4c-0.8,0-1.4-0.6-1.4-1.4
																									C7.2-23.8,7.8-24.4,8.6-24.4z"/>
																								<path class="st1" d="M23-24.4c0.8,0,1.4,0.6,1.4,1.4c0,0.8-0.6,1.4-1.4,1.4s-1.4-0.6-1.4-1.4
																									S22.2-24.4,23-24.4z"/>
																								<path class="st1" d="M8.6-10C9.4-10,10-9.4,10-8.6S9.4-7.2,8.6-7.2c-0.8,0-1.4-0.6-1.4-1.4
																									C7.2-9.4,7.8-10,8.6-10z"/>
																								<path class="st1" d="M23-10c0.8,0,1.4,0.6,1.4,1.4S23.8-7.2,23-7.2s-1.4-0.6-1.4-1.4S22.2-10,23-10z"/>
																							</g>
																							<g>
																								<path class="st1" d="M1.4-31.6c0.8,0,1.4,0.6,1.4,1.4c0,0.8-0.6,1.4-1.4,1.4C0.6-28.7,0-29.4,0-30.2
																									C0-31,0.6-31.6,1.4-31.6z"/>
																								<path class="st1" d="M1.4-17.2c0.8,0,1.4,0.6,1.4,1.4s-0.6,1.4-1.4,1.4S0-15,0-15.8S0.6-17.2,1.4-17.2z"/>
																							</g>
																							<g>
																								<path class="st1" d="M30.2-2.8c0.8,0,1.4,0.6,1.4,1.4S31,0,30.2,0s-1.4-0.6-1.4-1.4
																									C28.8-2.2,29.4-2.8,30.2-2.8z"/>
																								<path class="st1" d="M15.8-2.8c0.8,0,1.4,0.6,1.4,1.4S16.6,0,15.8,0s-1.4-0.6-1.4-1.4
																									C14.4-2.2,15-2.8,15.8-2.8z"/>
																							</g>
																							<g>
																								<path class="st1" d="M1.4-2.8c0.8,0,1.4,0.6,1.4,1.4S2.2,0,1.4,0C0.6,0.1,0-0.6,0-1.4
																									C0-2.2,0.6-2.8,1.4-2.8z"/>
																							</g>
																						</g>
																					</g>
																				</g>
																			</g>
																		</g>
																	</g>
																</g>
															</g>
														</g>
													</g>
												</g>
											</g>
										</g>
									</g>
								</g>
							</g>
						</g>
					</g>
				</g>
			</g>
		</g>
	</g>
</pattern>
<pattern  y="869.6" width="28.8" height="28.8" patternUnits="userSpaceOnUse" id="SVGID_0000017892323374627521070" viewBox="1.4 -30.2 28.8 28.8" style="overflow:visible;">
	<g>
		<rect x="1.4" y="-30.2" class="st0" width="28.8" height="28.8"/>
		<g>
			<rect x="1.4" y="-30.2" class="st0" width="28.8" height="28.8"/>
			<g>
				<rect x="1.4" y="-30.2" class="st0" width="28.8" height="28.8"/>
				<g>
					<rect x="1.4" y="-30.2" class="st0" width="28.8" height="28.8"/>
					<g>
						<rect x="1.4" y="-30.2" class="st0" width="28.8" height="28.8"/>
						<g>
							<rect x="1.4" y="-30.2" class="st0" width="28.8" height="28.8"/>
							<g>
								<rect x="1.4" y="-30.2" class="st0" width="28.8" height="28.8"/>
								<g>
									<rect x="1.4" y="-30.2" class="st0" width="28.8" height="28.8"/>
									<g>
										<rect x="1.4" y="-30.2" class="st0" width="28.8" height="28.8"/>
										<g>
											<rect x="1.4" y="-30.2" class="st0" width="28.8" height="28.8"/>
											<g>
												<rect x="1.4" y="-30.2" class="st0" width="28.8" height="28.8"/>
												<g>
													<rect x="1.4" y="-30.2" class="st0" width="28.8" height="28.8"/>
													<g>
														<rect x="1.4" y="-30.2" class="st0" width="28.8" height="28.8"/>
														<g>
															<rect x="1.4" y="-30.2" class="st0" width="28.8" height="28.8"/>
															<g>
																<rect x="1.4" y="-30.2" class="st0" width="28.8" height="28.8"/>
																<g>
																	<rect x="1.4" y="-30.2" class="st0" width="28.8" height="28.8"/>
																	<g>
																		<rect x="1.4" y="-30.2" class="st0" width="28.8" height="28.8"/>
																		<g>
																			<rect x="1.4" y="-30.2" class="st0" width="28.8" height="28.8"/>
																			<g>
																				<rect x="1.4" y="-30.2" class="st0" width="28.8" height="28.8"/>
																				<g>
																					<rect x="1.4" y="-30.2" class="st0" width="28.8" height="28.8"/>
																					<g>
																						<rect x="1.4" y="-30.2" class="st0" width="28.8" height="28.8"/>
																						<g>
																							<rect x="1.4" y="-30.2" class="st0" width="28.8" height="28.8"/>
																							<g>
																								<path class="st1" d="M30.2-31.6c0.8,0,1.4,0.6,1.4,1.4c0,0.8-0.6,1.4-1.4,1.4s-1.4-0.6-1.4-1.4
																									C28.8-31,29.4-31.6,30.2-31.6z"/>
																								<path class="st1" d="M15.8-31.6c0.8,0,1.4,0.6,1.4,1.4c0,0.8-0.6,1.4-1.4,1.4c-0.8,0-1.4-0.6-1.4-1.4
																									C14.4-31,15-31.6,15.8-31.6z"/>
																								<path class="st1" d="M30.2-17.2c0.8,0,1.4,0.6,1.4,1.4s-0.6,1.4-1.4,1.4s-1.4-0.6-1.4-1.4
																									C28.8-16.6,29.4-17.2,30.2-17.2z"/>
																								<path class="st1" d="M15.8-17.2c0.8,0,1.4,0.6,1.4,1.4s-0.6,1.4-1.4,1.4c-0.8,0-1.4-0.6-1.4-1.4
																									C14.4-16.6,15-17.2,15.8-17.2z"/>
																								<path class="st1" d="M8.6-24.4c0.8,0,1.4,0.6,1.4,1.4c0,0.8-0.6,1.4-1.4,1.4c-0.8,0-1.4-0.6-1.4-1.4
																									C7.2-23.8,7.8-24.4,8.6-24.4z"/>
																								<path class="st1" d="M23-24.4c0.8,0,1.4,0.6,1.4,1.4c0,0.8-0.6,1.4-1.4,1.4s-1.4-0.6-1.4-1.4
																									S22.2-24.4,23-24.4z"/>
																								<path class="st1" d="M8.6-10C9.4-10,10-9.4,10-8.6S9.4-7.2,8.6-7.2c-0.8,0-1.4-0.6-1.4-1.4
																									C7.2-9.4,7.8-10,8.6-10z"/>
																								<path class="st1" d="M23-10c0.8,0,1.4,0.6,1.4,1.4S23.8-7.2,23-7.2s-1.4-0.6-1.4-1.4S22.2-10,23-10z"/>
																							</g>
																							<g>
																								<path class="st1" d="M1.4-31.6c0.8,0,1.4,0.6,1.4,1.4c0,0.8-0.6,1.4-1.4,1.4C0.6-28.7,0-29.4,0-30.2
																									C0-31,0.6-31.6,1.4-31.6z"/>
																								<path class="st1" d="M1.4-17.2c0.8,0,1.4,0.6,1.4,1.4s-0.6,1.4-1.4,1.4S0-15,0-15.8S0.6-17.2,1.4-17.2z"/>
																							</g>
																							<g>
																								<path class="st1" d="M30.2-2.8c0.8,0,1.4,0.6,1.4,1.4S31,0,30.2,0s-1.4-0.6-1.4-1.4
																									C28.8-2.2,29.4-2.8,30.2-2.8z"/>
																								<path class="st1" d="M15.8-2.8c0.8,0,1.4,0.6,1.4,1.4S16.6,0,15.8,0s-1.4-0.6-1.4-1.4
																									C14.4-2.2,15-2.8,15.8-2.8z"/>
																							</g>
																							<g>
																								<path class="st1" d="M1.4-2.8c0.8,0,1.4,0.6,1.4,1.4S2.2,0,1.4,0C0.6,0.1,0-0.6,0-1.4
																									C0-2.2,0.6-2.8,1.4-2.8z"/>
																							</g>
																						</g>
																					</g>
																				</g>
																			</g>
																		</g>
																	</g>
																</g>
															</g>
														</g>
													</g>
												</g>
											</g>
										</g>
									</g>
								</g>
							</g>
						</g>
					</g>
				</g>
			</g>
		</g>
	</g>
</pattern>
<pattern  y="869.6" width="28.8" height="28.8" patternUnits="userSpaceOnUse" id="SVGID_1_" viewBox="1.4 -30.2 28.8 28.8" style="overflow:visible;">
	<g>
		<rect x="1.4" y="-30.2" class="st0" width="28.8" height="28.8"/>
		<g>
			<rect x="1.4" y="-30.2" class="st0" width="28.8" height="28.8"/>
			<g>
				<rect x="1.4" y="-30.2" class="st0" width="28.8" height="28.8"/>
				<g>
					<rect x="1.4" y="-30.2" class="st0" width="28.8" height="28.8"/>
					<g>
						<rect x="1.4" y="-30.2" class="st0" width="28.8" height="28.8"/>
						<g>
							<rect x="1.4" y="-30.2" class="st0" width="28.8" height="28.8"/>
							<g>
								<rect x="1.4" y="-30.2" class="st0" width="28.8" height="28.8"/>
								<g>
									<rect x="1.4" y="-30.2" class="st0" width="28.8" height="28.8"/>
									<g>
										<rect x="1.4" y="-30.2" class="st0" width="28.8" height="28.8"/>
										<g>
											<rect x="1.4" y="-30.2" class="st0" width="28.8" height="28.8"/>
											<g>
												<rect x="1.4" y="-30.2" class="st0" width="28.8" height="28.8"/>
												<g>
													<rect x="1.4" y="-30.2" class="st0" width="28.8" height="28.8"/>
													<g>
														<rect x="1.4" y="-30.2" class="st0" width="28.8" height="28.8"/>
														<g>
															<rect x="1.4" y="-30.2" class="st0" width="28.8" height="28.8"/>
															<g>
																<rect x="1.4" y="-30.2" class="st0" width="28.8" height="28.8"/>
																<g>
																	<rect x="1.4" y="-30.2" class="st0" width="28.8" height="28.8"/>
																	<g>
																		<rect x="1.4" y="-30.2" class="st0" width="28.8" height="28.8"/>
																		<g>
																			<rect x="1.4" y="-30.2" class="st0" width="28.8" height="28.8"/>
																			<g>
																				<rect x="1.4" y="-30.2" class="st0" width="28.8" height="28.8"/>
																				<g>
																					<rect x="1.4" y="-30.2" class="st0" width="28.8" height="28.8"/>
																					<g>
																						<rect x="1.4" y="-30.2" class="st0" width="28.8" height="28.8"/>
																						<g>
																							<rect x="1.4" y="-30.2" class="st0" width="28.8" height="28.8"/>
																							<g>
																								<path class="st1" d="M30.2-31.6c0.8,0,1.4,0.6,1.4,1.4c0,0.8-0.6,1.4-1.4,1.4s-1.4-0.6-1.4-1.4
																									C28.8-31,29.4-31.6,30.2-31.6z"/>
																								<path class="st1" d="M15.8-31.6c0.8,0,1.4,0.6,1.4,1.4c0,0.8-0.6,1.4-1.4,1.4c-0.8,0-1.4-0.6-1.4-1.4
																									C14.4-31,15-31.6,15.8-31.6z"/>
																								<path class="st1" d="M30.2-17.2c0.8,0,1.4,0.6,1.4,1.4s-0.6,1.4-1.4,1.4s-1.4-0.6-1.4-1.4
																									C28.8-16.6,29.4-17.2,30.2-17.2z"/>
																								<path class="st1" d="M15.8-17.2c0.8,0,1.4,0.6,1.4,1.4s-0.6,1.4-1.4,1.4c-0.8,0-1.4-0.6-1.4-1.4
																									C14.4-16.6,15-17.2,15.8-17.2z"/>
																								<path class="st1" d="M8.6-24.4c0.8,0,1.4,0.6,1.4,1.4c0,0.8-0.6,1.4-1.4,1.4c-0.8,0-1.4-0.6-1.4-1.4
																									C7.2-23.8,7.8-24.4,8.6-24.4z"/>
																								<path class="st1" d="M23-24.4c0.8,0,1.4,0.6,1.4,1.4c0,0.8-0.6,1.4-1.4,1.4s-1.4-0.6-1.4-1.4
																									S22.2-24.4,23-24.4z"/>
																								<path class="st1" d="M8.6-10C9.4-10,10-9.4,10-8.6S9.4-7.2,8.6-7.2c-0.8,0-1.4-0.6-1.4-1.4
																									C7.2-9.4,7.8-10,8.6-10z"/>
																								<path class="st1" d="M23-10c0.8,0,1.4,0.6,1.4,1.4S23.8-7.2,23-7.2s-1.4-0.6-1.4-1.4S22.2-10,23-10z"/>
																							</g>
																							<g>
																								<path class="st1" d="M1.4-31.6c0.8,0,1.4,0.6,1.4,1.4c0,0.8-0.6,1.4-1.4,1.4C0.6-28.7,0-29.4,0-30.2
																									C0-31,0.6-31.6,1.4-31.6z"/>
																								<path class="st1" d="M1.4-17.2c0.8,0,1.4,0.6,1.4,1.4s-0.6,1.4-1.4,1.4S0-15,0-15.8S0.6-17.2,1.4-17.2z"/>
																							</g>
																							<g>
																								<path class="st1" d="M30.2-2.8c0.8,0,1.4,0.6,1.4,1.4S31,0,30.2,0s-1.4-0.6-1.4-1.4
																									C28.8-2.2,29.4-2.8,30.2-2.8z"/>
																								<path class="st1" d="M15.8-2.8c0.8,0,1.4,0.6,1.4,1.4S16.6,0,15.8,0s-1.4-0.6-1.4-1.4
																									C14.4-2.2,15-2.8,15.8-2.8z"/>
																							</g>
																							<g>
																								<path class="st1" d="M1.4-2.8c0.8,0,1.4,0.6,1.4,1.4S2.2,0,1.4,0C0.6,0.1,0-0.6,0-1.4
																									C0-2.2,0.6-2.8,1.4-2.8z"/>
																							</g>
																						</g>
																					</g>
																				</g>
																			</g>
																		</g>
																	</g>
																</g>
															</g>
														</g>
													</g>
												</g>
											</g>
										</g>
									</g>
								</g>
							</g>
						</g>
					</g>
				</g>
			</g>
		</g>
	</g>
</pattern>
<g id="employee_areas">
	
		<pattern  id="SVGID_00000160872244024748894790000001017163249497719205_" xlink:href="#SVGID_1_" patternTransform="matrix(1 0 0 -1 -382.6 -225524.7344)">
	</pattern>
	
		<polygon style="opacity:0.45;fill:url(#SVGID_00000160872244024748894790000001017163249497719205_);stroke:#C2C4C6;stroke-miterlimit:10;enable-background:new    ;" points="
		116.7,621.9 117.3,687.9 205.7,687.8 206,561.4 123.7,561.5 125.2,427.8 70.4,427.1 4.9,564.6 	"/>
	<line class="st3" x1="525.1" y1="668.5" x2="525.2" y2="587"/>
	
		<pattern  id="SVGID_00000078005429238272894950000011572609158461140897_" xlink:href="#SVGID_0000017892323374627521070" patternTransform="matrix(1 0 0 -1 -382.6 -225524.7344)">
	</pattern>
	
		<polyline style="opacity:0.45;fill:url(#SVGID_00000078005429238272894950000011572609158461140897_);stroke:#C2C4C6;stroke-miterlimit:10;enable-background:new    ;" points="
		468.6,610.7 468.7,582.9 424.8,582.9 424.6,610.5 424.7,610.2 469,610.1 	"/>
	<line class="st5" x1="469" y1="582.9" x2="480.7" y2="582.9"/>
	
		<pattern  id="SVGID_00000097481651903389790470000013528649666959968938_" xlink:href="#SVGID_0000008089649651458121520" patternTransform="matrix(1 0 0 -1 -211.6 -190247.7812)">
	</pattern>
	
		<polygon style="opacity:0.45;fill:url(#SVGID_00000097481651903389790470000013528649666959968938_);stroke:#ABADB0;stroke-miterlimit:10;enable-background:new    ;" points="
		523,262.5 438.1,262.6 438.2,176.8 522.9,176.8 	"/>
</g>
<g id="spaces">
	<polyline id="_x32_25_00000116235876951198584460000015863712647643009706_" class="st7" points="283.7,862.1 283.6,716.6 
		266.2,704.9 119.1,704.6 119.3,785.4 283.6,863.7 	"/>
	<polygon id="_x32_55_00000171711371533934043890000005027550862519950216_" class="st7" points="272.4,688.1 282.8,676.6 
		282.7,582.9 207.1,583.3 207,687.5 	"/>
	<polygon id="_x32_13_00000036249146119411855670000018268131171449101442_" class="st7" points="441.7,759.6 459.2,759.7 
		459.2,771.9 524.8,772.4 525.1,668.5 441.6,668.2 	"/>
	<polygon id="_x32_17-219_00000003071105624623675260000009780586777286281396_" class="st7" points="362.9,725.3 362.6,582.9 
		425.3,582.9 424.9,753 	"/>
	
		<pattern  id="SVGID_00000126288255681894074460000016631564418747180946_" xlink:href="#SVGID_0000006863671770380844092" patternTransform="matrix(1 0 0 -1 -382.6 -225524.7344)">
	</pattern>
	
		<polygon style="opacity:0.45;fill:url(#SVGID_00000126288255681894074460000016631564418747180946_);stroke:#C4C6C8;stroke-miterlimit:10;enable-background:new    ;" points="
		458.6,772.3 450.9,780.8 524.2,815.5 524.5,772.4 	"/>
	<line id="line_btw_217_x26_219" class="st9" x1="362.7" y1="669.2" x2="425" y2="669.1"/>
	<polygon id="ATC_00000124144310135758618090000017541423169651988360_" class="st10" points="680.7,101.1 585.7,298.6 523.5,298.7 
		524.5,86.7 574.4,83.8 587.2,99.3 	"/>
	<polygon class="st11" points="584.6,301.6 584.6,299.6 464.1,299.6 464.1,344.4 563.7,344.4 	"/>
</g>
<g id="spaces_with_outlines" class="st12">
	<polyline id="_x32_25_00000008143025106953355290000008516370702304022935_" class="st13" points="283.7,862.1 283.6,716.6 
		266.2,704.9 119.1,704.6 119.3,785.4 283.6,863.7 	"/>
	<polygon id="_x32_55_00000104675695235334659090000016857969860619294099_" class="st13" points="272.4,688.1 282.8,676.6 
		282.7,582.9 207.1,583.3 207,687.5 	"/>
	<polygon id="_x32_13_00000156578744245919677660000008888243239382129053_" class="st13" points="441.7,759.6 459.2,759.7 
		459.2,771.9 524.8,772.4 525.1,668.5 441.6,668.2 	"/>
	<polygon id="_x32_17-219_00000019636335057385402900000010578644900749994649_" class="st13" points="362.9,725.3 362.6,582.9 
		425.3,582.9 424.9,753 	"/>
	
		<pattern  id="SVGID_00000062154240179068308790000008019785420652391311_" xlink:href="#SVGID_0000004630178158198650825" patternTransform="matrix(1 0 0 -1 -382.6 -225524.7344)">
	</pattern>
	
		<polygon style="display:inline;opacity:0.45;fill:url(#SVGID_00000062154240179068308790000008019785420652391311_);stroke:#C4C6C8;stroke-miterlimit:10;enable-background:new    ;" points="
		458.6,772.3 450.9,780.8 524.2,815.5 524.5,772.4 	"/>
	
		<line id="line_btw_217_x26_219_00000173849960099263999380000014974320311045558967_" class="st15" x1="362.7" y1="669.2" x2="425" y2="669.1"/>
	<polygon id="ATC_00000065772102867716056730000008120096759774794117_" class="st16" points="680.7,101.1 585.7,298.6 523.5,298.7 
		524.5,86.7 574.4,83.8 587.2,99.3 	"/>
	<polygon class="st17" points="584.6,301.6 584.6,299.6 464.1,299.6 464.1,344.4 563.7,344.4 	"/>
</g>
<g id="restroom">
	<polygon class="st18" points="441.7,668.5 441.6,638.2 458.6,638.1 458.6,624.4 481,624.4 481.2,582.9 521.8,583.1 523.7,668.2 	
		"/>
	<path class="st19" d="M505.4,633.2c1.2,0,2.1-0.9,2.1-2.1s-0.9-2.1-2.1-2.1s-2.1,0.9-2.1,2.1C503.1,632.3,504.2,633.2,505.4,633.2z
		"/>
	<path class="st19" d="M511.1,641.6l-1.8-6.3c-0.4-1.2-1.3-1.6-2.6-1.6l0,0h-2.9l0,0c-1.3,0-2.1,0.4-2.6,1.6l-1.8,6.3
		c-0.1,0.4,0.1,0.8,0.7,0.9c0.4,0.1,0.9-0.1,1-0.5l1.6-5.5h0.4l-2.7,9.6h2.6v6.8c0,0.5,0.5,1,1,1s1-0.5,1-1v-6.8h0.5v6.8
		c0,0.5,0.5,1,1,1s1-0.5,1-1v-6.8h2.6l-2.7-9.6h0.4l1.6,5.5c0.1,0.4,0.5,0.7,1,0.5C511,642.4,511.3,642,511.1,641.6z"/>
	<path class="st19" d="M484,633.2c1.2,0,2.1-0.9,2.1-2.1s-0.9-2.1-2.1-2.1s-2.1,0.9-2.1,2.1C481.8,632.3,482.9,633.2,484,633.2z"/>
	<path class="st19" d="M486.8,633.8h-5.5c-1.3,0-2.4,1-2.4,2.4v6.7c0,0.5,0.4,0.9,0.9,0.9s0.9-0.4,0.9-0.9V637h0.5v6.8v9.2
		c0,0.7,0.5,1.2,1.2,1.2s1.2-0.5,1.2-1.2v-9.2h0.5v9.2c0,0.7,0.5,1.2,1.2,1.2s1.2-0.5,1.2-1.2v-9.2V637h0.5v5.9
		c0,0.5,0.4,0.9,0.9,0.9s0.9-0.4,0.9-0.9v-6.7C489.1,634.8,488.1,633.8,486.8,633.8z"/>
	<rect x="494" y="629" class="st19" width="2.4" height="24.9"/>
	<rect x="122.4" y="170.2" class="st20" width="73.1" height="75.5"/>
	<path class="st19" d="M169.6,197.7c1.2,0,2.1-0.9,2.1-2.1c0-1.2-0.9-2.1-2.1-2.1c-1.2,0-2.1,0.9-2.1,2.1
		C167.3,196.8,168.4,197.7,169.6,197.7z"/>
	<path class="st19" d="M175.3,206.1l-1.8-6.3c-0.4-1.2-1.3-1.6-2.6-1.6l0,0H168l0,0c-1.3,0-2.1,0.4-2.6,1.6l-1.8,6.3
		c-0.1,0.4,0.1,0.8,0.7,0.9c0.4,0.1,0.9-0.1,1-0.5l1.6-5.5h0.4l-2.7,9.6h2.6v6.8c0,0.5,0.5,1,1,1s1-0.5,1-1v-6.8h0.5v6.8
		c0,0.5,0.5,1,1,1s1-0.5,1-1v-6.8h2.6l-2.7-9.6h0.4l1.6,5.5c0.1,0.4,0.5,0.7,1,0.5C175.2,206.9,175.5,206.5,175.3,206.1z"/>
	<path class="st19" d="M148.2,197.7c1.2,0,2.1-0.9,2.1-2.1c0-1.2-0.9-2.1-2.1-2.1s-2.1,0.9-2.1,2.1
		C146,196.8,147.1,197.7,148.2,197.7z"/>
	<path class="st19" d="M151,198.3h-5.5c-1.3,0-2.4,1-2.4,2.4v6.7c0,0.5,0.4,0.9,0.9,0.9s0.9-0.4,0.9-0.9v-5.9h0.5v6.8v9.2
		c0,0.7,0.5,1.2,1.2,1.2s1.2-0.5,1.2-1.2v-9.2h0.5v9.2c0,0.7,0.5,1.2,1.2,1.2s1.2-0.5,1.2-1.2v-9.2v-6.8h0.5v5.9
		c0,0.5,0.4,0.9,0.9,0.9s0.9-0.4,0.9-0.9v-6.7C153.3,199.3,152.3,198.3,151,198.3z"/>
	<rect x="158.2" y="193.5" class="st19" width="2.4" height="24.9"/>
</g>
<polygon id="atrium" class="st21" points="282.1,343.9 358.6,343.2 358.2,497.1 281.6,497.7 "/>
<g id="escalator_00000091716072017625956250000001553014480789666982_">
	<rect x="364.5" y="425.9" class="st22" width="34" height="107.7"/>
	<g>
		<g>
			<g>
				<path class="st23" d="M378.3,464.7c1.6,0,2.8-1.4,2.8-2.8c0-1.6-1.4-2.8-2.8-2.8c-1.6,0-2.8,1.4-2.8,2.8
					C375.4,463.3,376.8,464.7,378.3,464.7z"/>
				<path class="st23" d="M381.4,468.6c0-1.6-1.4-3-3-3s-3,1.4-3,3v6.8l6-6V468.6L381.4,468.6z"/>
				<path class="st23" d="M392,467.7h-5.3c-0.9,0-1.7,0.4-2.4,1.1l-9.3,9.3h-4.1c-1.9,0-3.4,1.6-3.4,3.4c0,1.9,1.6,3.4,3.4,3.4h5.6
					c0.9,0,1.7-0.4,2.4-1.1l9.3-9.3h3.8c1.9,0,3.4-1.6,3.4-3.4C395.3,469.2,393.9,467.7,392,467.7z"/>
			</g>
			<g>
				<path class="st23" d="M391.5,479.7c0.3,0,0.5,0.1,0.4,0.4L391,485c0,0.3-0.3,0.4-0.4,0.5c-0.3,0.1-0.4,0.1-0.5,0l-0.5-0.5
					l-3.6,3.6c-0.3,0.3-0.7,0.3-0.8,0.1l-2.5-2.5c-0.1-0.1-0.1-0.5,0.1-0.8l3.6-3.6l-0.5-0.5c-0.1-0.1-0.1-0.4,0-0.5
					c0.1-0.3,0.4-0.4,0.5-0.4L391.5,479.7z"/>
			</g>
		</g>
	</g>
</g>
<g id="elevator">
	
		<rect x="441.2" y="430" transform="matrix(1.787220e-03 -1 1 1.787220e-03 10.9606 887.9165)" class="st22" width="18.1" height="16.9"/>
	
		<rect x="440.9" y="454.9" transform="matrix(1.787220e-03 -1 1 1.787220e-03 -14.1936 912.4333)" class="st22" width="18.1" height="16.9"/>
	
		<rect x="441" y="504.1" transform="matrix(1.787220e-03 -1 1 1.787220e-03 -63.3353 961.646)" class="st22" width="18.1" height="16.9"/>
	
		<rect x="441.2" y="529.1" transform="matrix(1.787220e-03 -1 1 1.787220e-03 -88.1121 986.8466)" class="st22" width="18.1" height="16.9"/>
	<line class="st24" x1="463.1" y1="426.8" x2="463.1" y2="555.1"/>
	<g>
		<g>
			<path class="st1" d="M446.1,474.5c-0.2-0.2-0.4-0.3-0.6-0.3s-0.5,0.1-0.6,0.3c-0.5,0.5-1.4,1.4-2.7,2.7c-0.4,0.4-0.4,1,0,1.3
				c0.3,0.3,0.9,0.3,1.2,0l1.1-1.1v3.5c0,0.5,0.4,0.9,0.9,0.9h0.1c0.5,0,0.9-0.4,0.9-0.9v-3.5l1.1,1.1c0.3,0.3,0.9,0.3,1.2,0l0,0
				c0.3-0.3,0.3-0.9,0-1.2C447.4,475.8,446.7,475.1,446.1,474.5z"/>
			<path class="st1" d="M453.9,481.5c0.2,0.2,0.4,0.3,0.6,0.3s0.5-0.1,0.6-0.3c0.5-0.5,1.4-1.4,2.7-2.7c0.4-0.4,0.4-1,0-1.3
				c-0.3-0.3-0.9-0.3-1.2,0l-1.1,1.1v-3.5c0-0.5-0.4-0.9-0.9-0.9h-0.1c-0.5,0-0.9,0.4-0.9,0.9v3.5l-1.1-1.1c-0.3-0.3-0.9-0.3-1.2,0
				l0,0c-0.3,0.3-0.3,0.9,0,1.2C452.6,480.2,453.3,480.9,453.9,481.5z"/>
		</g>
		<g>
			<g>
				<path class="st1" d="M453.3,488.5c0.5,0,1-0.4,1-1c0-0.5-0.4-1-1-1c-0.5,0-1,0.4-1,1C452.4,488,452.8,488.5,453.3,488.5z"/>
				<path class="st1" d="M454.6,488.6h-2.4c-0.6,0-1,0.5-1,1v3c0,0.2,0.2,0.4,0.4,0.4c0.2,0,0.4-0.2,0.4-0.4V490h0.2v3v4.1
					c0,0.3,0.2,0.6,0.6,0.6c0.3,0,0.6-0.2,0.6-0.6V493h0.2v4.1c0,0.3,0.2,0.6,0.6,0.6c0.3,0,0.6-0.2,0.6-0.6V493v-3h0.2v2.6
					c0,0.2,0.2,0.4,0.4,0.4c0.2,0,0.4-0.2,0.4-0.4v-3C455.6,489.1,455.1,488.6,454.6,488.6z"/>
			</g>
			<path class="st1" d="M447.1,488.5c0.5,0,1-0.4,1-1c0-0.5-0.4-1-1-1c-0.5,0-1,0.4-1,1C446.1,488,446.5,488.5,447.1,488.5z"/>
			<path class="st1" d="M449.7,492.2l-0.8-2.8c-0.2-0.5-0.6-0.7-1.2-0.7l0,0h-1.3l0,0c-0.6,0-1,0.2-1.2,0.7l-0.8,2.8
				c-0.1,0.2,0.1,0.4,0.3,0.4c0.2,0.1,0.4,0,0.5-0.2l0.7-2.5h0.2l-1.2,4.3h1.2v3c0,0.3,0.2,0.5,0.5,0.5s0.5-0.2,0.5-0.5v-3h0.2v3
				c0,0.3,0.2,0.5,0.5,0.5s0.5-0.2,0.5-0.5v-3h1.2l-1.2-4.3h0.2l0.7,2.5c0.1,0.2,0.3,0.3,0.5,0.2
				C449.6,492.5,449.7,492.3,449.7,492.2z"/>
		</g>
		<g>
			<path class="st1" d="M456.2,501.1h-12.4c-2.5,0-4.6-2.6-4.6-5.7v-6.5c0-3.2,2.1-5.7,4.6-5.7h12.3c2.5,0,4.6,2.6,4.6,5.7v6.5
				C460.7,498.5,458.7,501.1,456.2,501.1z M443.8,485.2c-1.6,0-2.9,1.6-2.9,3.6v6.5c0,2,1.3,3.6,2.9,3.6h12.3c1.6,0,2.9-1.6,2.9-3.6
				v-6.5c0-2-1.3-3.6-2.9-3.6H443.8z"/>
		</g>
	</g>
</g>
<g id="stairs_00000032626799022009418030000006004862700355200132_">
	<g>
		<path class="st1" d="M473.5,528.6c1.1,0,2.1-0.9,2.1-2.1c0-1.1-0.9-2.1-2.1-2.1c-1.1,0-2.1,0.9-2.1,2.1
			C471.5,527.7,472.4,528.6,473.5,528.6z"/>
		<path class="st1" d="M469.7,535.2c0.7,0,1.2-0.4,1.2-1.1v-1.3l0.7-0.4v3.3v0.7l-2,7.7c-0.2,0.6,0.2,1.2,0.8,1.3
			c0.7,0.2,1.3-0.1,1.6-0.8l1.8-7.1h1.8v2.3c0,0.7,0.6,1.1,1.2,1.1c0.7,0,1.2-0.4,1.2-1.1v-3.4c0-0.7-0.6-1.1-1.2-1.1l0,0l0,0h-2.7
			v-2.1l0.7,0.7c0.2,0.2,0.6,0.4,1,0.4l0,0h2.2c0.7,0,1.2-0.4,1.2-1.1s-0.6-1.1-1.2-1.1h-1.8l-2.2-2.4l-0.1-0.1
			c-0.1-0.1-0.2-0.3-0.4-0.4l0,0h-0.1l0,0h-0.1l0,0c0,0,0,0-0.1,0l0,0c0,0,0,0-0.1,0l0,0c0,0,0,0-0.1,0l0,0l0,0l0,0c0,0,0,0-0.1,0
			c0,0,0,0-0.1,0l0,0c0,0,0,0-0.1,0l0,0c0,0,0,0-0.1,0l0,0c0,0,0,0-0.1,0l0,0c0,0,0,0-0.1,0l0,0c0,0,0,0-0.1,0l0,0l-3.1,2.2
			c-0.3,0.2-0.4,0.6-0.4,0.9l0,0v1.9C468.5,534.7,468.9,535.2,469.7,535.2z"/>
		<path class="st1" d="M492.5,531.4h-5.7c-0.2,0-0.3,0.2-0.4,0.4v5.2h-5.2c-0.2,0-0.3,0.2-0.4,0.4v5.6h-5.4c-0.2,0-0.3,0.2-0.4,0.4
			v5.1h-5.2c-0.2,0-0.3,0.2-0.4,0.4v4.9c0,0.2,0.2,0.3,0.4,0.4h22.8c0.2,0,0.3-0.2,0.4-0.4l-0.1-22
			C492.8,531.6,492.7,531.5,492.5,531.4z"/>
	</g>
</g>
<g id="Text">
	<text transform="matrix(1 0 0 1 231.5156 651.0569)" class="st25 st26">255</text>
	<text transform="matrix(1 0 0 1 193.2832 759.7336)" class="st25 st26">225</text>
	<text transform="matrix(1 0 0 1 379.6289 629.2863)" class="st25 st26">219</text>
	<text transform="matrix(1 0 0 1 379.6289 703.5642)" class="st25 st26">217</text>
	<text transform="matrix(1 0 0 1 469.5431 719.2469)" class="st25 st26">213</text>
	<text transform="matrix(1 0 0 1 532.4891 198.3)" class="st25 st27">Adaptive </text>
	<text transform="matrix(1 0 0 1 532.4891 217.5)" class="st25 st27">Technology </text>
	<text transform="matrix(1 0 0 1 532.4891 236.7)" class="st25 st27">Center</text>
	<text transform="matrix(1 0 0 1 470.3314 330.5097)" class="st25 st28">Writing Center</text>
	<text transform="matrix(1 0 0 1 301.5824 615.8898)" class="st25 st29">DiNapoli</text>
	<text transform="matrix(1 0 0 1 305.9824 630.2898)" class="st25 st29">Gallery</text>
</g>
<g id="Floor_outline">
	<line class="st30" x1="680.7" y1="101.1" x2="524.8" y2="425.3"/>
	<line class="st30" x1="3" y1="566.2" x2="120.5" y2="322.1"/>
	<line class="st30" x1="116.8" y1="621.3" x2="2.9" y2="566.5"/>
	<line class="st30" x1="118.8" y1="786.1" x2="285.4" y2="866.3"/>
	<line class="st30" x1="119.4" y1="97.2" x2="360.8" y2="96.6"/>
	<line class="st30" x1="525.3" y1="2.7" x2="362.1" y2="95.9"/>
	<line class="st30" x1="525.3" y1="85.8" x2="525.3" y2="2.7"/>
	<line class="st30" x1="525.3" y1="85.8" x2="573.3" y2="82.5"/>
	<line class="st30" x1="586.2" y1="98.3" x2="573.3" y2="82.5"/>
	<line class="st30" x1="681" y1="100.4" x2="587.2" y2="99.3"/>
	<line class="st30" x1="119.4" y1="97.2" x2="119.8" y2="323.4"/>
	<line class="st30" x1="525.2" y1="817.8" x2="524.1" y2="518.5"/>
	<line class="st30" x1="286.1" y1="740.8" x2="285.4" y2="866.3"/>
	<line class="st30" x1="118.8" y1="786.1" x2="118.3" y2="622"/>
	<line class="st30" x1="286.8" y1="739.9" x2="363.9" y2="740.3"/>
	<line class="st31" x1="464.1" y1="425.4" x2="523.9" y2="425.4"/>
	<line class="st31" x1="464" y1="517.8" x2="464.1" y2="425.7"/>
	<line class="st31" x1="464" y1="518.5" x2="524.1" y2="518.5"/>
	<line class="st30" x1="525.2" y1="817.8" x2="365.2" y2="740.8"/>
	<line class="st32" x1="521.2" y1="268.1" x2="521.2" y2="291.7"/>
</g>
<g id="Emergency_exits_00000110442743784794260610000002806853807004054171_">
	<g>
		<ellipse class="st33" cx="136.7" cy="689" rx="15" ry="14.9"/>
		<g>
			<g>
				<path class="st19" d="M128.1,679.9l5.2-1.8c0.3-0.1,0.6,0.1,0.6,0.5v1.4h5.1c0.2,0,0.4,0.2,0.4,0.4v1.6c-0.3,0-0.6,0.1-0.8,0.2
					v-1.4H134v15.8h3.1v0.2c0,0.2-0.1,0.4,0,0.6h-3v1.4c0,0.3-0.3,0.6-0.6,0.5l-5.2-1.8c-0.2-0.1-0.3-0.2-0.3-0.5v-16.7
					C127.8,680.1,127.9,680,128.1,679.9z"/>
				<g>
					<g>
						<path class="st19" d="M147.1,695.9h-3.3c-0.4,0-0.8-0.3-1-0.7l-0.4-1.3l1.6-1.3l0,0l0.4,1.4h2.6c0.5,0,1,0.4,1,1
							C148.1,695.5,147.7,695.9,147.1,695.9z"/>
						<path class="st19" d="M139.4,686.3c-0.9-0.2-1.5-1.1-1.3-2.1s1.1-1.5,2.1-1.3c0.9,0.2,1.5,1.1,1.3,2.1
							S140.4,686.6,139.4,686.3z"/>
						<path class="st19" d="M145.8,690.5c-0.4,0.2-0.9,0-1.1-0.4l-0.7-1.5l-0.9-0.3l0.8,2.9c0.1,0.4,0,0.8-0.3,1l-2.8,2.3l-0.8,3
							c-0.1,0.5-0.5,0.7-1,0.7c-0.1,0-0.2,0-0.2,0c-0.5-0.1-0.9-0.7-0.7-1.2l0.8-3.3c0-0.2,0.2-0.4,0.3-0.5l1.8-1.4l-0.9-2.5
							l-0.9,1.1c-0.2,0.2-0.4,0.3-0.6,0.3c-0.1,0-0.3,0-0.4-0.1l-1.7-1c-0.4-0.2-0.5-0.7-0.3-1.1c0.2-0.4,0.8-0.5,1.1-0.3l1.1,0.6
							l0.9-1c0.2-0.3,0.5-0.5,0.9-0.6l1.5-0.5c0.4-0.2,0.9-0.2,1.4,0l1.9,0.6c0.2,0.1,0.4,0.2,0.5,0.5l0.8,1.8
							C146.4,689.9,146.2,690.3,145.8,690.5z"/>
					</g>
				</g>
			</g>
		</g>
	</g>
	<g>
		<ellipse class="st33" cx="137.8" cy="260.7" rx="15" ry="14.9"/>
		<g>
			<g>
				<path class="st19" d="M129.3,251.6l5.2-1.8c0.3-0.1,0.6,0.1,0.6,0.5v1.4h5.1c0.2,0,0.4,0.2,0.4,0.4v1.6c-0.3,0-0.6,0.1-0.8,0.2
					v-1.4h-4.6v15.8h3.1v0.2c0,0.2-0.1,0.4,0,0.6h-3v1.4c0,0.3-0.3,0.6-0.6,0.5l-5.2-1.8c-0.2-0.1-0.3-0.2-0.3-0.5V252
					C129,251.8,129.1,251.6,129.3,251.6z"/>
				<g>
					<g>
						<path class="st19" d="M148.3,267.6H145c-0.4,0-0.8-0.3-1-0.7l-0.4-1.3l1.6-1.3l0,0l0.4,1.4h2.6c0.5,0,1,0.4,1,1
							C149.2,267.2,148.8,267.6,148.3,267.6z"/>
						<path class="st19" d="M140.6,258c-0.9-0.2-1.5-1.1-1.3-2.1c0.2-0.9,1.1-1.5,2.1-1.3c0.9,0.2,1.5,1.1,1.3,2.1
							C142.5,257.7,141.5,258.2,140.6,258z"/>
						<path class="st19" d="M147,262.2c-0.4,0.2-0.9,0-1.1-0.4l-0.7-1.5l-0.9-0.3l0.8,2.9c0.1,0.4,0,0.8-0.3,1l-2.8,2.3l-0.8,3
							c-0.1,0.5-0.5,0.7-1,0.7c-0.1,0-0.2,0-0.2,0c-0.5-0.1-0.9-0.7-0.7-1.2l0.8-3.3c0-0.2,0.2-0.4,0.3-0.5l1.8-1.4l-0.9-2.5
							l-0.9,1.1c-0.2,0.2-0.4,0.3-0.6,0.3c-0.1,0-0.3,0-0.4-0.1l-1.7-1c-0.4-0.2-0.5-0.7-0.3-1.1s0.8-0.5,1.1-0.3l1.1,0.6l0.9-1
							c0.2-0.3,0.5-0.5,0.9-0.6l1.5-0.5c0.4-0.2,0.9-0.2,1.4,0l1.9,0.6c0.2,0.1,0.4,0.2,0.5,0.5l0.8,1.8
							C147.6,261.6,147.4,262,147,262.2z"/>
					</g>
				</g>
			</g>
		</g>
	</g>
	<g>
		<circle class="st33" cx="506.2" cy="567.5" r="15"/>
		<g>
			<g>
				<path class="st19" d="M514.7,558.3l-5.2-1.8c-0.3-0.1-0.6,0.1-0.6,0.5v1.4h-5.1c-0.2,0-0.4,0.2-0.4,0.4v1.6
					c0.3,0,0.6,0.1,0.8,0.2v-1.4h4.6v15.9h-3.1v0.2c0,0.2,0.1,0.4,0,0.6h3v1.4c0,0.3,0.3,0.6,0.6,0.5l5.2-1.8
					c0.2-0.1,0.3-0.2,0.3-0.5v-16.8C515.1,558.6,514.9,558.4,514.7,558.3z"/>
				<g>
					<g>
						<path class="st19" d="M495.7,574.4h3.3c0.4,0,0.8-0.3,1-0.7l0.4-1.3l-1.6-1.3l0,0l-0.4,1.4h-2.6c-0.5,0-1,0.4-1,1
							C494.8,574,495.2,574.4,495.7,574.4z"/>
						<path class="st19" d="M503.4,564.8c0.9-0.2,1.5-1.1,1.3-2.1c-0.2-0.9-1.1-1.5-2.1-1.3c-0.9,0.2-1.5,1.1-1.3,2.1
							C501.6,564.5,502.5,565,503.4,564.8z"/>
						<path class="st19" d="M497.1,569c0.4,0.2,0.9,0,1.1-0.4l0.7-1.5l0.9-0.3l-0.8,2.9c-0.1,0.4,0,0.8,0.3,1l2.8,2.3l0.8,3
							c0.1,0.5,0.5,0.8,1,0.8c0.1,0,0.2,0,0.2,0c0.5-0.1,0.9-0.7,0.7-1.2l-0.8-3.4c0-0.2-0.2-0.4-0.3-0.5l-1.8-1.4l0.9-2.5l0.9,1.1
							c0.2,0.2,0.4,0.3,0.6,0.3c0.1,0,0.3,0,0.4-0.1l1.7-1c0.4-0.2,0.5-0.8,0.3-1.1c-0.2-0.4-0.8-0.5-1.1-0.3l-1.1,0.6l-0.9-1
							c-0.2-0.3-0.5-0.5-0.9-0.6l-1.5-0.5c-0.4-0.2-0.9-0.2-1.4,0l-1.9,0.6c-0.2,0.1-0.4,0.2-0.5,0.5l-0.8,1.8
							C496.5,568.4,496.6,568.8,497.1,569z"/>
					</g>
				</g>
			</g>
		</g>
	</g>
	<g>
		
			<ellipse transform="matrix(0.9925 -0.1225 0.1225 0.9925 -17.4305 63.5534)" class="st33" cx="508.1" cy="173.5" rx="15" ry="15"/>
		<g>
			<g>
				<path class="st19" d="M516.6,164.4l-5.2-1.8c-0.3-0.1-0.6,0.1-0.6,0.5v1.4h-5.1c-0.2,0-0.4,0.2-0.4,0.4v1.6
					c0.3,0,0.6,0.1,0.8,0.2v-1.4h4.6v15.9h-3.1v0.2c0,0.2,0.1,0.4,0,0.6h3v1.4c0,0.3,0.3,0.6,0.6,0.5l5.2-1.8
					c0.2-0.1,0.3-0.2,0.3-0.5v-16.8C517,164.6,516.8,164.5,516.6,164.4z"/>
				<g>
					<g>
						<path class="st19" d="M497.6,180.5h3.3c0.4,0,0.8-0.3,1-0.7l0.4-1.3l-1.6-1.3l0,0l-0.4,1.4h-2.6c-0.5,0-1,0.4-1,1
							C496.7,180,497.1,180.5,497.6,180.5z"/>
						<path class="st19" d="M505.3,170.9c0.9-0.2,1.5-1.1,1.3-2.1c-0.2-0.9-1.1-1.5-2.1-1.3c-0.9,0.2-1.5,1.1-1.3,2.1
							C503.5,170.5,504.4,171.1,505.3,170.9z"/>
						<path class="st19" d="M499,175.1c0.4,0.2,0.9,0,1.1-0.4l0.7-1.5l0.9-0.3l-0.8,2.9c-0.1,0.4,0,0.8,0.3,1l2.8,2.3l0.8,3
							c0.1,0.5,0.5,0.8,1,0.8c0.1,0,0.2,0,0.2,0c0.5-0.1,0.9-0.7,0.7-1.2l-0.8-3.4c0-0.2-0.2-0.4-0.3-0.5l-1.8-1.4l0.9-2.5l0.9,1.1
							c0.2,0.2,0.4,0.3,0.6,0.3c0.1,0,0.3,0,0.4-0.1l1.7-1c0.4-0.2,0.5-0.8,0.3-1.1c-0.2-0.4-0.8-0.5-1.1-0.3l-1.1,0.6l-0.9-1
							c-0.2-0.3-0.5-0.5-0.9-0.6l-1.5-0.5c-0.4-0.2-0.9-0.2-1.4,0l-1.9,0.6c-0.2,0.1-0.4,0.2-0.5,0.5l-0.8,1.8
							C498.3,174.4,498.5,174.9,499,175.1z"/>
					</g>
				</g>
			</g>
		</g>
	</g>
</g>
<rect id="ref_desk" x="297.7" y="265" transform="matrix(0.4429 -0.8966 0.8966 0.4429 -82.7495 447.0684)" class="st34" width="41.3" height="50.3"/>
<g id="North">
	<polygon class="st35" points="649.8,29.5 616.8,23.8 644.1,62.5 	"/>
	<text transform="matrix(0.6 0.8 -0.8 0.6 646.5999 17.2401)" class="st35 st36 st37">N</text>
</g>
</svg>
