<?xml version="1.0" encoding="utf-8"?>
<!-- Generator: Adobe Illustrator 28.1.0, SVG Export Plug-In . SVG Version: 6.00 Build 0)  -->
<svg version="1.1" id="Layer_1" xmlns="http://www.w3.org/2000/svg" xmlns:xlink="http://www.w3.org/1999/xlink" x="0px" y="0px"
	 viewBox="0 0 684.2 949.3" style="enable-background:new 0 0 684.2 949.3;" xml:space="preserve">
<style type="text/css">
	.st0{fill:none;}
	.st1{fill:#231F20;}
	.st2{fill:#E4F0F9;}
	.st3{opacity:0.5;fill:#1B4464;}
	.st4{fill:#FFFFFF;stroke:#000000;stroke-miterlimit:10;}
	.st5{fill:none;stroke:#010101;stroke-width:4;stroke-miterlimit:10;}
	
		.st6{opacity:0.45;fill:url(#SVGID_00000058579032830672902220000013710415805248050562_);stroke:#B6B8BA;stroke-width:0.75;stroke-miterlimit:10;enable-background:new    ;}
	.st7{fill:#0073A0;}
	.st8{fill:#FFFFFF;}
	.st9{fill:#688D8C;stroke:#D65C52;stroke-width:0.25;stroke-miterlimit:10;}
	.st10{display:none;fill:#688D8C;stroke:#D65C52;stroke-width:0.25;stroke-miterlimit:10;}
	.st11{opacity:0.5;fill:#A1BB7E;}
	.st12{fill:#EBCA74;stroke:#B6B8BA;stroke-width:0.75;stroke-miterlimit:10;}
	.st13{fill:#EBCA74;stroke:#B6B8BA;stroke-width:0.75;stroke-miterlimit:9.9997;}
	.st14{font-family:'ArialMT';}
	.st15{font-size:16px;}
	.st16{font-size:18px;}
	.st17{fill:none;stroke:#221F1F;stroke-width:6;stroke-linecap:round;stroke-linejoin:round;}
	.st18{fill:none;stroke:#231F20;stroke-width:6;stroke-linecap:round;stroke-linejoin:round;}
</style>
<pattern  y="949.3" width="28.8" height="28.8" patternUnits="userSpaceOnUse" id="SVGID_1_" viewBox="1.4 -30.2 28.8 28.8" style="overflow:visible;">
	<g>
		<rect x="1.4" y="-30.2" class="st0" width="28.8" height="28.8"/>
		<g>
			<rect x="1.4" y="-30.2" class="st0" width="28.8" height="28.8"/>
			<g>
				<rect x="1.4" y="-30.2" class="st0" width="28.8" height="28.8"/>
				<g>
					<rect x="1.4" y="-30.2" class="st0" width="28.8" height="28.8"/>
					<g>
						<path class="st1" d="M30.2-31.6c0.8,0,1.4,0.6,1.4,1.4c0,0.8-0.6,1.4-1.4,1.4s-1.4-0.6-1.4-1.4C28.8-31,29.4-31.6,30.2-31.6z"
							/>
						<path class="st1" d="M15.8-31.6c0.8,0,1.4,0.6,1.4,1.4c0,0.8-0.6,1.4-1.4,1.4c-0.8,0-1.4-0.6-1.4-1.4
							C14.4-31,15-31.6,15.8-31.6z"/>
						<path class="st1" d="M30.2-17.2c0.8,0,1.4,0.6,1.4,1.4s-0.6,1.4-1.4,1.4s-1.4-0.6-1.4-1.4C28.8-16.6,29.4-17.2,30.2-17.2z"/>
						<path class="st1" d="M15.8-17.2c0.8,0,1.4,0.6,1.4,1.4s-0.6,1.4-1.4,1.4c-0.8,0-1.4-0.6-1.4-1.4C14.4-16.6,15-17.2,15.8-17.2z
							"/>
						<path class="st1" d="M8.6-24.4c0.8,0,1.4,0.6,1.4,1.4c0,0.8-0.6,1.4-1.4,1.4c-0.8,0-1.4-0.6-1.4-1.4
							C7.2-23.8,7.8-24.4,8.6-24.4z"/>
						<path class="st1" d="M23-24.4c0.8,0,1.4,0.6,1.4,1.4c0,0.8-0.6,1.4-1.4,1.4s-1.4-0.6-1.4-1.4S22.2-24.4,23-24.4z"/>
						<path class="st1" d="M8.6-10C9.4-10,10-9.4,10-8.6S9.4-7.2,8.6-7.2c-0.8,0-1.4-0.6-1.4-1.4C7.2-9.4,7.8-10,8.6-10z"/>
						<path class="st1" d="M23-10c0.8,0,1.4,0.6,1.4,1.4S23.8-7.2,23-7.2s-1.4-0.6-1.4-1.4S22.2-10,23-10z"/>
					</g>
					<g>
						<path class="st1" d="M1.4-31.6c0.8,0,1.4,0.6,1.4,1.4c0,0.8-0.6,1.4-1.4,1.4C0.6-28.7,0-29.4,0-30.2C0-31,0.6-31.6,1.4-31.6z"
							/>
						<path class="st1" d="M1.4-17.2c0.8,0,1.4,0.6,1.4,1.4s-0.6,1.4-1.4,1.4S0-15,0-15.8S0.6-17.2,1.4-17.2z"/>
					</g>
					<g>
						<path class="st1" d="M30.2-2.8c0.8,0,1.4,0.6,1.4,1.4S31,0,30.2,0s-1.4-0.6-1.4-1.4C28.8-2.2,29.4-2.8,30.2-2.8z"/>
						<path class="st1" d="M15.8-2.8c0.8,0,1.4,0.6,1.4,1.4S16.6,0,15.8,0s-1.4-0.6-1.4-1.4C14.4-2.2,15-2.8,15.8-2.8z"/>
					</g>
					<g>
						<path class="st1" d="M1.4-2.8c0.8,0,1.4,0.6,1.4,1.4S2.2,0,1.4,0C0.6,0.1,0-0.6,0-1.4C0-2.2,0.6-2.8,1.4-2.8z"/>
					</g>
				</g>
			</g>
		</g>
	</g>
</pattern>
<polygon id="atrium" class="st2" points="292.4,426.2 368.9,425.6 368.5,579.4 291.9,580 "/>
<g id="escalator_00000043437865109118368120000003986335687569727406_">
	<rect x="372" y="505.5" class="st3" width="34" height="107.7"/>
	<g>
		<path class="st4" d="M396.5,539.8h-15.1c-4.1,0-7.4,3.3-7.4,7.4v15.1c0,4.1,3.3,7.4,7.4,7.4h15.1c4.1,0,7.4-3.3,7.4-7.4v-15.1
			C404,543.1,400.6,539.8,396.5,539.8z"/>
		<g>
			<g>
				<path class="st1" d="M386.3,548.8c1,0,1.7-0.8,1.7-1.7c0-1-0.8-1.7-1.7-1.7c-1,0-1.7,0.8-1.7,1.7
					C384.6,548,385.4,548.8,386.3,548.8z"/>
				<path class="st1" d="M388.2,550.6c0-1-0.8-1.8-1.8-1.8s-1.8,0.8-1.8,1.8v4.1l3.6-3.6L388.2,550.6L388.2,550.6z"/>
				<path class="st1" d="M397,548.4h-4c-0.7,0-1.3,0.3-1.8,0.8l-7,7H381c-1.4,0-2.6,1.2-2.6,2.6c0,1.4,1.2,2.6,2.6,2.6h4.2
					c0.7,0,1.3-0.3,1.8-0.8l7-7h2.9c1.4,0,2.6-1.2,2.6-2.6C399.5,549.6,398.4,548.4,397,548.4z"/>
			</g>
			<g>
				<path class="st1" d="M396.5,557.6c0.2,0,0.4,0.1,0.3,0.3l-0.7,3.7c0,0.2-0.2,0.3-0.3,0.4c-0.2,0.1-0.3,0.1-0.4,0l-0.4-0.4
					l-2.7,2.7c-0.2,0.2-0.5,0.2-0.6,0.1l-1.9-1.9c-0.1-0.1-0.1-0.4,0.1-0.6l2.7-2.7l-0.4-0.4c-0.1-0.1-0.1-0.3,0-0.4
					c0.1-0.2,0.3-0.3,0.4-0.3L396.5,557.6z"/>
			</g>
		</g>
	</g>
</g>
<g id="elevator_00000129923789646981679440000009271267698581510323_">
	
		<rect x="441.6" y="509.8" transform="matrix(1.787271e-03 -1 1 1.787271e-03 -68.3944 967.9346)" class="st3" width="18.1" height="16.9"/>
	
		<rect x="441.6" y="534.4" transform="matrix(1.787271e-03 -1 1 1.787271e-03 -93.0451 992.5391)" class="st3" width="18.1" height="16.9"/>
	
		<rect x="441.6" y="559.2" transform="matrix(1.787271e-03 -1 1 1.787271e-03 -117.7311 1017.307)" class="st3" width="18.1" height="16.9"/>
	
		<rect x="441.4" y="583.9" transform="matrix(1.787271e-03 -1 1 1.787271e-03 -142.7155 1041.7766)" class="st3" width="18.1" height="16.9"/>
	
		<rect x="441.5" y="608.8" transform="matrix(1.787271e-03 -1 1 1.787271e-03 -167.466 1066.6785)" class="st3" width="18.1" height="16.9"/>
	<line class="st5" x1="463.6" y1="506.5" x2="463.6" y2="634.8"/>
	<g>
		<path class="st4" d="M452.4,552.7h-15.1c-4.1,0-7.4,3.3-7.4,7.4v15.1c0,4.1,3.3,7.4,7.4,7.4h15.1c4.1,0,7.4-3.3,7.4-7.4v-15.1
			C459.8,556.1,456.5,552.7,452.4,552.7z"/>
		<g>
			<path class="st1" d="M440.9,554.6c-0.2-0.2-0.4-0.3-0.6-0.3s-0.5,0.1-0.6,0.3c-0.5,0.5-1.4,1.4-2.7,2.7c-0.4,0.4-0.4,1,0,1.3
				c0.3,0.3,0.9,0.3,1.2,0l1.1-1.1v3.5c0,0.5,0.4,0.9,0.9,0.9h0.1c0.5,0,0.9-0.4,0.9-0.9v-3.5l1.1,1.1c0.3,0.3,0.9,0.3,1.2,0l0,0
				c0.3-0.3,0.3-0.9,0-1.2C442.2,555.9,441.5,555.2,440.9,554.6z"/>
			<path class="st1" d="M448.7,561.6c0.2,0.2,0.4,0.3,0.6,0.3s0.5-0.1,0.6-0.3c0.5-0.5,1.4-1.4,2.7-2.7c0.4-0.4,0.4-1,0-1.3
				c-0.3-0.3-0.9-0.3-1.2,0l-1.1,1.1v-3.5c0-0.5-0.4-0.9-0.9-0.9h-0.1c-0.5,0-0.9,0.4-0.9,0.9v3.5l-1.1-1.1c-0.3-0.3-0.9-0.3-1.2,0
				l0,0c-0.3,0.3-0.3,0.9,0,1.2C447.4,560.3,448.1,561,448.7,561.6z"/>
		</g>
		<g>
			<g>
				<path class="st1" d="M448.1,568.5c0.5,0,1-0.4,1-1c0-0.5-0.4-1-1-1c-0.5,0-1,0.4-1,1C447.2,568.1,447.6,568.5,448.1,568.5z"/>
				<path class="st1" d="M449.4,568.7H447c-0.6,0-1,0.5-1,1v3c0,0.2,0.2,0.4,0.4,0.4c0.2,0,0.4-0.2,0.4-0.4v-2.6h0.2v3v4.1
					c0,0.3,0.2,0.6,0.6,0.6c0.3,0,0.6-0.2,0.6-0.6v-4.1h0.2v4.1c0,0.3,0.2,0.6,0.6,0.6c0.3,0,0.6-0.2,0.6-0.6v-4.1v-3h0.2v2.6
					c0,0.2,0.2,0.4,0.4,0.4c0.2,0,0.4-0.2,0.4-0.4v-3C450.4,569.2,449.9,568.7,449.4,568.7z"/>
			</g>
			<path class="st1" d="M441.9,568.5c0.5,0,1-0.4,1-1c0-0.5-0.4-1-1-1c-0.5,0-1,0.4-1,1S441.3,568.5,441.9,568.5z"/>
			<path class="st1" d="M444.5,572.2l-0.8-2.8c-0.2-0.5-0.6-0.7-1.2-0.7l0,0h-1.3l0,0c-0.6,0-1,0.2-1.2,0.7l-0.8,2.8
				c-0.1,0.2,0.1,0.4,0.3,0.4c0.2,0.1,0.4,0,0.5-0.2l0.7-2.5h0.2l-1.2,4.3h1.2v3c0,0.3,0.2,0.5,0.5,0.5s0.5-0.2,0.5-0.5v-3h0.2v3
				c0,0.3,0.2,0.5,0.5,0.5s0.5-0.2,0.5-0.5v-3h1.2l-1.2-4.3h0.2l0.7,2.5c0.1,0.2,0.3,0.3,0.5,0.2
				C444.4,572.6,444.5,572.4,444.5,572.2z"/>
		</g>
		<g>
			<path class="st1" d="M451,581.1h-12.3c-2.5,0-4.6-2.6-4.6-5.7v-6.5c0-3.2,2.1-5.7,4.6-5.7H451c2.5,0,4.6,2.6,4.6,5.7v6.5
				C455.5,578.6,453.5,581.1,451,581.1z M438.6,565.3c-1.6,0-2.9,1.6-2.9,3.6v6.5c0,2,1.3,3.6,2.9,3.6H451c1.6,0,2.9-1.6,2.9-3.6
				v-6.5c0-2-1.3-3.6-2.9-3.6H438.6z"/>
		</g>
	</g>
</g>
<g id="stairs_00000004506460415138557040000012298731305797168303_">
	<path class="st4" d="M502.9,603.4h-17.6c-4.8,0-8.7,3.9-8.7,8.7v17.6c0,4.8,3.9,8.7,8.7,8.7h17.6c4.8,0,8.7-3.9,8.7-8.7v-17.6
		C511.6,607.3,507.7,603.4,502.9,603.4z"/>
	<path class="st1" d="M487.4,610.6c1,0,1.9-0.8,1.9-1.9c0-1-0.8-1.9-1.9-1.9c-1,0-1.9,0.8-1.9,1.9
		C485.6,609.8,486.4,610.6,487.4,610.6z"/>
	<path class="st1" d="M484,616.5c0.6,0,1.1-0.4,1.1-1v-1.2l0.6-0.4v3v0.6l-1.8,6.9c-0.2,0.5,0.2,1.1,0.7,1.2
		c0.6,0.2,1.2-0.1,1.4-0.7l1.6-6.4h1.6v2.1c0,0.6,0.5,1,1.1,1s1.1-0.4,1.1-1v-3.1c0-0.6-0.5-1-1.1-1l0,0l0,0h-2.4v-1.9l0.6,0.6
		c0.2,0.2,0.5,0.4,0.9,0.4l0,0h2c0.6,0,1.1-0.4,1.1-1s-0.5-1-1.1-1h-1.6l-2-2.2l-0.1-0.1c-0.1-0.1-0.2-0.3-0.4-0.4l0,0h-0.1l0,0
		h-0.1l0,0c0,0,0,0-0.1,0l0,0c0,0,0,0-0.1,0l0,0c0,0,0,0-0.1,0l0,0l0,0l0,0c0,0,0,0-0.1,0c0,0,0,0-0.1,0l0,0c0,0,0,0-0.1,0l0,0
		c0,0,0,0-0.1,0l0,0c0,0,0,0-0.1,0l0,0c0,0,0,0-0.1,0l0,0c0,0,0,0-0.1,0l0,0l-2.8,2c-0.3,0.2-0.4,0.5-0.4,0.8l0,0v1.7
		C482.9,616.1,483.3,616.5,484,616.5z"/>
	<path class="st1" d="M504.5,613.1h-5.1c-0.2,0-0.3,0.2-0.4,0.4v4.7h-4.7c-0.2,0-0.3,0.2-0.4,0.4v5H489c-0.2,0-0.3,0.2-0.4,0.4v4.6
		h-4.7c-0.2,0-0.3,0.2-0.4,0.4v4.4c0,0.2,0.2,0.3,0.4,0.4h20.5c0.2,0,0.3-0.2,0.4-0.4l-0.1-19.8
		C504.8,613.3,504.7,613.2,504.5,613.1z"/>
</g>
<g id="employee_areas">
	
		<pattern  id="SVGID_00000089547403152037673610000011060246521930204289_" xlink:href="#SVGID_1_" patternTransform="matrix(1 0 0 1 -56.28 34084.6836)">
	</pattern>
	
		<polygon style="opacity:0.45;fill:url(#SVGID_00000089547403152037673610000011060246521930204289_);stroke:#B6B8BA;stroke-width:0.75;stroke-miterlimit:10;enable-background:new    ;" points="
		208.3,819.4 208.3,819.4 204.1,819.4 204.1,635.5 120.7,635.5 29.4,591.8 3.1,646.7 119.1,702.3 120,700.6 120,866.6 286,943.8 
		286,819.4 	"/>
</g>
<g id="restrooms">
	<rect x="453.3" y="658.9" class="st7" width="68.6" height="68.6"/>
	<g>
		<g>
			<g>
				<path class="st8" d="M478.5,683.7c1.2,0,2.1-0.9,2.1-2.1c0-1.2-0.9-2.1-2.1-2.1s-2.1,0.9-2.1,2.1
					C476.3,682.8,477.3,683.7,478.5,683.7z"/>
				<path class="st8" d="M481.2,684.2h-5.5c-1.3,0-2.4,1-2.4,2.4v6.7c0,0.5,0.4,0.9,0.9,0.9s0.9-0.4,0.9-0.9v-5.9h0.5v6.8v9.2
					c0,0.7,0.5,1.2,1.2,1.2s1.2-0.5,1.2-1.2v-9.2h0.5v9.2c0,0.7,0.5,1.2,1.2,1.2s1.2-0.5,1.2-1.2v-9.2v-6.8h0.5v5.9
					c0,0.5,0.4,0.9,0.9,0.9s0.9-0.4,0.9-0.9v-6.7C483.6,685.3,482.5,684.2,481.2,684.2z"/>
			</g>
			<g>
				<path class="st8" d="M499.8,683.7c1.2,0,2.1-0.9,2.1-2.1c0-1.2-0.9-2.1-2.1-2.1s-2.1,0.9-2.1,2.1
					C497.6,682.8,498.6,683.7,499.8,683.7z"/>
				<path class="st8" d="M505.6,692.1l-1.8-6.3c-0.4-1.2-1.3-1.6-2.6-1.6l0,0h-2.9l0,0c-1.3,0-2.1,0.4-2.6,1.6l-1.8,6.3
					c-0.1,0.4,0.1,0.8,0.7,0.9c0.4,0.1,0.9-0.1,1-0.5l1.6-5.5h0.4l-2.7,9.6h2.6v6.8c0,0.5,0.5,1,1,1s1-0.5,1-1v-6.8h0.5v6.8
					c0,0.5,0.5,1,1,1s1-0.5,1-1v-6.8h2.6l-2.7-9.6h0.4l1.6,5.5c0.1,0.4,0.5,0.7,1,0.5C505.5,692.8,505.7,692.5,505.6,692.1z"/>
			</g>
		</g>
		<rect x="488.4" y="679.5" class="st8" width="2.4" height="24.9"/>
	</g>
	<rect x="123" y="260.3" class="st7" width="73.1" height="75.5"/>
	<g>
		<path class="st8" d="M169.5,287.8c1.2,0,2.1-0.9,2.1-2.1s-0.9-2.1-2.1-2.1c-1.2,0-2.1,0.9-2.1,2.1
			C167.3,286.9,168.3,287.8,169.5,287.8z"/>
		<path class="st8" d="M175.3,296.2l-1.8-6.3c-0.4-1.2-1.3-1.6-2.6-1.6l0,0H168l0,0c-1.3,0-2.1,0.4-2.6,1.6l-1.8,6.3
			c-0.1,0.4,0.1,0.8,0.7,0.9c0.4,0.1,0.9-0.1,1-0.5l1.6-5.5h0.4l-2.7,9.6h2.6v6.8c0,0.5,0.5,1,1,1s1-0.5,1-1v-6.8h0.5v6.8
			c0,0.5,0.5,1,1,1s1-0.5,1-1v-6.8h2.6l-2.7-9.6h0.4l1.6,5.5c0.1,0.4,0.5,0.7,1,0.5C175.1,297,175.4,296.6,175.3,296.2z"/>
		<path class="st8" d="M148.2,287.8c1.2,0,2.1-0.9,2.1-2.1s-0.9-2.1-2.1-2.1c-1.2,0-2.1,0.9-2.1,2.1
			C145.9,286.9,147,287.8,148.2,287.8z"/>
		<path class="st8" d="M150.9,288.3h-5.5c-1.3,0-2.4,1-2.4,2.4v6.7c0,0.5,0.4,0.9,0.9,0.9s0.9-0.4,0.9-0.9v-5.9h0.5v6.8v9.2
			c0,0.7,0.5,1.2,1.2,1.2s1.2-0.5,1.2-1.2v-9.2h0.5v9.2c0,0.7,0.5,1.2,1.2,1.2s1.2-0.5,1.2-1.2v-9.2v-6.8h0.5v5.9
			c0,0.5,0.4,0.9,0.9,0.9s0.9-0.4,0.9-0.9v-6.7C153.3,289.4,152.2,288.3,150.9,288.3z"/>
		<rect x="158.1" y="283.6" class="st8" width="2.4" height="24.9"/>
	</g>
</g>
<g id="study_rooms">
	<rect x="123.1" y="335.9" class="st9" width="33.7" height="33.2"/>
	<rect x="123.1" y="369.1" class="st9" width="33.7" height="35.7"/>
	<rect x="431.3" y="247.8" class="st10" width="33.2" height="33.7"/>
	<rect x="431.3" y="314.4" class="st10" width="33.2" height="33.7"/>
	<rect x="431.3" y="281.1" class="st10" width="33.2" height="33.7"/>
</g>
<polygon id="SJPL_Works" class="st11" points="652.2,247.6 464.6,247.6 464.6,348.3 603.6,348.3 "/>
<g id="stacks">
	<polygon class="st12" points="148.4,198.7 148.4,248.8 213.9,248.8 213.9,349 174.5,349 174.5,431.1 216.2,431.1 216.2,504 
		148.4,504 148.4,622.1 219.8,622.1 219.8,803.7 275.4,803.7 275.4,198.7 	"/>
	<rect x="363.8" y="189.2" class="st12" width="52.5" height="169.8"/>
	<rect x="304.2" y="672" class="st12" width="61.3" height="62.2"/>
	<rect x="387.8" y="648.9" class="st12" width="50.6" height="159.7"/>
	<rect x="453.6" y="753.8" class="st12" width="54.1" height="88.6"/>
	
		<rect x="415.8" y="-21" transform="matrix(0.4338 -0.901 0.901 0.4338 138.4023 472.4924)" class="st13" width="58.7" height="294.3"/>
</g>
<g id="Text">
	<text transform="matrix(1 0 0 1 124.9147 358.0731)" class="st8 st14 st15">390</text>
	<text transform="matrix(1 0 0 1 124.9149 390.086)" class="st8 st14 st15">392</text>
	<text transform="matrix(1 0 0 1 495.6969 301.4608)" class="st14 st16">SJPL Works</text>
</g>
<g id="Floor_outline">
	<line class="st17" x1="681.1" y1="180.7" x2="524.9" y2="505.4"/>
	<line class="st17" x1="3.1" y1="646.3" x2="119.9" y2="403.5"/>
	<line class="st17" x1="116.9" y1="701.4" x2="3" y2="646.6"/>
	<line class="st17" x1="118.9" y1="866.2" x2="285.5" y2="946.3"/>
	<line class="st17" x1="120.3" y1="177.2" x2="228.8" y2="176.8"/>
	<line class="st17" x1="525.4" y1="82.7" x2="504" y2="95"/>
	<line class="st17" x1="525.4" y1="105.3" x2="525.4" y2="82.7"/>
	<line class="st17" x1="120.3" y1="177.4" x2="119.9" y2="403.5"/>
	<line class="st17" x1="525.4" y1="897.9" x2="524.2" y2="598.5"/>
	<line class="st17" x1="286.1" y1="820.6" x2="285.5" y2="946.3"/>
	<line class="st17" x1="118.9" y1="866.2" x2="118.4" y2="702.1"/>
	<line class="st17" x1="286.9" y1="820" x2="362.9" y2="820.3"/>
	<line class="st17" x1="524.7" y1="897.5" x2="363.7" y2="820.1"/>
	<line class="st17" x1="525.6" y1="105.5" x2="681.2" y2="180.4"/>
	<line class="st17" x1="228.8" y1="176.7" x2="312.2" y2="3.8"/>
	<line class="st17" x1="312.6" y1="3" x2="503.4" y2="94.8"/>
	<g>
		<line class="st18" x1="464.2" y1="505.5" x2="524.1" y2="505.5"/>
		<line class="st18" x1="464.1" y1="597.9" x2="464.2" y2="505.8"/>
		<line class="st18" x1="464.1" y1="598.6" x2="524.2" y2="598.6"/>
	</g>
</g>
</svg>
