<?xml version="1.0" encoding="utf-8"?>
<!-- Generator: Adobe Illustrator 28.0.0, SVG Export Plug-In . SVG Version: 6.00 Build 0)  -->
<svg version="1.1" id="Layer_1" xmlns="http://www.w3.org/2000/svg" xmlns:xlink="http://www.w3.org/1999/xlink" x="0px" y="0px"
	 width="1207.8px" height="937px" viewBox="0 0 1207.8 937" style="enable-background:new 0 0 1207.8 937;" xml:space="preserve">
<style type="text/css">
	.st0{fill:none;}
	.st1{fill:none;stroke:#231F20;stroke-width:0.3;}
	.st2{fill:none;stroke:#A2C9EA;stroke-miterlimit:10;}
	.st3{fill:#A2C9EA;}
	.st4{font-family:'Arial-ItalicMT';}
	.st5{font-size:14.001px;}
	.st6{font-family:'ArialNarrow-Bold';}
	.st7{font-size:33.4957px;}
	.st8{font-size:14px;}
	.st9{font-family:'ArialNarrow-Italic';}
	.st10{font-size:14.6406px;}
	.st11{fill:#B9DDA4;stroke:#000000;stroke-width:1;stroke-miterlimit:10;}
	.st12{fill:none;stroke:#000000;stroke-linecap:round;stroke-linejoin:round;stroke-miterlimit:10;}
	.st13{fill:#B9DDA4;stroke:#000000;stroke-miterlimit:10;}
	.st14{fill:none;stroke:#000000;stroke-width:1.5;stroke-miterlimit:10;}
	.st15{fill:none;stroke:#000000;stroke-width:1.3;stroke-miterlimit:10;}
	.st16{stroke:#000000;stroke-width:1.3;stroke-miterlimit:10;}
	.st17{font-family:'MyriadPro-Regular';}
	.st18{fill:#E5E5E5;stroke:#000000;stroke-width:1;stroke-miterlimit:10;}
	
		.st19{fill:url(#SVGID_00000057868586251022900460000015502284273015545252_);stroke:#000000;stroke-width:0.75;stroke-miterlimit:10;}
	.st20{fill:none;stroke:#000000;stroke-miterlimit:10;}
	.st21{fill:#E5E5E5;stroke:#000000;stroke-miterlimit:10;}
	.st22{fill:#C4EBF7;stroke:#000000;stroke-miterlimit:10;}
	.st23{fill:#C4EBF7;stroke:#000000;stroke-width:1;stroke-miterlimit:10.0008;}
	.st24{font-size:16px;}
	.st25{font-size:12px;}
	.st26{fill:#E4F2F9;}
	.st27{font-family:'Arial-BoldMT';}
	.st28{font-size:300px;}
	.st29{letter-spacing:6;}
	.st30{font-size:48px;}
	.st31{fill:#E5E5E5;stroke:#000000;stroke-width:2;stroke-linecap:round;stroke-linejoin:round;stroke-miterlimit:10;}
	.st32{fill:none;stroke:#000000;stroke-width:4;stroke-linecap:round;stroke-linejoin:round;stroke-miterlimit:10;}
	.st33{fill:#E5E5E5;stroke:#000000;stroke-width:2;stroke-miterlimit:10.0002;}
	.st34{fill:#146EDC;}
	.st35{fill:#FFFFFF;}
	.st36{fill:#FF0000;}
	.st37{fill:#E5E5E5;stroke:#000000;stroke-width:1;stroke-miterlimit:9.9992;}
</style>
<pattern  y="937" width="72" height="72" patternUnits="userSpaceOnUse" id="SVGID_1_" viewBox="72.2 -144.2 72 72" style="overflow:visible;">
	<g>
		<rect x="72.2" y="-144.2" class="st0" width="72" height="72"/>
		<g>
			<rect x="72.2" y="-144.2" class="st0" width="72" height="72"/>
			<g>
				<rect x="72.2" y="-144.2" class="st0" width="72" height="72"/>
				<g>
					<line class="st1" x1="78.2" y1="-72.5" x2="78.2" y2="0"/>
					<line class="st1" x1="102.2" y1="-72.5" x2="102.2" y2="0"/>
					<line class="st1" x1="126.2" y1="-72.5" x2="126.2" y2="0"/>
					<line class="st1" x1="90.2" y1="-72.5" x2="90.2" y2="0"/>
					<line class="st1" x1="114.2" y1="-72.5" x2="114.2" y2="0"/>
					<line class="st1" x1="138.2" y1="-72.5" x2="138.2" y2="0"/>
				</g>
				<g>
					<line class="st1" x1="144" y1="-78.2" x2="216.5" y2="-78.2"/>
					<line class="st1" x1="144" y1="-102.2" x2="216.5" y2="-102.2"/>
					<line class="st1" x1="144" y1="-126.2" x2="216.5" y2="-126.2"/>
					<line class="st1" x1="144" y1="-90.2" x2="216.5" y2="-90.2"/>
					<line class="st1" x1="144" y1="-114.2" x2="216.5" y2="-114.2"/>
					<line class="st1" x1="144" y1="-138.2" x2="216.5" y2="-138.2"/>
				</g>
				<g>
					<line class="st1" x1="78.2" y1="-144.5" x2="78.2" y2="-72"/>
					<line class="st1" x1="102.2" y1="-144.5" x2="102.2" y2="-72"/>
					<line class="st1" x1="126.2" y1="-144.5" x2="126.2" y2="-72"/>
					<line class="st1" x1="72" y1="-78.2" x2="144.5" y2="-78.2"/>
					<line class="st1" x1="72" y1="-102.2" x2="144.5" y2="-102.2"/>
					<line class="st1" x1="72" y1="-126.2" x2="144.5" y2="-126.2"/>
					<line class="st1" x1="72" y1="-90.2" x2="144.5" y2="-90.2"/>
					<line class="st1" x1="72" y1="-114.2" x2="144.5" y2="-114.2"/>
					<line class="st1" x1="72" y1="-138.2" x2="144.5" y2="-138.2"/>
					<line class="st1" x1="90.2" y1="-144.5" x2="90.2" y2="-72"/>
					<line class="st1" x1="114.2" y1="-144.5" x2="114.2" y2="-72"/>
					<line class="st1" x1="138.2" y1="-144.5" x2="138.2" y2="-72"/>
				</g>
				<g>
					<line class="st1" x1="0" y1="-78.2" x2="72.5" y2="-78.2"/>
					<line class="st1" x1="0" y1="-102.2" x2="72.5" y2="-102.2"/>
					<line class="st1" x1="0" y1="-126.2" x2="72.5" y2="-126.2"/>
					<line class="st1" x1="0" y1="-90.2" x2="72.5" y2="-90.2"/>
					<line class="st1" x1="0" y1="-114.2" x2="72.5" y2="-114.2"/>
					<line class="st1" x1="0" y1="-138.2" x2="72.5" y2="-138.2"/>
				</g>
				<g>
					<line class="st1" x1="78.2" y1="-216.5" x2="78.2" y2="-144"/>
					<line class="st1" x1="102.2" y1="-216.5" x2="102.2" y2="-144"/>
					<line class="st1" x1="126.2" y1="-216.5" x2="126.2" y2="-144"/>
					<line class="st1" x1="90.2" y1="-216.5" x2="90.2" y2="-144"/>
					<line class="st1" x1="114.2" y1="-216.5" x2="114.2" y2="-144"/>
					<line class="st1" x1="138.2" y1="-216.5" x2="138.2" y2="-144"/>
				</g>
			</g>
		</g>
	</g>
</pattern>
<g id="streets">
	<g id="San_fernando">
		<line class="st2" x1="284.9" y1="142.9" x2="471.4" y2="24.9"/>
		<line class="st2" x1="297.3" y1="162.7" x2="505.7" y2="30.9"/>
		<polygon class="st0" points="460.8,56.5 317.2,147.6 310.3,136.9 453.9,45.8 		"/>
		<text transform="matrix(0.8481 -0.5299 0.5299 0.8481 337.2661 130.4937)" class="st3 st4 st5">San Fernando Street</text>
	</g>
	<g>
		<polygon class="st3" points="511.4,87.5 504.1,120.2 544.1,94.9 		"/>
		
			<rect x="487" y="62.1" transform="matrix(0.8238 -0.5669 0.5669 0.8238 45.1267 295.9727)" class="st0" width="23.3" height="26.6"/>
		<text transform="matrix(0.829 -0.5592 0.5592 0.829 496.3652 89.7178)" class="st3 st6 st7">N</text>
	</g>
	<g id="_x34_th_Street">
		<line class="st2" x1="311.8" y1="745.4" x2="144.5" y2="421.7"/>
		<line class="st2" x1="333.2" y1="735.8" x2="165.4" y2="411.1"/>
		
			<rect x="229.9" y="499.3" transform="matrix(0.8786 -0.4776 0.4776 0.8786 -245.3593 183.0779)" class="st0" width="15" height="149.6"/>
		<text transform="matrix(-0.4695 -0.8829 0.8829 -0.4695 249.3047 592.6307)" class="st3 st4 st8">Fourth Street</text>
	</g>
	<g id="SJSU_CAMPUS">
		<polygon class="st3" points="1179.3,734.5 1154.1,715.1 1159.9,759.7 		"/>
		
			<rect x="1127.1" y="671.8" transform="matrix(0.9858 -0.1678 0.1678 0.9858 -106.9223 201.6409)" class="st0" width="25.2" height="123.4"/>
		<text transform="matrix(0.1586 0.9873 -0.9873 0.1586 1137.0145 699.5504)" class="st3 st9 st10">SJSU Campus</text>
	</g>
	<g id="Elev_x2F_esc_x2F_stairs">
		<g>
			
				<rect x="778.2" y="483.4" transform="matrix(0.566 -0.8244 0.8244 0.566 -98.9536 890.5242)" class="st11" width="36.3" height="111.7"/>
			<g id="escalator_00000070833955443197976630000013030456594240933513_">
				<g>
					<g id="LINE_00000175300582530713307810000017250745887772802719_">
						<line class="st12" x1="792.5" y1="554.1" x2="744.8" y2="520.8"/>
					</g>
					<g id="LINE_00000005267804367376950950000017670766514589199234_">
						<line class="st12" x1="794.5" y1="556.1" x2="744.4" y2="521.2"/>
					</g>
					<g id="LINE_00000159459067434755131110000002485898742489299876_">
						<line class="st12" x1="802.6" y1="545.5" x2="752.5" y2="510.6"/>
					</g>
					<g id="LINE_00000071536289280342227040000002182415178206999192_">
						<line class="st12" x1="802.2" y1="545.9" x2="752.2" y2="511"/>
					</g>
					<g id="LINE_00000030484882570146493910000014068991845663544962_">
						<line class="st12" x1="799.8" y1="544.9" x2="792.7" y2="554.2"/>
					</g>
					<g id="LINE_00000034072640151112893940000007032175534048167310_">
						<line class="st12" x1="796.1" y1="542.3" x2="789" y2="551.6"/>
					</g>
					<g id="LINE_00000136393277021996936050000000778610375088511875_">
						<line class="st12" x1="792.6" y1="539.9" x2="785.5" y2="549.2"/>
					</g>
					<g id="LINE_00000163071281937567593120000008172368302590632083_">
						<line class="st12" x1="789.1" y1="537.4" x2="782.1" y2="546.8"/>
					</g>
					<g id="LINE_00000093150224269321470460000005923040872473435023_">
						<line class="st12" x1="775.3" y1="527.8" x2="768.2" y2="537.2"/>
					</g>
					<g id="LINE_00000054228373476672798010000001415340832261102243_">
						<line class="st12" x1="778.8" y1="530.2" x2="771.7" y2="539.6"/>
					</g>
					<g id="LINE_00000161620782950736678360000016702901872045779605_">
						<line class="st12" x1="782.3" y1="532.7" x2="775.2" y2="542"/>
					</g>
					<g id="LINE_00000053538539497337447050000000506436644559882125_">
						<line class="st12" x1="785.7" y1="535" x2="778.6" y2="544.4"/>
					</g>
					<g id="LINE_00000181060439717567883380000001328288601116817334_">
						<line class="st12" x1="771.4" y1="525.1" x2="764.3" y2="534.4"/>
					</g>
				</g>
			</g>
			<g>
				<g id="LINE_00000039129921965307840330000000916614772354171053_">
					<line class="st12" x1="802.8" y1="541.5" x2="755.2" y2="508.3"/>
				</g>
				<g id="LINE_00000183232263360243218000000014914434174736856766_">
					<line class="st12" x1="804.9" y1="543.6" x2="754.8" y2="508.7"/>
				</g>
				<g id="LINE_00000134971724595076770800000011634651582775166110_">
					<line class="st12" x1="812.9" y1="533" x2="762.8" y2="498.1"/>
				</g>
				<g id="LINE_00000139985550712778097390000011734148308922649757_">
					<line class="st12" x1="812.5" y1="533.3" x2="762.5" y2="498.5"/>
				</g>
				<g id="LINE_00000161615525219399362960000010358224361716366989_">
					<line class="st12" x1="810.2" y1="532.4" x2="803.1" y2="541.7"/>
				</g>
				<g id="LINE_00000050622520462115683830000014602163837273226142_">
					<line class="st12" x1="806.4" y1="529.8" x2="799.4" y2="539.1"/>
				</g>
				<g id="LINE_00000070816089196109457410000010050429523297744817_">
					<line class="st12" x1="803" y1="527.3" x2="795.9" y2="536.7"/>
				</g>
				<g id="LINE_00000099656406252343713910000000860961959387512708_">
					<line class="st12" x1="799.5" y1="524.9" x2="792.4" y2="534.3"/>
				</g>
				<g id="LINE_00000085228161180388642890000014117454962385211049_">
					<line class="st12" x1="785.7" y1="515.3" x2="778.6" y2="524.6"/>
				</g>
				<g id="LINE_00000111193638674697565340000010071611339552483741_">
					<line class="st12" x1="789.1" y1="517.7" x2="782.1" y2="527.1"/>
				</g>
				<g id="LINE_00000137818096606678954040000001279689764850617767_">
					<line class="st12" x1="792.6" y1="520.1" x2="785.5" y2="529.5"/>
				</g>
				<g id="LINE_00000072259355674821735480000002454678363656134551_">
					<line class="st12" x1="796.1" y1="522.5" x2="789" y2="531.9"/>
				</g>
				<g id="LINE_00000110452060786668643000000011488645479241716150_">
					<line class="st12" x1="781.7" y1="512.5" x2="774.7" y2="521.9"/>
				</g>
			</g>
		</g>
		<polyline id="elevator" class="st13" points="794.9,445.3 875.9,500 907.7,521.4 895.2,539.6 783.2,463.8 794.9,445.3 		"/>
		
			<rect x="877.4" y="464" transform="matrix(0.566 -0.8244 0.8244 0.566 -5.0939 959.1105)" class="st11" width="62" height="40.8"/>
		<g id="elevator_00000155118643947176890710000006878021629677294758_">
			<g id="LINE_4731_">
				<line class="st14" x1="812.6" y1="460.9" x2="798.4" y2="451.2"/>
			</g>
			<g id="LINE_4735_">
				<line class="st14" x1="803.8" y1="473.7" x2="800.5" y2="471.4"/>
			</g>
			<g id="LINE_4738_">
				<line class="st14" x1="793" y1="466.3" x2="789.6" y2="463.9"/>
			</g>
			<g id="LINE_4741_">
				<line class="st14" x1="812.6" y1="460.9" x2="803.8" y2="473.7"/>
			</g>
			<g id="LINE_4744_">
				<line class="st14" x1="813.2" y1="460.8" x2="798.3" y2="450.6"/>
			</g>
			<g id="LINE_4745_">
				<line class="st14" x1="812.7" y1="460.7" x2="798.5" y2="451"/>
			</g>
			<g id="LINE_4746_">
				<line class="st14" x1="798.4" y1="451.2" x2="789.6" y2="463.9"/>
			</g>
			<g id="LINE_4747_">
				<line class="st14" x1="798.8" y1="450.9" x2="798.6" y2="451.3"/>
			</g>
			<g id="LINE_4748_">
				<line class="st14" x1="812.7" y1="460.4" x2="812.4" y2="460.8"/>
			</g>
			<g id="LINE_00000023963411821320410900000009994663940296984221_">
				<line class="st14" x1="832.3" y1="474.4" x2="818.1" y2="464.7"/>
			</g>
			<g id="LINE_00000036243211870807232230000004294824485503304094_">
				<line class="st14" x1="823.5" y1="487.2" x2="820.1" y2="484.9"/>
			</g>
			<g id="LINE_00000021083911021367709180000006361326137356006789_">
				<line class="st14" x1="812.7" y1="479.7" x2="809.3" y2="477.4"/>
			</g>
			<g id="LINE_00000157305032477417135590000014763398251095956890_">
				<line class="st14" x1="832.3" y1="474.4" x2="823.5" y2="487.2"/>
			</g>
			<g id="LINE_00000061429359115443803660000001421681803928210091_">
				<line class="st14" x1="832.8" y1="474.3" x2="817.9" y2="464.1"/>
			</g>
			<g id="LINE_00000137096246246306441270000002996625498926383788_">
				<line class="st14" x1="832.4" y1="474.2" x2="818.2" y2="464.5"/>
			</g>
			<g id="LINE_00000172415491339264399940000003389993333652483473_">
				<line class="st14" x1="818.1" y1="464.7" x2="809.3" y2="477.4"/>
			</g>
			<g id="LINE_00000182499327570779227240000011350039420364845744_">
				<line class="st14" x1="851.9" y1="487.9" x2="837.7" y2="478.1"/>
			</g>
			<g id="LINE_00000137827711904242877120000013475160053294783399_">
				<line class="st14" x1="843.1" y1="500.7" x2="839.8" y2="498.4"/>
			</g>
			<g id="LINE_00000110430310769929994080000003016575270157341115_">
				<line class="st14" x1="832.3" y1="493.2" x2="828.9" y2="490.9"/>
			</g>
			<g id="LINE_00000001632994639779474680000017729122945952289951_">
				<line class="st14" x1="851.9" y1="487.9" x2="843.1" y2="500.7"/>
			</g>
			<g id="LINE_00000101093348003495924100000015220336780324354982_">
				<line class="st14" x1="852.5" y1="487.8" x2="837.6" y2="477.6"/>
			</g>
			<g id="LINE_00000123417822785358762020000005155066374409787060_">
				<line class="st14" x1="852" y1="487.7" x2="837.8" y2="478"/>
			</g>
			<g id="LINE_00000001631246263749752440000010237371117853874571_">
				<line class="st14" x1="837.7" y1="478.1" x2="828.9" y2="490.9"/>
			</g>
			<g id="LINE_00000086666489933795298720000013289038007283657891_">
				<line class="st14" x1="871.6" y1="501.4" x2="857.4" y2="491.6"/>
			</g>
			<g id="LINE_00000010286446039431400240000004179056468150093201_">
				<line class="st14" x1="862.8" y1="514.2" x2="859.4" y2="511.8"/>
			</g>
			<g id="LINE_00000078723507910867709110000003996737817167854731_">
				<line class="st14" x1="852" y1="506.7" x2="848.6" y2="504.4"/>
			</g>
			<g id="LINE_00000084494013187931397180000013021804154882057626_">
				<line class="st14" x1="871.6" y1="501.4" x2="862.8" y2="514.2"/>
			</g>
			<g id="LINE_00000103244059294916214250000010451246233931379622_">
				<line class="st14" x1="872.2" y1="501.3" x2="857.3" y2="491.1"/>
			</g>
			<g id="LINE_00000102513105850367397460000008568563727976591525_">
				<line class="st14" x1="871.7" y1="501.2" x2="857.5" y2="491.5"/>
			</g>
			<g id="LINE_00000077294377489538548660000017451036063543871892_">
				<line class="st14" x1="857.4" y1="491.6" x2="848.6" y2="504.4"/>
			</g>
			<g id="LINE_00000084502092826103097570000007421885943408696208_">
				<line class="st14" x1="891.2" y1="514.9" x2="877" y2="505.1"/>
			</g>
			<g id="LINE_00000054242181457467428560000001838774522505732244_">
				<line class="st14" x1="882.4" y1="527.7" x2="879.1" y2="525.3"/>
			</g>
			<g id="LINE_00000038399793835736963570000006870936880396350634_">
				<line class="st14" x1="871.6" y1="520.2" x2="868.2" y2="517.9"/>
			</g>
			<g id="LINE_00000085233646092173888780000001954179608992735126_">
				<line class="st14" x1="891.2" y1="514.9" x2="882.4" y2="527.7"/>
			</g>
			<g id="LINE_00000140724683986225496660000005009668492149025922_">
				<line class="st14" x1="891.8" y1="514.8" x2="876.9" y2="504.5"/>
			</g>
			<g id="LINE_00000009576526774020755230000003960706048185272964_">
				<line class="st14" x1="891.3" y1="514.7" x2="877.1" y2="505"/>
			</g>
			<g id="LINE_00000142166729456088507190000006205798940652332981_">
				<line class="st14" x1="877" y1="505.1" x2="868.2" y2="517.9"/>
			</g>
		</g>
	</g>
	<g id="stairs">
		<g>
			<polygon class="st15" points="894.8,478 894.8,478 894.8,478 888.2,487.4 881.5,496.9 903.6,512.3 910.2,502.9 897.6,494.1 
				904.3,484.6 916.9,493.4 923.5,484 901.4,468.5 			"/>
			<line class="st15" x1="907.1" y1="500.7" x2="900.5" y2="510.1"/>
			<line class="st15" x1="903.9" y1="498.5" x2="897.3" y2="507.9"/>
			<line class="st15" x1="900.8" y1="496.3" x2="894.2" y2="505.7"/>
			<line class="st15" x1="913.7" y1="491.2" x2="920.3" y2="481.8"/>
			<line class="st15" x1="910.6" y1="489" x2="917.2" y2="479.6"/>
			<line class="st15" x1="907.4" y1="486.8" x2="914" y2="477.4"/>
			<line class="st15" x1="904.3" y1="484.6" x2="894.8" y2="478"/>
			<line class="st15" x1="902.1" y1="487.8" x2="892.6" y2="481.1"/>
			<line class="st15" x1="899.8" y1="490.9" x2="890.4" y2="484.3"/>
			<line class="st15" x1="897.6" y1="494.1" x2="888.2" y2="487.4"/>
			<line class="st15" x1="910.9" y1="475.2" x2="904.3" y2="484.6"/>
			<line class="st15" x1="910.9" y1="475.2" x2="891" y2="503.5"/>
			<polyline class="st15" points="906.9,507.6 889.3,495.3 902.5,476.4 917.8,487 			"/>
			<polygon class="st16" points="920.1,488.7 918.2,486.4 917.8,487 917.3,487.7 			"/>
			<path class="st16" d="M906.6,508.2c0.3,0.2,0.7,0.1,0.9-0.2c0.2-0.3,0.1-0.7-0.2-0.9c-0.3-0.2-0.7-0.1-0.9,0.2
				C906.2,507.6,906.3,508,906.6,508.2z"/>
		</g>
	</g>
</g>
<g id="Third">
	<g id="grey_area">
		<text transform="matrix(1 0 0 1 776.4579 623.9045)" class="st17 st8">Public PCs </text>
		<text transform="matrix(1 0 0 1 793.4579 636.9045)" class="st17 st8">1–14</text>
		<text transform="matrix(1 0 0 1 885.3863 718.4085)" class="st17 st8">Public PCs </text>
		<text transform="matrix(1 0 0 1 898.9863 735.2085)" class="st17 st8">15–38</text>
		<text transform="matrix(1 0 0 1 511.5703 437.7624)" class="st17 st8">Public PCs </text>
		<text transform="matrix(1 0 0 1 525.1703 454.5624)" class="st17 st8">39–48</text>
	</g>
	<g id="Layer_1_00000090275711455516524540000017947332905101037243_">
		
			<rect x="496.3" y="607.4" transform="matrix(0.5597 -0.8287 0.8287 0.5597 -310.3161 709.0323)" class="st18" width="31.5" height="78.3"/>
		
			<pattern  id="SVGID_00000177475387264686125410000012409168700857549749_" xlink:href="#SVGID_1_" patternTransform="matrix(1 0 0 1 9.4 17668.2207)">
		</pattern>
		
			<polyline style="fill:url(#SVGID_00000177475387264686125410000012409168700857549749_);stroke:#000000;stroke-width:0.75;stroke-miterlimit:10;" points="
			1062,840.6 962,767.9 915.4,837.5 762.2,734 713.8,805.6 635.4,850.7 664.3,903.4 664.3,902.4 767.9,840.3 900.6,933.5 
			1062,840.6 1031.4,817 		"/>
		<line class="st20" x1="505.9" y1="661.4" x2="523.4" y2="635.3"/>
	</g>
	<g id="Grey_region">
		<polygon id="rm_326_00000075152064380573213240000009679405697593660056_" class="st21" points="564.2,337.1 590,356.4 
			613.2,322.1 585.7,302.2 		"/>
		<polygon id="rm_324_00000039835923334481448410000015383338523932700858_" class="st21" points="613.2,322.1 590,356.4 
			619.4,376.6 641.6,344 		"/>
		<polygon id="teen_center_00000021802817220113575140000001491204664576999837_" class="st21" points="585.7,302.2 682.8,142.9 
			683.8,141.3 742.2,243.1 666.8,362.6 641.6,344 613.2,322.1 		"/>
		<polygon id="rm_322_00000075156992079187624480000002698346545541375115_" class="st21" points="619.4,376.6 646.1,396 
			666.8,362.6 641.6,344 		"/>
	</g>
	<g id="text_00000057858139496051386430000007918779387291347332_">
		<g id="Light_wells">
			<polygon class="st22" points="532.6,681.4 577.7,757 616,698.7 555.7,655.7 			"/>
			<polygon class="st22" points="813.1,425 740.7,367.4 784.9,313.5 833.5,395.3 			"/>
		</g>
		
			<rect id="atrium_00000031201344178397112830000013637615835338171285_" x="678.5" y="479.9" transform="matrix(0.575 -0.8182 0.8182 0.575 -150.9306 822.6628)" class="st23" width="75.6" height="153.3"/>
		<rect x="683.9" y="547.4" class="st0" width="59.2" height="14"/>
		<text transform="matrix(1 0 0 1 693.2733 557.342)" class="st17 st8">Atrium</text>
		<rect x="624.7" y="262.5" class="st0" width="78.5" height="32.6"/>
		<text transform="matrix(1 0 0 1 647.53 273.8672)" class="st17 st24">Teen</text>
		<text transform="matrix(1 0 0 1 641.63 293.0672)" class="st17 st24">Center</text>
		<rect x="675" y="567.2" class="st0" width="59.4" height="10.1"/>
		<rect x="577.6" y="327.5" class="st0" width="19.8" height="10.1"/>
		<text transform="matrix(1 0 0 1 578.2825 335.9733)" class="st17 st25">326</text>
		<rect x="603.3" y="347.4" class="st0" width="19.8" height="10.1"/>
		<text transform="matrix(1 0 0 1 603.9376 355.8912)" class="st17 st25">324</text>
		<rect x="631.7" y="368.2" class="st0" width="19.8" height="10.1"/>
		<text transform="matrix(1 0 0 1 632.3582 376.7043)" class="st17 st25">322</text>
		<rect x="517.4" y="651.2" class="st0" width="24.6" height="10.2"/>
		<text transform="matrix(1 0 0 1 518.9303 661.1663)" class="st17 st8">392</text>
		
			<rect x="487.8" y="630.2" transform="matrix(0.9981 -6.156013e-02 6.156013e-02 0.9981 -38.1605 31.9911)" class="st0" width="24.6" height="10.2"/>
		<text transform="matrix(0.9981 -6.156000e-02 6.156000e-02 0.9981 489.577 640.7275)" class="st17 st8">390</text>
		<rect x="102.4" y="42.6" class="st0" width="176.3" height="281.8"/>
		<text transform="matrix(1 0 0 1 102.3629 257.373)" class="st26 st27 st28 st29">3</text>
		<rect x="0.1" y="51.5" class="st0" width="300.4" height="54.6"/>
		<text transform="matrix(1 0 0 1 7.461548e-02 85.9061)" class="st27 st30">Third Floor</text>
		
			<rect x="939" y="499.3" transform="matrix(0.5625 -0.8268 0.8268 0.5625 -15.8377 1039.7156)" class="st31" width="71" height="71"/>
	</g>
	<g>
		<polyline class="st32" points="1000.5,708.1 958.5,769.2 1060,840.6 900.9,934.4 764.8,841 660.9,902.2 529.5,679.4 333.3,544.7 
			333.2,544.7 394.1,457.7 303.1,295.5 302.4,294.6 481.2,196.2 484.4,155.8 511.5,176.3 649.8,85.9 650.3,85.3 832.6,394.5 
			797.8,445.1 874,497.4 908.6,447.1 1153.1,613.7 1001.8,706.6 		"/>
	</g>
	
		<rect x="417" y="541.3" transform="matrix(0.5463 -0.8376 0.8376 0.5463 -279.513 646.3581)" class="st33" width="79.8" height="79.8"/>
</g>
<g id="exits_x2C__restrooms">
	<g>
		<g id="Layer_2_00000100379365373932730910000008321279187435210885_">
			<g id="Image_64">
				<g id="Ellipse_1_copy_9">
					<circle class="st34" cx="472.9" cy="563.9" r="14.4"/>
				</g>
			</g>
		</g>
		<g id="Layer_1_00000043417269205140031930000013075138157533666726_">
			<g>
				<g>
					<g>
						<path class="st35" d="M466.3,558.3c0.8,0,1.5-0.7,1.5-1.5s-0.7-1.4-1.5-1.4s-1.5,0.6-1.5,1.4
							C464.8,557.6,465.5,558.3,466.3,558.3z"/>
						<path class="st35" d="M468.2,558.6h-3.7c-0.9,0-1.6,0.7-1.6,1.6v4.6c0,0.3,0.3,0.6,0.6,0.6c0.3,0,0.6-0.3,0.6-0.6v-4h0.3v4.6
							v6.2c0,0.5,0.4,0.8,0.8,0.8c0.5,0,0.8-0.4,0.8-0.8v-6.2h0.4v6.2c0,0.5,0.4,0.8,0.8,0.8c0.5,0,0.8-0.4,0.8-0.8v-6.2v-4.6h0.3v4
							c0,0.3,0.3,0.6,0.6,0.6c0.3,0,0.6-0.3,0.6-0.6v-4.6C469.8,559.3,469.1,558.6,468.2,558.6z"/>
					</g>
					<g>
						<path class="st35" d="M478.9,558.3c0.8,0,1.5-0.7,1.5-1.5s-0.7-1.5-1.5-1.5c-0.8,0.1-1.5,0.7-1.5,1.5S478.1,558.3,478.9,558.3
							z"/>
						<path class="st35" d="M482.8,564l-1.2-4.3c-0.3-0.8-0.9-1.1-1.8-1.1l0,0h-2l0,0c-0.9,0-1.5,0.3-1.8,1.1l-1.2,4.3
							c-0.1,0.3,0.1,0.6,0.4,0.7c0.3,0.1,0.6-0.1,0.7-0.3l1.1-3.8h0.3l-1.9,6.5h1.8v4.7c0,0.4,0.3,0.7,0.7,0.7s0.7-0.3,0.7-0.7v-4.7
							h0.3v4.7c0,0.4,0.3,0.7,0.7,0.7c0.4,0,0.7-0.3,0.7-0.7v-4.7h1.8l-1.8-6.6h0.3l1.1,3.8c0.1,0.3,0.4,0.4,0.7,0.3
							C482.7,564.5,482.9,564.2,482.8,564z"/>
					</g>
				</g>
				<rect x="472.1" y="555.4" class="st35" width="1.6" height="17"/>
			</g>
		</g>
	</g>
	<g>
		<g id="Layer_1_00000042702974373661500170000003668872372288945812_">
			<g id="Layer_2_00000109017616333713485160000009889481783568913028_">
				<g id="Image_29">
					<g id="Ellipse_1_copy_2">
						<circle class="st36" cx="702" cy="205" r="14.4"/>
					</g>
				</g>
			</g>
		</g>
		<g>
			<g>
				<path class="st35" d="M710.2,196.3l-5-1.7c-0.3-0.1-0.6,0.1-0.6,0.4v1.3h-4.9c-0.2,0-0.4,0.2-0.4,0.4v1.5c0.3,0,0.5,0.1,0.8,0.2
					v-1.3h4.4v15.3h-3v0.2c0,0.2,0.1,0.4,0,0.6h2.9v1.3c0,0.3,0.3,0.6,0.6,0.5l5-1.7c0.2-0.1,0.3-0.2,0.3-0.4v-16.1
					C710.5,196.5,710.4,196.3,710.2,196.3z"/>
				<g>
					<g>
						<path class="st35" d="M692,211.7h3.2c0.4,0,0.8-0.3,0.9-0.7l0.3-1.3l-1.6-1.3l0,0l-0.4,1.4H692c-0.5,0-1,0.4-1,1
							C691.1,211.3,691.5,211.7,692,211.7z"/>
						<path class="st35" d="M699.4,202.5c0.9-0.2,1.5-1.1,1.2-2c-0.2-0.9-1.1-1.5-2-1.2c-0.9,0.2-1.5,1.1-1.2,2
							C697.6,202.1,698.5,202.7,699.4,202.5z"/>
						<path class="st35" d="M693.3,206.5c0.4,0.2,0.9,0,1-0.4l0.6-1.4l0.9-0.3l-0.7,2.8c-0.1,0.4,0,0.7,0.3,1l2.7,2.2l0.7,2.9
							c0.1,0.4,0.5,0.7,0.9,0.7c0.1,0,0.2,0,0.2,0c0.5-0.1,0.8-0.6,0.7-1.2l-0.8-3.2c0-0.2-0.2-0.4-0.3-0.5l-1.7-1.4l0.9-2.4
							l0.9,1.1c0.2,0.2,0.4,0.3,0.6,0.3c0.1,0,0.3,0,0.4-0.1l1.6-1c0.4-0.2,0.5-0.7,0.3-1.1c-0.2-0.4-0.7-0.5-1.1-0.3l-1,0.6l-0.9-1
							c-0.2-0.3-0.5-0.5-0.9-0.6l-1.4-0.5c-0.4-0.2-0.9-0.2-1.3,0l-1.9,0.6c-0.2,0.1-0.4,0.2-0.5,0.4l-0.8,1.8
							C692.7,205.9,692.9,206.3,693.3,206.5z"/>
					</g>
				</g>
			</g>
		</g>
	</g>
	<g>
		<g id="Layer_1_00000042007272843511667690000008406306761235619238_">
			<g id="Layer_2_00000022556735553191659450000005795340208093633970_">
				<g id="Image_29_00000173841480334063734140000011531086694327245201_">
					<g id="Ellipse_1_copy_2_00000107550855543152140580000014742607775612015036_">
						<circle class="st36" cx="932" cy="465.9" r="14.4"/>
					</g>
				</g>
			</g>
		</g>
		<g>
			<g>
				<path class="st35" d="M940.2,457.1l-5-1.7c-0.3-0.1-0.6,0.1-0.6,0.4v1.3h-4.9c-0.2,0-0.4,0.2-0.4,0.4v1.5c0.3,0,0.5,0.1,0.8,0.2
					v-1.3h4.4v15.3h-3v0.2c0,0.2,0.1,0.4,0,0.6h2.9v1.3c0,0.3,0.3,0.6,0.6,0.5l5-1.7c0.2-0.1,0.3-0.2,0.3-0.4v-16.1
					C940.5,457.3,940.4,457.1,940.2,457.1z"/>
				<g>
					<g>
						<path class="st35" d="M921.9,472.5h3.2c0.4,0,0.8-0.3,0.9-0.7l0.3-1.3l-1.6-1.3l0,0l-0.4,1.4h-2.5c-0.5,0-1,0.4-1,1
							C921,472.1,921.4,472.5,921.9,472.5z"/>
						<path class="st35" d="M929.3,463.3c0.9-0.2,1.5-1.1,1.2-2c-0.2-0.9-1.1-1.5-2-1.2c-0.9,0.2-1.5,1.1-1.2,2
							C927.5,463,928.4,463.5,929.3,463.3z"/>
						<path class="st35" d="M923.2,467.3c0.4,0.2,0.9,0,1-0.4l0.6-1.4l0.9-0.3L925,468c-0.1,0.4,0,0.7,0.3,1l2.7,2.2l0.7,2.9
							c0.1,0.4,0.5,0.7,0.9,0.7c0.1,0,0.2,0,0.2,0c0.5-0.1,0.8-0.6,0.7-1.2l-0.8-3.2c0-0.2-0.2-0.4-0.3-0.5l-1.7-1.4l0.9-2.4
							l0.9,1.1c0.2,0.2,0.4,0.3,0.6,0.3c0.1,0,0.3,0,0.4-0.1l1.6-1c0.4-0.2,0.5-0.7,0.3-1.1s-0.7-0.5-1.1-0.3l-1,0.6l-0.9-1
							c-0.2-0.3-0.5-0.5-0.9-0.6l-1.4-0.5c-0.4-0.2-0.9-0.2-1.3,0l-1.9,0.6c-0.2,0.1-0.4,0.2-0.5,0.4l-0.8,1.8
							C922.6,466.7,922.8,467.2,923.2,467.3z"/>
					</g>
				</g>
			</g>
		</g>
	</g>
	<g>
		<g id="Layer_1_00000019663380885152700260000017736699896416463545_">
			<g id="Layer_2_00000150801938894541612660000009455676156958400433_">
				<g id="Image_29_00000049214467997389285920000008911158312051820730_">
					<g id="Ellipse_1_copy_2_00000160154265438407168590000015565595157570235035_">
						<circle class="st36" cx="423.8" cy="587.7" r="14.4"/>
					</g>
				</g>
			</g>
		</g>
		<g>
			<g>
				<path class="st35" d="M432,578.9l-5-1.7c-0.3-0.1-0.6,0.1-0.6,0.4v1.3h-4.9c-0.2,0-0.4,0.2-0.4,0.4v1.5c0.3,0,0.5,0.1,0.8,0.2
					v-1.3h4.4V595h-3v0.2c0,0.2,0.1,0.4,0,0.6h2.9v1.3c0,0.3,0.3,0.6,0.6,0.5l5-1.7c0.2-0.1,0.3-0.2,0.3-0.4v-16.1
					C432.3,579.1,432.2,578.9,432,578.9z"/>
				<g>
					<g>
						<path class="st35" d="M413.7,594.3h3.2c0.4,0,0.8-0.3,0.9-0.7l0.3-1.3l-1.6-1.3l0,0l-0.4,1.4h-2.5c-0.5,0-1,0.4-1,1
							C412.8,593.9,413.2,594.3,413.7,594.3z"/>
						<path class="st35" d="M421.1,585.1c0.9-0.2,1.5-1.1,1.2-2c-0.2-0.9-1.1-1.5-2-1.2c-0.9,0.2-1.5,1.1-1.2,2
							C419.3,584.8,420.2,585.3,421.1,585.1z"/>
						<path class="st35" d="M415,589.1c0.4,0.2,0.9,0,1-0.4l0.6-1.4l0.9-0.3l-0.7,2.8c-0.1,0.4,0,0.7,0.3,1l2.7,2.2l0.7,2.9
							c0.1,0.4,0.5,0.7,0.9,0.7c0.1,0,0.2,0,0.2,0c0.5-0.1,0.8-0.6,0.7-1.2l-0.8-3.2c0-0.2-0.2-0.4-0.3-0.5l-1.7-1.4l0.9-2.4
							l0.9,1.1c0.2,0.2,0.4,0.3,0.6,0.3c0.1,0,0.3,0,0.4-0.1l1.6-1c0.4-0.2,0.5-0.7,0.3-1.1c-0.2-0.4-0.7-0.5-1.1-0.3l-1,0.6l-0.9-1
							c-0.2-0.3-0.5-0.5-0.9-0.6l-1.4-0.5c-0.4-0.2-0.9-0.2-1.3,0l-1.9,0.6c-0.2,0.1-0.4,0.2-0.5,0.4l-0.8,1.8
							C414.4,588.5,414.6,589,415,589.1z"/>
					</g>
				</g>
			</g>
		</g>
	</g>
	<g>
		<g id="Layer_2_00000090287708573909370120000015528676360269084048_">
			<g id="Image_64_00000056429901070639207310000000004013371461789362_">
				<g id="Ellipse_1_copy_9_00000126283228105064793040000007157497871469456054_">
					<circle class="st34" cx="973.5" cy="533.4" r="14.4"/>
				</g>
			</g>
		</g>
		<g id="Layer_1_00000035518951821911710160000001908990774452682385_">
			<g>
				<g>
					<g>
						<path class="st35" d="M966.9,527.8c0.8,0,1.5-0.7,1.5-1.5s-0.7-1.4-1.5-1.4s-1.5,0.6-1.5,1.4
							C965.4,527.1,966.1,527.8,966.9,527.8z"/>
						<path class="st35" d="M968.8,528.1h-3.7c-0.9,0-1.6,0.7-1.6,1.6v4.6c0,0.3,0.3,0.6,0.6,0.6s0.6-0.3,0.6-0.6v-4h0.3v4.6v6.2
							c0,0.5,0.4,0.8,0.8,0.8c0.5,0,0.8-0.4,0.8-0.8v-6.2h0.4v6.2c0,0.5,0.4,0.8,0.8,0.8c0.5,0,0.8-0.4,0.8-0.8v-6.2v-4.6h0.3v4
							c0,0.3,0.3,0.6,0.6,0.6s0.6-0.3,0.6-0.6v-4.6C970.4,528.8,969.7,528.1,968.8,528.1z"/>
					</g>
					<g>
						<path class="st35" d="M979.5,527.8c0.8,0,1.5-0.7,1.5-1.5s-0.7-1.5-1.5-1.5c-0.8,0.1-1.5,0.7-1.5,1.5S978.7,527.8,979.5,527.8
							z"/>
						<path class="st35" d="M983.5,533.5l-1.2-4.3c-0.3-0.8-0.9-1.1-1.8-1.1l0,0h-2l0,0c-0.9,0-1.5,0.3-1.8,1.1l-1.2,4.3
							c-0.1,0.3,0.1,0.6,0.4,0.7c0.3,0.1,0.6-0.1,0.7-0.3l1.1-3.8h0.3l-1.9,6.5h1.8v4.7c0,0.4,0.3,0.7,0.7,0.7s0.7-0.3,0.7-0.7v-4.7
							h0.3v4.7c0,0.4,0.3,0.7,0.7,0.7s0.7-0.3,0.7-0.7v-4.7h1.8L981,530h0.3l1.1,3.8c0.1,0.3,0.4,0.4,0.7,0.3
							C983.4,534,983.6,533.7,983.5,533.5z"/>
					</g>
				</g>
				<rect x="972.7" y="524.9" class="st35" width="1.6" height="17"/>
			</g>
		</g>
	</g>
</g>
<rect id="ref_desk" x="577.8" y="461.4" transform="matrix(0.8669 -0.4984 0.4984 0.8669 -160.2119 363.6731)" class="st37" width="46.4" height="41"/>
</svg>
