<?xml version="1.0" encoding="utf-8"?>
<!-- Generator: Adobe Illustrator 28.0.0, SVG Export Plug-In . SVG Version: 6.00 Build 0)  -->
<svg version="1.1" xmlns="http://www.w3.org/2000/svg" xmlns:xlink="http://www.w3.org/1999/xlink" x="0px" y="0px"
	 viewBox="0 0 1282 975" style="enable-background:new 0 0 1282 975;" xml:space="preserve">
<style type="text/css">
	.st0{fill:none;}
	.st1{fill:none;stroke:#231F20;stroke-width:0.3;}
	.st2{fill:#FFFFFF;stroke:#000000;stroke-miterlimit:10;}
	.st3{fill:#A2C9EA;}
	.st4{font-family:'ArialNarrow-Bold';}
	.st5{font-size:33.4957px;}
	.st6{fill:#A2C9EA;stroke:#A2C9EA;stroke-miterlimit:10;}
	.st7{font-family:'Arial-ItalicMT';}
	.st8{font-size:14px;}
	.st9{font-family:'ArialNarrow-Italic';}
	.st10{font-size:14.6418px;}
	.st11{fill:#F5F5C8;stroke:#000000;stroke-miterlimit:10;}
	.st12{fill:url(#Grid_1_pica_Lines);stroke:#000000;stroke-miterlimit:10;}
	.st13{fill:#E5E5E5;stroke:#000000;stroke-miterlimit:10;}
	.st14{fill:#C3DAEA;stroke:#000000;stroke-miterlimit:10;}
	.st15{fill:#EAC16E;stroke:#000000;stroke-miterlimit:10;}
	.st16{fill:#C4EBF7;stroke:#000000;stroke-miterlimit:10;}
	.st17{display:none;}
	.st18{display:inline;fill:none;}
	.st19{display:inline;}
	.st20{font-family:'MyriadPro-Regular';}
	.st21{font-size:12px;}
	.st22{font-size:9px;}
	.st23{font-size:8px;}
	.st24{display:inline;fill:#E4F2F9;}
	.st25{font-family:'Arial-BoldMT';}
	.st26{font-size:300px;}
	.st27{letter-spacing:7;}
	.st28{font-size:48px;}
	.st29{font-size:21px;}
	.st30{fill:#C60606;stroke:#000000;stroke-miterlimit:10;}
	.st31{fill:#FFFFFF;}
	.st32{fill:#146EDC;stroke:#000000;stroke-miterlimit:10;}
	.st33{fill:#785AA0;stroke:#000000;stroke-miterlimit:10;}
	.st34{fill:#785AA0;}
	.st35{font-family:'Verdana-Bold';}
	.st36{font-size:11px;}
	.st37{fill:#F9E235;stroke:#000000;stroke-miterlimit:10;}
	.st38{fill:#F46F14;stroke:#000000;stroke-miterlimit:10;}
	.st39{fill:none;stroke:#FFFFFF;stroke-miterlimit:10;}
	.st40{stroke:#FFFFFF;stroke-miterlimit:10;}
</style>
<pattern  x="75" y="975" width="72" height="72" patternUnits="userSpaceOnUse" id="Grid_1_pica_Lines" viewBox="72.2 -144.2 72 72" style="overflow:visible;">
	<g>
		<rect x="72.2" y="-144.2" class="st0" width="72" height="72"/>
		<g>
			<line class="st1" x1="78.2" y1="-72.5" x2="78.2" y2="0"/>
			<line class="st1" x1="102.2" y1="-72.5" x2="102.2" y2="0"/>
			<line class="st1" x1="126.2" y1="-72.5" x2="126.2" y2="0"/>
			<line class="st1" x1="90.2" y1="-72.5" x2="90.2" y2="0"/>
			<line class="st1" x1="114.2" y1="-72.5" x2="114.2" y2="0"/>
			<line class="st1" x1="138.2" y1="-72.5" x2="138.2" y2="0"/>
		</g>
		<g>
			<line class="st1" x1="144" y1="-78.2" x2="216.5" y2="-78.2"/>
			<line class="st1" x1="144" y1="-102.2" x2="216.5" y2="-102.2"/>
			<line class="st1" x1="144" y1="-126.2" x2="216.5" y2="-126.2"/>
			<line class="st1" x1="144" y1="-90.2" x2="216.5" y2="-90.2"/>
			<line class="st1" x1="144" y1="-114.2" x2="216.5" y2="-114.2"/>
			<line class="st1" x1="144" y1="-138.2" x2="216.5" y2="-138.2"/>
		</g>
		<g>
			<line class="st1" x1="78.2" y1="-144.5" x2="78.2" y2="-72"/>
			<line class="st1" x1="102.2" y1="-144.5" x2="102.2" y2="-72"/>
			<line class="st1" x1="126.2" y1="-144.5" x2="126.2" y2="-72"/>
			<line class="st1" x1="72" y1="-78.2" x2="144.5" y2="-78.2"/>
			<line class="st1" x1="72" y1="-102.2" x2="144.5" y2="-102.2"/>
			<line class="st1" x1="72" y1="-126.2" x2="144.5" y2="-126.2"/>
			<line class="st1" x1="72" y1="-90.2" x2="144.5" y2="-90.2"/>
			<line class="st1" x1="72" y1="-114.2" x2="144.5" y2="-114.2"/>
			<line class="st1" x1="72" y1="-138.2" x2="144.5" y2="-138.2"/>
			<line class="st1" x1="90.2" y1="-144.5" x2="90.2" y2="-72"/>
			<line class="st1" x1="114.2" y1="-144.5" x2="114.2" y2="-72"/>
			<line class="st1" x1="138.2" y1="-144.5" x2="138.2" y2="-72"/>
		</g>
		<g>
			<line class="st1" x1="0" y1="-78.2" x2="72.5" y2="-78.2"/>
			<line class="st1" x1="0" y1="-102.2" x2="72.5" y2="-102.2"/>
			<line class="st1" x1="0" y1="-126.2" x2="72.5" y2="-126.2"/>
			<line class="st1" x1="0" y1="-90.2" x2="72.5" y2="-90.2"/>
			<line class="st1" x1="0" y1="-114.2" x2="72.5" y2="-114.2"/>
			<line class="st1" x1="0" y1="-138.2" x2="72.5" y2="-138.2"/>
		</g>
		<g>
			<line class="st1" x1="78.2" y1="-216.5" x2="78.2" y2="-144"/>
			<line class="st1" x1="102.2" y1="-216.5" x2="102.2" y2="-144"/>
			<line class="st1" x1="126.2" y1="-216.5" x2="126.2" y2="-144"/>
			<line class="st1" x1="90.2" y1="-216.5" x2="90.2" y2="-144"/>
			<line class="st1" x1="114.2" y1="-216.5" x2="114.2" y2="-144"/>
			<line class="st1" x1="138.2" y1="-216.5" x2="138.2" y2="-144"/>
		</g>
	</g>
</pattern>
<g id="Base_grey">
	<polygon class="st2" points="638.5,27.8 496,143.1 470.4,131.3 470.4,161.1 314.7,268.4 393.5,446.9 336.5,539 519,684 
		681.5,888.2 753,843.7 921.7,945.8 1068.2,843.7 935.6,766.7 975.2,708.3 1150.2,602.8 916.9,441 871.1,496.3 799.9,450.2 
		843.6,384.6 	"/>
</g>
<g id="north">
	<g>
		<polygon class="st3" points="498.2,84 490.9,116.7 530.9,91.4 		"/>
		
			<rect x="477.6" y="58.2" transform="matrix(0.829 -0.5592 0.5592 0.829 43.6932 285.8333)" class="st0" width="23.3" height="26.6"/>
		<text transform="matrix(0.829 -0.5592 0.5592 0.829 487.0425 85.9008)" class="st3 st4 st5">N</text>
	</g>
</g>
<g id="street">
	<g id="san_fernando">
		<line class="st6" x1="270.5" y1="137.7" x2="457" y2="19.7"/>
		<line class="st6" x1="282.9" y1="157.6" x2="491.3" y2="25.7"/>
		<rect x="308" y="76.1" transform="matrix(0.848 -0.5299 0.5299 0.848 13.8444 215.5576)" class="st0" width="149.6" height="15"/>
		<text transform="matrix(0.8481 -0.5299 0.5299 0.8481 320.7148 125.4398)" class="st3 st7 st8">San Fernando Street</text>
	</g>
	<g id="_x34_th_street">
		<line class="st6" x1="297.3" y1="740.2" x2="130.1" y2="416.5"/>
		<line class="st6" x1="318.7" y1="730.6" x2="150.9" y2="405.9"/>
		
			<rect x="214.7" y="491.3" transform="matrix(0.8829 -0.4695 0.4695 0.8829 -239.7564 170.5556)" class="st0" width="15" height="149.6"/>
		<text transform="matrix(-0.4695 -0.8829 0.8829 -0.4695 244.5853 602.8082)" class="st3 st7 st8">Fourth Street</text>
	</g>
	<g id="sjsu_campus">
		<polygon class="st3" points="1226,724.1 1200.8,704.7 1206.6,749.3 		"/>
		
			<rect x="1171.5" y="666.9" transform="matrix(0.9873 -0.1586 0.1586 0.9873 -100.5673 197.0239)" class="st0" width="25.2" height="123.4"/>
		<text transform="matrix(0.1586 0.9873 -0.9873 0.1586 1180.0422 689.3362)" class="st3 st9 st10">SJSU Campus</text>
	</g>
</g>
<g id="yellow_region">
	<polygon id="harvesting_collection" class="st11" points="630.8,60.2 334.5,286.7 375,367.8 640.9,201.1 675.8,128.4 	"/>
	<polygon id="career_collection" class="st11" points="519.5,292.6 490.8,334.3 671.1,469.4 699.4,429.9 	"/>
	<polygon id="international_languages" class="st11" points="480.5,349.2 433.3,422.3 471.5,451.9 520.8,383.3 	"/>
	<polygon id="teen_collection" class="st11" points="692.2,367.8 675.8,395.4 706.1,417.8 723.6,389.5 	"/>
	<polygon id="near_non_-_fiction" class="st11" points="421.7,437.5 399.7,476.1 436.5,503.9 462.1,467.5 	"/>
	<polygon id="corner_-_3" class="st11" points="394.3,483.8 361.5,537.2 397.4,561.8 430.9,514.3 	"/>
	<polygon id="near_light_well-2" class="st11" points="514.1,576.2 496.2,603.1 555.8,645.7 575.6,622.8 	"/>
	<polygon id="non-fiction" class="st11" points="443.2,515.2 466.1,481.5 906.2,785.9 888.7,816.6 	"/>
	<polygon id="near_light_well_2" class="st11" points="636.9,666.2 724.5,723.9 684.3,796.9 595.1,735.6 	"/>
	<polygon id="near_light_well_1" class="st11" points="595.1,747.4 588.3,754.6 651,833.8 679.2,814.5 656.3,785.6 	"/>
	<polygon id="MLK_Civil_right" class="st11" points="792.9,675.4 837.6,619.8 878.1,644.4 833,702.8 	"/>
	<polygon id="hardback_area" class="st11" points="860.3,598 894.1,558.3 1022.6,646.3 994.3,685.4 	"/>
	<polygon id="corner_rm" class="st11" points="982.5,603.4 1044,645.3 1084.1,589.3 1025.3,549.2 	"/>
</g>
<g id="grey_grid">
	<polygon id="corner_grid" class="st12" points="650,842.3 683.8,819.2 703.9,777.6 718.9,784.9 726.2,769.5 712.9,760.9 
		730.9,728.8 892.7,837.1 935.6,766.7 1068.2,843.7 921.7,945.8 753,843.7 681.5,888.2 646.5,844.3 	"/>
</g>
<g id="Grey_region">
	<polygon id="near_mlk_civil_rights" class="st13" points="867.8,726.6 922.7,762 964.7,699.4 912.9,665.9 	"/>
	<polygon id="toilet" class="st13" points="906.2,549.2 967.3,476 1026.3,516.9 970.2,591.2 	"/>
	<polygon id="near_atrium_-_3" class="st13" points="600,564.6 609.1,554 741.1,645.3 732,655.4 	"/>
	<polygon id="near_atrium_-_1" class="st13" points="797.1,577.8 741.1,645.3 775.5,669.7 831.5,604.7 	"/>
	<polygon id="near_atrium_-_1_1_" class="st13" points="738.1,533.6 746.4,522.6 670.5,473.4 661.7,485.5 736.1,535.6 	"/>
	<polygon id="near_390" class="st13" points="450.1,567.4 434.4,591.9 451.8,604.7 468,582 	"/>
	<polygon id="rm_390" class="st13" points="517.9,633.8 481.5,606.5 458.5,636 493.4,663.7 	"/>
	<polygon id="rm_392" class="st13" points="542.4,653 517.9,633.8 493.4,663.7 519,684 	"/>
	<polygon id="printer_area" class="st13" points="484.9,459.2 530.5,394.5 593.5,437.5 547.5,504.5 	"/>
	<polygon id="service_area" class="st13" points="564.4,491.8 607.8,469.4 626.4,503 587.3,527.4 	"/>
	<polygon id="near_teen_center" class="st13" points="530.4,286.2 561.1,307.5 595.1,261.4 579.7,251.6 	"/>
	<polygon id="rm_326" class="st13" points="575.1,322.5 600.9,341.8 624.1,307.5 596.7,287.5 	"/>
	<polygon id="rm_324" class="st13" points="624.1,307.5 600.9,341.8 630.3,362 652.5,329.4 	"/>
	<polygon id="teen_center" class="st13" points="596.7,287.5 693.7,128.3 694.8,126.7 753.1,228.5 677.8,348 652.5,329.4 
		624.1,307.5 	"/>
	<polygon id="rm_322" class="st13" points="630.3,362 657,381.3 677.8,348 652.5,329.4 	"/>
</g>
<g id="atrium">
	<polygon id="atrium_1_" class="st14" points="609.1,554 661.7,485.5 797.1,577.8 741.1,645.3 	"/>
</g>
<g id="vertical_flow">
	<polygon id="elevator" class="st15" points="799.9,450.2 786.3,469.4 783.4,473.4 882.6,540.2 899.2,516.2 871.1,496.3 	"/>
	<polygon id="stairs" class="st15" points="899.2,516.2 945.3,460.8 916.9,441 871.1,496.3 	"/>
	<polygon id="esc_-_2" class="st15" points="746.4,522.6 736.1,535.6 810.9,588.6 821.9,573.5 	"/>
	<polygon id="esc_-_1" class="st15" points="757.5,508.8 746.4,522.6 821.9,573.5 831.5,560.3 	"/>
</g>
<g id="light_well">
	<polygon id="light_well_-2" class="st16" points="519,684 542.4,653 598.3,693 567.3,744.7 	"/>
	<polygon id="light_well_-1" class="st16" points="751.5,377.6 798.9,306.4 844.1,385 817.6,422.4 	"/>
</g>
<g id="text" class="st17">
	<rect x="478.6" y="197.7" class="st18" width="78.5" height="32.6"/>
	<text transform="matrix(1 0 0 1 486.2848 207.6473)" class="st19"><tspan x="0" y="0" class="st20 st8">Harvesting</tspan><tspan x="2.1" y="16.8" class="st20 st8">Collection</tspan></text>
	<rect x="635.6" y="247.9" class="st18" width="78.5" height="32.6"/>
	<text transform="matrix(1 0 0 1 660.5283 257.8267)" class="st19"><tspan x="0" y="0" class="st20 st8">Teen</tspan><tspan x="-5.2" y="16.8" class="st20 st8">Center</tspan></text>
	
		<rect x="639.2" y="376.6" transform="matrix(0.5736 -0.8192 0.8192 0.5736 -70.4878 709.4106)" class="st18" width="14" height="91.5"/>
	<text transform="matrix(0.8192 0.5736 -0.5736 0.8192 610.0774 399.0776)" class="st19 st20 st21">Career Collection</text>
	
		<rect x="442.6" y="386.6" transform="matrix(0.5736 -0.8192 0.8192 0.5736 -126.5436 563.3456)" class="st18" width="70.5" height="33.2"/>
	<text transform="matrix(0.5736 -0.8192 0.8192 0.5736 452.7146 425.0594)" class="st19"><tspan x="0" y="0" class="st20 st21">International </tspan><tspan x="4.9" y="14.4" class="st20 st21">Languages</tspan></text>
	
		<rect x="475.8" y="488.7" transform="matrix(0.5736 -0.8192 0.8192 0.5736 -218.7947 621.5949)" class="st18" width="23.6" height="64.5"/>
	<text transform="matrix(0.8192 0.5736 -0.5736 0.8192 465.3548 501.392)" class="st19"><tspan x="0" y="0" class="st20 st21">Non-Fiction</tspan><tspan x="20.2" y="14.4" class="st20 st21">900</tspan></text>
	
		<rect x="601.5" y="574.2" transform="matrix(0.5736 -0.8192 0.8192 0.5736 -235.2644 761.0231)" class="st18" width="23.6" height="64.5"/>
	<text transform="matrix(0.8192 0.5736 -0.5736 0.8192 591.0394 586.9252)" class="st19"><tspan x="0" y="0" class="st20 st21">Non-Fiction</tspan><tspan x="20.2" y="14.4" class="st20 st21">600</tspan></text>
	
		<rect x="699.5" y="641.2" transform="matrix(0.5736 -0.8192 0.8192 0.5736 -248.3581 869.8704)" class="st18" width="23.6" height="64.5"/>
	<text transform="matrix(0.8192 0.5736 -0.5736 0.8192 689.0394 653.9252)" class="st19"><tspan x="0" y="0" class="st20 st21">Non-Fiction</tspan><tspan x="20.2" y="14.4" class="st20 st21">000</tspan></text>
	
		<rect x="821.5" y="683.9" transform="matrix(0.5736 -0.8192 0.8192 0.5736 -255.0696 993.5024)" class="st18" width="10.5" height="115.7"/>
	<text transform="matrix(0.8192 0.5736 -0.5736 0.8192 782.1639 714.5949)" class="st19 st20 st21">Computer Collection</text>
	
		<rect x="837.1" y="717.7" transform="matrix(0.5736 -0.8192 0.8192 0.5736 -276.081 1020.6841)" class="st18" width="10.5" height="115.7"/>
	<text transform="matrix(0.8192 0.5736 -0.5736 0.8192 796.3404 747.3687)" class="st19 st20 st21">Large Print Collection</text>
	
		<rect x="797" y="644" transform="matrix(0.6428 -0.766 0.766 0.6428 -208.1749 878.1542)" class="st18" width="81.1" height="36.6"/>
	<text transform="matrix(0.6428 -0.766 0.766 0.6428 807.8448 679.1366)" class="st19"><tspan x="0" y="0" class="st20 st22">Dr. Martin Luther </tspan><tspan x="9.5" y="10.8" class="st20 st22">King Jr. Civil</tspan><tspan x="0.2" y="21.6" class="st20 st22">Rights Collection</tspan></text>
	
		<rect x="891.4" y="570.1" transform="matrix(0.5736 -0.8192 0.8192 0.5736 -103.4234 993.8807)" class="st18" width="23" height="52.4"/>
	<text transform="matrix(0.8192 0.5736 -0.5736 0.8192 884.9347 580.1195)" class="st19"><tspan x="0" y="0" class="st20 st21">Hardback</tspan><tspan x="2" y="12" class="st20 st21">Fiction A</tspan></text>
	
		<rect x="968.5" y="622.8" transform="matrix(0.5736 -0.8192 0.8192 0.5736 -113.7666 1079.533)" class="st18" width="23" height="52.4"/>
	<text transform="matrix(0.8192 0.5736 -0.5736 0.8192 962.0314 632.8802)" class="st19"><tspan x="0" y="0" class="st20 st21">Hardback</tspan><tspan x="2.3" y="12" class="st20 st21">Fiction Z</tspan></text>
	
		<rect x="691.7" y="373.1" transform="matrix(0.5736 -0.8192 0.8192 0.5736 -22.4098 741.0228)" class="st18" width="17.7" height="37.9"/>
	<text transform="matrix(0.8192 0.5736 -0.5736 0.8192 695.5981 384.7217)" class="st19"><tspan x="0" y="0" class="st20 st23">Teen</tspan><tspan x="-8.7" y="9.6" class="st20 st23">Collection</tspan></text>
	<rect x="768.1" y="368.8" class="st18" width="59.4" height="10.1"/>
	<text transform="matrix(1 0 0 1 772.7075 377.3346)" class="st19 st20 st21">Light Well</text>
	<rect x="674.3" y="562.7" class="st18" width="59.4" height="10.1"/>
	<text transform="matrix(1 0 0 1 686.6975 571.2552)" class="st19 st20 st21">Atrium</text>
	<rect x="588.6" y="312.8" class="st18" width="19.8" height="10.1"/>
	<text transform="matrix(1 0 0 1 589.227 321.3527)" class="st19 st20 st21">326</text>
	<rect x="614.2" y="332.8" class="st18" width="19.8" height="10.1"/>
	<text transform="matrix(1 0 0 1 614.8821 341.2706)" class="st19 st20 st21">324</text>
	<rect x="642.6" y="353.6" class="st18" width="19.8" height="10.1"/>
	<text transform="matrix(1 0 0 1 643.3027 362.0838)" class="st19 st20 st21">322</text>
	<rect x="531" y="690.7" class="st18" width="59.4" height="10.1"/>
	<text transform="matrix(1 0 0 1 535.6567 699.2392)" class="st19 st20 st21">Light Well</text>
	<rect x="505.6" y="653.8" class="st18" width="24.6" height="10.2"/>
	<text transform="matrix(1 0 0 1 508.677 662.33)" class="st19 st20 st21">392</text>
	<rect x="476.9" y="632" class="st18" width="24.6" height="10.2"/>
	<text transform="matrix(1 0 0 1 480.0134 640.5156)" class="st19 st20 st21">390</text>
	<rect x="101.7" y="38.1" class="st18" width="176.3" height="281.8"/>
	<text transform="matrix(1 0 0 1 101.7178 252.9353)" class="st24 st25 st26 st27">3</text>
	<rect x="24.9" y="27.8" class="st18" width="300.4" height="54.6"/>
	<text transform="matrix(1 0 0 1 24.8604 62.1265)" class="st19 st25 st28">Third Floor</text>
	<rect x="25.9" y="92.1" class="st18" width="229.9" height="77.9"/>
	<text transform="matrix(1 0 0 1 25.8604 107.1641)" class="st19"><tspan x="0" y="0" class="st7 st29">General Collection</tspan><tspan x="0" y="25.2" class="st7 st29">Teen Center</tspan></text>
</g>
<g id="exit" class="st17">
	<g class="st19">
		<circle class="st30" cx="952.5" cy="466.1" r="16.7"/>
		<rect x="940.5" y="461.3" class="st0" width="23.8" height="10.5"/>
		<text transform="matrix(1 0 0 1 941.6398 469.7721)" class="st31 st20 st21">EXIT</text>
	</g>
	<g class="st19">
		<circle class="st30" cx="402.5" cy="588.6" r="16.7"/>
		<rect x="390.5" y="583.8" class="st0" width="23.8" height="10.5"/>
		<text transform="matrix(1 0 0 1 391.5949 592.2838)" class="st31 st20 st21">EXIT</text>
	</g>
</g>
<g id="toilet_1_" class="st17">
	<g id="symbol_-_toilet_1_" class="st19">
		<circle class="st32" cx="939.9" cy="563.4" r="14.2"/>
		<path class="st31" d="M943.5,559.6l0,4.6c0,0.5,0.4,0.9,0.9,0.9l1.9,0c0.5,0,0.9-0.4,0.9-0.9l0-4.6c0-0.5-0.4-0.9-0.9-0.9l-1.9,0
			C943.9,558.7,943.5,559.1,943.5,559.6z"/>
		<path class="st31" d="M948.8,558.8l0,4.9c0,0.3-0.2,0.6-0.6,0.6l-0.4,0c-0.3,0-0.6-0.2-0.6-0.6l0-4.9c0-0.3,0.2-0.6,0.6-0.6l0.4,0
			C948.5,558.3,948.8,558.5,948.8,558.8z"/>
		<path class="st31" d="M943.3,558.8l0,5c0,0.3-0.2,0.6-0.6,0.6l-0.4,0c-0.3,0-0.6-0.2-0.6-0.6l0-5c0-0.3,0.2-0.6,0.6-0.6l0.4,0
			C943.1,558.3,943.3,558.5,943.3,558.8z"/>
		<circle class="st31" cx="945.3" cy="556.2" r="1.6"/>
		<path class="st31" d="M941.8,558.8l0,0.7c0,0.3,0.3,0.6,0.6,0.6l5.7,0c0.3,0,0.6-0.3,0.6-0.6l0-0.7c0-0.3-0.3-0.6-0.6-0.6l-5.7,0
			C942.1,558.2,941.8,558.4,941.8,558.8z"/>
		<path class="st31" d="M945.2,563.6l0,7.4c0,0.3-0.2,0.6-0.6,0.6l-0.6,0c-0.3,0-0.6-0.2-0.6-0.6l0-7.4c0-0.3,0.2-0.6,0.6-0.6l0.6,0
			C945,563,945.2,563.3,945.2,563.6z"/>
		<path class="st31" d="M947.1,563.5l0,7.4c0,0.3-0.2,0.6-0.6,0.6l-0.6,0c-0.3,0-0.6-0.2-0.6-0.6l0-7.4c0-0.3,0.2-0.6,0.6-0.6l0.6,0
			C946.9,562.9,947.1,563.2,947.1,563.5z"/>
		<rect x="939.5" y="553.9" class="st31" width="0.7" height="18.3"/>
		<path class="st31" d="M932.5,559l-1,4.9c-0.1,0.3-0.4,0.5-0.7,0.4l-0.4-0.1c-0.3-0.1-0.5-0.4-0.4-0.7l1-4.9
			c0.1-0.3,0.4-0.5,0.7-0.4l0.4,0.1C932.3,558.4,932.5,558.7,932.5,559z"/>
		<circle class="st31" cx="934.4" cy="556.2" r="1.6"/>
		<path class="st31" d="M931,558.8l0,0.7c0,0.3,0.3,0.6,0.6,0.6l5.7,0c0.3,0,0.6-0.3,0.6-0.6l0-0.7c0-0.3-0.3-0.6-0.6-0.6l-5.7,0
			C931.2,558.2,931,558.4,931,558.8z"/>
		<path class="st31" d="M934.3,563.5l0,7.4c0,0.3-0.2,0.5-0.5,0.5l-0.4,0c-0.3,0-0.5-0.2-0.5-0.5l0-7.4c0-0.3,0.2-0.5,0.5-0.5l0.4,0
			C934.1,563,934.3,563.2,934.3,563.5z"/>
		<path class="st31" d="M937.8,558.6l1,4.9c0.1,0.3-0.1,0.6-0.4,0.7l-0.4,0.1c-0.3,0.1-0.6-0.1-0.7-0.4l-1-4.9
			c-0.1-0.3,0.1-0.6,0.4-0.7l0.4-0.1C937.5,558.1,937.8,558.3,937.8,558.6z"/>
		<polygon class="st31" points="931.2,566.4 932.4,560.1 936.4,560.1 937.6,566.4 		"/>
		<path class="st31" d="M936.2,563.6l0,7.4c0,0.3-0.2,0.5-0.5,0.5l-0.4,0c-0.3,0-0.5-0.2-0.5-0.5l0-7.4c0-0.3,0.2-0.5,0.5-0.5l0.4,0
			C936,563,936.2,563.3,936.2,563.6z"/>
	</g>
	<g id="symbol_-_toilet" class="st19">
		<circle class="st32" cx="468" cy="561.8" r="14.2"/>
		<path class="st31" d="M471.6,558l0,4.6c0,0.5,0.4,0.9,0.9,0.9l1.9,0c0.5,0,0.9-0.4,0.9-0.9l0-4.6c0-0.5-0.4-0.9-0.9-0.9l-1.9,0
			C472,557.1,471.6,557.5,471.6,558z"/>
		<path class="st31" d="M476.9,557.3l0,4.9c0,0.3-0.2,0.6-0.6,0.6l-0.4,0c-0.3,0-0.6-0.2-0.6-0.6l0-4.9c0-0.3,0.2-0.6,0.6-0.6l0.4,0
			C476.7,556.8,476.9,557,476.9,557.3z"/>
		<path class="st31" d="M471.5,557.3l0,5c0,0.3-0.2,0.6-0.6,0.6l-0.4,0c-0.3,0-0.6-0.2-0.6-0.6l0-5c0-0.3,0.2-0.6,0.6-0.6l0.4,0
			C471.2,556.7,471.5,557,471.5,557.3z"/>
		<circle class="st31" cx="473.4" cy="554.7" r="1.6"/>
		<path class="st31" d="M470,557.2l0,0.7c0,0.3,0.3,0.6,0.6,0.6l5.7,0c0.3,0,0.6-0.3,0.6-0.6l0-0.7c0-0.3-0.3-0.6-0.6-0.6l-5.7,0
			C470.3,556.6,470,556.9,470,557.2z"/>
		<path class="st31" d="M473.4,562l0,7.4c0,0.3-0.2,0.6-0.6,0.6l-0.6,0c-0.3,0-0.6-0.2-0.6-0.6l0-7.4c0-0.3,0.2-0.6,0.6-0.6l0.6,0
			C473.1,561.5,473.4,561.7,473.4,562z"/>
		<path class="st31" d="M475.3,561.9l0,7.4c0,0.3-0.2,0.6-0.6,0.6l-0.6,0c-0.3,0-0.6-0.2-0.6-0.6l0-7.4c0-0.3,0.2-0.6,0.6-0.6l0.6,0
			C475,561.4,475.3,561.6,475.3,561.9z"/>
		<rect x="467.7" y="552.4" class="st31" width="0.7" height="18.3"/>
		<path class="st31" d="M460.6,557.4l-1,4.9c-0.1,0.3-0.4,0.5-0.7,0.4l-0.4-0.1c-0.3-0.1-0.5-0.4-0.4-0.7l1-4.9
			c0.1-0.3,0.4-0.5,0.7-0.4l0.4,0.1C460.5,556.8,460.7,557.1,460.6,557.4z"/>
		<circle class="st31" cx="462.6" cy="554.7" r="1.6"/>
		<path class="st31" d="M459.1,557.2l0,0.7c0,0.3,0.3,0.6,0.6,0.6l5.7,0c0.3,0,0.6-0.3,0.6-0.6l0-0.7c0-0.3-0.3-0.6-0.6-0.6l-5.7,0
			C459.4,556.6,459.1,556.9,459.1,557.2z"/>
		<path class="st31" d="M462.5,562l0,7.4c0,0.3-0.2,0.5-0.5,0.5l-0.4,0c-0.3,0-0.5-0.2-0.5-0.5l0-7.4c0-0.3,0.2-0.5,0.5-0.5l0.4,0
			C462.2,561.5,462.5,561.7,462.5,562z"/>
		<path class="st31" d="M466,557.1l1,4.9c0.1,0.3-0.1,0.6-0.4,0.7l-0.4,0.1c-0.3,0.1-0.6-0.1-0.7-0.4l-1-4.9
			c-0.1-0.3,0.1-0.6,0.4-0.7l0.4-0.1C465.6,556.6,465.9,556.8,466,557.1z"/>
		<polygon class="st31" points="459.4,564.9 460.6,558.6 464.5,558.6 465.8,564.9 		"/>
		<path class="st31" d="M464.4,562l0,7.4c0,0.3-0.2,0.5-0.5,0.5l-0.4,0c-0.3,0-0.5-0.2-0.5-0.5l0-7.4c0-0.3,0.2-0.5,0.5-0.5l0.4,0
			C464.1,561.5,464.4,561.7,464.4,562z"/>
	</g>
</g>
<g id="phone" class="st17">
	<g id="phone_2_" class="st19">
		<circle class="st32" cx="515.3" cy="422.3" r="13.7"/>
		<path class="st31" d="M510.3,425.7l-1.4,2.8c-0.3,0.6-0.1,1.4,0.6,1.7l2.2,1.1c0.6,0.3,1.4,0.1,1.7-0.6l1.4-2.8
			c0.3-0.6,0.1-1.4-0.6-1.7l-2.2-1.1C511.4,424.8,510.6,425.1,510.3,425.7z"/>
		<path class="st31" d="M519.2,416.4l-6.3,12.3c-0.3,0.6-0.1,1.4,0.6,1.7l0.3,0.1c0.6,0.3,1.4,0.1,1.7-0.6l6.3-12.3
			c0.3-0.6,0.1-1.4-0.6-1.7l-0.3-0.1C520.3,415.5,519.5,415.7,519.2,416.4z"/>
		<path class="st31" d="M516.4,413.4l-1.4,2.8c-0.3,0.6-0.1,1.4,0.6,1.7l2.4,1.2c0.6,0.3,1.4,0.1,1.7-0.6l1.4-2.8
			c0.3-0.6,0.1-1.4-0.6-1.7l-2.4-1.2C517.5,412.5,516.7,412.8,516.4,413.4z"/>
		
			<ellipse transform="matrix(0.9472 -0.3206 0.3206 0.9472 -110.7491 187.2517)" class="st31" cx="513.4" cy="430" rx="2.4" ry="1.3"/>
		
			<ellipse transform="matrix(0.9392 -0.3434 0.3434 0.9392 -111.2274 203.9875)" class="st31" cx="520.4" cy="416.1" rx="1.3" ry="2.3"/>
	</g>
	<g id="phone_1_" class="st19">
		<circle class="st32" cx="953.3" cy="691.4" r="13.7"/>
		<path class="st31" d="M948.2,694.8l-1.4,2.8c-0.3,0.6-0.1,1.4,0.6,1.7l2.2,1.1c0.6,0.3,1.4,0.1,1.7-0.6l1.4-2.8
			c0.3-0.6,0.1-1.4-0.6-1.7l-2.2-1.1C949.3,693.9,948.6,694.1,948.2,694.8z"/>
		<path class="st31" d="M957.1,685.4l-6.3,12.3c-0.3,0.6-0.1,1.4,0.6,1.7l0.3,0.1c0.6,0.3,1.4,0.1,1.7-0.6l6.3-12.3
			c0.3-0.6,0.1-1.4-0.6-1.7l-0.3-0.1C958.3,684.5,957.5,684.8,957.1,685.4z"/>
		<path class="st31" d="M954.4,682.4l-1.4,2.8c-0.3,0.6-0.1,1.4,0.6,1.7l2.4,1.2c0.6,0.3,1.4,0.1,1.7-0.6l1.4-2.8
			c0.3-0.6,0.1-1.4-0.6-1.7l-2.4-1.2C955.4,681.6,954.7,681.8,954.4,682.4z"/>
		
			<ellipse transform="matrix(0.9472 -0.3206 0.3206 0.9472 -173.8861 341.8361)" class="st31" cx="951.3" cy="699.1" rx="2.4" ry="1.3"/>
		
			<ellipse transform="matrix(0.9392 -0.3434 0.3434 0.9392 -176.9849 370.7168)" class="st31" cx="958.4" cy="685.1" rx="1.3" ry="2.3"/>
	</g>
</g>
<g id="service" class="st17">
	<g id="symbol_-_service" class="st19">
		<circle class="st33" cx="612.3" cy="501.9" r="12.3"/>
		<path class="st31" d="M616.7,506.1h-8.9c-2,0-3.6-1.6-3.6-3.6v-4.4c0-2,1.6-3.6,3.6-3.6h8.9c2,0,3.6,1.6,3.6,3.6v4.4
			C620.3,504.5,618.7,506.1,616.7,506.1z"/>
		<rect x="608" y="496" class="st0" width="8.7" height="9.4"/>
		<text transform="matrix(1 0 0 1 608.403 504.4038)" class="st34 st35 st36">S</text>
		<polygon class="st31" points="608,506.1 606.7,510.6 611.7,506.1 		"/>
	</g>
</g>
<g id="stairs_x2F_ele" class="st17">
	<g id="symbol_-_stairs" class="st19">
		<circle class="st37" cx="908.2" cy="477" r="12.3"/>
		<polygon points="900.4,483.1 900.4,479.6 903.8,479.6 903.8,476.1 907.3,476.1 907.3,472.7 910.8,472.7 910.8,469.2 914.3,469.2 
			914.3,483.1 		"/>
	</g>
	<g id="symbol_-_ele" class="st19">
		<circle class="st37" cx="842.5" cy="495.2" r="12.3"/>
		<rect x="836.3" y="489.7" width="5.8" height="11.6"/>
		<rect x="843" y="489.7" width="5.8" height="11.6"/>
		<rect x="841.2" y="487.5" width="2.7" height="1.6"/>
		<polygon points="840.2,487.5 842.5,485.8 844.9,487.5 		"/>
	</g>
	<g id="symbol_-_esc" class="st19">
		<circle class="st37" cx="783.9" cy="549.7" r="12.3"/>
		<polygon points="776.9,556.7 776.9,553.2 780.4,553.2 780.4,549.7 783.9,549.7 783.9,546.3 787.3,546.3 787.3,542.8 790.8,542.8 
			790.8,556.7 		"/>
		<rect x="778.7" y="541.1" transform="matrix(0.7071 0.7071 -0.7071 0.7071 614.2917 -391.3484)" width="1.7" height="9.4"/>
		<polygon points="784.1,543.8 781.6,541.3 784,541.3 		"/>
		<polygon points="775,547.8 777.4,550.3 775.1,550.3 		"/>
	</g>
</g>
<g id="wheelchair" class="st17">
	<g id="wheelchair_1_" class="st19">
		<circle class="st38" cx="587.3" cy="483.8" r="13.1"/>
		<circle class="st31" cx="584.9" cy="475.6" r="2.1"/>
		<rect x="584" y="483.2" class="st31" width="7.3" height="1.2"/>
		
			<rect x="588.6" y="486.1" transform="matrix(0.3973 0.9177 -0.9177 0.3973 803.5826 -250.1097)" class="st31" width="7.3" height="1.2"/>
		
			<rect x="593" y="489.1" transform="matrix(0.9177 -0.3973 0.3973 0.9177 -145.6054 276.5097)" class="st31" width="3.1" height="1.2"/>
		
			<rect x="580.7" y="480.1" transform="matrix(7.725760e-02 0.997 -0.997 7.725760e-02 1018.421 -139.0368)" class="st31" width="7.3" height="1.2"/>
		<path class="st39" d="M582.6,480.7c-2.2,1.6-3.3,4.1-2.7,6.4c0.7,2.7,3.6,4.5,6.6,4.4c2.4-0.1,4.1-1.4,4.6-1.8"/>
		<rect x="584.4" y="479.8" class="st31" width="4.6" height="1.2"/>
	</g>
</g>
<g id="comp" class="st17">
	<g id="comp_2_" class="st19">
		<circle cx="505.1" cy="469.4" r="13.7"/>
		
			<rect x="499.7" y="460.3" transform="matrix(6.123234e-17 -1 1 6.123234e-17 38.1642 972.4301)" class="st13" width="11.2" height="13.7"/>
		
			<rect x="503.2" y="466.4" transform="matrix(6.123234e-17 -1 1 6.123234e-17 29.8451 980.8823)" class="st13" width="4.3" height="18.3"/>
		
			<rect x="501.4" y="461.9" transform="matrix(6.123234e-17 -1 1 6.123234e-17 38.2783 972.4615)" class="st13" width="7.9" height="10.5"/>
	</g>
	<g id="printer" class="st19">
		<g>
			<circle cx="549.6" cy="410.2" r="13.7"/>
			
				<rect x="546" y="401.4" transform="matrix(6.123234e-17 -1 1 6.123234e-17 139.1781 959.5469)" class="st31" width="6.7" height="17.7"/>
			
				<rect x="545.9" y="408.9" transform="matrix(6.123234e-17 -1 1 6.123234e-17 134.7498 964.0379)" class="st40" width="7.1" height="11.5"/>
			
				<rect x="546.6" y="398.7" transform="matrix(6.123234e-17 -1 1 6.123234e-17 144.8898 953.8352)" class="st40" width="5.5" height="11.5"/>
			<line class="st40" x1="546.3" y1="416.2" x2="550.9" y2="416.2"/>
			<circle cx="556.6" cy="408.7" r="0.8"/>
		</g>
		<line class="st40" x1="546.2" y1="414.1" x2="552.5" y2="414.1"/>
	</g>
	<g id="scanner" class="st19">
		<circle cx="575.6" cy="431.5" r="13.7"/>
		<polygon class="st31" points="571.4,422.1 582.2,426.2 583.3,432.7 572.8,428.7 		"/>
		<polygon class="st40" points="582,433.3 572.4,429.6 567.7,433.9 576.9,437.4 		"/>
		<polygon class="st31" points="566.8,434.6 576.9,438.5 576.9,439.9 566.8,435.9 		"/>
		<polygon class="st31" points="577.4,438.4 584,433.1 584,434.4 577.4,439.9 		"/>
		<polygon class="st31" points="571.4,422.1 572.1,421.7 582.9,425.5 582.2,426.2 		"/>
		<polygon class="st31" points="583.3,432.7 582.2,426.2 582.9,425.5 584,432.3 		"/>
		<line class="st40" x1="569.8" y1="432" x2="579.2" y2="435.2"/>
		<ellipse cx="576" cy="438.9" rx="0.5" ry="0.5"/>
	</g>
	<g id="comp_1_" class="st19">
		<circle cx="535.9" cy="490.5" r="13.7"/>
		
			<rect x="530.4" y="481.4" transform="matrix(6.123234e-17 -1 1 6.123234e-17 47.754 1024.3209)" class="st13" width="11.2" height="13.7"/>
		
			<rect x="533.9" y="487.5" transform="matrix(6.123234e-17 -1 1 6.123234e-17 39.435 1032.7731)" class="st13" width="4.3" height="18.3"/>
		
			<rect x="532.2" y="483" transform="matrix(6.123234e-17 -1 1 6.123234e-17 47.8682 1024.3524)" class="st13" width="7.9" height="10.5"/>
	</g>
</g>
</svg>
