<?xml version="1.0" encoding="utf-8"?>
<!-- Generator: Adobe Illustrator 28.2.0, SVG Export Plug-In . SVG Version: 6.00 Build 0)  -->
<svg version="1.1" id="Layer_1" xmlns="http://www.w3.org/2000/svg" xmlns:xlink="http://www.w3.org/1999/xlink" x="0px" y="0px"
	 viewBox="0 0 684.2 949.3" style="enable-background:new 0 0 684.2 949.3;" xml:space="preserve">
<style type="text/css">
	.st0{fill:none;}
	.st1{fill:#231F20;}
	.st2{fill:#E4F0F9;}
	
		.st3{opacity:0.45;fill:url(#SVGID_00000054253220984738059340000001120552028932039562_);stroke:#B6B8BA;stroke-width:0.75;stroke-miterlimit:10;enable-background:new    ;}
	.st4{fill:#0073A0;}
	.st5{fill:#FFFFFF;}
	.st6{fill:#688D8C;stroke:#FFFFFF;stroke-width:0.25;stroke-miterlimit:10;}
	.st7{opacity:0.5;fill:#A1BB7E;enable-background:new    ;}
	.st8{fill:#EBCA74;}
	.st9{opacity:0.4;fill:#1A4363;enable-background:new    ;}
	.st10{fill:#231F20;stroke:#FFFFFF;stroke-width:0.25;stroke-miterlimit:10;}
	.st11{fill:none;stroke:#010101;stroke-width:4;stroke-miterlimit:10;}
	.st12{font-family:'ArialMT';}
	.st13{font-size:16px;}
	.st14{fill:none;stroke:#221F1F;stroke-width:6;stroke-linecap:round;stroke-linejoin:round;}
	.st15{fill:none;stroke:#231F20;stroke-width:6;stroke-linecap:round;stroke-linejoin:round;}
	.st16{font-size:18px;}
	.st17{fill:#C40000;}
</style>
<pattern  y="949.3" width="28.8" height="28.8" patternUnits="userSpaceOnUse" id="SVGID_1_" viewBox="1.4 -30.2 28.8 28.8" style="overflow:visible;">
	<g>
		<rect x="1.4" y="-30.2" class="st0" width="28.8" height="28.8"/>
		<g>
			<rect x="1.4" y="-30.2" class="st0" width="28.8" height="28.8"/>
			<g>
				<rect x="1.4" y="-30.2" class="st0" width="28.8" height="28.8"/>
				<g>
					<rect x="1.4" y="-30.2" class="st0" width="28.8" height="28.8"/>
					<g>
						<rect x="1.4" y="-30.2" class="st0" width="28.8" height="28.8"/>
						<g>
							<rect x="1.4" y="-30.2" class="st0" width="28.8" height="28.8"/>
							<g>
								<rect x="1.4" y="-30.2" class="st0" width="28.8" height="28.8"/>
								<g>
									<rect x="1.4" y="-30.2" class="st0" width="28.8" height="28.8"/>
									<g>
										<rect x="1.4" y="-30.2" class="st0" width="28.8" height="28.8"/>
										<g>
											<rect x="1.4" y="-30.2" class="st0" width="28.8" height="28.8"/>
											<g>
												<path class="st1" d="M30.2-31.6c0.8,0,1.4,0.6,1.4,1.4c0,0.8-0.6,1.4-1.4,1.4s-1.4-0.6-1.4-1.4
													C28.8-31,29.4-31.6,30.2-31.6z"/>
												<path class="st1" d="M15.8-31.6c0.8,0,1.4,0.6,1.4,1.4c0,0.8-0.6,1.4-1.4,1.4c-0.8,0-1.4-0.6-1.4-1.4
													C14.4-31,15-31.6,15.8-31.6z"/>
												<path class="st1" d="M30.2-17.2c0.8,0,1.4,0.6,1.4,1.4s-0.6,1.4-1.4,1.4s-1.4-0.6-1.4-1.4
													C28.8-16.6,29.4-17.2,30.2-17.2z"/>
												<path class="st1" d="M15.8-17.2c0.8,0,1.4,0.6,1.4,1.4s-0.6,1.4-1.4,1.4c-0.8,0-1.4-0.6-1.4-1.4
													C14.4-16.6,15-17.2,15.8-17.2z"/>
												<path class="st1" d="M8.6-24.4c0.8,0,1.4,0.6,1.4,1.4c0,0.8-0.6,1.4-1.4,1.4c-0.8,0-1.4-0.6-1.4-1.4
													C7.2-23.8,7.8-24.4,8.6-24.4z"/>
												<path class="st1" d="M23-24.4c0.8,0,1.4,0.6,1.4,1.4c0,0.8-0.6,1.4-1.4,1.4s-1.4-0.6-1.4-1.4S22.2-24.4,23-24.4z"/>
												<path class="st1" d="M8.6-10C9.4-10,10-9.4,10-8.6S9.4-7.2,8.6-7.2c-0.8,0-1.4-0.6-1.4-1.4C7.2-9.4,7.8-10,8.6-10z"/>
												<path class="st1" d="M23-10c0.8,0,1.4,0.6,1.4,1.4S23.8-7.2,23-7.2s-1.4-0.6-1.4-1.4S22.2-10,23-10z"/>
											</g>
											<g>
												<path class="st1" d="M1.4-31.6c0.8,0,1.4,0.6,1.4,1.4c0,0.8-0.6,1.4-1.4,1.4C0.6-28.7,0-29.4,0-30.2
													C0-31,0.6-31.6,1.4-31.6z"/>
												<path class="st1" d="M1.4-17.2c0.8,0,1.4,0.6,1.4,1.4s-0.6,1.4-1.4,1.4S0-15,0-15.8S0.6-17.2,1.4-17.2z"/>
											</g>
											<g>
												<path class="st1" d="M30.2-2.8c0.8,0,1.4,0.6,1.4,1.4S31,0,30.2,0s-1.4-0.6-1.4-1.4C28.8-2.2,29.4-2.8,30.2-2.8z"/>
												<path class="st1" d="M15.8-2.8c0.8,0,1.4,0.6,1.4,1.4S16.6,0,15.8,0s-1.4-0.6-1.4-1.4C14.4-2.2,15-2.8,15.8-2.8z"/>
											</g>
											<g>
												<path class="st1" d="M1.4-2.8c0.8,0,1.4,0.6,1.4,1.4S2.2,0,1.4,0C0.6,0.1,0-0.6,0-1.4C0-2.2,0.6-2.8,1.4-2.8z"/>
											</g>
										</g>
									</g>
								</g>
							</g>
						</g>
					</g>
				</g>
			</g>
		</g>
	</g>
</pattern>
<polygon id="atrium" class="st2" points="292.4,426.2 368.9,425.6 368.5,579.4 291.9,580 "/>
<g id="employee_areas">
	
		<pattern  id="SVGID_00000129200442443653859560000001200478491093024911_" xlink:href="#SVGID_1_" patternTransform="matrix(1 0 0 1 -101.08 86801.7656)">
	</pattern>
	
		<polygon style="opacity:0.45;fill:url(#SVGID_00000129200442443653859560000001200478491093024911_);stroke:#B6B8BA;stroke-width:0.75;stroke-miterlimit:10;enable-background:new    ;" points="
		208.3,819.4 208.3,819.4 204.1,819.4 204.1,635.5 120.7,635.5 29.4,591.8 3.1,646.7 119.1,702.3 120,700.6 120,866.6 286,943.8 
		286,819.4 	"/>
</g>
<g id="restrooms">
	<rect x="123" y="260.3" class="st4" width="73.1" height="75.5"/>
	<g>
		<path class="st5" d="M169.5,287.8c1.2,0,2.1-0.9,2.1-2.1s-0.9-2.1-2.1-2.1c-1.2,0-2.1,0.9-2.1,2.1
			C167.3,286.9,168.3,287.8,169.5,287.8z"/>
		<path class="st5" d="M175.3,296.2l-1.8-6.3c-0.4-1.2-1.3-1.6-2.6-1.6l0,0H168l0,0c-1.3,0-2.1,0.4-2.6,1.6l-1.8,6.3
			c-0.1,0.4,0.1,0.8,0.7,0.9c0.4,0.1,0.9-0.1,1-0.5l1.6-5.5h0.4l-2.7,9.6h2.6v6.8c0,0.5,0.5,1,1,1s1-0.5,1-1v-6.8h0.5v6.8
			c0,0.5,0.5,1,1,1s1-0.5,1-1v-6.8h2.6l-2.7-9.6h0.4l1.6,5.5c0.1,0.4,0.5,0.7,1,0.5C175.1,297,175.4,296.6,175.3,296.2z"/>
		<path class="st5" d="M148.2,287.8c1.2,0,2.1-0.9,2.1-2.1s-0.9-2.1-2.1-2.1c-1.2,0-2.1,0.9-2.1,2.1
			C145.9,286.9,147,287.8,148.2,287.8z"/>
		<path class="st5" d="M150.9,288.3h-5.5c-1.3,0-2.4,1-2.4,2.4v6.7c0,0.5,0.4,0.9,0.9,0.9s0.9-0.4,0.9-0.9v-5.9h0.5v6.8v9.2
			c0,0.7,0.5,1.2,1.2,1.2s1.2-0.5,1.2-1.2v-9.2h0.5v9.2c0,0.7,0.5,1.2,1.2,1.2s1.2-0.5,1.2-1.2v-9.2v-6.8h0.5v5.9
			c0,0.5,0.4,0.9,0.9,0.9s0.9-0.4,0.9-0.9v-6.7C153.3,289.4,152.2,288.3,150.9,288.3z"/>
		<rect x="158.1" y="283.6" class="st5" width="2.4" height="24.9"/>
	</g>
	<g id="restroom_00000093154083196299017300000003324237930340482739_">
		<rect x="455.9" y="659.1" class="st4" width="68.6" height="68.6"/>
		<g>
			<g>
				<g>
					<path class="st5" d="M481.1,683.9c1.2,0,2.1-0.9,2.1-2.1c0-1.2-0.9-2.1-2.1-2.1s-2.1,0.9-2.1,2.1
						C478.8,683,479.9,683.9,481.1,683.9z"/>
					<path class="st5" d="M483.8,684.4h-5.5c-1.3,0-2.4,1-2.4,2.4v6.7c0,0.5,0.4,0.9,0.9,0.9s0.9-0.4,0.9-0.9v-5.9h0.5v6.8v9.2
						c0,0.7,0.5,1.2,1.2,1.2s1.2-0.5,1.2-1.2v-9.2h0.5v9.2c0,0.7,0.5,1.2,1.2,1.2s1.2-0.5,1.2-1.2v-9.2v-6.8h0.5v5.9
						c0,0.5,0.4,0.9,0.9,0.9s0.9-0.4,0.9-0.9v-6.7C486.2,685.5,485.1,684.4,483.8,684.4z"/>
				</g>
				<g>
					<path class="st5" d="M502.4,683.9c1.2,0,2.1-0.9,2.1-2.1c0-1.2-0.9-2.1-2.1-2.1s-2.1,0.9-2.1,2.1
						C500.2,683,501.2,683.9,502.4,683.9z"/>
					<path class="st5" d="M508.2,692.3l-1.8-6.3c-0.4-1.2-1.3-1.6-2.6-1.6l0,0h-2.9l0,0c-1.3,0-2.1,0.4-2.6,1.6l-1.8,6.3
						c-0.1,0.4,0.1,0.8,0.7,0.9c0.4,0.1,0.9-0.1,1-0.5l1.6-5.5h0.4l-2.7,9.6h2.6v6.8c0,0.5,0.5,1,1,1s1-0.5,1-1v-6.8h0.5v6.8
						c0,0.5,0.5,1,1,1s1-0.5,1-1v-6.8h2.6l-2.7-9.6h0.4l1.6,5.5c0.1,0.4,0.5,0.7,1,0.5C508,693,508.3,692.7,508.2,692.3z"/>
				</g>
			</g>
			<rect x="491" y="679.7" class="st5" width="2.4" height="24.9"/>
		</g>
	</g>
</g>
<g id="study_rooms">
	<rect x="123.1" y="335.9" class="st6" width="33.7" height="33.2"/>
	<rect x="123.1" y="369.1" class="st6" width="33.7" height="35.7"/>
</g>
<polygon id="SJPL_Works" class="st7" points="652.2,247.6 464.6,247.6 464.6,348.3 603.6,348.3 "/>
<g id="stacks">
	<polygon class="st8" points="148.4,198.7 148.4,248.8 213.9,248.8 213.9,349 174.5,349 174.5,431.1 216.2,431.1 216.2,504 
		148.4,504 148.4,622.1 219.8,622.1 219.8,803.7 275.4,803.7 275.4,198.7 	"/>
	<rect x="363.8" y="189.2" class="st8" width="52.5" height="169.8"/>
	<rect x="304.2" y="672" class="st8" width="61.3" height="62.2"/>
	<rect x="387.8" y="648.9" class="st8" width="50.6" height="159.7"/>
	<rect x="453.6" y="753.8" class="st8" width="54.1" height="88.6"/>
	
		<rect x="415.8" y="-21" transform="matrix(0.4338 -0.901 0.901 0.4338 138.4078 472.4796)" class="st8" width="58.7" height="294.3"/>
</g>
<g id="escalator_00000128455481549659585090000014671531253999155887_">
	<rect x="371.9" y="505.6" class="st9" width="34" height="107.7"/>
	<g>
		<g>
			<g>
				<path class="st10" d="M385.7,544.4c1.6,0,2.8-1.4,2.8-2.8c0-1.6-1.4-2.8-2.8-2.8c-1.6,0-2.8,1.4-2.8,2.8
					C382.8,543,384.2,544.4,385.7,544.4z"/>
				<path class="st10" d="M388.8,548.3c0-1.6-1.4-3-3-3s-3,1.4-3,3v6.8l6-6V548.3L388.8,548.3z"/>
				<path class="st10" d="M399.4,547.4h-5.3c-0.9,0-1.7,0.4-2.4,1.1l-9.3,9.3h-4.1c-1.9,0-3.4,1.6-3.4,3.4c0,1.9,1.6,3.4,3.4,3.4
					h5.6c0.9,0,1.7-0.4,2.4-1.1l9.3-9.3h3.8c1.9,0,3.4-1.6,3.4-3.4C402.7,548.9,401.3,547.4,399.4,547.4z"/>
			</g>
			<g>
				<path class="st10" d="M398.9,559.4c0.3,0,0.5,0.1,0.4,0.4l-0.9,4.9c0,0.3-0.3,0.4-0.4,0.5c-0.3,0.1-0.4,0.1-0.5,0l-0.5-0.5
					l-3.6,3.6c-0.3,0.3-0.7,0.3-0.8,0.1l-2.5-2.5c-0.1-0.1-0.1-0.5,0.1-0.8l3.6-3.6l-0.5-0.5c-0.1-0.1-0.1-0.4,0-0.5
					c0.1-0.3,0.4-0.4,0.5-0.4L398.9,559.4z"/>
			</g>
		</g>
	</g>
</g>
<g id="elevator">
	
		<rect x="441.5" y="510.2" transform="matrix(1.787253e-03 -1 1 1.787253e-03 -68.9845 968.2743)" class="st9" width="18.1" height="16.9"/>
	
		<rect x="441.3" y="535" transform="matrix(1.787253e-03 -1 1 1.787253e-03 -93.9078 992.732)" class="st9" width="18.1" height="16.9"/>
	
		<rect x="441.1" y="584.4" transform="matrix(1.787253e-03 -1 1 1.787253e-03 -143.4946 1042.0103)" class="st9" width="18.1" height="16.9"/>
	
		<rect x="441.3" y="609.3" transform="matrix(1.787253e-03 -1 1 1.787253e-03 -168.2254 1067.0721)" class="st9" width="18.1" height="16.9"/>
	<line class="st11" x1="463.3" y1="506.9" x2="463.3" y2="635.2"/>
	<g>
		<g>
			<path class="st1" d="M446.3,554.6c-0.2-0.2-0.4-0.3-0.6-0.3s-0.5,0.1-0.6,0.3c-0.5,0.5-1.4,1.4-2.7,2.7c-0.4,0.4-0.4,1,0,1.3
				c0.3,0.3,0.9,0.3,1.2,0l1.1-1.1v3.5c0,0.5,0.4,0.9,0.9,0.9h0.1c0.5,0,0.9-0.4,0.9-0.9v-3.5l1.1,1.1c0.3,0.3,0.9,0.3,1.2,0l0,0
				c0.3-0.3,0.3-0.9,0-1.2C447.6,555.9,446.9,555.2,446.3,554.6z"/>
			<path class="st1" d="M454.1,561.6c0.2,0.2,0.4,0.3,0.6,0.3s0.5-0.1,0.6-0.3c0.5-0.5,1.4-1.4,2.7-2.7c0.4-0.4,0.4-1,0-1.3
				c-0.3-0.3-0.9-0.3-1.2,0l-1.1,1.1v-3.5c0-0.5-0.4-0.9-0.9-0.9h-0.1c-0.5,0-0.9,0.4-0.9,0.9v3.5l-1.1-1.1c-0.3-0.3-0.9-0.3-1.2,0
				l0,0c-0.3,0.3-0.3,0.9,0,1.2C452.8,560.3,453.5,561,454.1,561.6z"/>
		</g>
		<g>
			<g>
				<path class="st1" d="M453.5,568.6c0.5,0,1-0.4,1-1c0-0.5-0.4-1-1-1c-0.5,0-1,0.4-1,1C452.6,568.1,453,568.6,453.5,568.6z"/>
				<path class="st1" d="M454.8,568.7h-2.4c-0.6,0-1,0.5-1,1v3c0,0.2,0.2,0.4,0.4,0.4c0.2,0,0.4-0.2,0.4-0.4v-2.6h0.2v3v4.1
					c0,0.3,0.2,0.6,0.6,0.6c0.3,0,0.6-0.2,0.6-0.6v-4.1h0.2v4.1c0,0.3,0.2,0.6,0.6,0.6c0.3,0,0.6-0.2,0.6-0.6v-4.1v-3h0.2v2.6
					c0,0.2,0.2,0.4,0.4,0.4c0.2,0,0.4-0.2,0.4-0.4v-3C455.8,569.2,455.3,568.7,454.8,568.7z"/>
			</g>
			<path class="st1" d="M447.3,568.6c0.5,0,1-0.4,1-1c0-0.5-0.4-1-1-1c-0.5,0-1,0.4-1,1C446.3,568.1,446.7,568.6,447.3,568.6z"/>
			<path class="st1" d="M449.9,572.3l-0.8-2.8c-0.2-0.5-0.6-0.7-1.2-0.7l0,0h-1.3l0,0c-0.6,0-1,0.2-1.2,0.7l-0.8,2.8
				c-0.1,0.2,0.1,0.4,0.3,0.4c0.2,0.1,0.4,0,0.5-0.2l0.7-2.5h0.2l-1.2,4.3h1.2v3c0,0.3,0.2,0.5,0.5,0.5s0.5-0.2,0.5-0.5v-3h0.2v3
				c0,0.3,0.2,0.5,0.5,0.5s0.5-0.2,0.5-0.5v-3h1.2l-1.2-4.3h0.2l0.7,2.5c0.1,0.2,0.3,0.3,0.5,0.2
				C449.8,572.6,449.9,572.4,449.9,572.3z"/>
		</g>
		<g>
			<path class="st1" d="M456.4,581.2H444c-2.5,0-4.6-2.6-4.6-5.7V569c0-3.2,2.1-5.7,4.6-5.7h12.3c2.5,0,4.6,2.6,4.6,5.7v6.5
				C460.9,578.6,458.9,581.2,456.4,581.2z M444,565.3c-1.6,0-2.9,1.6-2.9,3.6v6.5c0,2,1.3,3.6,2.9,3.6h12.3c1.6,0,2.9-1.6,2.9-3.6
				v-6.5c0-2-1.3-3.6-2.9-3.6H444z"/>
		</g>
	</g>
</g>
<g id="stairs_00000032626799022009418030000006004862700355200132_">
	<g>
		<path class="st1" d="M473.7,608.7c1.1,0,2.1-0.9,2.1-2.1c0-1.1-0.9-2.1-2.1-2.1c-1.1,0-2.1,0.9-2.1,2.1
			C471.7,607.8,472.6,608.7,473.7,608.7z"/>
		<path class="st1" d="M469.9,615.3c0.7,0,1.2-0.4,1.2-1.1v-1.3l0.7-0.4v3.3v0.7l-2,7.7c-0.2,0.6,0.2,1.2,0.8,1.3
			c0.7,0.2,1.3-0.1,1.6-0.8l1.8-7.1h1.8v2.3c0,0.7,0.6,1.1,1.2,1.1c0.7,0,1.2-0.4,1.2-1.1v-3.5c0-0.7-0.6-1.1-1.2-1.1l0,0l0,0h-2.7
			v-2.1l0.7,0.7c0.2,0.2,0.6,0.4,1,0.4l0,0h2.2c0.7,0,1.2-0.4,1.2-1.1s-0.6-1.1-1.2-1.1h-1.8l-2.2-2.4l-0.1-0.1
			c-0.1-0.1-0.2-0.3-0.4-0.4l0,0h-0.1l0,0h-0.1l0,0c0,0,0,0-0.1,0l0,0c0,0,0,0-0.1,0l0,0c0,0,0,0-0.1,0l0,0l0,0l0,0c0,0,0,0-0.1,0
			c0,0,0,0-0.1,0l0,0c0,0,0,0-0.1,0l0,0c0,0,0,0-0.1,0l0,0c0,0,0,0-0.1,0l0,0c0,0,0,0-0.1,0l0,0c0,0,0,0-0.1,0l0,0l-3.1,2.2
			c-0.3,0.2-0.4,0.6-0.4,0.9l0,0v1.9C468.7,614.8,469.1,615.3,469.9,615.3z"/>
		<path class="st1" d="M492.7,611.5H487c-0.2,0-0.3,0.2-0.4,0.4v5.2h-5.2c-0.2,0-0.3,0.2-0.4,0.4v5.6h-5.4c-0.2,0-0.3,0.2-0.4,0.4
			v5.1h-5.4c-0.2,0-0.3,0.2-0.4,0.4v4.9c0,0.2,0.2,0.3,0.4,0.4h22.8c0.2,0,0.3-0.2,0.4-0.4l-0.1-22
			C493,611.7,492.9,611.6,492.7,611.5z"/>
	</g>
</g>
<g id="Text">
	<text transform="matrix(1 0 0 1 124.9147 358.0731)" class="st5 st12 st13">390</text>
	<text transform="matrix(1 0 0 1 124.9149 390.086)" class="st5 st12 st13">392</text>
</g>
<g id="Floor_outline">
	<line class="st14" x1="681.1" y1="180.7" x2="524.9" y2="505.4"/>
	<line class="st14" x1="3.1" y1="646.3" x2="119.9" y2="403.5"/>
	<line class="st14" x1="116.9" y1="701.4" x2="3" y2="646.6"/>
	<line class="st14" x1="118.9" y1="866.2" x2="285.5" y2="946.3"/>
	<line class="st14" x1="120.3" y1="177.2" x2="228.8" y2="176.8"/>
	<line class="st14" x1="525.4" y1="82.7" x2="504" y2="95"/>
	<line class="st14" x1="525.4" y1="105.3" x2="525.4" y2="82.7"/>
	<line class="st14" x1="120.3" y1="177.4" x2="119.9" y2="403.5"/>
	<line class="st14" x1="525.4" y1="897.9" x2="524.2" y2="598.5"/>
	<line class="st14" x1="286.1" y1="820.6" x2="285.5" y2="946.3"/>
	<line class="st14" x1="118.9" y1="866.2" x2="118.4" y2="702.1"/>
	<line class="st14" x1="286.9" y1="820" x2="362.9" y2="820.3"/>
	<line class="st14" x1="524.7" y1="897.5" x2="363.7" y2="820.1"/>
	<line class="st14" x1="525.6" y1="105.5" x2="681.2" y2="180.4"/>
	<line class="st14" x1="228.8" y1="176.7" x2="312.2" y2="3.8"/>
	<line class="st14" x1="312.6" y1="3" x2="503.4" y2="94.8"/>
	<g>
		<line class="st15" x1="464.2" y1="505.5" x2="524.1" y2="505.5"/>
		<line class="st15" x1="464.1" y1="597.9" x2="464.2" y2="505.8"/>
		<line class="st15" x1="464.1" y1="598.6" x2="524.2" y2="598.6"/>
	</g>
</g>
<text transform="matrix(1 0 0 1 478 335.8898)" class="st12 st16">SJPL Works</text>
<g id="Emergency_exits_00000034768433437486480820000014483861586881515927_">
	<g>
		<ellipse class="st17" cx="137.9" cy="258.4" rx="15" ry="14.9"/>
		<g>
			<g>
				<path class="st5" d="M129.3,249.3l5.2-1.8c0.3-0.1,0.6,0.1,0.6,0.5v1.4h5.1c0.2,0,0.4,0.2,0.4,0.4v1.6c-0.3,0-0.6,0.1-0.8,0.2
					v-1.4h-4.6V266h3.1v0.2c0,0.2-0.1,0.4,0,0.6h-3v1.4c0,0.3-0.3,0.6-0.6,0.5l-5.2-1.8c-0.2-0.1-0.3-0.2-0.3-0.5v-16.7
					C129,249.5,129.1,249.3,129.3,249.3z"/>
				<g>
					<g>
						<path class="st5" d="M148.3,265.3H145c-0.4,0-0.8-0.3-1-0.7l-0.4-1.3l1.6-1.3l0,0l0.4,1.4h2.6c0.5,0,1,0.4,1,1
							C149.3,264.9,148.9,265.3,148.3,265.3z"/>
						<path class="st5" d="M140.7,255.7c-0.9-0.2-1.5-1.1-1.3-2.1c0.2-0.9,1.1-1.5,2.1-1.3s1.5,1.1,1.3,2.1
							C142.5,255.4,141.6,255.9,140.7,255.7z"/>
						<path class="st5" d="M147,259.9c-0.4,0.2-0.9,0-1.1-0.4l-0.7-1.5l-0.9-0.3l0.8,2.9c0.1,0.4,0,0.8-0.3,1l-2.8,2.3l-0.8,3
							c-0.1,0.5-0.5,0.7-1,0.7c-0.1,0-0.2,0-0.2,0c-0.5-0.1-0.9-0.7-0.7-1.2l0.8-3.3c0-0.2,0.2-0.4,0.3-0.5l1.8-1.4l-0.9-2.5
							l-0.9,1.1c-0.2,0.2-0.4,0.3-0.6,0.3c-0.1,0-0.3,0-0.4-0.1l-1.7-1c-0.4-0.2-0.5-0.7-0.3-1.1s0.8-0.5,1.1-0.3l1.1,0.6l0.9-1
							c0.2-0.3,0.5-0.5,0.9-0.6l1.5-0.5c0.4-0.2,0.9-0.2,1.4,0l1.9,0.6c0.2,0.1,0.4,0.2,0.5,0.5l0.8,1.8
							C147.6,259.3,147.4,259.7,147,259.9z"/>
					</g>
				</g>
			</g>
		</g>
	</g>
	<g>
		<circle class="st17" cx="506.3" cy="644" r="15"/>
		<g>
			<g>
				<path class="st5" d="M514.8,634.8l-5.2-1.8c-0.3-0.1-0.6,0.1-0.6,0.5v1.4h-5.1c-0.2,0-0.4,0.2-0.4,0.4v1.6
					c0.3,0,0.6,0.1,0.8,0.2v-1.4h4.6v15.9h-3.1v0.2c0,0.2,0.1,0.4,0,0.6h3v1.4c0,0.3,0.3,0.6,0.6,0.5l5.2-1.8
					c0.2-0.1,0.3-0.2,0.3-0.5v-16.8C515.1,635.1,515,634.9,514.8,634.8z"/>
				<g>
					<g>
						<path class="st5" d="M495.8,650.9h3.3c0.4,0,0.8-0.3,1-0.7l0.4-1.3l-1.6-1.3l0,0l-0.4,1.4h-2.6c-0.5,0-1,0.4-1,1
							C494.8,650.5,495.3,650.9,495.8,650.9z"/>
						<path class="st5" d="M503.5,641.3c0.9-0.2,1.5-1.1,1.3-2.1c-0.2-0.9-1.1-1.5-2.1-1.3c-0.9,0.2-1.5,1.1-1.3,2.1
							S502.6,641.5,503.5,641.3z"/>
						<path class="st5" d="M497.1,645.5c0.4,0.2,0.9,0,1.1-0.4l0.7-1.5l0.9-0.3l-0.8,2.9c-0.1,0.4,0,0.8,0.3,1l2.8,2.3l0.8,3
							c0.1,0.5,0.5,0.8,1,0.8c0.1,0,0.2,0,0.2,0c0.5-0.1,0.9-0.7,0.7-1.2l-0.8-3.4c0-0.2-0.2-0.4-0.3-0.5l-1.8-1.4l0.9-2.5l0.9,1.1
							c0.2,0.2,0.4,0.3,0.6,0.3c0.1,0,0.3,0,0.4-0.1l1.7-1c0.4-0.2,0.5-0.8,0.3-1.1c-0.2-0.4-0.8-0.5-1.1-0.3l-1.1,0.6l-0.9-1
							c-0.2-0.3-0.5-0.5-0.9-0.6l-1.5-0.5c-0.4-0.2-0.9-0.2-1.4,0l-1.9,0.6c-0.2,0.1-0.4,0.2-0.5,0.5l-0.8,1.8
							C496.5,644.9,496.7,645.3,497.1,645.5z"/>
					</g>
				</g>
			</g>
		</g>
	</g>
	<g>
		<circle class="st17" cx="508.2" cy="237.8" r="15"/>
		<g>
			<g>
				<path class="st5" d="M516.7,228.7l-5.2-1.8c-0.3-0.1-0.6,0.1-0.6,0.5v1.4h-5.1c-0.2,0-0.4,0.2-0.4,0.4v1.6
					c0.3,0,0.6,0.1,0.8,0.2v-1.4h4.6v15.9h-3.1v0.2c0,0.2,0.1,0.4,0,0.6h3v1.4c0,0.3,0.3,0.6,0.6,0.5l5.2-1.8
					c0.2-0.1,0.3-0.2,0.3-0.5v-16.8C517,228.9,516.9,228.7,516.7,228.7z"/>
				<g>
					<g>
						<path class="st5" d="M497.7,244.8h3.3c0.4,0,0.8-0.3,1-0.7l0.4-1.3l-1.6-1.3l0,0l-0.4,1.4h-2.6c-0.5,0-1,0.4-1,1
							C496.7,244.3,497.2,244.8,497.7,244.8z"/>
						<path class="st5" d="M505.4,235.2c0.9-0.2,1.5-1.1,1.3-2.1c-0.2-0.9-1.1-1.5-2.1-1.3c-0.9,0.2-1.5,1.1-1.3,2.1
							C503.5,234.8,504.5,235.4,505.4,235.2z"/>
						<path class="st5" d="M499,239.4c0.4,0.2,0.9,0,1.1-0.4l0.7-1.5l0.9-0.3l-0.8,2.9c-0.1,0.4,0,0.8,0.3,1l2.8,2.3l0.8,3
							c0.1,0.5,0.5,0.8,1,0.8c0.1,0,0.2,0,0.2,0c0.5-0.1,0.9-0.7,0.7-1.2l-0.8-3.4c0-0.2-0.2-0.4-0.3-0.5l-1.8-1.4l0.9-2.5l0.9,1.1
							c0.2,0.2,0.4,0.3,0.6,0.3c0.1,0,0.3,0,0.4-0.1l1.7-1c0.4-0.2,0.5-0.8,0.3-1.1c-0.2-0.4-0.8-0.5-1.1-0.3l-1.1,0.6l-0.9-1
							c-0.2-0.3-0.5-0.5-0.9-0.6l-1.5-0.5c-0.4-0.2-0.9-0.2-1.4,0l-1.9,0.6c-0.2,0.1-0.4,0.2-0.5,0.5l-0.8,1.8
							C498.4,238.7,498.6,239.2,499,239.4z"/>
					</g>
				</g>
			</g>
		</g>
	</g>
</g>
</svg>
