<?xml version="1.0" encoding="utf-8"?>
<!-- Generator: Adobe Illustrator 28.2.0, SVG Export Plug-In . SVG Version: 6.00 Build 0)  -->
<svg version="1.1" id="Layer_1" xmlns="http://www.w3.org/2000/svg" xmlns:xlink="http://www.w3.org/1999/xlink" x="0px" y="0px"
	 viewBox="0 0 684.2 949.3" style="enable-background:new 0 0 684.2 949.3;" xml:space="preserve">
<style type="text/css">
	.st0{fill:none;}
	.st1{fill:#231F20;}
	
		.st2{opacity:0.45;fill:url(#SVGID_00000047026230545342670850000008474742034574252693_);stroke:#BCBEC0;stroke-linecap:round;stroke-linejoin:round;enable-background:new    ;}
	.st3{opacity:0.5;fill:#A1BB7E;enable-background:new    ;}
	.st4{opacity:0.5;fill:#A1BB7E;}
	.st5{fill:#E4F0F9;}
	.st6{fill:#0073A0;}
	.st7{fill:#FFFFFF;}
	.st8{opacity:0.4;fill:#1A4363;enable-background:new    ;}
	.st9{fill:#231F20;stroke:#FFFFFF;stroke-width:0.25;stroke-miterlimit:10;}
	.st10{fill:none;stroke:#010101;stroke-width:4;stroke-miterlimit:10;}
	.st11{font-family:'ArialMT';}
	.st12{font-size:18px;}
	.st13{fill:none;stroke:#221F1F;stroke-width:6;stroke-linecap:round;stroke-linejoin:round;}
	.st14{fill:none;stroke:#231F20;stroke-width:6;stroke-linecap:round;stroke-linejoin:round;}
	.st15{fill:#C40000;stroke:#FFFFFF;stroke-width:3;stroke-miterlimit:10;}
	.st16{fill:#C40000;}
</style>
<pattern  y="949.3" width="28.8" height="28.8" patternUnits="userSpaceOnUse" id="SVGID_1_" viewBox="1.4 -30.2 28.8 28.8" style="overflow:visible;">
	<g>
		<rect x="1.4" y="-30.2" class="st0" width="28.8" height="28.8"/>
		<g>
			<rect x="1.4" y="-30.2" class="st0" width="28.8" height="28.8"/>
			<g>
				<rect x="1.4" y="-30.2" class="st0" width="28.8" height="28.8"/>
				<g>
					<rect x="1.4" y="-30.2" class="st0" width="28.8" height="28.8"/>
					<g>
						<rect x="1.4" y="-30.2" class="st0" width="28.8" height="28.8"/>
						<g>
							<rect x="1.4" y="-30.2" class="st0" width="28.8" height="28.8"/>
							<g>
								<rect x="1.4" y="-30.2" class="st0" width="28.8" height="28.8"/>
								<g>
									<rect x="1.4" y="-30.2" class="st0" width="28.8" height="28.8"/>
									<g>
										<rect x="1.4" y="-30.2" class="st0" width="28.8" height="28.8"/>
										<g>
											<rect x="1.4" y="-30.2" class="st0" width="28.8" height="28.8"/>
											<g>
												<rect x="1.4" y="-30.2" class="st0" width="28.8" height="28.8"/>
												<g>
													<rect x="1.4" y="-30.2" class="st0" width="28.8" height="28.8"/>
													<g>
														<path class="st1" d="M30.2-31.6c0.8,0,1.4,0.6,1.4,1.4c0,0.8-0.6,1.4-1.4,1.4s-1.4-0.6-1.4-1.4
															C28.8-31,29.4-31.6,30.2-31.6z"/>
														<path class="st1" d="M15.8-31.6c0.8,0,1.4,0.6,1.4,1.4c0,0.8-0.6,1.4-1.4,1.4c-0.8,0-1.4-0.6-1.4-1.4
															C14.4-31,15-31.6,15.8-31.6z"/>
														<path class="st1" d="M30.2-17.2c0.8,0,1.4,0.6,1.4,1.4s-0.6,1.4-1.4,1.4s-1.4-0.6-1.4-1.4
															C28.8-16.6,29.4-17.2,30.2-17.2z"/>
														<path class="st1" d="M15.8-17.2c0.8,0,1.4,0.6,1.4,1.4s-0.6,1.4-1.4,1.4c-0.8,0-1.4-0.6-1.4-1.4
															C14.4-16.6,15-17.2,15.8-17.2z"/>
														<path class="st1" d="M8.6-24.4c0.8,0,1.4,0.6,1.4,1.4c0,0.8-0.6,1.4-1.4,1.4c-0.8,0-1.4-0.6-1.4-1.4
															C7.2-23.8,7.8-24.4,8.6-24.4z"/>
														<path class="st1" d="M23-24.4c0.8,0,1.4,0.6,1.4,1.4c0,0.8-0.6,1.4-1.4,1.4s-1.4-0.6-1.4-1.4S22.2-24.4,23-24.4z"/>
														<path class="st1" d="M8.6-10C9.4-10,10-9.4,10-8.6S9.4-7.2,8.6-7.2c-0.8,0-1.4-0.6-1.4-1.4C7.2-9.4,7.8-10,8.6-10z"/>
														<path class="st1" d="M23-10c0.8,0,1.4,0.6,1.4,1.4S23.8-7.2,23-7.2s-1.4-0.6-1.4-1.4S22.2-10,23-10z"/>
													</g>
													<g>
														<path class="st1" d="M1.4-31.6c0.8,0,1.4,0.6,1.4,1.4c0,0.8-0.6,1.4-1.4,1.4C0.6-28.7,0-29.4,0-30.2
															C0-31,0.6-31.6,1.4-31.6z"/>
														<path class="st1" d="M1.4-17.2c0.8,0,1.4,0.6,1.4,1.4s-0.6,1.4-1.4,1.4S0-15,0-15.8S0.6-17.2,1.4-17.2z"/>
													</g>
													<g>
														<path class="st1" d="M30.2-2.8c0.8,0,1.4,0.6,1.4,1.4S31,0,30.2,0s-1.4-0.6-1.4-1.4C28.8-2.2,29.4-2.8,30.2-2.8z"/>
														<path class="st1" d="M15.8-2.8c0.8,0,1.4,0.6,1.4,1.4S16.6,0,15.8,0s-1.4-0.6-1.4-1.4C14.4-2.2,15-2.8,15.8-2.8z"/>
													</g>
													<g>
														<path class="st1" d="M1.4-2.8c0.8,0,1.4,0.6,1.4,1.4S2.2,0,1.4,0C0.6,0.1,0-0.6,0-1.4C0-2.2,0.6-2.8,1.4-2.8z"/>
													</g>
												</g>
											</g>
										</g>
									</g>
								</g>
							</g>
						</g>
					</g>
				</g>
			</g>
		</g>
	</g>
</pattern>
<g id="employee_areas">
	
		<pattern  id="SVGID_00000174599239223984350700000018012200404440272029_" xlink:href="#SVGID_1_" patternTransform="matrix(1 0 0 1 -134.28 103655.3438)">
	</pattern>
	
		<polyline style="opacity:0.45;fill:url(#SVGID_00000174599239223984350700000018012200404440272029_);stroke:#BCBEC0;stroke-linecap:round;stroke-linejoin:round;enable-background:new    ;" points="
		463.7,504.1 525.1,504.3 680.6,181.1 677.2,179.3 525.8,105.9 524.5,83.2 504.5,94.9 312.5,3.3 308.5,10.9 225.8,177.5 
		119.5,176.2 119.5,176.3 120.4,403.4 4,644.1 117.5,701.7 118.7,865 285.5,946.3 285.5,876.3 217.7,876.3 217.8,813.1 217,376.2 
		218.5,377.3 436.1,376 462.3,375.8 462.3,502 	"/>
</g>
<rect id="SCS" x="285.8" y="656.4" class="st3" width="77.5" height="80.2"/>
<rect id="Jon_Oakes_KLEVR_Lab_00000072255780546210154770000002344932845885032357_" x="218.2" y="818.8" class="st4" width="64.7" height="57.5"/>
<polygon id="atrium" class="st5" points="292.4,426.2 368.9,425.6 368.5,579.4 291.9,580 "/>
<g id="restroom_00000093154083196299017300000003324237930340482739_">
	<rect x="455.9" y="658.9" class="st6" width="68.6" height="68.6"/>
	<g>
		<g>
			<g>
				<path class="st7" d="M481.1,683.7c1.2,0,2.1-0.9,2.1-2.1c0-1.2-0.9-2.1-2.1-2.1s-2.1,0.9-2.1,2.1
					C478.8,682.8,479.9,683.7,481.1,683.7z"/>
				<path class="st7" d="M483.8,684.2h-5.5c-1.3,0-2.4,1-2.4,2.4v6.7c0,0.5,0.4,0.9,0.9,0.9s0.9-0.4,0.9-0.9v-5.9h0.5v6.8v9.2
					c0,0.7,0.5,1.2,1.2,1.2s1.2-0.5,1.2-1.2v-9.2h0.5v9.2c0,0.7,0.5,1.2,1.2,1.2s1.2-0.5,1.2-1.2v-9.2v-6.8h0.5v5.9
					c0,0.5,0.4,0.9,0.9,0.9s0.9-0.4,0.9-0.9v-6.7C486.2,685.3,485.1,684.2,483.8,684.2z"/>
			</g>
			<g>
				<path class="st7" d="M502.4,683.7c1.2,0,2.1-0.9,2.1-2.1c0-1.2-0.9-2.1-2.1-2.1s-2.1,0.9-2.1,2.1
					C500.2,682.8,501.2,683.7,502.4,683.7z"/>
				<path class="st7" d="M508.2,692.1l-1.8-6.3c-0.4-1.2-1.3-1.6-2.6-1.6l0,0h-2.9l0,0c-1.3,0-2.1,0.4-2.6,1.6l-1.8,6.3
					c-0.1,0.4,0.1,0.8,0.7,0.9c0.4,0.1,0.9-0.1,1-0.5l1.6-5.5h0.4l-2.7,9.6h2.6v6.8c0,0.5,0.5,1,1,1s1-0.5,1-1v-6.8h0.5v6.8
					c0,0.5,0.5,1,1,1s1-0.5,1-1v-6.8h2.6l-2.7-9.6h0.4l1.6,5.5c0.1,0.4,0.5,0.7,1,0.5C508,692.8,508.3,692.5,508.2,692.1z"/>
			</g>
		</g>
		<rect x="491" y="679.5" class="st7" width="2.4" height="24.9"/>
	</g>
</g>
<g id="escalator">
	<rect x="372" y="505.6" class="st8" width="34" height="107.7"/>
	<g>
		<g>
			<g>
				<path class="st9" d="M385.8,544.4c1.6,0,2.8-1.4,2.8-2.8c0-1.6-1.4-2.8-2.8-2.8c-1.6,0-2.8,1.4-2.8,2.8
					C382.9,543,384.3,544.4,385.8,544.4z"/>
				<path class="st9" d="M388.9,548.3c0-1.6-1.4-3-3-3s-3,1.4-3,3v6.8l6-6V548.3L388.9,548.3z"/>
				<path class="st9" d="M399.5,547.4h-5.3c-0.9,0-1.7,0.4-2.4,1.1l-9.3,9.3h-4.1c-1.9,0-3.4,1.6-3.4,3.4c0,1.9,1.6,3.4,3.4,3.4h5.6
					c0.9,0,1.7-0.4,2.4-1.1l9.3-9.3h3.8c1.9,0,3.4-1.6,3.4-3.4C402.8,548.9,401.4,547.4,399.5,547.4z"/>
			</g>
			<g>
				<path class="st9" d="M399,559.4c0.3,0,0.5,0.1,0.4,0.4l-0.9,4.9c0,0.3-0.3,0.4-0.4,0.5c-0.3,0.1-0.4,0.1-0.5,0l-0.5-0.5
					l-3.6,3.6c-0.3,0.3-0.7,0.3-0.8,0.1l-2.5-2.5c-0.1-0.1-0.1-0.5,0.1-0.8l3.6-3.6l-0.5-0.5c-0.1-0.1-0.1-0.4,0-0.5
					c0.1-0.3,0.4-0.4,0.5-0.4L399,559.4z"/>
			</g>
		</g>
	</g>
</g>
<g id="elevator">
	
		<rect x="441.6" y="509.8" transform="matrix(1.787253e-03 -1 1 1.787253e-03 -68.3472 968.0048)" class="st8" width="18.1" height="16.9"/>
	
		<rect x="441.4" y="534.5" transform="matrix(1.787253e-03 -1 1 1.787253e-03 -93.2692 992.4636)" class="st8" width="18.1" height="16.9"/>
	
		<rect x="441.3" y="584" transform="matrix(1.787253e-03 -1 1 1.787253e-03 -142.8573 1041.7406)" class="st8" width="18.1" height="16.9"/>
	
		<rect x="441.6" y="608.9" transform="matrix(1.787253e-03 -1 1 1.787253e-03 -167.4865 1066.9009)" class="st8" width="18.1" height="16.9"/>
	<line class="st10" x1="463.6" y1="506.5" x2="463.6" y2="634.8"/>
	<g>
		<g>
			<path class="st1" d="M446.5,554.2c-0.2-0.2-0.4-0.3-0.6-0.3s-0.5,0.1-0.6,0.3c-0.5,0.5-1.4,1.4-2.7,2.7c-0.4,0.4-0.4,1,0,1.3
				c0.3,0.3,0.9,0.3,1.2,0l1.1-1.1v3.5c0,0.5,0.4,0.9,0.9,0.9h0.1c0.5,0,0.9-0.4,0.9-0.9v-3.5l1.1,1.1c0.3,0.3,0.9,0.3,1.2,0l0,0
				c0.3-0.3,0.3-0.9,0-1.2C447.8,555.5,447.1,554.8,446.5,554.2z"/>
			<path class="st1" d="M454.3,561.2c0.2,0.2,0.4,0.3,0.6,0.3s0.5-0.1,0.6-0.3c0.5-0.5,1.4-1.4,2.7-2.7c0.4-0.4,0.4-1,0-1.3
				c-0.3-0.3-0.9-0.3-1.2,0l-1.1,1.1v-3.5c0-0.5-0.4-0.9-0.9-0.9h-0.1c-0.5,0-0.9,0.4-0.9,0.9v3.5l-1.1-1.1c-0.3-0.3-0.9-0.3-1.2,0
				l0,0c-0.3,0.3-0.3,0.9,0,1.2C453,559.9,453.7,560.6,454.3,561.2z"/>
		</g>
		<g>
			<g>
				<path class="st1" d="M453.7,568.2c0.5,0,1-0.4,1-1c0-0.5-0.4-1-1-1c-0.5,0-1,0.4-1,1C452.8,567.7,453.2,568.2,453.7,568.2z"/>
				<path class="st1" d="M455,568.3h-2.4c-0.6,0-1,0.5-1,1v3c0,0.2,0.2,0.4,0.4,0.4c0.2,0,0.4-0.2,0.4-0.4v-2.6h0.2v3v4.1
					c0,0.3,0.2,0.6,0.6,0.6c0.3,0,0.6-0.2,0.6-0.6v-4.1h0.2v4.1c0,0.3,0.2,0.6,0.6,0.6c0.3,0,0.6-0.2,0.6-0.6v-4.1v-3h0.2v2.6
					c0,0.2,0.2,0.4,0.4,0.4c0.2,0,0.4-0.2,0.4-0.4v-3C456,568.8,455.5,568.3,455,568.3z"/>
			</g>
			<path class="st1" d="M447.5,568.2c0.5,0,1-0.4,1-1c0-0.5-0.4-1-1-1c-0.5,0-1,0.4-1,1C446.5,567.7,446.9,568.2,447.5,568.2z"/>
			<path class="st1" d="M450.1,571.9l-0.8-2.8c-0.2-0.5-0.6-0.7-1.2-0.7l0,0h-1.3l0,0c-0.6,0-1,0.2-1.2,0.7l-0.8,2.8
				c-0.1,0.2,0.1,0.4,0.3,0.4c0.2,0.1,0.4,0,0.5-0.2l0.7-2.5h0.2l-1.2,4.3h1.2v3c0,0.3,0.2,0.5,0.5,0.5s0.5-0.2,0.5-0.5v-3h0.2v3
				c0,0.3,0.2,0.5,0.5,0.5s0.5-0.2,0.5-0.5v-3h1.2l-1.2-4.3h0.2l0.7,2.5c0.1,0.2,0.3,0.3,0.5,0.2C450,572.2,450.1,572,450.1,571.9z"
				/>
		</g>
		<g>
			<path class="st1" d="M456.6,580.8h-12.4c-2.5,0-4.6-2.6-4.6-5.7v-6.5c0-3.2,2.1-5.7,4.6-5.7h12.3c2.5,0,4.6,2.6,4.6,5.7v6.5
				C461.1,578.2,459.1,580.8,456.6,580.8z M444.2,564.9c-1.6,0-2.9,1.6-2.9,3.6v6.5c0,2,1.3,3.6,2.9,3.6h12.3c1.6,0,2.9-1.6,2.9-3.6
				v-6.5c0-2-1.3-3.6-2.9-3.6H444.2z"/>
		</g>
	</g>
</g>
<g id="stairs_00000032626799022009418030000006004862700355200132_">
	<g>
		<path class="st1" d="M473.9,608.3c1.1,0,2.1-0.9,2.1-2.1c0-1.1-0.9-2.1-2.1-2.1c-1.1,0-2.1,0.9-2.1,2.1
			C471.9,607.4,472.8,608.3,473.9,608.3z"/>
		<path class="st1" d="M470.2,614.8c0.7,0,1.2-0.4,1.2-1.1v-1.3l0.7-0.4v3.3v0.7l-2,7.7c-0.2,0.6,0.2,1.2,0.8,1.3
			c0.7,0.2,1.3-0.1,1.6-0.8l1.8-7.1h1.8v2.3c0,0.7,0.6,1.1,1.2,1.1c0.7,0,1.2-0.4,1.2-1.1V616c0-0.7-0.6-1.1-1.2-1.1l0,0l0,0h-2.7
			v-2.1l0.7,0.7c0.2,0.2,0.6,0.4,1,0.4l0,0h2.2c0.7,0,1.2-0.4,1.2-1.1c0-0.7-0.6-1.1-1.2-1.1h-1.8l-2.2-2.4l-0.1-0.1
			c-0.1-0.1-0.2-0.3-0.4-0.4l0,0h-0.1l0,0h-0.1l0,0c0,0,0,0-0.1,0l0,0c0,0,0,0-0.1,0l0,0c0,0,0,0-0.1,0l0,0l0,0l0,0c0,0,0,0-0.1,0
			c0,0,0,0-0.1,0l0,0c0,0,0,0-0.1,0l0,0c0,0,0,0-0.1,0l0,0c0,0,0,0-0.1,0l0,0c0,0,0,0-0.1,0l0,0c0,0,0,0-0.1,0l0,0l-3.1,2.2
			c-0.3,0.2-0.4,0.6-0.4,0.9l0,0v1.9C468.9,614.4,469.4,614.8,470.2,614.8z"/>
		<path class="st1" d="M492.9,611h-5.7c-0.2,0-0.3,0.2-0.4,0.4v5.2h-5.2c-0.2,0-0.3,0.2-0.4,0.4v5.6h-5.4c-0.2,0-0.3,0.2-0.4,0.4
			v5.1h-5.2c-0.2,0-0.3,0.2-0.4,0.4v4.9c0,0.2,0.2,0.3,0.4,0.4H493c0.2,0,0.3-0.2,0.4-0.4l-0.1-22
			C493.3,611.3,493.2,611.2,492.9,611z"/>
	</g>
</g>
<g id="Text">
	<text transform="matrix(1 0 0 1 325.1045 672.2338)" class="st11 st12">SCS</text>
	<text transform="matrix(1 0 0 1 220.3101 836.9946)" class="st11 st12">KLEVR</text>
	<text transform="matrix(1 0 0 1 220.3101 856.5946)" class="st11 st12">Lab</text>
	<text transform="matrix(1 0 0 1 287.0419 735.0167)" class="st11 st12">STTC</text>
</g>
<g id="floor_outline">
	<line class="st13" x1="681.1" y1="180.7" x2="524.9" y2="505.4"/>
	<line class="st13" x1="3.1" y1="646.3" x2="119.9" y2="403.5"/>
	<line class="st13" x1="116.9" y1="701.4" x2="3" y2="646.6"/>
	<line class="st13" x1="118.9" y1="866.2" x2="285.5" y2="946.3"/>
	<line class="st13" x1="120.3" y1="177.2" x2="228.8" y2="176.8"/>
	<line class="st13" x1="525.4" y1="82.7" x2="504" y2="95"/>
	<line class="st13" x1="525.4" y1="105.3" x2="525.4" y2="82.7"/>
	<line class="st13" x1="120.3" y1="177.4" x2="119.9" y2="403.5"/>
	<line class="st13" x1="525.4" y1="897.9" x2="524.2" y2="598.5"/>
	<line class="st13" x1="286.1" y1="820.6" x2="285.5" y2="946.3"/>
	<line class="st13" x1="118.9" y1="866.2" x2="118.4" y2="702.1"/>
	<line class="st13" x1="286.9" y1="820" x2="362.9" y2="820.3"/>
	<line class="st13" x1="524.7" y1="897.5" x2="363.7" y2="820.1"/>
	<line class="st13" x1="525.6" y1="105.5" x2="681.2" y2="180.4"/>
	<line class="st13" x1="228.8" y1="176.7" x2="312.2" y2="3.8"/>
	<path class="st14" d="M524.5,506.1"/>
	<path class="st14" d="M464.2,505.4"/>
	<path class="st14" d="M464.2,505.7"/>
	<path class="st14" d="M463.4,598.4"/>
	<path class="st14" d="M524.2,598.5"/>
	<path class="st14" d="M463.4,598.4"/>
	<line class="st13" x1="312.6" y1="3" x2="503.4" y2="94.8"/>
	<g>
		<line class="st14" x1="464.2" y1="505.5" x2="524.1" y2="505.5"/>
		<line class="st14" x1="464.1" y1="597.9" x2="464.2" y2="505.8"/>
		<line class="st14" x1="464.1" y1="598.6" x2="524.2" y2="598.6"/>
	</g>
</g>
<g id="Emergency_exits_00000111156210755232981750000001433784447068745400_">
	<g>
		<g>
			<path class="st15" d="M527,629.7l-7.2-2.5c-0.4-0.1-0.9,0.2-0.9,0.7v2h-7c-0.3,0-0.5,0.2-0.5,0.5v2.2c0.4,0.1,0.8,0.2,1.1,0.3v-2
				h6.4v21.9h-4.3l0.1,0.3c0.1,0.3,0.1,0.5,0.1,0.9h4.1v2c0,0.4,0.4,0.8,0.9,0.7l7.2-2.5c0.3-0.1,0.4-0.3,0.4-0.7v-23.1
				C527.4,630,527.2,629.8,527,629.7z"/>
			<path class="st15" d="M500.8,651.8h4.6c0.7,0,1.1-0.4,1.3-1l0.4-1.9l-2.2-1.9c0,0,0,0-0.1-0.1l-0.5,2h-3.5
				c-0.8,0-1.4,0.7-1.4,1.4C499.5,651.3,500,651.8,500.8,651.8z"/>
			<path class="st15" d="M511.4,638.5c1.3-0.3,2.1-1.5,1.8-2.9c-0.3-1.3-1.5-2.1-2.9-1.8c-1.3,0.3-2.1,1.5-1.8,2.9
				C508.9,638.1,510.1,638.9,511.4,638.5z"/>
			<path class="st15" d="M502.7,644.4c0.5,0.2,1.2,0,1.5-0.5l0.9-2.1l1.3-0.4l-1,3.9c-0.1,0.5,0.1,1.1,0.4,1.4l3.8,3.2l1,4.2
				c0.1,0.7,0.8,1,1.3,1c0.1,0,0.2,0,0.3,0c0.8-0.2,1.2-0.9,1-1.6l-1.1-4.6c-0.1-0.3-0.2-0.5-0.4-0.8l-2.4-2l1.3-3.4l1.3,1.5
				c0.2,0.2,0.5,0.4,0.9,0.4c0.2,0,0.4-0.1,0.5-0.2l2.3-1.4c0.5-0.3,0.8-1,0.4-1.5c-0.3-0.5-1-0.8-1.5-0.4l-1.5,0.9l-1.2-1.4
				c-0.3-0.3-0.8-0.7-1.2-0.9l-2.1-0.8c-0.7-0.2-1.3-0.2-1.9,0l-2.6,0.9c-0.3,0.1-0.5,0.3-0.7,0.7l-1.1,2.5
				C501.8,643.5,502,644.1,502.7,644.4z"/>
		</g>
	</g>
	<g>
		<g>
			<path class="st16" d="M527,629.7l-7.2-2.5c-0.4-0.1-0.9,0.2-0.9,0.7v2h-7c-0.3,0-0.5,0.2-0.5,0.5v2.2c0.4,0.1,0.8,0.2,1.1,0.3v-2
				h6.4v21.9h-4.3l0.1,0.3c0.1,0.3,0.1,0.5,0.1,0.9h4.1v2c0,0.4,0.4,0.8,0.9,0.7l7.2-2.5c0.3-0.1,0.4-0.3,0.4-0.7v-23.1
				C527.4,630,527.2,629.8,527,629.7z"/>
			<path class="st16" d="M500.8,651.8h4.6c0.7,0,1.1-0.4,1.3-1l0.4-1.9l-2.2-1.9c0,0,0,0-0.1-0.1l-0.5,2h-3.5
				c-0.8,0-1.4,0.7-1.4,1.4C499.5,651.3,500,651.8,500.8,651.8z"/>
			<path class="st16" d="M511.4,638.5c1.3-0.3,2.1-1.5,1.8-2.9c-0.3-1.3-1.5-2.1-2.9-1.8c-1.3,0.3-2.1,1.5-1.8,2.9
				C508.9,638.1,510.1,638.9,511.4,638.5z"/>
			<path class="st16" d="M502.7,644.4c0.5,0.2,1.2,0,1.5-0.5l0.9-2.1l1.3-0.4l-1,3.9c-0.1,0.5,0.1,1.1,0.4,1.4l3.8,3.2l1,4.2
				c0.1,0.7,0.8,1,1.3,1c0.1,0,0.2,0,0.3,0c0.8-0.2,1.2-0.9,1-1.6l-1.1-4.6c-0.1-0.3-0.2-0.5-0.4-0.8l-2.4-2l1.3-3.4l1.3,1.5
				c0.2,0.2,0.5,0.4,0.9,0.4c0.2,0,0.4-0.1,0.5-0.2l2.3-1.4c0.5-0.3,0.8-1,0.4-1.5c-0.3-0.5-1-0.8-1.5-0.4l-1.5,0.9l-1.2-1.4
				c-0.3-0.3-0.8-0.7-1.2-0.9l-2.1-0.8c-0.7-0.2-1.3-0.2-1.9,0l-2.6,0.9c-0.3,0.1-0.5,0.3-0.7,0.7l-1.1,2.5
				C501.8,643.5,502,644.1,502.7,644.4z"/>
		</g>
	</g>
	<g>
		<g>
			<path class="st15" d="M217.2,739.7l7.2-2.5c0.4-0.1,0.9,0.2,0.9,0.7v2h7c0.3,0,0.5,0.2,0.5,0.5v2.2c-0.4,0.1-0.8,0.2-1.1,0.3v-2
				h-6.4v21.9h4.3l-0.1,0.3c-0.1,0.3-0.1,0.5-0.1,0.9h-4.1v2c0,0.4-0.4,0.8-0.9,0.7l-7.2-2.5c-0.3-0.1-0.4-0.3-0.4-0.7v-23.1
				C216.8,740,217,739.8,217.2,739.7z"/>
			<path class="st15" d="M243.5,761.9h-4.6c-0.7,0-1.1-0.4-1.3-1l-0.4-1.9l2.2-1.9c0,0,0,0,0.1-0.1l0.5,2h3.5c0.8,0,1.4,0.7,1.4,1.4
				C244.9,761.3,244.2,761.9,243.5,761.9z"/>
			<path class="st15" d="M232.9,748.6c-1.3-0.3-2.1-1.5-1.8-2.9s1.5-2.1,2.9-1.8c1.3,0.3,2.1,1.5,1.8,2.9S234.1,748.9,232.9,748.6z"
				/>
			<path class="st15" d="M241.7,754.4c-0.5,0.2-1.2,0-1.5-0.5l-0.9-2.1l-1.3-0.4l1,3.9c0.1,0.5-0.1,1.1-0.4,1.4l-3.8,3.2l-1,4.2
				c-0.1,0.7-0.8,1-1.3,1c-0.1,0-0.2,0-0.3,0c-0.8-0.2-1.2-0.9-1-1.6l1.1-4.6c0.1-0.3,0.2-0.5,0.4-0.8l2.4-2l-1.3-3.4l-1.3,1.5
				c-0.2,0.2-0.5,0.4-0.9,0.4c-0.2,0-0.4-0.1-0.5-0.2l-2.3-1.4c-0.5-0.3-0.8-1-0.4-1.5s1-0.8,1.5-0.4l1.5,0.9l1.2-1.4
				c0.3-0.3,0.8-0.7,1.2-0.9l2.1-0.8c0.7-0.2,1.3-0.2,1.9,0l2.6,0.9c0.3,0.1,0.5,0.3,0.7,0.7l1.1,2.5
				C242.5,753.5,242.3,754.2,241.7,754.4z"/>
		</g>
	</g>
	<g>
		<g>
			<path class="st16" d="M217.2,739.7l7.2-2.5c0.4-0.1,0.9,0.2,0.9,0.7v2h7c0.3,0,0.5,0.2,0.5,0.5v2.2c-0.4,0.1-0.8,0.2-1.1,0.3v-2
				h-6.4v21.9h4.3l-0.1,0.3c-0.1,0.3-0.1,0.5-0.1,0.9h-4.1v2c0,0.4-0.4,0.8-0.9,0.7l-7.2-2.5c-0.3-0.1-0.4-0.3-0.4-0.7v-23.1
				C216.8,740,217,739.8,217.2,739.7z"/>
			<path class="st16" d="M243.5,761.9h-4.6c-0.7,0-1.1-0.4-1.3-1l-0.4-1.9l2.2-1.9c0,0,0,0,0.1-0.1l0.5,2h3.5c0.8,0,1.4,0.7,1.4,1.4
				C244.9,761.3,244.2,761.9,243.5,761.9z"/>
			<path class="st16" d="M232.9,748.6c-1.3-0.3-2.1-1.5-1.8-2.9s1.5-2.1,2.9-1.8c1.3,0.3,2.1,1.5,1.8,2.9S234.1,748.9,232.9,748.6z"
				/>
			<path class="st16" d="M241.7,754.4c-0.5,0.2-1.2,0-1.5-0.5l-0.9-2.1l-1.3-0.4l1,3.9c0.1,0.5-0.1,1.1-0.4,1.4l-3.8,3.2l-1,4.2
				c-0.1,0.7-0.8,1-1.3,1c-0.1,0-0.2,0-0.3,0c-0.8-0.2-1.2-0.9-1-1.6l1.1-4.6c0.1-0.3,0.2-0.5,0.4-0.8l2.4-2l-1.3-3.4l-1.3,1.5
				c-0.2,0.2-0.5,0.4-0.9,0.4c-0.2,0-0.4-0.1-0.5-0.2l-2.3-1.4c-0.5-0.3-0.8-1-0.4-1.5s1-0.8,1.5-0.4l1.5,0.9l1.2-1.4
				c0.3-0.3,0.8-0.7,1.2-0.9l2.1-0.8c0.7-0.2,1.3-0.2,1.9,0l2.6,0.9c0.3,0.1,0.5,0.3,0.7,0.7l1.1,2.5
				C242.5,753.5,242.3,754.2,241.7,754.4z"/>
		</g>
	</g>
</g>
</svg>
