<?xml version="1.0" encoding="utf-8"?>
<!-- Generator: Adobe Illustrator 28.0.0, SVG Export Plug-In . SVG Version: 6.00 Build 0)  -->
<svg version="1.1" id="Layer_1" xmlns="http://www.w3.org/2000/svg" xmlns:xlink="http://www.w3.org/1999/xlink" x="0px" y="0px"
	 width="1207.8px" height="937px" viewBox="0 0 1207.8 937" style="enable-background:new 0 0 1207.8 937;" xml:space="preserve">
<style type="text/css">
	.st0{fill:none;}
	.st1{fill:none;stroke:#231F20;stroke-width:0.3;}
	.st2{fill:none;stroke:#A2C9EA;stroke-miterlimit:10;}
	.st3{fill:#A2C9EA;}
	.st4{font-family:'Arial-ItalicMT';}
	.st5{font-size:14.0015px;}
	.st6{font-family:'ArialNarrow-Bold';}
	.st7{font-size:33.4957px;}
	.st8{font-size:14px;}
	.st9{font-family:'ArialNarrow-Italic';}
	.st10{font-size:14.64px;}
	.st11{fill:#B9DDA4;stroke:#000000;stroke-width:1;stroke-miterlimit:10;}
	.st12{fill:none;stroke:#000000;stroke-linecap:round;stroke-linejoin:round;stroke-miterlimit:10;}
	.st13{fill:#B9DDA4;stroke:#000000;stroke-miterlimit:10;}
	.st14{fill:none;stroke:#000000;stroke-width:1.5;stroke-miterlimit:10;}
	.st15{fill:none;stroke:#000000;stroke-width:1.3;stroke-miterlimit:10;}
	.st16{stroke:#000000;stroke-width:1.3;stroke-miterlimit:10;}
	.st17{fill:#FCECA4;stroke:#000000;stroke-width:2;stroke-linecap:round;stroke-linejoin:round;stroke-miterlimit:9.9997;}
	.st18{fill:#E5E5E5;stroke:#000000;stroke-width:1.9997;stroke-linecap:round;stroke-linejoin:round;stroke-miterlimit:9.9988;}
	
		.st19{fill:url(#SVGID_00000171720354132474515190000009495882803117719172_);stroke:#000000;stroke-width:4;stroke-linecap:round;stroke-linejoin:round;stroke-miterlimit:10;}
	.st20{fill:#FFFFFF;}
	.st21{font-family:'MyriadPro-Regular';}
	.st22{fill:#E4F2F9;}
	.st23{font-family:'Arial-BoldMT';}
	.st24{font-size:300px;}
	.st25{letter-spacing:6;}
	.st26{font-size:48px;}
	.st27{fill:#FCECA4;stroke:#000000;stroke-linecap:round;stroke-linejoin:round;stroke-miterlimit:10;}
	.st28{fill:#FCECA4;stroke:#000000;stroke-width:1;stroke-linecap:round;stroke-linejoin:round;stroke-miterlimit:9.9997;}
	.st29{fill:#C4EBF7;stroke:#000000;stroke-width:1;stroke-miterlimit:10.0012;}
	.st30{fill:none;stroke:#000000;stroke-width:4;stroke-linecap:round;stroke-linejoin:round;stroke-miterlimit:10;}
	.st31{fill:#FF0000;}
	.st32{fill:#146EDC;}
</style>
<pattern  y="937" width="72" height="72" patternUnits="userSpaceOnUse" id="SVGID_1_" viewBox="72.2 -144.3 72 72" style="overflow:visible;">
	<g>
		<rect x="72.2" y="-144.3" class="st0" width="72" height="72"/>
		<g>
			<rect x="72.2" y="-144.3" class="st0" width="72" height="72"/>
			<g>
				<rect x="72.2" y="-144.3" class="st0" width="72" height="72"/>
				<g>
					<rect x="72.2" y="-144.3" class="st0" width="72" height="72"/>
					<g>
						<line class="st1" x1="78.2" y1="-144" x2="78.2" y2="-216.5"/>
						<line class="st1" x1="102.2" y1="-144" x2="102.2" y2="-216.5"/>
						<line class="st1" x1="126.2" y1="-144" x2="126.2" y2="-216.5"/>
						<line class="st1" x1="90.2" y1="-144" x2="90.2" y2="-216.5"/>
						<line class="st1" x1="114.2" y1="-144" x2="114.2" y2="-216.5"/>
						<line class="st1" x1="138.2" y1="-144" x2="138.2" y2="-216.5"/>
					</g>
					<g>
						<line class="st1" x1="144" y1="-138.3" x2="216.5" y2="-138.3"/>
						<line class="st1" x1="144" y1="-114.3" x2="216.5" y2="-114.3"/>
						<line class="st1" x1="144" y1="-90.3" x2="216.5" y2="-90.3"/>
						<line class="st1" x1="144" y1="-126.3" x2="216.5" y2="-126.3"/>
						<line class="st1" x1="144" y1="-102.3" x2="216.5" y2="-102.3"/>
						<line class="st1" x1="144" y1="-78.3" x2="216.5" y2="-78.3"/>
					</g>
					<g>
						<line class="st1" x1="78.2" y1="-72" x2="78.2" y2="-144.5"/>
						<line class="st1" x1="102.2" y1="-72" x2="102.2" y2="-144.5"/>
						<line class="st1" x1="126.2" y1="-72" x2="126.2" y2="-144.5"/>
						<line class="st1" x1="72" y1="-138.3" x2="144.5" y2="-138.3"/>
						<line class="st1" x1="72" y1="-114.3" x2="144.5" y2="-114.3"/>
						<line class="st1" x1="72" y1="-90.3" x2="144.5" y2="-90.3"/>
						<line class="st1" x1="72" y1="-126.3" x2="144.5" y2="-126.3"/>
						<line class="st1" x1="72" y1="-102.3" x2="144.5" y2="-102.3"/>
						<line class="st1" x1="72" y1="-78.3" x2="144.5" y2="-78.3"/>
						<line class="st1" x1="90.2" y1="-72" x2="90.2" y2="-144.5"/>
						<line class="st1" x1="114.2" y1="-72" x2="114.2" y2="-144.5"/>
						<line class="st1" x1="138.2" y1="-72" x2="138.2" y2="-144.5"/>
					</g>
					<g>
						<line class="st1" x1="0" y1="-138.3" x2="72.5" y2="-138.3"/>
						<line class="st1" x1="0" y1="-114.3" x2="72.5" y2="-114.3"/>
						<line class="st1" x1="0" y1="-90.3" x2="72.5" y2="-90.3"/>
						<line class="st1" x1="0" y1="-126.3" x2="72.5" y2="-126.3"/>
						<line class="st1" x1="0" y1="-102.3" x2="72.5" y2="-102.3"/>
						<line class="st1" x1="0" y1="-78.3" x2="72.5" y2="-78.3"/>
					</g>
					<g>
						<line class="st1" x1="78.2" y1="0" x2="78.2" y2="-72.5"/>
						<line class="st1" x1="102.2" y1="0" x2="102.2" y2="-72.5"/>
						<line class="st1" x1="126.2" y1="0" x2="126.2" y2="-72.5"/>
						<line class="st1" x1="90.2" y1="0" x2="90.2" y2="-72.5"/>
						<line class="st1" x1="114.2" y1="0" x2="114.2" y2="-72.5"/>
						<line class="st1" x1="138.2" y1="0" x2="138.2" y2="-72.5"/>
					</g>
				</g>
			</g>
		</g>
	</g>
</pattern>
<g id="streets">
	<g id="San_fernando">
		<line class="st2" x1="284.9" y1="142.9" x2="471.4" y2="24.9"/>
		<line class="st2" x1="297.3" y1="162.7" x2="505.7" y2="30.9"/>
		<polygon class="st0" points="460.8,56.5 317.2,147.6 310.3,136.9 453.9,45.8 		"/>
		<text transform="matrix(0.8481 -0.5299 0.5299 0.8481 337.2666 130.4945)" class="st3 st4 st5">San Fernando Street</text>
	</g>
	<g>
		<polygon class="st3" points="511.4,87.5 504.1,120.2 544.1,94.9 		"/>
		
			<rect x="487" y="62.1" transform="matrix(0.8238 -0.5669 0.5669 0.8238 45.123 295.9732)" class="st0" width="23.3" height="26.6"/>
		<text transform="matrix(0.829 -0.5592 0.5592 0.829 496.3652 89.7178)" class="st3 st6 st7">N</text>
	</g>
	<g id="_x34_th_Street">
		<line class="st2" x1="311.8" y1="745.4" x2="144.5" y2="421.7"/>
		<line class="st2" x1="333.2" y1="735.8" x2="165.4" y2="411.1"/>
		
			<rect x="229.9" y="499.3" transform="matrix(0.8786 -0.4776 0.4776 0.8786 -245.3589 183.0908)" class="st0" width="15" height="149.6"/>
		<text transform="matrix(-0.4695 -0.8829 0.8829 -0.4695 249.3047 592.6307)" class="st3 st4 st8">Fourth Street</text>
	</g>
	<g id="SJSU_CAMPUS">
		<polygon class="st3" points="1179.3,734.5 1154.1,715.1 1159.9,759.7 		"/>
		
			<rect x="1127.1" y="671.8" transform="matrix(0.9858 -0.1678 0.1678 0.9858 -106.921 201.6419)" class="st0" width="25.2" height="123.4"/>
		<text transform="matrix(0.1586 0.9873 -0.9873 0.1586 1137.0145 699.5504)" class="st3 st9 st10">SJSU Campus</text>
	</g>
	<g id="Elev_x2F_esc_x2F_stairs">
		<g>
			
				<rect x="778.2" y="483.4" transform="matrix(0.566 -0.8244 0.8244 0.566 -98.9332 890.528)" class="st11" width="36.3" height="111.7"/>
			<g id="escalator_00000070833955443197976630000013030456594240933513_">
				<g>
					<g id="LINE_00000175300582530713307810000017250745887772802719_">
						<line class="st12" x1="792.5" y1="554.1" x2="744.8" y2="520.8"/>
					</g>
					<g id="LINE_00000005267804367376950950000017670766514589199234_">
						<line class="st12" x1="794.5" y1="556.1" x2="744.4" y2="521.2"/>
					</g>
					<g id="LINE_00000159459067434755131110000002485898742489299876_">
						<line class="st12" x1="802.6" y1="545.5" x2="752.5" y2="510.6"/>
					</g>
					<g id="LINE_00000071536289280342227040000002182415178206999192_">
						<line class="st12" x1="802.2" y1="545.9" x2="752.2" y2="511"/>
					</g>
					<g id="LINE_00000030484882570146493910000014068991845663544962_">
						<line class="st12" x1="799.8" y1="544.9" x2="792.7" y2="554.2"/>
					</g>
					<g id="LINE_00000034072640151112893940000007032175534048167310_">
						<line class="st12" x1="796.1" y1="542.3" x2="789" y2="551.6"/>
					</g>
					<g id="LINE_00000136393277021996936050000000778610375088511875_">
						<line class="st12" x1="792.6" y1="539.9" x2="785.5" y2="549.2"/>
					</g>
					<g id="LINE_00000163071281937567593120000008172368302590632083_">
						<line class="st12" x1="789.1" y1="537.4" x2="782.1" y2="546.8"/>
					</g>
					<g id="LINE_00000093150224269321470460000005923040872473435023_">
						<line class="st12" x1="775.3" y1="527.8" x2="768.2" y2="537.2"/>
					</g>
					<g id="LINE_00000054228373476672798010000001415340832261102243_">
						<line class="st12" x1="778.8" y1="530.2" x2="771.7" y2="539.6"/>
					</g>
					<g id="LINE_00000161620782950736678360000016702901872045779605_">
						<line class="st12" x1="782.3" y1="532.7" x2="775.2" y2="542"/>
					</g>
					<g id="LINE_00000053538539497337447050000000506436644559882125_">
						<line class="st12" x1="785.7" y1="535" x2="778.6" y2="544.4"/>
					</g>
					<g id="LINE_00000181060439717567883380000001328288601116817334_">
						<line class="st12" x1="771.4" y1="525.1" x2="764.3" y2="534.4"/>
					</g>
				</g>
			</g>
			<g>
				<g id="LINE_00000039129921965307840330000000916614772354171053_">
					<line class="st12" x1="802.8" y1="541.5" x2="755.2" y2="508.3"/>
				</g>
				<g id="LINE_00000183232263360243218000000014914434174736856766_">
					<line class="st12" x1="804.9" y1="543.6" x2="754.8" y2="508.7"/>
				</g>
				<g id="LINE_00000134971724595076770800000011634651582775166110_">
					<line class="st12" x1="812.9" y1="533" x2="762.8" y2="498.1"/>
				</g>
				<g id="LINE_00000139985550712778097390000011734148308922649757_">
					<line class="st12" x1="812.5" y1="533.3" x2="762.5" y2="498.5"/>
				</g>
				<g id="LINE_00000161615525219399362960000010358224361716366989_">
					<line class="st12" x1="810.2" y1="532.4" x2="803.1" y2="541.7"/>
				</g>
				<g id="LINE_00000050622520462115683830000014602163837273226142_">
					<line class="st12" x1="806.4" y1="529.8" x2="799.4" y2="539.1"/>
				</g>
				<g id="LINE_00000070816089196109457410000010050429523297744817_">
					<line class="st12" x1="803" y1="527.3" x2="795.9" y2="536.7"/>
				</g>
				<g id="LINE_00000099656406252343713910000000860961959387512708_">
					<line class="st12" x1="799.5" y1="524.9" x2="792.4" y2="534.3"/>
				</g>
				<g id="LINE_00000085228161180388642890000014117454962385211049_">
					<line class="st12" x1="785.7" y1="515.3" x2="778.6" y2="524.6"/>
				</g>
				<g id="LINE_00000111193638674697565340000010071611339552483741_">
					<line class="st12" x1="789.1" y1="517.7" x2="782.1" y2="527.1"/>
				</g>
				<g id="LINE_00000137818096606678954040000001279689764850617767_">
					<line class="st12" x1="792.6" y1="520.1" x2="785.5" y2="529.5"/>
				</g>
				<g id="LINE_00000072259355674821735480000002454678363656134551_">
					<line class="st12" x1="796.1" y1="522.5" x2="789" y2="531.9"/>
				</g>
				<g id="LINE_00000110452060786668643000000011488645479241716150_">
					<line class="st12" x1="781.7" y1="512.5" x2="774.7" y2="521.9"/>
				</g>
			</g>
		</g>
		<polyline id="elevator" class="st13" points="794.9,445.3 875.9,500 907.7,521.4 895.2,539.6 783.2,463.8 794.9,445.3 		"/>
		
			<rect x="877.4" y="464" transform="matrix(0.566 -0.8244 0.8244 0.566 -5.0944 959.1147)" class="st11" width="62" height="40.8"/>
		<g id="elevator_00000155118643947176890710000006878021629677294758_">
			<g id="LINE_4731_">
				<line class="st14" x1="812.6" y1="460.9" x2="798.4" y2="451.2"/>
			</g>
			<g id="LINE_4735_">
				<line class="st14" x1="803.8" y1="473.7" x2="800.5" y2="471.4"/>
			</g>
			<g id="LINE_4738_">
				<line class="st14" x1="793" y1="466.3" x2="789.6" y2="463.9"/>
			</g>
			<g id="LINE_4741_">
				<line class="st14" x1="812.6" y1="460.9" x2="803.8" y2="473.7"/>
			</g>
			<g id="LINE_4744_">
				<line class="st14" x1="813.2" y1="460.8" x2="798.3" y2="450.6"/>
			</g>
			<g id="LINE_4745_">
				<line class="st14" x1="812.7" y1="460.7" x2="798.5" y2="451"/>
			</g>
			<g id="LINE_4746_">
				<line class="st14" x1="798.4" y1="451.2" x2="789.6" y2="463.9"/>
			</g>
			<g id="LINE_4747_">
				<line class="st14" x1="798.8" y1="450.9" x2="798.6" y2="451.3"/>
			</g>
			<g id="LINE_4748_">
				<line class="st14" x1="812.7" y1="460.4" x2="812.4" y2="460.8"/>
			</g>
			<g id="LINE_00000023963411821320410900000009994663940296984221_">
				<line class="st14" x1="832.3" y1="474.4" x2="818.1" y2="464.7"/>
			</g>
			<g id="LINE_00000036243211870807232230000004294824485503304094_">
				<line class="st14" x1="823.5" y1="487.2" x2="820.1" y2="484.9"/>
			</g>
			<g id="LINE_00000021083911021367709180000006361326137356006789_">
				<line class="st14" x1="812.7" y1="479.7" x2="809.3" y2="477.4"/>
			</g>
			<g id="LINE_00000157305032477417135590000014763398251095956890_">
				<line class="st14" x1="832.3" y1="474.4" x2="823.5" y2="487.2"/>
			</g>
			<g id="LINE_00000061429359115443803660000001421681803928210091_">
				<line class="st14" x1="832.8" y1="474.3" x2="817.9" y2="464.1"/>
			</g>
			<g id="LINE_00000137096246246306441270000002996625498926383788_">
				<line class="st14" x1="832.4" y1="474.2" x2="818.2" y2="464.5"/>
			</g>
			<g id="LINE_00000172415491339264399940000003389993333652483473_">
				<line class="st14" x1="818.1" y1="464.7" x2="809.3" y2="477.4"/>
			</g>
			<g id="LINE_00000182499327570779227240000011350039420364845744_">
				<line class="st14" x1="851.9" y1="487.9" x2="837.7" y2="478.1"/>
			</g>
			<g id="LINE_00000137827711904242877120000013475160053294783399_">
				<line class="st14" x1="843.1" y1="500.7" x2="839.8" y2="498.4"/>
			</g>
			<g id="LINE_00000110430310769929994080000003016575270157341115_">
				<line class="st14" x1="832.3" y1="493.2" x2="828.9" y2="490.9"/>
			</g>
			<g id="LINE_00000001632994639779474680000017729122945952289951_">
				<line class="st14" x1="851.9" y1="487.9" x2="843.1" y2="500.7"/>
			</g>
			<g id="LINE_00000101093348003495924100000015220336780324354982_">
				<line class="st14" x1="852.5" y1="487.8" x2="837.6" y2="477.6"/>
			</g>
			<g id="LINE_00000123417822785358762020000005155066374409787060_">
				<line class="st14" x1="852" y1="487.7" x2="837.8" y2="478"/>
			</g>
			<g id="LINE_00000001631246263749752440000010237371117853874571_">
				<line class="st14" x1="837.7" y1="478.1" x2="828.9" y2="490.9"/>
			</g>
			<g id="LINE_00000086666489933795298720000013289038007283657891_">
				<line class="st14" x1="871.6" y1="501.4" x2="857.4" y2="491.6"/>
			</g>
			<g id="LINE_00000010286446039431400240000004179056468150093201_">
				<line class="st14" x1="862.8" y1="514.2" x2="859.4" y2="511.8"/>
			</g>
			<g id="LINE_00000078723507910867709110000003996737817167854731_">
				<line class="st14" x1="852" y1="506.7" x2="848.6" y2="504.4"/>
			</g>
			<g id="LINE_00000084494013187931397180000013021804154882057626_">
				<line class="st14" x1="871.6" y1="501.4" x2="862.8" y2="514.2"/>
			</g>
			<g id="LINE_00000103244059294916214250000010451246233931379622_">
				<line class="st14" x1="872.2" y1="501.3" x2="857.3" y2="491.1"/>
			</g>
			<g id="LINE_00000102513105850367397460000008568563727976591525_">
				<line class="st14" x1="871.7" y1="501.2" x2="857.5" y2="491.5"/>
			</g>
			<g id="LINE_00000077294377489538548660000017451036063543871892_">
				<line class="st14" x1="857.4" y1="491.6" x2="848.6" y2="504.4"/>
			</g>
			<g id="LINE_00000084502092826103097570000007421885943408696208_">
				<line class="st14" x1="891.2" y1="514.9" x2="877" y2="505.1"/>
			</g>
			<g id="LINE_00000054242181457467428560000001838774522505732244_">
				<line class="st14" x1="882.4" y1="527.7" x2="879.1" y2="525.3"/>
			</g>
			<g id="LINE_00000038399793835736963570000006870936880396350634_">
				<line class="st14" x1="871.6" y1="520.2" x2="868.2" y2="517.9"/>
			</g>
			<g id="LINE_00000085233646092173888780000001954179608992735126_">
				<line class="st14" x1="891.2" y1="514.9" x2="882.4" y2="527.7"/>
			</g>
			<g id="LINE_00000140724683986225496660000005009668492149025922_">
				<line class="st14" x1="891.8" y1="514.8" x2="876.9" y2="504.5"/>
			</g>
			<g id="LINE_00000009576526774020755230000003960706048185272964_">
				<line class="st14" x1="891.3" y1="514.7" x2="877.1" y2="505"/>
			</g>
			<g id="LINE_00000142166729456088507190000006205798940652332981_">
				<line class="st14" x1="877" y1="505.1" x2="868.2" y2="517.9"/>
			</g>
		</g>
	</g>
	<g id="stairs">
		<g>
			<polygon class="st15" points="894.8,478 894.8,478 894.8,478 888.2,487.4 881.5,496.9 903.6,512.3 910.2,502.9 897.6,494.1 
				904.3,484.6 916.9,493.4 923.5,484 901.4,468.5 			"/>
			<line class="st15" x1="907.1" y1="500.7" x2="900.5" y2="510.1"/>
			<line class="st15" x1="903.9" y1="498.5" x2="897.3" y2="507.9"/>
			<line class="st15" x1="900.8" y1="496.3" x2="894.2" y2="505.7"/>
			<line class="st15" x1="913.7" y1="491.2" x2="920.3" y2="481.8"/>
			<line class="st15" x1="910.6" y1="489" x2="917.2" y2="479.6"/>
			<line class="st15" x1="907.4" y1="486.8" x2="914" y2="477.4"/>
			<line class="st15" x1="904.3" y1="484.6" x2="894.8" y2="478"/>
			<line class="st15" x1="902.1" y1="487.8" x2="892.6" y2="481.1"/>
			<line class="st15" x1="899.8" y1="490.9" x2="890.4" y2="484.3"/>
			<line class="st15" x1="897.6" y1="494.1" x2="888.2" y2="487.4"/>
			<line class="st15" x1="910.9" y1="475.2" x2="904.3" y2="484.6"/>
			<line class="st15" x1="910.9" y1="475.2" x2="891" y2="503.5"/>
			<polyline class="st15" points="906.9,507.6 889.3,495.3 902.5,476.4 917.8,487 			"/>
			<polygon class="st16" points="920.1,488.7 918.2,486.4 917.8,487 917.3,487.7 			"/>
			<path class="st16" d="M906.6,508.2c0.3,0.2,0.7,0.1,0.9-0.2c0.2-0.3,0.1-0.7-0.2-0.9c-0.3-0.2-0.7-0.1-0.9,0.2
				C906.2,507.6,906.3,508,906.6,508.2z"/>
		</g>
	</g>
</g>
<g id="Fourth">
	<g id="text_00000081615302985937551970000013218798647317698715_">
		
			<rect x="840.7" y="628.2" transform="matrix(0.5616 -0.8274 0.8274 0.5616 -167.4436 1020.6223)" class="st17" width="77.5" height="80.2"/>
		
			<rect x="939.2" y="499.2" transform="matrix(0.5544 -0.8322 0.8322 0.5544 -10.6779 1049.4443)" class="st18" width="71" height="71"/>
		
			<pattern  id="SVGID_00000122697647310728956860000001860046414100699310_" xlink:href="#SVGID_1_" patternTransform="matrix(1 0 0 -1 -80.8 -35563.3516)">
		</pattern>
		
			<polyline style="fill:url(#SVGID_00000122697647310728956860000001860046414100699310_);stroke:#000000;stroke-width:4;stroke-linecap:round;stroke-linejoin:round;stroke-miterlimit:10;" points="
			798.6,445.1 833.3,394.4 650.5,85.4 650,85.9 511.8,176.6 484.6,156.2 481.5,196.5 302.8,295.2 303.5,296.1 394.7,458.2 
			333.9,545.3 334,545.4 530.4,679.9 662.1,902.5 766,841.1 902.3,934.5 998.4,876.2 995.9,875.2 919.4,824.2 915.9,822.2 
			554.1,577.2 555.9,576.6 677.1,395.9 678.5,393.4 782.2,462 		"/>
		<rect x="481.7" y="312.9" class="st20" width="136.2" height="34.1"/>
		<rect x="472.1" y="315.6" class="st0" width="153.6" height="35.7"/>
		<text transform="matrix(1 0 0 1 483.5505 325.5873)" class="st21 st8">Library Administration </text>
		<text transform="matrix(1 0 0 1 488.9505 342.3873)" class="st21 st8">and Librarian Offices</text>
		<rect x="92.3" y="78" class="st0" width="176.3" height="281.8"/>
		<text transform="matrix(1 0 0 1 92.2626 292.8105)" class="st22 st23 st24 st25">4</text>
		<rect x="0.1" y="51.5" class="st0" width="300.4" height="54.6"/>
		<text transform="matrix(1 0 0 1 7.461548e-02 85.9061)" class="st23 st26">Fourth Floor</text>
		<polyline class="st27" points="918.8,822.1 998.7,876.2 997.9,876.2 1059.1,840.1 957.4,767.4 957.3,767.8 918.2,824.3 		"/>
		
			<rect x="900.5" y="787" transform="matrix(0.5779 -0.8161 0.8161 0.5779 -265.3865 1087.3927)" class="st28" width="36" height="26.5"/>
	</g>
	<g id="elev_x2F_esc_x2F_stairs_00000133520984008074979620000014358219247410218416_">
		
			<rect id="atrium_00000127752625790027046000000003792839675864063676_" x="678.4" y="480.6" transform="matrix(0.575 -0.8182 0.8182 0.575 -151.4876 822.829)" class="st29" width="75.6" height="153.3"/>
		<rect x="682.8" y="547.4" class="st0" width="59.2" height="14"/>
		<text transform="matrix(1 0 0 1 692.2061 557.3301)" class="st21 st8">Atrium</text>
	</g>
	<g id="Base_white">
		<g>
			<line class="st30" x1="332.8" y1="544.6" x2="393.6" y2="457.5"/>
			<line class="st30" x1="302.7" y1="295.4" x2="393.6" y2="457.5"/>
			<line class="st30" x1="480.8" y1="196" x2="302" y2="294.5"/>
			<line class="st30" x1="483.9" y1="155.7" x2="480.8" y2="196"/>
			<line class="st30" x1="511" y1="176.2" x2="483.9" y2="155.7"/>
			<line class="st30" x1="649.3" y1="85.7" x2="511" y2="176.2"/>
			<line class="st30" x1="832.2" y1="394.3" x2="649.9" y2="85.2"/>
			<line class="st30" x1="797.4" y1="444.9" x2="832.2" y2="394.3"/>
			<line class="st30" x1="873.6" y1="497.3" x2="797.4" y2="444.9"/>
			<line class="st30" x1="908.2" y1="446.9" x2="873.6" y2="497.3"/>
			<line class="st30" x1="1152.6" y1="613.5" x2="908.2" y2="446.9"/>
			<line class="st30" x1="1001.4" y1="706.5" x2="1152.6" y2="613.5"/>
			<line class="st30" x1="958.1" y1="769.1" x2="1000.1" y2="708"/>
			<line class="st30" x1="1059.6" y1="840.4" x2="958.1" y2="769.1"/>
			<line class="st30" x1="900.5" y1="934.3" x2="1059.6" y2="840.4"/>
			<line class="st30" x1="764.3" y1="840.8" x2="900.5" y2="934.3"/>
			<line class="st30" x1="660.4" y1="902.1" x2="764.3" y2="840.8"/>
			<line class="st30" x1="529.1" y1="679.3" x2="660.4" y2="902.1"/>
			<line class="st30" x1="332.8" y1="544.6" x2="529.1" y2="679.3"/>
		</g>
	</g>
</g>
<g id="exits_x2C__restrooms">
	<g>
		<g id="Layer_1_00000042007272843511667690000008406306761235619238_">
			<g id="Layer_2_00000022556735553191659450000005795340208093633970_">
				<g id="Image_29_00000173841480334063734140000011531086694327245201_">
					<g id="Ellipse_1_copy_2_00000107550855543152140580000014742607775612015036_">
						<circle class="st31" cx="932" cy="465.9" r="14.4"/>
					</g>
				</g>
			</g>
		</g>
		<g>
			<g>
				<path class="st20" d="M940.2,457.1l-5-1.7c-0.3-0.1-0.6,0.1-0.6,0.4v1.3h-4.9c-0.2,0-0.4,0.2-0.4,0.4v1.5c0.3,0,0.5,0.1,0.8,0.2
					v-1.3h4.4v15.3h-3v0.2c0,0.2,0.1,0.4,0,0.6h2.9v1.3c0,0.3,0.3,0.6,0.6,0.5l5-1.7c0.2-0.1,0.3-0.2,0.3-0.4v-16.1
					C940.5,457.3,940.4,457.1,940.2,457.1z"/>
				<g>
					<g>
						<path class="st20" d="M921.9,472.5h3.2c0.4,0,0.8-0.3,0.9-0.7l0.3-1.3l-1.6-1.3l0,0l-0.4,1.4h-2.5c-0.5,0-1,0.4-1,1
							C921,472.1,921.4,472.5,921.9,472.5z"/>
						<path class="st20" d="M929.3,463.3c0.9-0.2,1.5-1.1,1.2-2c-0.2-0.9-1.1-1.5-2-1.2c-0.9,0.2-1.5,1.1-1.2,2
							C927.5,463,928.4,463.5,929.3,463.3z"/>
						<path class="st20" d="M923.2,467.3c0.4,0.2,0.9,0,1-0.4l0.6-1.4l0.9-0.3L925,468c-0.1,0.4,0,0.7,0.3,1l2.7,2.2l0.7,2.9
							c0.1,0.4,0.5,0.7,0.9,0.7c0.1,0,0.2,0,0.2,0c0.5-0.1,0.8-0.6,0.7-1.2l-0.8-3.2c0-0.2-0.2-0.4-0.3-0.5l-1.7-1.4l0.9-2.4
							l0.9,1.1c0.2,0.2,0.4,0.3,0.6,0.3c0.1,0,0.3,0,0.4-0.1l1.6-1c0.4-0.2,0.5-0.7,0.3-1.1s-0.7-0.5-1.1-0.3l-1,0.6l-0.9-1
							c-0.2-0.3-0.5-0.5-0.9-0.6l-1.4-0.5c-0.4-0.2-0.9-0.2-1.3,0l-1.9,0.6c-0.2,0.1-0.4,0.2-0.5,0.4l-0.8,1.8
							C922.6,466.7,922.8,467.2,923.2,467.3z"/>
					</g>
				</g>
			</g>
		</g>
	</g>
	<g>
		<g id="Layer_2_00000090287708573909370120000015528676360269084048_">
			<g id="Image_64_00000056429901070639207310000000004013371461789362_">
				<g id="Ellipse_1_copy_9_00000126283228105064793040000007157497871469456054_">
					<circle class="st32" cx="973.5" cy="533.4" r="14.4"/>
				</g>
			</g>
		</g>
		<g id="Layer_1_00000035518951821911710160000001908990774452682385_">
			<g>
				<g>
					<g>
						<path class="st20" d="M966.9,527.8c0.8,0,1.5-0.7,1.5-1.5s-0.7-1.4-1.5-1.4s-1.5,0.6-1.5,1.4
							C965.4,527.1,966.1,527.8,966.9,527.8z"/>
						<path class="st20" d="M968.8,528.1h-3.7c-0.9,0-1.6,0.7-1.6,1.6v4.6c0,0.3,0.3,0.6,0.6,0.6s0.6-0.3,0.6-0.6v-4h0.3v4.6v6.2
							c0,0.5,0.4,0.8,0.8,0.8c0.5,0,0.8-0.4,0.8-0.8v-6.2h0.4v6.2c0,0.5,0.4,0.8,0.8,0.8c0.5,0,0.8-0.4,0.8-0.8v-6.2v-4.6h0.3v4
							c0,0.3,0.3,0.6,0.6,0.6s0.6-0.3,0.6-0.6v-4.6C970.4,528.8,969.7,528.1,968.8,528.1z"/>
					</g>
					<g>
						<path class="st20" d="M979.5,527.8c0.8,0,1.5-0.7,1.5-1.5s-0.7-1.5-1.5-1.5c-0.8,0.1-1.5,0.7-1.5,1.5S978.7,527.8,979.5,527.8
							z"/>
						<path class="st20" d="M983.5,533.5l-1.2-4.3c-0.3-0.8-0.9-1.1-1.8-1.1l0,0h-2l0,0c-0.9,0-1.5,0.3-1.8,1.1l-1.2,4.3
							c-0.1,0.3,0.1,0.6,0.4,0.7c0.3,0.1,0.6-0.1,0.7-0.3l1.1-3.8h0.3l-1.9,6.5h1.8v4.7c0,0.4,0.3,0.7,0.7,0.7s0.7-0.3,0.7-0.7v-4.7
							h0.3v4.7c0,0.4,0.3,0.7,0.7,0.7s0.7-0.3,0.7-0.7v-4.7h1.8L981,530h0.3l1.1,3.8c0.1,0.3,0.4,0.4,0.7,0.3
							C983.4,534,983.6,533.7,983.5,533.5z"/>
					</g>
				</g>
				<rect x="972.7" y="524.9" class="st20" width="1.6" height="17"/>
			</g>
		</g>
	</g>
	<g>
		<circle class="st31" cx="811.7" cy="853.2" r="14.4"/>
		<g>
			<g>
				<path class="st20" d="M819.9,844.4l-5-1.7c-0.3-0.1-0.6,0.1-0.6,0.4v1.3h-4.9c-0.2,0-0.4,0.2-0.4,0.4v1.5c0.3,0,0.5,0.1,0.8,0.2
					v-1.3h4.4v15.3h-3v0.2c0,0.2,0.1,0.4,0,0.6h2.9v1.3c0,0.3,0.3,0.6,0.6,0.5l5-1.7c0.2-0.1,0.3-0.2,0.3-0.4v-16.1
					C820.2,844.7,820.1,844.5,819.9,844.4z"/>
				<g>
					<g>
						<path class="st20" d="M801.7,859.9h3.2c0.4,0,0.8-0.3,0.9-0.7l0.3-1.3l-1.6-1.3l0,0l-0.4,1.4h-2.5c-0.5,0-1,0.4-1,1
							C800.8,859.4,801.2,859.9,801.7,859.9z"/>
						<path class="st20" d="M809.1,850.6c0.9-0.2,1.5-1.1,1.2-2c-0.2-0.9-1.1-1.5-2-1.2c-0.9,0.2-1.5,1.1-1.2,2
							C807.3,850.3,808.2,850.8,809.1,850.6z"/>
						<path class="st20" d="M803,854.7c0.4,0.2,0.9,0,1-0.4l0.6-1.4l0.9-0.3l-0.7,2.8c-0.1,0.4,0,0.7,0.3,1l2.7,2.2l0.7,2.9
							c0.1,0.4,0.5,0.7,0.9,0.7c0.1,0,0.2,0,0.2,0c0.5-0.1,0.8-0.6,0.7-1.2l-0.8-3.2c0-0.2-0.2-0.4-0.3-0.5l-1.7-1.4l0.9-2.4
							l0.9,1.1c0.2,0.2,0.4,0.3,0.6,0.3c0.1,0,0.3,0,0.4-0.1l1.6-1c0.4-0.2,0.5-0.7,0.3-1.1c-0.2-0.4-0.7-0.5-1.1-0.3l-1,0.6l-0.9-1
							c-0.2-0.3-0.5-0.5-0.9-0.6l-1.4-0.5c-0.4-0.2-0.9-0.2-1.3,0l-1.9,0.6c-0.2,0.1-0.4,0.2-0.5,0.4l-0.8,1.8
							C802.4,854,802.6,854.5,803,854.7z"/>
					</g>
				</g>
			</g>
		</g>
	</g>
</g>
</svg>
