<?xml version="1.0" encoding="utf-8"?>
<!-- Generator: Adobe Illustrator 28.1.0, SVG Export Plug-In . SVG Version: 6.00 Build 0)  -->
<svg version="1.1" id="Layer_1" xmlns="http://www.w3.org/2000/svg" xmlns:xlink="http://www.w3.org/1999/xlink" x="0px" y="0px"
	 viewBox="0 0 684.2 949.3" style="enable-background:new 0 0 684.2 949.3;" xml:space="preserve">
<style type="text/css">
	.st0{fill:none;}
	.st1{fill:#231F20;}
	
		.st2{opacity:0.45;fill:url(#SVGID_00000028312053118655991540000016273492445811152529_);stroke:#BCBEC0;stroke-linecap:round;stroke-linejoin:round;enable-background:new    ;}
	.st3{opacity:0.5;fill:#A1BB7E;}
	.st4{opacity:0.5;fill:#A1BB7E;stroke:#010101;stroke-linecap:round;stroke-linejoin:round;}
	.st5{fill:#E4F0F9;}
	.st6{opacity:0.5;fill:#1B4464;}
	.st7{fill:#FFFFFF;stroke:#000000;stroke-miterlimit:10;}
	.st8{fill:none;stroke:#010101;stroke-width:4;stroke-miterlimit:10;}
	.st9{fill:#0073A0;}
	.st10{fill:#FFFFFF;}
	.st11{font-family:'ArialMT';}
	.st12{font-size:18px;}
	.st13{fill:none;stroke:#221F1F;stroke-width:6;stroke-linecap:round;stroke-linejoin:round;}
	.st14{fill:none;stroke:#231F20;stroke-width:6;stroke-linecap:round;stroke-linejoin:round;}
</style>
<pattern  y="949.3" width="28.8" height="28.8" patternUnits="userSpaceOnUse" id="SVGID_1_" viewBox="1.4 -30.2 28.8 28.8" style="overflow:visible;">
	<g>
		<rect x="1.4" y="-30.2" class="st0" width="28.8" height="28.8"/>
		<g>
			<rect x="1.4" y="-30.2" class="st0" width="28.8" height="28.8"/>
			<g>
				<rect x="1.4" y="-30.2" class="st0" width="28.8" height="28.8"/>
				<g>
					<rect x="1.4" y="-30.2" class="st0" width="28.8" height="28.8"/>
					<g>
						<rect x="1.4" y="-30.2" class="st0" width="28.8" height="28.8"/>
						<g>
							<rect x="1.4" y="-30.2" class="st0" width="28.8" height="28.8"/>
							<g>
								<path class="st1" d="M30.2-31.6c0.8,0,1.4,0.6,1.4,1.4c0,0.8-0.6,1.4-1.4,1.4s-1.4-0.6-1.4-1.4C28.8-31,29.4-31.6,30.2-31.6
									z"/>
								<path class="st1" d="M15.8-31.6c0.8,0,1.4,0.6,1.4,1.4c0,0.8-0.6,1.4-1.4,1.4c-0.8,0-1.4-0.6-1.4-1.4
									C14.4-31,15-31.6,15.8-31.6z"/>
								<path class="st1" d="M30.2-17.2c0.8,0,1.4,0.6,1.4,1.4s-0.6,1.4-1.4,1.4s-1.4-0.6-1.4-1.4C28.8-16.6,29.4-17.2,30.2-17.2z"
									/>
								<path class="st1" d="M15.8-17.2c0.8,0,1.4,0.6,1.4,1.4s-0.6,1.4-1.4,1.4c-0.8,0-1.4-0.6-1.4-1.4
									C14.4-16.6,15-17.2,15.8-17.2z"/>
								<path class="st1" d="M8.6-24.4c0.8,0,1.4,0.6,1.4,1.4c0,0.8-0.6,1.4-1.4,1.4c-0.8,0-1.4-0.6-1.4-1.4
									C7.2-23.8,7.8-24.4,8.6-24.4z"/>
								<path class="st1" d="M23-24.4c0.8,0,1.4,0.6,1.4,1.4c0,0.8-0.6,1.4-1.4,1.4s-1.4-0.6-1.4-1.4S22.2-24.4,23-24.4z"/>
								<path class="st1" d="M8.6-10C9.4-10,10-9.4,10-8.6S9.4-7.2,8.6-7.2c-0.8,0-1.4-0.6-1.4-1.4C7.2-9.4,7.8-10,8.6-10z"/>
								<path class="st1" d="M23-10c0.8,0,1.4,0.6,1.4,1.4S23.8-7.2,23-7.2s-1.4-0.6-1.4-1.4S22.2-10,23-10z"/>
							</g>
							<g>
								<path class="st1" d="M1.4-31.6c0.8,0,1.4,0.6,1.4,1.4c0,0.8-0.6,1.4-1.4,1.4C0.6-28.7,0-29.4,0-30.2C0-31,0.6-31.6,1.4-31.6
									z"/>
								<path class="st1" d="M1.4-17.2c0.8,0,1.4,0.6,1.4,1.4s-0.6,1.4-1.4,1.4S0-15,0-15.8S0.6-17.2,1.4-17.2z"/>
							</g>
							<g>
								<path class="st1" d="M30.2-2.8c0.8,0,1.4,0.6,1.4,1.4S31,0,30.2,0s-1.4-0.6-1.4-1.4C28.8-2.2,29.4-2.8,30.2-2.8z"/>
								<path class="st1" d="M15.8-2.8c0.8,0,1.4,0.6,1.4,1.4S16.6,0,15.8,0s-1.4-0.6-1.4-1.4C14.4-2.2,15-2.8,15.8-2.8z"/>
							</g>
							<g>
								<path class="st1" d="M1.4-2.8c0.8,0,1.4,0.6,1.4,1.4S2.2,0,1.4,0C0.6,0.1,0-0.6,0-1.4C0-2.2,0.6-2.8,1.4-2.8z"/>
							</g>
						</g>
					</g>
				</g>
			</g>
		</g>
	</g>
</pattern>
<g id="employee_areas">
	
		<pattern  id="SVGID_00000063595435541581717200000017734349357579414431_" xlink:href="#SVGID_1_" patternTransform="matrix(1 0 0 1 -89.48 51477.9062)">
	</pattern>
	
		<polyline style="opacity:0.45;fill:url(#SVGID_00000063595435541581717200000017734349357579414431_);stroke:#BCBEC0;stroke-linecap:round;stroke-linejoin:round;enable-background:new    ;" points="
		463.7,504.1 525.1,504.3 680.6,181.1 677.2,179.3 525.8,105.9 524.5,83.2 504.5,94.9 312.5,3.3 308.5,10.9 225.8,177.5 
		119.5,176.2 119.5,176.3 120.4,403.4 4,644.1 117.5,701.7 118.7,865 218.1,913.4 218.1,908.7 217.8,817.1 217.8,813.1 217,376.2 
		218.5,377.3 436.1,376 462.3,375.8 462.3,502 	"/>
</g>
<rect id="SCS" x="285.8" y="656.4" class="st3" width="77.5" height="80.2"/>
<polyline id="Jon_Oakes_KLEVR_Lab" class="st4" points="218.6,818.8 218.5,910.8 218.8,910.9 285.8,943.9 285.1,818.8 285.1,819 
	218.7,819 "/>
<polygon id="atrium" class="st5" points="292.4,426.2 368.9,425.6 368.5,579.4 291.9,580 "/>
<g id="escalator_00000043437865109118368120000003986335687569727406_">
	<rect x="372" y="505.5" class="st6" width="34" height="107.7"/>
	<g>
		<path class="st7" d="M396.5,539.8h-15.1c-4.1,0-7.4,3.3-7.4,7.4v15.1c0,4.1,3.3,7.4,7.4,7.4h15.1c4.1,0,7.4-3.3,7.4-7.4v-15.1
			C404,543.1,400.6,539.8,396.5,539.8z"/>
		<g>
			<g>
				<path class="st1" d="M386.3,548.8c1,0,1.7-0.8,1.7-1.7c0-1-0.8-1.7-1.7-1.7c-1,0-1.7,0.8-1.7,1.7
					C384.6,548,385.4,548.8,386.3,548.8z"/>
				<path class="st1" d="M388.2,550.6c0-1-0.8-1.8-1.8-1.8s-1.8,0.8-1.8,1.8v4.1l3.6-3.6L388.2,550.6L388.2,550.6z"/>
				<path class="st1" d="M397,548.4h-4c-0.7,0-1.3,0.3-1.8,0.8l-7,7H381c-1.4,0-2.6,1.2-2.6,2.6c0,1.4,1.2,2.6,2.6,2.6h4.2
					c0.7,0,1.3-0.3,1.8-0.8l7-7h2.9c1.4,0,2.6-1.2,2.6-2.6C399.5,549.6,398.4,548.4,397,548.4z"/>
			</g>
			<g>
				<path class="st1" d="M396.5,557.6c0.2,0,0.4,0.1,0.3,0.3l-0.7,3.7c0,0.2-0.2,0.3-0.3,0.4c-0.2,0.1-0.3,0.1-0.4,0l-0.4-0.4
					l-2.7,2.7c-0.2,0.2-0.5,0.2-0.6,0.1l-1.9-1.9c-0.1-0.1-0.1-0.4,0.1-0.6l2.7-2.7l-0.4-0.4c-0.1-0.1-0.1-0.3,0-0.4
					c0.1-0.2,0.3-0.3,0.4-0.3L396.5,557.6z"/>
			</g>
		</g>
	</g>
</g>
<g id="elevator_00000129923789646981679440000009271267698581510323_">
	
		<rect x="441.7" y="509.8" transform="matrix(1.787265e-03 -1 1 1.787265e-03 -68.3248 967.9952)" class="st6" width="18.1" height="16.9"/>
	
		<rect x="441.6" y="534.4" transform="matrix(1.787265e-03 -1 1 1.787265e-03 -93.0215 992.4501)" class="st6" width="18.1" height="16.9"/>
	
		<rect x="441.7" y="559.2" transform="matrix(1.787265e-03 -1 1 1.787265e-03 -117.7459 1017.3337)" class="st6" width="18.1" height="16.9"/>
	
		<rect x="441.4" y="583.9" transform="matrix(1.787265e-03 -1 1 1.787265e-03 -142.7729 1041.7201)" class="st6" width="18.1" height="16.9"/>
	
		<rect x="441.6" y="608.8" transform="matrix(1.787265e-03 -1 1 1.787265e-03 -167.466 1066.7748)" class="st6" width="18.1" height="16.9"/>
	<line class="st8" x1="463.6" y1="506.5" x2="463.6" y2="634.8"/>
	<g>
		<path class="st7" d="M452.4,552.7h-15.1c-4.1,0-7.4,3.3-7.4,7.4v15.1c0,4.1,3.3,7.4,7.4,7.4h15.1c4.1,0,7.4-3.3,7.4-7.4v-15.1
			C459.8,556.1,456.5,552.7,452.4,552.7z"/>
		<g>
			<path class="st1" d="M440.9,554.6c-0.2-0.2-0.4-0.3-0.6-0.3s-0.5,0.1-0.6,0.3c-0.5,0.5-1.4,1.4-2.7,2.7c-0.4,0.4-0.4,1,0,1.3
				c0.3,0.3,0.9,0.3,1.2,0l1.1-1.1v3.5c0,0.5,0.4,0.9,0.9,0.9h0.1c0.5,0,0.9-0.4,0.9-0.9v-3.5l1.1,1.1c0.3,0.3,0.9,0.3,1.2,0l0,0
				c0.3-0.3,0.3-0.9,0-1.2C442.2,555.9,441.5,555.2,440.9,554.6z"/>
			<path class="st1" d="M448.7,561.6c0.2,0.2,0.4,0.3,0.6,0.3s0.5-0.1,0.6-0.3c0.5-0.5,1.4-1.4,2.7-2.7c0.4-0.4,0.4-1,0-1.3
				c-0.3-0.3-0.9-0.3-1.2,0l-1.1,1.1v-3.5c0-0.5-0.4-0.9-0.9-0.9h-0.1c-0.5,0-0.9,0.4-0.9,0.9v3.5l-1.1-1.1c-0.3-0.3-0.9-0.3-1.2,0
				l0,0c-0.3,0.3-0.3,0.9,0,1.2C447.4,560.3,448.1,561,448.7,561.6z"/>
		</g>
		<g>
			<g>
				<path class="st1" d="M448.1,568.5c0.5,0,1-0.4,1-1c0-0.5-0.4-1-1-1c-0.5,0-1,0.4-1,1C447.2,568.1,447.6,568.5,448.1,568.5z"/>
				<path class="st1" d="M449.4,568.7H447c-0.6,0-1,0.5-1,1v3c0,0.2,0.2,0.4,0.4,0.4c0.2,0,0.4-0.2,0.4-0.4v-2.6h0.2v3v4.1
					c0,0.3,0.2,0.6,0.6,0.6c0.3,0,0.6-0.2,0.6-0.6v-4.1h0.2v4.1c0,0.3,0.2,0.6,0.6,0.6c0.3,0,0.6-0.2,0.6-0.6v-4.1v-3h0.2v2.6
					c0,0.2,0.2,0.4,0.4,0.4c0.2,0,0.4-0.2,0.4-0.4v-3C450.4,569.2,449.9,568.7,449.4,568.7z"/>
			</g>
			<path class="st1" d="M441.9,568.5c0.5,0,1-0.4,1-1c0-0.5-0.4-1-1-1c-0.5,0-1,0.4-1,1S441.3,568.5,441.9,568.5z"/>
			<path class="st1" d="M444.5,572.2l-0.8-2.8c-0.2-0.5-0.6-0.7-1.2-0.7l0,0h-1.3l0,0c-0.6,0-1,0.2-1.2,0.7l-0.8,2.8
				c-0.1,0.2,0.1,0.4,0.3,0.4c0.2,0.1,0.4,0,0.5-0.2l0.7-2.5h0.2l-1.2,4.3h1.2v3c0,0.3,0.2,0.5,0.5,0.5s0.5-0.2,0.5-0.5v-3h0.2v3
				c0,0.3,0.2,0.5,0.5,0.5s0.5-0.2,0.5-0.5v-3h1.2l-1.2-4.3h0.2l0.7,2.5c0.1,0.2,0.3,0.3,0.5,0.2
				C444.4,572.6,444.5,572.4,444.5,572.2z"/>
		</g>
		<g>
			<path class="st1" d="M451,581.1h-12.3c-2.5,0-4.6-2.6-4.6-5.7v-6.5c0-3.2,2.1-5.7,4.6-5.7H451c2.5,0,4.6,2.6,4.6,5.7v6.5
				C455.5,578.6,453.5,581.1,451,581.1z M438.6,565.3c-1.6,0-2.9,1.6-2.9,3.6v6.5c0,2,1.3,3.6,2.9,3.6H451c1.6,0,2.9-1.6,2.9-3.6
				v-6.5c0-2-1.3-3.6-2.9-3.6H438.6z"/>
		</g>
	</g>
</g>
<g id="stairs_00000004506460415138557040000012298731305797168303_">
	<path class="st7" d="M502.9,603.4h-17.6c-4.8,0-8.7,3.9-8.7,8.7v17.6c0,4.8,3.9,8.7,8.7,8.7h17.6c4.8,0,8.7-3.9,8.7-8.7v-17.6
		C511.6,607.3,507.7,603.4,502.9,603.4z"/>
	<path class="st1" d="M487.4,610.6c1,0,1.9-0.8,1.9-1.9c0-1-0.8-1.9-1.9-1.9c-1,0-1.9,0.8-1.9,1.9
		C485.6,609.8,486.4,610.6,487.4,610.6z"/>
	<path class="st1" d="M484,616.5c0.6,0,1.1-0.4,1.1-1v-1.2l0.6-0.4v3v0.6l-1.8,6.9c-0.2,0.5,0.2,1.1,0.7,1.2
		c0.6,0.2,1.2-0.1,1.4-0.7l1.6-6.4h1.6v2.1c0,0.6,0.5,1,1.1,1s1.1-0.4,1.1-1v-3.1c0-0.6-0.5-1-1.1-1l0,0l0,0h-2.4v-1.9l0.6,0.6
		c0.2,0.2,0.5,0.4,0.9,0.4l0,0h2c0.6,0,1.1-0.4,1.1-1s-0.5-1-1.1-1h-1.6l-2-2.2l-0.1-0.1c-0.1-0.1-0.2-0.3-0.4-0.4l0,0h-0.1l0,0
		h-0.1l0,0c0,0,0,0-0.1,0l0,0c0,0,0,0-0.1,0l0,0c0,0,0,0-0.1,0l0,0l0,0l0,0c0,0,0,0-0.1,0c0,0,0,0-0.1,0l0,0c0,0,0,0-0.1,0l0,0
		c0,0,0,0-0.1,0l0,0c0,0,0,0-0.1,0l0,0c0,0,0,0-0.1,0l0,0c0,0,0,0-0.1,0l0,0l-2.8,2c-0.3,0.2-0.4,0.5-0.4,0.8l0,0v1.7
		C482.9,616.1,483.3,616.5,484,616.5z"/>
	<path class="st1" d="M504.5,613.1h-5.1c-0.2,0-0.3,0.2-0.4,0.4v4.7h-4.7c-0.2,0-0.3,0.2-0.4,0.4v5H489c-0.2,0-0.3,0.2-0.4,0.4v4.6
		h-4.7c-0.2,0-0.3,0.2-0.4,0.4v4.4c0,0.2,0.2,0.3,0.4,0.4h20.5c0.2,0,0.3-0.2,0.4-0.4l-0.1-19.8
		C504.8,613.3,504.7,613.2,504.5,613.1z"/>
</g>
<g id="restroom_00000093154083196299017300000003324237930340482739_">
	<rect x="455.9" y="658.9" class="st9" width="68.6" height="68.6"/>
	<g>
		<g>
			<g>
				<path class="st10" d="M481.1,683.7c1.2,0,2.1-0.9,2.1-2.1c0-1.2-0.9-2.1-2.1-2.1s-2.1,0.9-2.1,2.1
					C478.8,682.8,479.9,683.7,481.1,683.7z"/>
				<path class="st10" d="M483.8,684.2h-5.5c-1.3,0-2.4,1-2.4,2.4v6.7c0,0.5,0.4,0.9,0.9,0.9s0.9-0.4,0.9-0.9v-5.9h0.5v6.8v9.2
					c0,0.7,0.5,1.2,1.2,1.2s1.2-0.5,1.2-1.2v-9.2h0.5v9.2c0,0.7,0.5,1.2,1.2,1.2s1.2-0.5,1.2-1.2v-9.2v-6.8h0.5v5.9
					c0,0.5,0.4,0.9,0.9,0.9s0.9-0.4,0.9-0.9v-6.7C486.2,685.3,485.1,684.2,483.8,684.2z"/>
			</g>
			<g>
				<path class="st10" d="M502.4,683.7c1.2,0,2.1-0.9,2.1-2.1c0-1.2-0.9-2.1-2.1-2.1s-2.1,0.9-2.1,2.1
					C500.2,682.8,501.2,683.7,502.4,683.7z"/>
				<path class="st10" d="M508.2,692.1l-1.8-6.3c-0.4-1.2-1.3-1.6-2.6-1.6l0,0h-2.9l0,0c-1.3,0-2.1,0.4-2.6,1.6l-1.8,6.3
					c-0.1,0.4,0.1,0.8,0.7,0.9c0.4,0.1,0.9-0.1,1-0.5l1.6-5.5h0.4l-2.7,9.6h2.6v6.8c0,0.5,0.5,1,1,1s1-0.5,1-1v-6.8h0.5v6.8
					c0,0.5,0.5,1,1,1s1-0.5,1-1v-6.8h2.6l-2.7-9.6h0.4l1.6,5.5c0.1,0.4,0.5,0.7,1,0.5C508,692.8,508.3,692.5,508.2,692.1z"/>
			</g>
		</g>
		<rect x="491" y="679.5" class="st10" width="2.4" height="24.9"/>
	</g>
</g>
<g id="Text">
	<text transform="matrix(1 0 0 1 325.1045 675.6207)" class="st11 st12">SCS</text>
	<text transform="matrix(1 0 0 1 225.1744 840.1912)" class="st11 st12">Jon</text>
	<text transform="matrix(1 0 0 1 225.1744 861.7913)" class="st11 st12">Oakes</text>
	<text transform="matrix(1 0 0 1 225.1744 883.3912)" class="st11 st12">KLEVR</text>
	<text transform="matrix(1 0 0 1 225.1744 904.9912)" class="st11 st12">Lab</text>
	<text transform="matrix(1 0 0 1 291.861 731.1072)" class="st11 st12">STTC</text>
</g>
<g id="floor_outline">
	<line class="st13" x1="681.1" y1="180.7" x2="524.9" y2="505.4"/>
	<line class="st13" x1="3.1" y1="646.3" x2="119.9" y2="403.5"/>
	<line class="st13" x1="116.9" y1="701.4" x2="3" y2="646.6"/>
	<line class="st13" x1="118.9" y1="866.2" x2="285.5" y2="946.3"/>
	<line class="st13" x1="120.3" y1="177.2" x2="228.8" y2="176.8"/>
	<line class="st13" x1="525.4" y1="82.7" x2="504" y2="95"/>
	<line class="st13" x1="525.4" y1="105.3" x2="525.4" y2="82.7"/>
	<line class="st13" x1="120.3" y1="177.4" x2="119.9" y2="403.5"/>
	<line class="st13" x1="525.4" y1="897.9" x2="524.2" y2="598.5"/>
	<line class="st13" x1="286.1" y1="820.6" x2="285.5" y2="946.3"/>
	<line class="st13" x1="118.9" y1="866.2" x2="118.4" y2="702.1"/>
	<line class="st13" x1="286.9" y1="820" x2="362.9" y2="820.3"/>
	<line class="st13" x1="524.7" y1="897.5" x2="363.7" y2="820.1"/>
	<line class="st13" x1="525.6" y1="105.5" x2="681.2" y2="180.4"/>
	<line class="st13" x1="228.8" y1="176.7" x2="312.2" y2="3.8"/>
	<path class="st14" d="M524.5,506.1"/>
	<path class="st14" d="M464.2,505.4"/>
	<path class="st14" d="M464.2,505.7"/>
	<path class="st14" d="M463.4,598.4"/>
	<path class="st14" d="M524.2,598.5"/>
	<path class="st14" d="M463.4,598.4"/>
	<line class="st13" x1="312.6" y1="3" x2="503.4" y2="94.8"/>
	<g>
		<line class="st14" x1="464.2" y1="505.5" x2="524.1" y2="505.5"/>
		<line class="st14" x1="464.1" y1="597.9" x2="464.2" y2="505.8"/>
		<line class="st14" x1="464.1" y1="598.6" x2="524.2" y2="598.6"/>
	</g>
</g>
</svg>
