<?xml version="1.0" encoding="utf-8"?>
<!-- Generator: Adobe Illustrator 28.2.0, SVG Export Plug-In . SVG Version: 6.00 Build 0)  -->
<svg version="1.1" id="Layer_1" xmlns="http://www.w3.org/2000/svg" xmlns:xlink="http://www.w3.org/1999/xlink" x="0px" y="0px"
	 viewBox="0 0 505.8 869.6" style="enable-background:new 0 0 505.8 869.6;" xml:space="preserve">
<style type="text/css">
	.st0{fill:none;}
	.st1{fill:#231F20;}
	.st2{opacity:0.45;fill:url(#SVGID_00000063627152460973577260000016646823365400257171_);enable-background:new    ;}
	
		.st3{opacity:0.45;fill:url(#SVGID_00000060019713162914481670000004220570897224652941_);stroke:#CBCCCE;stroke-linecap:round;stroke-linejoin:round;enable-background:new    ;}
	
		.st4{opacity:0.45;fill:url(#SVGID_00000034069953114843199480000000206682643196940167_);stroke:#CBCCCE;stroke-linecap:round;stroke-linejoin:round;enable-background:new    ;}
	.st5{fill:none;stroke:#010101;stroke-width:3;stroke-miterlimit:10;}
	.st6{fill:none;stroke:#FFFFFF;stroke-width:4;stroke-miterlimit:10;}
	.st7{opacity:0.4;}
	.st8{opacity:0.68;fill:#C0362C;stroke:#FFFFFF;stroke-miterlimit:10;}
	.st9{fill:#3F417F;}
	.st10{fill:#3F417F;stroke:#FFFFFF;stroke-miterlimit:10;}
	.st11{opacity:0.4;fill:#1A4363;enable-background:new    ;}
	.st12{fill:none;stroke:#010101;stroke-width:4;stroke-miterlimit:10;}
	.st13{fill:#E4F0F9;}
	.st14{fill:#0073A0;}
	.st15{fill:#FFFFFF;}
	.st16{fill:#E5A823;}
	.st17{opacity:0.68;fill:#E5A823;enable-background:new    ;}
	.st18{fill:none;stroke:#221F1F;stroke-width:6;stroke-linecap:round;stroke-linejoin:round;}
	.st19{fill:none;stroke:#231F20;stroke-width:6;stroke-linecap:round;stroke-linejoin:round;}
	.st20{font-family:'ArialMT';}
	.st21{font-size:15px;}
	.st22{fill:#C40000;}
	.st23{font-size:14px;}
	.st24{fill:#232323;}
	.st25{fill:#5197BC;}
	.st26{font-family:'Arial-BoldMT';}
	.st27{font-size:33.4935px;}
</style>
<pattern  y="869.6" width="28.8" height="28.8" patternUnits="userSpaceOnUse" id="SVGID_0000007011813984286005534" viewBox="1.4 -30.2 28.8 28.8" style="overflow:visible;">
	<g>
		<rect x="1.4" y="-30.2" class="st0" width="28.8" height="28.8"/>
		<g>
			<rect x="1.4" y="-30.2" class="st0" width="28.8" height="28.8"/>
			<g>
				<rect x="1.4" y="-30.2" class="st0" width="28.8" height="28.8"/>
				<g>
					<rect x="1.4" y="-30.2" class="st0" width="28.8" height="28.8"/>
					<g>
						<rect x="1.4" y="-30.2" class="st0" width="28.8" height="28.8"/>
						<g>
							<rect x="1.4" y="-30.2" class="st0" width="28.8" height="28.8"/>
							<g>
								<rect x="1.4" y="-30.2" class="st0" width="28.8" height="28.8"/>
								<g>
									<rect x="1.4" y="-30.2" class="st0" width="28.8" height="28.8"/>
									<g>
										<rect x="1.4" y="-30.2" class="st0" width="28.8" height="28.8"/>
										<g>
											<rect x="1.4" y="-30.2" class="st0" width="28.8" height="28.8"/>
											<g>
												<rect x="1.4" y="-30.2" class="st0" width="28.8" height="28.8"/>
												<g>
													<rect x="1.4" y="-30.2" class="st0" width="28.8" height="28.8"/>
													<g>
														<rect x="1.4" y="-30.2" class="st0" width="28.8" height="28.8"/>
														<g>
															<rect x="1.4" y="-30.2" class="st0" width="28.8" height="28.8"/>
															<g>
																<rect x="1.4" y="-30.2" class="st0" width="28.8" height="28.8"/>
																<g>
																	<rect x="1.4" y="-30.2" class="st0" width="28.8" height="28.8"/>
																	<g>
																		<path class="st1" d="M30.2-31.6c0.8,0,1.4,0.6,1.4,1.4c0,0.8-0.6,1.4-1.4,1.4s-1.4-0.6-1.4-1.4
																			C28.8-31,29.4-31.6,30.2-31.6z"/>
																		<path class="st1" d="M15.8-31.6c0.8,0,1.4,0.6,1.4,1.4c0,0.8-0.6,1.4-1.4,1.4c-0.8,0-1.4-0.6-1.4-1.4
																			C14.4-31,15-31.6,15.8-31.6z"/>
																		<path class="st1" d="M30.2-17.2c0.8,0,1.4,0.6,1.4,1.4s-0.6,1.4-1.4,1.4s-1.4-0.6-1.4-1.4
																			C28.8-16.6,29.4-17.2,30.2-17.2z"/>
																		<path class="st1" d="M15.8-17.2c0.8,0,1.4,0.6,1.4,1.4s-0.6,1.4-1.4,1.4c-0.8,0-1.4-0.6-1.4-1.4
																			C14.4-16.6,15-17.2,15.8-17.2z"/>
																		<path class="st1" d="M8.6-24.4c0.8,0,1.4,0.6,1.4,1.4c0,0.8-0.6,1.4-1.4,1.4c-0.8,0-1.4-0.6-1.4-1.4
																			C7.2-23.8,7.8-24.4,8.6-24.4z"/>
																		<path class="st1" d="M23-24.4c0.8,0,1.4,0.6,1.4,1.4c0,0.8-0.6,1.4-1.4,1.4s-1.4-0.6-1.4-1.4S22.2-24.4,23-24.4z"
																			/>
																		<path class="st1" d="M8.6-10C9.4-10,10-9.4,10-8.6S9.4-7.2,8.6-7.2c-0.8,0-1.4-0.6-1.4-1.4C7.2-9.4,7.8-10,8.6-10
																			z"/>
																		<path class="st1" d="M23-10c0.8,0,1.4,0.6,1.4,1.4S23.8-7.2,23-7.2s-1.4-0.6-1.4-1.4S22.2-10,23-10z"/>
																	</g>
																	<g>
																		<path class="st1" d="M1.4-31.6c0.8,0,1.4,0.6,1.4,1.4c0,0.8-0.6,1.4-1.4,1.4C0.6-28.7,0-29.4,0-30.2
																			C0-31,0.6-31.6,1.4-31.6z"/>
																		<path class="st1" d="M1.4-17.2c0.8,0,1.4,0.6,1.4,1.4s-0.6,1.4-1.4,1.4S0-15,0-15.8S0.6-17.2,1.4-17.2z"/>
																	</g>
																	<g>
																		<path class="st1" d="M30.2-2.8c0.8,0,1.4,0.6,1.4,1.4S31,0,30.2,0s-1.4-0.6-1.4-1.4C28.8-2.2,29.4-2.8,30.2-2.8z"
																			/>
																		<path class="st1" d="M15.8-2.8c0.8,0,1.4,0.6,1.4,1.4S16.6,0,15.8,0s-1.4-0.6-1.4-1.4C14.4-2.2,15-2.8,15.8-2.8z"
																			/>
																	</g>
																	<g>
																		<path class="st1" d="M1.4-2.8c0.8,0,1.4,0.6,1.4,1.4S2.2,0,1.4,0C0.6,0.1,0-0.6,0-1.4C0-2.2,0.6-2.8,1.4-2.8z"/>
																	</g>
																</g>
															</g>
														</g>
													</g>
												</g>
											</g>
										</g>
									</g>
								</g>
							</g>
						</g>
					</g>
				</g>
			</g>
		</g>
	</g>
</pattern>
<pattern  y="869.6" width="28.8" height="28.8" patternUnits="userSpaceOnUse" id="SVGID_0000018176889978885967791" viewBox="1.4 -30.2 28.8 28.8" style="overflow:visible;">
	<g>
		<rect x="1.4" y="-30.2" class="st0" width="28.8" height="28.8"/>
		<g>
			<rect x="1.4" y="-30.2" class="st0" width="28.8" height="28.8"/>
			<g>
				<rect x="1.4" y="-30.2" class="st0" width="28.8" height="28.8"/>
				<g>
					<rect x="1.4" y="-30.2" class="st0" width="28.8" height="28.8"/>
					<g>
						<rect x="1.4" y="-30.2" class="st0" width="28.8" height="28.8"/>
						<g>
							<rect x="1.4" y="-30.2" class="st0" width="28.8" height="28.8"/>
							<g>
								<rect x="1.4" y="-30.2" class="st0" width="28.8" height="28.8"/>
								<g>
									<rect x="1.4" y="-30.2" class="st0" width="28.8" height="28.8"/>
									<g>
										<rect x="1.4" y="-30.2" class="st0" width="28.8" height="28.8"/>
										<g>
											<rect x="1.4" y="-30.2" class="st0" width="28.8" height="28.8"/>
											<g>
												<rect x="1.4" y="-30.2" class="st0" width="28.8" height="28.8"/>
												<g>
													<rect x="1.4" y="-30.2" class="st0" width="28.8" height="28.8"/>
													<g>
														<rect x="1.4" y="-30.2" class="st0" width="28.8" height="28.8"/>
														<g>
															<rect x="1.4" y="-30.2" class="st0" width="28.8" height="28.8"/>
															<g>
																<rect x="1.4" y="-30.2" class="st0" width="28.8" height="28.8"/>
																<g>
																	<rect x="1.4" y="-30.2" class="st0" width="28.8" height="28.8"/>
																	<g>
																		<path class="st1" d="M30.2-31.6c0.8,0,1.4,0.6,1.4,1.4c0,0.8-0.6,1.4-1.4,1.4s-1.4-0.6-1.4-1.4
																			C28.8-31,29.4-31.6,30.2-31.6z"/>
																		<path class="st1" d="M15.8-31.6c0.8,0,1.4,0.6,1.4,1.4c0,0.8-0.6,1.4-1.4,1.4c-0.8,0-1.4-0.6-1.4-1.4
																			C14.4-31,15-31.6,15.8-31.6z"/>
																		<path class="st1" d="M30.2-17.2c0.8,0,1.4,0.6,1.4,1.4s-0.6,1.4-1.4,1.4s-1.4-0.6-1.4-1.4
																			C28.8-16.6,29.4-17.2,30.2-17.2z"/>
																		<path class="st1" d="M15.8-17.2c0.8,0,1.4,0.6,1.4,1.4s-0.6,1.4-1.4,1.4c-0.8,0-1.4-0.6-1.4-1.4
																			C14.4-16.6,15-17.2,15.8-17.2z"/>
																		<path class="st1" d="M8.6-24.4c0.8,0,1.4,0.6,1.4,1.4c0,0.8-0.6,1.4-1.4,1.4c-0.8,0-1.4-0.6-1.4-1.4
																			C7.2-23.8,7.8-24.4,8.6-24.4z"/>
																		<path class="st1" d="M23-24.4c0.8,0,1.4,0.6,1.4,1.4c0,0.8-0.6,1.4-1.4,1.4s-1.4-0.6-1.4-1.4S22.2-24.4,23-24.4z"
																			/>
																		<path class="st1" d="M8.6-10C9.4-10,10-9.4,10-8.6S9.4-7.2,8.6-7.2c-0.8,0-1.4-0.6-1.4-1.4C7.2-9.4,7.8-10,8.6-10
																			z"/>
																		<path class="st1" d="M23-10c0.8,0,1.4,0.6,1.4,1.4S23.8-7.2,23-7.2s-1.4-0.6-1.4-1.4S22.2-10,23-10z"/>
																	</g>
																	<g>
																		<path class="st1" d="M1.4-31.6c0.8,0,1.4,0.6,1.4,1.4c0,0.8-0.6,1.4-1.4,1.4C0.6-28.7,0-29.4,0-30.2
																			C0-31,0.6-31.6,1.4-31.6z"/>
																		<path class="st1" d="M1.4-17.2c0.8,0,1.4,0.6,1.4,1.4s-0.6,1.4-1.4,1.4S0-15,0-15.8S0.6-17.2,1.4-17.2z"/>
																	</g>
																	<g>
																		<path class="st1" d="M30.2-2.8c0.8,0,1.4,0.6,1.4,1.4S31,0,30.2,0s-1.4-0.6-1.4-1.4C28.8-2.2,29.4-2.8,30.2-2.8z"
																			/>
																		<path class="st1" d="M15.8-2.8c0.8,0,1.4,0.6,1.4,1.4S16.6,0,15.8,0s-1.4-0.6-1.4-1.4C14.4-2.2,15-2.8,15.8-2.8z"
																			/>
																	</g>
																	<g>
																		<path class="st1" d="M1.4-2.8c0.8,0,1.4,0.6,1.4,1.4S2.2,0,1.4,0C0.6,0.1,0-0.6,0-1.4C0-2.2,0.6-2.8,1.4-2.8z"/>
																	</g>
																</g>
															</g>
														</g>
													</g>
												</g>
											</g>
										</g>
									</g>
								</g>
							</g>
						</g>
					</g>
				</g>
			</g>
		</g>
	</g>
</pattern>
<pattern  y="869.6" width="28.8" height="28.8" patternUnits="userSpaceOnUse" id="SVGID_1_" viewBox="1.4 -30.2 28.8 28.8" style="overflow:visible;">
	<g>
		<rect x="1.4" y="-30.2" class="st0" width="28.8" height="28.8"/>
		<g>
			<rect x="1.4" y="-30.2" class="st0" width="28.8" height="28.8"/>
			<g>
				<rect x="1.4" y="-30.2" class="st0" width="28.8" height="28.8"/>
				<g>
					<rect x="1.4" y="-30.2" class="st0" width="28.8" height="28.8"/>
					<g>
						<rect x="1.4" y="-30.2" class="st0" width="28.8" height="28.8"/>
						<g>
							<rect x="1.4" y="-30.2" class="st0" width="28.8" height="28.8"/>
							<g>
								<rect x="1.4" y="-30.2" class="st0" width="28.8" height="28.8"/>
								<g>
									<rect x="1.4" y="-30.2" class="st0" width="28.8" height="28.8"/>
									<g>
										<rect x="1.4" y="-30.2" class="st0" width="28.8" height="28.8"/>
										<g>
											<rect x="1.4" y="-30.2" class="st0" width="28.8" height="28.8"/>
											<g>
												<rect x="1.4" y="-30.2" class="st0" width="28.8" height="28.8"/>
												<g>
													<rect x="1.4" y="-30.2" class="st0" width="28.8" height="28.8"/>
													<g>
														<rect x="1.4" y="-30.2" class="st0" width="28.8" height="28.8"/>
														<g>
															<rect x="1.4" y="-30.2" class="st0" width="28.8" height="28.8"/>
															<g>
																<rect x="1.4" y="-30.2" class="st0" width="28.8" height="28.8"/>
																<g>
																	<rect x="1.4" y="-30.2" class="st0" width="28.8" height="28.8"/>
																	<g>
																		<path class="st1" d="M30.2-31.6c0.8,0,1.4,0.6,1.4,1.4c0,0.8-0.6,1.4-1.4,1.4s-1.4-0.6-1.4-1.4
																			C28.8-31,29.4-31.6,30.2-31.6z"/>
																		<path class="st1" d="M15.8-31.6c0.8,0,1.4,0.6,1.4,1.4c0,0.8-0.6,1.4-1.4,1.4c-0.8,0-1.4-0.6-1.4-1.4
																			C14.4-31,15-31.6,15.8-31.6z"/>
																		<path class="st1" d="M30.2-17.2c0.8,0,1.4,0.6,1.4,1.4s-0.6,1.4-1.4,1.4s-1.4-0.6-1.4-1.4
																			C28.8-16.6,29.4-17.2,30.2-17.2z"/>
																		<path class="st1" d="M15.8-17.2c0.8,0,1.4,0.6,1.4,1.4s-0.6,1.4-1.4,1.4c-0.8,0-1.4-0.6-1.4-1.4
																			C14.4-16.6,15-17.2,15.8-17.2z"/>
																		<path class="st1" d="M8.6-24.4c0.8,0,1.4,0.6,1.4,1.4c0,0.8-0.6,1.4-1.4,1.4c-0.8,0-1.4-0.6-1.4-1.4
																			C7.2-23.8,7.8-24.4,8.6-24.4z"/>
																		<path class="st1" d="M23-24.4c0.8,0,1.4,0.6,1.4,1.4c0,0.8-0.6,1.4-1.4,1.4s-1.4-0.6-1.4-1.4S22.2-24.4,23-24.4z"
																			/>
																		<path class="st1" d="M8.6-10C9.4-10,10-9.4,10-8.6S9.4-7.2,8.6-7.2c-0.8,0-1.4-0.6-1.4-1.4C7.2-9.4,7.8-10,8.6-10
																			z"/>
																		<path class="st1" d="M23-10c0.8,0,1.4,0.6,1.4,1.4S23.8-7.2,23-7.2s-1.4-0.6-1.4-1.4S22.2-10,23-10z"/>
																	</g>
																	<g>
																		<path class="st1" d="M1.4-31.6c0.8,0,1.4,0.6,1.4,1.4c0,0.8-0.6,1.4-1.4,1.4C0.6-28.7,0-29.4,0-30.2
																			C0-31,0.6-31.6,1.4-31.6z"/>
																		<path class="st1" d="M1.4-17.2c0.8,0,1.4,0.6,1.4,1.4s-0.6,1.4-1.4,1.4S0-15,0-15.8S0.6-17.2,1.4-17.2z"/>
																	</g>
																	<g>
																		<path class="st1" d="M30.2-2.8c0.8,0,1.4,0.6,1.4,1.4S31,0,30.2,0s-1.4-0.6-1.4-1.4C28.8-2.2,29.4-2.8,30.2-2.8z"
																			/>
																		<path class="st1" d="M15.8-2.8c0.8,0,1.4,0.6,1.4,1.4S16.6,0,15.8,0s-1.4-0.6-1.4-1.4C14.4-2.2,15-2.8,15.8-2.8z"
																			/>
																	</g>
																	<g>
																		<path class="st1" d="M1.4-2.8c0.8,0,1.4,0.6,1.4,1.4S2.2,0,1.4,0C0.6,0.1,0-0.6,0-1.4C0-2.2,0.6-2.8,1.4-2.8z"/>
																	</g>
																</g>
															</g>
														</g>
													</g>
												</g>
											</g>
										</g>
									</g>
								</g>
							</g>
						</g>
					</g>
				</g>
			</g>
		</g>
	</g>
</pattern>
<g id="employee_areas">
	
		<pattern  id="SVGID_00000070797482272818816050000017370347577775654316_" xlink:href="#SVGID_1_" patternTransform="matrix(1 0 0 -1 205.4 -139116.8438)">
	</pattern>
	
		<polygon style="opacity:0.45;fill:url(#SVGID_00000070797482272818816050000017370347577775654316_);enable-background:new    ;" points="
		294.5,91.8 294.8,90.9 292.5,41.4 211.4,96.7 211.6,95.7 58.1,95.1 57,252.1 57.3,94.5 56.4,259.9 126.2,259.9 126.2,355 
		126.6,355 126.6,267.3 224.2,267.3 224.2,354 244.3,353.7 244.3,267.7 372.7,267.7 372.7,356.5 371.7,356.5 371.9,378 373.1,377.2 
		373.1,256.2 454.5,256.2 455.3,2.1 455.7,1.8 	"/>
	
		<pattern  id="SVGID_00000028311836066445964920000002028787104042839695_" xlink:href="#SVGID_0000018176889978885967791" patternTransform="matrix(1 0 0 1 -56.68 139080.3906)">
	</pattern>
	
		<polygon style="opacity:0.45;fill:url(#SVGID_00000028311836066445964920000002028787104042839695_);stroke:#CBCCCE;stroke-linecap:round;stroke-linejoin:round;enable-background:new    ;" points="
		290.8,739 217.4,739.2 216.8,583.3 290.1,583 	"/>
	
		<pattern  id="SVGID_00000042701729820162423180000011633484278661931692_" xlink:href="#SVGID_0000007011813984286005534" patternTransform="matrix(1 0 0 1 -56.68 139080.3906)">
	</pattern>
	
		<polygon style="opacity:0.45;fill:url(#SVGID_00000042701729820162423180000011633484278661931692_);stroke:#CBCCCE;stroke-linecap:round;stroke-linejoin:round;enable-background:new    ;" points="
		124.8,640.8 49.6,640.3 50.4,524.7 125.7,524.7 	"/>
	<line class="st5" x1="125.7" y1="393.6" x2="373.6" y2="393.6"/>
	<line class="st6" x1="235.4" y1="393.6" x2="273.3" y2="393.6"/>
</g>
<g id="spaces_00000062181286822467633500000013881384494522861241_" class="st7">
	<polygon class="st8" points="53.6,259.9 53.6,320.9 53.8,321 53.6,321.5 53.6,323.7 52.5,323.7 5,419 5,424.1 71.2,424.1 
		71.2,375.1 125.7,375.1 125.7,424.1 126.2,424.1 126.2,259.9 	"/>
	<polygon id="steinbeck_00000165930104148485494230000006051237649693782402_" class="st8" points="71.2,375.1 71.2,423.9 
		53.5,423.9 53.5,526.4 126.2,526.4 126.2,375.1 	"/>
	
		<rect id="speccoll_00000137850164408263629490000012715964465260426419_" x="244.8" y="267.7" class="st8" width="128.4" height="88.8"/>
	<polygon id="Calif_room_00000023271605672200581950000002123627397740287138_" class="st8" points="502.7,331.9 502.7,326.5 
		458.6,326.5 458.6,256.2 373.1,256.2 373.1,424.7 459.1,424.7 	"/>
	<polyline id="aaacna_00000023266740077824117400000007128140173303493002_" class="st9" points="126.5,823.9 53.4,787.8 50,786.1 
		49.8,705.7 125,705.8 125.5,706.3 125.5,821.1 	"/>
	
		<rect id="schiro_room_00000180337923416800747870000005805015847887099050_" x="126.3" y="267.7" class="st10" width="97.6" height="89.2"/>
</g>
<g id="elevator">
	
		<rect x="374.2" y="430.9" transform="matrix(1.787238e-03 -1 1 1.787238e-03 -56.7724 821.796)" class="st11" width="18.1" height="16.9"/>
	
		<rect x="374.1" y="455.7" transform="matrix(1.787238e-03 -1 1 1.787238e-03 -81.6775 846.4283)" class="st11" width="18.1" height="16.9"/>
	
		<rect x="373.9" y="505.1" transform="matrix(1.787238e-03 -1 1 1.787238e-03 -131.2601 895.6224)" class="st11" width="18.1" height="16.9"/>
	
		<rect x="374.3" y="530" transform="matrix(1.787238e-03 -1 1 1.787238e-03 -155.8195 920.7883)" class="st11" width="18.1" height="16.9"/>
	<line class="st12" x1="396.3" y1="426.2" x2="396.3" y2="554.5"/>
	<g>
		<g>
			<path class="st1" d="M379.1,475.4c-0.2-0.2-0.4-0.3-0.6-0.3s-0.5,0.1-0.6,0.3c-0.5,0.5-1.4,1.4-2.7,2.7c-0.4,0.4-0.4,1,0,1.3
				c0.3,0.3,0.9,0.3,1.2,0l1.1-1.1v3.5c0,0.5,0.4,0.9,0.9,0.9h0.1c0.5,0,0.9-0.4,0.9-0.9v-3.5l1.1,1.1c0.3,0.3,0.9,0.3,1.2,0l0,0
				c0.3-0.3,0.3-0.9,0-1.2C380.4,476.7,379.7,476,379.1,475.4z"/>
			<path class="st1" d="M386.9,482.4c0.2,0.2,0.4,0.3,0.6,0.3s0.5-0.1,0.6-0.3c0.5-0.5,1.4-1.4,2.7-2.7c0.4-0.4,0.4-1,0-1.3
				c-0.3-0.3-0.9-0.3-1.2,0l-1.1,1.1V476c0-0.5-0.4-0.9-0.9-0.9h-0.1c-0.5,0-0.9,0.4-0.9,0.9v3.5l-1.1-1.1c-0.3-0.3-0.9-0.3-1.2,0
				l0,0c-0.3,0.3-0.3,0.9,0,1.2C385.6,481.1,386.3,481.8,386.9,482.4z"/>
		</g>
		<g>
			<g>
				<path class="st1" d="M386.3,489.4c0.5,0,1-0.4,1-1c0-0.5-0.4-1-1-1c-0.5,0-1,0.4-1,1C385.4,488.9,385.8,489.4,386.3,489.4z"/>
				<path class="st1" d="M387.6,489.5h-2.4c-0.6,0-1,0.5-1,1v3c0,0.2,0.2,0.4,0.4,0.4c0.2,0,0.4-0.2,0.4-0.4v-2.6h0.2v3v4.1
					c0,0.3,0.2,0.6,0.6,0.6c0.3,0,0.6-0.2,0.6-0.6v-4.1h0.2v4.1c0,0.3,0.2,0.6,0.6,0.6c0.3,0,0.6-0.2,0.6-0.6v-4.1v-3h0.2v2.6
					c0,0.2,0.2,0.4,0.4,0.4c0.2,0,0.4-0.2,0.4-0.4v-3C388.6,490,388.1,489.5,387.6,489.5z"/>
			</g>
			<path class="st1" d="M380.1,489.4c0.5,0,1-0.4,1-1c0-0.5-0.4-1-1-1c-0.5,0-1,0.4-1,1C379.1,488.9,379.5,489.4,380.1,489.4z"/>
			<path class="st1" d="M382.7,493.1l-0.8-2.8c-0.2-0.5-0.6-0.7-1.2-0.7l0,0h-1.3l0,0c-0.6,0-1,0.2-1.2,0.7l-0.8,2.8
				c-0.1,0.2,0.1,0.4,0.3,0.4c0.2,0.1,0.4,0,0.5-0.2l0.7-2.5h0.2l-1.2,4.3h1.2v3c0,0.3,0.2,0.5,0.5,0.5s0.5-0.2,0.5-0.5v-3h0.2v3
				c0,0.3,0.2,0.5,0.5,0.5s0.5-0.2,0.5-0.5v-3h1.2l-1.2-4.3h0.2l0.7,2.5c0.1,0.2,0.3,0.3,0.5,0.2
				C382.6,493.4,382.7,493.2,382.7,493.1z"/>
		</g>
		<g>
			<path class="st1" d="M389.2,502h-12.4c-2.5,0-4.6-2.6-4.6-5.7v-6.5c0-3.2,2.1-5.7,4.6-5.7h12.3c2.5,0,4.6,2.6,4.6,5.7v6.5
				C393.7,499.4,391.7,502,389.2,502z M376.8,486.1c-1.6,0-2.9,1.6-2.9,3.6v6.5c0,2,1.3,3.6,2.9,3.6h12.3c1.6,0,2.9-1.6,2.9-3.6
				v-6.5c0-2-1.3-3.6-2.9-3.6H376.8z"/>
		</g>
	</g>
</g>
<g id="stairs_00000032626799022009418030000006004862700355200132_">
	<g>
		<path class="st1" d="M406.6,528c1.1,0,2.1-0.9,2.1-2.1c0-1.1-0.9-2.1-2.1-2.1c-1.1,0-2.1,0.9-2.1,2.1
			C404.6,527.1,405.5,528,406.6,528z"/>
		<path class="st1" d="M402.9,534.5c0.7,0,1.2-0.4,1.2-1.1v-1.3l0.7-0.4v3.3v0.7l-2,7.7c-0.2,0.6,0.2,1.2,0.8,1.3
			c0.7,0.2,1.3-0.1,1.6-0.8l1.8-7.1h1.8v2.3c0,0.7,0.6,1.1,1.2,1.1s1.2-0.4,1.2-1.1v-3.4c0-0.7-0.6-1.1-1.2-1.1l0,0l0,0h-2.7v-2.1
			l0.7,0.7c0.2,0.2,0.6,0.4,1,0.4l0,0h2.2c0.7,0,1.2-0.4,1.2-1.1s-0.6-1.1-1.2-1.1h-1.8l-2.2-2.4l-0.1-0.1c-0.1-0.1-0.2-0.3-0.4-0.4
			l0,0h-0.1l0,0h-0.1l0,0c0,0,0,0-0.1,0l0,0c0,0,0,0-0.1,0l0,0c0,0,0,0-0.1,0l0,0l0,0l0,0c0,0,0,0-0.1,0c0,0,0,0-0.1,0l0,0
			c0,0,0,0-0.1,0l0,0c0,0,0,0-0.1,0l0,0c0,0,0,0-0.1,0l0,0c0,0,0,0-0.1,0l0,0c0,0,0,0-0.1,0l0,0l-3.1,2.2c-0.3,0.2-0.4,0.6-0.4,0.9
			l0,0v1.9C401.6,534.1,402.1,534.5,402.9,534.5z"/>
		<path class="st1" d="M425.6,530.7H420c-0.2,0-0.3,0.2-0.4,0.4v5.2h-5.2c-0.2,0-0.3,0.2-0.4,0.4v5.6h-5.4c-0.2,0-0.3,0.2-0.4,0.4
			v5.1H403c-0.2,0-0.3,0.2-0.4,0.4v4.9c0,0.2,0.2,0.3,0.4,0.4h22.8c0.2,0,0.3-0.2,0.4-0.4l-0.1-22C426,531,425.9,530.8,425.6,530.7z
			"/>
	</g>
</g>
<polygon id="atrium" class="st13" points="216.2,422.1 292.7,421.8 292.3,498.7 215.7,499 "/>
<g id="restroom_00000093154083196299017300000003324237930340482739_">
	<rect x="386.3" y="580.2" class="st14" width="68.6" height="68.6"/>
	<g>
		<g>
			<path class="st15" d="M411.4,604.9c1.2,0,2.1-0.9,2.1-2.1c0-1.2-0.9-2.1-2.1-2.1s-2.1,0.9-2.1,2.1
				C409.2,604,410.3,604.9,411.4,604.9z"/>
			<path class="st15" d="M414.2,605.5h-5.5c-1.3,0-2.4,1-2.4,2.4v6.7c0,0.5,0.4,0.9,0.9,0.9s0.9-0.4,0.9-0.9v-5.9h0.5v6.8v9.2
				c0,0.7,0.5,1.2,1.2,1.2s1.2-0.5,1.2-1.2v-9.2h0.5v9.2c0,0.7,0.5,1.2,1.2,1.2s1.2-0.5,1.2-1.2v-9.2v-6.8h0.5v5.9
				c0,0.5,0.4,0.9,0.9,0.9s0.9-0.4,0.9-0.9v-6.7C416.6,606.5,415.5,605.5,414.2,605.5z"/>
		</g>
		<g>
			<path class="st15" d="M432.8,604.9c1.2,0,2.1-0.9,2.1-2.1c0-1.2-0.9-2.1-2.1-2.1s-2.1,0.9-2.1,2.1
				C430.6,604,431.6,604.9,432.8,604.9z"/>
			<path class="st15" d="M438.5,613.3l-1.8-6.3c-0.4-1.2-1.3-1.6-2.6-1.6l0,0h-2.9l0,0c-1.3,0-2.1,0.4-2.6,1.6l-1.8,6.3
				c-0.1,0.4,0.1,0.8,0.7,0.9c0.4,0.1,0.9-0.1,1-0.5l1.6-5.5h0.4l-2.7,9.6h2.6v6.8c0,0.5,0.5,1,1,1s1-0.5,1-1v-6.8h0.5v6.8
				c0,0.5,0.5,1,1,1s1-0.5,1-1v-6.8h2.6l-2.7-9.6h0.4l1.6,5.5c0.1,0.4,0.5,0.7,1,0.5C438.4,614.1,438.7,613.7,438.5,613.3z"/>
		</g>
	</g>
	<rect x="421.4" y="600.7" class="st15" width="2.4" height="24.9"/>
</g>
<g id="stacks" class="st7">
	<rect x="147.8" y="416.5" class="st16" width="50.3" height="84.7"/>
	<rect x="147.8" y="780.7" class="st16" width="50.3" height="34.7"/>
	<rect x="147.8" y="572.3" class="st16" width="50.3" height="39.6"/>
	<rect x="312.2" y="575.2" class="st16" width="50.3" height="83.5"/>
	<rect x="312.2" y="667.3" class="st16" width="50.3" height="56.3"/>
	<rect x="370" y="667.2" class="st16" width="62.5" height="81.2"/>
	<circle class="st16" cx="427.6" cy="770.6" r="12.5"/>
	<rect x="147.3" y="685.9" class="st17" width="50.3" height="34.7"/>
</g>
<g id="floor_outline">
	<line class="st18" x1="503.4" y1="330.3" x2="458" y2="424.7"/>
	<line class="st18" x1="4.1" y1="424.5" x2="53" y2="322.8"/>
	<line class="st18" x1="458.4" y1="817.2" x2="296.4" y2="739.7"/>
	<line class="st18" x1="52" y1="785.6" x2="218.6" y2="865.7"/>
	<line class="st18" x1="52.6" y1="96.6" x2="215.6" y2="95.7"/>
	<line class="st18" x1="458.5" y1="2.1" x2="295.3" y2="95.3"/>
	<line class="st18" x1="457.9" y1="328.5" x2="458.5" y2="2.1"/>
	<line class="st18" x1="502.4" y1="328.7" x2="457.9" y2="328.5"/>
	<line class="st18" x1="293.7" y1="42.7" x2="216.4" y2="95.6"/>
	<line class="st18" x1="294.6" y1="96" x2="293.7" y2="42.7"/>
	<line class="st18" x1="53.4" y1="96.7" x2="53" y2="322.8"/>
	<path class="st18" d="M457.6,425.5"/>
	<line class="st18" x1="458.4" y1="817.2" x2="457.3" y2="517.9"/>
	<line class="st18" x1="219.4" y1="739.7" x2="218.6" y2="865.7"/>
	<line class="st18" x1="51.7" y1="424.7" x2="3.6" y2="425.5"/>
	<line class="st18" x1="52" y1="785.6" x2="51.7" y2="424.7"/>
	<path class="st19" d="M457.6,425.5"/>
	<path class="st19" d="M457.3,517.9"/>
	<line class="st18" x1="220" y1="739.3" x2="296" y2="739.7"/>
	<g>
		<line class="st19" x1="397.3" y1="424.8" x2="457.1" y2="424.8"/>
		<line class="st19" x1="397.2" y1="517.2" x2="397.3" y2="425.1"/>
		<line class="st19" x1="397.2" y1="517.9" x2="457.3" y2="517.9"/>
	</g>
</g>
<g id="Text">
	<text transform="matrix(1 0 0 1 49.941 354.1148)" class="st20 st21">Beethoven</text>
	<text transform="matrix(1 0 0 1 76.4357 368.1148)" class="st20 st21">Center</text>
	<text transform="matrix(1 0 0 1 55.7931 504.9762)" class="st20 st21">Steinbeck</text>
	<text transform="matrix(1 0 0 1 76.4355 518.9762)" class="st20 st21">Center</text>
	<text transform="matrix(1 0 0 1 174.9376 334.3898)" class="st20 st21">Schiro</text>
	<text transform="matrix(1 0 0 1 176.4376 350.3898)" class="st20 st21">Room</text>
	<text transform="matrix(1 0 0 1 250.8554 316.3896)" class="st20 st21">Special</text>
	<text transform="matrix(1 0 0 1 250.856 333.3896)" class="st20 st21">Collections</text>
	<text transform="matrix(1 0 0 1 250.8558 350.3896)" class="st20 st21">&amp; Archives</text>
	<text transform="matrix(1 0 0 1 379.4246 369.5657)" class="st20 st21">California</text>
	<text transform="matrix(1 0 0 1 379.4241 385.5657)" class="st20 st21">Room</text>
	<text transform="matrix(1 0 0 1 58.0678 725.0766)" class="st20 st21">AAACNA</text>
	<text transform="matrix(1 0 0 1 78.3221 743.0766)" class="st20 st21">Room</text>
</g>
<g>
	<ellipse class="st22" cx="69.9" cy="641.2" rx="15" ry="14.9"/>
	<g>
		<g>
			<path class="st15" d="M61.3,632.1l5.2-1.8c0.3-0.1,0.6,0.1,0.6,0.5v1.4h5.1c0.2,0,0.4,0.2,0.4,0.4v1.6c-0.3,0-0.6,0.1-0.8,0.2
				V633h-4.6v15.8h3.1v0.2c0,0.2-0.1,0.4,0,0.6h-3v1.4c0,0.3-0.3,0.6-0.6,0.5l-5.2-1.8c-0.2-0.1-0.3-0.2-0.3-0.5v-16.7
				C61,632.4,61.1,632.2,61.3,632.1z"/>
			<g>
				<g>
					<path class="st15" d="M80.3,648.1H77c-0.4,0-0.8-0.3-1-0.7l-0.4-1.3l1.6-1.3l0,0l0.4,1.4h2.6c0.5,0,1,0.4,1,1
						C81.3,647.7,80.9,648.1,80.3,648.1z"/>
					<path class="st15" d="M72.7,638.6c-0.9-0.2-1.5-1.1-1.3-2.1c0.2-0.9,1.1-1.5,2.1-1.3s1.5,1.1,1.3,2.1
						C74.5,638.2,73.6,638.8,72.7,638.6z"/>
					<path class="st15" d="M79,642.8c-0.4,0.2-0.9,0-1.1-0.4l-0.7-1.5l-0.9-0.3l0.8,2.9c0.1,0.4,0,0.8-0.3,1l-2.8,2.3l-0.8,3
						c-0.1,0.5-0.5,0.7-1,0.7c-0.1,0-0.2,0-0.2,0c-0.5-0.1-0.9-0.7-0.7-1.2l0.8-3.3c0-0.2,0.2-0.4,0.3-0.5l1.8-1.4l-0.9-2.5
						l-0.9,1.1c-0.2,0.2-0.4,0.3-0.6,0.3c-0.1,0-0.3,0-0.4-0.1l-1.7-1c-0.4-0.2-0.5-0.7-0.3-1.1c0.2-0.4,0.8-0.5,1.1-0.3l1.1,0.6
						l0.9-1c0.2-0.3,0.5-0.5,0.9-0.6l1.5-0.5c0.4-0.2,0.9-0.2,1.4,0l1.9,0.6c0.2,0.1,0.4,0.2,0.5,0.5l0.8,1.8
						C79.6,642.1,79.4,642.6,79,642.8z"/>
				</g>
			</g>
		</g>
	</g>
</g>
<g>
	<circle class="st22" cx="439.2" cy="565.2" r="15"/>
	<g>
		<g>
			<path class="st15" d="M447.8,556.1l-5.2-1.8c-0.3-0.1-0.6,0.1-0.6,0.5v1.4h-5.1c-0.2,0-0.4,0.2-0.4,0.4v1.6
				c0.3,0,0.6,0.1,0.8,0.2V557h4.6v15.9h-3.1v0.2c0,0.2,0.1,0.4,0,0.6h3v1.4c0,0.3,0.3,0.6,0.6,0.5l5.2-1.8c0.2-0.1,0.3-0.2,0.3-0.5
				v-16.8C448.1,556.3,448,556.1,447.8,556.1z"/>
			<g>
				<g>
					<path class="st15" d="M428.8,572.1h3.3c0.4,0,0.8-0.3,1-0.7l0.4-1.3l-1.6-1.3l0,0l-0.4,1.4h-2.6c-0.5,0-1,0.4-1,1
						C427.8,571.7,428.2,572.1,428.8,572.1z"/>
					<path class="st15" d="M436.4,562.5c0.9-0.2,1.5-1.1,1.3-2.1c-0.2-0.9-1.1-1.5-2.1-1.3c-0.9,0.2-1.5,1.1-1.3,2.1
						C434.6,562.2,435.5,562.7,436.4,562.5z"/>
					<path class="st15" d="M430.1,566.7c0.4,0.2,0.9,0,1.1-0.4l0.7-1.5l0.9-0.3l-0.8,2.9c-0.1,0.4,0,0.8,0.3,1l2.8,2.3l0.8,3
						c0.1,0.5,0.5,0.8,1,0.8c0.1,0,0.2,0,0.2,0c0.5-0.1,0.9-0.7,0.7-1.2l-0.8-3.4c0-0.2-0.2-0.4-0.3-0.5l-1.8-1.4l0.9-2.5l0.9,1.1
						c0.2,0.2,0.4,0.3,0.6,0.3c0.1,0,0.3,0,0.4-0.1l1.7-1c0.4-0.2,0.5-0.8,0.3-1.1c-0.2-0.4-0.8-0.5-1.1-0.3l-1.1,0.6l-0.9-1
						c-0.2-0.3-0.5-0.5-0.9-0.6l-1.5-0.5c-0.4-0.2-0.9-0.2-1.4,0l-1.9,0.6c-0.2,0.1-0.4,0.2-0.5,0.5l-0.8,1.8
						C429.5,566.1,429.7,566.6,430.1,566.7z"/>
				</g>
			</g>
		</g>
	</g>
</g>
<text transform="matrix(1 0 0 1 332.8201 594.8898)" class="st20 st23">M</text>
<text transform="matrix(1 0 0 1 329.1799 708.8898)" class="st20 st23">ML</text>
<text transform="matrix(1 0 0 1 392.2546 681.8898)" class="st20 st23">ML</text>
<text transform="matrix(1 0 0 1 391.7454 741.8898)" class="st20 st23">MT</text>
<path class="st24" d="M340.3,651.6l5.6-11c0.4-0.8-0.5-1.6-1.3-1l-2.3,1.7v-16.8c0-0.4-0.3-0.9-0.9-0.9h-4c-0.4,0-0.9,0.3-0.9,0.9
	v16.8l-2.3-1.7c-0.7-0.5-1.6,0.3-1.3,1l5.6,11C339,652.2,339.9,652.2,340.3,651.6z"/>
<path class="st24" d="M401.8,720.2l5.6-11c0.4-0.8-0.5-1.6-1.3-1l-2.3,1.7v-16.8c0-0.4-0.3-0.9-0.9-0.9h-4c-0.4,0-0.9,0.3-0.9,0.9
	v16.8l-2.3-1.7c-0.7-0.5-1.6,0.3-1.3,1l5.6,11C400.5,720.8,401.4,720.8,401.8,720.2z"/>
<g id="North">
	<polygon class="st25" points="33,29.5 0,23.8 27.3,62.5 	"/>
	<text transform="matrix(0.6 0.8 -0.8 0.6 29.7942 17.2403)" class="st25 st26 st27">N</text>
</g>
</svg>
