<?xml version="1.0" encoding="utf-8"?>
<!-- Generator: Adobe Illustrator 28.2.0, SVG Export Plug-In . SVG Version: 6.00 Build 0)  -->
<svg version="1.1" id="Layer_1" xmlns="http://www.w3.org/2000/svg" xmlns:xlink="http://www.w3.org/1999/xlink" x="0px" y="0px"
	 viewBox="0 0 505.8 869.6" style="enable-background:new 0 0 505.8 869.6;" xml:space="preserve">
<style type="text/css">
	.st0{fill:none;}
	.st1{fill:#231F20;}
	.st2{opacity:0.45;fill:url(#SVGID_1_);enable-background:new    ;}
	
		.st3{opacity:0.45;fill:url(#SVGID_00000167381650346424237300000017631902306773814677_);stroke:#CBCCCE;stroke-linecap:round;stroke-linejoin:round;enable-background:new    ;}
	
		.st4{opacity:0.45;fill:url(#SVGID_00000028305481308471984360000016769578391532394174_);stroke:#CBCCCE;stroke-linecap:round;stroke-linejoin:round;enable-background:new    ;}
	.st5{fill:none;stroke:#010101;stroke-width:3;stroke-miterlimit:10;}
	.st6{fill:none;stroke:#FFFFFF;stroke-width:4;stroke-miterlimit:10;}
	.st7{opacity:0.5;}
	.st8{fill:#B7580E;stroke:#FFFFFF;stroke-miterlimit:10;}
	.st9{fill:#3F417F;}
	.st10{fill:#3F417F;stroke:#FFFFFF;stroke-miterlimit:10;}
	.st11{opacity:0.4;fill:#1A4363;enable-background:new    ;}
	.st12{fill:none;stroke:#010101;stroke-width:4;stroke-miterlimit:10;}
	.st13{fill:#E4F0F9;}
	.st14{fill:#0073A0;}
	.st15{fill:#FFFFFF;}
	.st16{fill:#EBCA74;}
	.st17{fill:none;stroke:#221F1F;stroke-width:6;stroke-linecap:round;stroke-linejoin:round;}
	.st18{fill:none;stroke:#231F20;stroke-width:6;stroke-linecap:round;stroke-linejoin:round;}
	.st19{font-family:'ArialMT';}
	.st20{font-size:16px;}
	.st21{fill:#C40000;stroke:#FFFFFF;stroke-width:3;stroke-miterlimit:10;}
	.st22{fill:#C40000;}
</style>
<pattern  y="869.6" width="28.8" height="28.8" patternUnits="userSpaceOnUse" id="SVGID_0000005279600334850918018" viewBox="1.4 -30.2 28.8 28.8" style="overflow:visible;">
	<g>
		<rect x="1.4" y="-30.2" class="st0" width="28.8" height="28.8"/>
		<g>
			<rect x="1.4" y="-30.2" class="st0" width="28.8" height="28.8"/>
			<g>
				<rect x="1.4" y="-30.2" class="st0" width="28.8" height="28.8"/>
				<g>
					<rect x="1.4" y="-30.2" class="st0" width="28.8" height="28.8"/>
					<g>
						<rect x="1.4" y="-30.2" class="st0" width="28.8" height="28.8"/>
						<g>
							<rect x="1.4" y="-30.2" class="st0" width="28.8" height="28.8"/>
							<g>
								<rect x="1.4" y="-30.2" class="st0" width="28.8" height="28.8"/>
								<g>
									<rect x="1.4" y="-30.2" class="st0" width="28.8" height="28.8"/>
									<g>
										<rect x="1.4" y="-30.2" class="st0" width="28.8" height="28.8"/>
										<g>
											<path class="st1" d="M30.2,0c0.8,0,1.4-0.6,1.4-1.4S31-2.8,30.2-2.8s-1.4,0.6-1.4,1.4C28.8-0.6,29.4,0,30.2,0z"/>
											<path class="st1" d="M15.8,0c0.8,0,1.4-0.6,1.4-1.4s-0.6-1.4-1.4-1.4c-0.8,0-1.4,0.6-1.4,1.4C14.4-0.6,15,0,15.8,0z"/>
											<path class="st1" d="M30.2-14.4c0.8,0,1.4-0.6,1.4-1.4s-0.6-1.4-1.4-1.4s-1.4,0.6-1.4,1.4C28.8-15,29.4-14.4,30.2-14.4z"
												/>
											<path class="st1" d="M15.8-14.4c0.8,0,1.4-0.6,1.4-1.4s-0.6-1.4-1.4-1.4c-0.8,0-1.4,0.6-1.4,1.4
												C14.4-15,15-14.4,15.8-14.4z"/>
											<path class="st1" d="M8.6-7.2c0.8,0,1.4-0.6,1.4-1.4S9.4-10,8.6-10c-0.8,0-1.4,0.6-1.4,1.4C7.2-7.8,7.8-7.2,8.6-7.2z"/>
											<path class="st1" d="M23-7.2c0.8,0,1.4-0.6,1.4-1.4S23.8-10,23-10s-1.4,0.6-1.4,1.4S22.2-7.2,23-7.2z"/>
											<path class="st1" d="M8.6-21.6c0.8,0,1.4-0.6,1.4-1.4s-0.6-1.4-1.4-1.4c-0.8,0-1.4,0.6-1.4,1.4
												C7.2-22.2,7.8-21.6,8.6-21.6z"/>
											<path class="st1" d="M23-21.6c0.8,0,1.4-0.6,1.4-1.4s-0.6-1.4-1.4-1.4s-1.4,0.6-1.4,1.4C21.6-22.2,22.2-21.6,23-21.6z"/>
										</g>
										<g>
											<path class="st1" d="M1.4,0c0.8,0,1.4-0.6,1.4-1.4S2.2-2.8,1.4-2.8C0.6-2.9,0-2.2,0-1.4C0-0.6,0.6,0,1.4,0z"/>
											<path class="st1" d="M1.4-14.4c0.8,0,1.4-0.6,1.4-1.4s-0.6-1.4-1.4-1.4S0-16.6,0-15.8S0.6-14.4,1.4-14.4z"/>
										</g>
										<g>
											<path class="st1" d="M30.2-28.8c0.8,0,1.4-0.6,1.4-1.4s-0.6-1.4-1.4-1.4s-1.4,0.6-1.4,1.4C28.8-29.4,29.4-28.8,30.2-28.8
												z"/>
											<path class="st1" d="M15.8-28.8c0.8,0,1.4-0.6,1.4-1.4s-0.6-1.4-1.4-1.4s-1.4,0.6-1.4,1.4C14.4-29.4,15-28.8,15.8-28.8z"
												/>
										</g>
										<g>
											<path class="st1" d="M1.4-28.8c0.8,0,1.4-0.6,1.4-1.4s-0.6-1.4-1.4-1.4C0.6-31.7,0-31,0-30.2C0-29.4,0.6-28.8,1.4-28.8z"
												/>
										</g>
									</g>
								</g>
							</g>
						</g>
					</g>
				</g>
			</g>
		</g>
	</g>
</pattern>
<pattern  y="869.6" width="28.8" height="28.8" patternUnits="userSpaceOnUse" id="SVGID_0000008090944447836854661" viewBox="1.4 -30.2 28.8 28.8" style="overflow:visible;">
	<g>
		<rect x="1.4" y="-30.2" class="st0" width="28.8" height="28.8"/>
		<g>
			<rect x="1.4" y="-30.2" class="st0" width="28.8" height="28.8"/>
			<g>
				<rect x="1.4" y="-30.2" class="st0" width="28.8" height="28.8"/>
				<g>
					<rect x="1.4" y="-30.2" class="st0" width="28.8" height="28.8"/>
					<g>
						<rect x="1.4" y="-30.2" class="st0" width="28.8" height="28.8"/>
						<g>
							<rect x="1.4" y="-30.2" class="st0" width="28.8" height="28.8"/>
							<g>
								<rect x="1.4" y="-30.2" class="st0" width="28.8" height="28.8"/>
								<g>
									<rect x="1.4" y="-30.2" class="st0" width="28.8" height="28.8"/>
									<g>
										<rect x="1.4" y="-30.2" class="st0" width="28.8" height="28.8"/>
										<g>
											<path class="st1" d="M30.2,0c0.8,0,1.4-0.6,1.4-1.4S31-2.8,30.2-2.8s-1.4,0.6-1.4,1.4C28.8-0.6,29.4,0,30.2,0z"/>
											<path class="st1" d="M15.8,0c0.8,0,1.4-0.6,1.4-1.4s-0.6-1.4-1.4-1.4c-0.8,0-1.4,0.6-1.4,1.4C14.4-0.6,15,0,15.8,0z"/>
											<path class="st1" d="M30.2-14.4c0.8,0,1.4-0.6,1.4-1.4s-0.6-1.4-1.4-1.4s-1.4,0.6-1.4,1.4C28.8-15,29.4-14.4,30.2-14.4z"
												/>
											<path class="st1" d="M15.8-14.4c0.8,0,1.4-0.6,1.4-1.4s-0.6-1.4-1.4-1.4c-0.8,0-1.4,0.6-1.4,1.4
												C14.4-15,15-14.4,15.8-14.4z"/>
											<path class="st1" d="M8.6-7.2c0.8,0,1.4-0.6,1.4-1.4S9.4-10,8.6-10c-0.8,0-1.4,0.6-1.4,1.4C7.2-7.8,7.8-7.2,8.6-7.2z"/>
											<path class="st1" d="M23-7.2c0.8,0,1.4-0.6,1.4-1.4S23.8-10,23-10s-1.4,0.6-1.4,1.4S22.2-7.2,23-7.2z"/>
											<path class="st1" d="M8.6-21.6c0.8,0,1.4-0.6,1.4-1.4s-0.6-1.4-1.4-1.4c-0.8,0-1.4,0.6-1.4,1.4
												C7.2-22.2,7.8-21.6,8.6-21.6z"/>
											<path class="st1" d="M23-21.6c0.8,0,1.4-0.6,1.4-1.4s-0.6-1.4-1.4-1.4s-1.4,0.6-1.4,1.4C21.6-22.2,22.2-21.6,23-21.6z"/>
										</g>
										<g>
											<path class="st1" d="M1.4,0c0.8,0,1.4-0.6,1.4-1.4S2.2-2.8,1.4-2.8C0.6-2.9,0-2.2,0-1.4C0-0.6,0.6,0,1.4,0z"/>
											<path class="st1" d="M1.4-14.4c0.8,0,1.4-0.6,1.4-1.4s-0.6-1.4-1.4-1.4S0-16.6,0-15.8S0.6-14.4,1.4-14.4z"/>
										</g>
										<g>
											<path class="st1" d="M30.2-28.8c0.8,0,1.4-0.6,1.4-1.4s-0.6-1.4-1.4-1.4s-1.4,0.6-1.4,1.4C28.8-29.4,29.4-28.8,30.2-28.8
												z"/>
											<path class="st1" d="M15.8-28.8c0.8,0,1.4-0.6,1.4-1.4s-0.6-1.4-1.4-1.4s-1.4,0.6-1.4,1.4C14.4-29.4,15-28.8,15.8-28.8z"
												/>
										</g>
										<g>
											<path class="st1" d="M1.4-28.8c0.8,0,1.4-0.6,1.4-1.4s-0.6-1.4-1.4-1.4C0.6-31.7,0-31,0-30.2C0-29.4,0.6-28.8,1.4-28.8z"
												/>
										</g>
									</g>
								</g>
							</g>
						</g>
					</g>
				</g>
			</g>
		</g>
	</g>
</pattern>
<pattern  y="869.6" width="28.8" height="28.8" patternUnits="userSpaceOnUse" id="SVGID_0000015152665844269280957" viewBox="1.4 -30.2 28.8 28.8" style="overflow:visible;">
	<g>
		<rect x="1.4" y="-30.2" class="st0" width="28.8" height="28.8"/>
		<g>
			<rect x="1.4" y="-30.2" class="st0" width="28.8" height="28.8"/>
			<g>
				<rect x="1.4" y="-30.2" class="st0" width="28.8" height="28.8"/>
				<g>
					<rect x="1.4" y="-30.2" class="st0" width="28.8" height="28.8"/>
					<g>
						<rect x="1.4" y="-30.2" class="st0" width="28.8" height="28.8"/>
						<g>
							<rect x="1.4" y="-30.2" class="st0" width="28.8" height="28.8"/>
							<g>
								<rect x="1.4" y="-30.2" class="st0" width="28.8" height="28.8"/>
								<g>
									<rect x="1.4" y="-30.2" class="st0" width="28.8" height="28.8"/>
									<g>
										<rect x="1.4" y="-30.2" class="st0" width="28.8" height="28.8"/>
										<g>
											<path class="st1" d="M30.2,0c0.8,0,1.4-0.6,1.4-1.4S31-2.8,30.2-2.8s-1.4,0.6-1.4,1.4C28.8-0.6,29.4,0,30.2,0z"/>
											<path class="st1" d="M15.8,0c0.8,0,1.4-0.6,1.4-1.4s-0.6-1.4-1.4-1.4c-0.8,0-1.4,0.6-1.4,1.4C14.4-0.6,15,0,15.8,0z"/>
											<path class="st1" d="M30.2-14.4c0.8,0,1.4-0.6,1.4-1.4s-0.6-1.4-1.4-1.4s-1.4,0.6-1.4,1.4C28.8-15,29.4-14.4,30.2-14.4z"
												/>
											<path class="st1" d="M15.8-14.4c0.8,0,1.4-0.6,1.4-1.4s-0.6-1.4-1.4-1.4c-0.8,0-1.4,0.6-1.4,1.4
												C14.4-15,15-14.4,15.8-14.4z"/>
											<path class="st1" d="M8.6-7.2c0.8,0,1.4-0.6,1.4-1.4S9.4-10,8.6-10c-0.8,0-1.4,0.6-1.4,1.4C7.2-7.8,7.8-7.2,8.6-7.2z"/>
											<path class="st1" d="M23-7.2c0.8,0,1.4-0.6,1.4-1.4S23.8-10,23-10s-1.4,0.6-1.4,1.4S22.2-7.2,23-7.2z"/>
											<path class="st1" d="M8.6-21.6c0.8,0,1.4-0.6,1.4-1.4s-0.6-1.4-1.4-1.4c-0.8,0-1.4,0.6-1.4,1.4
												C7.2-22.2,7.8-21.6,8.6-21.6z"/>
											<path class="st1" d="M23-21.6c0.8,0,1.4-0.6,1.4-1.4s-0.6-1.4-1.4-1.4s-1.4,0.6-1.4,1.4C21.6-22.2,22.2-21.6,23-21.6z"/>
										</g>
										<g>
											<path class="st1" d="M1.4,0c0.8,0,1.4-0.6,1.4-1.4S2.2-2.8,1.4-2.8C0.6-2.9,0-2.2,0-1.4C0-0.6,0.6,0,1.4,0z"/>
											<path class="st1" d="M1.4-14.4c0.8,0,1.4-0.6,1.4-1.4s-0.6-1.4-1.4-1.4S0-16.6,0-15.8S0.6-14.4,1.4-14.4z"/>
										</g>
										<g>
											<path class="st1" d="M30.2-28.8c0.8,0,1.4-0.6,1.4-1.4s-0.6-1.4-1.4-1.4s-1.4,0.6-1.4,1.4C28.8-29.4,29.4-28.8,30.2-28.8
												z"/>
											<path class="st1" d="M15.8-28.8c0.8,0,1.4-0.6,1.4-1.4s-0.6-1.4-1.4-1.4s-1.4,0.6-1.4,1.4C14.4-29.4,15-28.8,15.8-28.8z"
												/>
										</g>
										<g>
											<path class="st1" d="M1.4-28.8c0.8,0,1.4-0.6,1.4-1.4s-0.6-1.4-1.4-1.4C0.6-31.7,0-31,0-30.2C0-29.4,0.6-28.8,1.4-28.8z"
												/>
										</g>
									</g>
								</g>
							</g>
						</g>
					</g>
				</g>
			</g>
		</g>
	</g>
</pattern>
<g id="employee_areas">
	<pattern  id="SVGID_1_" xlink:href="#SVGID_0000008090944447836854661" patternTransform="matrix(1 0 0 1 109.2 69521.8516)">
	</pattern>
	<polygon class="st2" points="294.5,91.8 294.8,90.9 292.5,41.4 211.4,96.7 211.6,95.7 58.1,95.1 57,252.1 57.3,94.5 56.4,259.9 
		126.2,259.9 126.2,355 126.6,355 126.6,267.3 224.2,267.3 224.2,354 244.3,353.7 244.3,267.7 372.7,267.7 372.7,356.5 371.7,356.5 
		371.9,378 373.1,377.2 373.1,256.2 454.5,256.2 455.3,2.1 455.7,1.8 	"/>
	
		<pattern  id="SVGID_00000130643806715457326140000012825886872374040223_" xlink:href="#SVGID_0000015152665844269280957" patternTransform="matrix(1 0 0 -1 -152.88 -87480.7578)">
	</pattern>
	
		<polygon style="opacity:0.45;fill:url(#SVGID_00000130643806715457326140000012825886872374040223_);stroke:#CBCCCE;stroke-linecap:round;stroke-linejoin:round;enable-background:new    ;" points="
		294.2,739 217.4,739.2 216.8,601.5 293.5,601.2 	"/>
	
		<pattern  id="SVGID_00000041994093744336513220000008051472411401735859_" xlink:href="#SVGID_0000005279600334850918018" patternTransform="matrix(1 0 0 -1 -152.88 -87480.7578)">
	</pattern>
	
		<polygon style="opacity:0.45;fill:url(#SVGID_00000041994093744336513220000008051472411401735859_);stroke:#CBCCCE;stroke-linecap:round;stroke-linejoin:round;enable-background:new    ;" points="
		124.8,640.8 49.6,640.3 50.4,524.7 125.7,524.7 	"/>
	<line class="st5" x1="125.7" y1="393.6" x2="373.6" y2="393.6"/>
	<line class="st6" x1="224.7" y1="393.6" x2="274.7" y2="393.6"/>
</g>
<g id="spaces_00000062181286822467633500000013881384494522861241_" class="st7">
	<polygon id="beethoven_00000004547315513756117740000007388592252845031093_" class="st8" points="53.6,259.9 53.6,320.9 53.8,321 
		53.6,321.5 53.6,323.7 52.5,323.7 5,419 5,424.1 126.2,424.1 126.2,259.9 	"/>
	<polygon id="steinbeck_00000165930104148485494230000006051237649693782402_" class="st8" points="71.2,375.1 71.2,423.9 
		53.5,423.9 53.5,526.4 126.2,526.4 126.2,375.1 	"/>
	
		<rect id="speccoll_00000137850164408263629490000012715964465260426419_" x="244.8" y="267.7" class="st8" width="128.4" height="88.8"/>
	<polygon id="Calif_room_00000023271605672200581950000002123627397740287138_" class="st8" points="502.7,331.9 502.7,326.5 
		458.6,326.5 458.6,256.2 373.1,256.2 373.1,424.7 459.1,424.7 	"/>
	<polyline id="aaacna_00000023266740077824117400000007128140173303493002_" class="st9" points="126.5,823.9 53.4,787.8 50,786.1 
		49.8,705.7 125,705.8 125.5,706.3 125.5,821.1 	"/>
	
		<rect id="schiro_room_00000180337923416800747870000005805015847887099050_" x="126.3" y="267.7" class="st10" width="97.6" height="89.2"/>
</g>
<g id="elevator">
	
		<rect x="374.3" y="428.6" transform="matrix(1.787259e-03 -1 1 1.787259e-03 -54.4261 819.6382)" class="st11" width="18.1" height="16.9"/>
	
		<rect x="374.2" y="453.4" transform="matrix(1.787259e-03 -1 1 1.787259e-03 -79.3247 844.3046)" class="st11" width="18.1" height="16.9"/>
	
		<rect x="374.1" y="502.8" transform="matrix(1.787259e-03 -1 1 1.787259e-03 -128.8411 893.5101)" class="st11" width="18.1" height="16.9"/>
	
		<rect x="374.4" y="527.6" transform="matrix(1.787259e-03 -1 1 1.787259e-03 -153.3397 918.5814)" class="st11" width="18.1" height="16.9"/>
	<line class="st12" x1="396.3" y1="425.4" x2="396.3" y2="553.7"/>
	<g>
		<g>
			<path class="st1" d="M379.2,473.1c-0.2-0.2-0.4-0.3-0.6-0.3s-0.5,0.1-0.6,0.3c-0.5,0.5-1.4,1.4-2.7,2.7c-0.4,0.4-0.4,1,0,1.3
				c0.3,0.3,0.9,0.3,1.2,0l1.1-1.1v3.5c0,0.5,0.4,0.9,0.9,0.9h0.1c0.5,0,0.9-0.4,0.9-0.9V476l1.1,1.1c0.3,0.3,0.9,0.3,1.2,0l0,0
				c0.3-0.3,0.3-0.9,0-1.2C380.5,474.4,379.8,473.7,379.2,473.1z"/>
			<path class="st1" d="M387,480.1c0.2,0.2,0.4,0.3,0.6,0.3s0.5-0.1,0.6-0.3c0.5-0.5,1.4-1.4,2.7-2.7c0.4-0.4,0.4-1,0-1.3
				c-0.3-0.3-0.9-0.3-1.2,0l-1.1,1.1v-3.5c0-0.5-0.4-0.9-0.9-0.9h-0.1c-0.5,0-0.9,0.4-0.9,0.9v3.5l-1.1-1.1c-0.3-0.3-0.9-0.3-1.2,0
				l0,0c-0.3,0.3-0.3,0.9,0,1.2C385.7,478.8,386.4,479.5,387,480.1z"/>
		</g>
		<g>
			<g>
				<path class="st1" d="M386.4,487.1c0.5,0,1-0.4,1-1c0-0.5-0.4-1-1-1c-0.5,0-1,0.4-1,1C385.5,486.6,385.9,487.1,386.4,487.1z"/>
				<path class="st1" d="M387.7,487.2h-2.4c-0.6,0-1,0.5-1,1v3c0,0.2,0.2,0.4,0.4,0.4c0.2,0,0.4-0.2,0.4-0.4v-2.6h0.2v3v4.1
					c0,0.3,0.2,0.6,0.6,0.6c0.3,0,0.6-0.2,0.6-0.6v-4.1h0.2v4.1c0,0.3,0.2,0.6,0.6,0.6c0.3,0,0.6-0.2,0.6-0.6v-4.1v-3h0.2v2.6
					c0,0.2,0.2,0.4,0.4,0.4c0.2,0,0.4-0.2,0.4-0.4v-3C388.7,487.7,388.2,487.2,387.7,487.2z"/>
			</g>
			<path class="st1" d="M380.2,487.1c0.5,0,1-0.4,1-1c0-0.5-0.4-1-1-1c-0.5,0-1,0.4-1,1C379.2,486.6,379.6,487.1,380.2,487.1z"/>
			<path class="st1" d="M382.8,490.8L382,488c-0.2-0.5-0.6-0.7-1.2-0.7l0,0h-1.3l0,0c-0.6,0-1,0.2-1.2,0.7l-0.8,2.8
				c-0.1,0.2,0.1,0.4,0.3,0.4c0.2,0.1,0.4,0,0.5-0.2l0.7-2.5h0.2l-1.2,4.3h1.2v3c0,0.3,0.2,0.5,0.5,0.5s0.5-0.2,0.5-0.5v-3h0.2v3
				c0,0.3,0.2,0.5,0.5,0.5s0.5-0.2,0.5-0.5v-3h1.2l-1.2-4.3h0.2l0.7,2.5c0.1,0.2,0.3,0.3,0.5,0.2
				C382.7,491.1,382.8,490.9,382.8,490.8z"/>
		</g>
		<g>
			<path class="st1" d="M389.3,499.7h-12.4c-2.5,0-4.6-2.6-4.6-5.7v-6.5c0-3.2,2.1-5.7,4.6-5.7h12.3c2.5,0,4.6,2.6,4.6,5.7v6.5
				C393.8,497.1,391.8,499.7,389.3,499.7z M376.9,483.8c-1.6,0-2.9,1.6-2.9,3.6v6.5c0,2,1.3,3.6,2.9,3.6h12.3c1.6,0,2.9-1.6,2.9-3.6
				v-6.5c0-2-1.3-3.6-2.9-3.6H376.9z"/>
		</g>
	</g>
</g>
<g id="stairs_00000032626799022009418030000006004862700355200132_">
	<g>
		<path class="st1" d="M406.6,527.2c1.1,0,2.1-0.9,2.1-2.1c0-1.1-0.9-2.1-2.1-2.1c-1.1,0-2.1,0.9-2.1,2.1
			C404.6,526.3,405.5,527.2,406.6,527.2z"/>
		<path class="st1" d="M402.9,533.7c0.7,0,1.2-0.4,1.2-1.1v-1.3l0.7-0.4v3.3v0.7l-2,7.7c-0.2,0.6,0.2,1.2,0.8,1.3
			c0.7,0.2,1.3-0.1,1.6-0.8l1.8-7.1h1.8v2.3c0,0.7,0.6,1.1,1.2,1.1s1.2-0.4,1.2-1.1v-3.4c0-0.7-0.6-1.1-1.2-1.1l0,0l0,0h-2.7v-2.1
			l0.7,0.7c0.2,0.2,0.6,0.4,1,0.4l0,0h2.2c0.7,0,1.2-0.4,1.2-1.1s-0.6-1.1-1.2-1.1h-1.8l-2.2-2.4l-0.1-0.1c-0.1-0.1-0.2-0.3-0.4-0.4
			l0,0h-0.1l0,0h-0.1l0,0c0,0,0,0-0.1,0l0,0c0,0,0,0-0.1,0l0,0c0,0,0,0-0.1,0l0,0l0,0l0,0c0,0,0,0-0.1,0c0,0,0,0-0.1,0l0,0
			c0,0,0,0-0.1,0l0,0c0,0,0,0-0.1,0l0,0c0,0,0,0-0.1,0l0,0c0,0,0,0-0.1,0l0,0c0,0,0,0-0.1,0l0,0l-3.1,2.2c-0.3,0.2-0.4,0.6-0.4,0.9
			l0,0v1.9C401.6,533.3,402.1,533.7,402.9,533.7z"/>
		<path class="st1" d="M425.6,529.9H420c-0.2,0-0.3,0.2-0.4,0.4v5.2h-5.2c-0.2,0-0.3,0.2-0.4,0.4v5.6h-5.4c-0.2,0-0.3,0.2-0.4,0.4
			v5.1H403c-0.2,0-0.3,0.2-0.4,0.4v4.9c0,0.2,0.2,0.3,0.4,0.4h22.8c0.2,0,0.3-0.2,0.4-0.4l-0.1-22C426,530.2,425.9,530,425.6,529.9z
			"/>
	</g>
</g>
<polygon id="atrium" class="st13" points="225.2,422.1 301.7,421.8 301.3,498.7 224.7,499 "/>
<g id="restroom_00000093154083196299017300000003324237930340482739_">
	<rect x="386.4" y="577.9" class="st14" width="68.6" height="68.6"/>
	<g>
		<g>
			<path class="st15" d="M411.5,602.6c1.2,0,2.1-0.9,2.1-2.1c0-1.2-0.9-2.1-2.1-2.1s-2.1,0.9-2.1,2.1
				C409.3,601.7,410.4,602.6,411.5,602.6z"/>
			<path class="st15" d="M414.3,603.2h-5.5c-1.3,0-2.4,1-2.4,2.4v6.7c0,0.5,0.4,0.9,0.9,0.9s0.9-0.4,0.9-0.9v-5.9h0.5v6.8v9.2
				c0,0.7,0.5,1.2,1.2,1.2s1.2-0.5,1.2-1.2v-9.2h0.5v9.2c0,0.7,0.5,1.2,1.2,1.2s1.2-0.5,1.2-1.2v-9.2v-6.8h0.5v5.9
				c0,0.5,0.4,0.9,0.9,0.9s0.9-0.4,0.9-0.9v-6.7C416.7,604.2,415.6,603.2,414.3,603.2z"/>
		</g>
		<g>
			<path class="st15" d="M432.9,602.6c1.2,0,2.1-0.9,2.1-2.1c0-1.2-0.9-2.1-2.1-2.1s-2.1,0.9-2.1,2.1
				C430.7,601.7,431.7,602.6,432.9,602.6z"/>
			<path class="st15" d="M438.6,611l-1.8-6.3c-0.4-1.2-1.3-1.6-2.6-1.6l0,0h-2.9l0,0c-1.3,0-2.1,0.4-2.6,1.6l-1.8,6.3
				c-0.1,0.4,0.1,0.8,0.7,0.9c0.4,0.1,0.9-0.1,1-0.5l1.6-5.5h0.4l-2.7,9.6h2.6v6.8c0,0.5,0.5,1,1,1s1-0.5,1-1v-6.8h0.5v6.8
				c0,0.5,0.5,1,1,1s1-0.5,1-1v-6.8h2.6l-2.7-9.6h0.4l1.6,5.5c0.1,0.4,0.5,0.7,1,0.5C438.5,611.8,438.8,611.4,438.6,611z"/>
		</g>
	</g>
	<rect x="421.5" y="598.4" class="st15" width="2.4" height="24.9"/>
</g>
<g id="stacks">
	<rect x="149.8" y="416.5" class="st16" width="50.3" height="102.5"/>
	<rect x="149.8" y="724.2" class="st16" width="50.3" height="91.2"/>
	<rect x="149.8" y="601.3" class="st16" width="50.3" height="39.6"/>
	<rect x="312.2" y="564.1" class="st16" width="50.3" height="91.2"/>
	<rect x="312.2" y="671" class="st16" width="50.3" height="52.6"/>
	<rect x="377.2" y="670.7" class="st16" width="55.3" height="77.7"/>
	<circle class="st16" cx="430.6" cy="771.6" r="15.5"/>
</g>
<g id="floor_outline">
	<line class="st17" x1="503.4" y1="330.3" x2="458" y2="424.7"/>
	<line class="st17" x1="4.1" y1="424.5" x2="53" y2="322.8"/>
	<line class="st17" x1="458.4" y1="817.2" x2="296.4" y2="739.7"/>
	<line class="st17" x1="52" y1="785.6" x2="218.6" y2="865.7"/>
	<line class="st17" x1="52.6" y1="96.6" x2="215.6" y2="95.7"/>
	<line class="st17" x1="458.5" y1="2.1" x2="295.3" y2="95.3"/>
	<line class="st17" x1="457.9" y1="328.5" x2="458.5" y2="2.1"/>
	<line class="st17" x1="502.4" y1="328.7" x2="457.9" y2="328.5"/>
	<line class="st17" x1="293.7" y1="42.7" x2="216.4" y2="95.6"/>
	<line class="st17" x1="294.6" y1="96" x2="293.7" y2="42.7"/>
	<line class="st17" x1="53.4" y1="96.7" x2="53" y2="322.8"/>
	<path class="st17" d="M457.6,425.5"/>
	<line class="st17" x1="458.4" y1="817.2" x2="457.3" y2="517.9"/>
	<line class="st17" x1="219.4" y1="739.7" x2="218.6" y2="865.7"/>
	<line class="st17" x1="51.7" y1="424.7" x2="3.6" y2="425.5"/>
	<line class="st17" x1="52" y1="785.6" x2="51.7" y2="424.7"/>
	<path class="st18" d="M457.6,425.5"/>
	<path class="st18" d="M457.3,517.9"/>
	<line class="st17" x1="220" y1="739.3" x2="296" y2="739.7"/>
	<g>
		<line class="st18" x1="397.3" y1="424.8" x2="457.1" y2="424.8"/>
		<line class="st18" x1="397.2" y1="517.2" x2="397.3" y2="425.1"/>
		<line class="st18" x1="397.2" y1="517.9" x2="457.3" y2="517.9"/>
	</g>
</g>
<g id="Text">
	<text transform="matrix(1 0 0 1 49.941 354.1148)" class="st19 st20">Beethoven</text>
	<text transform="matrix(1 0 0 1 76.4357 368.1148)" class="st19 st20">Center</text>
	<text transform="matrix(1 0 0 1 55.7931 504.9762)" class="st19 st20">Steinbeck</text>
	<text transform="matrix(1 0 0 1 76.4355 518.9762)" class="st19 st20">Center</text>
	<text transform="matrix(1 0 0 1 174.9376 334.3898)" class="st19 st20">Schiro</text>
	<text transform="matrix(1 0 0 1 176.4376 350.3898)" class="st19 st20">Room</text>
	<text transform="matrix(1 0 0 1 250.8554 316.3896)" class="st19 st20">Special</text>
	<text transform="matrix(1 0 0 1 250.856 333.3896)" class="st19 st20">Collections</text>
	<text transform="matrix(1 0 0 1 250.8558 350.3896)" class="st19 st20">&amp; Archives</text>
	<text transform="matrix(1 0 0 1 379.4246 369.5657)" class="st19 st20">California</text>
	<text transform="matrix(1 0 0 1 379.4241 385.5657)" class="st19 st20">Room</text>
	<text transform="matrix(1 0 0 1 58.0678 725.0766)" class="st19 st20">AAACNA</text>
	<text transform="matrix(1 0 0 1 78.3221 743.0766)" class="st19 st20">Room</text>
</g>
<g id="Emergency_exits_00000064331109182709213450000007219017612537299118_">
	<g>
		<g>
			<path class="st21" d="M459.8,548.7l-7.2-2.5c-0.4-0.1-0.9,0.2-0.9,0.7v2h-7c-0.3,0-0.5,0.2-0.5,0.5v2.2c0.4,0.1,0.8,0.2,1.1,0.3
				v-2h6.4v21.9h-4.3l0.1,0.3c0.1,0.3,0.1,0.5,0.1,0.9h4.1v2c0,0.4,0.4,0.8,0.9,0.7l7.2-2.5c0.3-0.1,0.4-0.3,0.4-0.7v-23.1
				C460.2,549,460,548.8,459.8,548.7z"/>
			<path class="st21" d="M433.6,570.8h4.6c0.7,0,1.1-0.4,1.3-1l0.4-1.9l-2.2-1.9c0,0,0,0-0.1-0.1l-0.5,2h-3.5
				c-0.8,0-1.4,0.7-1.4,1.4C432.3,570.3,432.8,570.8,433.6,570.8z"/>
			<path class="st21" d="M444.2,557.6c1.3-0.3,2.1-1.5,1.8-2.9c-0.3-1.3-1.5-2.1-2.9-1.8c-1.3,0.3-2.1,1.5-1.8,2.9
				C441.7,557.1,442.9,557.9,444.2,557.6z"/>
			<path class="st21" d="M435.4,563.4c0.5,0.2,1.2,0,1.5-0.5l0.9-2.1l1.3-0.4l-1,3.9c-0.1,0.5,0.1,1.1,0.4,1.4l3.8,3.2l1,4.2
				c0.1,0.7,0.8,1,1.3,1c0.1,0,0.2,0,0.3,0c0.8-0.2,1.2-0.9,1-1.6l-1.1-4.6c-0.1-0.3-0.2-0.5-0.4-0.8l-2.4-2l1.3-3.4l1.3,1.5
				c0.2,0.2,0.5,0.4,0.9,0.4c0.2,0,0.4-0.1,0.5-0.2l2.3-1.4c0.5-0.3,0.8-1,0.4-1.5c-0.3-0.5-1-0.8-1.5-0.4l-1.5,0.9l-1.2-1.4
				c-0.3-0.3-0.8-0.7-1.2-0.9l-2.1-0.8c-0.7-0.2-1.3-0.2-1.9,0l-2.6,0.9c-0.3,0.1-0.5,0.3-0.7,0.7l-1.1,2.5
				C434.6,562.5,434.8,563.2,435.4,563.4z"/>
		</g>
	</g>
	<g>
		<g>
			<path class="st22" d="M459.8,548.7l-7.2-2.5c-0.4-0.1-0.9,0.2-0.9,0.7v2h-7c-0.3,0-0.5,0.2-0.5,0.5v2.2c0.4,0.1,0.8,0.2,1.1,0.3
				v-2h6.4v21.9h-4.3l0.1,0.3c0.1,0.3,0.1,0.5,0.1,0.9h4.1v2c0,0.4,0.4,0.8,0.9,0.7l7.2-2.5c0.3-0.1,0.4-0.3,0.4-0.7v-23.1
				C460.2,549,460,548.8,459.8,548.7z"/>
			<path class="st22" d="M433.6,570.8h4.6c0.7,0,1.1-0.4,1.3-1l0.4-1.9l-2.2-1.9c0,0,0,0-0.1-0.1l-0.5,2h-3.5
				c-0.8,0-1.4,0.7-1.4,1.4C432.3,570.3,432.8,570.8,433.6,570.8z"/>
			<path class="st22" d="M444.2,557.6c1.3-0.3,2.1-1.5,1.8-2.9c-0.3-1.3-1.5-2.1-2.9-1.8c-1.3,0.3-2.1,1.5-1.8,2.9
				C441.7,557.1,442.9,557.9,444.2,557.6z"/>
			<path class="st22" d="M435.4,563.4c0.5,0.2,1.2,0,1.5-0.5l0.9-2.1l1.3-0.4l-1,3.9c-0.1,0.5,0.1,1.1,0.4,1.4l3.8,3.2l1,4.2
				c0.1,0.7,0.8,1,1.3,1c0.1,0,0.2,0,0.3,0c0.8-0.2,1.2-0.9,1-1.6l-1.1-4.6c-0.1-0.3-0.2-0.5-0.4-0.8l-2.4-2l1.3-3.4l1.3,1.5
				c0.2,0.2,0.5,0.4,0.9,0.4c0.2,0,0.4-0.1,0.5-0.2l2.3-1.4c0.5-0.3,0.8-1,0.4-1.5c-0.3-0.5-1-0.8-1.5-0.4l-1.5,0.9l-1.2-1.4
				c-0.3-0.3-0.8-0.7-1.2-0.9l-2.1-0.8c-0.7-0.2-1.3-0.2-1.9,0l-2.6,0.9c-0.3,0.1-0.5,0.3-0.7,0.7l-1.1,2.5
				C434.6,562.5,434.8,563.2,435.4,563.4z"/>
		</g>
	</g>
	<g>
		<g>
			<path class="st21" d="M48.8,644.8l7.2-2.5c0.4-0.1,0.9,0.2,0.9,0.7v2h7c0.3,0,0.5,0.2,0.5,0.5v2.2c-0.4,0.1-0.8,0.2-1.1,0.3v-2
				H57V668h4.3l-0.1,0.3c-0.1,0.3-0.1,0.5-0.1,0.9H57v2c0,0.4-0.4,0.8-0.9,0.7l-7.2-2.5c-0.3-0.1-0.4-0.3-0.4-0.7v-23.1
				C48.4,645.1,48.6,644.9,48.8,644.8z"/>
			<path class="st21" d="M75,667h-4.6c-0.7,0-1.1-0.4-1.3-1l-0.4-1.9l2.2-1.9c0,0,0,0,0.1-0.1l0.5,2H75c0.8,0,1.4,0.7,1.4,1.4
				C76.4,666.4,75.8,667,75,667z"/>
			<path class="st21" d="M64.5,653.7c-1.3-0.3-2.1-1.5-1.8-2.9s1.5-2.1,2.9-1.8c1.3,0.3,2.1,1.5,1.8,2.9S65.7,654,64.5,653.7z"/>
			<path class="st21" d="M73.3,659.5c-0.5,0.2-1.2,0-1.5-0.5l-0.9-2.1l-1.3-0.4l1,3.9c0.1,0.5-0.1,1.1-0.4,1.4l-3.8,3.2l-1,4.2
				c-0.1,0.7-0.8,1-1.3,1c-0.1,0-0.2,0-0.3,0c-0.8-0.2-1.2-0.9-1-1.6l1.1-4.6c0.1-0.3,0.2-0.5,0.4-0.8l2.4-2l-1.3-3.4l-1.3,1.5
				c-0.2,0.2-0.5,0.4-0.9,0.4c-0.2,0-0.4-0.1-0.5-0.2l-2.3-1.4c-0.5-0.3-0.8-1-0.4-1.5c0.3-0.5,1-0.8,1.5-0.4l1.5,0.9l1.2-1.4
				c0.3-0.3,0.8-0.7,1.2-0.9l2.1-0.8c0.7-0.2,1.3-0.2,1.9,0l2.6,0.9c0.3,0.1,0.5,0.3,0.7,0.7l1.1,2.5
				C74,658.6,73.8,659.3,73.3,659.5z"/>
		</g>
	</g>
	<g>
		<g>
			<path class="st22" d="M48.8,644.8l7.2-2.5c0.4-0.1,0.9,0.2,0.9,0.7v2h7c0.3,0,0.5,0.2,0.5,0.5v2.2c-0.4,0.1-0.8,0.2-1.1,0.3v-2
				H57V668h4.3l-0.1,0.3c-0.1,0.3-0.1,0.5-0.1,0.9H57v2c0,0.4-0.4,0.8-0.9,0.7l-7.2-2.5c-0.3-0.1-0.4-0.3-0.4-0.7v-23.1
				C48.4,645.1,48.6,644.9,48.8,644.8z"/>
			<path class="st22" d="M75,667h-4.6c-0.7,0-1.1-0.4-1.3-1l-0.4-1.9l2.2-1.9c0,0,0,0,0.1-0.1l0.5,2H75c0.8,0,1.4,0.7,1.4,1.4
				C76.4,666.4,75.8,667,75,667z"/>
			<path class="st22" d="M64.5,653.7c-1.3-0.3-2.1-1.5-1.8-2.9s1.5-2.1,2.9-1.8c1.3,0.3,2.1,1.5,1.8,2.9S65.7,654,64.5,653.7z"/>
			<path class="st22" d="M73.3,659.5c-0.5,0.2-1.2,0-1.5-0.5l-0.9-2.1l-1.3-0.4l1,3.9c0.1,0.5-0.1,1.1-0.4,1.4l-3.8,3.2l-1,4.2
				c-0.1,0.7-0.8,1-1.3,1c-0.1,0-0.2,0-0.3,0c-0.8-0.2-1.2-0.9-1-1.6l1.1-4.6c0.1-0.3,0.2-0.5,0.4-0.8l2.4-2l-1.3-3.4l-1.3,1.5
				c-0.2,0.2-0.5,0.4-0.9,0.4c-0.2,0-0.4-0.1-0.5-0.2l-2.3-1.4c-0.5-0.3-0.8-1-0.4-1.5c0.3-0.5,1-0.8,1.5-0.4l1.5,0.9l1.2-1.4
				c0.3-0.3,0.8-0.7,1.2-0.9l2.1-0.8c0.7-0.2,1.3-0.2,1.9,0l2.6,0.9c0.3,0.1,0.5,0.3,0.7,0.7l1.1,2.5
				C74,658.6,73.8,659.3,73.3,659.5z"/>
		</g>
	</g>
</g>
</svg>
