<?xml version="1.0" encoding="utf-8"?>
<!-- Generator: Adobe Illustrator 28.1.0, SVG Export Plug-In . SVG Version: 6.00 Build 0)  -->
<svg version="1.1" id="Layer_1" xmlns="http://www.w3.org/2000/svg" xmlns:xlink="http://www.w3.org/1999/xlink" x="0px" y="0px"
	 viewBox="0 0 505.8 869.6" style="enable-background:new 0 0 505.8 869.6;" xml:space="preserve">
<style type="text/css">
	.st0{fill:none;}
	.st1{fill:#231F20;}
	.st2{opacity:0.45;fill:url(#SVGID_1_);enable-background:new    ;}
	
		.st3{opacity:0.45;fill:url(#SVGID_00000047778120363740080710000016577955200921828484_);stroke:#CBCCCE;stroke-linecap:round;stroke-linejoin:round;enable-background:new    ;}
	
		.st4{opacity:0.45;fill:url(#SVGID_00000157277341361576196140000000539018993034608313_);stroke:#CBCCCE;stroke-linecap:round;stroke-linejoin:round;enable-background:new    ;}
	
		.st5{opacity:0.45;fill:url(#SVGID_00000067208944566735683540000002847017713167023535_);stroke:#CBCCCE;stroke-linecap:round;stroke-linejoin:round;enable-background:new    ;}
	.st6{fill:none;stroke:#010101;stroke-width:2;stroke-linecap:round;stroke-linejoin:round;}
	.st7{opacity:0.5;}
	.st8{fill:#995522;stroke:#FFFFFF;stroke-miterlimit:10;}
	.st9{fill:#3F417F;}
	.st10{fill:#3F417F;stroke:#FFFFFF;stroke-miterlimit:10;}
	.st11{fill:#E4F0F9;}
	.st12{opacity:0.5;fill:#1A4363;}
	.st13{fill:none;stroke:#010101;stroke-width:4;stroke-miterlimit:10;}
	.st14{fill:#FFFFFF;stroke:#000000;stroke-miterlimit:10;}
	.st15{fill:none;stroke:#010101;stroke-width:4;stroke-linecap:round;stroke-linejoin:round;}
	.st16{fill:#0073A0;}
	.st17{fill:#FFFFFF;}
	.st18{fill:#EBCA74;}
	.st19{fill:none;stroke:#221F1F;stroke-width:6;stroke-linecap:round;stroke-linejoin:round;}
	.st20{fill:none;stroke:#231F20;stroke-width:6;stroke-linecap:round;stroke-linejoin:round;}
	.st21{font-family:'ArialMT';}
	.st22{font-size:15px;}
	.st23{font-size:14px;}
</style>
<pattern  y="869.6" width="28.8" height="28.8" patternUnits="userSpaceOnUse" id="SVGID_0000000379779774990326355" viewBox="1.4 -30.2 28.8 28.8" style="overflow:visible;">
	<g>
		<rect x="1.4" y="-30.2" class="st0" width="28.8" height="28.8"/>
		<g>
			<rect x="1.4" y="-30.2" class="st0" width="28.8" height="28.8"/>
			<g>
				<rect x="1.4" y="-30.2" class="st0" width="28.8" height="28.8"/>
				<g>
					<rect x="1.4" y="-30.2" class="st0" width="28.8" height="28.8"/>
					<g>
						<rect x="1.4" y="-30.2" class="st0" width="28.8" height="28.8"/>
						<g>
							<path class="st1" d="M30.2,0c0.8,0,1.4-0.6,1.4-1.4S31-2.8,30.2-2.8s-1.4,0.6-1.4,1.4C28.8-0.6,29.4,0,30.2,0z"/>
							<path class="st1" d="M15.8,0c0.8,0,1.4-0.6,1.4-1.4s-0.6-1.4-1.4-1.4c-0.8,0-1.4,0.6-1.4,1.4C14.4-0.6,15,0,15.8,0z"/>
							<path class="st1" d="M30.2-14.4c0.8,0,1.4-0.6,1.4-1.4s-0.6-1.4-1.4-1.4s-1.4,0.6-1.4,1.4C28.8-15,29.4-14.4,30.2-14.4z"/>
							<path class="st1" d="M15.8-14.4c0.8,0,1.4-0.6,1.4-1.4s-0.6-1.4-1.4-1.4c-0.8,0-1.4,0.6-1.4,1.4C14.4-15,15-14.4,15.8-14.4z"
								/>
							<path class="st1" d="M8.6-7.2c0.8,0,1.4-0.6,1.4-1.4S9.4-10,8.6-10c-0.8,0-1.4,0.6-1.4,1.4C7.2-7.8,7.8-7.2,8.6-7.2z"/>
							<path class="st1" d="M23-7.2c0.8,0,1.4-0.6,1.4-1.4S23.8-10,23-10s-1.4,0.6-1.4,1.4S22.2-7.2,23-7.2z"/>
							<path class="st1" d="M8.6-21.6c0.8,0,1.4-0.6,1.4-1.4s-0.6-1.4-1.4-1.4c-0.8,0-1.4,0.6-1.4,1.4C7.2-22.2,7.8-21.6,8.6-21.6z"
								/>
							<path class="st1" d="M23-21.6c0.8,0,1.4-0.6,1.4-1.4s-0.6-1.4-1.4-1.4s-1.4,0.6-1.4,1.4C21.6-22.2,22.2-21.6,23-21.6z"/>
						</g>
						<g>
							<path class="st1" d="M1.4,0c0.8,0,1.4-0.6,1.4-1.4S2.2-2.8,1.4-2.8C0.6-2.9,0-2.2,0-1.4C0-0.6,0.6,0,1.4,0z"/>
							<path class="st1" d="M1.4-14.4c0.8,0,1.4-0.6,1.4-1.4s-0.6-1.4-1.4-1.4S0-16.6,0-15.8S0.6-14.4,1.4-14.4z"/>
						</g>
						<g>
							<path class="st1" d="M30.2-28.8c0.8,0,1.4-0.6,1.4-1.4s-0.6-1.4-1.4-1.4s-1.4,0.6-1.4,1.4C28.8-29.4,29.4-28.8,30.2-28.8z"/>
							<path class="st1" d="M15.8-28.8c0.8,0,1.4-0.6,1.4-1.4s-0.6-1.4-1.4-1.4s-1.4,0.6-1.4,1.4C14.4-29.4,15-28.8,15.8-28.8z"/>
						</g>
						<g>
							<path class="st1" d="M1.4-28.8c0.8,0,1.4-0.6,1.4-1.4s-0.6-1.4-1.4-1.4C0.6-31.7,0-31,0-30.2C0-29.4,0.6-28.8,1.4-28.8z"/>
						</g>
					</g>
				</g>
			</g>
		</g>
	</g>
</pattern>
<pattern  y="869.6" width="28.8" height="28.8" patternUnits="userSpaceOnUse" id="SVGID_0000005930130126505170536" viewBox="1.4 -30.2 28.8 28.8" style="overflow:visible;">
	<g>
		<rect x="1.4" y="-30.2" class="st0" width="28.8" height="28.8"/>
		<g>
			<rect x="1.4" y="-30.2" class="st0" width="28.8" height="28.8"/>
			<g>
				<rect x="1.4" y="-30.2" class="st0" width="28.8" height="28.8"/>
				<g>
					<rect x="1.4" y="-30.2" class="st0" width="28.8" height="28.8"/>
					<g>
						<rect x="1.4" y="-30.2" class="st0" width="28.8" height="28.8"/>
						<g>
							<path class="st1" d="M30.2,0c0.8,0,1.4-0.6,1.4-1.4S31-2.8,30.2-2.8s-1.4,0.6-1.4,1.4C28.8-0.6,29.4,0,30.2,0z"/>
							<path class="st1" d="M15.8,0c0.8,0,1.4-0.6,1.4-1.4s-0.6-1.4-1.4-1.4c-0.8,0-1.4,0.6-1.4,1.4C14.4-0.6,15,0,15.8,0z"/>
							<path class="st1" d="M30.2-14.4c0.8,0,1.4-0.6,1.4-1.4s-0.6-1.4-1.4-1.4s-1.4,0.6-1.4,1.4C28.8-15,29.4-14.4,30.2-14.4z"/>
							<path class="st1" d="M15.8-14.4c0.8,0,1.4-0.6,1.4-1.4s-0.6-1.4-1.4-1.4c-0.8,0-1.4,0.6-1.4,1.4C14.4-15,15-14.4,15.8-14.4z"
								/>
							<path class="st1" d="M8.6-7.2c0.8,0,1.4-0.6,1.4-1.4S9.4-10,8.6-10c-0.8,0-1.4,0.6-1.4,1.4C7.2-7.8,7.8-7.2,8.6-7.2z"/>
							<path class="st1" d="M23-7.2c0.8,0,1.4-0.6,1.4-1.4S23.8-10,23-10s-1.4,0.6-1.4,1.4S22.2-7.2,23-7.2z"/>
							<path class="st1" d="M8.6-21.6c0.8,0,1.4-0.6,1.4-1.4s-0.6-1.4-1.4-1.4c-0.8,0-1.4,0.6-1.4,1.4C7.2-22.2,7.8-21.6,8.6-21.6z"
								/>
							<path class="st1" d="M23-21.6c0.8,0,1.4-0.6,1.4-1.4s-0.6-1.4-1.4-1.4s-1.4,0.6-1.4,1.4C21.6-22.2,22.2-21.6,23-21.6z"/>
						</g>
						<g>
							<path class="st1" d="M1.4,0c0.8,0,1.4-0.6,1.4-1.4S2.2-2.8,1.4-2.8C0.6-2.9,0-2.2,0-1.4C0-0.6,0.6,0,1.4,0z"/>
							<path class="st1" d="M1.4-14.4c0.8,0,1.4-0.6,1.4-1.4s-0.6-1.4-1.4-1.4S0-16.6,0-15.8S0.6-14.4,1.4-14.4z"/>
						</g>
						<g>
							<path class="st1" d="M30.2-28.8c0.8,0,1.4-0.6,1.4-1.4s-0.6-1.4-1.4-1.4s-1.4,0.6-1.4,1.4C28.8-29.4,29.4-28.8,30.2-28.8z"/>
							<path class="st1" d="M15.8-28.8c0.8,0,1.4-0.6,1.4-1.4s-0.6-1.4-1.4-1.4s-1.4,0.6-1.4,1.4C14.4-29.4,15-28.8,15.8-28.8z"/>
						</g>
						<g>
							<path class="st1" d="M1.4-28.8c0.8,0,1.4-0.6,1.4-1.4s-0.6-1.4-1.4-1.4C0.6-31.7,0-31,0-30.2C0-29.4,0.6-28.8,1.4-28.8z"/>
						</g>
					</g>
				</g>
			</g>
		</g>
	</g>
</pattern>
<pattern  y="869.6" width="28.8" height="28.8" patternUnits="userSpaceOnUse" id="SVGID_0000008452796110875744464" viewBox="1.4 -30.2 28.8 28.8" style="overflow:visible;">
	<g>
		<rect x="1.4" y="-30.2" class="st0" width="28.8" height="28.8"/>
		<g>
			<rect x="1.4" y="-30.2" class="st0" width="28.8" height="28.8"/>
			<g>
				<rect x="1.4" y="-30.2" class="st0" width="28.8" height="28.8"/>
				<g>
					<rect x="1.4" y="-30.2" class="st0" width="28.8" height="28.8"/>
					<g>
						<rect x="1.4" y="-30.2" class="st0" width="28.8" height="28.8"/>
						<g>
							<path class="st1" d="M30.2,0c0.8,0,1.4-0.6,1.4-1.4S31-2.8,30.2-2.8s-1.4,0.6-1.4,1.4C28.8-0.6,29.4,0,30.2,0z"/>
							<path class="st1" d="M15.8,0c0.8,0,1.4-0.6,1.4-1.4s-0.6-1.4-1.4-1.4c-0.8,0-1.4,0.6-1.4,1.4C14.4-0.6,15,0,15.8,0z"/>
							<path class="st1" d="M30.2-14.4c0.8,0,1.4-0.6,1.4-1.4s-0.6-1.4-1.4-1.4s-1.4,0.6-1.4,1.4C28.8-15,29.4-14.4,30.2-14.4z"/>
							<path class="st1" d="M15.8-14.4c0.8,0,1.4-0.6,1.4-1.4s-0.6-1.4-1.4-1.4c-0.8,0-1.4,0.6-1.4,1.4C14.4-15,15-14.4,15.8-14.4z"
								/>
							<path class="st1" d="M8.6-7.2c0.8,0,1.4-0.6,1.4-1.4S9.4-10,8.6-10c-0.8,0-1.4,0.6-1.4,1.4C7.2-7.8,7.8-7.2,8.6-7.2z"/>
							<path class="st1" d="M23-7.2c0.8,0,1.4-0.6,1.4-1.4S23.8-10,23-10s-1.4,0.6-1.4,1.4S22.2-7.2,23-7.2z"/>
							<path class="st1" d="M8.6-21.6c0.8,0,1.4-0.6,1.4-1.4s-0.6-1.4-1.4-1.4c-0.8,0-1.4,0.6-1.4,1.4C7.2-22.2,7.8-21.6,8.6-21.6z"
								/>
							<path class="st1" d="M23-21.6c0.8,0,1.4-0.6,1.4-1.4s-0.6-1.4-1.4-1.4s-1.4,0.6-1.4,1.4C21.6-22.2,22.2-21.6,23-21.6z"/>
						</g>
						<g>
							<path class="st1" d="M1.4,0c0.8,0,1.4-0.6,1.4-1.4S2.2-2.8,1.4-2.8C0.6-2.9,0-2.2,0-1.4C0-0.6,0.6,0,1.4,0z"/>
							<path class="st1" d="M1.4-14.4c0.8,0,1.4-0.6,1.4-1.4s-0.6-1.4-1.4-1.4S0-16.6,0-15.8S0.6-14.4,1.4-14.4z"/>
						</g>
						<g>
							<path class="st1" d="M30.2-28.8c0.8,0,1.4-0.6,1.4-1.4s-0.6-1.4-1.4-1.4s-1.4,0.6-1.4,1.4C28.8-29.4,29.4-28.8,30.2-28.8z"/>
							<path class="st1" d="M15.8-28.8c0.8,0,1.4-0.6,1.4-1.4s-0.6-1.4-1.4-1.4s-1.4,0.6-1.4,1.4C14.4-29.4,15-28.8,15.8-28.8z"/>
						</g>
						<g>
							<path class="st1" d="M1.4-28.8c0.8,0,1.4-0.6,1.4-1.4s-0.6-1.4-1.4-1.4C0.6-31.7,0-31,0-30.2C0-29.4,0.6-28.8,1.4-28.8z"/>
						</g>
					</g>
				</g>
			</g>
		</g>
	</g>
</pattern>
<pattern  y="869.6" width="28.8" height="28.8" patternUnits="userSpaceOnUse" id="SVGID_0000012776636725617330937" viewBox="1.4 -30.2 28.8 28.8" style="overflow:visible;">
	<g>
		<rect x="1.4" y="-30.2" class="st0" width="28.8" height="28.8"/>
		<g>
			<rect x="1.4" y="-30.2" class="st0" width="28.8" height="28.8"/>
			<g>
				<rect x="1.4" y="-30.2" class="st0" width="28.8" height="28.8"/>
				<g>
					<rect x="1.4" y="-30.2" class="st0" width="28.8" height="28.8"/>
					<g>
						<rect x="1.4" y="-30.2" class="st0" width="28.8" height="28.8"/>
						<g>
							<path class="st1" d="M30.2,0c0.8,0,1.4-0.6,1.4-1.4S31-2.8,30.2-2.8s-1.4,0.6-1.4,1.4C28.8-0.6,29.4,0,30.2,0z"/>
							<path class="st1" d="M15.8,0c0.8,0,1.4-0.6,1.4-1.4s-0.6-1.4-1.4-1.4c-0.8,0-1.4,0.6-1.4,1.4C14.4-0.6,15,0,15.8,0z"/>
							<path class="st1" d="M30.2-14.4c0.8,0,1.4-0.6,1.4-1.4s-0.6-1.4-1.4-1.4s-1.4,0.6-1.4,1.4C28.8-15,29.4-14.4,30.2-14.4z"/>
							<path class="st1" d="M15.8-14.4c0.8,0,1.4-0.6,1.4-1.4s-0.6-1.4-1.4-1.4c-0.8,0-1.4,0.6-1.4,1.4C14.4-15,15-14.4,15.8-14.4z"
								/>
							<path class="st1" d="M8.6-7.2c0.8,0,1.4-0.6,1.4-1.4S9.4-10,8.6-10c-0.8,0-1.4,0.6-1.4,1.4C7.2-7.8,7.8-7.2,8.6-7.2z"/>
							<path class="st1" d="M23-7.2c0.8,0,1.4-0.6,1.4-1.4S23.8-10,23-10s-1.4,0.6-1.4,1.4S22.2-7.2,23-7.2z"/>
							<path class="st1" d="M8.6-21.6c0.8,0,1.4-0.6,1.4-1.4s-0.6-1.4-1.4-1.4c-0.8,0-1.4,0.6-1.4,1.4C7.2-22.2,7.8-21.6,8.6-21.6z"
								/>
							<path class="st1" d="M23-21.6c0.8,0,1.4-0.6,1.4-1.4s-0.6-1.4-1.4-1.4s-1.4,0.6-1.4,1.4C21.6-22.2,22.2-21.6,23-21.6z"/>
						</g>
						<g>
							<path class="st1" d="M1.4,0c0.8,0,1.4-0.6,1.4-1.4S2.2-2.8,1.4-2.8C0.6-2.9,0-2.2,0-1.4C0-0.6,0.6,0,1.4,0z"/>
							<path class="st1" d="M1.4-14.4c0.8,0,1.4-0.6,1.4-1.4s-0.6-1.4-1.4-1.4S0-16.6,0-15.8S0.6-14.4,1.4-14.4z"/>
						</g>
						<g>
							<path class="st1" d="M30.2-28.8c0.8,0,1.4-0.6,1.4-1.4s-0.6-1.4-1.4-1.4s-1.4,0.6-1.4,1.4C28.8-29.4,29.4-28.8,30.2-28.8z"/>
							<path class="st1" d="M15.8-28.8c0.8,0,1.4-0.6,1.4-1.4s-0.6-1.4-1.4-1.4s-1.4,0.6-1.4,1.4C14.4-29.4,15-28.8,15.8-28.8z"/>
						</g>
						<g>
							<path class="st1" d="M1.4-28.8c0.8,0,1.4-0.6,1.4-1.4s-0.6-1.4-1.4-1.4C0.6-31.7,0-31,0-30.2C0-29.4,0.6-28.8,1.4-28.8z"/>
						</g>
					</g>
				</g>
			</g>
		</g>
	</g>
</pattern>
<g id="employee_areas">
	<pattern  id="SVGID_1_" xlink:href="#SVGID_0000000379779774990326355" patternTransform="matrix(1 0 0 1 54.8 34896.3906)">
	</pattern>
	<polygon class="st2" points="294.5,91.8 294.8,90.9 292.5,41.4 211.4,96.7 211.6,95.7 58.1,95.1 57,252.1 57.3,94.5 56.4,259.9 
		126.2,259.9 126.2,355 126.6,355 126.6,267.3 224.2,267.3 224.2,354 244.3,353.7 244.3,267.7 372.7,267.7 372.7,356.5 371.7,356.5 
		371.9,378 373.1,377.2 373.1,256.2 454.5,256.2 455.3,2.1 455.7,1.8 	"/>
	
		<pattern  id="SVGID_00000085213103084381102470000012763728352167286936_" xlink:href="#SVGID_0000012776636725617330937" patternTransform="matrix(1 0 0 -1 -207.28 -52855.332)">
	</pattern>
	
		<polygon style="opacity:0.45;fill:url(#SVGID_00000085213103084381102470000012763728352167286936_);stroke:#CBCCCE;stroke-linecap:round;stroke-linejoin:round;enable-background:new    ;" points="
		294.2,739 217.4,739.2 216.8,601.5 293.5,601.2 	"/>
	
		<pattern  id="SVGID_00000145778637073305817180000005363173522237393321_" xlink:href="#SVGID_0000008452796110875744464" patternTransform="matrix(1 0 0 -1 -207.28 -52855.332)">
	</pattern>
	
		<polygon style="opacity:0.45;fill:url(#SVGID_00000145778637073305817180000005363173522237393321_);stroke:#CBCCCE;stroke-linecap:round;stroke-linejoin:round;enable-background:new    ;" points="
		125.4,655.2 49.6,654.7 50.4,524.7 126.3,524.7 	"/>
	
		<pattern  id="SVGID_00000160186455204940876680000000415931011298606255_" xlink:href="#SVGID_0000005930130126505170536" patternTransform="matrix(1 0 0 -1 -207.28 -52855.332)">
	</pattern>
	
		<polyline style="opacity:0.45;fill:url(#SVGID_00000160186455204940876680000000415931011298606255_);stroke:#CBCCCE;stroke-linecap:round;stroke-linejoin:round;enable-background:new    ;" points="
		49.9,654.1 50.5,781.9 50.8,781.8 72.8,791.8 72.8,791.3 73.2,655.6 72.7,654.8 50.7,654.7 	"/>
	<line class="st6" x1="227.2" y1="396.7" x2="276.5" y2="397.3"/>
</g>
<g id="spaces_00000062181286822467633500000013881384494522861241_" class="st7">
	<polygon id="beethoven_00000004547315513756117740000007388592252845031093_" class="st8" points="53.6,259.9 53.6,320.9 53.8,321 
		53.6,321.5 53.6,323.7 52.5,323.7 5,419 5,424.1 126.2,424.1 126.2,259.9 	"/>
	<polygon id="steinbeck_00000165930104148485494230000006051237649693782402_" class="st8" points="71.2,375.1 71.2,423.9 
		53.5,423.9 53.5,526.4 126.2,526.4 126.2,375.1 	"/>
	
		<rect id="speccoll_00000137850164408263629490000012715964465260426419_" x="244.3" y="267.7" class="st8" width="128.4" height="88.8"/>
	<polygon id="Calif_room_00000023271605672200581950000002123627397740287138_" class="st8" points="502.7,331.9 502.7,326.5 
		458.6,326.5 458.6,256.2 373.1,256.2 373.1,424.7 459.1,424.7 	"/>
	<polyline id="aaacna_00000023266740077824117400000007128140173303493002_" class="st9" points="132.4,824.4 74.8,799.3 73.2,796 
		73.6,733.7 131.3,733.8 131.7,734.2 131.7,822.2 	"/>
	
		<rect id="schiro_room_00000180337923416800747870000005805015847887099050_" x="126.6" y="267.3" class="st10" width="97.6" height="89.2"/>
</g>
<polygon id="atrium" class="st11" points="225.2,422.1 301.7,421.8 301.3,498.7 224.7,499 "/>
<g id="elevator_00000129923789646981679440000009271267698581510323_">
	
		<rect x="374.3" y="428.7" transform="matrix(1.787268e-03 -1 1 1.787268e-03 -54.4572 819.6976)" class="st12" width="18.1" height="16.9"/>
	
		<rect x="374.3" y="453.4" transform="matrix(1.787268e-03 -1 1 1.787268e-03 -79.2549 844.3503)" class="st12" width="18.1" height="16.9"/>
	
		<rect x="374.3" y="478.1" transform="matrix(1.787268e-03 -1 1 1.787268e-03 -103.9531 869.0341)" class="st12" width="18.1" height="16.9"/>
	
		<rect x="374.1" y="502.8" transform="matrix(1.787268e-03 -1 1 1.787268e-03 -128.8517 893.5177)" class="st12" width="18.1" height="16.9"/>
	
		<rect x="374.3" y="527.7" transform="matrix(1.787268e-03 -1 1 1.787268e-03 -153.4496 918.5696)" class="st12" width="18.1" height="16.9"/>
	<line class="st13" x1="396.3" y1="425.4" x2="396.3" y2="553.7"/>
	<g>
		<path class="st14" d="M385.1,471.7H370c-4.1,0-7.4,3.3-7.4,7.4v15.1c0,4.1,3.3,7.4,7.4,7.4h15.1c4.1,0,7.4-3.3,7.4-7.4v-15.1
			C392.5,475,389.2,471.7,385.1,471.7z"/>
		<g>
			<path class="st1" d="M373.6,473.5c-0.2-0.2-0.4-0.3-0.6-0.3s-0.5,0.1-0.6,0.3c-0.5,0.5-1.4,1.4-2.7,2.7c-0.4,0.4-0.4,1,0,1.3
				c0.3,0.3,0.9,0.3,1.2,0l1.1-1.1v3.5c0,0.5,0.4,0.9,0.9,0.9h0.1c0.5,0,0.9-0.4,0.9-0.9v-3.5l1.1,1.1c0.3,0.3,0.9,0.3,1.2,0l0,0
				c0.3-0.3,0.3-0.9,0-1.2C374.9,474.8,374.2,474.1,373.6,473.5z"/>
			<path class="st1" d="M381.4,480.5c0.2,0.2,0.4,0.3,0.6,0.3s0.5-0.1,0.6-0.3c0.5-0.5,1.4-1.4,2.7-2.7c0.4-0.4,0.4-1,0-1.3
				c-0.3-0.3-0.9-0.3-1.2,0l-1.1,1.1v-3.5c0-0.5-0.4-0.9-0.9-0.9H382c-0.5,0-0.9,0.4-0.9,0.9v3.5l-1.1-1.1c-0.3-0.3-0.9-0.3-1.2,0
				l0,0c-0.3,0.3-0.3,0.9,0,1.2C380.1,479.2,380.8,479.9,381.4,480.5z"/>
		</g>
		<g>
			<g>
				<path class="st1" d="M380.8,487.5c0.5,0,1-0.4,1-1c0-0.5-0.4-1-1-1c-0.5,0-1,0.4-1,1C379.9,487,380.3,487.5,380.8,487.5z"/>
				<path class="st1" d="M382.1,487.6h-2.4c-0.6,0-1,0.5-1,1v3c0,0.2,0.2,0.4,0.4,0.4c0.2,0,0.4-0.2,0.4-0.4V489h0.2v3v4.1
					c0,0.3,0.2,0.6,0.6,0.6c0.3,0,0.6-0.2,0.6-0.6V492h0.2v4.1c0,0.3,0.2,0.6,0.6,0.6c0.3,0,0.6-0.2,0.6-0.6V492v-3h0.2v2.6
					c0,0.2,0.2,0.4,0.4,0.4c0.2,0,0.4-0.2,0.4-0.4v-3C383.1,488.1,382.6,487.6,382.1,487.6z"/>
			</g>
			<path class="st1" d="M374.6,487.5c0.5,0,1-0.4,1-1c0-0.5-0.4-1-1-1c-0.5,0-1,0.4-1,1C373.6,487,374,487.5,374.6,487.5z"/>
			<path class="st1" d="M377.2,491.2l-0.8-2.8c-0.2-0.5-0.6-0.7-1.2-0.7l0,0h-1.3l0,0c-0.6,0-1,0.2-1.2,0.7l-0.8,2.8
				c-0.1,0.2,0.1,0.4,0.3,0.4c0.2,0.1,0.4,0,0.5-0.2l0.7-2.5h0.2l-1.2,4.3h1.2v3c0,0.3,0.2,0.5,0.5,0.5s0.5-0.2,0.5-0.5v-3h0.2v3
				c0,0.3,0.2,0.5,0.5,0.5s0.5-0.2,0.5-0.5v-3h1.2l-1.2-4.3h0.2l0.7,2.5c0.1,0.2,0.3,0.3,0.5,0.2
				C377.1,491.5,377.2,491.3,377.2,491.2z"/>
		</g>
		<g>
			<path class="st1" d="M383.7,500.1h-12.3c-2.5,0-4.6-2.6-4.6-5.7v-6.5c0-3.2,2.1-5.7,4.6-5.7h12.3c2.5,0,4.6,2.6,4.6,5.7v6.5
				C388.2,497.5,386.2,500.1,383.7,500.1z M371.3,484.2c-1.6,0-2.9,1.6-2.9,3.6v6.5c0,2,1.3,3.6,2.9,3.6h12.3c1.6,0,2.9-1.6,2.9-3.6
				v-6.5c0-2-1.3-3.6-2.9-3.6H371.3z"/>
		</g>
	</g>
</g>
<g id="stairs_00000004506460415138557040000012298731305797168303_">
	<path class="st14" d="M435.6,522.4H418c-4.8,0-8.7,3.9-8.7,8.7v17.6c0,4.8,3.9,8.7,8.7,8.7h17.6c4.8,0,8.7-3.9,8.7-8.7v-17.6
		C444.3,526.3,440.4,522.4,435.6,522.4z"/>
	<path class="st1" d="M420.1,529.6c1,0,1.9-0.8,1.9-1.9c0-1-0.8-1.9-1.9-1.9c-1,0-1.9,0.8-1.9,1.9
		C418.3,528.8,419.1,529.6,420.1,529.6z"/>
	<path class="st1" d="M416.7,535.5c0.6,0,1.1-0.4,1.1-1v-1.2l0.6-0.4v3v0.6l-1.8,6.9c-0.2,0.5,0.2,1.1,0.7,1.2
		c0.6,0.2,1.2-0.1,1.4-0.7l1.6-6.4h1.6v2.1c0,0.6,0.5,1,1.1,1s1.1-0.4,1.1-1v-3.1c0-0.6-0.5-1-1.1-1l0,0l0,0h-2.4v-1.9l0.6,0.6
		c0.2,0.2,0.5,0.4,0.9,0.4l0,0h2c0.6,0,1.1-0.4,1.1-1s-0.5-1-1.1-1h-1.6l-2-2.2l-0.1-0.1c-0.1-0.1-0.2-0.3-0.4-0.4l0,0h-0.1l0,0
		h-0.1l0,0c0,0,0,0-0.1,0l0,0c0,0,0,0-0.1,0l0,0c0,0,0,0-0.1,0l0,0l0,0l0,0c0,0,0,0-0.1,0c0,0,0,0-0.1,0l0,0c0,0,0,0-0.1,0l0,0
		c0,0,0,0-0.1,0l0,0c0,0,0,0-0.1,0l0,0c0,0,0,0-0.1,0l0,0c0,0,0,0-0.1,0l0,0l-2.8,2c-0.3,0.2-0.4,0.5-0.4,0.8l0,0v1.7
		C415.6,535.1,416,535.5,416.7,535.5z"/>
	<path class="st1" d="M437.2,532.1h-5.1c-0.2,0-0.3,0.2-0.4,0.4v4.7H427c-0.2,0-0.3,0.2-0.4,0.4v5h-4.9c-0.2,0-0.3,0.2-0.4,0.4v4.6
		h-4.7c-0.2,0-0.3,0.2-0.4,0.4v4.4c0,0.2,0.2,0.3,0.4,0.4h20.5c0.2,0,0.3-0.2,0.4-0.4l-0.1-19.8
		C437.5,532.3,437.4,532.2,437.2,532.1z"/>
</g>
<line id="glass_wall" class="st15" x1="126" y1="394.4" x2="371.3" y2="394.4"/>
<g id="restroom_00000093154083196299017300000003324237930340482739_">
	<rect x="386.4" y="577.9" class="st16" width="68.6" height="68.6"/>
	<g>
		<g>
			<path class="st17" d="M411.5,602.6c1.2,0,2.1-0.9,2.1-2.1c0-1.2-0.9-2.1-2.1-2.1s-2.1,0.9-2.1,2.1
				C409.3,601.7,410.4,602.6,411.5,602.6z"/>
			<path class="st17" d="M414.3,603.2h-5.5c-1.3,0-2.4,1-2.4,2.4v6.7c0,0.5,0.4,0.9,0.9,0.9s0.9-0.4,0.9-0.9v-5.9h0.5v6.8v9.2
				c0,0.7,0.5,1.2,1.2,1.2s1.2-0.5,1.2-1.2v-9.2h0.5v9.2c0,0.7,0.5,1.2,1.2,1.2s1.2-0.5,1.2-1.2v-9.2v-6.8h0.5v5.9
				c0,0.5,0.4,0.9,0.9,0.9s0.9-0.4,0.9-0.9v-6.7C416.7,604.2,415.6,603.2,414.3,603.2z"/>
		</g>
		<g>
			<path class="st17" d="M432.9,602.6c1.2,0,2.1-0.9,2.1-2.1c0-1.2-0.9-2.1-2.1-2.1s-2.1,0.9-2.1,2.1
				C430.7,601.7,431.7,602.6,432.9,602.6z"/>
			<path class="st17" d="M438.6,611l-1.8-6.3c-0.4-1.2-1.3-1.6-2.6-1.6l0,0h-2.9l0,0c-1.3,0-2.1,0.4-2.6,1.6l-1.8,6.3
				c-0.1,0.4,0.1,0.8,0.7,0.9c0.4,0.1,0.9-0.1,1-0.5l1.6-5.5h0.4l-2.7,9.6h2.6v6.8c0,0.5,0.5,1,1,1s1-0.5,1-1v-6.8h0.5v6.8
				c0,0.5,0.5,1,1,1s1-0.5,1-1v-6.8h2.6l-2.7-9.6h0.4l1.6,5.5c0.1,0.4,0.5,0.7,1,0.5C438.5,611.8,438.8,611.4,438.6,611z"/>
		</g>
	</g>
	<rect x="421.5" y="598.4" class="st17" width="2.4" height="24.9"/>
</g>
<g id="stacks">
	<rect x="149.8" y="416.5" class="st18" width="50.3" height="102.5"/>
	<rect x="149.8" y="724.2" class="st18" width="50.3" height="91.2"/>
	<rect x="149.8" y="601.3" class="st18" width="50.3" height="39.6"/>
	<rect x="312.2" y="564.1" class="st18" width="50.3" height="91.2"/>
	<rect x="312.2" y="671" class="st18" width="50.3" height="52.6"/>
	<rect x="377.2" y="670.7" class="st18" width="55.3" height="87.6"/>
</g>
<g id="floor_outline">
	<line class="st19" x1="503.4" y1="330.3" x2="458" y2="424.7"/>
	<line class="st19" x1="4.1" y1="424.5" x2="53" y2="322.8"/>
	<line class="st19" x1="458.4" y1="817.2" x2="296.4" y2="739.7"/>
	<line class="st19" x1="52" y1="785.6" x2="218.6" y2="865.7"/>
	<line class="st19" x1="52.6" y1="96.6" x2="215.6" y2="95.7"/>
	<line class="st19" x1="458.5" y1="2.1" x2="295.3" y2="95.3"/>
	<line class="st19" x1="457.9" y1="328.5" x2="458.5" y2="2.1"/>
	<line class="st19" x1="502.4" y1="328.7" x2="457.9" y2="328.5"/>
	<line class="st19" x1="293.7" y1="42.7" x2="216.4" y2="95.6"/>
	<line class="st19" x1="294.6" y1="96" x2="293.7" y2="42.7"/>
	<line class="st19" x1="53.4" y1="96.7" x2="53" y2="322.8"/>
	<path class="st19" d="M457.6,425.5"/>
	<line class="st19" x1="458.4" y1="817.2" x2="457.3" y2="517.9"/>
	<line class="st19" x1="219.4" y1="739.7" x2="218.6" y2="865.7"/>
	<line class="st19" x1="51.7" y1="424.7" x2="3.6" y2="425.5"/>
	<line class="st19" x1="52" y1="785.6" x2="51.7" y2="424.7"/>
	<path class="st20" d="M457.6,425.5"/>
	<path class="st20" d="M457.3,517.9"/>
	<line class="st19" x1="220" y1="739.3" x2="296" y2="739.7"/>
	<g>
		<line class="st20" x1="397.3" y1="424.8" x2="457.1" y2="424.8"/>
		<line class="st20" x1="397.2" y1="517.2" x2="397.3" y2="425.1"/>
		<line class="st20" x1="397.2" y1="517.9" x2="457.3" y2="517.9"/>
	</g>
</g>
<g id="Text">
	<text transform="matrix(1 0 0 1 50.0598 351.9795)" class="st21 st22">Beethoven</text>
	<text transform="matrix(1 0 0 1 63.9598 365.9795)" class="st21 st22">Center</text>
	<text transform="matrix(1 0 0 1 57.6663 449.7862)" class="st21 st22">Steinbeck</text>
	<text transform="matrix(1 0 0 1 68.3663 463.7862)" class="st21 st22">Center</text>
	<text transform="matrix(1 0 0 1 132.3646 312.2007)" class="st21 st22">Schiro Room</text>
	<text transform="matrix(1 0 0 1 283.7965 299.6037)" class="st21 st22">Special</text>
	<text transform="matrix(1 0 0 1 270.6965 317.6037)" class="st21 st22">Collections</text>
	<text transform="matrix(1 0 0 1 272.3965 335.6037)" class="st21 st22">&amp; Archives</text>
	<text transform="matrix(1 0 0 1 394.4045 353.9686)" class="st21 st22">California</text>
	<text transform="matrix(1 0 0 1 407.5046 371.9686)" class="st21 st22">Room</text>
	<text transform="matrix(1 0 0 1 73.1895 759.7155)" class="st21 st23">AAACNA</text>
	<text transform="matrix(1 0 0 1 85.2895 777.7155)" class="st21 st23">Room</text>
</g>
</svg>
