<?xml version="1.0" encoding="utf-8"?>
<!-- Generator: Adobe Illustrator 28.0.0, SVG Export Plug-In . SVG Version: 6.00 Build 0)  -->
<svg version="1.1" xmlns="http://www.w3.org/2000/svg" xmlns:xlink="http://www.w3.org/1999/xlink" x="0px" y="0px"
	 viewBox="0 0 1409.5 975" style="enable-background:new 0 0 1409.5 975;" xml:space="preserve">
<style type="text/css">
	.st0{fill:none;}
	.st1{fill:none;stroke:#231F20;stroke-width:0.3;}
	.st2{fill:#FFFFFF;stroke:#000000;stroke-miterlimit:10;}
	.st3{fill:#A2C9EA;stroke:#A2C9EA;stroke-miterlimit:10;}
	.st4{fill:#A2C9EA;}
	.st5{font-family:'Arial-ItalicMT';}
	.st6{font-size:14px;}
	.st7{font-family:'ArialNarrow-Italic';}
	.st8{font-size:14.6418px;}
	.st9{font-family:'ArialNarrow-Bold';}
	.st10{font-size:33.4957px;}
	.st11{fill:#F5F5C8;stroke:#000000;stroke-miterlimit:10;}
	.st12{fill:#E5E5E5;stroke:#000000;stroke-miterlimit:10;}
	.st13{fill:url(#Grid_1_pica_Lines);stroke:#000000;stroke-miterlimit:10;}
	.st14{fill:#EAC16E;stroke:#000000;stroke-miterlimit:10;}
	.st15{fill:#C3DAEA;stroke:#000000;stroke-miterlimit:10;}
	.st16{display:none;}
	.st17{display:inline;fill:none;}
	.st18{display:inline;}
	.st19{font-family:'MyriadPro-Regular';}
	.st20{font-size:8px;}
	.st21{font-size:10px;}
	.st22{display:inline;fill:#E4F2F9;}
	.st23{font-family:'Arial-BoldMT';}
	.st24{font-size:300px;}
	.st25{letter-spacing:7;}
	.st26{font-size:48px;}
	.st27{font-size:21px;}
	.st28{fill:#C60606;stroke:#000000;stroke-miterlimit:10;}
	.st29{fill:#FFFFFF;}
	.st30{font-size:12px;}
	.st31{fill:#146EDC;stroke:#000000;stroke-miterlimit:10;}
	.st32{fill:#785AA0;stroke:#000000;stroke-miterlimit:10;}
	.st33{fill:#785AA0;}
	.st34{font-family:'Verdana-Bold';}
	.st35{font-size:11px;}
	.st36{fill:#F9E235;stroke:#000000;stroke-miterlimit:10;}
	.st37{stroke:#FFFFFF;stroke-miterlimit:10;}
</style>
<pattern  x="159.5" y="975" width="72" height="72" patternUnits="userSpaceOnUse" id="Grid_1_pica_Lines" viewBox="72.2 -144.2 72 72" style="overflow:visible;">
	<g>
		<rect x="72.2" y="-144.2" class="st0" width="72" height="72"/>
		<g>
			<line class="st1" x1="78.2" y1="-72.5" x2="78.2" y2="0"/>
			<line class="st1" x1="102.2" y1="-72.5" x2="102.2" y2="0"/>
			<line class="st1" x1="126.2" y1="-72.5" x2="126.2" y2="0"/>
			<line class="st1" x1="90.2" y1="-72.5" x2="90.2" y2="0"/>
			<line class="st1" x1="114.2" y1="-72.5" x2="114.2" y2="0"/>
			<line class="st1" x1="138.2" y1="-72.5" x2="138.2" y2="0"/>
		</g>
		<g>
			<line class="st1" x1="144" y1="-78.2" x2="216.5" y2="-78.2"/>
			<line class="st1" x1="144" y1="-102.2" x2="216.5" y2="-102.2"/>
			<line class="st1" x1="144" y1="-126.2" x2="216.5" y2="-126.2"/>
			<line class="st1" x1="144" y1="-90.2" x2="216.5" y2="-90.2"/>
			<line class="st1" x1="144" y1="-114.2" x2="216.5" y2="-114.2"/>
			<line class="st1" x1="144" y1="-138.2" x2="216.5" y2="-138.2"/>
		</g>
		<g>
			<line class="st1" x1="78.2" y1="-144.5" x2="78.2" y2="-72"/>
			<line class="st1" x1="102.2" y1="-144.5" x2="102.2" y2="-72"/>
			<line class="st1" x1="126.2" y1="-144.5" x2="126.2" y2="-72"/>
			<line class="st1" x1="72" y1="-78.2" x2="144.5" y2="-78.2"/>
			<line class="st1" x1="72" y1="-102.2" x2="144.5" y2="-102.2"/>
			<line class="st1" x1="72" y1="-126.2" x2="144.5" y2="-126.2"/>
			<line class="st1" x1="72" y1="-90.2" x2="144.5" y2="-90.2"/>
			<line class="st1" x1="72" y1="-114.2" x2="144.5" y2="-114.2"/>
			<line class="st1" x1="72" y1="-138.2" x2="144.5" y2="-138.2"/>
			<line class="st1" x1="90.2" y1="-144.5" x2="90.2" y2="-72"/>
			<line class="st1" x1="114.2" y1="-144.5" x2="114.2" y2="-72"/>
			<line class="st1" x1="138.2" y1="-144.5" x2="138.2" y2="-72"/>
		</g>
		<g>
			<line class="st1" x1="0" y1="-78.2" x2="72.5" y2="-78.2"/>
			<line class="st1" x1="0" y1="-102.2" x2="72.5" y2="-102.2"/>
			<line class="st1" x1="0" y1="-126.2" x2="72.5" y2="-126.2"/>
			<line class="st1" x1="0" y1="-90.2" x2="72.5" y2="-90.2"/>
			<line class="st1" x1="0" y1="-114.2" x2="72.5" y2="-114.2"/>
			<line class="st1" x1="0" y1="-138.2" x2="72.5" y2="-138.2"/>
		</g>
		<g>
			<line class="st1" x1="78.2" y1="-216.5" x2="78.2" y2="-144"/>
			<line class="st1" x1="102.2" y1="-216.5" x2="102.2" y2="-144"/>
			<line class="st1" x1="126.2" y1="-216.5" x2="126.2" y2="-144"/>
			<line class="st1" x1="90.2" y1="-216.5" x2="90.2" y2="-144"/>
			<line class="st1" x1="114.2" y1="-216.5" x2="114.2" y2="-144"/>
			<line class="st1" x1="138.2" y1="-216.5" x2="138.2" y2="-144"/>
		</g>
	</g>
</pattern>
<g id="base_white">
	<polyline class="st2" points="700.9,746.2 643.6,651.2 418.4,509.8 509.7,360.7 506.9,242.2 562,278.6 564.3,53.1 817.2,224 
		890.6,272.6 911,228.4 970,331.7 938.1,388.4 1034.7,446.7 1068.5,388.4 1104.5,411.1 1126.8,427.2 1203.7,475.5 1288.8,530.2 
		1346.4,565.1 1322,582.8 1204,659.8 1184.2,672.8 1139.3,736.5 1241.7,815.1 1268.3,833.7 1171,884.7 1098.1,925.9 1079.2,935.8 
		832.4,770.5 729.5,703.7 700.9,746.2 	"/>
</g>
<g id="street">
	<g id="san_fernando">
		<line class="st3" x1="299.8" y1="126.1" x2="486.3" y2="8.1"/>
		<line class="st3" x1="312.2" y1="146" x2="520.6" y2="14.1"/>
		
			<rect x="337.3" y="64.6" transform="matrix(0.848 -0.5299 0.5299 0.848 24.433 229.3282)" class="st0" width="149.6" height="15"/>
		<text transform="matrix(0.8481 -0.5299 0.5299 0.8481 350.0209 113.8617)" class="st4 st5 st6">San Fernando Street</text>
	</g>
	<g id="_x34_th_street">
		<line class="st3" x1="397.4" y1="744.7" x2="230.1" y2="421"/>
		<line class="st3" x1="418.8" y1="735.1" x2="251" y2="410.4"/>
		
			<rect x="314.7" y="495.8" transform="matrix(0.8829 -0.4695 0.4695 0.8829 -230.159 218.0683)" class="st0" width="15" height="149.6"/>
		<text transform="matrix(-0.4695 -0.8829 0.8829 -0.4695 344.6653 607.3199)" class="st4 st5 st6">Fourth Street</text>
	</g>
	<g id="sjsu_campus">
		<polygon class="st4" points="1373.8,716 1348.6,696.6 1354.4,741.2 		"/>
		
			<rect x="1319.3" y="658.9" transform="matrix(0.9873 -0.1586 0.1586 0.9873 -97.4179 220.3597)" class="st0" width="25.2" height="123.4"/>
		<text transform="matrix(0.1586 0.9873 -0.9873 0.1586 1327.8263 681.2714)" class="st4 st7 st8">SJSU Campus</text>
	</g>
</g>
<g id="north">
	<g>
		<polygon class="st4" points="490.3,95.1 483,127.7 523,102.4 		"/>
		
			<rect x="469.7" y="69.2" transform="matrix(0.829 -0.5592 0.5592 0.829 36.1634 283.2994)" class="st0" width="23.3" height="26.6"/>
		<text transform="matrix(0.829 -0.5592 0.5592 0.829 479.1335 96.9483)" class="st4 st9 st10">N</text>
	</g>
</g>
<g id="yellow_region">
	<polygon id="cultural_heritage" class="st11" points="1098.1,925.9 1021.2,873 1066.8,806.6 1171,884.7 	"/>
	<polygon id="chicago_collection" class="st11" points="1179.7,870.8 1139.3,843.5 1174.9,796.6 1213.1,824.4 	"/>
	<polygon id="asian_american_coll" class="st11" points="1065.9,721.9 1101.5,744.5 1070.7,794 1034.7,769.2 	"/>
	<polygon id="african_coll" class="st11" points="964.4,656.8 1009.5,687.6 977.4,732.8 930.1,703.7 	"/>
	<polygon id="steinback_center" class="st11" points="731.7,598.2 695.7,651.6 741.7,684.6 729.5,703.7 832.4,770.5 886.7,689.8 	
		"/>
	<polygon id="beethoven_center" class="st11" points="624.5,530.5 650,546.6 731.7,598.2 695.7,651.6 741.7,684.6 729.5,703.7 
		700.9,746.2 643.6,651.2 573.7,607.3 	"/>
	<polygon id="spl_coll_program" class="st11" points="703.5,465.3 650,546.6 720.6,591.2 773.8,510.5 	"/>
	<polygon id="room_500" class="st11" points="753.8,611.3 904.5,397.2 869.3,376.4 773.8,510.5 720.6,591.2 	"/>
	<polygon id="sjsu_spl_coll" class="st11" points="711.9,419.8 779.9,321.3 869.3,376.4 798.4,476 	"/>
	<polygon id="california_room" class="st11" points="763.8,311.3 779.9,321.3 904.5,397.2 925.3,411.1 970,331.7 911,228.4 
		890.6,272.6 817.2,224 	"/>
	<polygon id="M_x2B_ML" class="st11" points="1044.9,556.7 1072.9,513 1218.8,601.6 1192,645.7 	"/>
	<polygon id="Sound_recording" class="st11" points="1171.2,558.2 1203,499.7 1277.2,548.6 1246.8,608.2 	"/>
	<polygon id="listening_station" class="st11" points="1203.7,475.5 1197.2,485.7 1283.4,539.1 1288.8,530.2 	"/>
	<polygon id="goldberg_coll" class="st11" points="1204,659.8 1197.2,650.9 1315.9,576 1322,582.8 	"/>
	<ellipse id="beehive_thesis" class="st11" cx="1297.9" cy="561.9" rx="13.6" ry="19.2"/>
	<polygon id="ethnic_studies" class="st11" points="779.2,611.3 812.5,569.1 895.1,619.9 861.9,661.7 	"/>
</g>
<g id="grey_region">
	<polygon id="toilet_1_" class="st12" points="1159.8,550.7 1203.7,475.5 1126.8,427.2 1079.6,502 	"/>
	<polygon id="service_1_" class="st12" points="997.4,553.9 955,577.7 976.2,611.3 1021.2,585.7 	"/>
	<polygon class="st12" points="816.6,559.7 827,546.5 904.5,594.5 893.4,611.3 	"/>
	<polygon class="st12" points="1229.6,825.4 1241.7,815.1 1139.3,736.5 1126.8,750 	"/>
	<polygon class="st12" points="980.7,656.8 990,645.7 1070.5,694.8 1060.7,709.1 	"/>
	<polygon class="st12" points="1037,581.1 1044.9,569.1 1191.9,659.8 1184.2,672.8 	"/>
	<polygon id="rooftop_terrace" class="st12" points="990,645.7 1037,581.1 1184.2,672.8 1139.3,736.5 1070.5,694.8 	"/>
	<polygon class="st12" points="1060.7,709.1 1070.5,694.8 1139.3,736.5 1126.8,750 	"/>
	<polyline class="st12" points="952.6,531.3 961.6,518 884.9,466.3 875.4,480.5 952.6,531.3 	"/>
</g>
<g id="grey_grid">
	<polygon id="grey_grid_1_" class="st13" points="817.2,224 564.3,53.1 562,278.6 506.9,242.2 509.7,360.7 418.4,509.8 573.7,607.3 
		624.5,530.5 650,546.6 703.5,465.3 773.8,510.5 798.4,476 711.9,419.8 779.9,321.3 763.8,311.3 	"/>
</g>
<g id="vertical_flow">
	<polygon id="elevator" class="st14" points="925.3,411.1 938.1,388.4 1034.7,446.7 1070.5,468.3 1056.7,490.5 	"/>
	<polygon id="stairs" class="st14" points="1068.5,388.4 1104.5,411.1 1070.5,468.3 1034.7,446.7 	"/>
</g>
<g id="atrium">
	<polygon id="atrium_1_" class="st15" points="827,546.5 875.4,480.5 952.6,531.3 904.5,594.5 	"/>
</g>
<g id="text" class="st16">
	<rect x="865.2" y="321.3" class="st17" width="78.5" height="32.6"/>
	<text transform="matrix(1 0 0 1 876.662 331.199)" class="st18"><tspan x="0" y="0" class="st19 st6">California </tspan><tspan x="10.5" y="16.8" class="st19 st6">Room</tspan></text>
	<rect x="606.7" y="582" class="st17" width="78.5" height="32.6"/>
	<text transform="matrix(1 0 0 1 614.3492 591.946)" class="st18"><tspan x="0" y="0" class="st19 st6">Beethoven </tspan><tspan x="12" y="16.8" class="st19 st6">Center</tspan></text>
	<rect x="1060" y="535.8" class="st17" width="21" height="11.6"/>
	<text transform="matrix(1 0 0 1 1064.8696 545.7356)" class="st18 st19 st6">M</text>
	<rect x="1181.4" y="609.3" class="st17" width="21" height="11.6"/>
	<text transform="matrix(1 0 0 1 1182.9772 619.2899)" class="st18 st19 st6">ML</text>
	
		<rect x="737.5" y="379.4" transform="matrix(0.5446 -0.8387 0.8387 0.5446 21.8457 831.6148)" class="st17" width="78.5" height="32.6"/>
	<text transform="matrix(0.5446 -0.8387 0.8387 0.5446 751.6669 422.6318)" class="st18"><tspan x="0" y="0" class="st19 st6">SJSU Special </tspan><tspan x="6.7" y="16.8" class="st19 st6">Collection</tspan></text>
	
		<rect x="671.3" y="497.5" transform="matrix(0.5446 -0.8387 0.8387 0.5446 -118.7828 842.1948)" class="st17" width="89.7" height="65.9"/>
	<text transform="matrix(0.5446 -0.8387 0.8387 0.5446 673.8651 553.3656)" class="st18"><tspan x="0" y="0" class="st19 st6">Special Collec</tspan><tspan x="80.1" y="0" class="st19 st6">-</tspan><tspan x="1" y="16.8" class="st19 st6">tions Program </tspan><tspan x="24.9" y="33.6" class="st19 st6">Room</tspan></text>
	
		<rect x="776.1" y="642.9" transform="matrix(0.5446 -0.8387 0.8387 0.5446 -213.6886 975.1587)" class="st17" width="30.1" height="83"/>
	<text transform="matrix(0.8387 0.5446 -0.5446 0.8387 769.9762 664.5109)" class="st18"><tspan x="0" y="0" class="st19 st6">Steinback</tspan><tspan x="9" y="16.8" class="st19 st6">Center</tspan></text>
	
		<rect x="828.6" y="577.6" transform="matrix(0.5446 -0.8387 0.8387 0.5446 -138.4653 983.1479)" class="st17" width="15.1" height="83"/>
	<text transform="matrix(0.8387 0.5446 -0.5446 0.8387 800.1898 598.6292)" class="st18 st19 st6">Ethnic Studies</text>
	<rect x="862.2" y="534.3" class="st17" width="48.9" height="14.6"/>
	<text transform="matrix(1 0 0 1 866.4389 544.2246)" class="st18 st19 st6">Atrium</text>
	<rect x="795.2" y="490.5" class="st17" width="31.3" height="11.9"/>
	<text transform="matrix(1 0 0 1 800.0359 500.4594)" class="st18 st19 st6">500</text>
	
		<rect x="741.7" y="564.6" transform="matrix(0.5736 -0.8192 0.8192 0.5736 -130.3844 894.5884)" class="st17" width="104.7" height="15.8"/>
	<text transform="matrix(0.5736 -0.8192 0.8192 0.5736 763.7561 611.9515)" class="st18"><tspan x="0" y="0" class="st19 st20">Punjabi, Jewish, &amp; Portuguese </tspan><tspan x="17.6" y="9.6" class="st19 st20">Heritage Collection</tspan></text>
	
		<rect x="945.8" y="673.1" transform="matrix(0.5446 -0.8387 0.8387 0.5446 -148.6723 1130.2278)" class="st17" width="41.3" height="57.9"/>
	<text transform="matrix(0.8387 0.5446 -0.5446 0.8387 959.4622 681.2973)" class="st18"><tspan x="0" y="0" class="st19 st21">Africana </tspan><tspan x="-5.9" y="12" class="st19 st21">Collections</tspan></text>
	
		<rect x="1044.2" y="735" transform="matrix(0.5446 -0.8387 0.8387 0.5446 -153.6796 1239.7957)" class="st17" width="41.3" height="52.8"/>
	<text transform="matrix(0.8387 0.5446 -0.5446 0.8387 1062.6941 743.8325)" class="st18"><tspan x="0" y="0" class="st19 st21">Asian</tspan><tspan x="-8.6" y="12" class="st19 st21">American </tspan><tspan x="-11.7" y="24" class="st19 st21">Collections</tspan></text>
	
		<rect x="1163.5" y="808.8" transform="matrix(0.5446 -0.8387 0.8387 0.5446 -163.5952 1366.0625)" class="st17" width="25.4" height="49.8"/>
	<text transform="matrix(0.8387 0.5446 -0.5446 0.8387 1164.9323 819.7236)" class="st18"><tspan x="0" y="0" class="st19 st21">Chicago</tspan><tspan x="-4.1" y="12" class="st19 st21">Collection</tspan></text>
	
		<rect x="1069.4" y="822.7" transform="matrix(0.5446 -0.8387 0.8387 0.5446 -237.6917 1307.7146)" class="st17" width="32.1" height="100.1"/>
	<text transform="matrix(0.8387 0.5446 -0.5446 0.8387 1060.5278 845.9268)" class="st18"><tspan x="0" y="0" class="st19 st21">Cultural Heritage </tspan><tspan x="-11" y="12" class="st19 st21">Center Program Room</tspan></text>
	<rect x="1187.1" y="540.4" class="st17" width="74.1" height="32.6"/>
	<text transform="matrix(1 0 0 1 1188.2026 547.5107)" class="st18"><tspan x="0" y="0" class="st19 st21">Sound Recording </tspan><tspan x="2.9" y="12" class="st19 st21">(Record Albums </tspan><tspan x="22.3" y="24" class="st19 st21">&amp; CDs)</tspan></text>
	
		<rect x="1209.3" y="497.7" transform="matrix(0.5446 -0.8387 0.8387 0.5446 120.6012 1251.9946)" class="st17" width="7.8" height="34.6"/>
	<text transform="matrix(0.8387 0.5446 -0.5446 0.8387 1199.4077 509.7527)" class="st18 st19 st21">ML-MT</text>
	
		<rect x="1201.5" y="617.8" transform="matrix(0.8387 -0.5446 0.5446 0.8387 -136.7463 783.327)" class="st17" width="104.7" height="9.4"/>
	<text transform="matrix(0.8387 -0.5446 0.5446 0.8387 1224.604 642.6572)" class="st18 st19 st20">Goldeberg Collection</text>
	<rect x="1282.9" y="553.1" class="st17" width="30" height="21.9"/>
	<text transform="matrix(1 0 0 1 1284.5913 558.7943)" class="st18"><tspan x="0" y="0" class="st19 st20">Beehive</tspan><tspan x="2.9" y="9.6" class="st19 st20">Thesis</tspan></text>
	
		<rect x="1239.5" y="467.7" transform="matrix(0.5299 -0.848 0.848 0.5299 153.5748 1293.3896)" class="st17" width="7.8" height="80.9"/>
	<text transform="matrix(0.8481 0.5299 -0.5299 0.8481 1217.3662 493.9526)" class="st18 st19 st20">Listening Stations</text>
	<rect x="1049.5" y="649.1" class="st17" width="92.2" height="31"/>
	<text transform="matrix(1 0 0 1 1071.9159 659.0814)" class="st18"><tspan x="0" y="0" class="st19 st6">Rooftop</tspan><tspan x="2.1" y="16.8" class="st19 st6">Terrace</tspan></text>
	
		<rect x="914" y="608.7" transform="matrix(0.5446 -0.8387 0.8387 0.5446 -111.1787 1070.548)" class="st17" width="32.6" height="57.9"/>
	<text transform="matrix(0.8387 0.5446 -0.5446 0.8387 921.4407 620.9836)" class="st18"><tspan x="0" y="0" class="st19 st21">Cultural</tspan><tspan x="-1.5" y="12" class="st19 st21">Heritage</tspan><tspan x="2.5" y="24" class="st19 st21">Center</tspan></text>
	
		<rect x="884" y="647.5" transform="matrix(0.5446 -0.8387 0.8387 0.5446 -159.4954 1059.1787)" class="st17" width="23.3" height="57.9"/>
	<text transform="matrix(0.8387 0.5446 -0.5446 0.8387 880.6288 661.3295)" class="st18"><tspan x="0" y="0" class="st19 st21">Reference</tspan><tspan x="6" y="12" class="st19 st21">&amp; Folks</tspan></text>
	<rect x="98.7" y="29.1" class="st17" width="176.3" height="232.2"/>
	<text transform="matrix(1 0 0 1 98.7444 243.9088)" class="st22 st23 st24 st25">5</text>
	<rect x="21.9" y="18.7" class="st17" width="300.4" height="54.6"/>
	<text transform="matrix(1 0 0 1 21.887 53.1)" class="st18 st23 st26">Fifth Floor</text>
	<rect x="22.9" y="83.1" class="st17" width="286" height="77.9"/>
	<text transform="matrix(1 0 0 1 22.887 98.1376)" class="st18"><tspan x="0" y="0" class="st5 st27">Cultural Heritage</tspan><tspan x="0" y="25.2" class="st5 st27">Special Collections</tspan><tspan x="0" y="50.4" class="st5 st27">Music Research Collections</tspan></text>
</g>
<g id="exit" class="st16">
	<g class="st18">
		<circle class="st28" cx="1116.7" cy="420.3" r="16.7"/>
		<rect x="1104.7" y="415.5" class="st0" width="23.8" height="10.5"/>
		<text transform="matrix(1 0 0 1 1105.8629 424.0162)" class="st29 st19 st30">EXIT</text>
	</g>
	<g class="st18">
		<circle class="st28" cx="935.8" cy="837.3" r="16.7"/>
		<rect x="923.8" y="832.5" class="st0" width="23.8" height="10.5"/>
		<text transform="matrix(1 0 0 1 924.9655 841.0071)" class="st29 st19 st30">EXIT</text>
	</g>
	<g class="st18">
		<circle class="st28" cx="935.8" cy="837.3" r="16.7"/>
		<rect x="923.8" y="832.5" class="st0" width="23.8" height="10.5"/>
		<text transform="matrix(1 0 0 1 924.9655 841.0071)" class="st29 st19 st30">EXIT</text>
	</g>
</g>
<g id="toilet" class="st16">
	<g id="symbol_-_toilet" class="st18">
		<circle class="st31" cx="1142.7" cy="490.5" r="14.2"/>
		<path class="st29" d="M1146.3,486.7l0,4.6c0,0.5,0.4,0.9,0.9,0.9l1.9,0c0.5,0,0.9-0.4,0.9-0.9l0-4.6c0-0.5-0.4-0.9-0.9-0.9l-1.9,0
			C1146.7,485.8,1146.3,486.2,1146.3,486.7z"/>
		<path class="st29" d="M1151.6,486l0,4.9c0,0.3-0.2,0.6-0.6,0.6l-0.4,0c-0.3,0-0.6-0.2-0.6-0.6l0-4.9c0-0.3,0.2-0.6,0.6-0.6l0.4,0
			C1151.4,485.4,1151.6,485.7,1151.6,486z"/>
		<path class="st29" d="M1146.1,486l0,5c0,0.3-0.2,0.6-0.6,0.6l-0.4,0c-0.3,0-0.6-0.2-0.6-0.6l0-5c0-0.3,0.2-0.6,0.6-0.6l0.4,0
			C1145.9,485.4,1146.1,485.7,1146.1,486z"/>
		<circle class="st29" cx="1148.1" cy="483.4" r="1.6"/>
		<path class="st29" d="M1144.7,485.9l0,0.7c0,0.3,0.3,0.6,0.6,0.6l5.7,0c0.3,0,0.6-0.3,0.6-0.6l0-0.7c0-0.3-0.3-0.6-0.6-0.6l-5.7,0
			C1144.9,485.3,1144.7,485.6,1144.7,485.9z"/>
		<path class="st29" d="M1148,490.7l0,7.4c0,0.3-0.2,0.6-0.6,0.6l-0.6,0c-0.3,0-0.6-0.2-0.6-0.6l0-7.4c0-0.3,0.2-0.6,0.6-0.6l0.6,0
			C1147.8,490.2,1148,490.4,1148,490.7z"/>
		<path class="st29" d="M1150,490.6l0,7.4c0,0.3-0.2,0.6-0.6,0.6l-0.6,0c-0.3,0-0.6-0.2-0.6-0.6l0-7.4c0-0.3,0.2-0.6,0.6-0.6l0.6,0
			C1149.7,490.1,1150,490.3,1150,490.6z"/>
		<rect x="1142.4" y="481.1" class="st29" width="0.7" height="18.3"/>
		<path class="st29" d="M1135.3,486.1l-1,4.9c-0.1,0.3-0.4,0.5-0.7,0.4l-0.4-0.1c-0.3-0.1-0.5-0.4-0.4-0.7l1-4.9
			c0.1-0.3,0.4-0.5,0.7-0.4l0.4,0.1C1135.2,485.5,1135.4,485.8,1135.3,486.1z"/>
		<circle class="st29" cx="1137.3" cy="483.4" r="1.6"/>
		<path class="st29" d="M1133.8,485.9l0,0.7c0,0.3,0.3,0.6,0.6,0.6l5.7,0c0.3,0,0.6-0.3,0.6-0.6l0-0.7c0-0.3-0.3-0.6-0.6-0.6l-5.7,0
			C1134.1,485.3,1133.8,485.6,1133.8,485.9z"/>
		<path class="st29" d="M1137.2,490.7l0,7.4c0,0.3-0.2,0.5-0.5,0.5l-0.4,0c-0.3,0-0.5-0.2-0.5-0.5l0-7.4c0-0.3,0.2-0.5,0.5-0.5
			l0.4,0C1136.9,490.2,1137.2,490.4,1137.2,490.7z"/>
		<path class="st29" d="M1140.7,485.8l1,4.9c0.1,0.3-0.1,0.6-0.4,0.7l-0.4,0.1c-0.3,0.1-0.6-0.1-0.7-0.4l-1-4.9
			c-0.1-0.3,0.1-0.6,0.4-0.7l0.4-0.1C1140.3,485.3,1140.6,485.5,1140.7,485.8z"/>
		<polygon class="st29" points="1134.1,493.6 1135.3,487.3 1139.2,487.3 1140.4,493.6 		"/>
		<path class="st29" d="M1139.1,490.7l0,7.4c0,0.3-0.2,0.5-0.5,0.5l-0.4,0c-0.3,0-0.5-0.2-0.5-0.5l0-7.4c0-0.3,0.2-0.5,0.5-0.5
			l0.4,0C1138.8,490.2,1139.1,490.4,1139.1,490.7z"/>
	</g>
</g>
<g id="service" class="st16">
	<g id="symbol_-_service" class="st18">
		<circle class="st32" cx="988.1" cy="582.6" r="12.3"/>
		<path class="st29" d="M992.5,586.8h-8.9c-2,0-3.6-1.6-3.6-3.6v-4.4c0-2,1.6-3.6,3.6-3.6h8.9c2,0,3.6,1.6,3.6,3.6v4.4
			C996.1,585.2,994.5,586.8,992.5,586.8z"/>
		<rect x="983.8" y="576.7" class="st0" width="8.7" height="9.4"/>
		<text transform="matrix(1 0 0 1 986.2229 585.076)" class="st33 st34 st35">i</text>
		<polygon class="st29" points="983.8,586.8 982.5,591.3 987.5,586.8 		"/>
	</g>
</g>
<g id="stairs_x2F_ele" class="st16">
	<g id="symbol_-_stairs" class="st18">
		<circle class="st36" cx="1069.6" cy="427.2" r="12.3"/>
		<polygon points="1061.7,433.3 1061.7,429.8 1065.2,429.8 1065.2,426.3 1068.7,426.3 1068.7,422.9 1072.2,422.9 1072.2,419.4 
			1075.7,419.4 1075.7,433.3 		"/>
	</g>
	<g id="symbol_-_ele" class="st18">
		<circle class="st36" cx="1000.4" cy="439.5" r="12.3"/>
		<rect x="994.2" y="434" width="5.8" height="11.6"/>
		<rect x="1000.9" y="434" width="5.8" height="11.6"/>
		<rect x="999.1" y="431.7" width="2.7" height="1.6"/>
		<polygon points="998,431.7 1000.4,430.1 1002.8,431.7 		"/>
	</g>
</g>
<g id="phone" class="st16">
	<g id="phone_1_" class="st18">
		<circle class="st31" cx="1040.9" cy="575" r="13.7"/>
		<path class="st29" d="M1035.8,578.4l-1.4,2.8c-0.3,0.6-0.1,1.4,0.6,1.7l2.2,1.1c0.6,0.3,1.4,0.1,1.7-0.6l1.4-2.8
			c0.3-0.6,0.1-1.4-0.6-1.7l-2.2-1.1C1036.9,577.5,1036.1,577.7,1035.8,578.4z"/>
		<path class="st29" d="M1044.7,569l-6.3,12.3c-0.3,0.6-0.1,1.4,0.6,1.7l0.3,0.1c0.6,0.3,1.4,0.1,1.7-0.6l6.3-12.3
			c0.3-0.6,0.1-1.4-0.6-1.7l-0.3-0.1C1045.8,568.1,1045.1,568.4,1044.7,569z"/>
		<path class="st29" d="M1041.9,566l-1.4,2.8c-0.3,0.6-0.1,1.4,0.6,1.7l2.4,1.2c0.6,0.3,1.4,0.1,1.7-0.6l1.4-2.8
			c0.3-0.6,0.1-1.4-0.6-1.7l-2.4-1.2C1043,565.2,1042.3,565.4,1041.9,566z"/>
		
			<ellipse transform="matrix(0.9472 -0.3206 0.3206 0.9472 -131.9509 363.7715)" class="st29" cx="1038.9" cy="582.7" rx="2.4" ry="1.3"/>
		
			<ellipse transform="matrix(0.9392 -0.3434 0.3434 0.9392 -131.6926 393.7154)" class="st29" cx="1046" cy="568.7" rx="1.3" ry="2.3"/>
	</g>
</g>
<g id="comp" class="st16">
	<g id="printer" class="st18">
		<g>
			<circle cx="951.1" cy="591.3" r="13.7"/>
			
				<rect x="947.5" y="582.5" transform="matrix(6.123234e-17 -1 1 6.123234e-17 359.5812 1542.1504)" class="st29" width="6.7" height="17.7"/>
			
				<rect x="947.4" y="590" transform="matrix(6.123234e-17 -1 1 6.123234e-17 355.1529 1546.6414)" class="st37" width="7.1" height="11.5"/>
			
				<rect x="948.1" y="579.8" transform="matrix(6.123234e-17 -1 1 6.123234e-17 365.2928 1536.4387)" class="st37" width="5.5" height="11.5"/>
			<line class="st37" x1="947.8" y1="597.3" x2="952.4" y2="597.3"/>
			<circle cx="958.1" cy="589.8" r="0.8"/>
		</g>
		<line class="st37" x1="947.7" y1="595.2" x2="954" y2="595.2"/>
	</g>
	<g id="comp_1_" class="st18">
		<circle cx="975.8" cy="620.9" r="13.7"/>
		
			<rect x="970.3" y="611.8" transform="matrix(6.123234e-17 -1 1 6.123234e-17 357.3049 1594.6086)" class="st12" width="11.2" height="13.7"/>
		
			<rect x="973.9" y="617.9" transform="matrix(6.123234e-17 -1 1 6.123234e-17 348.9859 1603.0608)" class="st12" width="4.3" height="18.3"/>
		
			<rect x="972.1" y="613.4" transform="matrix(6.123234e-17 -1 1 6.123234e-17 357.4191 1594.6401)" class="st12" width="7.9" height="10.5"/>
	</g>
</g>
</svg>
