<?xml version="1.0" encoding="utf-8"?>
<!-- Generator: Adobe Illustrator 28.0.0, SVG Export Plug-In . SVG Version: 6.00 Build 0)  -->
<svg version="1.1" id="Layer_1" xmlns="http://www.w3.org/2000/svg" xmlns:xlink="http://www.w3.org/1999/xlink" x="0px" y="0px"
	 width="1207.8px" height="937px" viewBox="0 0 1207.8 937" style="enable-background:new 0 0 1207.8 937;" xml:space="preserve">
<style type="text/css">
	.st0{fill:none;}
	.st1{fill:none;stroke:#231F20;stroke-width:0.3;}
	.st2{fill:none;stroke:#A2C9EA;stroke-miterlimit:10;}
	.st3{fill:#A2C9EA;}
	.st4{font-family:'Arial-ItalicMT';}
	.st5{font-size:14.001px;}
	.st6{font-family:'ArialNarrow-Bold';}
	.st7{font-size:33.4957px;}
	.st8{font-size:14px;}
	.st9{font-family:'ArialNarrow-Italic';}
	.st10{font-size:14.6406px;}
	.st11{fill:#B9DDA4;stroke:#000000;stroke-miterlimit:10;}
	.st12{fill:#B9DDA4;stroke:#000000;stroke-width:1;stroke-miterlimit:10;}
	.st13{fill:none;stroke:#000000;stroke-width:1.5;stroke-miterlimit:10;}
	.st14{fill:none;stroke:#000000;stroke-width:1.3;stroke-miterlimit:10;}
	.st15{stroke:#000000;stroke-width:1.3;stroke-miterlimit:10;}
	.st16{fill:none;stroke:#000000;stroke-width:4;stroke-linecap:round;stroke-linejoin:round;stroke-miterlimit:10;}
	.st17{fill:#FCECA4;stroke:#000000;stroke-width:1;stroke-miterlimit:9.9994;}
	.st18{fill:#C4EBF7;stroke:#000000;stroke-width:1;stroke-miterlimit:9.9994;}
	.st19{fill:url(#SVGID_00000128446429290030450890000011773709274075700905_);stroke:#000000;stroke-miterlimit:10;}
	.st20{fill:none;stroke:#000000;stroke-miterlimit:10;}
	.st21{fill:url(#SVGID_00000008852007158753718490000015994558854002638218_);stroke:#000000;stroke-miterlimit:10;}
	.st22{font-family:'MyriadPro-Regular';}
	.st23{font-size:12.5827px;}
	.st24{fill:#E4F2F9;}
	.st25{font-family:'Arial-BoldMT';}
	.st26{font-size:269.6306px;}
	.st27{letter-spacing:4;}
	.st28{font-size:48.004px;}
	.st29{fill:#E5E5E5;stroke:#000000;stroke-width:2;stroke-linecap:round;stroke-linejoin:round;stroke-miterlimit:10.0004;}
	.st30{fill:url(#SVGID_00000134214076538527985420000009558644022051829144_);stroke:#000000;stroke-miterlimit:10;}
	.st31{fill:#FF0000;}
	.st32{fill:#FFFFFF;}
	.st33{fill:#146EDC;}
</style>
<pattern  y="937" width="72" height="72" patternUnits="userSpaceOnUse" id="SVGID_0000011547449684445992603" viewBox="72.2 -144.2 72 72" style="overflow:visible;">
	<g>
		<rect x="72.2" y="-144.2" class="st0" width="72" height="72"/>
		<g>
			<rect x="72.2" y="-144.2" class="st0" width="72" height="72"/>
			<g>
				<rect x="72.2" y="-144.2" class="st0" width="72" height="72"/>
				<g>
					<line class="st1" x1="78.2" y1="-72.5" x2="78.2" y2="0"/>
					<line class="st1" x1="102.2" y1="-72.5" x2="102.2" y2="0"/>
					<line class="st1" x1="126.2" y1="-72.5" x2="126.2" y2="0"/>
					<line class="st1" x1="90.2" y1="-72.5" x2="90.2" y2="0"/>
					<line class="st1" x1="114.2" y1="-72.5" x2="114.2" y2="0"/>
					<line class="st1" x1="138.2" y1="-72.5" x2="138.2" y2="0"/>
				</g>
				<g>
					<line class="st1" x1="144" y1="-78.2" x2="216.5" y2="-78.2"/>
					<line class="st1" x1="144" y1="-102.2" x2="216.5" y2="-102.2"/>
					<line class="st1" x1="144" y1="-126.2" x2="216.5" y2="-126.2"/>
					<line class="st1" x1="144" y1="-90.2" x2="216.5" y2="-90.2"/>
					<line class="st1" x1="144" y1="-114.2" x2="216.5" y2="-114.2"/>
					<line class="st1" x1="144" y1="-138.2" x2="216.5" y2="-138.2"/>
				</g>
				<g>
					<line class="st1" x1="78.2" y1="-144.5" x2="78.2" y2="-72"/>
					<line class="st1" x1="102.2" y1="-144.5" x2="102.2" y2="-72"/>
					<line class="st1" x1="126.2" y1="-144.5" x2="126.2" y2="-72"/>
					<line class="st1" x1="72" y1="-78.2" x2="144.5" y2="-78.2"/>
					<line class="st1" x1="72" y1="-102.2" x2="144.5" y2="-102.2"/>
					<line class="st1" x1="72" y1="-126.2" x2="144.5" y2="-126.2"/>
					<line class="st1" x1="72" y1="-90.2" x2="144.5" y2="-90.2"/>
					<line class="st1" x1="72" y1="-114.2" x2="144.5" y2="-114.2"/>
					<line class="st1" x1="72" y1="-138.2" x2="144.5" y2="-138.2"/>
					<line class="st1" x1="90.2" y1="-144.5" x2="90.2" y2="-72"/>
					<line class="st1" x1="114.2" y1="-144.5" x2="114.2" y2="-72"/>
					<line class="st1" x1="138.2" y1="-144.5" x2="138.2" y2="-72"/>
				</g>
				<g>
					<line class="st1" x1="0" y1="-78.2" x2="72.5" y2="-78.2"/>
					<line class="st1" x1="0" y1="-102.2" x2="72.5" y2="-102.2"/>
					<line class="st1" x1="0" y1="-126.2" x2="72.5" y2="-126.2"/>
					<line class="st1" x1="0" y1="-90.2" x2="72.5" y2="-90.2"/>
					<line class="st1" x1="0" y1="-114.2" x2="72.5" y2="-114.2"/>
					<line class="st1" x1="0" y1="-138.2" x2="72.5" y2="-138.2"/>
				</g>
				<g>
					<line class="st1" x1="78.2" y1="-216.5" x2="78.2" y2="-144"/>
					<line class="st1" x1="102.2" y1="-216.5" x2="102.2" y2="-144"/>
					<line class="st1" x1="126.2" y1="-216.5" x2="126.2" y2="-144"/>
					<line class="st1" x1="90.2" y1="-216.5" x2="90.2" y2="-144"/>
					<line class="st1" x1="114.2" y1="-216.5" x2="114.2" y2="-144"/>
					<line class="st1" x1="138.2" y1="-216.5" x2="138.2" y2="-144"/>
				</g>
			</g>
		</g>
	</g>
</pattern>
<pattern  y="937" width="72" height="72" patternUnits="userSpaceOnUse" id="SVGID_0000014502407959756849583" viewBox="72.2 -144.2 72 72" style="overflow:visible;">
	<g>
		<rect x="72.2" y="-144.2" class="st0" width="72" height="72"/>
		<g>
			<rect x="72.2" y="-144.2" class="st0" width="72" height="72"/>
			<g>
				<rect x="72.2" y="-144.2" class="st0" width="72" height="72"/>
				<g>
					<line class="st1" x1="78.2" y1="-72.5" x2="78.2" y2="0"/>
					<line class="st1" x1="102.2" y1="-72.5" x2="102.2" y2="0"/>
					<line class="st1" x1="126.2" y1="-72.5" x2="126.2" y2="0"/>
					<line class="st1" x1="90.2" y1="-72.5" x2="90.2" y2="0"/>
					<line class="st1" x1="114.2" y1="-72.5" x2="114.2" y2="0"/>
					<line class="st1" x1="138.2" y1="-72.5" x2="138.2" y2="0"/>
				</g>
				<g>
					<line class="st1" x1="144" y1="-78.2" x2="216.5" y2="-78.2"/>
					<line class="st1" x1="144" y1="-102.2" x2="216.5" y2="-102.2"/>
					<line class="st1" x1="144" y1="-126.2" x2="216.5" y2="-126.2"/>
					<line class="st1" x1="144" y1="-90.2" x2="216.5" y2="-90.2"/>
					<line class="st1" x1="144" y1="-114.2" x2="216.5" y2="-114.2"/>
					<line class="st1" x1="144" y1="-138.2" x2="216.5" y2="-138.2"/>
				</g>
				<g>
					<line class="st1" x1="78.2" y1="-144.5" x2="78.2" y2="-72"/>
					<line class="st1" x1="102.2" y1="-144.5" x2="102.2" y2="-72"/>
					<line class="st1" x1="126.2" y1="-144.5" x2="126.2" y2="-72"/>
					<line class="st1" x1="72" y1="-78.2" x2="144.5" y2="-78.2"/>
					<line class="st1" x1="72" y1="-102.2" x2="144.5" y2="-102.2"/>
					<line class="st1" x1="72" y1="-126.2" x2="144.5" y2="-126.2"/>
					<line class="st1" x1="72" y1="-90.2" x2="144.5" y2="-90.2"/>
					<line class="st1" x1="72" y1="-114.2" x2="144.5" y2="-114.2"/>
					<line class="st1" x1="72" y1="-138.2" x2="144.5" y2="-138.2"/>
					<line class="st1" x1="90.2" y1="-144.5" x2="90.2" y2="-72"/>
					<line class="st1" x1="114.2" y1="-144.5" x2="114.2" y2="-72"/>
					<line class="st1" x1="138.2" y1="-144.5" x2="138.2" y2="-72"/>
				</g>
				<g>
					<line class="st1" x1="0" y1="-78.2" x2="72.5" y2="-78.2"/>
					<line class="st1" x1="0" y1="-102.2" x2="72.5" y2="-102.2"/>
					<line class="st1" x1="0" y1="-126.2" x2="72.5" y2="-126.2"/>
					<line class="st1" x1="0" y1="-90.2" x2="72.5" y2="-90.2"/>
					<line class="st1" x1="0" y1="-114.2" x2="72.5" y2="-114.2"/>
					<line class="st1" x1="0" y1="-138.2" x2="72.5" y2="-138.2"/>
				</g>
				<g>
					<line class="st1" x1="78.2" y1="-216.5" x2="78.2" y2="-144"/>
					<line class="st1" x1="102.2" y1="-216.5" x2="102.2" y2="-144"/>
					<line class="st1" x1="126.2" y1="-216.5" x2="126.2" y2="-144"/>
					<line class="st1" x1="90.2" y1="-216.5" x2="90.2" y2="-144"/>
					<line class="st1" x1="114.2" y1="-216.5" x2="114.2" y2="-144"/>
					<line class="st1" x1="138.2" y1="-216.5" x2="138.2" y2="-144"/>
				</g>
			</g>
		</g>
	</g>
</pattern>
<pattern  y="937" width="72" height="72" patternUnits="userSpaceOnUse" id="SVGID_1_" viewBox="72.2 -144.2 72 72" style="overflow:visible;">
	<g>
		<rect x="72.2" y="-144.2" class="st0" width="72" height="72"/>
		<g>
			<rect x="72.2" y="-144.2" class="st0" width="72" height="72"/>
			<g>
				<rect x="72.2" y="-144.2" class="st0" width="72" height="72"/>
				<g>
					<line class="st1" x1="78.2" y1="-72.5" x2="78.2" y2="0"/>
					<line class="st1" x1="102.2" y1="-72.5" x2="102.2" y2="0"/>
					<line class="st1" x1="126.2" y1="-72.5" x2="126.2" y2="0"/>
					<line class="st1" x1="90.2" y1="-72.5" x2="90.2" y2="0"/>
					<line class="st1" x1="114.2" y1="-72.5" x2="114.2" y2="0"/>
					<line class="st1" x1="138.2" y1="-72.5" x2="138.2" y2="0"/>
				</g>
				<g>
					<line class="st1" x1="144" y1="-78.2" x2="216.5" y2="-78.2"/>
					<line class="st1" x1="144" y1="-102.2" x2="216.5" y2="-102.2"/>
					<line class="st1" x1="144" y1="-126.2" x2="216.5" y2="-126.2"/>
					<line class="st1" x1="144" y1="-90.2" x2="216.5" y2="-90.2"/>
					<line class="st1" x1="144" y1="-114.2" x2="216.5" y2="-114.2"/>
					<line class="st1" x1="144" y1="-138.2" x2="216.5" y2="-138.2"/>
				</g>
				<g>
					<line class="st1" x1="78.2" y1="-144.5" x2="78.2" y2="-72"/>
					<line class="st1" x1="102.2" y1="-144.5" x2="102.2" y2="-72"/>
					<line class="st1" x1="126.2" y1="-144.5" x2="126.2" y2="-72"/>
					<line class="st1" x1="72" y1="-78.2" x2="144.5" y2="-78.2"/>
					<line class="st1" x1="72" y1="-102.2" x2="144.5" y2="-102.2"/>
					<line class="st1" x1="72" y1="-126.2" x2="144.5" y2="-126.2"/>
					<line class="st1" x1="72" y1="-90.2" x2="144.5" y2="-90.2"/>
					<line class="st1" x1="72" y1="-114.2" x2="144.5" y2="-114.2"/>
					<line class="st1" x1="72" y1="-138.2" x2="144.5" y2="-138.2"/>
					<line class="st1" x1="90.2" y1="-144.5" x2="90.2" y2="-72"/>
					<line class="st1" x1="114.2" y1="-144.5" x2="114.2" y2="-72"/>
					<line class="st1" x1="138.2" y1="-144.5" x2="138.2" y2="-72"/>
				</g>
				<g>
					<line class="st1" x1="0" y1="-78.2" x2="72.5" y2="-78.2"/>
					<line class="st1" x1="0" y1="-102.2" x2="72.5" y2="-102.2"/>
					<line class="st1" x1="0" y1="-126.2" x2="72.5" y2="-126.2"/>
					<line class="st1" x1="0" y1="-90.2" x2="72.5" y2="-90.2"/>
					<line class="st1" x1="0" y1="-114.2" x2="72.5" y2="-114.2"/>
					<line class="st1" x1="0" y1="-138.2" x2="72.5" y2="-138.2"/>
				</g>
				<g>
					<line class="st1" x1="78.2" y1="-216.5" x2="78.2" y2="-144"/>
					<line class="st1" x1="102.2" y1="-216.5" x2="102.2" y2="-144"/>
					<line class="st1" x1="126.2" y1="-216.5" x2="126.2" y2="-144"/>
					<line class="st1" x1="90.2" y1="-216.5" x2="90.2" y2="-144"/>
					<line class="st1" x1="114.2" y1="-216.5" x2="114.2" y2="-144"/>
					<line class="st1" x1="138.2" y1="-216.5" x2="138.2" y2="-144"/>
				</g>
			</g>
		</g>
	</g>
</pattern>
<g id="streets">
	<g id="San_fernando">
		<line class="st2" x1="284.9" y1="142.9" x2="471.4" y2="24.9"/>
		<line class="st2" x1="297.3" y1="162.7" x2="505.7" y2="30.9"/>
		<polygon class="st0" points="460.8,56.5 317.2,147.6 310.3,136.9 453.9,45.8 		"/>
		<text transform="matrix(0.8481 -0.5299 0.5299 0.8481 337.2661 130.4937)" class="st3 st4 st5">San Fernando Street</text>
	</g>
	<g>
		<polygon class="st3" points="511.4,87.5 504.1,120.2 544.1,94.9 		"/>
		
			<rect x="487" y="62.1" transform="matrix(0.8238 -0.5669 0.5669 0.8238 45.1267 295.9727)" class="st0" width="23.3" height="26.6"/>
		<text transform="matrix(0.829 -0.5592 0.5592 0.829 496.3652 89.7178)" class="st3 st6 st7">N</text>
	</g>
	<g id="_x34_th_Street">
		<line class="st2" x1="311.8" y1="745.4" x2="144.5" y2="421.7"/>
		<line class="st2" x1="333.2" y1="735.8" x2="165.4" y2="411.1"/>
		
			<rect x="229.9" y="499.3" transform="matrix(0.8786 -0.4776 0.4776 0.8786 -245.3593 183.0779)" class="st0" width="15" height="149.6"/>
		<text transform="matrix(-0.4695 -0.8829 0.8829 -0.4695 249.3047 592.6307)" class="st3 st4 st8">Fourth Street</text>
	</g>
	<g id="SJSU_CAMPUS">
		<polygon class="st3" points="1179.3,734.5 1154.1,715.1 1159.9,759.7 		"/>
		
			<rect x="1127.1" y="671.8" transform="matrix(0.9858 -0.1678 0.1678 0.9858 -106.9223 201.6409)" class="st0" width="25.2" height="123.4"/>
		<text transform="matrix(0.1586 0.9873 -0.9873 0.1586 1137.0145 699.5504)" class="st3 st9 st10">SJSU Campus</text>
	</g>
	<g id="Elev_x2F_esc_x2F_stairs">
		<polyline id="elevator" class="st11" points="794.9,445.3 875.9,500 907.7,521.4 895.2,539.6 783.2,463.8 794.9,445.3 		"/>
		
			<rect x="877.4" y="464" transform="matrix(0.566 -0.8244 0.8244 0.566 -5.0939 959.1105)" class="st12" width="62" height="40.8"/>
		<g id="elevator_00000155118643947176890710000006878021629677294758_">
			<g id="LINE_4731_">
				<line class="st13" x1="812.6" y1="460.9" x2="798.4" y2="451.2"/>
			</g>
			<g id="LINE_4735_">
				<line class="st13" x1="803.8" y1="473.7" x2="800.5" y2="471.4"/>
			</g>
			<g id="LINE_4738_">
				<line class="st13" x1="793" y1="466.3" x2="789.6" y2="463.9"/>
			</g>
			<g id="LINE_4741_">
				<line class="st13" x1="812.6" y1="460.9" x2="803.8" y2="473.7"/>
			</g>
			<g id="LINE_4744_">
				<line class="st13" x1="813.2" y1="460.8" x2="798.3" y2="450.6"/>
			</g>
			<g id="LINE_4745_">
				<line class="st13" x1="812.7" y1="460.7" x2="798.5" y2="451"/>
			</g>
			<g id="LINE_4746_">
				<line class="st13" x1="798.4" y1="451.2" x2="789.6" y2="463.9"/>
			</g>
			<g id="LINE_4747_">
				<line class="st13" x1="798.8" y1="450.9" x2="798.6" y2="451.3"/>
			</g>
			<g id="LINE_4748_">
				<line class="st13" x1="812.7" y1="460.4" x2="812.4" y2="460.8"/>
			</g>
			<g id="LINE_00000023963411821320410900000009994663940296984221_">
				<line class="st13" x1="832.3" y1="474.4" x2="818.1" y2="464.7"/>
			</g>
			<g id="LINE_00000036243211870807232230000004294824485503304094_">
				<line class="st13" x1="823.5" y1="487.2" x2="820.1" y2="484.9"/>
			</g>
			<g id="LINE_00000021083911021367709180000006361326137356006789_">
				<line class="st13" x1="812.7" y1="479.7" x2="809.3" y2="477.4"/>
			</g>
			<g id="LINE_00000157305032477417135590000014763398251095956890_">
				<line class="st13" x1="832.3" y1="474.4" x2="823.5" y2="487.2"/>
			</g>
			<g id="LINE_00000061429359115443803660000001421681803928210091_">
				<line class="st13" x1="832.8" y1="474.3" x2="817.9" y2="464.1"/>
			</g>
			<g id="LINE_00000137096246246306441270000002996625498926383788_">
				<line class="st13" x1="832.4" y1="474.2" x2="818.2" y2="464.5"/>
			</g>
			<g id="LINE_00000172415491339264399940000003389993333652483473_">
				<line class="st13" x1="818.1" y1="464.7" x2="809.3" y2="477.4"/>
			</g>
			<g id="LINE_00000182499327570779227240000011350039420364845744_">
				<line class="st13" x1="851.9" y1="487.9" x2="837.7" y2="478.1"/>
			</g>
			<g id="LINE_00000137827711904242877120000013475160053294783399_">
				<line class="st13" x1="843.1" y1="500.7" x2="839.8" y2="498.4"/>
			</g>
			<g id="LINE_00000110430310769929994080000003016575270157341115_">
				<line class="st13" x1="832.3" y1="493.2" x2="828.9" y2="490.9"/>
			</g>
			<g id="LINE_00000001632994639779474680000017729122945952289951_">
				<line class="st13" x1="851.9" y1="487.9" x2="843.1" y2="500.7"/>
			</g>
			<g id="LINE_00000101093348003495924100000015220336780324354982_">
				<line class="st13" x1="852.5" y1="487.8" x2="837.6" y2="477.6"/>
			</g>
			<g id="LINE_00000123417822785358762020000005155066374409787060_">
				<line class="st13" x1="852" y1="487.7" x2="837.8" y2="478"/>
			</g>
			<g id="LINE_00000001631246263749752440000010237371117853874571_">
				<line class="st13" x1="837.7" y1="478.1" x2="828.9" y2="490.9"/>
			</g>
			<g id="LINE_00000086666489933795298720000013289038007283657891_">
				<line class="st13" x1="871.6" y1="501.4" x2="857.4" y2="491.6"/>
			</g>
			<g id="LINE_00000010286446039431400240000004179056468150093201_">
				<line class="st13" x1="862.8" y1="514.2" x2="859.4" y2="511.8"/>
			</g>
			<g id="LINE_00000078723507910867709110000003996737817167854731_">
				<line class="st13" x1="852" y1="506.7" x2="848.6" y2="504.4"/>
			</g>
			<g id="LINE_00000084494013187931397180000013021804154882057626_">
				<line class="st13" x1="871.6" y1="501.4" x2="862.8" y2="514.2"/>
			</g>
			<g id="LINE_00000103244059294916214250000010451246233931379622_">
				<line class="st13" x1="872.2" y1="501.3" x2="857.3" y2="491.1"/>
			</g>
			<g id="LINE_00000102513105850367397460000008568563727976591525_">
				<line class="st13" x1="871.7" y1="501.2" x2="857.5" y2="491.5"/>
			</g>
			<g id="LINE_00000077294377489538548660000017451036063543871892_">
				<line class="st13" x1="857.4" y1="491.6" x2="848.6" y2="504.4"/>
			</g>
			<g id="LINE_00000084502092826103097570000007421885943408696208_">
				<line class="st13" x1="891.2" y1="514.9" x2="877" y2="505.1"/>
			</g>
			<g id="LINE_00000054242181457467428560000001838774522505732244_">
				<line class="st13" x1="882.4" y1="527.7" x2="879.1" y2="525.3"/>
			</g>
			<g id="LINE_00000038399793835736963570000006870936880396350634_">
				<line class="st13" x1="871.6" y1="520.2" x2="868.2" y2="517.9"/>
			</g>
			<g id="LINE_00000085233646092173888780000001954179608992735126_">
				<line class="st13" x1="891.2" y1="514.9" x2="882.4" y2="527.7"/>
			</g>
			<g id="LINE_00000140724683986225496660000005009668492149025922_">
				<line class="st13" x1="891.8" y1="514.8" x2="876.9" y2="504.5"/>
			</g>
			<g id="LINE_00000009576526774020755230000003960706048185272964_">
				<line class="st13" x1="891.3" y1="514.7" x2="877.1" y2="505"/>
			</g>
			<g id="LINE_00000142166729456088507190000006205798940652332981_">
				<line class="st13" x1="877" y1="505.1" x2="868.2" y2="517.9"/>
			</g>
		</g>
	</g>
	<g id="stairs">
		<g>
			<polygon class="st14" points="894.8,478 894.8,478 894.8,478 888.2,487.4 881.5,496.9 903.6,512.3 910.2,502.9 897.6,494.1 
				904.3,484.6 916.9,493.4 923.5,484 901.4,468.5 			"/>
			<line class="st14" x1="907.1" y1="500.7" x2="900.5" y2="510.1"/>
			<line class="st14" x1="903.9" y1="498.5" x2="897.3" y2="507.9"/>
			<line class="st14" x1="900.8" y1="496.3" x2="894.2" y2="505.7"/>
			<line class="st14" x1="913.7" y1="491.2" x2="920.3" y2="481.8"/>
			<line class="st14" x1="910.6" y1="489" x2="917.2" y2="479.6"/>
			<line class="st14" x1="907.4" y1="486.8" x2="914" y2="477.4"/>
			<line class="st14" x1="904.3" y1="484.6" x2="894.8" y2="478"/>
			<line class="st14" x1="902.1" y1="487.8" x2="892.6" y2="481.1"/>
			<line class="st14" x1="899.8" y1="490.9" x2="890.4" y2="484.3"/>
			<line class="st14" x1="897.6" y1="494.1" x2="888.2" y2="487.4"/>
			<line class="st14" x1="910.9" y1="475.2" x2="904.3" y2="484.6"/>
			<line class="st14" x1="910.9" y1="475.2" x2="891" y2="503.5"/>
			<polyline class="st14" points="906.9,507.6 889.3,495.3 902.5,476.4 917.8,487 			"/>
			<polygon class="st15" points="920.1,488.7 918.2,486.4 917.8,487 917.3,487.7 			"/>
			<path class="st15" d="M906.6,508.2c0.3,0.2,0.7,0.1,0.9-0.2c0.2-0.3,0.1-0.7-0.2-0.9c-0.3-0.2-0.7-0.1-0.9,0.2
				C906.2,507.6,906.3,508,906.6,508.2z"/>
		</g>
	</g>
</g>
<g id="Sixth_00000154401791856350203480000008931006233307838395_">
	<g id="outline">
		<path class="st16" d="M424.4,414.3c-4.3,6.3-84,122.5-89.4,130.5c5.5,4,10,6.9,18.4,12.7c48.8,33.8,174.9,119.2,177.8,122.3
			c11.6,20.1,41.5,71.1,47.7,81.9c3,5.8,6.3-3.8,9.3-7.1c4.8-7,11-16.1,13.7-20c1.4-1.9,1.9-3.5,2.8-4.5
			c70,47.9,287.5,196.9,296.9,203.3c41.1-23.4,112.3-66.6,156.1-92c1.4-1,2.4-1.1,2.7-1.8c-1.8-1.3-95.4-66.9-100.8-70.8
			c-0.6-0.5,0-0.7,0.7-1.8c10.8-15.6,29.5-43.2,40.1-58.5c7.5-8.4,146.8-89.5,152.4-95.7c-11.1-7.4-236.6-161.1-243.7-165.6
			c-7.6,10.8-23.6,34.4-33.3,48.5c-1.4,2.5-1.7,0.9-3.4,0c-11.6-7.9-63.2-43.3-72.6-49.7c-1.2-0.9-1.3-0.6-0.1-2.3
			c8.2-12,30.1-43.8,33.3-48.4c-10.9-22.2-41.8-70.4-50.8-87c-0.5-0.9-1-1.6-1.5-2.5c-0.8-1.1-0.4-2.3-2.1,0.1
			c-4.9,7.1-18.9,27.5-22.6,32.9c-10.6,0.8-247.3-168.8-269-181.2c-4-0.1-14.5,176.4-16.6,185.3c-0.6,0.9-2.3,1.1-3.9,0
			c-9.2-6.3-27.4-18.8-38-26c-2.6-1.8-3.2-1.5-3.1,0.5c0,15.7,0.3,88.1,0.3,94.4"/>
	</g>
	<g id="text_00000075121470671575577530000000565139082558966951_">
		<g id="Layer_1_00000045606344498145807080000015239876702753396915_">
			
				<rect x="592.5" y="284.2" transform="matrix(0.5589 -0.8292 0.8292 0.5589 -0.6416 654.0411)" class="st17" width="44" height="86.8"/>
			
				<rect x="693.4" y="294.9" transform="matrix(0.5589 -0.8292 0.8292 0.5589 36.217 737.2446)" class="st17" width="35.4" height="79.4"/>
			
				<rect x="495.8" y="608.6" transform="matrix(0.5589 -0.8292 0.8292 0.5589 -307.0594 709.565)" class="st17" width="35.4" height="69.6"/>
			
				<rect x="773.5" y="503.8" transform="matrix(0.5589 -0.8292 0.8292 0.5589 -157.5076 948.5377)" class="st18" width="78.7" height="237"/>
			<g>
				
					<pattern  id="SVGID_00000126285491601437818380000015681901311451993997_" xlink:href="#SVGID_1_" patternTransform="matrix(1 0 0 1 9.4 17668.2207)">
				</pattern>
				
					<polyline style="fill:url(#SVGID_00000126285491601437818380000015681901311451993997_);stroke:#000000;stroke-miterlimit:10;" points="
					981.9,885.4 906.4,931.8 905,933.8 709.5,802 708.5,801.4 757,729.4 756.3,730.4 984.3,884.1 				"/>
			</g>
			
				<rect x="458.4" y="518.7" transform="matrix(0.5589 -0.8292 0.8292 0.5589 -257.7119 639.6619)" class="st17" width="28.1" height="86.8"/>
			<line class="st20" x1="460.9" y1="570.6" x2="476.2" y2="547.9"/>
			<line class="st20" x1="504.1" y1="658.8" x2="523.8" y2="629.6"/>
			<line class="st20" x1="589.5" y1="336.8" x2="613.5" y2="301.1"/>
			<line class="st20" x1="614.2" y1="354.3" x2="639.1" y2="317.4"/>
			<line class="st20" x1="693.7" y1="344.2" x2="714" y2="314.1"/>
			<line class="st20" x1="713.5" y1="358" x2="733.1" y2="328.9"/>
			
				<pattern  id="SVGID_00000179618662396494779470000000029804834981244291_" xlink:href="#SVGID_0000011547449684445992603" patternTransform="matrix(1 0 0 1 9.4 17668.2207)">
			</pattern>
			
				<polygon style="fill:url(#SVGID_00000179618662396494779470000000029804834981244291_);stroke:#000000;stroke-miterlimit:10;" points="
				687.9,296.7 663.1,333.7 590.6,285.2 615.4,248.1 			"/>
		</g>
		
			<rect x="805.6" y="600" transform="matrix(9.145883e-03 -1 1 9.145883e-03 181.477 1430.9176)" class="st0" width="14.3" height="47.8"/>
		<text transform="matrix(1 9.145883e-03 -9.145883e-03 1 794.5737 625.5434)" class="st22 st23">Atrium</text>
		
			<rect x="684.3" y="308.6" transform="matrix(9.145883e-03 -1 1 9.145883e-03 362.0213 1008.4525)" class="st0" width="11.1" height="25.9"/>
		<text transform="matrix(1 9.145883e-03 -9.145883e-03 1 680.1606 324.8662)" class="st22 st23">606</text>
		
			<rect x="708.1" y="323.9" transform="matrix(9.145883e-03 -1 1 9.145883e-03 370.2483 1047.4081)" class="st0" width="11.1" height="25.9"/>
		<text transform="matrix(1 9.145883e-03 -9.145883e-03 1 703.9756 340.1824)" class="st22 st23">604</text>
		
			<rect x="728.8" y="338.1" transform="matrix(9.145883e-03 -1 1 9.145883e-03 376.6243 1082.105)" class="st0" width="11.1" height="25.9"/>
		<text transform="matrix(1 9.145883e-03 -9.145883e-03 1 724.5414 354.3354)" class="st22 st23">602</text>
		
			<rect x="584" y="299.2" transform="matrix(9.145883e-03 -1 1 9.145883e-03 272.0183 898.7888)" class="st0" width="11.1" height="25.9"/>
		<text transform="matrix(1 9.145883e-03 -9.145883e-03 1 579.7486 315.4324)" class="st22 st23">626</text>
		
			<rect x="609.1" y="316.2" transform="matrix(9.145883e-03 -1 1 9.145883e-03 279.8791 940.7713)" class="st0" width="11.1" height="25.9"/>
		<text transform="matrix(1 9.145883e-03 -9.145883e-03 1 604.9116 332.527)" class="st22 st23">624</text>
		
			<rect x="633.1" y="333.9" transform="matrix(9.145883e-03 -1 1 9.145883e-03 287.3889 979.4396)" class="st0" width="9.7" height="21.6"/>
		<text transform="matrix(1 9.145883e-03 -9.145883e-03 1 628.1536 348.6694)" class="st22 st23">622</text>
		
			<rect x="447" y="537" transform="matrix(9.145883e-03 -1 1 9.145883e-03 -101.4579 997.491)" class="st0" width="11.1" height="25.9"/>
		<text transform="matrix(1 9.145883e-03 -9.145883e-03 1 442.8896 553.3063)" class="st22 st23">632</text>
		
			<rect x="484.1" y="560.1" transform="matrix(9.145883e-03 -1 1 9.145883e-03 -87.834 1057.5132)" class="st0" width="11.1" height="25.9"/>
		<text transform="matrix(1 9.145883e-03 -9.145883e-03 1 479.9606 576.3573)" class="st22 st23">634</text>
		
			<rect x="494.7" y="622.4" transform="matrix(9.145883e-03 -1 1 9.145883e-03 -139.6118 1129.7205)" class="st0" width="11.1" height="25.9"/>
		<text transform="matrix(1 9.145883e-03 -9.145883e-03 1 490.4749 638.5869)" class="st22 st23">662</text>
		
			<rect x="524.3" y="642.7" transform="matrix(9.145883e-03 -1 1 9.145883e-03 -130.5773 1179.4679)" class="st0" width="11.1" height="25.9"/>
		<text transform="matrix(1 9.145883e-03 -9.145883e-03 1 520.0815 658.8781)" class="st22 st23">664</text>
		
			<rect x="78.8" y="108" transform="matrix(9.145883e-03 -1 1 9.145883e-03 -5.6986 368.5807)" class="st0" width="208.7" height="158.4"/>
		<text transform="matrix(1 9.145883e-03 -9.145883e-03 1 103.1162 275.197)" class="st24 st25 st26 st27">6</text>
		
			<rect x="112" y="-57.5" transform="matrix(9.145883e-03 -1 1 9.145883e-03 57.8274 213.3368)" class="st0" width="49.1" height="270"/>
		<text transform="matrix(1 9.145883e-03 -9.145883e-03 1 1.5374 86.1848)" class="st25 st28">Sixth Floor</text>
	</g>
	
		<rect x="939.7" y="500.1" transform="matrix(0.5518 -0.834 0.834 0.5518 -9.5488 1053.3744)" class="st29" width="71" height="71"/>
	
		<pattern  id="SVGID_00000176734277490383285410000006551275783706544570_" xlink:href="#SVGID_0000014502407959756849583" patternTransform="matrix(1 0 0 1 9.4 17668.2207)">
	</pattern>
	
		<polygon style="fill:url(#SVGID_00000176734277490383285410000006551275783706544570_);stroke:#000000;stroke-miterlimit:10;" points="
		500.9,598.8 474.6,638.1 402.1,589.6 428.4,550.2 	"/>
</g>
<g id="exits_x2C__restrooms">
	<g>
		<g id="Layer_1_00000042007272843511667690000008406306761235619238_">
			<g id="Layer_2_00000022556735553191659450000005795340208093633970_">
				<g id="Image_29_00000173841480334063734140000011531086694327245201_">
					<g id="Ellipse_1_copy_2_00000107550855543152140580000014742607775612015036_">
						<circle class="st31" cx="932" cy="465.9" r="14.4"/>
					</g>
				</g>
			</g>
		</g>
		<g>
			<g>
				<path class="st32" d="M940.2,457.1l-5-1.7c-0.3-0.1-0.6,0.1-0.6,0.4v1.3h-4.9c-0.2,0-0.4,0.2-0.4,0.4v1.5c0.3,0,0.5,0.1,0.8,0.2
					v-1.3h4.4v15.3h-3v0.2c0,0.2,0.1,0.4,0,0.6h2.9v1.3c0,0.3,0.3,0.6,0.6,0.5l5-1.7c0.2-0.1,0.3-0.2,0.3-0.4v-16.1
					C940.5,457.3,940.4,457.1,940.2,457.1z"/>
				<g>
					<g>
						<path class="st32" d="M921.9,472.5h3.2c0.4,0,0.8-0.3,0.9-0.7l0.3-1.3l-1.6-1.3l0,0l-0.4,1.4h-2.5c-0.5,0-1,0.4-1,1
							C921,472.1,921.4,472.5,921.9,472.5z"/>
						<path class="st32" d="M929.3,463.3c0.9-0.2,1.5-1.1,1.2-2c-0.2-0.9-1.1-1.5-2-1.2c-0.9,0.2-1.5,1.1-1.2,2
							C927.5,463,928.4,463.5,929.3,463.3z"/>
						<path class="st32" d="M923.2,467.3c0.4,0.2,0.9,0,1-0.4l0.6-1.4l0.9-0.3L925,468c-0.1,0.4,0,0.7,0.3,1l2.7,2.2l0.7,2.9
							c0.1,0.4,0.5,0.7,0.9,0.7c0.1,0,0.2,0,0.2,0c0.5-0.1,0.8-0.6,0.7-1.2l-0.8-3.2c0-0.2-0.2-0.4-0.3-0.5l-1.7-1.4l0.9-2.4
							l0.9,1.1c0.2,0.2,0.4,0.3,0.6,0.3c0.1,0,0.3,0,0.4-0.1l1.6-1c0.4-0.2,0.5-0.7,0.3-1.1s-0.7-0.5-1.1-0.3l-1,0.6l-0.9-1
							c-0.2-0.3-0.5-0.5-0.9-0.6l-1.4-0.5c-0.4-0.2-0.9-0.2-1.3,0l-1.9,0.6c-0.2,0.1-0.4,0.2-0.5,0.4l-0.8,1.8
							C922.6,466.7,922.8,467.2,923.2,467.3z"/>
					</g>
				</g>
			</g>
		</g>
	</g>
	<g>
		<g id="Layer_1_00000019663380885152700260000017736699896416463545_">
			<g id="Layer_2_00000150801938894541612660000009455676156958400433_">
				<g id="Image_29_00000049214467997389285920000008911158312051820730_">
					<g id="Ellipse_1_copy_2_00000160154265438407168590000015565595157570235035_">
						<circle class="st31" cx="423.8" cy="587.7" r="14.4"/>
					</g>
				</g>
			</g>
		</g>
		<g>
			<g>
				<path class="st32" d="M432,578.9l-5-1.7c-0.3-0.1-0.6,0.1-0.6,0.4v1.3h-4.9c-0.2,0-0.4,0.2-0.4,0.4v1.5c0.3,0,0.5,0.1,0.8,0.2
					v-1.3h4.4V595h-3v0.2c0,0.2,0.1,0.4,0,0.6h2.9v1.3c0,0.3,0.3,0.6,0.6,0.5l5-1.7c0.2-0.1,0.3-0.2,0.3-0.4v-16.1
					C432.3,579.1,432.2,578.9,432,578.9z"/>
				<g>
					<g>
						<path class="st32" d="M413.7,594.3h3.2c0.4,0,0.8-0.3,0.9-0.7l0.3-1.3l-1.6-1.3l0,0l-0.4,1.4h-2.5c-0.5,0-1,0.4-1,1
							C412.8,593.9,413.2,594.3,413.7,594.3z"/>
						<path class="st32" d="M421.1,585.1c0.9-0.2,1.5-1.1,1.2-2c-0.2-0.9-1.1-1.5-2-1.2c-0.9,0.2-1.5,1.1-1.2,2
							C419.3,584.8,420.2,585.3,421.1,585.1z"/>
						<path class="st32" d="M415,589.1c0.4,0.2,0.9,0,1-0.4l0.6-1.4l0.9-0.3l-0.7,2.8c-0.1,0.4,0,0.7,0.3,1l2.7,2.2l0.7,2.9
							c0.1,0.4,0.5,0.7,0.9,0.7c0.1,0,0.2,0,0.2,0c0.5-0.1,0.8-0.6,0.7-1.2l-0.8-3.2c0-0.2-0.2-0.4-0.3-0.5l-1.7-1.4l0.9-2.4
							l0.9,1.1c0.2,0.2,0.4,0.3,0.6,0.3c0.1,0,0.3,0,0.4-0.1l1.6-1c0.4-0.2,0.5-0.7,0.3-1.1c-0.2-0.4-0.7-0.5-1.1-0.3l-1,0.6l-0.9-1
							c-0.2-0.3-0.5-0.5-0.9-0.6l-1.4-0.5c-0.4-0.2-0.9-0.2-1.3,0l-1.9,0.6c-0.2,0.1-0.4,0.2-0.5,0.4l-0.8,1.8
							C414.4,588.5,414.6,589,415,589.1z"/>
					</g>
				</g>
			</g>
		</g>
	</g>
	<g>
		<g id="Layer_2_00000090287708573909370120000015528676360269084048_">
			<g id="Image_64_00000056429901070639207310000000004013371461789362_">
				<g id="Ellipse_1_copy_9_00000126283228105064793040000007157497871469456054_">
					<circle class="st33" cx="973.5" cy="533.4" r="14.4"/>
				</g>
			</g>
		</g>
		<g id="Layer_1_00000035518951821911710160000001908990774452682385_">
			<g>
				<g>
					<g>
						<path class="st32" d="M966.9,527.8c0.8,0,1.5-0.7,1.5-1.5s-0.7-1.4-1.5-1.4s-1.5,0.6-1.5,1.4
							C965.4,527.1,966.1,527.8,966.9,527.8z"/>
						<path class="st32" d="M968.8,528.1h-3.7c-0.9,0-1.6,0.7-1.6,1.6v4.6c0,0.3,0.3,0.6,0.6,0.6s0.6-0.3,0.6-0.6v-4h0.3v4.6v6.2
							c0,0.5,0.4,0.8,0.8,0.8c0.5,0,0.8-0.4,0.8-0.8v-6.2h0.4v6.2c0,0.5,0.4,0.8,0.8,0.8c0.5,0,0.8-0.4,0.8-0.8v-6.2v-4.6h0.3v4
							c0,0.3,0.3,0.6,0.6,0.6s0.6-0.3,0.6-0.6v-4.6C970.4,528.8,969.7,528.1,968.8,528.1z"/>
					</g>
					<g>
						<path class="st32" d="M979.5,527.8c0.8,0,1.5-0.7,1.5-1.5s-0.7-1.5-1.5-1.5c-0.8,0.1-1.5,0.7-1.5,1.5S978.7,527.8,979.5,527.8
							z"/>
						<path class="st32" d="M983.5,533.5l-1.2-4.3c-0.3-0.8-0.9-1.1-1.8-1.1l0,0h-2l0,0c-0.9,0-1.5,0.3-1.8,1.1l-1.2,4.3
							c-0.1,0.3,0.1,0.6,0.4,0.7c0.3,0.1,0.6-0.1,0.7-0.3l1.1-3.8h0.3l-1.9,6.5h1.8v4.7c0,0.4,0.3,0.7,0.7,0.7s0.7-0.3,0.7-0.7v-4.7
							h0.3v4.7c0,0.4,0.3,0.7,0.7,0.7s0.7-0.3,0.7-0.7v-4.7h1.8L981,530h0.3l1.1,3.8c0.1,0.3,0.4,0.4,0.7,0.3
							C983.4,534,983.6,533.7,983.5,533.5z"/>
					</g>
				</g>
				<rect x="972.7" y="524.9" class="st32" width="1.6" height="17"/>
			</g>
		</g>
	</g>
	<g>
		<circle class="st31" cx="811.7" cy="853.2" r="14.4"/>
		<g>
			<g>
				<path class="st32" d="M819.9,844.4l-5-1.7c-0.3-0.1-0.6,0.1-0.6,0.4v1.3h-4.9c-0.2,0-0.4,0.2-0.4,0.4v1.5c0.3,0,0.5,0.1,0.8,0.2
					v-1.3h4.4v15.3h-3v0.2c0,0.2,0.1,0.4,0,0.6h2.9v1.3c0,0.3,0.3,0.6,0.6,0.5l5-1.7c0.2-0.1,0.3-0.2,0.3-0.4v-16.1
					C820.2,844.7,820.1,844.5,819.9,844.4z"/>
				<g>
					<g>
						<path class="st32" d="M801.7,859.9h3.2c0.4,0,0.8-0.3,0.9-0.7l0.3-1.3l-1.6-1.3l0,0l-0.4,1.4h-2.5c-0.5,0-1,0.4-1,1
							C800.8,859.4,801.2,859.9,801.7,859.9z"/>
						<path class="st32" d="M809.1,850.6c0.9-0.2,1.5-1.1,1.2-2c-0.2-0.9-1.1-1.5-2-1.2c-0.9,0.2-1.5,1.1-1.2,2
							C807.3,850.3,808.2,850.8,809.1,850.6z"/>
						<path class="st32" d="M803,854.7c0.4,0.2,0.9,0,1-0.4l0.6-1.4l0.9-0.3l-0.7,2.8c-0.1,0.4,0,0.7,0.3,1l2.7,2.2l0.7,2.9
							c0.1,0.4,0.5,0.7,0.9,0.7c0.1,0,0.2,0,0.2,0c0.5-0.1,0.8-0.6,0.7-1.2l-0.8-3.2c0-0.2-0.2-0.4-0.3-0.5l-1.7-1.4l0.9-2.4
							l0.9,1.1c0.2,0.2,0.4,0.3,0.6,0.3c0.1,0,0.3,0,0.4-0.1l1.6-1c0.4-0.2,0.5-0.7,0.3-1.1c-0.2-0.4-0.7-0.5-1.1-0.3l-1,0.6l-0.9-1
							c-0.2-0.3-0.5-0.5-0.9-0.6l-1.4-0.5c-0.4-0.2-0.9-0.2-1.3,0l-1.9,0.6c-0.2,0.1-0.4,0.2-0.5,0.4l-0.8,1.8
							C802.4,854,802.6,854.5,803,854.7z"/>
					</g>
				</g>
			</g>
		</g>
	</g>
</g>
</svg>
