<?xml version="1.0" encoding="utf-8"?>
<!-- Generator: Adobe Illustrator 28.0.0, SVG Export Plug-In . SVG Version: 6.00 Build 0)  -->
<svg version="1.1" xmlns="http://www.w3.org/2000/svg" xmlns:xlink="http://www.w3.org/1999/xlink" x="0px" y="0px"
	 viewBox="0 0 1343 975" style="enable-background:new 0 0 1343 975;" xml:space="preserve">
<style type="text/css">
	.st0{fill:none;}
	.st1{fill:none;stroke:#231F20;stroke-width:0.3;}
	.st2{fill:#FFFFFF;stroke:#000000;stroke-miterlimit:10;}
	.st3{fill:#A2C9EA;stroke:#A2C9EA;stroke-miterlimit:10;}
	.st4{fill:#A2C9EA;}
	.st5{font-family:'Arial-ItalicMT';}
	.st6{font-size:14px;}
	.st7{font-family:'ArialNarrow-Italic';}
	.st8{font-size:14.6418px;}
	.st9{font-family:'ArialNarrow-Bold';}
	.st10{font-size:33.4957px;}
	.st11{fill:#F5F5C8;stroke:#000000;stroke-miterlimit:10;}
	.st12{fill:#E5E5E5;stroke:#000000;stroke-miterlimit:10;}
	.st13{fill:url(#Grid_1_pica_Lines);stroke:#000000;stroke-miterlimit:10;}
	.st14{fill:#EAC16E;stroke:#000000;stroke-miterlimit:10;}
	.st15{fill:#C3DAEA;stroke:#000000;stroke-miterlimit:10;}
	.st16{display:none;}
	.st17{display:inline;fill:none;}
	.st18{display:inline;}
	.st19{font-family:'MyriadPro-Regular';}
	.st20{display:inline;fill:#E4F2F9;}
	.st21{font-family:'Arial-BoldMT';}
	.st22{font-size:300px;}
	.st23{letter-spacing:7;}
	.st24{font-size:48px;}
	.st25{font-size:21px;}
	.st26{font-size:18px;}
	.st27{fill:#C60606;stroke:#000000;stroke-miterlimit:10;}
	.st28{fill:#FFFFFF;}
	.st29{font-size:12px;}
	.st30{fill:#F9E235;stroke:#000000;stroke-miterlimit:10;}
	.st31{fill:#785AA0;stroke:#000000;stroke-miterlimit:10;}
	.st32{fill:#785AA0;}
	.st33{font-family:'Verdana-Bold';}
	.st34{font-size:11px;}
	.st35{fill:#146EDC;stroke:#000000;stroke-miterlimit:10;}
</style>
<pattern  x="93" y="975" width="72" height="72" patternUnits="userSpaceOnUse" id="Grid_1_pica_Lines" viewBox="72.2 -144.2 72 72" style="overflow:visible;">
	<g>
		<rect x="72.2" y="-144.2" class="st0" width="72" height="72"/>
		<g>
			<line class="st1" x1="78.2" y1="-72.5" x2="78.2" y2="0"/>
			<line class="st1" x1="102.2" y1="-72.5" x2="102.2" y2="0"/>
			<line class="st1" x1="126.2" y1="-72.5" x2="126.2" y2="0"/>
			<line class="st1" x1="90.2" y1="-72.5" x2="90.2" y2="0"/>
			<line class="st1" x1="114.2" y1="-72.5" x2="114.2" y2="0"/>
			<line class="st1" x1="138.2" y1="-72.5" x2="138.2" y2="0"/>
		</g>
		<g>
			<line class="st1" x1="144" y1="-78.2" x2="216.5" y2="-78.2"/>
			<line class="st1" x1="144" y1="-102.2" x2="216.5" y2="-102.2"/>
			<line class="st1" x1="144" y1="-126.2" x2="216.5" y2="-126.2"/>
			<line class="st1" x1="144" y1="-90.2" x2="216.5" y2="-90.2"/>
			<line class="st1" x1="144" y1="-114.2" x2="216.5" y2="-114.2"/>
			<line class="st1" x1="144" y1="-138.2" x2="216.5" y2="-138.2"/>
		</g>
		<g>
			<line class="st1" x1="78.2" y1="-144.5" x2="78.2" y2="-72"/>
			<line class="st1" x1="102.2" y1="-144.5" x2="102.2" y2="-72"/>
			<line class="st1" x1="126.2" y1="-144.5" x2="126.2" y2="-72"/>
			<line class="st1" x1="72" y1="-78.2" x2="144.5" y2="-78.2"/>
			<line class="st1" x1="72" y1="-102.2" x2="144.5" y2="-102.2"/>
			<line class="st1" x1="72" y1="-126.2" x2="144.5" y2="-126.2"/>
			<line class="st1" x1="72" y1="-90.2" x2="144.5" y2="-90.2"/>
			<line class="st1" x1="72" y1="-114.2" x2="144.5" y2="-114.2"/>
			<line class="st1" x1="72" y1="-138.2" x2="144.5" y2="-138.2"/>
			<line class="st1" x1="90.2" y1="-144.5" x2="90.2" y2="-72"/>
			<line class="st1" x1="114.2" y1="-144.5" x2="114.2" y2="-72"/>
			<line class="st1" x1="138.2" y1="-144.5" x2="138.2" y2="-72"/>
		</g>
		<g>
			<line class="st1" x1="0" y1="-78.2" x2="72.5" y2="-78.2"/>
			<line class="st1" x1="0" y1="-102.2" x2="72.5" y2="-102.2"/>
			<line class="st1" x1="0" y1="-126.2" x2="72.5" y2="-126.2"/>
			<line class="st1" x1="0" y1="-90.2" x2="72.5" y2="-90.2"/>
			<line class="st1" x1="0" y1="-114.2" x2="72.5" y2="-114.2"/>
			<line class="st1" x1="0" y1="-138.2" x2="72.5" y2="-138.2"/>
		</g>
		<g>
			<line class="st1" x1="78.2" y1="-216.5" x2="78.2" y2="-144"/>
			<line class="st1" x1="102.2" y1="-216.5" x2="102.2" y2="-144"/>
			<line class="st1" x1="126.2" y1="-216.5" x2="126.2" y2="-144"/>
			<line class="st1" x1="90.2" y1="-216.5" x2="90.2" y2="-144"/>
			<line class="st1" x1="114.2" y1="-216.5" x2="114.2" y2="-144"/>
			<line class="st1" x1="138.2" y1="-216.5" x2="138.2" y2="-144"/>
		</g>
	</g>
</pattern>
<g id="base_white">
	<polygon class="st2" points="840,257.4 821.5,244.8 790.2,223.1 758.9,200.9 560.3,65.2 538.2,271.2 498.4,244.8 490.2,358.7 
		391.7,494.2 541.3,597.7 606.6,644.2 657,731.9 686.7,699.8 810.2,779.7 887.3,829.2 905.9,841.9 1015.2,910.9 1105.3,853.9 
		1180.7,807.5 1157.3,792.8 1018.6,699.8 1068.5,636.6 1074.3,641.1 1111.6,666.2 1127.3,655.6 1134.1,652 1255.5,578.2 1278.5,564 
		1264.3,554.2 1171.3,487.6 1102.1,439.1 1016.4,375.3 977.2,440.8 897.7,384.8 932.8,324.2 853.2,206.1 	"/>
</g>
<g id="street">
	<g id="san_fernando">
		<line class="st3" x1="308.9" y1="125.3" x2="495.4" y2="7.3"/>
		<line class="st3" x1="321.3" y1="145.2" x2="529.7" y2="13.3"/>
		
			<rect x="346.4" y="63.8" transform="matrix(0.848 -0.5299 0.5299 0.848 26.2447 234.0441)" class="st0" width="149.6" height="15"/>
		<text transform="matrix(0.8481 -0.5299 0.5299 0.8481 359.1499 113.0609)" class="st4 st5 st6">San Fernando Street</text>
	</g>
	<g id="_x34_th_street">
		<line class="st3" x1="402.4" y1="785.9" x2="235.1" y2="462.2"/>
		<line class="st3" x1="423.8" y1="776.3" x2="256" y2="451.5"/>
		
			<rect x="319.7" y="536.9" transform="matrix(0.8829 -0.4695 0.4695 0.8829 -248.8924 225.2326)" class="st0" width="15" height="149.6"/>
		<text transform="matrix(-0.4695 -0.8829 0.8829 -0.4695 349.6658 648.4722)" class="st4 st5 st6">Fourth Street</text>
	</g>
	<g id="sjsu_campus">
		<polygon class="st4" points="1294.4,713.8 1269.2,694.4 1275,739 		"/>
		
			<rect x="1239.9" y="656.7" transform="matrix(0.9873 -0.1586 0.1586 0.9873 -98.078 207.7413)" class="st0" width="25.2" height="123.4"/>
		<text transform="matrix(0.1586 0.9873 -0.9873 0.1586 1248.4362 679.0984)" class="st4 st7 st8">SJSU Campus</text>
	</g>
</g>
<g id="north">
	<g>
		<polygon class="st4" points="486.9,92 479.5,124.6 519.6,99.3 		"/>
		
			<rect x="466.3" y="66.1" transform="matrix(0.829 -0.5592 0.5592 0.829 37.3192 280.8546)" class="st0" width="23.3" height="26.6"/>
		<text transform="matrix(0.829 -0.5592 0.5592 0.829 475.713 93.8357)" class="st4 st9 st10">N</text>
	</g>
</g>
<g id="yellow_region">
	<polygon id="DT_x2B_E_x2B_HB" class="st11" points="417.9,485.1 460,511.6 505.1,448.4 603.7,517 569.5,563.3 648.8,620.4 
		628.4,651.6 670.5,678.1 755.8,560.3 493.1,382.9 	"/>
	<polygon id="CJ" class="st11" points="805.7,744.2 853.8,685.9 950.6,747.2 981.9,708.8 770.9,572.9 698.1,674.5 	"/>
	<polygon id="BM" class="st11" points="966.2,758.1 997.5,718.4 1093.1,780.9 1066,819.4 	"/>
	<polygon id="A_x2B_BD_x2B_BL" class="st11" points="1123.8,636.6 1164,589.7 1172.5,595.1 1213.9,543.4 1173.7,514 1121.4,575.3 
		1036,517 1002.9,559.1 	"/>
	<polygon id="Thesis_A-HN" class="st11" points="979.5,542.2 1000.2,516.7 873.3,432.9 855.5,460.8 	"/>
	<polygon id="HC_x2B_HD_x2B_HM" class="st11" points="833.2,446.2 912.4,314.9 863.8,279.4 843.1,318.9 755.8,257.8 728.9,310.8 
		625.9,240.7 662.8,165.6 591.8,120.2 560.3,179.1 597.6,206.1 566.1,262.3 	"/>
</g>
<g id="grey_region">
	<polygon id="RM_632" class="st12" points="490.2,496.4 511.6,466.2 549.3,491.1 528.4,522.3 	"/>
	<polygon id="RM_634" class="st12" points="567.4,548.2 528.4,522.3 549.3,491.1 589.3,518.3 	"/>
	<polygon id="RM_662" class="st12" points="541.3,597.7 561.9,570.8 595.3,594.2 574.7,621.3 	"/>
	<polygon id="RM_664" class="st12" points="606.6,644.2 574.7,621.3 595.3,594.2 627.3,618.1 	"/>
	<polygon id="service_1_" class="st12" points="740.4,487.6 772.9,439.1 820.5,472.8 787.5,519.6 	"/>
	<polygon id="near_atrium" class="st12" points="780.4,564.7 845.9,466 1047.4,597.2 990.6,678.1 994.1,685.1 985.3,696.8 	"/>
	<polygon id="toilet" class="st12" points="1044.2,508.7 1102.1,439.1 1171.3,487.6 1163.3,496.7 1112.8,554.2 	"/>
	<polygon id="corner_-_4" class="st12" points="1252.1,561.2 1163.3,496.7 1171.3,487.6 1264.3,554.2 	"/>
	<polygon id="corner_-_3" class="st12" points="1247,566.3 1255.5,578.2 1134.1,652 1127.3,641.5 	"/>
	<polygon class="st12" points="1127.3,655.6 1111.6,666.2 1074.3,641.1 1086.1,626.8 	"/>
	<polygon id="corner" class="st12" points="1007.7,715.8 1018.6,699.8 1157.3,792.8 1144.4,810.5 	"/>
	<polygon id="RM_606" class="st12" points="744.9,236.5 758.9,200.9 790.2,223.1 773.8,257.4 	"/>
	<polygon id="RM_604" class="st12" points="804.8,277.8 773.8,257.4 790.2,223.1 821.5,244.8 	"/>
	<polygon id="RM_602" class="st12" points="835.1,297.5 804.8,277.8 821.5,244.8 850.3,265.6 	"/>
	<polygon id="RM_626" class="st12" points="641.9,237.2 663.6,191.2 694.2,214.2 673.7,259.6 	"/>
	<polygon id="RM_624" class="st12" points="694.2,214.2 724,236.7 704.6,281.3 673.7,259.6 	"/>
	<polygon id="RM_622" class="st12" points="725.6,295.9 746.6,253.3 724.1,236.7 704.7,281.2 	"/>
</g>
<g id="grey_grid">
	<polygon id="grey_grid_-_2" class="st13" points="905.8,841.9 963.7,766.7 1105.2,853.9 1015.1,910.9 	"/>
	<polygon id="grey_grid_-_1" class="st13" points="810.2,779.7 866.2,706.8 943.3,756.6 887.3,829.2 	"/>
</g>
<g id="vertical_flow">
	<polygon id="elevator" class="st14" points="883.8,406.3 897.7,384.8 977.2,440.8 981.9,444.1 967.8,462.1 	"/>
	<polygon id="stairs" class="st14" points="981.9,444.1 1005.7,460.2 1047.4,399.9 1016.4,375.3 977.2,440.8 	"/>
</g>
<g id="atrium">
	<polygon id="atrium_1_" class="st15" points="788.9,550.6 836.4,480.8 1036.7,614.7 990.1,681.2 	"/>
</g>
<g id="text" class="st16">
	<rect x="893.4" y="581" class="st17" width="53.2" height="15.9"/>
	<text transform="matrix(1 0 0 1 899.7916 590.9705)" class="st18 st19 st6">Atrium</text>
	<rect x="753.1" y="223" class="st17" width="28.9" height="12.3"/>
	<text transform="matrix(1 0 0 1 756.7814 232.9498)" class="st18 st19 st6">606</text>
	<rect x="782.4" y="247.2" class="st17" width="28.9" height="12.3"/>
	<text transform="matrix(1 0 0 1 786.0845 257.1483)" class="st18 st19 st6">604</text>
	<rect x="812.3" y="267.8" class="st17" width="28.9" height="12.3"/>
	<text transform="matrix(1 0 0 1 815.9356 277.7882)" class="st18 st19 st6">602</text>
	<rect x="653.6" y="221" class="st17" width="28.9" height="12.3"/>
	<text transform="matrix(1 0 0 1 657.2978 230.9498)" class="st18 st19 st6">626</text>
	<rect x="684.4" y="244.3" class="st17" width="28.9" height="12.3"/>
	<text transform="matrix(1 0 0 1 688.0933 254.2085)" class="st18 st19 st6">624</text>
	<rect x="712.2" y="261.7" class="st17" width="24" height="10.8"/>
	<text transform="matrix(1 0 0 1 713.4706 271.6175)" class="st18 st19 st6">622</text>
	<rect x="505.3" y="488.1" class="st17" width="28.9" height="12.3"/>
	<text transform="matrix(1 0 0 1 508.9925 498.0063)" class="st18 st19 st6">632</text>
	<rect x="544.4" y="516.1" class="st17" width="28.9" height="12.3"/>
	<text transform="matrix(1 0 0 1 548.0917 526.042)" class="st18 st19 st6">634</text>
	<rect x="553.9" y="591.8" class="st17" width="28.9" height="12.3"/>
	<text transform="matrix(1 0 0 1 557.5208 601.7235)" class="st18 st19 st6">662</text>
	<rect x="586.6" y="615.2" class="st17" width="28.9" height="12.3"/>
	<text transform="matrix(1 0 0 1 590.2083 625.1101)" class="st18 st19 st6">664</text>
	<rect x="105.9" y="39.3" class="st17" width="176.3" height="232.2"/>
	<text transform="matrix(1 0 0 1 105.9255 254.0536)" class="st20 st21 st22 st23">6</text>
	<rect x="29.1" y="28.9" class="st17" width="300.4" height="54.6"/>
	<text transform="matrix(1 0 0 1 29.0681 63.2448)" class="st18 st21 st24">Sixth Floor</text>
	<rect x="30.1" y="93.2" class="st17" width="286" height="77.9"/>
	<text transform="matrix(1 0 0 1 30.0681 108.2823)" class="st18 st5 st25">Research Collections A-HN</text>
	<rect x="30.1" y="190.2" class="st17" width="273.2" height="182.8"/>
	<text transform="matrix(1 0 0 1 30.0681 205.2714)" class="st18"><tspan x="0" y="0" class="st5 st25">Quiet Floor</tspan><tspan x="0" y="21.6" class="st5 st26">- low level, minimum conversation   </tspan><tspan x="0" y="43.2" class="st5 st26">  allowed</tspan><tspan x="0" y="64.8" class="st5 st26">- no cell phone use</tspan><tspan x="0" y="86.4" class="st5 st26">- no food</tspan><tspan x="0" y="108" class="st5 st26">- only covered drinks allowed</tspan><tspan x="0" y="129.6" class="st5 st26">- no drinks while using computers</tspan></text>
</g>
<g id="exit" class="st16">
	<g id="exit_3_" class="st18">
		<circle class="st27" cx="1054.4" cy="406.7" r="16.7"/>
		<rect x="1042.4" y="401.9" class="st0" width="23.8" height="10.5"/>
		<text transform="matrix(1 0 0 1 1043.5281 410.4234)" class="st28 st19 st29">EXIT</text>
	</g>
	<g id="exit_2_" class="st18">
		<circle class="st27" cx="904.1" cy="812.4" r="16.7"/>
		<rect x="892.1" y="807.6" class="st0" width="23.8" height="10.5"/>
		<text transform="matrix(1 0 0 1 893.188 816.157)" class="st28 st19 st29">EXIT</text>
	</g>
	<g id="exit_1_" class="st18">
		<circle class="st27" cx="488.6" cy="551.6" r="16.7"/>
		<rect x="476.6" y="546.8" class="st0" width="23.8" height="10.5"/>
		<text transform="matrix(1 0 0 1 477.7251 555.2852)" class="st28 st19 st29">EXIT</text>
	</g>
</g>
<g id="stairs_x2F_ele" class="st16">
	<g id="symbol_-_stairs" class="st18">
		<circle class="st30" cx="1012.3" cy="417.3" r="12.3"/>
		<polygon points="1004.4,423.4 1004.4,419.9 1007.9,419.9 1007.9,416.4 1011.4,416.4 1011.4,413 1014.9,413 1014.9,409.5 
			1018.4,409.5 1018.4,423.4 		"/>
	</g>
	<g id="symbol_-_ele" class="st18">
		<circle class="st30" cx="938.1" cy="426.7" r="12.3"/>
		<rect x="931.9" y="421.2" width="5.8" height="11.6"/>
		<rect x="938.6" y="421.2" width="5.8" height="11.6"/>
		<rect x="936.8" y="419" width="2.7" height="1.6"/>
		<polygon points="935.8,419 938.1,417.3 940.5,419 		"/>
	</g>
</g>
<g id="service" class="st16">
	<g id="symbol_-_service" class="st18">
		<circle class="st31" cx="756.7" cy="464.8" r="12.3"/>
		<path class="st28" d="M761.1,469h-8.9c-2,0-3.6-1.6-3.6-3.6V461c0-2,1.6-3.6,3.6-3.6h8.9c2,0,3.6,1.6,3.6,3.6v4.4
			C764.7,467.4,763,469,761.1,469z"/>
		<rect x="752.3" y="458.9" class="st0" width="8.7" height="9.4"/>
		<text transform="matrix(1 0 0 1 754.7776 467.3065)" class="st32 st33 st34">i</text>
		<polygon class="st28" points="752.4,469 751.1,473.5 756.1,469 		"/>
	</g>
</g>
<g id="phone" class="st16">
	<g id="symbol-phone_1_" class="st18">
		<circle class="st35" cx="1039.5" cy="605" r="13.7"/>
		<path class="st28" d="M1034.4,608.4l-1.4,2.8c-0.3,0.6-0.1,1.4,0.6,1.7l2.2,1.1c0.6,0.3,1.4,0.1,1.7-0.6l1.4-2.8
			c0.3-0.6,0.1-1.4-0.6-1.7l-2.2-1.1C1035.5,607.5,1034.7,607.7,1034.4,608.4z"/>
		<path class="st28" d="M1043.3,599l-6.3,12.3c-0.3,0.6-0.1,1.4,0.6,1.7l0.3,0.1c0.6,0.3,1.4,0.1,1.7-0.6l6.3-12.3
			c0.3-0.6,0.1-1.4-0.6-1.7l-0.3-0.1C1044.4,598.1,1043.6,598.4,1043.3,599z"/>
		<path class="st28" d="M1040.5,596l-1.4,2.8c-0.3,0.6-0.1,1.4,0.6,1.7l2.4,1.2c0.6,0.3,1.4,0.1,1.7-0.6l1.4-2.8
			c0.3-0.6,0.1-1.4-0.6-1.7l-2.4-1.2C1041.6,595.2,1040.9,595.4,1040.5,596z"/>
		
			<ellipse transform="matrix(0.9472 -0.3206 0.3206 0.9472 -141.6425 364.9035)" class="st28" cx="1037.5" cy="612.7" rx="2.4" ry="1.3"/>
		
			<ellipse transform="matrix(0.9392 -0.3434 0.3434 0.9392 -142.0797 395.0561)" class="st28" cx="1044.5" cy="598.7" rx="1.3" ry="2.3"/>
	</g>
	<g id="symbol-phone" class="st18">
		<circle class="st35" cx="582.7" cy="283.2" r="13.7"/>
		<path class="st28" d="M577.7,286.6l-1.4,2.8c-0.3,0.6-0.1,1.4,0.6,1.7l2.2,1.1c0.6,0.3,1.4,0.1,1.7-0.6l1.4-2.8
			c0.3-0.6,0.1-1.4-0.6-1.7l-2.2-1.1C578.8,285.7,578,286,577.7,286.6z"/>
		<path class="st28" d="M586.6,277.2l-6.3,12.3c-0.3,0.6-0.1,1.4,0.6,1.7l0.3,0.1c0.6,0.3,1.4,0.1,1.7-0.6l6.3-12.3
			c0.3-0.6,0.1-1.4-0.6-1.7l-0.3-0.1C587.7,276.3,586.9,276.6,586.6,277.2z"/>
		<path class="st28" d="M583.8,274.3l-1.4,2.8c-0.3,0.6-0.1,1.4,0.6,1.7l2.4,1.2c0.6,0.3,1.4,0.1,1.7-0.6l1.4-2.8
			c0.3-0.6,0.1-1.4-0.6-1.7l-2.4-1.2C584.9,273.4,584.1,273.6,583.8,274.3z"/>
		
			<ellipse transform="matrix(0.9472 -0.3206 0.3206 0.9472 -62.5954 201.5076)" class="st28" cx="580.7" cy="290.9" rx="2.4" ry="1.3"/>
		
			<ellipse transform="matrix(0.9392 -0.3434 0.3434 0.9392 -59.3607 218.6632)" class="st28" cx="587.8" cy="277" rx="1.3" ry="2.3"/>
	</g>
	<g id="symbol_-campus_phone" class="st18">
		<g>
			<circle class="st35" cx="803.5" cy="495.4" r="13.7"/>
			<g>
				<path class="st28" d="M807.8,492.4l1.8,0c0.7,0,1.3-0.6,1.3-1.3l0-1.3c0-0.7-0.6-1.3-1.3-1.3l-1.8,0c-0.7,0-1.3,0.6-1.3,1.3
					l0,1.3C806.6,491.8,807.1,492.4,807.8,492.4z"/>
				<path class="st28" d="M797.9,489.6l10.8-0.1c0.5,0,1-0.4,1-1l0-0.3c0-0.5-0.4-1-1-1l-10.8,0.1c-0.5,0-1,0.4-1,1l0,0.3
					C796.9,489.2,797.4,489.6,797.9,489.6z"/>
				<path class="st28" d="M797.2,492.6l1.8,0c0.7,0,1.3-0.6,1.3-1.3l0-1.5c0-0.7-0.6-1.3-1.3-1.3l-1.8,0c-0.7,0-1.3,0.6-1.3,1.3
					l0,1.5C795.9,492,796.5,492.6,797.2,492.6z"/>
				
					<ellipse transform="matrix(0.6931 -0.7209 0.7209 0.6931 -103.8816 733.5184)" class="st28" cx="809.4" cy="488.7" rx="1" ry="1.8"/>
				
					<ellipse transform="matrix(0.6754 -0.7374 0.7374 0.6754 -101.7066 746.6322)" class="st28" cx="797.3" cy="488.9" rx="1.8" ry="1"/>
			</g>
		</g>
		<g>
			<g>
				
					<rect x="797" y="497.1" transform="matrix(0.7071 0.7071 -0.7071 0.7071 586.1445 -418.4949)" class="st28" width="2.4" height="2.4"/>
				
					<rect x="802.1" y="492" transform="matrix(0.7071 0.7071 -0.7071 0.7071 584.0494 -423.5527)" class="st28" width="2.4" height="2.4"/>
				
					<rect x="802.1" y="502.1" transform="matrix(0.7071 0.7071 -0.7071 0.7071 591.2023 -420.5899)" class="st28" width="2.4" height="2.4"/>
				
					<rect x="807.1" y="497.1" transform="matrix(0.7071 0.7071 -0.7071 0.7071 589.1072 -425.6477)" class="st28" width="2.4" height="2.4"/>
				
					<rect x="799.6" y="493.8" transform="matrix(0.7071 0.7071 -0.7071 0.7071 585.088 -421.0453)" class="st28" width="2.4" height="3.9"/>
				
					<rect x="804.6" y="498.9" transform="matrix(0.7071 0.7071 -0.7071 0.7071 590.1548 -423.1188)" class="st28" width="2.4" height="3.9"/>
				
					<rect x="799.6" y="498.9" transform="matrix(-0.7071 0.7071 -0.7071 -0.7071 1721.184 288.7462)" class="st28" width="2.4" height="3.9"/>
				
					<rect x="804.6" y="493.9" transform="matrix(-0.7071 0.7071 -0.7071 -0.7071 1726.2418 276.5356)" class="st28" width="2.4" height="3.9"/>
				
					<rect x="801.4" y="496.4" transform="matrix(0.7071 0.7071 -0.7071 0.7071 587.6336 -422.09)" class="st28" width="3.8" height="3.8"/>
			</g>
			<polygon class="st28" points="798.3,493.2 798.2,496 801,493.3 			"/>
			<polygon class="st28" points="808.4,503.4 808.4,500.6 805.7,503.3 			"/>
			<polygon class="st28" points="808.4,493.3 805.7,493.2 808.4,496 			"/>
			<polygon class="st28" points="798.2,503.4 801,503.4 798.2,500.7 			"/>
		</g>
	</g>
</g>
<g id="toilet_1_" class="st16">
	<g id="symbol_-_toilet" class="st18">
		<circle class="st35" cx="1092.9" cy="519.7" r="14.2"/>
		<path class="st28" d="M1096.5,515.9l0,4.6c0,0.5,0.4,0.9,0.9,0.9l1.9,0c0.5,0,0.9-0.4,0.9-0.9l0-4.6c0-0.5-0.4-0.9-0.9-0.9l-1.9,0
			C1096.9,515,1096.5,515.4,1096.5,515.9z"/>
		<path class="st28" d="M1101.8,515.1l0,4.9c0,0.3-0.2,0.6-0.6,0.6l-0.4,0c-0.3,0-0.6-0.2-0.6-0.6l0-4.9c0-0.3,0.2-0.6,0.6-0.6
			l0.4,0C1101.5,514.6,1101.8,514.8,1101.8,515.1z"/>
		<path class="st28" d="M1096.3,515.1l0,5c0,0.3-0.2,0.6-0.6,0.6l-0.4,0c-0.3,0-0.6-0.2-0.6-0.6l0-5c0-0.3,0.2-0.6,0.6-0.6l0.4,0
			C1096.1,514.6,1096.3,514.8,1096.3,515.1z"/>
		<circle class="st28" cx="1098.3" cy="512.5" r="1.6"/>
		<path class="st28" d="M1094.8,515.1l0,0.7c0,0.3,0.3,0.6,0.6,0.6l5.7,0c0.3,0,0.6-0.3,0.6-0.6l0-0.7c0-0.3-0.3-0.6-0.6-0.6l-5.7,0
			C1095.1,514.5,1094.8,514.7,1094.8,515.1z"/>
		<path class="st28" d="M1098.2,519.9l0,7.4c0,0.3-0.2,0.6-0.6,0.6l-0.6,0c-0.3,0-0.6-0.2-0.6-0.6l0-7.4c0-0.3,0.2-0.6,0.6-0.6
			l0.6,0C1098,519.3,1098.2,519.6,1098.2,519.9z"/>
		<path class="st28" d="M1100.1,519.8l0,7.4c0,0.3-0.2,0.6-0.6,0.6l-0.6,0c-0.3,0-0.6-0.2-0.6-0.6l0-7.4c0-0.3,0.2-0.6,0.6-0.6
			l0.6,0C1099.9,519.2,1100.1,519.5,1100.1,519.8z"/>
		<rect x="1092.5" y="510.2" class="st28" width="0.7" height="18.3"/>
		<path class="st28" d="M1085.5,515.3l-1,4.9c-0.1,0.3-0.4,0.5-0.7,0.4l-0.4-0.1c-0.3-0.1-0.5-0.4-0.4-0.7l1-4.9
			c0.1-0.3,0.4-0.5,0.7-0.4l0.4,0.1C1085.3,514.7,1085.5,515,1085.5,515.3z"/>
		<circle class="st28" cx="1087.4" cy="512.5" r="1.6"/>
		<path class="st28" d="M1084,515.1l0,0.7c0,0.3,0.3,0.6,0.6,0.6l5.7,0c0.3,0,0.6-0.3,0.6-0.6l0-0.7c0-0.3-0.3-0.6-0.6-0.6l-5.7,0
			C1084.2,514.5,1084,514.7,1084,515.1z"/>
		<path class="st28" d="M1087.3,519.8l0,7.4c0,0.3-0.2,0.5-0.5,0.5l-0.4,0c-0.3,0-0.5-0.2-0.5-0.5l0-7.4c0-0.3,0.2-0.5,0.5-0.5
			l0.4,0C1087.1,519.3,1087.3,519.6,1087.3,519.8z"/>
		<path class="st28" d="M1090.8,514.9l1,4.9c0.1,0.3-0.1,0.6-0.4,0.7l-0.4,0.1c-0.3,0.1-0.6-0.1-0.7-0.4l-1-4.9
			c-0.1-0.3,0.1-0.6,0.4-0.7l0.4-0.1C1090.5,514.4,1090.8,514.6,1090.8,514.9z"/>
		<polygon class="st28" points="1084.2,522.7 1085.4,516.4 1089.4,516.4 1090.6,522.7 		"/>
		<path class="st28" d="M1089.2,519.9l0,7.4c0,0.3-0.2,0.5-0.5,0.5l-0.4,0c-0.3,0-0.5-0.2-0.5-0.5l0-7.4c0-0.3,0.2-0.5,0.5-0.5
			l0.4,0C1089,519.3,1089.2,519.6,1089.2,519.9z"/>
	</g>
</g>
</svg>
