<?xml version="1.0" encoding="utf-8"?>
<!-- Generator: Adobe Illustrator 28.0.0, SVG Export Plug-In . SVG Version: 6.00 Build 0)  -->
<svg version="1.1" xmlns="http://www.w3.org/2000/svg" xmlns:xlink="http://www.w3.org/1999/xlink" x="0px" y="0px"
	 viewBox="0 0 1307 975" style="enable-background:new 0 0 1307 975;" xml:space="preserve">
<style type="text/css">
	.st0{fill:none;}
	.st1{fill:none;stroke:#231F20;stroke-width:0.3;}
	.st2{fill:#FFFFFF;stroke:#000000;stroke-miterlimit:10;}
	.st3{fill:#A2C9EA;stroke:#A2C9EA;stroke-miterlimit:10;}
	.st4{fill:#A2C9EA;}
	.st5{font-family:'Arial-ItalicMT';}
	.st6{font-size:14px;}
	.st7{font-family:'ArialNarrow-Italic';}
	.st8{font-size:14.6418px;}
	.st9{font-family:'ArialNarrow-Bold';}
	.st10{font-size:33.4957px;}
	.st11{fill:#F5F5C8;stroke:#000000;stroke-miterlimit:10;}
	.st12{fill:#E5E5E5;stroke:#000000;stroke-miterlimit:10;}
	.st13{fill:url(#Grid_1_pica_Lines);stroke:#000000;stroke-miterlimit:10;}
	.st14{fill:#C3DAEA;stroke:#000000;stroke-miterlimit:10;}
	.st15{fill:#EAC16E;stroke:#000000;stroke-miterlimit:10;}
	.st16{display:none;}
	.st17{display:inline;fill:none;}
	.st18{display:inline;}
	.st19{font-family:'MyriadPro-Regular';}
	.st20{font-size:12px;}
	.st21{display:inline;fill:#E4F2F9;}
	.st22{font-family:'Arial-BoldMT';}
	.st23{font-size:300px;}
	.st24{letter-spacing:7;}
	.st25{font-size:48px;}
	.st26{font-size:21px;}
	.st27{font-size:18px;}
	.st28{fill:#C60606;stroke:#000000;stroke-miterlimit:10;}
	.st29{fill:#FFFFFF;}
	.st30{fill:#F9E235;stroke:#000000;stroke-miterlimit:10;}
	.st31{fill:#146EDC;stroke:#000000;stroke-miterlimit:10;}
	.st32{fill:#785AA0;stroke:#000000;stroke-miterlimit:10;}
	.st33{fill:#785AA0;}
	.st34{font-family:'Verdana-Bold';}
	.st35{font-size:11px;}
</style>
<pattern  x="57" y="975" width="72" height="72" patternUnits="userSpaceOnUse" id="Grid_1_pica_Lines" viewBox="72.2 -144.2 72 72" style="overflow:visible;">
	<g>
		<rect x="72.2" y="-144.2" class="st0" width="72" height="72"/>
		<g>
			<line class="st1" x1="78.2" y1="-72.5" x2="78.2" y2="0"/>
			<line class="st1" x1="102.2" y1="-72.5" x2="102.2" y2="0"/>
			<line class="st1" x1="126.2" y1="-72.5" x2="126.2" y2="0"/>
			<line class="st1" x1="90.2" y1="-72.5" x2="90.2" y2="0"/>
			<line class="st1" x1="114.2" y1="-72.5" x2="114.2" y2="0"/>
			<line class="st1" x1="138.2" y1="-72.5" x2="138.2" y2="0"/>
		</g>
		<g>
			<line class="st1" x1="144" y1="-78.2" x2="216.5" y2="-78.2"/>
			<line class="st1" x1="144" y1="-102.2" x2="216.5" y2="-102.2"/>
			<line class="st1" x1="144" y1="-126.2" x2="216.5" y2="-126.2"/>
			<line class="st1" x1="144" y1="-90.2" x2="216.5" y2="-90.2"/>
			<line class="st1" x1="144" y1="-114.2" x2="216.5" y2="-114.2"/>
			<line class="st1" x1="144" y1="-138.2" x2="216.5" y2="-138.2"/>
		</g>
		<g>
			<line class="st1" x1="78.2" y1="-144.5" x2="78.2" y2="-72"/>
			<line class="st1" x1="102.2" y1="-144.5" x2="102.2" y2="-72"/>
			<line class="st1" x1="126.2" y1="-144.5" x2="126.2" y2="-72"/>
			<line class="st1" x1="72" y1="-78.2" x2="144.5" y2="-78.2"/>
			<line class="st1" x1="72" y1="-102.2" x2="144.5" y2="-102.2"/>
			<line class="st1" x1="72" y1="-126.2" x2="144.5" y2="-126.2"/>
			<line class="st1" x1="72" y1="-90.2" x2="144.5" y2="-90.2"/>
			<line class="st1" x1="72" y1="-114.2" x2="144.5" y2="-114.2"/>
			<line class="st1" x1="72" y1="-138.2" x2="144.5" y2="-138.2"/>
			<line class="st1" x1="90.2" y1="-144.5" x2="90.2" y2="-72"/>
			<line class="st1" x1="114.2" y1="-144.5" x2="114.2" y2="-72"/>
			<line class="st1" x1="138.2" y1="-144.5" x2="138.2" y2="-72"/>
		</g>
		<g>
			<line class="st1" x1="0" y1="-78.2" x2="72.5" y2="-78.2"/>
			<line class="st1" x1="0" y1="-102.2" x2="72.5" y2="-102.2"/>
			<line class="st1" x1="0" y1="-126.2" x2="72.5" y2="-126.2"/>
			<line class="st1" x1="0" y1="-90.2" x2="72.5" y2="-90.2"/>
			<line class="st1" x1="0" y1="-114.2" x2="72.5" y2="-114.2"/>
			<line class="st1" x1="0" y1="-138.2" x2="72.5" y2="-138.2"/>
		</g>
		<g>
			<line class="st1" x1="78.2" y1="-216.5" x2="78.2" y2="-144"/>
			<line class="st1" x1="102.2" y1="-216.5" x2="102.2" y2="-144"/>
			<line class="st1" x1="126.2" y1="-216.5" x2="126.2" y2="-144"/>
			<line class="st1" x1="90.2" y1="-216.5" x2="90.2" y2="-144"/>
			<line class="st1" x1="114.2" y1="-216.5" x2="114.2" y2="-144"/>
			<line class="st1" x1="138.2" y1="-216.5" x2="138.2" y2="-144"/>
		</g>
	</g>
</pattern>
<g id="base_white">
	<polygon class="st2" points="597.3,643.4 648.3,731.5 677.8,700.9 806.7,778.4 883.9,828 1015,910.7 1185.4,807.3 1160.9,792.3 
		1018.4,700.9 1012.6,697.2 1069.4,636.1 1074.2,638.5 1114.2,663.6 1131.7,653 1136.8,649.7 1260,575.6 1282.3,562.9 1267,551.7 
		1174.4,484.2 1104.8,436.4 1015.2,371.5 974.1,436.4 894.4,385.3 930.6,322.4 850.7,203.1 831.3,253.3 753.6,200.2 551.9,64.3 
		529.8,271.5 487.4,244.4 479.6,356.8 377.8,492.3 	"/>
</g>
<g id="Street">
	<g id="san_fernando">
		<line class="st3" x1="323.2" y1="124.2" x2="509.7" y2="6.2"/>
		<line class="st3" x1="335.6" y1="144.1" x2="544" y2="12.2"/>
		
			<rect x="360.7" y="62.7" transform="matrix(0.848 -0.5299 0.5299 0.848 28.9947 241.4525)" class="st0" width="149.6" height="15"/>
		<text transform="matrix(0.8481 -0.5299 0.5299 0.8481 373.4428 111.9696)" class="st4 st5 st6">San Fernando Street</text>
	</g>
	<g id="_x34_th_street">
		<line class="st3" x1="373.8" y1="761.4" x2="206.6" y2="437.7"/>
		<line class="st3" x1="395.2" y1="751.7" x2="227.5" y2="427"/>
		
			<rect x="291.2" y="512.4" transform="matrix(0.8829 -0.4695 0.4695 0.8829 -240.7167 208.9722)" class="st0" width="15" height="149.6"/>
		<text transform="matrix(-0.4695 -0.8829 0.8829 -0.4695 321.1453 623.9449)" class="st4 st5 st6">Fourth Street</text>
	</g>
	<g id="sjsu_campus">
		<polygon class="st4" points="1256.3,718.7 1231.1,699.3 1236.9,743.9 		"/>
		
			<rect x="1201.8" y="661.6" transform="matrix(0.9873 -0.1586 0.1586 0.9873 -99.3384 201.7618)" class="st0" width="25.2" height="123.4"/>
		<text transform="matrix(0.1586 0.9873 -0.9873 0.1586 1210.3417 684.0056)" class="st4 st7 st8">SJSU Campus</text>
	</g>
</g>
<g id="north">
	<g id="north_1_">
		<polygon class="st4" points="470,118 462.7,150.7 502.7,125.4 		"/>
		
			<rect x="449.5" y="92.2" transform="matrix(0.829 -0.5592 0.5592 0.829 19.8702 275.8815)" class="st0" width="23.3" height="26.6"/>
		<text transform="matrix(0.829 -0.5592 0.5592 0.829 458.8555 119.8857)" class="st4 st9 st10">N</text>
	</g>
</g>
<g id="yellow_region">
	<polygon id="Q_x2B_QD" class="st11" points="1000.8,555.1 1036.1,515.2 1123.5,572.9 1177.3,510.3 1218.2,541.6 1176.3,594 
		1164.7,586.4 1127.1,634.6 	"/>
	<polygon id="Theses_Q-Z" class="st11" points="850.7,458.5 871.2,430.4 1000.8,514.9 979,541.6 	"/>
	<polygon id="QD" class="st11" points="916.7,819.8 1001.2,875.4 1045.8,804.9 1066.3,817.9 1091.8,778.3 997.4,715.4 	"/>
	<polygon id="S_x2B_R" class="st11" points="690.4,672 801.3,742.8 850.4,684.2 949.4,746.3 982.2,707.4 766.2,570.7 	"/>
	<polygon id="Folio_A_x2C_Z_x2C_TR_x2C_TK" class="st11" points="405.5,483.5 446.7,509.4 492.9,446.3 593.8,513.4 560.6,561.9 
		640.1,618.8 618.1,648.1 660.9,676.3 750.6,557.4 481.1,379.8 	"/>
	<polygon id="Folio_F_x2C__G_x2C__N" class="st11" points="585.6,205 549,177.3 581.5,119.3 655.7,162.1 617.5,238 723,310.1 
		750.6,255.8 841.8,316.7 859.4,277.1 910,311.6 830,445.8 555,259.5 	"/>
</g>
<g id="grey_region">
	<polygon id="RM_-_826" class="st12" points="663.8,254.6 687.3,206.8 661.2,188.6 636.9,236.1 	"/>
	<polygon id="RM_-_822" class="st12" points="718.7,292.3 688.4,271.5 710.2,222.7 739.9,243.4 	"/>
	<polygon id="RM_-_824" class="st12" points="663.8,254.6 688.4,271.5 710.2,222.7 687.3,206.8 	"/>
	<polygon id="RM_-_806" class="st12" points="738.9,234.7 753.6,200.2 784.7,221.1 769.4,254.2 	"/>
	<polygon id="RM_-_804" class="st12" points="800,275.1 769.4,254.2 784.7,221.1 816,242.2 	"/>
	<polygon id="RM_-_802" class="st12" points="830.7,294.7 800,275.1 816,242.2 845.8,262.2 	"/>
	<polygon id="service_1_" class="st12" points="734.5,486 766.8,437.6 814.7,469.2 783.2,517.3 	"/>
	<polygon id="corner_4" class="st12" points="1074.2,638.5 1086.9,626.4 1131.7,653 1114.2,663.6 	"/>
	<polygon id="corner_3" class="st12" points="1136.8,649.7 1130.5,639.4 1252.8,565.3 1260,575.6 	"/>
	<polygon id="corner_2" class="st12" points="1258.2,559.5 1267,551.7 1174.4,484.2 1166.2,494.5 	"/>
	<polygon id="toilet" class="st12" points="1114.8,551.7 1166.2,494.5 1174.4,484.2 1104.8,436.4 1043.3,507.5 	"/>
	<polygon id="near_atrium_2" class="st12" points="1036.8,612.2 1048.2,596.1 841.3,463.4 830.4,479.6 	"/>
	<polygon id="near_atrium_1" class="st12" points="785,548.1 774.6,565.3 982.2,696.5 993.2,681.6 	"/>
	<polygon id="corner_1" class="st12" points="1008.2,715.4 1018.4,700.9 1160.9,792.3 1147.4,807.3 	"/>
	<polygon id="RM_-_832" class="st12" points="479.6,494.9 500.9,463.9 538.5,489.3 517.9,520.7 	"/>
	<polygon id="RM_-_834" class="st12" points="556.6,546.7 578,515.9 538.5,489.3 517.9,520.7 	"/>
	<polygon id="RM_-_864" class="st12" points="597.3,643.4 617.8,614.8 586.6,591.7 565,621.1 	"/>
	<polygon id="RM_-_862" class="st12" points="565,621.1 586.6,591.7 554.1,568.8 533,599.1 	"/>
</g>
<g id="Grey_grid">
	<polygon id="grey_grid_-_1" class="st13" points="807.4,778.6 863.4,705.8 940.5,755.5 884.5,828.1 	"/>
</g>
<g id="atrium">
	<polygon id="atrium_1_" class="st14" points="785,548.1 830.4,479.6 1036.8,612.2 989.6,679.3 	"/>
</g>
<g id="vertical_flow">
	<polygon id="stairs" class="st15" points="1015.2,371.5 974.1,436.4 1004.3,456.8 1043.3,391.8 	"/>
	<polygon id="elevator" class="st15" points="894.4,385.3 974.1,436.4 979.3,439.8 966.9,461.1 880.1,404.6 	"/>
</g>
<g id="text" class="st16">
	<rect x="880.3" y="575.5" class="st17" width="59.4" height="10.1"/>
	<text transform="matrix(1 0 0 1 892.6543 584.0564)" class="st18 st19 st20">Atrium</text>
	<rect x="588.5" y="386.4" class="st17" width="96.8" height="33.9"/>
	<text transform="matrix(1 0 0 1 593.4095 396.3578)" class="st18"><tspan x="0" y="0" class="st19 st6">Grand Reading </tspan><tspan x="26.2" y="18" class="st19 st6">Room</tspan></text>
	<rect x="775.6" y="356.5" class="st17" width="80.9" height="29.9"/>
	<text transform="matrix(1 0 0 1 798.478 365.0099)" class="st18 st19 st20">Folio N</text>
	
		<rect x="641.2" y="275.7" transform="matrix(0.5736 -0.8192 0.8192 0.5736 31.0298 663.4148)" class="st17" width="23" height="52.4"/>
	<text transform="matrix(0.8192 0.5736 -0.5736 0.8192 640.0598 289.462)" class="st18 st19 st20">Folio G</text>
	<rect x="575.2" y="164" class="st17" width="44" height="15"/>
	<text transform="matrix(1 0 0 1 580.6364 172.483)" class="st18 st19 st20">Folio F</text>
	<rect x="515.8" y="431" class="st17" width="19.3" height="12.8"/>
	<text transform="matrix(1 0 0 1 522.1617 439.483)" class="st18 st19 st20">Z</text>
	<rect x="620.5" y="521.7" class="st17" width="19.3" height="12.8"/>
	<text transform="matrix(1 0 0 1 623.9204 530.1703)" class="st18 st19 st20">TR</text>
	<rect x="677" y="604.8" class="st17" width="19.3" height="12.8"/>
	<text transform="matrix(1 0 0 1 680.3691 613.2761)" class="st18 st19 st20">TK</text>
	
		<rect x="429.5" y="459.8" transform="matrix(0.5736 -0.8192 0.8192 0.5736 -191.5775 568.1637)" class="st17" width="40.9" height="16.5"/>
	<text transform="matrix(0.5736 -0.8192 0.8192 0.5736 440.2193 482.3815)" class="st18 st19 st20">Folio A</text>
	<rect x="647.3" y="216.8" class="st17" width="27.5" height="11.9"/>
	<text transform="matrix(1 0 0 1 651.8624 225.2865)" class="st18 st19 st20">826</text>
	<rect x="673.7" y="233.2" class="st17" width="27.5" height="11.9"/>
	<text transform="matrix(1 0 0 1 678.2019 241.7014)" class="st18 st19 st20">824</text>
	<rect x="701.2" y="251.5" class="st17" width="27.5" height="11.9"/>
	<text transform="matrix(1 0 0 1 705.7065 260.064)" class="st18 st19 st20">822</text>
	<rect x="748.1" y="222.7" class="st17" width="27.5" height="11.9"/>
	<text transform="matrix(1 0 0 1 752.5707 231.2464)" class="st18 st19 st20">806</text>
	<rect x="778.9" y="242.1" class="st17" width="27.5" height="11.9"/>
	<text transform="matrix(1 0 0 1 783.4601 250.6602)" class="st18 st19 st20">804</text>
	<rect x="810.9" y="262.5" class="st17" width="27.5" height="11.9"/>
	<text transform="matrix(1 0 0 1 815.4601 270.9939)" class="st18 st19 st20">802</text>
	
		<rect x="919.1" y="451.3" transform="matrix(0.5446 -0.8387 0.8387 0.5446 13.9325 996.9728)" class="st17" width="12" height="68.6"/>
	<text transform="matrix(0.8387 0.5446 -0.5446 0.8387 900.5433 472.6984)" class="st18 st19 st20">Theses Q-Z</text>
	<rect x="1029.8" y="531.4" class="st17" width="18.4" height="10.1"/>
	<text transform="matrix(1 0 0 1 1034.8435 539.9626)" class="st18 st19 st20">Q</text>
	<rect x="1179" y="533.4" class="st17" width="18.4" height="10.1"/>
	<text transform="matrix(1 0 0 1 1180.0397 541.9626)" class="st18 st19 st20">QD</text>
	<rect x="1051.2" y="779.1" class="st17" width="18.4" height="10.1"/>
	<text transform="matrix(1 0 0 1 1052.2579 787.6425)" class="st18 st19 st20">QD</text>
	<rect x="943.6" y="712.8" class="st17" width="18.4" height="10.1"/>
	<text transform="matrix(1 0 0 1 949.5703 721.2881)" class="st18 st19 st20">R</text>
	<rect x="812.1" y="663.6" class="st17" width="18.4" height="10.1"/>
	<text transform="matrix(1 0 0 1 818.2804 672.1613)" class="st18 st19 st20">S</text>
	<rect x="496.4" y="487.5" class="st17" width="27.5" height="11.9"/>
	<text transform="matrix(1 0 0 1 500.9545 496.0203)" class="st18 st19 st20">832</text>
	<rect x="534.2" y="513.7" class="st17" width="27.5" height="11.9"/>
	<text transform="matrix(1 0 0 1 538.7185 522.2339)" class="st18 st19 st20">834</text>
	<rect x="546" y="591" class="st17" width="27.5" height="11.9"/>
	<text transform="matrix(1 0 0 1 550.5685 599.5135)" class="st18 st19 st20">862</text>
	<rect x="577.7" y="613.3" class="st17" width="27.5" height="11.9"/>
	<text transform="matrix(1 0 0 1 582.1744 621.8691)" class="st18 st19 st20">864</text>
	<rect x="99.3" y="30.9" class="st17" width="176.3" height="232.2"/>
	<text transform="matrix(1 0 0 1 99.3143 245.745)" class="st21 st22 st23 st24">8</text>
	<rect x="22.5" y="20.6" class="st17" width="300.4" height="54.6"/>
	<text transform="matrix(1 0 0 1 22.4569 54.9362)" class="st18 st22 st25">Eighth Floor</text>
	<rect x="23.5" y="84.9" class="st17" width="286" height="77.9"/>
	<text transform="matrix(1 0 0 1 23.4569 99.9737)" class="st18"><tspan x="0" y="0" class="st5 st26">Research Collections Q - Z,</tspan><tspan x="0" y="25.2" class="st5 st26">Folios A - Z</tspan></text>
	<rect x="23.5" y="181.9" class="st17" width="273.2" height="182.8"/>
	<text transform="matrix(1 0 0 1 23.4569 196.9628)" class="st18"><tspan x="0" y="0" class="st5 st26">Quiet Floor</tspan><tspan x="0" y="21.6" class="st5 st27">- low level, minimum conversation   </tspan><tspan x="0" y="43.2" class="st5 st27">  allowed</tspan><tspan x="0" y="64.8" class="st5 st27">- no cell phone use</tspan><tspan x="0" y="86.4" class="st5 st27">- no food</tspan><tspan x="0" y="108" class="st5 st27">- only covered drinks allowed</tspan><tspan x="0" y="129.6" class="st5 st27">- no drinks while using computers</tspan></text>
</g>
<g id="exit" class="st16">
	<g id="exit_3_" class="st18">
		<circle class="st28" cx="1051.2" cy="394.4" r="16.7"/>
		<rect x="1039.2" y="389.6" class="st0" width="23.8" height="10.5"/>
		<text transform="matrix(1 0 0 1 1040.2798 398.0889)" class="st29 st19 st20">EXIT</text>
	</g>
	<g id="exit_2_" class="st18">
		<circle class="st28" cx="898.1" cy="807.3" r="16.7"/>
		<rect x="886" y="802.5" class="st0" width="23.8" height="10.5"/>
		<text transform="matrix(1 0 0 1 887.1727 811.0585)" class="st29 st19 st20">EXIT</text>
	</g>
	<g id="exit_1_" class="st18">
		<circle class="st28" cx="473.5" cy="552" r="16.7"/>
		<rect x="461.4" y="547.2" class="st0" width="23.8" height="10.5"/>
		<text transform="matrix(1 0 0 1 462.57 555.7598)" class="st29 st19 st20">EXIT</text>
	</g>
</g>
<g id="stairs_x2F_ele" class="st16">
	<g id="symbol-stairs" class="st18">
		<circle class="st30" cx="1008.7" cy="414.1" r="12.3"/>
		<polygon points="1000.8,420.2 1000.8,416.7 1004.3,416.7 1004.3,413.2 1007.8,413.2 1007.8,409.8 1011.3,409.8 1011.3,406.3 
			1014.8,406.3 1014.8,420.2 		"/>
	</g>
	<g id="symbol-ele" class="st18">
		<circle class="st30" cx="933" cy="423.2" r="12.3"/>
		<rect x="926.7" y="417.7" width="5.8" height="11.6"/>
		<rect x="933.4" y="417.7" width="5.8" height="11.6"/>
		<rect x="931.6" y="415.5" width="2.7" height="1.6"/>
		<polygon points="930.6,415.5 933,413.8 935.3,415.5 		"/>
	</g>
</g>
<g id="phone" class="st16">
	<g id="phone_3_" class="st18">
		<circle class="st31" cx="508.5" cy="397.1" r="13.7"/>
		<path class="st29" d="M505.6,402.4l0,3.1c0,0.7,0.6,1.3,1.3,1.3l2.5,0c0.7,0,1.3-0.6,1.3-1.3l0-3.1c0-0.7-0.6-1.3-1.3-1.3l-2.5,0
			C506.2,401.1,505.6,401.7,505.6,402.4z"/>
		<path class="st29" d="M509.2,390l0.1,13.8c0,0.7,0.6,1.3,1.3,1.3l0.3,0c0.7,0,1.3-0.6,1.3-1.3l-0.1-13.8c0-0.7-0.6-1.3-1.3-1.3
			l-0.3,0C509.8,388.7,509.2,389.3,509.2,390z"/>
		<path class="st29" d="M505.4,388.7l0,3.1c0,0.7,0.6,1.3,1.3,1.3l2.7,0c0.7,0,1.3-0.6,1.3-1.3l0-3.1c0-0.7-0.6-1.3-1.3-1.3l-2.7,0
			C506,387.4,505.4,388,505.4,388.7z"/>
		
			<ellipse transform="matrix(0.6941 -0.7199 0.7199 0.6941 -135.3161 491.2292)" class="st29" cx="510.3" cy="404.8" rx="2.4" ry="1.3"/>
		
			<ellipse transform="matrix(0.6765 -0.7365 0.7365 0.6765 -121.5853 501.6739)" class="st29" cx="510.2" cy="389.2" rx="1.3" ry="2.3"/>
	</g>
	<g id="phone_2_" class="st18">
		<circle class="st31" cx="1041.3" cy="602.7" r="13.7"/>
		<path class="st29" d="M1038.7,608.2l0.2,3.1c0.1,0.7,0.7,1.2,1.4,1.2l2.5-0.2c0.7-0.1,1.2-0.7,1.2-1.4l-0.2-3.1
			c-0.1-0.7-0.7-1.2-1.4-1.2l-2.5,0.2C1039.2,606.9,1038.6,607.5,1038.7,608.2z"/>
		<path class="st29" d="M1041.5,595.6l1,13.8c0.1,0.7,0.7,1.3,1.4,1.2l0.3,0c0.7-0.1,1.3-0.7,1.2-1.4l-1-13.8
			c-0.1-0.7-0.7-1.3-1.4-1.2l-0.3,0C1042,594.2,1041.4,594.9,1041.5,595.6z"/>
		<path class="st29" d="M1037.5,594.5l0.2,3.1c0.1,0.7,0.7,1.2,1.4,1.2l2.7-0.2c0.7-0.1,1.2-0.7,1.2-1.4l-0.2-3.1
			c-0.1-0.7-0.7-1.2-1.4-1.2l-2.7,0.2C1038,593.2,1037.5,593.8,1037.5,594.5z"/>
		
			<ellipse transform="matrix(0.6441 -0.7649 0.7649 0.6441 -95.4499 1015.4035)" class="st29" cx="1043.5" cy="610.3" rx="2.4" ry="1.3"/>
		
			<ellipse transform="matrix(0.6255 -0.7803 0.7803 0.6255 -73.6204 1036.0779)" class="st29" cx="1042.4" cy="594.7" rx="1.3" ry="2.3"/>
	</g>
	<g id="campus_phone" class="st18">
		<g>
			<circle class="st31" cx="798.8" cy="493.3" r="13.7"/>
			<g>
				<path class="st29" d="M803.2,490.3l1.8,0c0.7,0,1.3-0.6,1.3-1.3l0-1.3c0-0.7-0.6-1.3-1.3-1.3l-1.8,0c-0.7,0-1.3,0.6-1.3,1.3
					l0,1.3C801.9,489.7,802.5,490.3,803.2,490.3z"/>
				<path class="st29" d="M793.2,487.5l10.8-0.1c0.5,0,1-0.4,1-1l0-0.3c0-0.5-0.4-1-1-1l-10.8,0.1c-0.5,0-1,0.4-1,1l0,0.3
					C792.3,487.1,792.7,487.5,793.2,487.5z"/>
				<path class="st29" d="M792.5,490.5l1.8,0c0.7,0,1.3-0.6,1.3-1.3l0-1.5c0-0.7-0.6-1.3-1.3-1.3l-1.8,0c-0.7,0-1.3,0.6-1.3,1.3
					l0,1.5C791.2,489.9,791.8,490.5,792.5,490.5z"/>
				
					<ellipse transform="matrix(0.6931 -0.7209 0.7209 0.6931 -103.8173 729.5184)" class="st29" cx="804.8" cy="486.7" rx="1" ry="1.8"/>
				
					<ellipse transform="matrix(0.6754 -0.7374 0.7374 0.6754 -101.6901 742.5185)" class="st29" cx="792.7" cy="486.8" rx="1.8" ry="1"/>
			</g>
		</g>
		<g>
			<g>
				
					<rect x="792.4" y="495" transform="matrix(0.7071 0.7071 -0.7071 0.7071 583.3105 -415.8042)" class="st29" width="2.4" height="2.4"/>
				
					<rect x="797.4" y="489.9" transform="matrix(0.7071 0.7071 -0.7071 0.7071 581.2155 -420.862)" class="st29" width="2.4" height="2.4"/>
				
					<rect x="797.4" y="500.1" transform="matrix(0.7071 0.7071 -0.7071 0.7071 588.3683 -417.8992)" class="st29" width="2.4" height="2.4"/>
				
					<rect x="802.5" y="495" transform="matrix(0.7071 0.7071 -0.7071 0.7071 586.2733 -422.957)" class="st29" width="2.4" height="2.4"/>
				
					<rect x="794.9" y="491.7" transform="matrix(0.7071 0.7071 -0.7071 0.7071 582.2541 -418.3547)" class="st29" width="2.4" height="3.9"/>
				
					<rect x="799.9" y="496.8" transform="matrix(0.7071 0.7071 -0.7071 0.7071 587.3208 -420.4281)" class="st29" width="2.4" height="3.9"/>
				
					<rect x="794.9" y="496.8" transform="matrix(-0.7071 0.7071 -0.7071 -0.7071 1711.7529 288.5016)" class="st29" width="2.4" height="3.9"/>
				
					<rect x="800" y="491.8" transform="matrix(-0.7071 0.7071 -0.7071 -0.7071 1716.8107 276.291)" class="st29" width="2.4" height="3.9"/>
				
					<rect x="796.8" y="494.3" transform="matrix(0.7071 0.7071 -0.7071 0.7071 584.7997 -419.3993)" class="st29" width="3.8" height="3.8"/>
			</g>
			<polygon class="st29" points="793.6,491.2 793.6,493.9 796.3,491.2 			"/>
			<polygon class="st29" points="803.7,501.3 803.7,498.5 801,501.3 			"/>
			<polygon class="st29" points="803.7,491.2 801,491.2 803.7,493.9 			"/>
			<polygon class="st29" points="793.6,501.3 796.3,501.3 793.6,498.6 			"/>
		</g>
	</g>
</g>
<g id="toilet_1_" class="st16">
	<g id="symbol_-_toilet" class="st18">
		<circle class="st31" cx="1095.4" cy="513.1" r="14.2"/>
		<path class="st29" d="M1099,509.2l0,4.6c0,0.5,0.4,0.9,0.9,0.9l1.9,0c0.5,0,0.9-0.4,0.9-0.9l0-4.6c0-0.5-0.4-0.9-0.9-0.9l-1.9,0
			C1099.4,508.4,1099,508.8,1099,509.2z"/>
		<path class="st29" d="M1104.3,508.5l0,4.9c0,0.3-0.2,0.6-0.6,0.6l-0.4,0c-0.3,0-0.6-0.2-0.6-0.6l0-4.9c0-0.3,0.2-0.6,0.6-0.6
			l0.4,0C1104.1,508,1104.3,508.2,1104.3,508.5z"/>
		<path class="st29" d="M1098.9,508.5l0,5c0,0.3-0.2,0.6-0.6,0.6l-0.4,0c-0.3,0-0.6-0.2-0.6-0.6l0-5c0-0.3,0.2-0.6,0.6-0.6l0.4,0
			C1098.6,508,1098.9,508.2,1098.9,508.5z"/>
		<circle class="st29" cx="1100.8" cy="505.9" r="1.6"/>
		<path class="st29" d="M1097.4,508.5l0,0.7c0,0.3,0.3,0.6,0.6,0.6l5.7,0c0.3,0,0.6-0.3,0.6-0.6l0-0.7c0-0.3-0.3-0.6-0.6-0.6l-5.7,0
			C1097.7,507.9,1097.4,508.1,1097.4,508.5z"/>
		<path class="st29" d="M1100.7,513.3l0,7.4c0,0.3-0.2,0.6-0.6,0.6l-0.6,0c-0.3,0-0.6-0.2-0.6-0.6l0-7.4c0-0.3,0.2-0.6,0.6-0.6
			l0.6,0C1100.5,512.7,1100.7,513,1100.7,513.3z"/>
		<path class="st29" d="M1102.7,513.2l0,7.4c0,0.3-0.2,0.6-0.6,0.6l-0.6,0c-0.3,0-0.6-0.2-0.6-0.6l0-7.4c0-0.3,0.2-0.6,0.6-0.6
			l0.6,0C1102.4,512.6,1102.7,512.9,1102.7,513.2z"/>
		<rect x="1095.1" y="503.6" class="st29" width="0.7" height="18.3"/>
		<path class="st29" d="M1088,508.6l-1,4.9c-0.1,0.3-0.4,0.5-0.7,0.4l-0.4-0.1c-0.3-0.1-0.5-0.4-0.4-0.7l1-4.9
			c0.1-0.3,0.4-0.5,0.7-0.4l0.4,0.1C1087.9,508.1,1088.1,508.3,1088,508.6z"/>
		<circle class="st29" cx="1090" cy="505.9" r="1.6"/>
		<path class="st29" d="M1086.5,508.5l0,0.7c0,0.3,0.3,0.6,0.6,0.6l5.7,0c0.3,0,0.6-0.3,0.6-0.6l0-0.7c0-0.3-0.3-0.6-0.6-0.6l-5.7,0
			C1086.8,507.9,1086.5,508.1,1086.5,508.5z"/>
		<path class="st29" d="M1089.9,513.2l0,7.4c0,0.3-0.2,0.5-0.5,0.5l-0.4,0c-0.3,0-0.5-0.2-0.5-0.5l0-7.4c0-0.3,0.2-0.5,0.5-0.5
			l0.4,0C1089.6,512.7,1089.9,512.9,1089.9,513.2z"/>
		<path class="st29" d="M1093.4,508.3l1,4.9c0.1,0.3-0.1,0.6-0.4,0.7l-0.4,0.1c-0.3,0.1-0.6-0.1-0.7-0.4l-1-4.9
			c-0.1-0.3,0.1-0.6,0.4-0.7l0.4-0.1C1093,507.8,1093.3,508,1093.4,508.3z"/>
		<polygon class="st29" points="1086.8,516.1 1088,509.8 1091.9,509.8 1093.1,516.1 		"/>
		<path class="st29" d="M1091.8,513.2l0,7.4c0,0.3-0.2,0.5-0.5,0.5l-0.4,0c-0.3,0-0.5-0.2-0.5-0.5l0-7.4c0-0.3,0.2-0.5,0.5-0.5
			l0.4,0C1091.5,512.7,1091.8,513,1091.8,513.2z"/>
	</g>
</g>
<g id="service" class="st16">
	<g id="service_2_" class="st18">
		<circle class="st32" cx="752.8" cy="463.4" r="12.3"/>
		<path class="st29" d="M757.3,467.7h-8.9c-2,0-3.6-1.6-3.6-3.6v-4.4c0-2,1.6-3.6,3.6-3.6h8.9c2,0,3.6,1.6,3.6,3.6v4.4
			C760.8,466,759.2,467.7,757.3,467.7z"/>
		<rect x="748.5" y="457.6" class="st0" width="8.7" height="9.4"/>
		<text transform="matrix(1 0 0 1 750.9682 465.9134)" class="st33 st34 st35">i</text>
		<polygon class="st29" points="748.6,467.7 747.3,472.1 752.3,467.7 		"/>
	</g>
</g>
</svg>
